<?xml version="1.0" standalone="yes"?>

<svg version="1.1" viewBox="0.0 0.0 960.0 540.0" fill="none" stroke="none" stroke-linecap="square" stroke-miterlimit="10" xmlns="http://www.w3.org/2000/svg" xmlns:xlink="http://www.w3.org/1999/xlink"><clipPath id="g2856bbafa9_2_27.0"><path d="m0 0l960.0 0l0 540.0l-960.0 0l0 -540.0z" clip-rule="nonzero"></path></clipPath><g clip-path="url(#g2856bbafa9_2_27.0)"><path fill="#000000" fill-opacity="0.0" d="m0 0l960.0 0l0 540.0l-960.0 0z" fill-rule="evenodd"></path><path fill="#000000" fill-opacity="0.0" d="m48.0 227.70866l94.69292 0l0 -34.291336l68.58267 68.58267l-68.58267 68.58267l0 -34.29132l-94.69292 0z" fill-rule="evenodd"></path><path stroke="#ffffff" stroke-width="1.0" stroke-linejoin="round" stroke-linecap="butt" d="m48.0 227.70866l94.69292 0l0 -34.291336l68.58267 68.58267l-68.58267 68.58267l0 -34.29132l-94.69292 0z" fill-rule="evenodd"></path><path fill="#000000" fill-opacity="0.0" d="m220.94751 224.50394l94.6929 0l0 -34.291336l68.58267 68.58269l-68.58267 68.58267l0 -34.29135l-94.6929 0z" fill-rule="evenodd"></path><path stroke="#ffffff" stroke-width="1.0" stroke-linejoin="round" stroke-linecap="butt" d="m220.94751 224.50394l94.6929 0l0 -34.291336l68.58267 68.58269l-68.58267 68.58267l0 -34.29135l-94.6929 0z" fill-rule="evenodd"></path><path fill="#000000" fill-opacity="0.0" d="m395.04987 224.44357l94.6929 0l0 -34.291336l68.58267 68.58266l-68.58267 68.5827l0 -34.29135l-94.6929 0z" fill-rule="evenodd"></path><path stroke="#ffffff" stroke-width="1.0" stroke-linejoin="round" stroke-linecap="butt" d="m395.04987 224.44357l94.6929 0l0 -34.291336l68.58267 68.58266l-68.58267 68.5827l0 -34.29135l-94.6929 0z" fill-rule="evenodd"></path><path fill="#000000" fill-opacity="0.0" d="m563.04987 224.44357l94.69293 0l0 -34.291336l68.58264 68.58266l-68.58264 68.5827l0 -34.29135l-94.69293 0z" fill-rule="evenodd"></path><path stroke="#ffffff" stroke-width="1.0" stroke-linejoin="round" stroke-linecap="butt" d="m563.04987 224.44357l94.69293 0l0 -34.291336l68.58264 68.58266l-68.58264 68.5827l0 -34.29135l-94.69293 0z" fill-rule="evenodd"></path><path fill="#000000" fill-opacity="0.0" d="m731.04987 224.44357l94.69293 0l0 -34.291336l68.58264 68.58266l-68.58264 68.5827l0 -34.29135l-94.69293 0z" fill-rule="evenodd"></path><path stroke="#ffffff" stroke-width="1.0" stroke-linejoin="round" stroke-linecap="butt" d="m731.04987 224.44357l94.69293 0l0 -34.291336l68.58264 68.58266l-68.58264 68.5827l0 -34.29135l-94.69293 0z" fill-rule="evenodd"></path><path fill="#000000" fill-opacity="0.0" d="m-10.666667 -1.3333334l10.677166 0l0 20.0l-10.677166 0z" fill-rule="evenodd"></path></g></svg>

