<svg xmlns="http://www.w3.org/2000/svg" viewBox="0 0 789.7 703.2"><defs><style>.cls-1{fill:#89cce5;}.cls-10,.cls-11,.cls-12,.cls-13,.cls-14,.cls-15,.cls-2,.cls-7,.cls-8,.cls-9{fill:#202532;}.cls-16,.cls-3,.cls-4{fill:#e9eced;}.cls-4{stroke:#bcbcbc;stroke-width:3px;}.cls-4,.cls-5,.cls-6{stroke-miterlimit:10;}.cls-25,.cls-5{fill:#f4912d;}.cls-5,.cls-6{stroke:#fff;stroke-width:10px;}.cls-22,.cls-6{fill:#fff;}.cls-7{font-size:42.4px;}.cls-10,.cls-11,.cls-12,.cls-13,.cls-14,.cls-15,.cls-7,.cls-8,.cls-9{font-family:FuturaPT-Bold, Futura PT;font-weight:700;}.cls-8{font-size:36.97px;}.cls-9{font-size:42.89px;}.cls-10{font-size:43.66px;}.cls-11{font-size:43.23px;}.cls-12{font-size:30.2px;}.cls-13{font-size:34.5px;}.cls-14{font-size:35.3px;}.cls-15{font-size:36.93px;}.cls-16{font-size:39px;}.cls-16,.cls-25{font-family:FuturaPT-Demi, Futura PT;}.cls-17{letter-spacing:-0.06em;}.cls-18{letter-spacing:-0.06em;}.cls-19{letter-spacing:0.02em;}.cls-20{letter-spacing:0.04em;}.cls-21{letter-spacing:0.02em;}.cls-22{font-size:18px;font-family:FuturaPT-Book, Futura PT;}.cls-23{letter-spacing:-0.03em;}.cls-24{letter-spacing:-0.02em;}.cls-25{font-size:22px;letter-spacing:-0.04em;}.cls-26{letter-spacing:-0.01em;}.cls-27{letter-spacing:0em;}.cls-28{font-size:16px;}.cls-29{letter-spacing:0.02em;}.cls-30{letter-spacing:-0.02em;}.cls-31{letter-spacing:0.02em;}</style></defs><title>start_billede</title><g id="Layer_2" data-name="Layer 2"><g id="Layer_1-2" data-name="Layer 1"><rect class="cls-1" width="789.7" height="703.2"/><path class="cls-2" d="M366.83,29.19c1-.64,2.51-.45,4.45-.19,1.72.19,2.3.58,2.87.19s.5-1.54.36-2.88c-.43-4-.57-6,.36-6.84,1.44-1.22,5.6-.38,6.75,1.54.36.64.29,1.73.14,3.84-.22,2.88-.65,3.45-.07,4.09.14.19.65.64,4.6.58,3.45-.06,4.31-.45,5,.19.93.9.5,3.07-.79,3.9-.43.26-.86.32-3.38.13-3.45-.32-4.6-.64-5.39,0a2,2,0,0,0-.5,1.79c0,.06-.14,4.67-.43,13.94a24.72,24.72,0,0,0,.36,6.65c.57,3.07,1.36,3.65,1.87,3.84,1.29.45,2.95-.77,4-1.54a14.54,14.54,0,0,0,4.67-5.88c3.52-8.32,4-16.69,4.24-22.13a22.14,22.14,0,0,0-.07-5.56c-.29-1.28-.29-2.62-.5-4-.14-.77-.22-1.09,0-1.34.79-1.15,4.88-1,6.75.9.86.83,1,1.79.79,6.2a103.36,103.36,0,0,1-.72,10.81c-.57,3.71-1.08,5.44-.36,5.76,1.22.51,3.23-3.84,7.33-4.22a7.86,7.86,0,0,1,7,3.33c2,3.45-.79,8.64-3.23,13-1.44,2.69-2.59,4-2,4.67.86.83,4.53-.45,7-2.37,1.94-1.47,2.8-3.07,4.67-6.4A47,47,0,0,0,426,44c.93-2.56.86-3.07,1.72-3.9,2-2,5.75-2.11,8.26-1.6,1.15.26,3.16.7,4.31,2.3,1.44,1.92.65,4.29.29,5.63a6.05,6.05,0,0,1-1.72,3.13c-2.51,2.24-6.32,1-7,2.3-.43,1,.93,2.69,2.51,3.33,2.87,1.09,7-1.22,9-3.07,1.22-1.09,1.65-1.92,2.15-1.79.93.26.93,3.84-.22,6.78-.5,1.28-2.73,7.23-8.84,8.06A11.17,11.17,0,0,1,427,61.94c-2.3-2.62-1.8-5.88-3-6-.86-.06-1.22,1.41-3.16,3.45A18,18,0,0,1,415,63.09c-.72.26-6.18,2.37-8.26.51-.43-.45-1.22-1.47.36-6.33,2.3-7.42,5.75-10.43,4.67-11.58s-5.39-.06-8.19,2.37c-2.95,2.62-1.65,4.67-4.88,9.21a15.16,15.16,0,0,1-6.25,5.44A16.65,16.65,0,0,1,384.79,64c-1.8-.13-5.1-.32-7.61-2.3S374.23,57,373.8,54c-.29-2-.36-3.9.65-14.14.36-3.65.5-5.25-.65-6.14-2.23-1.66-6.46.9-7.9-.7C365,32.13,365.54,30,366.83,29.19Z"/><path class="cls-1" d="M431.48,47.23c1.8.64,3.81-.51,4.81-1.54.22-.26,1.8-1.79,1.22-2.94s-3.09-1.22-4.67-.64-3.3,2.24-2.87,3.65C430.11,46.72,431.26,47.16,431.48,47.23Z"/><rect class="cls-2" y="496.48" width="789.7" height="205.94"/><path class="cls-3" d="M311.91,207a70.9,70.9,0,0,1,5-7.2,25.86,25.86,0,0,1,5-4.27s1.87-1.24,12.88-6.37h103V186.6h30.06v2.55a35.69,35.69,0,0,1,7.16,0,31.64,31.64,0,0,1,10,2.55,29.63,29.63,0,0,1,10,7.65h0c3.67,3.27,5.72,10.19,5.72,10.19h0V524.32a26.27,26.27,0,0,1-8.59,12.74c-5.37,4.25-14.31,7.65-14.31,7.65h-146c5,2.26-10.74-3.85-14.31-7.65-.82-.87-2.46-4-5.72-10.2h0V207Z"/><rect class="cls-2" x="324.79" y="240.13" width="160.29" height="253.61"/><path class="cls-2" d="M402.08,205.72a3.26,3.26,0,0,1,1.43-1.27,4.87,4.87,0,0,1,4.29,0,3.26,3.26,0,0,1,1.43,1.27,2.75,2.75,0,0,1,0,2.55,3.26,3.26,0,0,1-1.43,1.27,4.87,4.87,0,0,1-4.29,0,3.26,3.26,0,0,1-1.43-1.27A2.75,2.75,0,0,1,402.08,205.72Z"/><path class="cls-2" d="M387.76,219.74a7.78,7.78,0,0,1,1.43-2.55h31.49a8.22,8.22,0,0,1,1.43,2.55c.31,1.82-1.43,3.82-1.43,3.82H389.19C389.22,223.61,387.45,221.58,387.76,219.74Z"/><path class="cls-4" d="M394.21,512.11a14.49,14.49,0,0,1,6.14-6.06,19.07,19.07,0,0,1,18.42,0,14.49,14.49,0,0,1,6.14,6.06c3,5.94.18,11.77,0,12.12a14.49,14.49,0,0,1-6.14,6.06,19.07,19.07,0,0,1-18.42,0,14.49,14.49,0,0,1-6.14-6.06C391.21,518.29,394,512.46,394.21,512.11Z"/><rect class="cls-5" x="542.2" y="204.71" width="67.96" height="60.52"/><rect class="cls-6" x="542.47" y="267.89" width="67.96" height="10.65"/><text class="cls-7" transform="translate(563.24 250.02) scale(1.12 1)">?</text><polygon class="cls-5" points="237.94 459.37 185.82 481.71 160.73 435.31 212.85 412.96 237.94 459.37"/><polygon class="cls-6" points="243.67 469.49 191.55 491.84 187.14 483.67 239.26 461.32 243.67 469.49"/><text class="cls-8" transform="matrix(0.99, -0.42, 0.48, 0.88, 195.65, 463.14)">?</text><polygon class="cls-5" points="269.72 270.1 204.83 252.09 225.05 194.32 289.94 212.32 269.72 270.1"/><polygon class="cls-6" points="265.53 282.88 200.64 264.88 204.2 254.71 269.09 272.71 265.53 282.88"/><text class="cls-9" transform="matrix(1.06, 0.29, -0.33, 0.94, 230, 243.15)">?</text><rect class="cls-5" x="190.08" y="309.51" width="67.96" height="60.52"/><rect class="cls-6" x="190.35" y="372.69" width="67.96" height="10.65"/><text class="cls-7" transform="translate(211.12 354.82) scale(1.12 1)">?</text><polygon class="cls-5" points="691.28 425.2 631.63 396.2 664.2 343.08 723.85 372.08 691.28 425.2"/><polygon class="cls-6" points="684.35 437 624.7 408 630.43 398.65 690.09 427.65 684.35 437"/><text class="cls-10" transform="matrix(0.96, 0.47, -0.52, 0.85, 658.28, 391.83)">?</text><polygon class="cls-5" points="165 378.87 102.39 402.39 75.97 346.64 138.59 323.11 165 378.87"/><polygon class="cls-6" points="171.07 391.04 108.45 414.57 103.8 404.75 166.42 381.23 171.07 391.04"/><text class="cls-11" transform="matrix(1.01, -0.38, 0.43, 0.9, 115.13, 381.1)">?</text><polygon class="cls-5" points="160.57 281.48 116.39 265.8 133.99 226.47 178.17 242.14 160.57 281.48"/><polygon class="cls-6" points="156.87 290.2 112.69 274.52 115.79 267.6 159.97 283.27 156.87 290.2"/><text class="cls-12" transform="matrix(1.03, 0.36, -0.41, 0.91, 134.49, 260.77)">?</text><rect class="cls-5" x="652.89" y="257.25" width="55.29" height="49.23"/><rect class="cls-6" x="653.11" y="308.65" width="55.29" height="8.66"/><text class="cls-13" transform="translate(670 294.11) scale(1.12 1)">?</text><polygon class="cls-5" points="616.98 346.1 569.54 370.54 542.09 328.29 589.53 303.85 616.98 346.1"/><polygon class="cls-6" points="623.21 355.29 575.76 379.73 570.93 372.3 618.38 347.86 623.21 355.29"/><text class="cls-14" transform="matrix(0.94, -0.49, 0.54, 0.84, 577.33, 352.36)">?</text><path class="cls-2" d="M211,150.14c-.79-.83.36-2.24,1.51-5.76a56.63,56.63,0,0,0,1.44-7c1.51-8.44-.5-25.65.36-40.55C215,84.13,217,77.67,214.9,77c-2.3-.7-7.33,6.08-9.63,11.83-.86,2.24-3.16,8.19-1.36,15.1,1.58,5.88,5,8.51,4,9.47-1.29,1.15-8.33-1.47-12-6.52-4-5.63-2.3-12.15-1.36-16a29.59,29.59,0,0,1,12.93-17.46c2.51-1.54,7.18-4.29,12.64-3.45.93.13,5,.77,6.68,3.45a5.87,5.87,0,0,1,.72,3.9c-2.37,19.25,1.08,40.68-1.8,52.32a4.73,4.73,0,0,0,.36,3.58,6.16,6.16,0,0,0,6.39,2.17c1.72-.58,2.87-2.24,3.88-6.2,2.51-10.49.36-24.31-.22-27.7-.22-1.54-.72-4.09.93-5.37,1.87-1.54,5.6-.64,8.12,0a4.14,4.14,0,0,1,2.37,1.28,2.94,2.94,0,0,1,.29,2.37c-.79,3.77-2.23,19-1.22,19.25.65.13,2.8-5.25,7.69-13.94,2.44-4.35,4-6.72,7.18-8.38a12.87,12.87,0,0,1,8.12-1.28,10.34,10.34,0,0,1,7.54,5.76,8.72,8.72,0,0,1,.36,4.61c-.86,7.1-.43,14.33-.72,21.43-.22,4.22-.22,5.44.57,5.76,1.51.58,3.59-3.39,11.56-12,4.17-4.48,6.46-6.46,5.89-9s-3.16-2.49-4-5.25c-1.36-4,2.66-8.83,6.46-11.13a11.62,11.62,0,0,1,7.54-2c1.08.13,3.66.51,4.6,2.11,1.51,2.62-1.8,7.29-4.6,11.32-.86,1.22-1.08,1.41-1.08,2,0,2.75,6.46,3.13,12.28,8.51,1.72,1.6,4.09,3.84,4.81,7.23.57,2.88-.5,4.61.22,4.93,1.36.64,7.4-4.48,9.77-11.45,1-2.94.36-3.26.72-12.73s1.08-11.45-.72-12.79c-3.45-2.56-10.13,2.11-12.86-.51-1.65-1.6-1.29-5.25.72-6.84,3.23-2.56,8.84,1.41,11.78-.83,3.88-2.88-2.44-12.15,1.08-14.52,0,0,1.29-.83,12.5,2.56a35.69,35.69,0,0,1-.14,3.58c-.43,6.72-1.58,7.87-.57,9,2.37,2.94,11.42-1.92,14.87,1.47,1.51,1.47,1.58,4.16.36,5.37-.72.7-1.8.83-8.26.64-4.09-.13-6.11-.06-6.61.19-3.81,1.73-1.15,8.89-1.22,22.45,0,10.49-1.65,16.37,2.51,19a6.78,6.78,0,0,0,4.24,1c5.39-.7,7.69-9.4,8.26-11.45,1.08-4.09.36-4.93.93-9.34s2-15.22,10.13-18.81c2.8-1.28,7.9-2.3,11.56-.32,2.8,1.54,4.31,4.54,5.67,4.09.93-.26.5-1.6,1.65-2.62,1.94-1.66,6.61-1.28,8.62.83,1.44,1.54,1.22,3.65,1.08,4.73,0,0-1.08,9.59,0,28.66.14,2,.29,4.41,2,5.25,2,1,5.39-.45,7.18-2.43.93-1,1.36-2.3,1.65-4.61a25.68,25.68,0,0,0-.72-9.15c-2.08-7.42,1.58-18.68,9.41-23.41,3.52-2.11,9.77-4.09,14-2,3.09,1.54,4.67,5,5.89,4.61.93-.32,0-2.3,1.29-3.58,1.87-1.85,7.61-1.22,9.77,1.47,1.58,2,.79,4.8.43,5.95-3,10.68-2.59,27-.29,27.63,2,.51,10.49-9,10.06-19.06-.14-2.43-.79-5.56,1-9.27a12.56,12.56,0,0,1,5.67-6.08c4.31-2.11,10.2-1.73,13.58.83,3.09,2.3,3.66,5.95,5,5.76s.72-3,2.73-4.09a5.47,5.47,0,0,1,5.32.64c2.59,2.24-1.08,6.46-2.59,16.37a41.8,41.8,0,0,0,1.44,16.37c.86,2.75,1.65,4.35,2.95,4.61,2.23.38,5.1-3.39,6.46-6.08,2.15-4.29,1.94-8,1.65-12.6-1.08-19.25.14-21.68,2-22.77,2.08-1.22,5.53-1.09,7,.32.93,1,.86,2.24.72,3.58-.36,5.05-.36,11.64.36,11.77s2.73-4.86,4-8.83c1.58-4.54,1.51-5.95,3.16-6.84,2.66-1.54,7.47-.45,9,2,1.08,1.73.07,3.33-1.29,7.55-2.08,6.65-2.59,12.22-2.23,12.28s2.59-5,7.54-15.86c1.08-2.43,2.08-4.41,4.38-5.76,3-1.66,7.83-1.92,9.77,0,2.59,2.62-1.94,7.29-4.81,17.65-1.8,6.65-4,19.06.36,21,2.59,1.15,6.75-1.92,9.91-4.29,2.95-2.17,6.9-5.82,10.85-13.11,5.24-9.79,2.73-11.77,7-16.37a22.23,22.23,0,0,1,18.75-6.72c.79.13,10.06,1.66,11.78,7.55,1.51,5.18-3.52,11.13-8.84,13.11-5.53,2-8.84-.51-11.78,2-3.59,3-2.8,10.75,1.65,14.71.65.58,3.3,3,6.75,2.69,2.3-.19,4.31-1.6,6.75-4.8,6.32-8.32,6.39-16.82,7.18-16.76s2.3,7.48-.72,15.86c-2.08,5.76-4.67,12.79-12.14,15.22-4.53,1.47-10.56,1.15-14.87-1.66-8-5.12-6.9-16.18-9.77-16.18-1.51,0-1.58,3-4.6,7a28.87,28.87,0,0,1-15.66,9.85c-1.08.26-10.27,2.3-13.22-1.28-1.44-1.73-.86-4.09-.57-5.25,2.15-8.7,6.54-26.48,5.53-26.86s-9.91,14.46-11.56,23.92c-.14.7-1.29,7.55-1.29,7.55s-4.45.9-5.89.32c-5.32-2,6-32.24,3.16-33.26-1.29-.45-6.32,5.25-9.27,12.41-4.17,10.17-1.36,16.63-7.54,21.75a15.13,15.13,0,0,1-6.61,3.13c-3.16.58-8,.38-10.85-2.3-3.23-3.13-1.8-7.8-3.3-8-1.15-.19-1.94,2.75-5.17,6.2-2.23,2.37-5.1,5.5-9,5.76-4.67.26-9.63-3.9-11.06-8-1.08-3.13-.07-6.08-1.29-6.4-.65-.19-1.22.51-3.88,2.62-2.37,1.92-3.16,2.3-3.66,2.81-3.16,2.81-.14,9.08.57,15.42.22,1.73,1.44,12.86-5.89,19.83-3.66,3.52-10.92,7.29-18,5.05-5.53-1.73-10.34-7-10.13-12.09.43-9.47,18.1-21,20.4-22.39a6.57,6.57,0,0,0,2.44-2.49c.93-1.85.72-4.29-.22-4.61-.72-.26-1.58,1.09-3.3,2.62s-5.82,5.37-10.49,5.25c-3.88-.06-7.11-2.94-8.26-3.9-2.37-2-3-3.9-4.38-3.77s-1.51,2.37-3.66,4.29a11.48,11.48,0,0,1-10.13,2.17c-5.24-1.73-5.1-8.44-8.48-8.57-2.15-.06-2.51,2.69-7.33,5.88-2.15,1.41-4.88,3.2-8.48,3.26a13.92,13.92,0,0,1-10.63-5.05c-2.8-3.39-2.66-7.1-3.66-7s-.65,2.81-3.09,6a15.27,15.27,0,0,1-3.88,3.45,13.47,13.47,0,0,1-5.32,2.43c-4,.64-8-1.85-10.27-4.29-4.81-5.18-3.09-12.28-4.81-12.47-.86-.06-1.36,1.79-3.88,5.37a28.29,28.29,0,0,1-6.25,7c-3.45,2.56-7.11,3.26-10.13,3.77,0,0-10.13,1.79-18-2.43a3.89,3.89,0,0,1-2-2c-1-2.62,2.37-6.72,5.32-6.72,1.36,0,1.58.9,3.88,2,.36.19,5.53,2.62,8.12,1.15,2.8-1.6,1.58-7.29.57-10.17-1.87-5.12-6.61-10.11-9.19-9.34-1.22.38-1,1.73-2.37,4.93-.86,2-3.38,5.05-8.26,11.13-3.81,4.73-4.81,5.76-6.25,7-3.16,2.75-5.24,4.61-7.9,4.61-4.67-.06-8-5.82-8.48-6.72-1.51-2.75-2.08-5.82-.57-18.81,1.08-9.08,2-13.3.43-13.94s-4.45,2.56-5.17,3.26c-11.78,12.66-3.59,30.45-12.86,35.18-2.59,1.28-7,2-8.84.32-1.36-1.28-.57-3.39-1.87-3.9-1.51-.64-3.09,2.11-5.89,2s-3.88-3.07-5.32-2.62-.43,3-2.23,6.4a12.62,12.62,0,0,1-5,4.93C216.13,150.27,212,151.36,211,150.14Z"/><path class="cls-1" d="M382.13,103.2a7.85,7.85,0,0,0-5.89-.83c-4.38,1.15-5.89,6.27-7.18,10.49a23.6,23.6,0,0,0-.07,15.22c.93,2.56,3,8.19,6.46,8.51,4.17.32,8.26-7.16,9.77-12,1.15-3.77.86-6.65.5-11.13C385.29,108.25,385,104.92,382.13,103.2Z"/><path class="cls-1" d="M432.48,103.2a8.38,8.38,0,0,0-5.67-.83c-2.95.77-4.38,3.33-5.82,6.2a26.48,26.48,0,0,0-2.87,11.77c-.07,3.26-.07,7.23,2.51,11.26,1.08,1.73,2.95,4.67,5.82,4.8,3.09.19,5.46-3.07,6.82-4.93,5.6-7.55,4.17-16.05,3.52-20C435.64,105.37,433.63,103.83,432.48,103.2Z"/><path class="cls-1" d="M477.31,106.84a7.56,7.56,0,0,0-3.81-2.49c-3.52-.77-6.82,2.17-7.33,2.62-3.74,3.26-3.88,7.87-4.09,15.1-.14,5.82.79,7.93,1.36,9,.43.83,3.09,5.63,6.9,5.63,3.16,0,5.39-3.33,6.9-5.63,4.38-6.65,3.3-13.37,2.37-19.13A9.75,9.75,0,0,0,477.31,106.84Z"/><path class="cls-1" d="M583.76,108.57c2.51-.83,8.12-3.26,7.69-5.37-.36-1.73-4.45-2.56-7-2.62-.5,0-5.67,0-9,3.58-.36.38-3.09,3.33-2,4.93C574.78,110.93,580.67,109.66,583.76,108.57Z"/><path class="cls-1" d="M440.3,147.72s-5.63,4.87-10.52,9.95c-7.5,7.77-7.58,9.95-7.42,11,.33,2.54,2.36,5.3,5,5.81,4.16.8,8.73-4.28,10.85-8,4.49-8.13,2.12-18.81,2.12-18.81Z"/><rect class="cls-5" x="548.32" y="420.81" width="60.58" height="52.71"/><rect class="cls-6" x="548.56" y="475.84" width="60.58" height="9.28"/><text class="cls-15" transform="translate(567.07 460.27) scale(1.15 1)">?</text><text class="cls-16" transform="translate(134.62 604.03) scale(1.12 1)">H<tspan class="cls-17" x="27.07" y="0">V</tspan><tspan x="49.76" y="0">AD DELER DU </tspan><tspan class="cls-18" x="286.14" y="0">P</tspan><tspan x="304.62" y="0">Å N</tspan><tspan class="cls-19" x="370.26" y="0">E</tspan><tspan class="cls-20" x="390.42" y="0">T</tspan><tspan x="409.22" y="0">T</tspan><tspan class="cls-21" x="426.45" y="0">E</tspan><tspan x="446.62" y="0">T?</tspan></text><text class="cls-22" transform="translate(356.94 286.71)"><tspan class="cls-23">V</tspan><tspan x="9.45" y="0">el</tspan><tspan class="cls-24" x="21.85" y="0">k</tspan><tspan x="29.18" y="0">ommen til</tspan><tspan class="cls-25"><tspan x="-22.88" y="26.4">T</tspan><tspan class="cls-26" x="-14.08" y="26.4">h</tspan><tspan class="cls-27" x="-2.57" y="26.4">e Instagame!</tspan></tspan><tspan class="cls-28"><tspan x="-7.3" y="67.2">I de</tspan><tspan class="cls-29" x="16.47" y="67.2">t</tspan><tspan x="20.22" y="67.2">te spil skal du </tspan><tspan x="-12.4" y="86.4">vu</tspan><tspan class="cls-30" x="1.84" y="86.4">r</tspan><tspan x="6.19" y="86.4">de</tspan><tspan class="cls-30" x="22.3" y="86.4">r</tspan><tspan x="26.66" y="86.4">e hvo</tspan><tspan class="cls-31" x="60.77" y="86.4">r</tspan><tspan x="65.84" y="86.4">vidt og </tspan><tspan x="-27.16" y="105.6">hvornår det er i o</tspan><tspan class="cls-30" x="79.53" y="105.6">r</tspan><tspan x="83.88" y="105.6">den at </tspan><tspan x="2.18" y="124.8">dele et billede.</tspan><tspan x="-0.88" y="163.2">God fornøjelse!</tspan></tspan></text></g></g></svg>
