<svg xmlns="http://www.w3.org/2000/svg" viewBox="0 0 364.27 123.19"><defs><style>.cls-1{fill:#202532;}.cls-2{fill:#fff;}</style></defs><title>Start-knap</title><g id="Layer_2" data-name="Layer 2"><g id="Layer_1-2" data-name="Layer 1"><rect class="cls-1" width="364.27" height="123.19"/><path class="cls-2" d="M102.06,52.59a33.88,33.88,0,0,0,3.59-5.42c2.07-3.92,1.71-5.13,1.56-5.52a4.9,4.9,0,0,0-2.94-2.48c-3.66-1.53-7.33.44-7.54.55a10.33,10.33,0,0,0-5,8.92c0,4.55,3.4,7.91,7.08,11.58,4.78,4.76,7,4.65,8.64,8.37.11.26,2.66,6.36-.46,9.38a5.63,5.63,0,0,1-5.33,1.38c-1.24-.43-1.56-1.31-4.41-3.13-1.37-.87-1.68-.91-1.84-.92-2.31-.12-5.4,3.95-4.6,6.8s4.88,3.5,7.81,4c2.1.39,8.06,1.49,13.79-1.47,9-4.65,10.78-15.87,13-15.26,1.6.45-.3,6.2,3.4,11.77.71,1.08,3.18,4.79,7.26,5.24,4.35.48,7.79-3.08,8.64-4,3.58-3.69,3.92-8.15,5-8s.18,3.36,1.93,6.53a12.48,12.48,0,0,0,11.21,5.88,13.14,13.14,0,0,0,9.65-5.24c1.58-2.14,2.09-4.44,2.76-4.32s0,2.91,1.29,5.42c1.85,3.72,7.64,6.14,12,4.6,2.57-.92,4.38-3.16,5.63-4.71a9.91,9.91,0,0,0,1.57-2.37c1.52-3.43.47-7.63-.64-7.8-.51-.07-1.35,1.18-3.05,3.69a10.74,10.74,0,0,1-1.4,1.95c-1,1-2.83,1.91-4.19,1.57-1.57-.39-2.51-2.45-3.25-5.74-1.92-8.55-.72-17.44,0-21.6.83-4.81,1.58-6.95.18-9.1-2-3.06-7.11-4.26-8.55-2.76-.92,1,0,2.63-.74,3.13-1.26.81-3.89-3.58-8.27-4.5-4.16-.88-7.95,1.77-8.82,2.39-4.9,3.44-6.08,9.33-6.89,13.42-1.29,6.47.39,7.56-1.38,13.88-1,3.41-2.45,8.51-6.34,9.65a5.76,5.76,0,0,1-4.6-.55c-2.36-1.67-1.68-5.06-1.75-12.23-.13-14.4-.55-23-.55-23-.1-2-.21-3.71.92-4.78,2.77-2.64,9,2.3,12.78-.55,1.77-1.35,2.69-4.24,1.75-5.7-2-3-10.8,1.89-13.7-1.47-2.41-2.8,2.32-7.81-.37-12.13-1.95-3.13-7-4.56-9.19-3-1.73,1.24-1.74,4.25-1.75,7.18,0,4.4,1.26,6.13.09,7.35-1,1.05-3,.89-5.88.64s-3.51-.87-4.6-.37c-2.23,1-3.31,5.25-1.84,6.89.74.83,2.19.81,5.06.74,4.06-.1,5-.86,6.07-.09.86.64,1,1.79.94,6.6,0,3.53,0,5.29-.18,7.55-.49,8.59,0,7.9-.39,10-1.2,6.87-5.87,12.87-7.63,12.32-1.58-.5.84-5.76-2.48-10.48-1.54-2.19-2.93-2.28-7.72-6.16C105,55.4,103.19,53.71,102.06,52.59Z"/><path class="cls-2" d="M193.23,75.16c.73-2.37,1.48-2.81,4.68-7.53,0,0,1.81-2.66,6.39-12.77a3.53,3.53,0,0,0,.34-2.17c-.25-1.24-1.25-1.79-1.94-2.51-1.73-1.81-1.95-5.18-1-7.53,1-2.61,4-5.37,7.18-4.68a5.48,5.48,0,0,1,4.22,4.56c.09,1.88-1.47,2.91-1,3.54.58.82,3.45-.77,8.21-1.71,3.41-.67,5.85-1.15,7.3.11,1.19,1,1.29,2.91.8,6.84-1,7.78-2.44,9.06-3.08,14.37-.79,6.53.31,12.81,2.62,13.8a5.33,5.33,0,0,0,1.87.37h0a2.84,2.84,0,0,0,1.7-.46,2.67,2.67,0,0,0,.61-.57,32.78,32.78,0,0,1,3-3c.41-.35.69-.57,1-.54.94.09,1.81,2,1.65,3.59-.11,1.12-.67,1.85-1.74,3.23a19.09,19.09,0,0,1-3,3c-1.87,1.57-2.81,2.36-3.7,2.66-2.91,1-7.29-2.53-9.81-6-5.37-7.5-5.46-20.72-1.78-27,.37-.63,1.29-2.06.75-3.11-.89-1.75-5.62-2-7.53.11a3.57,3.57,0,0,0-.78,1.49c-1,3.88-3,7.43-4.46,11.17-1.31,3.37-3.11,6-6.73,11.4-3,4.5-4.81,7.09-5.82,6.73S192.27,78.29,193.23,75.16Z"/><path class="cls-2" d="M235.31,75.51A42.63,42.63,0,0,0,240.48,68a31.18,31.18,0,0,0,2-4c2.24-5.66-.22-8.25.71-17.61.4-4,.89-5.49-.18-6.58-2.51-2.55-8.78,1.84-11.21-.71-1.48-1.56-1.12-5.25.71-6.76,2.94-2.42,8.06,2.11,10.67,0,3.17-2.56-2.31-10.87,1.07-14.05,2.55-2.4,9.22-1,10.32,1.78.28.71.1,1.26-.15,2.5-.92,4.42-1.63,7.87-.56,9.42,2.09,3,10.51-1.93,13.34,1.42a5.09,5.09,0,0,1-.53,6.4c-.56.45-1.24.59-5.69.18-4.72-.44-6.31-.82-7.29.18a3.54,3.54,0,0,0-.72,2.71c.09,1.91,1,22.11,1.08,26.82.15,6.26-.45,9.79,1.42,10.67,1.72.81,4.47-1.12,5.87-2.49,3.52-3.45,3.35-8.06,4.27-8s1.7,3.43,1.07,6.76c-.79,4.21-3.77,6.79-5.16,8-2.1,1.83-4.19,3.64-7.12,3.74-4.66.15-8.73-4.12-10.32-8-1.77-4.32-.55-8.38-1.42-8.54s-1.45,2.69-4.09,6.76c-1.6,2.47-3.67,5.71-4.8,5.34s-1.4-4.16.21-6.82A11,11,0,0,1,235.31,75.51Z"/><path class="cls-1" d="M165.86,45.44c-2.44-.26-4.45,1.91-5.22,2.74s-3.6,4.17-3.73,16c-.08,8-.07,13.4,3.36,15.42a6.71,6.71,0,0,0,5,.5c2.8-.89,4.07-3.7,5.14-6.15,1.72-4,1.85-7.27,2-12.22.15-5.41.19-8.17-1.4-11.35C170.24,49,168.63,45.74,165.86,45.44Z"/></g></g></svg>
