<svg xmlns="http://www.w3.org/2000/svg" viewBox="0 0 141.05 47.7"><defs><style>.cls-1{fill:#f4912d;}.cls-2{fill:#fff;}</style></defs><title>start_knap</title><g id="Layer_2" data-name="Layer 2"><g id="Layer_1-2" data-name="Layer 1"><rect class="cls-1" width="141.05" height="47.7"/><path class="cls-2" d="M39.49,20.37a12.07,12.07,0,0,0,1.39-2.09c.81-1.51.66-2,.62-2.13a2,2,0,0,0-1.12-1,3.47,3.47,0,0,0-2.9.23,4,4,0,0,0-1.94,3.45c0,1.78,1.32,3.06,2.75,4.49,1.86,1.86,2.71,1.78,3.33,3.25,0,.12,1,2.48-.19,3.64a2.24,2.24,0,0,1-2.05.54c-.46-.15-.62-.5-1.7-1.2-.54-.35-.66-.35-.7-.35-.89,0-2.09,1.51-1.78,2.63s1.9,1.36,3,1.55a8.17,8.17,0,0,0,5.34-.58c3.48-1.78,4.18-6.16,5-5.92.62.15-.12,2.4,1.32,4.57a4.12,4.12,0,0,0,2.83,2,4.2,4.2,0,0,0,3.33-1.55c1.39-1.43,1.51-3.14,1.94-3.1s.08,1.32.74,2.52a4.85,4.85,0,0,0,4.34,2.28,5.15,5.15,0,0,0,3.76-2c.62-.81.81-1.7,1.08-1.66s0,1.12.5,2.09a4.12,4.12,0,0,0,4.65,1.78A5.15,5.15,0,0,0,75.23,32a3.89,3.89,0,0,0,.62-.93c.58-1.32.19-2.94-.23-3-.19,0-.54.46-1.2,1.43-.35.5-.35.58-.54.74a2,2,0,0,1-1.63.62c-.62-.15-1-.93-1.28-2.21a22.84,22.84,0,0,1,0-8.36c.31-1.86.62-2.67.08-3.52-.77-1.2-2.75-1.66-3.29-1.08-.35.39,0,1-.27,1.2-.5.31-1.51-1.39-3.21-1.74a4.58,4.58,0,0,0-3.41.93c-1.9,1.32-2.36,3.6-2.67,5.19-.5,2.52.15,2.94-.54,5.38-.39,1.32-1,3.29-2.44,3.76a2.1,2.1,0,0,1-1.78-.23c-.93-.66-.66-2-.66-4.72,0-5.58-.23-8.91-.23-8.91,0-.77-.08-1.43.35-1.86,1.08-1,3.48.89,5-.23a1.87,1.87,0,0,0,.66-2.21c-.77-1.16-4.18.74-5.3-.58-.93-1.08.89-3-.15-4.68-.74-1.2-2.71-1.78-3.56-1.16-.66.46-.66,1.63-.66,2.79,0,1.7.5,2.36,0,2.87s-1.16.35-2.28.23-1.36-.35-1.78-.15a2,2,0,0,0-.7,2.67c.27.31.85.31,2,.27,1.59,0,1.94-.35,2.36,0s.39.7.35,2.56c0,1.36,0,2.05-.08,2.9-.19,3.33,0,3.06-.15,3.87-.46,2.67-2.28,5-2.94,4.76s.31-2.25-1-4.07c-.58-.85-1.12-.89-3-2.4A10.74,10.74,0,0,1,39.49,20.37Z"/><path class="cls-2" d="M74.8,29.12c.27-.93.58-1.08,1.82-2.9a43.54,43.54,0,0,0,2.48-5,1.33,1.33,0,0,0,.12-.85c-.12-.46-.5-.7-.74-1a3,3,0,0,1-.39-2.9,2.69,2.69,0,0,1,2.79-1.82,2.09,2.09,0,0,1,1.63,1.78c0,.74-.58,1.12-.39,1.36s1.32-.31,3.17-.66c1.32-.27,2.28-.46,2.83,0s.5,1.12.31,2.63c-.39,3-.93,3.52-1.2,5.58-.31,2.52.12,5,1,5.34a2.05,2.05,0,0,0,.74.15h0a1.08,1.08,0,0,0,.66-.19.66.66,0,0,0,.23-.23A16.18,16.18,0,0,1,91,29.35c.15-.15.27-.23.39-.19.35,0,.7.77.62,1.39a2.59,2.59,0,0,1-.66,1.24,7.72,7.72,0,0,1-1.16,1.16,5.53,5.53,0,0,1-1.43,1c-1.12.39-2.83-1-3.79-2.32-2.09-2.9-2.13-8-.7-10.45.15-.23.5-.81.31-1.2-.35-.66-2.17-.77-2.9,0a1.4,1.4,0,0,0-.31.58A37.55,37.55,0,0,1,79.64,25,22.72,22.72,0,0,1,77,29.39c-1.16,1.74-1.86,2.75-2.25,2.59S74.42,30.32,74.8,29.12Z"/><path class="cls-2" d="M91.1,29.23a16.67,16.67,0,0,0,2-2.94,11.54,11.54,0,0,0,.77-1.55c.85-2.21-.08-3.17.27-6.81.15-1.55.35-2.13-.08-2.56-1-1-3.41.7-4.34-.27A2.07,2.07,0,0,1,90,12.47c1.12-.93,3.14.81,4.14,0,1.24-1-.89-4.22.43-5.46,1-.93,3.56-.39,4,.7.12.27,0,.5-.08,1-.35,1.7-.62,3.06-.23,3.64.81,1.16,4.07-.74,5.15.54a2,2,0,0,1-.19,2.48c-.23.19-.46.23-2.21.08s-2.44-.31-2.83.08a1.27,1.27,0,0,0-.27,1c0,.74.39,8.56.43,10.38.08,2.44-.19,3.79.54,4.14s1.74-.43,2.28-1c1.36-1.32,1.28-3.14,1.66-3.1s.66,1.32.43,2.63a5.5,5.5,0,0,1-2,3.1,4.54,4.54,0,0,1-2.75,1.43c-1.82.08-3.37-1.59-4-3.1-.7-1.66-.23-3.25-.54-3.29s-.58,1-1.59,2.63c-.62,1-1.43,2.21-1.86,2.05s-.54-1.63.08-2.63C90.68,29.66,90.75,29.62,91.1,29.23Z"/><path class="cls-1" d="M64.19,17.62a2.61,2.61,0,0,0-2,1c-.35.35-1.39,1.63-1.43,6.19,0,3.1,0,5.19,1.32,6A2.78,2.78,0,0,0,64,31a3.65,3.65,0,0,0,2-2.36,12.23,12.23,0,0,0,.77-4.72c0-2.09.08-3.17-.54-4.41C65.9,19,65.28,17.73,64.19,17.62Z"/></g></g></svg>
