<svg xmlns="http://www.w3.org/2000/svg" xmlns:xlink="http://www.w3.org/1999/xlink" viewBox="0 0 1026 776.31"><defs><style>.cls-1,.cls-28,.cls-37{fill:none;}.cls-1{stroke:#e9eced;}.cls-1,.cls-28,.cls-29,.cls-37,.cls-4,.cls-45{stroke-miterlimit:10;}.cls-1,.cls-4{stroke-width:5px;}.cls-2{fill:#c7c9c8;}.cls-3{fill:#202532;}.cls-10,.cls-4,.cls-45{fill:#fff;}.cls-37,.cls-4,.cls-45{stroke:#fff;}.cls-5{fill:#152230;}.cls-6{fill:#e5b090;}.cls-7{fill:#333;}.cls-8{fill:#962d69;}.cls-9{fill:#72263c;}.cls-11{fill:#eaac41;}.cls-12{fill:#dba426;}.cls-13{fill:#20d7a4;}.cls-14{fill:#e5dee5;}.cls-15{fill:#f18302;}.cls-16{fill:#882e00;}.cls-17{fill:#9e7138;}.cls-18{fill:#bb0d04;}.cls-19{fill:#e47a0a;}.cls-20{fill:#180700;}.cls-21{fill:#f7d5a8;}.cls-22{fill:#fecda4;}.cls-23{fill:url(#linear-gradient);}.cls-24{fill:#c07d08;}.cls-25{fill:#cdcfd0;}.cls-26{fill:#33100a;}.cls-27{fill:#000100;}.cls-28{stroke:#152230;}.cls-29{fill:#2c4963;stroke:#424242;}.cls-30{fill:url(#linear-gradient-2);}.cls-31{fill:#89cce5;}.cls-32{fill:#e9eced;}.cls-33{fill:#4681b7;}.cls-34{fill:#b8d1d5;}.cls-35{fill:#fdfcfd;}.cls-36{fill:#569bc5;}.cls-37{stroke-width:4px;}.cls-38{fill:#edb143;}.cls-39{fill:#a92d2b;}.cls-40{fill:#7c1f15;}.cls-41{fill:#952819;}.cls-42{fill:#9ed1ff;}.cls-43{fill:#006d8c;}.cls-44{fill:#004365;}</style><linearGradient id="linear-gradient" x1="218.53" y1="135.24" x2="247.95" y2="135.24" gradientTransform="matrix(0.94, -0.35, -0.35, -0.94, 207.13, 670.85)" gradientUnits="userSpaceOnUse"><stop offset="0.52" stop-color="#7e8083"/><stop offset="0.53" stop-color="#cdcfd0"/></linearGradient><linearGradient id="linear-gradient-2" x1="292.86" y1="156.46" x2="316.86" y2="156.46" gradientTransform="matrix(0.94, -0.35, -0.35, -0.94, 207.13, 670.85)" gradientUnits="userSpaceOnUse"><stop offset="0.52" stop-color="#20d7a4"/><stop offset="0.53" stop-color="#5cbfa0"/></linearGradient></defs><title>start</title><g id="Layer_2" data-name="Layer 2"><g id="Layer_1-2" data-name="Layer 1"><rect class="cls-1" x="2.5" y="2.5" width="1021" height="771.31"/><rect class="cls-2" x="114.08" y="42.31" width="789.75" height="703.23"/><path class="cls-3" d="M459.34,112.7c1.42-1,3.52-.69,6.23-.29,2.37.35,3.24.85,4,.29,1-.72.73-2.42.55-4.47-.55-6.27-.83-9.4.55-10.73,2-1.94,7.75-.63,9.36,2.37.53,1,.42,2.68.18,6-.33,4.46-.87,5.42-.09,6.36.23.28.94,1,6.36.91,4.79-.07,6-.65,6.91.27,1.31,1.37.73,4.85-1.09,6.09-.59.4-1.23.52-4.73.18-4.83-.46-6.44-1-7.45,0a3.58,3.58,0,0,0-.73,2.82c0,.11-.21,7.34-.64,21.81a46.76,46.76,0,0,0,.45,10.36c.82,4.83,1.87,5.71,2.64,6,1.82.7,4.1-1.15,5.54-2.36a22.6,22.6,0,0,0,6.45-9.18c4.9-13,5.51-26.1,5.91-34.63.2-4.37.3-6.61-.09-8.72s-.42-4.13-.73-6.18c-.18-1.23-.27-1.66,0-2.1,1.1-1.76,6.79-1.46,9.36,1.37,1.19,1.31,1.36,2.77,1.09,9.72-.34,8.78-.52,13.16-1,16.9-.75,5.81-1.46,8.5-.45,9,1.66.83,4.52-6,10.18-6.63a10.54,10.54,0,0,1,9.82,5.18c2.82,5.36-1.13,13.45-4.54,20.45-2,4.17-3.65,6.33-2.82,7.27,1.16,1.31,6.26-.68,9.82-3.73,2.65-2.27,3.95-4.85,6.54-10a76.37,76.37,0,0,0,4.82-11.27c1.32-4,1.17-4.79,2.36-6.09,2.84-3.1,8-3.35,11.45-2.45,1.58.4,4.38,1.12,6,3.64,2,3,.93,6.74.36,8.82a10.1,10.1,0,0,1-2.36,4.91c-3.49,3.5-8.85,1.47-9.72,3.64-.61,1.5,1.26,4.22,3.54,5.18,4,1.69,9.66-1.95,12.54-4.82,1.72-1.71,2.33-3,3-2.82,1.3.4,1.3,6-.27,10.63-.67,2-3.82,11.26-12.27,12.63a14.46,14.46,0,0,1-13.27-5.09c-3.17-4.11-2.46-9.19-4.18-9.36-1.18-.12-1.65,2.25-4.36,5.36a23.91,23.91,0,0,1-8,5.82c-1,.44-8.63,3.73-11.45.82-.64-.66-1.67-2.3.45-9.91,3.23-11.58,8-16.3,6.45-18.09s-7.51-.08-11.36,3.73c-4.12,4.07-2.27,7.34-6.82,14.36-1.66,2.56-4.08,6.21-8.72,8.54a20.47,20.47,0,0,1-10.72,2c-2.47-.16-7.05-.46-10.57-3.59s-4.1-7.29-4.75-12c-.43-3.14-.46-6.15.85-22.13.47-5.74.71-8.18-.95-9.59-3.08-2.63-9,1.37-11-1.14C456.73,117.24,457.57,113.94,459.34,112.7Z"/><path class="cls-2" d="M549.28,140.88c2.51,1,5.29-.82,6.66-2.36.34-.38,2.5-2.82,1.66-4.58s-4.25-1.9-6.52-1-4.65,3.49-4,5.69A3.79,3.79,0,0,0,549.28,140.88Z"/><line class="cls-4" x1="224.19" y1="314.27" x2="793.71" y2="314.27"/><path class="cls-3" d="M243.32,301.78c-1.07-1.32.52-3.48,2.14-9a110.32,110.32,0,0,0,2-10.91c2.08-13.23-.74-40.09.46-63.37,1-19.92,3.84-30,.93-31-3.16-1.09-10.2,9.47-13.41,18.5-1.24,3.49-4.41,12.76-1.85,23.59,2.17,9.15,7,13.33,5.55,14.8-1.79,1.83-11.61-2.25-16.65-10.18-5.59-8.79-3.22-19-1.85-25,.78-3.37,4.57-18.1,18-27.29,3.53-2.41,10-6.7,17.58-5.41,1.26.21,6.87,1.17,9.25,5.41a10.07,10.07,0,0,1,1,6.12c-3.33,30.07,1.49,63.64-2.46,81.76a7.86,7.86,0,0,0,.53,5.56c1.64,2.85,5.91,4.51,8.94,3.4,2.39-.88,4-3.5,5.37-9.73,3.49-16.38.51-38-.26-43.25-.35-2.37-1-6.36,1.28-8.45,2.62-2.44,7.75-1,11.26,0a5.33,5.33,0,0,1,3.33,2,5.1,5.1,0,0,1,.43,3.68c-1.14,5.93-3.1,29.71-1.71,30.11.86.25,3.94-8.15,10.75-21.75,3.42-6.83,5.56-10.54,10-13.05a15.89,15.89,0,0,1,11.26-2,13.7,13.7,0,0,1,11,16.12c-1.19,11.12-.56,22.36-1,33.53-.27,6.58-.29,8.51.77,9,2.07.88,5-5.3,16.12-18.68,5.82-7,9-10.1,8.19-14.08s-4.36-3.93-5.63-8.19c-1.87-6.28,3.71-13.81,9-17.4,1.77-1.21,5.61-3.83,10.49-3.07,1.53.24,5.09.79,6.4,3.33,2.09,4.06-2.5,11.41-6.4,17.66-1.2,1.93-1.53,2.24-1.54,3.07,0,4.35,9,4.92,17.15,13.31,2.41,2.47,5.75,6,6.65,11.26.77,4.47-.74,7.16.26,7.68,1.87,1,10.31-7,13.56-17.92,1.38-4.62.45-5.14,1-19.95s1.54-17.89-1-20c-4.8-4-14.06,3.3-17.92-.77-2.34-2.47-1.82-8.2,1-10.75,4.5-4,12.27,2.21,16.38-1.28,5.35-4.55-3.35-19,1.54-22.65,0,0,1.76-1.32,17.4,4,0,1.32,0,3.27-.17,5.62-.59,10.46-2.16,12.26-.85,14.08,3.3,4.59,15.93-3,20.73,2.3,2.09,2.32,2.18,6.55.51,8.45-1,1.12-2.5,1.32-11.52,1-5.68-.19-8.52-.1-9.21.26-5.27,2.72-1.65,13.88-1.71,35.06,0,16.37-2.25,25.62,3.5,29.69a8.68,8.68,0,0,0,5.89,1.54c7.5-1.11,10.75-14.71,11.52-17.92,1.53-6.4.46-7.68,1.28-14.59s2.83-23.8,14.08-29.43c3.95-2,11-3.56,16.12-.51,3.94,2.36,6,7.06,7.93,6.4,1.26-.43.67-2.48,2.3-4.09,2.68-2.64,9.23-2,12,1.28,2,2.4,1.7,5.74,1.54,7.42,0,0-1.45,15,0,44.79.15,3.19.43,6.88,2.82,8.19,2.78,1.53,7.53-.67,10-3.84,1.27-1.64,1.95-3.59,2.3-7.17a42.73,42.73,0,0,0-1-14.33c-2.88-11.57,2.19-29.2,13.05-36.6,4.9-3.34,13.57-6.37,19.45-3.07,4.29,2.4,6.52,7.84,8.19,7.17,1.27-.51,0-3.65,1.79-5.63,2.65-2.9,10.63-1.88,13.56,2.3,2.23,3.18,1.07,7.5.62,9.3-4.16,16.68-3.63,42.19-.36,43.17,2.79.84,14.6-14,14-29.76-.15-3.84-1.08-8.69,1.38-14.51a18.57,18.57,0,0,1,7.93-9.47c6-3.33,14.18-2.67,18.94,1.28,4.33,3.6,5.1,9.28,6.91,9,1.6-.28,1-4.72,3.84-6.4a6.81,6.81,0,0,1,7.42,1c3.58,3.47-1.49,10.11-3.58,25.59a71.87,71.87,0,0,0,2,25.59c1.15,4.33,2.27,6.8,4.1,7.17,3.15.63,7.06-5.31,9-9.47,3-6.66,2.65-12.5,2.3-19.71-1.45-30.08.25-33.9,2.82-35.57,2.86-1.87,7.72-1.66,9.73.51,1.34,1.46,1.16,3.55,1,5.63-.51,7.85-.5,18.21.51,18.43S665,233,666.9,226.86c2.15-7.15,2.14-9.32,4.35-10.75,3.67-2.36,10.42-.71,12.54,3.07,1.49,2.66.05,5.24-1.79,11.77-2.94,10.41-3.58,19.06-3.07,19.2s3.59-7.81,10.49-24.83c1.54-3.81,2.86-6.92,6.14-9,4.17-2.58,10.89-3,13.56,0,3.58,4.07-2.67,11.4-6.65,27.64-2.54,10.35-5.5,29.82.51,32.76,3.61,1.77,9.35-3,13.82-6.65,4.11-3.39,9.65-9.09,15.1-20.47,7.32-15.28,3.78-18.44,9.73-25.59,5.72-6.88,15.86-12.24,26.11-10.49,1.07.18,14,2.56,16.38,11.77,2.12,8.09-4.93,17.36-12.28,20.47-7.68,3.24-12.29-.78-16.38,3.07-5,4.74-3.92,16.78,2.29,23,.93.94,4.65,4.69,9.35,4.21,3.17-.32,6-2.48,9.35-7.48,8.84-13,8.9-26.25,10-26.17s3.23,11.74-1,24.83c-2.94,9-6.5,20-16.89,23.8-6.32,2.31-14.68,1.8-20.73-2.56-11.07-8-9.57-25.34-13.56-25.34-2.08,0-2.24,4.71-6.4,11-.49.74-8.09,11.89-21.75,15.36-1.49.38-14.31,3.63-18.43-2-2-2.72-1.16-6.41-.77-8.19,3-13.59,9.07-41.37,7.68-42S680.73,260,678.42,274.72c-.17,1.1-1.79,11.77-1.79,11.77s-6.16,1.4-8.19.51c-7.38-3.21,8.34-50.38,4.43-52-1.83-.74-8.81,8.24-12.87,19.45-5.78,15.95-1.91,26-10.49,34a19.48,19.48,0,0,1-9.21,4.86c-4.37.91-11.2.61-15.1-3.58-4.51-4.85-2.53-12.18-4.61-12.54-1.64-.29-2.72,4.33-7.17,9.73-3.06,3.72-7.12,8.65-12.54,9-6.54.38-13.37-6.07-15.36-12.54-1.5-4.89-.13-9.47-1.79-10-.87-.27-1.72.84-5.37,4.09-3.34,3-4.37,3.61-5.12,4.35-4.41,4.39-.2,14.15.77,24.06.26,2.7,2,20.12-8.19,31-5.11,5.46-15.25,11.42-25.08,7.93-7.72-2.74-14.37-11-14.08-18.94.55-14.77,25.24-32.88,28.35-35a9.59,9.59,0,0,0,3.38-3.9c1.32-2.92,1-6.71-.26-7.17-1-.37-2.24,1.66-4.61,4.09-2.16,2.22-8.14,8.36-14.59,8.19-5.35-.14-9.93-4.59-11.52-6.14-3.33-3.24-4.22-6.06-6.14-5.89-2.11.19-2.13,3.68-5.12,6.65-3.44,3.42-9.64,5-14.08,3.38-7.33-2.69-7.13-13.17-11.77-13.36-3-.12-3.46,4.23-10.24,9.21-3,2.24-6.78,5-11.77,5.12-6.23.16-11.83-3.82-14.84-7.93-3.87-5.28-3.7-11.08-5.12-11-1.23.06-.86,4.41-4.3,9.4a23,23,0,0,1-5.42,5.45c-1.88,1.4-4.44,3.3-7.42,3.84-5.51,1-11.22-2.9-14.33-6.65-6.74-8.13-4.26-19.19-6.65-19.45-1.24-.14-1.9,2.8-5.37,8.45-1.89,3.07-4.73,7.68-8.7,11-4.8,4-9.94,5.05-14.08,5.89,0,0-14.07,2.84-25.08-3.84a6,6,0,0,1-2.82-3.07c-1.41-4.13,3.33-10.52,7.42-10.49,1.89,0,2.24,1.38,5.37,3.07.55.29,7.7,4.07,11.26,1.79,3.89-2.49,2.23-11.41.77-15.87-2.61-8-9.2-15.78-12.8-14.59-1.71.56-1.42,2.72-3.33,7.68-1.2,3.13-4.66,7.93-11.52,17.4-5.35,7.39-6.7,9-8.7,11-4.39,4.35-7.28,7.21-11,7.17-6.54-.08-11.08-9.06-11.77-10.49-2.1-4.32-2.93-9.14-.84-29.41,1.47-14.24,2.81-20.8.58-21.77s-6.24,4-7.17,5.12c-16.36,19.81-5,47.61-17.92,55-3.55,2-9.85,3.06-12.28.51-1.88-2-.75-5.3-2.56-6.14-2.11-1-4.29,3.3-8.19,3.07s-5.44-4.76-7.42-4.09-.57,4.69-3.07,10a19,19,0,0,1-6.91,7.68C250.54,302,244.87,303.7,243.32,301.78Z"/><path class="cls-2" d="M481.61,228.39a10,10,0,0,0-8.19-1.28c-6.11,1.8-8.25,9.85-10,16.38-1.21,4.54-3.45,13.44-.08,23.84,1.3,4,4.16,12.84,9,13.27,5.83.52,11.55-11.21,13.57-18.71,1.58-5.86,1.24-10.38.7-17.44C486,236.28,485.58,231.09,481.61,228.39Z"/><path class="cls-2" d="M551.73,228.39a10.5,10.5,0,0,0-7.93-1.28c-4.12,1.18-6.05,5.18-8.15,9.7a45,45,0,0,0-4,18.45c-.07,5.14-.08,11.29,3.49,17.58,1.52,2.67,4.14,7.31,8.08,7.54,4.25.25,7.59-4.78,9.54-7.72,7.83-11.79,5.8-25.09,4.86-31.22C556.15,231.81,553.28,229.37,551.73,228.39Z"/><path class="cls-2" d="M614.15,234.1a10.22,10.22,0,0,0-5.35-3.91c-4.86-1.17-9.48,3.35-10.24,4.09-5.23,5.12-5.42,12.29-5.72,23.55-.24,9.13,1.09,12.44,1.88,14.07.63,1.31,4.27,8.84,9.58,8.84,4.43,0,7.51-5.25,9.62-8.84,6.1-10.4,4.61-20.89,3.33-29.94A15.71,15.71,0,0,0,614.15,234.1Z"/><path class="cls-2" d="M762.36,236.84c3.47-1.33,11.32-5.07,10.75-8.45-.46-2.73-6.23-4-9.73-4.09-.68,0-7.89,0-12.54,5.63-.5.61-4.29,5.24-2.82,7.68C749.8,240.53,758,238.51,762.36,236.84Z"/><g id="Layer_2-2" data-name="Layer 2"><g id="Layer_1-2-2" data-name="Layer 1-2"><path class="cls-5" d="M363.59,480.92a1.79,1.79,0,0,1-2.29-1.05l-35.37-95.61A1.79,1.79,0,0,1,327,382l108.09-40a1.79,1.79,0,0,1,2.29,1.05l35.37,95.61a1.79,1.79,0,0,1-1.05,2.29Z"/><path class="cls-5" d="M435.24,342.42a1.31,1.31,0,0,1,1.69.78l35.37,95.61a1.31,1.31,0,0,1-.78,1.69l-108.09,40a1.31,1.31,0,0,1-1.69-.78l-35.37-95.61a1.31,1.31,0,0,1,.78-1.69l108.09-40m-.33-.88-108.09,40a2.25,2.25,0,0,0-1.33,2.89L360.86,480a2.25,2.25,0,0,0,2.89,1.33l108.09-40a2.25,2.25,0,0,0,1.33-2.89l-35.37-95.61A2.25,2.25,0,0,0,434.92,341.54Z"/><path class="cls-6" d="M432.2,367.68a12.24,12.24,0,0,1,1.42,1c2.42,1.94,3.32,6.66,5.07,12,1.36,4.17,1.68,3.89,1.82,5.52a13.94,13.94,0,0,1-2.62,9.08,13.26,13.26,0,0,1-12.88,5,13.9,13.9,0,0,1-7.9-5.19,15.2,15.2,0,0,1-1.62-3.24c-4.67-10.72-4.77-12.34-4.63-13.65a12.2,12.2,0,0,1,2.47-6c4.66-6.42,13.21-6.15,15.38-5.69A13,13,0,0,1,432.2,367.68Z"/><path class="cls-7" d="M434,377.25a2.4,2.4,0,0,0-1.54-.71,3.46,3.46,0,0,0-3,1.11,2.38,2.38,0,0,0-.71,1.54c.1,0,.39-.68,1.21-1.31a4.53,4.53,0,0,1,2.25-.83A11.94,11.94,0,0,1,434,377.25Z"/><circle class="cls-7" cx="431.88" cy="381.25" r="1.41" transform="matrix(0.94, -0.35, 0.35, 0.94, -105.45, 173.52)"/><circle class="cls-7" cx="419.88" cy="385.69" r="1.41" transform="matrix(0.94, -0.35, 0.35, 0.94, -107.73, 169.63)"/><path class="cls-8" d="M434.32,386.1s-.28,1.62-.43,2.3a8,8,0,0,1-1.65,3.59,6.69,6.69,0,0,1-5.62,2.08,7.1,7.1,0,0,1-2.95-1A16.09,16.09,0,0,1,421.2,391l13.11-4.85Z"/><path class="cls-9" d="M433.18,389.94c-.14-.27-.49-.34-1-.48a5,5,0,0,0-2.53.08,8.48,8.48,0,0,0-4.84,3.07c-.13.19-.26.33-.23.51.13.79,3,1.5,5.33.59C432,392.9,433.59,390.73,433.18,389.94Z"/><path class="cls-10" d="M433.24,387.78l-10.12,3.75-.42-1.12,10.12-3.75Z"/><path class="cls-6" d="M434.2,398.48c.45.19.49.84.68,2.43a49.19,49.19,0,0,1,.6,5.67c.06,2.48-.18,2.64-.29,2.67-.27.08-.58-.43-1.59-2s-1.93-3.1-3-4.59-1.54-1.95-1.31-2.39,1-.32,2.62-1C433.36,398.76,433.75,398.28,434.2,398.48Z"/><path class="cls-11" d="M410.58,388.91h0a48.65,48.65,0,0,1-2.14-7.52,18.22,18.22,0,0,1,.23-8.62,16.24,16.24,0,0,1,5.68-8.3,12.59,12.59,0,0,1,6.24-2.73,13.67,13.67,0,0,1,8.41,2c1.86,1,3.35,1.78,4.28,3.53a8.47,8.47,0,0,1,.45,5.81,14.61,14.61,0,0,1-5.42,8.4c-1.45,1.11-1.36.64-9.25,3.84C419.07,385.35,417.84,385.85,410.58,388.91Z"/><path class="cls-12" d="M420.48,391.74a2.78,2.78,0,0,1,1.44-.71,2.45,2.45,0,0,1,1.24.12c.11,0,1.61.62,1.52,1.79a1.68,1.68,0,0,1-1.63,1.54c-.61-.08-1.07-.84-1.31-1.21a5.2,5.2,0,0,0-.71-1.12A2.6,2.6,0,0,0,420.48,391.74Z"/><path class="cls-13" d="M430,412.17c-1.36-1.89-3.89-1.78-7.38-2.13-5.85-.59-12.32-1.32-16.49-5.35a26.92,26.92,0,0,1-4.8-7.2,18.06,18.06,0,0,1-1.35-3.66c-.47-2-.16-2.6-.74-3.12-1.37-1.27-5.41-.14-6.51,2.23-.23.51-.58,1.55.61,5.21a26.62,26.62,0,0,0,6.14,10.94,22,22,0,0,0,5.1,4.13c3.21,1.83,5.39,1.88,10.82,2.79,10.43,1.72,13.18,3.34,14.7,1.54C431.29,416.22,431.08,413.66,430,412.17Z"/><path class="cls-12" d="M417.59,393.29a7.37,7.37,0,0,1-1.11-.13c-1.6-.21-3.23-.26-4.83-.57a3.65,3.65,0,0,0-1.14-.06,2.76,2.76,0,0,0-1,.28c-.57.29-.59.58-1,.75a1.75,1.75,0,0,1-1,0c-1.65-.35-11.57-2.27-13.3-2.29a6,6,0,0,1-1.09-.14,2.49,2.49,0,0,1-1.11-.47c-.12-.11-.4-.43-.33-2.14a11.28,11.28,0,0,1,.56-3.18c.28-.86.42-1.29.77-1.48a3.2,3.2,0,0,1,2.07.07,2,2,0,0,0,.4.11c.37.08.64.12.73.13,1,.1,8.3,1.43,10.32,1.82,1.36.28,1.21.29,1.56.32a2.53,2.53,0,0,1,1.21.25,2.61,2.61,0,0,1,.54.42c.2.21.23.29.53.68a3,3,0,0,0,.46.55,2.35,2.35,0,0,0,.91.34c.44.12.66.16.66.16,1.25.24,4.37.94,5.17,1.17.22.06.45.09.66.16s.33.14.49.08.15-.14.25-.13a.69.69,0,0,1,.37.2c.12.1.18.15.21.12s0-.19,0-.27.55,0,.73.31a.58.58,0,0,1,.09.25,2.78,2.78,0,0,1-.17,1.22,5.44,5.44,0,0,1-.32,1.52.86.86,0,0,1-.28.32.52.52,0,0,1-.61,0c0-.06,0-.11-.12-.16a.29.29,0,0,0-.23,0c-.09,0-.11,0-.2.05a.36.36,0,0,1-.32-.1l-.08-.11C418,393.21,417.65,393.29,417.59,393.29Z"/><path class="cls-14" d="M404,392.89a.65.65,0,0,1,.11-.4.32.32,0,0,1,.16-.12,3.5,3.5,0,0,0,1-1.16,5.48,5.48,0,0,0,.59-3.38c0-.15-.06-.26-.08-.33a3.4,3.4,0,0,0-.48-1.2.37.37,0,0,1-.08-.11.1.1,0,0,1,0-.08.53.53,0,0,0,0-.32h0l-4.52-.83h0s-.53,1.7-.87,3.42c-.09.41-.13.69-.5,3.68h0S404,392.89,404,392.89Z"/><path class="cls-15" d="M396.45,391.54c.1-.06.09-.23.09-.25,0-.26.15-1.26.48-3.29a30.68,30.68,0,0,1,.77-3.38s.06-.1,0-.13h-.12l-.77-.14h-.08a9,9,0,0,0-.89-.15.37.37,0,0,0-.24,0c-.19.09-.22.38-.23.46-.11,1.06-.54,2.06-.73,3.11s-.12,2.1-.4,3.13c0,.07-.1.34,0,.41a.33.33,0,0,0,.17,0,6.32,6.32,0,0,1,.9.11l.62.11h.08C396.29,391.56,396.38,391.58,396.45,391.54Z"/><path class="cls-16" d="M419,393.69c-.1-.12,0-.3.11-.68a5,5,0,0,0,.18-.81c.14-.71.14-1.45.21-1.71a1.11,1.11,0,0,0,0-.13c0-.18,0-.23,0-.28s.31,0,.49.08a.77.77,0,0,1,.28.28,1.32,1.32,0,0,1,.06.76c0,.39-.13.41-.19.85s0,.4-.09.77a1.44,1.44,0,0,1-.19.57.79.79,0,0,1-.48.38S419.1,393.81,419,393.69Z"/><circle class="cls-17" cx="405.61" cy="389.46" r="1.48" transform="translate(-47.15 722.95) rotate(-80.21)"/><circle class="cls-18" cx="405.65" cy="389.48" r="1.18" transform="translate(-47.13 723) rotate(-80.21)"/><path class="cls-19" d="M417.69,393.27c.29-.09.12-.8.35-1.75.17-.68.48-1.24.29-1.38l-.25-.09-.36-.11c-.51-.15-3.14-.78-3.14-.78h0l-2.51-.47h0l-.4-.11c-.09.41-.28,1.5-.35,1.93s-.28,1.56-.37,2l.27,0,.27,0c.37,0,1.3.22,2.07.31l.64.06,2.73.29.45,0Z"/><path class="cls-20" d="M402.79,392.07a.41.41,0,0,0,0-.24.37.37,0,0,0-.25-.19.43.43,0,0,0-.36.05l0,0a.07.07,0,0,0,0,0c0-.07,0-.12-.08-.15a.77.77,0,0,0-.77-.14s-.14.11-.37.3l-.27.24,2.11.4A.5.5,0,0,0,402.79,392.07Z"/><path class="cls-14" d="M402.54,392.13h0L402,392h0a.52.52,0,0,1,.17-.2.28.28,0,0,1,.28,0,.29.29,0,0,1,.08.15Z"/><path class="cls-14" d="M401.81,392h0s-.72-.11-.73-.13h0a.63.63,0,0,1,.32-.26.55.55,0,0,1,.28,0,.22.22,0,0,1,.17.08.26.26,0,0,1,0,.24S401.79,392,401.81,392Z"/><path class="cls-20" d="M402.87,391.5a1.14,1.14,0,0,0,0-.27.6.6,0,0,0,0-.37.49.49,0,0,0-.25-.19.34.34,0,0,0-.37.08c-.06.06-.06.1-.11.12s-.07,0-.13-.07a1.68,1.68,0,0,1-.32-.32c0-.09,0-.15-.08-.15s-.13.15-.09.25.08.11.2.22l.25.19a.12.12,0,0,1,.09.07.1.1,0,0,1,0,.08s-.09,0-.24,0-.36,0-.4-.11,0-.05,0,0-.15.25-.15.25Z"/><path class="cls-14" d="M402.73,391.29a.4.4,0,0,0,0-.17.22.22,0,0,0-.08-.15.33.33,0,0,0-.25-.09.27.27,0,0,0-.22.2.75.75,0,0,0,0,.13A4,4,0,0,1,402.73,391.29Z"/><path class="cls-20" d="M403,390.56h0c.09-.47.14-.77.14-.77h0s-.18-.11-.21-.08,0,.08,0,.15,0,.41-.07.45-.07,0-.23,0h-.08s0-.21.11-.36a.07.07,0,0,0,0,0s-.05,0-.17-.08-.07,0-.08,0a.06.06,0,0,0,0,0s.05.36,0,.41-.06,0-.17,0-.24,0-.27,0,0-.37.18-.53l.07-.09c0-.05-.28-.06-.32,0a.06.06,0,0,0,0,0,2.09,2.09,0,0,1-.18.71h0Z"/><path class="cls-20" d="M403.16,389.56h0c.09-.47.14-.77.14-.77h0s-.18-.11-.21-.08,0,.08,0,.15,0,.41-.07.45-.07,0-.23,0h-.08s0-.21.11-.36a.07.07,0,0,0,0,0s-.05,0-.17-.08-.07,0-.08,0a.06.06,0,0,0,0,0s.05.36,0,.41-.06,0-.17,0-.24,0-.27,0,0-.37.18-.53l.07-.09c0-.05-.28-.06-.32,0a.06.06,0,0,0,0,0,2.09,2.09,0,0,1-.18.71h0Z"/><path class="cls-20" d="M403.52,387.5c0-.23.09-.47.13-.73h0s-.26-.06-.27,0l.09.07s0,.11,0,.24,0,.2-.08.21h0s-.07,0-.21,0-.12,0-.13,0,0-.27.07-.36a.07.07,0,0,0,0,0s-.07,0-.15,0h-.12c-.05,0,.1.32,0,.37s-.06,0-.13,0c-.25-.07-.34,0-.41-.07a1.21,1.21,0,0,1,0-.2.49.49,0,0,1,0-.27c0-.05.07-.07.07-.09a.71.71,0,0,0-.28,0,.07.07,0,0,0,0,0,.22.22,0,0,0,0,.15,1.19,1.19,0,0,1,.09.52C402.62,387.34,403.07,387.41,403.52,387.5Z"/><path class="cls-20" d="M403.11,388.54s.28,0,.28,0h0l.14-.81h0l-.39.13c-.61.19-.81.34-.88.27s0-.33.14-.49.09-.09.07-.13-.3,0-.37.08,0,.11,0,.28c0,0,0,.06-.06.6h0l.53-.14c.45-.14.62-.31.69-.25s0,.27-.07.36S403.09,388.5,403.11,388.54Z"/><path class="cls-20" d="M403.67,386.65h0l-1.58-.27h0s-.13-.19-.09-.25.69.3.81.18a.14.14,0,0,0,0-.08c0-.05-.13-.07-.17-.08a1.79,1.79,0,0,1-.52-.23,1.14,1.14,0,0,1-.37-.28c-.05-.08-.08-.17-.05-.2s.08.05.16.12c.29.25.4.15.77.41.08.05.16.12.25.09A.27.27,0,0,0,403,386a.61.61,0,0,1,.76.18C403.83,386.33,403.67,386.65,403.67,386.65Z"/><path class="cls-14" d="M403.51,386.43a.35.35,0,0,0,0-.13.25.25,0,0,0-.12-.16.27.27,0,0,0-.27,0,.55.55,0,0,0-.19.25h0l.55.08Z"/><path class="cls-21" d="M393.39,391.93a1.3,1.3,0,0,0,.16-.66c0-.19-.16-.28-.33-.46a8.36,8.36,0,0,1-.77-1.15,9.29,9.29,0,0,1-.55-.94c-.41-.91.1-1.25.08-3a5.59,5.59,0,0,1,.28-2.28,1.4,1.4,0,0,1,.33-.34,1,1,0,0,1,.5-.21.86.86,0,0,1,.54.1.67.67,0,0,1,.34.33c0,.11,0,.2.09.31s.09.15.17.14.13-.13.14-.17a.52.52,0,0,0,0-.24.86.86,0,0,1,.34-.59.94.94,0,0,1,.5-.21.91.91,0,0,1,.64.22.69.69,0,0,1,.33.46.44.44,0,0,0,0,.24.26.26,0,0,0,.11.14c.08,0,.13-.13.19-.29a3.7,3.7,0,0,1,.15-.41.89.89,0,0,1,.33-.34,1,1,0,0,1,.73,0,.7.7,0,0,1,.3.15.83.83,0,0,1,.27.56,2.25,2.25,0,0,0,.08.49.07.07,0,0,0,.06.06s.06,0,.14-.11.1-.34.16-.48c.14-.33.72-.37.76-.38a.89.89,0,0,1,.71.24.78.78,0,0,1,.21.5,1.6,1.6,0,0,1-.06.66c0,.09-.06.22,0,.24s.09,0,.12,0a1.45,1.45,0,0,1,.62-.21.85.85,0,0,1,.54.16.94.94,0,0,1,.34.39,1.16,1.16,0,0,1,.09.61c-.08.61-.09,1.21-.19,1.81-.27,1.6.1,1.74-.29,2.4a4.49,4.49,0,0,1-.86,1c-.27.24-.52.49-.79.73a.73.73,0,0,0-.19.23,2,2,0,0,0-.11.78h0l-6.28-.44Z"/><path class="cls-22" d="M343,413a17.57,17.57,0,0,0-.66,2.42c-.84,4.47,2.66,10.59,5.78,18.16,2.45,5.93,1.84,5.93,3.23,7.86A20.38,20.38,0,0,0,362.9,449a19.38,19.38,0,0,0,19.05-6.73A20.27,20.27,0,0,0,385.77,429a24.33,24.33,0,0,0-1.28-5.14c-5-16.37-6.47-18.25-7.86-19.57a18.19,18.19,0,0,0-8.48-4.35c-11.29-2.7-20.53,5.76-22.51,8.33A19.46,19.46,0,0,0,343,413Z"/><path class="cls-7" d="M350.08,425.34a3.58,3.58,0,0,1,1-2.26,5,5,0,0,1,4.39-1.63,3.58,3.58,0,0,1,2.26,1,14.63,14.63,0,0,0-2.6-.28,6.34,6.34,0,0,0-3.29,1.22C350.67,424.34,350.21,425.41,350.08,425.34Z"/><circle class="cls-7" cx="356.29" cy="427.74" r="2.04" transform="translate(-126.27 150.18) rotate(-20.3)"/><circle class="cls-7" cx="373.86" cy="421.24" r="2.04" transform="translate(-122.93 155.88) rotate(-20.3)"/><path class="cls-8" d="M358.2,435.44s1.85,1.53,2.67,2.13a12.05,12.05,0,0,0,5.27,2.43,9.86,9.86,0,0,0,8.24-3,10.47,10.47,0,0,0,2.27-4,23,23,0,0,0,.77-4.66Z"/><path class="cls-9" d="M363.11,438.62c-.1-.42.22-.82.69-1.49a7.34,7.34,0,0,1,2.88-2.31,12.38,12.38,0,0,1,8.29-1.19c.33.08.6.12.75.34.61,1-1.94,4.53-5.38,5.72C367.26,440.76,363.42,439.9,363.11,438.62Z"/><path class="cls-10" d="M361,436.28l14.83-5.49-.61-1.65-14.83,5.49Z"/><path class="cls-23" d="M368,475.52s0,0,0,0,2.23,3.43,2.23,3.43l26.36-9.75a35,35,0,0,0-1.14-3.83l-.2-.54c-.6-1.56-.95-2.57-1-2.74a18.63,18.63,0,0,0-6.19-8.32,15,15,0,0,0-8.42-2.5,14.34,14.34,0,0,0-9.88,3.65,13.66,13.66,0,0,0-3.51,5.68,16.42,16.42,0,0,0-.45,8.9A35.56,35.56,0,0,0,368,475.52Z"/><path class="cls-22" d="M370.12,449.09c-.34.65.24,1.39,1.56,3.34,2.72,4.05,2.84,4.59,4.72,6.88,2.3,2.81,2.72,2.75,2.87,2.68.36-.17.22-1-.13-3.69s-.81-5.27-1.05-7.92-.14-3.62-.83-3.91-1.38.55-3.85,1.42C371.32,448.61,370.45,448.43,370.12,449.09Z"/><path class="cls-11" d="M387.26,416h0a70.79,70.79,0,0,0-4.79-10.4A26.69,26.69,0,0,0,374,396.2a23.57,23.57,0,0,0-14.21-3.79,18.57,18.57,0,0,0-9.53,2.91c-4.59,3-6.34,7.44-7.44,10.25s-2,5.17-1.41,8c.79,3.54,3.44,5.64,5,6.87a21.58,21.58,0,0,0,14,4.18c2.66-.15,2.12-.58,13.93-4.53C374.42,420.09,376.26,419.47,387.26,416Z"/><path class="cls-24" d="M350,438.47l-2.21-4.1c-2.47-4.56-3.7-6.82-3.7-6.82-.67-1.21-1.27-2.45-2-3.65a17.84,17.84,0,0,1-2.37-4.74,6.31,6.31,0,0,1-.27-2.4c.24-1.77,1.52-3.36,1.93-3.21.16.06.18.37.2.54.13,1.27.62,1.67,1.63,4.39,1.29,3.48,2.22,7.51,4.53,13.93C348.56,434.63,350,438.47,350,438.47Z"/><path class="cls-12" d="M379,428.54a4,4,0,0,0-2.28.58,3.82,3.82,0,0,0-1.27,1.33c-.08.15-1.18,2.21,0,3.45a2.47,2.47,0,0,0,3.27.15c.61-.67.4-1.95.28-2.58a5.93,5.93,0,0,1-.25-1.92A4,4,0,0,1,379,428.54Z"/><path class="cls-25" d="M387.8,460.32c-.3-3.41,2.66-5.68,6.18-9.38,5.93-6.21,12.44-13.21,13.23-21.64.5-5.44-1.34-11.87-1.53-12.56a26.3,26.3,0,0,0-2-5.34c-1.4-2.72-2.28-3-2.14-4.16.33-2.72,5.89-5.3,9.36-3.74.75.34,2.13,1.17,4.28,6.39,1.71,4.12,4,9.94,3.6,18a32,32,0,0,1-1.76,9.46c-1.81,5.09-4.18,7.22-9.39,13.4-10,11.86-11.49,16.26-14.87,15.71C390.24,466,388,463,387.8,460.32Z"/><path class="cls-12" d="M383.65,427.5a14.37,14.37,0,0,0,1.12-1.19c1.58-1.77,3.35-3.38,4.82-5.24a5.47,5.47,0,0,1,1.21-1.15,4.38,4.38,0,0,1,1.4-.66c.9-.21,1.21.07,1.87-.17a2.52,2.52,0,0,0,1.1-.91c1.51-2,10.69-13.55,12.58-15.2a6.44,6.44,0,0,0,1.08-1.2,3.53,3.53,0,0,0,.79-1.59c0-.25,0-.86-1.67-2.68a17.47,17.47,0,0,0-3.66-3c-1.12-.7-1.71-1-2.26-.92-1.12.26-2.11,1.86-2.22,2.06s-.15.25-.33.5a9.77,9.77,0,0,1-.67.83c-1,1-7.86,9.48-9.72,11.85-1.25,1.58-1.05,1.47-1.43,1.85a3.86,3.86,0,0,0-1.09,1.42,3.54,3.54,0,0,0-.2,1c0,.41,0,.54.07,1.27a5.11,5.11,0,0,1,0,1,4,4,0,0,1-.69,1.26l-.58.81c-1.14,1.44-4,5.22-4.62,6.2a8,8,0,0,0-.58.81c-.15.25-.25.47-.47.57s-.29,0-.42.1-.16.26-.22.58-.06.32-.11.34-.15-.24-.31-.24-.59.52-.51,1a.87.87,0,0,0,.14.37,4.36,4.36,0,0,0,1.34,1.2c.83.61,1,1.06,1.79,1.39a1,1,0,0,0,.63.09c.31-.08.66-.32.66-.58,0-.1-.06-.16,0-.29a.58.58,0,0,1,.21-.26c.13-.09.16,0,.27-.12a.6.6,0,0,0,.25-.41c0-.1,0-.11,0-.2C383.13,427.76,383.55,427.56,383.65,427.5Z"/><path class="cls-14" d="M398.39,414.08a1,1,0,0,0-.5-.33.51.51,0,0,0-.29,0,5,5,0,0,1-2.21-.36,8,8,0,0,1-3.86-3.21,3,3,0,0,1-.23-.46,5.27,5.27,0,0,1-.6-1.79.31.31,0,0,0,0-.2.24.24,0,0,0-.11-.08.84.84,0,0,1-.27-.4h0l4.24-5.23h0s2.21,1.38,4.22,3c.48.38.77.63,4.05,3.62h0l-4.42,5.43Z"/><path class="cls-15" d="M405.49,405.42c-.15,0-.32-.16-.36-.21-.25-.29-1.38-1.25-3.66-3.2a41.5,41.5,0,0,0-4.08-3s-.17-.08-.15-.13,0,0,0-.05a.39.39,0,0,0,.08-.11l.72-.87a.46.46,0,0,0,.08-.11c.36-.43.53-.68.86-1a.85.85,0,0,1,.26-.22c.29-.09.6.22.7.32,1.14,1.08,2.56,1.79,3.76,2.77s2.14,2.22,3.42,3.09c.08.05.42.27.38.48a.36.36,0,0,1-.17.2,6.49,6.49,0,0,0-.89,1c-.13.15-.43.5-.59.72l-.08.11A1.34,1.34,0,0,1,405.49,405.42Z"/><path class="cls-16" d="M382.45,429.27c0-.22-.31-.35-.77-.63a9.61,9.61,0,0,1-1-.72c-.83-.67-1.52-1.47-1.88-1.72l-.15-.13c-.19-.19-.19-.29-.27-.3s-.38.28-.47.57a1.23,1.23,0,0,0,0,.58c0,.16.13.41.65.88s.52.33,1,.76.4.43.83.77a2.2,2.2,0,0,0,.74.44,1.2,1.2,0,0,0,.91,0C382.11,429.71,382.44,429.53,382.45,429.27Z"/><circle class="cls-17" cx="393.32" cy="411.83" r="2.17" transform="translate(-174.71 452.29) rotate(-50.39)"/><circle class="cls-18" cx="393.31" cy="411.86" r="1.74" transform="translate(-174.74 452.29) rotate(-50.39)"/><path class="cls-19" d="M383.52,427.57c-.42.17-.91-.78-2.05-1.6-.83-.61-1.7-.93-1.63-1.28a2.64,2.64,0,0,1,.21-.36,5.19,5.19,0,0,1,.29-.45c.44-.64,2.77-3.86,2.77-3.86h0l2.34-2.92h0s.07-.13.33-.5l2.22,1.8c.52.43,1.8,1.47,2.34,1.89l-.28.28-.28.28c-.39.4-1.23,1.48-2,2.32l-.65.68-2.76,2.92-.48.48C383.65,427.44,383.55,427.56,383.52,427.57Z"/><path class="cls-20" d="M398.92,412a.77.77,0,0,1-.18-.31.63.63,0,0,1,.1-.44.61.61,0,0,1,.45-.29s.08,0,.09,0,0,0-.05,0-.07-.18-.07-.23a1.1,1.1,0,0,1,.72-.87,4.76,4.76,0,0,1,.71,0h.52l-1.95,2.46A1.26,1.26,0,0,1,398.92,412Z"/><path class="cls-14" d="M399.27,411.88h0l.47-.57h0a.92.92,0,0,0-.38-.06.31.31,0,0,0-.23.51A.57.57,0,0,0,399.27,411.88Z"/><path class="cls-14" d="M399.94,411h0l.67-.83h0a1,1,0,0,0-.62,0,.57.57,0,0,0-.3.27.41.41,0,0,0-.13.25.29.29,0,0,0,.22.26C399.86,411,400,411.06,399.94,411Z"/><path class="cls-20" d="M398.29,411.5a3.3,3.3,0,0,1-.31-.24c-.18-.17-.3-.27-.32-.44a.61.61,0,0,1,.1-.44.56.56,0,0,1,.49-.28c.1,0,.16.06.25,0a.22.22,0,0,0,.07-.19,1.69,1.69,0,0,0,0-.67c0-.15-.1-.2-.07-.23s.27,0,.36.21,0,.21,0,.42a3.26,3.26,0,0,1-.1.44.17.17,0,0,0,0,.15.15.15,0,0,0,.11.08c.07,0,.12,0,.26-.22s.35-.39.33-.5,0-.07,0-.09.4.15.4.15S398.29,411.5,398.29,411.5Z"/><path class="cls-14" d="M398.25,411.11a.83.83,0,0,1-.2-.17.32.32,0,0,1-.07-.23.44.44,0,0,1,.21-.36.37.37,0,0,1,.23-.07.36.36,0,0,1,.19.07l.15.13S398.25,411.11,398.25,411.11Z"/><path class="cls-20" d="M397.26,410.54h0l-.87-.72h0s.09-.29.17-.3.07.07.11.18.37.46.52.43.05-.08.21-.26.09-.07.08-.11-.26-.21-.45-.29c0,0,0,0-.05,0s0-.09.13-.25.06-.1.08-.11,0,0,.05,0,.28.44.42.43.06-.06.17-.2.25-.23.24-.31-.38-.38-.71-.4c-.07,0-.14,0-.15,0s.26-.33.4-.27l.05,0a3.55,3.55,0,0,0,.87.62h0S397.26,410.54,397.26,410.54Z"/><path class="cls-20" d="M396.11,409.61h0l-.87-.72h0s.09-.29.17-.3.07.07.11.18.37.46.52.43.05-.08.21-.26.09-.07.08-.11-.26-.21-.45-.29c0,0,0,0-.05,0s0-.09.13-.25.06-.1.08-.11,0,0,.05,0,.28.44.42.43.06-.06.17-.2.25-.23.24-.31-.38-.38-.71-.4c-.07,0-.14,0-.15,0s.26-.33.4-.27l.05,0a3.55,3.55,0,0,0,.87.62h0S396.11,409.61,396.11,409.61Z"/><path class="cls-20" d="M393.76,407.66c-.28-.22-.55-.46-.83-.67h0a2,2,0,0,1,.24-.31s0,.05,0,.15.07.13.22.26.23.19.3.17h0a1.52,1.52,0,0,1,.19-.25c.1-.12.14-.11.13-.15s-.26-.28-.41-.35,0,0-.05,0,.09,0,.18-.11l.08-.11,0-.05c.08,0,.19.45.32.44s.06-.06.13-.15c.19-.29.38-.32.39-.46s-.06-.1-.16-.22-.2-.22-.31-.24-.14,0-.15,0,.23-.19.35-.23h.09c.07,0,.09.15.11.18a1.94,1.94,0,0,0,.39.68C394.61,406.63,394.18,407.14,393.76,407.66Z"/><path class="cls-20" d="M395.22,408.42c0,.09-.35.23-.35.23h0l-.92-.76h0s.41-.19.55-.24c.84-.37,1.23-.4,1.22-.53s-.34-.33-.61-.41c-.11,0-.19,0-.19-.07s.27-.34.49-.28.12.11.27.3a6,6,0,0,0,.62.61h0s-.4.21-.73.35c-.62.27-1,.25-1,.37s.26.28.41.35S395.2,408.37,395.22,408.42Z"/><path class="cls-20" d="M392.78,406.85h0l1.5-1.79h0s0-.34-.14-.37-.47,1-.72,1a.15.15,0,0,1-.11-.08c0-.09.07-.19.13-.25a2.3,2.3,0,0,0,.36-.75,1.39,1.39,0,0,0,.13-.67c0-.13-.08-.27-.12-.27s0,.16-.07.29c-.08.55-.28.54-.46,1.19,0,.11-.07.29-.21.36a.55.55,0,0,1-.2,0,.89.89,0,0,0-.68.91C392.31,406.66,392.78,406.85,392.78,406.85Z"/><path class="cls-14" d="M392.76,406.47a.57.57,0,0,1-.15-.13c-.07-.09,0-.25,0-.29a.43.43,0,0,1,.24-.31.73.73,0,0,1,.44.1h0l-.51.63Z"/><path class="cls-21" d="M409.21,402.94a1.71,1.71,0,0,1-.81-.58c-.15-.24-.09-.47-.06-.82a11.44,11.44,0,0,0-.24-2,11.82,11.82,0,0,0-.3-1.57c-.42-1.4-1.32-1.31-3-3.28-.4-.49-1.67-2-2.48-2.28a2.45,2.45,0,0,0-.68-.07,1.7,1.7,0,0,0-.75.24,1.26,1.26,0,0,0-.51.63,1,1,0,0,0-.07.68c.06.16.16.22.18.43s0,.25-.07.3-.26,0-.3-.07a1.5,1.5,0,0,1-.25-.25A1.15,1.15,0,0,0,399,394a1.41,1.41,0,0,0-.75.24,1.43,1.43,0,0,0-.52.87,1,1,0,0,0,.06.82.82.82,0,0,1,.18.31c0,.07.05.2,0,.26s-.29,0-.51-.13-.37-.24-.56-.31a1.08,1.08,0,0,0-.68-.07,1.75,1.75,0,0,0-1,1.12,1.36,1.36,0,0,0,.25.89,2.85,2.85,0,0,1,.37.62s0,.09,0,.12-.06.06-.26,0a2.57,2.57,0,0,1-.62-.39c-.47-.25-1.16.27-1.19.3a1.31,1.31,0,0,0-.57.93,1.29,1.29,0,0,0,.24.75,3.08,3.08,0,0,0,.67.69c.12.1.27.18.25.25s-.12,0-.19.07a2,2,0,0,0-.88.37,1.33,1.33,0,0,0-.45.68,1.5,1.5,0,0,0,0,.76,1.45,1.45,0,0,0,.5.75c.66.6,1.24,1.26,1.93,1.82,1.8,1.51,1.55,2,2.61,2.41a5.66,5.66,0,0,0,1.94.32c.52,0,1,.06,1.57.08a1.58,1.58,0,0,1,.44.06,2.88,2.88,0,0,1,.88.75h0c0,.05,6.58-6.41,6.58-6.41Z"/><path class="cls-26" d="M410.61,388.94h0a49.49,49.49,0,0,1-2.17-7.59,18.28,18.28,0,0,1,.22-8.69,16.27,16.27,0,0,1,5.73-8.38,13,13,0,0,1,6.31-2.77,13.77,13.77,0,0,1,8.5,2c1.89,1,3.38,1.79,4.34,3.57A8.5,8.5,0,0,1,434,373a15,15,0,0,1-5.49,8.49c-1.46,1.12-1.38.65-9.33,3.89C419.17,385.33,417.94,385.85,410.61,388.94Z"/><path class="cls-27" d="M440,384.08s-.62-2.93-1.8-8.38c-.35-1.61-.27-2.46-.65-4.08a9.66,9.66,0,0,0-.84-2.27,4,4,0,0,0-.95-1.37c-.92-.82-2.3-1.09-2.46-.81-.06.1.06.28.14.39.5.71.43,1.16,1.12,3,.88,2.39,2.2,4.92,3.89,9.33C439.07,381.41,440,384.08,440,384.08Z"/><polyline class="cls-28" points="413.7 386.28 415.23 385.71 437.59 377.44"/><path class="cls-5" d="M415.3,384.18,424,381l.28.76a5.53,5.53,0,0,1-.16,3.08,5.39,5.39,0,0,1-2.57,3.53,4.43,4.43,0,0,1-4.36-.11C416.62,387.75,416.42,387.21,415.3,384.18Z"/><path class="cls-5" d="M435.39,376.75,426.68,380l.28.76a5.53,5.53,0,0,0,2.12,2.23,5.39,5.39,0,0,0,4.25,1,4.43,4.43,0,0,0,3.24-2.92C436.71,380.32,436.49,379.78,435.39,376.75Z"/><path class="cls-29" d="M432,433.54c-.83,1.37.74,2.66,3.09,9.45.83,2.39,1,3.59,2,6.13.64,1.62,1.81,4.36,1.81,4.36l11.25-4.16c-.87-2.62-.92-2.76-.92-2.76-1.14-3.4-1.5-4.64-1.51-4.63A21.59,21.59,0,0,0,449,446c.57,1.37,1.47,3.15,1.47,3.15l10.55-3.9s-.67-2.51-.74-2.82a57.9,57.9,0,0,0-3-9.27c-2.3-5.62-2.82-6.21-3.59-6.46-2.56-.83-4.06,3.28-9.43,5.29C438,434.34,433.36,431.27,432,433.54Z"/><path class="cls-30" d="M431.83,433.82a49.27,49.27,0,0,0,5.69,1.61c3.27.59,5.52-.2,8.22-1.18a17.24,17.24,0,0,0,5.07-2.82c1.27-1,4.12-3.34,3.41-5.92l-.31-.83c-.88-2.31-1.41-3.81-1.51-4.1A45,45,0,0,0,445,407.52c-3.45-3.88-6.61-5-8.1-5.37a7,7,0,0,0-8,3,16.05,16.05,0,0,0-1.91,7.22,36.63,36.63,0,0,0,1.55,12.45,94.54,94.54,0,0,0,3.32,9Z"/><path class="cls-12" d="M446.46,393.48a15,15,0,0,0-.38,1.74c-.49,2.52-1.22,5-1.52,7.56a5.66,5.66,0,0,1-.49,1.76,4.75,4.75,0,0,1-.94,1.41c-.72.71-1.17.61-1.64,1.23a2.79,2.79,0,0,0-.52,1.47c-.29,2.67-2.32,18.58-3.15,21.19a8.26,8.26,0,0,0-.33,1.7,4,4,0,0,0,.15,1.92c.11.24.44.82,3.05,1.55a19.1,19.1,0,0,0,5.08.76c1.45,0,2.16,0,2.63-.41.9-.85.9-2.91.91-3.15,0-.08,0-.32,0-.65a7.39,7.39,0,0,1,.18-1.14c.34-1.52,2-13.22,2.38-16.47a20.48,20.48,0,0,1,.31-2.51,4.15,4.15,0,0,0,.22-1.94,3.83,3.83,0,0,0-.37-1,13.66,13.66,0,0,0-.78-1.15,5.74,5.74,0,0,1-.59-1,4.08,4.08,0,0,1-.07-1.55c0-.71.08-1.09.08-1.09.26-2,.74-7.07.8-8.37a9.47,9.47,0,0,0,.08-1.09c0-.32-.05-.58.11-.78s.27-.14.35-.31,0-.32-.11-.68-.14-.33-.08-.39.29.13.42.06.26-.81-.11-1.26a.91.91,0,0,0-.32-.26,4.83,4.83,0,0,0-1.93-.36,9.38,9.38,0,0,0-2.45-.29,1.07,1.07,0,0,0-.62.27c-.25.23-.43.68-.28.9s.14.11.19.25a.71.71,0,0,1,0,.36c-.07.14-.13.13-.18.27a.69.69,0,0,0,0,.52l.12.16C446.79,392.94,446.52,393.38,446.46,393.48Z"/><path class="cls-14" d="M440.3,414.22a1,1,0,0,0,.65,0,.46.46,0,0,0,.25-.19,5.57,5.57,0,0,1,2.26-.92,8.73,8.73,0,0,1,5.39.8,4,4,0,0,1,.47.29,5.64,5.64,0,0,1,1.57,1.32.29.29,0,0,0,.12.16.3.3,0,0,0,.15,0,.81.81,0,0,1,.48.22h0l-1,7.24h0s-2.81,0-5.6-.39c-.67-.09-1.08-.16-5.77-1.08h0s1-7.5,1-7.5Z"/><path class="cls-15" d="M438.59,426.24c.11-.12.39,0,.44,0,.38.12,2,.39,5.19.92a45.46,45.46,0,0,0,5.49.53s.19,0,.21,0,0,0,0,.07a.47.47,0,0,1,0,.15c-.07.41-.12.8-.19,1.23a.42.42,0,0,1,0,.15c-.08.59-.09.93-.21,1.44-.05.24-.07.29-.13.35-.23.24-.69.14-.82.1-1.65-.37-3.37-.21-5-.45s-3.24-.86-4.9-.94c-.1,0-.53,0-.62-.23a.5.5,0,0,1,0-.29,10.11,10.11,0,0,0,.29-1.43c0-.19.12-.7.15-1a.52.52,0,0,1,0-.15C438.49,426.44,438.52,426.31,438.59,426.24Z"/><path class="cls-16" d="M446.59,391.15c.14.21.47.14,1.08.16a12.52,12.52,0,0,1,1.3.12c1.16.15,2.25.51,2.7.54l.21,0c.28.06.34.16.41.15s.19-.47.11-.78a1.15,1.15,0,0,0-.28-.55,1.88,1.88,0,0,0-1.11-.45c-.61-.13-.66,0-1.37-.13s-.6-.18-1.21-.25a2.15,2.15,0,0,0-1,0,1.26,1.26,0,0,0-.82.54A.64.64,0,0,0,446.59,391.15Z"/><circle class="cls-17" cx="446.33" cy="413.46" r="2.34" transform="translate(-28.29 794.12) rotate(-81.54)"/><circle class="cls-18" cx="446.28" cy="413.42" r="1.87" transform="translate(-28.29 794.03) rotate(-81.54)"/><path class="cls-19" d="M446.55,393.35c.3-.39,1.3.22,2.8.34,1.11.09,2.1-.1,2.23.25a3.1,3.1,0,0,1,0,.44c0,.12,0,.38,0,.58,0,.86-.4,5.14-.4,5.14h0l-.53,4h0s0,.16,0,.65l-3.07-.42-3.22-.45a4.11,4.11,0,0,1,.1-.42c.07-.3.1-.42.1-.44.14-.59.32-2.06.56-3.29.06-.28,0-.09.21-1s.73-3.37.92-4.26c0,0,.06-.28.18-.71C446.49,393.53,446.54,393.37,446.55,393.35Z"/><path class="cls-20" d="M441,416.39a.59.59,0,0,1,.33.2.7.7,0,0,1-.1,1s-.08.05-.07.07,0,0,.07,0,.16.12.18.17a1.17,1.17,0,0,1-.19,1.23s-.24.17-.64.42l-.49.3.43-3.38A.86.86,0,0,1,441,416.39Z"/><path class="cls-14" d="M440.72,416.76h0l-.11.78h0a.78.78,0,0,0,.38-.16.43.43,0,0,0,.15-.41.33.33,0,0,0-.18-.17A.56.56,0,0,0,440.72,416.76Z"/><path class="cls-14" d="M440.56,417.9h0l-.18,1.14h0a1.2,1.2,0,0,0,.57-.35.9.9,0,0,0,.15-.41.43.43,0,0,0,0-.29.37.37,0,0,0-.35-.13Z"/><path class="cls-20" d="M441.85,416.57l.42.06c.26.06.43.08.55.24a.67.67,0,0,1,.15.46.69.69,0,0,1-.3.55c-.1.06-.21,0-.24.11s0,.12,0,.22a1.94,1.94,0,0,0,.33.64c.12.11.21.12.18.17a.39.39,0,0,1-.44,0c-.1-.06-.14-.17-.23-.4a2.81,2.81,0,0,1-.15-.46.19.19,0,0,0-.06-.16.16.16,0,0,0-.15,0c-.07,0-.08.11-.13.35-.08.43-.11.56,0,.65s.06.06.07.07-.45.09-.45.09S441.85,416.57,441.85,416.57Z"/><path class="cls-14" d="M442.11,416.89l.29,0a.39.39,0,0,1,.18.17.5.5,0,0,1,0,.44.32.32,0,0,1-.17.18.41.41,0,0,1-.22,0l-.21,0S442.11,416.89,442.11,416.89Z"/><path class="cls-20" d="M443.35,416.85h0l1.23.19h0s.1.32,0,.37-.11,0-.2-.11c-.25-.15-.61-.24-.72-.11s0,.1,0,.36,0,.11,0,.15.36,0,.58,0a.1.1,0,0,1,.07,0s0,.09,0,.29,0,.12,0,.15a0,0,0,0,1-.07,0s-.49-.26-.64-.16,0,.08,0,.29-.11.36-.06.42.56.15.88,0c.07,0,.13-.07.16-.06s-.05.46-.22.48-.06,0-.07,0A3.87,3.87,0,0,0,443,419h0S443.35,416.85,443.35,416.85Z"/><path class="cls-20" d="M444.92,417.09h0l1.23.19h0s.1.32,0,.37-.11,0-.2-.11c-.25-.15-.61-.24-.72-.11s0,.1,0,.36,0,.11,0,.15.36,0,.58,0a.1.1,0,0,1,.07,0s0,.09,0,.29,0,.12,0,.15a0,0,0,0,1-.07,0s-.49-.26-.64-.16,0,.08,0,.29-.11.36-.06.42.56.15.88,0c.07,0,.13-.07.16-.06s-.05.46-.22.48-.06,0-.07,0a3.87,3.87,0,0,0-1.15-.09h0S444.92,417.09,444.92,417.09Z"/><path class="cls-20" d="M448.22,417.59l1.14.18h0a2.4,2.4,0,0,1-.06.42s0-.08-.06-.16-.15-.08-.35-.13-.32,0-.37,0a0,0,0,0,0,0,0s0,.12,0,.33-.05.18,0,.21.42.1.57.09.06,0,.07,0-.07.09-.11.2,0,.11,0,.15,0,.06,0,.07-.43-.3-.55-.24,0,.09,0,.21c0,.39-.18.53-.1.64a.82.82,0,0,0,.28.12.75.75,0,0,0,.42.06c.09,0,.13-.07.16-.06s-.13.31-.21.42a.14.14,0,0,1-.07.07c-.09,0-.17-.08-.2-.11a2.13,2.13,0,0,0-.75-.4C448,419,448.11,418.31,448.22,417.59Z"/><path class="cls-20" d="M446.44,417.68c-.07-.07.21-.42.21-.42h0l1.29.18h0l-.36.53c-.58.81-.91,1.06-.84,1.19s.51.13.8,0c.12,0,.19-.07.22,0s-.06.48-.3.55-.17,0-.41-.15a8,8,0,0,0-.92-.22h0s.26-.44.47-.73c.44-.6.79-.79.72-.92s-.42-.1-.57-.09S446.48,417.73,446.44,417.68Z"/><path class="cls-20" d="M449.57,417.78h0l-.38,2.5h0s.23.29.32.26-.12-1.19.12-1.3a.16.16,0,0,1,.15,0c.09.07,0,.22,0,.29a2.49,2.49,0,0,0,.09.89,1.41,1.41,0,0,0,.26.7c.1.1.24.21.27.18s0-.16-.09-.31c-.23-.56,0-.66-.24-1.35,0-.13-.09-.31,0-.44a.29.29,0,0,1,.16-.12.93.93,0,0,0,.11-1.22C450.11,417.68,449.57,417.78,449.57,417.78Z"/><path class="cls-14" d="M449.81,418.11a.42.42,0,0,1,.21,0,.43.43,0,0,1,.19.25.43.43,0,0,1-.06.42.75.75,0,0,1-.46.15h0l.12-.86Z"/></g></g><path class="cls-5" d="M676.17,453l-77,25.29a13.49,13.49,0,0,1-11.85-6L561.59,394a13.49,13.49,0,0,1,6-11.85l77-25.29a13.49,13.49,0,0,1,11.85,6l25.76,78.38a12.7,12.7,0,0,1-1.43,6.71A14,14,0,0,1,676.17,453Z"/><path class="cls-10" d="M649,386.85l-10.33,3.39a4.22,4.22,0,0,1-3.51-.41,3.66,3.66,0,0,1-1.4-1.88l-3.62-11a2.72,2.72,0,0,1,.24-1.64,2.1,2.1,0,0,1,1.18-1.17l11.73-3.86a4.94,4.94,0,0,1,2.57.71,2.72,2.72,0,0,1,1.17,1.18l3.62,11a4.94,4.94,0,0,1-.71,2.57A1.36,1.36,0,0,1,649,386.85Z"/><circle class="cls-10" cx="621.87" cy="417.59" r="20.26" transform="translate(-99.28 215.01) rotate(-18.19)"/><path class="cls-10" d="M583,420.23l7.51-2.47a33.27,33.27,0,0,0,6.8,18.31c7.15,9.09,20.87,16,34.95,11.4a31.67,31.67,0,0,0,21.13-28.27,46.93,46.93,0,0,0-2-10.79s-.54-1.64-3.87-9.39l8.21-2.7,13.57,41.3a8.82,8.82,0,0,1-.41,3.51h0a10.67,10.67,0,0,1-1.65,2.1l-65,22.14h0a10.37,10.37,0,0,1-3.74-1.11,15.12,15.12,0,0,1-2.4-4.93h0C595.84,459.42,583,420.23,583,420.23Z"/><path class="cls-5" d="M265.29,517.54l-56.85-28.7a10.6,10.6,0,0,1-3.26-9.91L234.41,421a10.6,10.6,0,0,1,9.91-3.26l56.85,28.7a10.6,10.6,0,0,1,3.26,9.91L275.2,514.28a10,10,0,0,1-4.53,2.93A11,11,0,0,1,265.29,517.54Z"/><path class="cls-10" d="M286.94,465.61l-7.63-3.85a3.32,3.32,0,0,1-1.73-2.18,2.87,2.87,0,0,1,.27-1.82l4.11-8.15a2.14,2.14,0,0,1,1-.78,1.65,1.65,0,0,1,1.3,0l8.67,4.38a3.88,3.88,0,0,1,1,1.83,2.14,2.14,0,0,1,0,1.3l-4.11,8.15a3.88,3.88,0,0,1-1.83,1A1.07,1.07,0,0,1,286.94,465.61Z"/><circle class="cls-10" cx="254.81" cy="467.65" r="15.92" transform="translate(-277.5 484.33) rotate(-63.21)"/><path class="cls-10" d="M231.7,447.5l5.55,2.8a26.15,26.15,0,0,0-6.39,14c-1.08,9,2.7,20.5,13.1,25.75a24.89,24.89,0,0,0,27.45-4,36.89,36.89,0,0,0,4.89-7.1s.61-1.21,3.07-7.37l6.07,3.06L270,505.14a6.93,6.93,0,0,1-2.18,1.73h0a8.39,8.39,0,0,1-2.08.25l-48.45-23.81h0a8.15,8.15,0,0,1-1.47-2.7,11.88,11.88,0,0,1,1.41-4.08h0C217.09,476.45,231.7,447.5,231.7,447.5Z"/><path class="cls-5" d="M514.24,536.61l-38.47-29.77a8.1,8.1,0,0,1-1-7.91l30.32-39.17a8.1,8.1,0,0,1,7.91-1l38.47,29.77a8.1,8.1,0,0,1,1,7.91L522.14,535.6a7.62,7.62,0,0,1-3.82,1.54A8.38,8.38,0,0,1,514.24,536.61Z"/><path class="cls-10" d="M538,500.81l-5.16-4a2.54,2.54,0,0,1-1-1.88,2.19,2.19,0,0,1,.47-1.33l4.27-5.51a1.63,1.63,0,0,1,.9-.43,1.26,1.26,0,0,1,1,.19l5.86,4.54a3,3,0,0,1,.51,1.52,1.63,1.63,0,0,1-.19,1l-4.27,5.51a3,3,0,0,1-1.52.51A.82.82,0,0,1,538,500.81Z"/><circle class="cls-10" cx="513.61" cy="497.68" r="12.16" transform="matrix(0.61, -0.79, 0.79, 0.61, -194.32, 599.27)"/><path class="cls-10" d="M499.2,479.22l3.75,2.9a20,20,0,0,0-6.82,9.54c-2.12,6.61-1,15.77,6.09,21.21a19,19,0,0,0,21.17,1,28.18,28.18,0,0,0,4.7-4.62s.64-.82,3.37-5.08l4.11,3.18-16,20.64a5.29,5.29,0,0,1-1.88,1h0a6.41,6.41,0,0,1-1.6-.11L483.23,504h0a6.23,6.23,0,0,1-.71-2.24,9.08,9.08,0,0,1,1.64-2.85h0C484,498.8,499.2,479.22,499.2,479.22Z"/><path class="cls-2" d="M561.41,298s-6.87,6.67-12.92,13.69c-9.25,10.71-9.28,13.75-9.12,15.21.38,3.48,2.86,7.29,6.08,8,5.09,1.1,10.73-5.87,13.31-11,5.59-11.21,2.66-25.85,2.66-25.85Z"/><path class="cls-3" d="M694.11,520.93a2,2,0,0,1-1.22-2.51l36.93-106.57a2,2,0,0,1,2.51-1.22l120.43,41.73a2,2,0,0,1,1.22,2.51L817.05,561.45a2,2,0,0,1-2.51,1.22Z"/><rect class="cls-31" x="712.6" y="429.11" width="131.4" height="87" rx="12" ry="12" transform="translate(197.65 -228.78) rotate(19.11)"/><rect class="cls-32" x="694.59" y="506.41" width="131.4" height="36.38" rx="12" ry="12" transform="translate(213.68 -220.02) rotate(19.11)"/><path class="cls-33" d="M775.75,449.43c.41-.65,2.17-.5,3.42.22a5.34,5.34,0,0,1,1.68,1.69c1.13,1.52,3.51,4.7,6.77,6.5.83.46,1.17.53,1.19.81.1,1.4-8.22,4.28-10.39,1.75-.33-.38-.11-.41-.58-2.46a57,57,0,0,0-2-7.4C775.73,450.22,775.54,449.76,775.75,449.43Z"/><path class="cls-34" d="M775.8,459.39c-.12.28,2.16,1.58,3.38,2.21a36.9,36.9,0,0,0,12.66,3.54c7.19.64,11.47.72,19.11,1.07,11.45.53,17.18.79,17.95.95a70.78,70.78,0,0,0,7.79.4,8,8,0,0,0,5-1.19c.32-.22,1.58-1.11,1.4-1.7-.34-1.15-5.91-.41-8.37-.15-9.64,1-18.13-.54-35-3.65-4.5-.83-7.47-1.54-11.56-1.44,0,0-5.16.13-9,.07-1.06,0-1.58,0-2-.05C776.23,459.38,775.85,459.28,775.8,459.39Z"/><path class="cls-35" d="M775.72,459.32s1.91.05,4.51-.14a41.52,41.52,0,0,0,4.5-.59c4.9-.87,15.88-.07,26.27,0,.45,0,16,.08,22.3,1.16a20.38,20.38,0,0,1,5.12,1.61,16.45,16.45,0,0,1,3.66,2.3l1.17,1.07s-7.57.91-14.6.93c-9.75,0-9.88-1.66-17.91-1.5a33.41,33.41,0,0,1-8.67-1.19,9.78,9.78,0,0,1-3.43-1.48A1.58,1.58,0,0,0,798,461a4.11,4.11,0,0,0-1.2,0s.09.34.16.55a2.3,2.3,0,0,0,.38.83,1.41,1.41,0,0,0,.57.39c1,.41,4.8,1.2,4.8,1.24s-3.93-.09-6.09-.12a66.57,66.57,0,0,1-12.12-1.5c-.13,0-.33-.09-.35-.19s.37-.32.51-.39c2.43-1.07,3.71-1.64,3.69-1.87s-3-.26-6.63-.34c0,0-1.6,0-5.39-.24A3.17,3.17,0,0,1,775.72,459.32Z"/><path class="cls-36" d="M792,460.23a.48.48,0,0,0-.56-.08c-.2.11-.22.35-.26.67s0,.42.06.55a.51.51,0,0,0,.63.13c.11-.07.13-.26.17-.64S792.06,460.33,792,460.23Z"/><path class="cls-36" d="M793.31,460.26a.48.48,0,0,0-.56-.08c-.2.11-.22.35-.26.67s0,.42.06.55a.51.51,0,0,0,.63.13c.11-.07.13-.26.17-.64S793.4,460.36,793.31,460.26Z"/><path class="cls-36" d="M794.67,460.31a.48.48,0,0,0-.56-.08c-.2.11-.22.35-.26.67s0,.42.06.55a.51.51,0,0,0,.63.13c.11-.07.13-.26.17-.64S794.75,460.41,794.67,460.31Z"/><path class="cls-36" d="M795.89,460.39a.48.48,0,0,0-.56-.08c-.2.11-.22.35-.26.67s0,.42.06.55a.51.51,0,0,0,.63.13c.11-.07.13-.26.17-.64S796,460.49,795.89,460.39Z"/><path class="cls-36" d="M803.28,460.75a.48.48,0,0,0-.56-.08c-.2.11-.22.35-.26.67s0,.42.06.55a.51.51,0,0,0,.63.13c.11-.07.13-.26.17-.64S803.37,460.85,803.28,460.75Z"/><path class="cls-36" d="M804.6,460.78a.48.48,0,0,0-.56-.08c-.2.11-.22.35-.26.67s0,.42.06.55a.51.51,0,0,0,.63.13c.11-.07.13-.26.17-.64S804.68,460.88,804.6,460.78Z"/><path class="cls-36" d="M805.91,460.82a.48.48,0,0,0-.56-.08c-.2.11-.22.35-.26.67s0,.42.06.55a.51.51,0,0,0,.63.13c.11-.07.13-.26.17-.64S806,460.92,805.91,460.82Z"/><path class="cls-36" d="M807.2,460.92a.48.48,0,0,0-.56-.08c-.2.11-.22.35-.26.67s0,.42.06.55a.51.51,0,0,0,.63.13c.11-.07.13-.26.17-.64S807.29,461,807.2,460.92Z"/><path class="cls-36" d="M808.52,461a.48.48,0,0,0-.56-.08c-.2.11-.22.35-.26.67s0,.42.06.55a.51.51,0,0,0,.63.13c.11-.07.13-.26.17-.64S808.61,461.05,808.52,461Z"/><path class="cls-36" d="M809.83,461a.48.48,0,0,0-.56-.08c-.2.11-.22.35-.26.67s0,.42.06.55a.51.51,0,0,0,.63.13c.11-.07.13-.26.17-.64S809.92,461.08,809.83,461Z"/><path class="cls-36" d="M811.11,461.08a.48.48,0,0,0-.56-.08c-.2.11-.22.35-.26.67s0,.42.06.55a.51.51,0,0,0,.63.13c.11-.07.13-.26.17-.64S811.2,461.18,811.11,461.08Z"/><path class="cls-36" d="M812.43,461.12a.48.48,0,0,0-.56-.08c-.2.11-.22.35-.26.67s0,.42.06.55a.51.51,0,0,0,.63.13c.11-.07.13-.26.17-.64S812.51,461.21,812.43,461.12Z"/><path class="cls-36" d="M813.75,461.15a.48.48,0,0,0-.56-.08c-.2.11-.22.35-.26.67s0,.42.06.55a.51.51,0,0,0,.63.13c.11-.07.13-.26.17-.64S813.84,461.25,813.75,461.15Z"/><path class="cls-36" d="M816.18,461.26a1,1,0,0,0-1.08-.17c-.38.19-.42.65-.48,1.22s-.08.77.13,1a1,1,0,0,0,1.21.27c.2-.13.24-.48.3-1.18S816.35,461.45,816.18,461.26Z"/><path class="cls-36" d="M817.74,461.31a.48.48,0,0,0-.56-.08c-.2.11-.22.35-.26.67s0,.42.06.55a.51.51,0,0,0,.63.13c.11-.07.13-.26.17-.64S817.82,461.41,817.74,461.31Z"/><path class="cls-36" d="M819.05,461.37a.48.48,0,0,0-.56-.08c-.2.11-.22.35-.26.67s0,.42.06.55a.51.51,0,0,0,.63.13c.11-.07.13-.26.17-.64S819.14,461.46,819.05,461.37Z"/><path class="cls-36" d="M820.37,461.46a.48.48,0,0,0-.56-.08c-.2.11-.22.35-.26.67s0,.42.06.55a.51.51,0,0,0,.63.13c.11-.07.13-.26.17-.64S820.45,461.56,820.37,461.46Z"/><path class="cls-36" d="M821.69,461.51a.48.48,0,0,0-.56-.08c-.2.11-.22.35-.26.67s0,.42.06.55a.51.51,0,0,0,.63.13c.11-.07.13-.26.17-.64S821.78,461.61,821.69,461.51Z"/><path class="cls-36" d="M823,461.53a.48.48,0,0,0-.56-.08c-.2.11-.22.35-.26.67s0,.42.06.55a.51.51,0,0,0,.63.13c.11-.07.13-.26.17-.64S823.1,461.62,823,461.53Z"/><path class="cls-36" d="M824.35,461.58a.48.48,0,0,0-.56-.08c-.2.11-.22.35-.26.67s0,.42.06.55a.51.51,0,0,0,.63.13c.11-.07.13-.26.17-.64S824.43,461.68,824.35,461.58Z"/><path class="cls-36" d="M825.64,461.67a.48.48,0,0,0-.56-.08c-.2.11-.22.35-.26.67s0,.42.06.55a.51.51,0,0,0,.63.13c.11-.07.13-.26.17-.64S825.72,461.77,825.64,461.67Z"/><path class="cls-36" d="M826.94,461.71a.48.48,0,0,0-.56-.08c-.2.11-.22.35-.26.67s0,.42.06.55a.51.51,0,0,0,.63.13c.11-.07.13-.26.17-.64S827,461.81,826.94,461.71Z"/><path class="cls-36" d="M828.23,461.8a.48.48,0,0,0-.56-.08c-.2.11-.22.35-.26.67s0,.42.06.55a.51.51,0,0,0,.63.13c.11-.07.13-.26.17-.64S828.32,461.9,828.23,461.8Z"/><path class="cls-36" d="M830.53,461.81a1,1,0,0,0-1.08-.17c-.38.19-.42.65-.48,1.22s-.08.77.13,1a1,1,0,0,0,1.21.27c.2-.13.24-.48.3-1.18S830.7,462,830.53,461.81Z"/><path class="cls-36" d="M837,461.67a2.79,2.79,0,0,0-1.32-.17h0a1.83,1.83,0,0,0,.31,1.25c.16.16.41.19.9.24s1,.11,1.14-.1-.3-.74-.62-1A1.91,1.91,0,0,0,837,461.67Z"/><path class="cls-36" d="M837.85,461.71s0,.09.22.46a2.75,2.75,0,0,0,.59.71c.18.13.33.15,1.39.19s1.13,0,1.15,0-.34-.35-1-.77a4.81,4.81,0,0,0-1-.52C838.64,461.59,837.94,461.5,837.85,461.71Z"/><rect class="cls-37" x="717.36" y="414.35" width="31.34" height="79.25" rx="12" ry="12" transform="translate(189.05 -214.99) rotate(19.11)"/><rect class="cls-37" x="748.19" y="425.03" width="31.34" height="79.25" rx="12" ry="12" transform="translate(194.24 -224.49) rotate(19.11)"/><rect class="cls-37" x="779.01" y="435.71" width="31.34" height="79.25" rx="12" ry="12" transform="translate(199.44 -234) rotate(19.11)"/><rect class="cls-37" x="809.84" y="446.39" width="31.34" height="79.25" rx="12" ry="12" transform="translate(204.64 -243.5) rotate(19.11)"/><path class="cls-6" d="M765.85,516.89c-1.1.63-3.37,12.63-3.37,12.63L761,532.8s6.9,3.58,8.19,1.83-5.56-3.51-4.43-4.94,4.08-10.57,4.08-10.57,3.52-8.5,5.16-11.4,2.32-9.62,2.57-10.21l2.61-6.07s.11,5.88-.71,6.29-1.73,8.92-1.73,8.92-4.33,8.37-.63,7,2.2-6.72,2.2-6.72c1.91-3.75,1.54-7.34,3-13,1.86-7.26-.18-8.2-.18-8.2a22.39,22.39,0,0,0-8.8-3c-3.41-.4-3.52.43-7.58.07-4.76-.43-9.12-2-10-.49-.24.4-.23,1-.85,1.56s-1.56.55-1.58.69,1.84.73,10.5,2.09l8.32,1L769.36,495l-3.73,8L762.15,514c-1.13,1.1-3.43,13.75-4.37,13.93-1.89.33-6.6-.53-6.15,1.34s7.33,3,7.41,2.87a13,13,0,0,0,1.07-3.08c.35-1.7,4.89-11.38,4.81-11.92s4.37-10.9,4.37-10.9S766.95,516.26,765.85,516.89Z"/><path class="cls-11" d="M803.85,471.69a9.61,9.61,0,0,0-3.3,0,8.45,8.45,0,0,0-4.6,2.84c-1.54,1.73-1.15,2.43-3.22,7.53-1.32,3.32-2.07,4.44-2.43,7a7.46,7.46,0,0,0,.38,4.15,7.65,7.65,0,0,0,1.77,2.43c.74.72,4.24,3.91,8.21,3a8.59,8.59,0,0,0,2.6-1.12,9,9,0,0,0,2.37-2.21c1.42-1.83,1.61-3.31,2.78-6.89,1.52-4.57,2.1-4.85,2.31-7.25a9.06,9.06,0,0,0-.55-4.82,8.39,8.39,0,0,0-3.85-3.95A9.85,9.85,0,0,0,803.85,471.69Z"/><path class="cls-24" d="M802,477.62a7.88,7.88,0,0,0-2.64-.06,6.44,6.44,0,0,0-3.64,2.16c-1.22,1.31-.91,1.86-2.49,5.81-1,2.56-1.6,3.42-1.87,5.41a5.65,5.65,0,0,0,.34,3.21,5.92,5.92,0,0,0,1.45,1.91c.6.56,3.43,3.08,6.57,2.43a6.4,6.4,0,0,0,2.07-.84,7.25,7.25,0,0,0,1.88-1.68c1.12-1.41,1.26-2.55,2.17-5.3,1.16-3.53,1.62-3.74,1.78-5.59a6.92,6.92,0,0,0-.48-3.74,6.81,6.81,0,0,0-3.12-3.1A8.51,8.51,0,0,0,802,477.62Z"/><path class="cls-22" d="M798.34,475.11a5.13,5.13,0,0,0-.67.47c-1.14.94-1.51,3.21-2.3,5.74-.6,2-.76,1.87-.8,2.64a6.63,6.63,0,0,0,1.33,4.28,6.3,6.3,0,0,0,6.16,2.24,6.64,6.64,0,0,0,3.69-2.54,8.17,8.17,0,0,0,.74-1.56c2.11-5.15,2.14-5.91,2.06-6.53a6,6,0,0,0-1.23-2.84c-2.27-3-6.34-2.79-7.37-2.55A6.58,6.58,0,0,0,798.34,475.11Z"/><path class="cls-7" d="M797.55,479.67a1.25,1.25,0,0,1,.74-.36,1.63,1.63,0,0,1,1.43.5,1.25,1.25,0,0,1,.36.74s-.19-.33-.6-.6a2.16,2.16,0,0,0-1.08-.37A4.9,4.9,0,0,0,797.55,479.67Z"/><path class="cls-7" d="M803.84,481.85a1.25,1.25,0,0,1,.74-.36,1.63,1.63,0,0,1,1.43.5,1.25,1.25,0,0,1,.36.74s-.19-.33-.6-.6a2.16,2.16,0,0,0-1.08-.37A4,4,0,0,0,803.84,481.85Z"/><circle class="cls-7" cx="798.61" cy="481.55" r="0.66" transform="translate(82.12 1078.47) rotate(-70.89)"/><circle class="cls-7" cx="804.35" cy="483.54" r="0.66" transform="translate(84.11 1085.23) rotate(-70.89)"/><path class="cls-8" d="M797.5,483.88s.15.76.24,1.09a4.13,4.13,0,0,0,.82,1.69,3.16,3.16,0,0,0,2.7.94,3.41,3.41,0,0,0,1.39-.53,7.85,7.85,0,0,0,1.16-1h0l-6.31-2.19Z"/><path class="cls-9" d="M798.08,485.68c.07-.13.23-.16.47-.23a2.26,2.26,0,0,1,1.2,0,4,4,0,0,1,2.32,1.42c.06.09.12.15.12.24,0,.38-1.42.74-2.53.33S797.9,486.06,798.08,485.68Z"/><path class="cls-10" d="M798,484.66l4.86,1.68.19-.55-4.86-1.68Z"/><path class="cls-22" d="M797.68,489.76c-.21.1-.23.4-.3,1.17a26,26,0,0,0-.24,2.71c0,1.19.12,1.25.18,1.27s.27-.21.73-1,.89-1.49,1.38-2.2.72-.94.6-1.15-.46-.14-1.25-.43S797.91,489.66,797.68,489.76Z"/><path class="cls-38" d="M797.09,473.47c-.27.72.61,1.66,1.29,2.36a18.39,18.39,0,0,0,4.53,3.78c2.28,1.27,6.7,3.2,7.66,2a1.26,1.26,0,0,0,.19-.55,8.18,8.18,0,0,0-.61-4.64,8.33,8.33,0,0,0-3.21-3.53,9.78,9.78,0,0,0-7.08-1,7.21,7.21,0,0,0-2.19,1.06C797.26,473.18,797.14,473.31,797.09,473.47Z"/><path class="cls-22" d="M799.74,492.27l1.19,1.31c3,1.51,1.58,8.56,1.58,8.56s3.66-4.17,3.53-5.18,1.37-2,1.37-2,.68-1.76.86-1.48-.2,1.77-.2,1.77,1.18-1.81,1.52-1.27-1.08,1.84-1.08,1.84c.56,2.19-1.39,2.06-1.39,2.06-.87,3.89-5.43,9.13-6.22,9s-.57-6.54-.57-6.54-4.8,4.74-3.59,6,2.43,7.12,2.43,7.12l-12.61,26.46-1.79,5.17-2.53-.88.54-1.94,1.5-2.93,4.89-14.12,1.95-10.62c-.23.27-7.37,7-7.56,8.9-.32,3.38-9.52,12-9.37,12.48s-1,3.79-1,3.79l-7-1.08.87-2.31,3,.21,1.81-1.43,16.28-27.86a6.36,6.36,0,0,1-1.52.7c-.62.14-1.53-.77-1.53-.77.05-.16,1,.23,1.12-.14.29-1.22,2-1.2,1.48-1.86s-2.67-8.89-2.67-8.89l8.22-5,3.37,0Z"/><path class="cls-31" d="M792.3,496.83c-.17-.24-1.33,0-3.65.6h0v0c.57,4.7.72,4.87.82,4.88.32,0,.39-1.32,1.54-3.28C791.8,497.69,792.51,497.12,792.3,496.83Z"/><path class="cls-39" d="M742,450.53a9.61,9.61,0,0,1,2.62,2,8.45,8.45,0,0,1,1.86,5.08c.14,2.31-.6,2.62-2.13,7.91-1,3.42-1.13,4.77-2.43,7a7.46,7.46,0,0,1-2.87,3,7.65,7.65,0,0,1-2.89.82c-1,.11-5.75.44-8.33-2.69a8.59,8.59,0,0,1-1.35-2.49A9,9,0,0,1,726,468c0-2.32.78-3.59,2.08-7.14,1.63-4.52,1.35-5.1,2.67-7.13a9.06,9.06,0,0,1,3.41-3.45,8.39,8.39,0,0,1,5.47-.72A9.92,9.92,0,0,1,742,450.53Z"/><path class="cls-40" d="M739.77,456.31a7.88,7.88,0,0,1,2.11,1.59,6.44,6.44,0,0,1,1.53,4c.15,1.79-.44,2-1.63,6.1-.77,2.65-.86,3.67-1.87,5.41a5.65,5.65,0,0,1-2.25,2.31,5.92,5.92,0,0,1-2.32.6c-.81.07-4.6.29-6.67-2.16a6.4,6.4,0,0,1-1.1-1.94,7.25,7.25,0,0,1-.44-2.48c0-1.8.59-2.78,1.58-5.51,1.27-3.49,1-3.94,2.06-5.5a6.92,6.92,0,0,1,2.69-2.64,6.81,6.81,0,0,1,4.37-.51A7.63,7.63,0,0,1,739.77,456.31Z"/><path class="cls-22" d="M734.13,453.13a5.13,5.13,0,0,0-.67.47c-1.14.94-1.51,3.21-2.3,5.74-.6,2-.76,1.87-.8,2.64a6.63,6.63,0,0,0,1.33,4.28,6.3,6.3,0,0,0,6.16,2.24,6.64,6.64,0,0,0,3.69-2.54,8.17,8.17,0,0,0,.74-1.56c2.11-5.15,2.14-5.91,2.06-6.53a6,6,0,0,0-1.23-2.84c-2.27-3-6.34-2.79-7.37-2.55A6.58,6.58,0,0,0,734.13,453.13Z"/><path class="cls-7" d="M733.36,457.69a1.25,1.25,0,0,1,.74-.36,1.63,1.63,0,0,1,1.43.5,1.25,1.25,0,0,1,.36.74s-.19-.33-.6-.6a2.16,2.16,0,0,0-1.08-.37A4,4,0,0,0,733.36,457.69Z"/><path class="cls-7" d="M739.65,459.87a1.25,1.25,0,0,1,.74-.36,1.63,1.63,0,0,1,1.43.5,1.25,1.25,0,0,1,.36.74s-.19-.33-.6-.6a2.16,2.16,0,0,0-1.08-.37A4,4,0,0,0,739.65,459.87Z"/><circle class="cls-7" cx="734.42" cy="459.57" r="0.66" transform="translate(59.72 1003.04) rotate(-70.89)"/><circle class="cls-7" cx="740.16" cy="461.56" r="0.66" transform="translate(61.7 1009.8) rotate(-70.89)"/><path class="cls-8" d="M733.31,461.89s.15.76.24,1.09a4.13,4.13,0,0,0,.82,1.69,3.16,3.16,0,0,0,2.7.94,3.41,3.41,0,0,0,1.39-.53,7.85,7.85,0,0,0,1.16-1h0l-6.31-2.19Z"/><path class="cls-9" d="M733.89,463.71c.07-.13.23-.16.47-.23a2.26,2.26,0,0,1,1.2,0,4,4,0,0,1,2.32,1.42c.06.09.12.15.12.24,0,.38-1.42.74-2.53.33S733.71,464.09,733.89,463.71Z"/><path class="cls-10" d="M733.85,462.69l4.86,1.68.19-.55L734,462.14Z"/><path class="cls-22" d="M733.49,467.76c-.21.1-.23.4-.3,1.17a26,26,0,0,0-.24,2.71c0,1.19.12,1.25.18,1.27s.27-.21.73-1,.89-1.49,1.38-2.2.72-.94.6-1.15-.46-.14-1.25-.43S733.7,467.68,733.49,467.76Z"/><path class="cls-41" d="M746.22,456.11c-.23.73-1.51.93-2.47,1.05a18.39,18.39,0,0,1-5.9.17c-2.58-.41-7.25-1.63-7.23-3.21a1.26,1.26,0,0,1,.19-.55,8.18,8.18,0,0,1,3.35-3.27,8.33,8.33,0,0,1,4.7-.78,9.78,9.78,0,0,1,6.21,3.55,7.21,7.21,0,0,1,1.06,2.19C746.27,455.78,746.27,456,746.22,456.11Z"/><polyline class="cls-28" points="733.48 452.99 734.2 453.24 744.8 456.92"/><path class="cls-5" d="M734.7,452.71h0l4.13,1.43h0l-.12.35a2.51,2.51,0,0,1-1,1.06,2.56,2.56,0,0,1-2,.51,2.05,2.05,0,0,1-1.55-1.35C734.1,454.42,734.2,454.14,734.7,452.71Z"/><path class="cls-5" d="M744.22,456l-4.13-1.43-.12.35a2.51,2.51,0,0,0,.11,1.44,2.56,2.56,0,0,0,1.25,1.64,2.05,2.05,0,0,0,2.05-.1C743.62,457.71,743.7,457.43,744.22,456Z"/><path class="cls-22" d="M735.55,470.13l2.62,2.12,3.38,9s-6.8,5.13-7.6,5.33.54,1.24,0,2.37c-.16.34.85.65.8.8,0,0-1.28.15-1.68-.34a6.36,6.36,0,0,1-.76-1.49l-4.45,32,.54,2.25,2.5,1.7-.75,2.35L724,522.72s1.15-3.25,1.59-3.57-1.48-12.76.36-15.61c1-1.63-.42-11.31-.43-11.67l-5,9.55-4.89,14.12-.63,3.22-.78,1.86-2.53-.88,1.79-5.17L719.92,486s4.58-3.85,6.31-4.09.89-6.93.89-6.93-3.79,5.18-4.49,4.79-1-7.34.69-10.93c0,0-1.61-1.11.18-2.48,0,0-.31-1.91.29-2.11s.4,1.94.4,1.94.62-1.41.94-1.52-.24,1.7-.24,1.7.57,1.71-.16,2.42-.43,6.26-.43,6.26,3.22-6.43,6.53-5.74l1.75-.29Z"/><path class="cls-31" d="M735.81,477c.29-.09,1,.85,2.5,2.73l0,0,0,0c-3.35,3.34-3.58,3.38-3.67,3.33-.27-.17.51-1.28.82-3.53C735.68,478,735.47,477.13,735.81,477Z"/><path class="cls-22" d="M753.62,458.48a5.13,5.13,0,0,0-.67.47c-1.14.94-1.51,3.21-2.3,5.74-.6,2-.76,1.87-.8,2.64a6.63,6.63,0,0,0,1.33,4.28,6.3,6.3,0,0,0,6.16,2.24,6.64,6.64,0,0,0,3.69-2.54,8.17,8.17,0,0,0,.74-1.56c2.11-5.15,2.14-5.91,2.06-6.53a6,6,0,0,0-1.23-2.84c-2.27-3-6.34-2.79-7.37-2.55A6.58,6.58,0,0,0,753.62,458.48Z"/><path class="cls-7" d="M752.85,463a1.25,1.25,0,0,1,.74-.36,1.63,1.63,0,0,1,1.43.5,1.25,1.25,0,0,1,.36.74s-.19-.33-.6-.6a2.16,2.16,0,0,0-1.08-.37A4,4,0,0,0,752.85,463Z"/><circle class="cls-7" cx="753.91" cy="464.92" r="0.66" transform="translate(67.77 1025.05) rotate(-70.89)"/><circle class="cls-7" cx="759.65" cy="466.91" r="0.66" transform="translate(69.75 1031.81) rotate(-70.89)"/><path class="cls-8" d="M752.8,467.26s.15.76.24,1.09a4.13,4.13,0,0,0,.82,1.69,3.16,3.16,0,0,0,2.7.94,3.41,3.41,0,0,0,1.39-.53,7.84,7.84,0,0,0,1.16-1h0l-6.31-2.19Z"/><path class="cls-9" d="M753.38,469.06c.07-.13.23-.16.47-.23a2.26,2.26,0,0,1,1.2,0,4,4,0,0,1,2.32,1.42c.06.09.12.15.12.24,0,.38-1.42.74-2.53.33S753.19,469.43,753.38,469.06Z"/><path class="cls-10" d="M753.34,468l4.86,1.68.19-.55-4.86-1.68Z"/><path class="cls-22" d="M753,473.13c-.21.1-.23.4-.3,1.17a26.05,26.05,0,0,0-.24,2.71c0,1.19.12,1.25.18,1.27s.27-.21.73-1,.89-1.49,1.38-2.2.72-.94.6-1.15-.46-.14-1.25-.43S753.19,473,753,473.13Z"/><path class="cls-11" d="M764.1,468.34h0a22.42,22.42,0,0,0,.94-3.6,8.69,8.69,0,0,0-.19-4.08,7.66,7.66,0,0,0-2.78-3.88,6.14,6.14,0,0,0-3-1.24,6.63,6.63,0,0,0-4,1,4.25,4.25,0,0,0-2,1.72,3.9,3.9,0,0,0-.14,2.76A7,7,0,0,0,755.6,465c.7.51.65.29,4.42,1.73Z"/><path class="cls-24" d="M750.11,466.33s.09-.52.29-1.48c.33-1.64.48-2.47.48-2.47.08-.43.19-.88.26-1.31a5.68,5.68,0,0,1,.39-1.69,1.83,1.83,0,0,1,.43-.66c.42-.4,1.06-.53,1.15-.41s0,.12-.06.18a6.86,6.86,0,0,0-.5,1.43c-.39,1.14-1,2.34-1.73,4.42C750.56,465.05,750.11,466.33,750.11,466.33Z"/><path class="cls-22" d="M745.54,498s-2.92,10.9-3.31,11.27-2.82,10.78-3.59,12.34a13,13,0,0,0-1.07,3.08c0,.13,6.09,3.51,7.6,2.33s-2.72-3.42-4-4.85c-.63-.72,5.39-12.09,5.19-13.65l4-10.74,2-8.58,3.18-6.89-.8,7.25s-1.88,7.4-2,8.8C752.75,499.38,751,502,751,502s0,3.41,1.2,3.44,2.66-5,2.66-5l-.38-2s2.8-7.94,2.15-8.6,4-11.15,1-12.28-8.8-3-8.8-3-2.19-.52-5.22,6.33c-2.35,5.33-4.87,7.92-5.69,12,0,0-4.49,3.27-2.43,6.64s3.84-5.89,3.84-5.89,4.55-7.24,4.16-8.08,3.34-5.38,3.34-5.38l-1.71,6.39c-.17.62-3.79,6.32-4.3,9.61s-3,12.15-3,12.15-3.34,9-3.33,10.82-6.47-1-6.54,1.14,7.56,3.63,7.56,3.63l.89-3.46s5.64-10.84,5.17-12S745.54,498,745.54,498Z"/><path class="cls-6" d="M777.93,466.76a5.13,5.13,0,0,0-.67.47c-1.14.94-1.51,3.21-2.3,5.74-.6,2-.76,1.87-.8,2.64a6.63,6.63,0,0,0,1.33,4.28,6.3,6.3,0,0,0,6.16,2.24,6.64,6.64,0,0,0,3.69-2.54,8.17,8.17,0,0,0,.74-1.56c2.11-5.15,2.14-5.91,2.06-6.53a6,6,0,0,0-1.23-2.84c-2.27-3-6.34-2.79-7.37-2.55A6.58,6.58,0,0,0,777.93,466.76Z"/><path class="cls-7" d="M783.45,473.5a1.25,1.25,0,0,1,.74-.36,1.63,1.63,0,0,1,1.43.5,1.25,1.25,0,0,1,.36.74s-.19-.33-.6-.6a2.16,2.16,0,0,0-1.08-.37A4,4,0,0,0,783.45,473.5Z"/><path class="cls-8" d="M777.11,475.54s.15.76.24,1.09a4.13,4.13,0,0,0,.82,1.69,3.16,3.16,0,0,0,2.7.94,3.41,3.41,0,0,0,1.39-.53,7.85,7.85,0,0,0,1.16-1h0l-6.31-2.19Z"/><path class="cls-9" d="M777.69,477.34c.07-.13.23-.16.47-.23a2.26,2.26,0,0,1,1.2,0,4,4,0,0,1,2.32,1.42c.06.09.12.15.12.24,0,.38-1.42.74-2.53.33S777.49,477.71,777.69,477.34Z"/><path class="cls-10" d="M777.65,476.32l4.86,1.68.19-.55-4.86-1.68Z"/><path class="cls-6" d="M777.29,481.41c-.21.1-.23.4-.3,1.17a26,26,0,0,0-.24,2.71c0,1.19.12,1.25.18,1.27s.27-.21.73-1,.89-1.49,1.38-2.2.72-.94.6-1.15-.46-.14-1.25-.43S777.5,481.31,777.29,481.41Z"/><path class="cls-26" d="M773.48,472.06h0a22.42,22.42,0,0,1,1.49-3.41,8.69,8.69,0,0,1,2.67-3.09,7.66,7.66,0,0,1,4.59-1.33,6.14,6.14,0,0,1,3.12.88,6.63,6.63,0,0,1,2.49,3.27,4.25,4.25,0,0,1,.51,2.59,3.9,3.9,0,0,1-1.59,2.26,7,7,0,0,1-4.52,1.46c-.87,0-.69-.17-4.55-1.38Z"/><path class="cls-27" d="M785.72,479.11s.65-1.24,1.86-3.59c.35-.69.64-1,1-1.68a4.86,4.86,0,0,0,.37-1.08A2.09,2.09,0,0,0,789,472c-.08-.58-.51-1.07-.65-1s-.06.11-.06.18a6.86,6.86,0,0,1-.5,1.43c-.39,1.14-.67,2.44-1.38,4.55Z"/><polyline class="cls-28" points="775.4 472.03 776.13 472.28 786.73 475.95"/><path class="cls-5" d="M776.62,471.75h0l4.13,1.43h0l-.12.35a2.51,2.51,0,0,1-1,1.06,2.56,2.56,0,0,1-2,.51,2.05,2.05,0,0,1-1.55-1.35C776,473.42,776.12,473.18,776.62,471.75Z"/><path class="cls-5" d="M786.12,475,782,473.61l-.12.35a2.51,2.51,0,0,0,.11,1.44,2.56,2.56,0,0,0,1.25,1.64,2.05,2.05,0,0,0,2.05-.1C785.54,476.72,785.62,476.47,786.12,475Z"/><path d="M721.24,485.21c-.11-.12-.76.18-1.18.62a2.65,2.65,0,0,0-.65,1.41c-.39,2.37-1,4.69-1.62,7-.27,1.05-.67,2.93-1.48,6.69-1.8,8.32-1.54,7.93-2,9-1,2.32-1.95,3.66-1.3,4.69a2.65,2.65,0,0,0,2.85.8c1.53-.48,1.24-2.74,2.6-7.62a58.29,58.29,0,0,1,2.25-6.35c1.21-2.85,1.74-2.85,3.22-6.21.62-1.4,1.21-2.94,1.5-2.86s.13.55.13,1.16c0,1.37.16,1,.41,3.71.07.75.11,1.84.18,4a8.33,8.33,0,0,1,0,1.05,3.61,3.61,0,0,1-.16.87,7.25,7.25,0,0,1-.37.73,3.77,3.77,0,0,0-.27,1,33.11,33.11,0,0,0-.42,5.3c0,.88,0,1.82.14,3.08.25,2.86.61,3,.42,4.41-.07.49-.17.85,0,1.2a2,2,0,0,0,2.72.23c.28-.32.2-.66.23-1.66s.2-1.72.29-2.59c.2-1.9.42-2.72.78-5.13.31-2,.2-1.76.61-4.91.35-2.65.36-2.36,1-6.77.1-.7.3-2.21.71-5.24.08-.62.12-.92.12-1-.18-3.46-11-5-10.82-6.27C721.13,485.47,721.31,485.28,721.24,485.21Z"/><path class="cls-42" d="M798.66,512c.16,0,.48.61.54,1.22a2.65,2.65,0,0,1-.36,1.51c-1.16,2.1-2.09,4.32-3.07,6.51-.44,1-1.29,2.72-3,6.17-3.73,7.65-3.69,7.18-4,8.31-.69,2.41-.74,4.08-1.88,4.49a2.65,2.65,0,0,1-2.73-1.13c-.91-1.33.72-2.92,2.68-7.6a58.29,58.29,0,0,0,2.17-6.38c.82-3,.4-3.32,1.31-6.86.38-1.49.86-3.06.59-3.18s-.44.35-.82.83c-.86,1.07-.74.68-2.61,2.66-.52.55-1.22,1.38-2.63,3a8.33,8.33,0,0,0-.62.85,3.61,3.61,0,0,0-.41.78,7.25,7.25,0,0,0-.16.8,3.77,3.77,0,0,1-.4,1,33.11,33.11,0,0,1-2.95,4.42c-.55.68-1.14,1.41-2,2.34-2,2.09-2.35,2-3.06,3.2-.25.43-.4.77-.78.91a2,2,0,0,1-2.28-1.51c0-.42.26-.64.85-1.44s.9-1.48,1.37-2.21c1-1.62,1.36-2.4,2.56-4.51,1-1.77.93-1.51,2.56-4.23,1.37-2.3,1.18-2.08,3.42-5.93l2.69-4.56c.32-.53.48-.8.49-.82,2.29-2.61,11.75,2.91,12.38,1.77C798.58,512.32,798.56,512.06,798.66,512Z"/><path class="cls-3" d="M765.35,503.21c-.26.25-.17.3-.8,2.47-1.17,4-1.91,5.32-2.15,6.75a4.48,4.48,0,0,1-.36,1.19,4.42,4.42,0,0,1-.61,1c-.78,1-1.14,3.31-1.92,6.49-.57,2.32-.86,3.49-1.38,4.21s-.88,1-.77,1.43c.26,1.12,3.42,1.54,3.42,1.54s.79-2.33,1.67-4.5c1.1-2.73,1.61-3.38,2.51-6.07.18-.53.15-.47.37-1.14a45,45,0,0,1,2.86-7.13,34,34,0,0,1-1.17,3.63c-1.65,4.75-1.94,4.88-3,8.1-.64,2-1.47,4.91-1.69,5.67l-.52,1.82s3,2,4,1.28c.32-.24.18-.56.53-2.17,0,0,.08-.38.51-1.88a69.64,69.64,0,0,1,4.42-11.56c1.08-2.09,1.89-4.31,3.05-6.35.43-.75.67-1.13.61-1.68C774.67,503.56,767.52,501.09,765.35,503.21Z"/><path class="cls-43" d="M750.39,498.48c0,.36-.05.34-.9,2.43-1.57,3.89-1.79,5.36-2.49,6.63a4.48,4.48,0,0,0-.46,1.16,4.42,4.42,0,0,0-.12,1.14c0,1.23-1.15,3.31-2.51,6.29-1,2.17-1.49,3.28-1.52,4.16s.08,1.31-.28,1.6c-.9.72-3.64-.9-3.64-.9s.82-2.32,1.47-4.56c.82-2.83.83-3.65,1.78-6.32.19-.53.17-.46.41-1.12a45,45,0,0,0,2.17-7.37,34,34,0,0,0-1.32,3.57c-1.64,4.76-1.5,5-2.68,8.21-.74,2-1.88,4.77-2.18,5.5l-.72,1.75s-3.61-.26-3.93-1.47c-.1-.39.21-.55.93-2,0,0,.17-.35.76-1.79a69.64,69.64,0,0,0,3.68-11.81c.44-2.31,1.18-4.55,1.53-6.88.13-.85.18-1.3.56-1.7C742.84,493,750,495.48,750.39,498.48Z"/><path class="cls-44" d="M775,484.18a2.86,2.86,0,0,0,1.13,1.95,2.3,2.3,0,0,0,2.71-.25,5.54,5.54,0,0,0,.58-1,5.91,5.91,0,0,1,2.33,1.36,3.77,3.77,0,0,1,.81,2c.2,1.13-.06,1.53-.21,3.45-.19,2.37.07,2.77-.39,3.26-.94,1-3.24.71-3.46.07-.08-.23.16-.38.43-1a3.26,3.26,0,0,0,.29-2.25c-.23-.06-1.12,2.38-1.68,4.38A56.15,56.15,0,0,0,776.1,503c-.43,2.83-.34,3.12-.75,3.55-2.24,2.31-10.33-.58-10.51-3.35-.05-.82.59-1,1.9-3.09a34.13,34.13,0,0,0,2.51-6c1.8-4.94,1.71-5.63,1.34-6-.62-.6-2.35-.57-3.45-.56-.68,0-.87.07-1.11-.09-1.15-.81,0-4.54,1-4.94l.15,0a13.51,13.51,0,0,1,1.54.12c1.47.09,1.47-.08,2.65,0a18,18,0,0,1,3.44.59S774.92,483.94,775,484.18Z"/><path class="cls-44" d="M751,476a3.11,3.11,0,0,0,1.13,1.95,2.3,2.3,0,0,0,2.71-.25,5.54,5.54,0,0,0,.58-1h0a16.49,16.49,0,0,1,2.25.81,3,3,0,0,1,.74.39c.5.49.44,1.24.38,2.31s-.09,1.77-.53,5.91a1.19,1.19,0,0,1-.13.44,1.27,1.27,0,0,1-.17.25c-.94,1-3.24.71-3.46.07-.08-.23.16-.38.43-1a3.26,3.26,0,0,0,.29-2.25c-.23-.06-1.12,2.38-1.68,4.38a56.15,56.15,0,0,0-1.37,6.77c-.43,2.83-.34,3.12-.75,3.55-2.24,2.31-10.33-.58-10.51-3.35a2.21,2.21,0,0,1,0-.34,5.27,5.27,0,0,1,1.17-2.68,27.49,27.49,0,0,0,3-6.14c1-2.39,1.69-5.08,1.69-5.08h0a8.39,8.39,0,0,0-1.65,2.18c-.34.68-.31.93-.54,1-.55.16-1.72-1-1.86-2.21-.11-1,.59-1.09,1.67-3.61.06-.14.52-1,1.44-2.77a1.7,1.7,0,0,1,1-.93,1.75,1.75,0,0,1,.69,0c1.44.17,1.26.13,1.44.16a12.6,12.6,0,0,1,2,.55h0A5.12,5.12,0,0,0,751,476Z"/><path class="cls-44" d="M795.88,492.17c.79,1.33.69,1.67,1.13,1.95a2.3,2.3,0,0,0,2.71-.25,5.54,5.54,0,0,0,.58-1,5.91,5.91,0,0,1,2.33,1.36,3.77,3.77,0,0,1,.81,2c.2,1.13-.06,1.53-.21,3.45s0,2.58-.22,3a1.08,1.08,0,0,1-.17.25c-.72.88-2.16,1.24-2.62.77-.08-.08-.18-.23,0-1.7.13-1.24.25-1.66.17-1.69s-.68,1.43-1.95,3.82a5.09,5.09,0,0,0-.88,2.11,8.31,8.31,0,0,0,.45,2.51c.19.74.38,1.32.42,1.44.61,1.92.94,2.19.83,2.67-.25,1.07-2.29,1.46-2.94,1.58-5.36,1-10.51-2.11-10.51-3.35a3.09,3.09,0,0,1,0-.34c.09-.67.34-.84.68-1.63s.26-1,.59-1.2c.1-.07.12-.06.5-.28s.64-.42.69-.38-.71,1.15-.61,1.25a3.32,3.32,0,0,0,2.09-2.25,6.38,6.38,0,0,0-.11-2.64,3,3,0,0,1-.16-1.29,3.45,3.45,0,0,1,.47-1.16c.91-1.8.82-1.76,1.14-2.24l.74-1.12c.46-.7.58-.9.51-1s-.39-.06-1.18.22c-1.64.58-1.78.82-2.2.8a2.6,2.6,0,0,1-2-2.67c.15-1,1.14-.83,4.38-3.14a3.91,3.91,0,0,1,1.92-.91,7.25,7.25,0,0,1,2.09.2h0C795.47,491.52,795.66,491.81,795.88,492.17Z"/><path class="cls-44" d="M735.88,471.16c-1.45.55-1.58.89-2.09.83a2.3,2.3,0,0,1-2-1.87A5.54,5.54,0,0,1,732,469a5.91,5.91,0,0,0-2.67-.37,3.77,3.77,0,0,0-1.89,1.1c-.86.76-.9,1.24-2,2.84s-1.59,2-1.69,2.51a1.08,1.08,0,0,0,0,.3c0,1.14.92,2.31,1.58,2.23.11,0,.28-.07,1.08-1.32.67-1,.83-1.46.91-1.43s-.36,1.54-.84,4.21a5.09,5.09,0,0,1-.61,2.2,8.31,8.31,0,0,1-1.91,1.69c-.61.46-1.11.8-1.22.87-1.67,1.13-2.09,1.14-2.3,1.58-.47,1,.9,2.57,1.33,3.06,3.58,4.12,9.56,4.84,10.33,3.88a3.09,3.09,0,0,0,.19-.28,2.18,2.18,0,0,0,.18-.37c.21-.56.14-.78.3-1.34s.37-.63.32-.92-.27-.33-.5-.81-.18-.68-.26-.68-.2,1.19-.31,1.19a3.53,3.53,0,0,1,0-3,6.17,6.17,0,0,1,1.72-2,3,3,0,0,0,.92-.91,3.45,3.45,0,0,0,.35-1.2c.4-2,.44-1.89.49-2.47,0-.22,0-.59.11-1.34s.1-1.07.23-1.1.34.19.79.9c.93,1.47.89,1.75,1.23,2A2.6,2.6,0,0,0,741,479c.5-.88-.38-1.35-1.5-5.17a3.91,3.91,0,0,0-.94-1.9,7.25,7.25,0,0,0-1.77-1.14C736.59,470.9,736.27,471,735.88,471.16Z"/><path class="cls-10" d="M730.21,478.65c-.14-.27.28-.53.24-1a1,1,0,0,0-.58-.78,1.1,1.1,0,0,0-1.27.53,1,1,0,0,0-.07,1c.27.45.91.31,1,.68.07.21-.12.29-.22.76a1.48,1.48,0,0,0,.09,1,1.22,1.22,0,0,0,1,.58,1.29,1.29,0,0,0,1.26-.84,1.24,1.24,0,0,0-.09-1,1.9,1.9,0,0,0-.88-.68C730.4,478.76,730.28,478.78,730.21,478.65Z"/><path class="cls-10" d="M731.17,476.21c-.14.42.36.68,1,1.85s.59,1.47,1,1.56,1.07-.41,1.32-.87a1.4,1.4,0,0,0,.17-.72,1.11,1.11,0,0,0-.27-.74,1.13,1.13,0,0,0-.88-.32c-.39,0-.56.28-.68.19s.09-.44,0-.87a1,1,0,0,0-.53-.58A1,1,0,0,0,731.17,476.21Z"/><path class="cls-44" d="M729.69,477.47a.37.37,0,0,0-.3,0,.43.43,0,0,0-.21.44s0,.29.25.35a.39.39,0,0,0,.41-.2A.44.44,0,0,0,729.69,477.47Z"/><path class="cls-44" d="M730.32,479.62a.53.53,0,0,0-.2.36.65.65,0,0,0,.08.58.56.56,0,0,0,.94-.57A.63.63,0,0,0,730.32,479.62Z"/><path class="cls-44" d="M731.74,476.35c0,.06.08.09.25.26s.24.38.31.37.12-.25.09-.43a.41.41,0,0,0-.14-.28C732.06,476.15,731.76,476.25,731.74,476.35Z"/><path class="cls-44" d="M732.81,477.86c0,.13.15.17.35.5s.18.61.33.65.51-.28.61-.61a.62.62,0,0,0,0-.48.59.59,0,0,0-.33-.27C733.37,477.51,732.85,477.65,732.81,477.86Z"/><path class="cls-10" d="M749.67,483.06c.08-.29.57-.2.86-.56a1,1,0,0,0,.11-1,1.1,1.1,0,0,0-1.29-.49,1,1,0,0,0-.73.67c-.11.51.45.85.28,1.21-.09.2-.29.12-.68.41a1.48,1.48,0,0,0-.65.81,1.22,1.22,0,0,0,.32,1.09,1.29,1.29,0,0,0,1.5.25,1.24,1.24,0,0,0,.63-.8,1.9,1.9,0,0,0-.17-1.09C749.73,483.27,749.63,483.2,749.67,483.06Z"/><path class="cls-10" d="M751.87,481.91c-.39.21-.21.74-.51,2.06s-.58,1.48-.35,1.82,1.06.44,1.56.27a1.4,1.4,0,0,0,.62-.4,1.11,1.11,0,0,0,.32-.73,1.13,1.13,0,0,0-.42-.84c-.31-.24-.6-.18-.63-.33s.37-.26.56-.67a1,1,0,0,0,0-.78A1,1,0,0,0,751.87,481.91Z"/><path class="cls-44" d="M750.09,481.84a.37.37,0,0,0-.22-.21.43.43,0,0,0-.46.17.42.42,0,0,0-.06.43.39.39,0,0,0,.43.14A.44.44,0,0,0,750.09,481.84Z"/><path class="cls-44" d="M749.08,483.84a.53.53,0,0,0-.39.12.65.65,0,0,0-.34.47.56.56,0,0,0,1.07.23A.63.63,0,0,0,749.08,483.84Z"/><path class="cls-44" d="M752.18,482.4c-.05,0,0,.12,0,.36s-.09.44,0,.48.26-.09.36-.26a.41.41,0,0,0,.08-.3C752.56,482.47,752.27,482.34,752.18,482.4Z"/><path class="cls-44" d="M751.92,484.23c-.11.08,0,.23-.09.61s-.29.56-.21.7.57.15.87,0a.62.62,0,0,0,.32-.36.59.59,0,0,0-.06-.42C752.58,484.36,752.1,484.11,751.92,484.23Z"/><path class="cls-10" d="M774,490.76c.25-.17.56.22,1,.14a1,1,0,0,0,.72-.66A1.1,1.1,0,0,0,775,489a1,1,0,0,0-1,0c-.42.31-.22.94-.57,1.1-.2.09-.3-.09-.78-.14a1.48,1.48,0,0,0-1,.19,1.22,1.22,0,0,0-.47,1,1.29,1.29,0,0,0,1,1.17,1.24,1.24,0,0,0,1-.19,1.9,1.9,0,0,0,.58-.94C773.87,491,773.84,490.84,774,490.76Z"/><path class="cls-10" d="M776.43,491.49c-.43-.1-.64.43-1.73,1.23s-1.4.74-1.45,1.15.52,1,1,1.22a1.4,1.4,0,0,0,.73.1,1.11,1.11,0,0,0,.71-.34,1.13,1.13,0,0,0,.22-.91c-.08-.38-.33-.53-.26-.66s.45,0,.86-.14a1,1,0,0,0,.53-.58A1,1,0,0,0,776.43,491.49Z"/><path class="cls-44" d="M775.08,490.11a.37.37,0,0,0,0-.3.43.43,0,0,0-.46-.17s-.29.07-.32.29a.39.39,0,0,0,.24.38A.44.44,0,0,0,775.08,490.11Z"/><path class="cls-44" d="M773,491a.53.53,0,0,0-.38-.16.65.65,0,0,0-.57.13.56.56,0,0,0,.66.87A.63.63,0,0,0,773,491Z"/><path class="cls-44" d="M776.35,492.07c-.06,0-.08.09-.23.27s-.36.28-.34.35.26.1.44,0a.41.41,0,0,0,.26-.17C776.58,492.37,776.45,492.08,776.35,492.07Z"/><path class="cls-44" d="M775,493.29c-.13,0-.15.17-.46.4s-.59.24-.61.39.33.48.67.55a.62.62,0,0,0,.48-.06.59.59,0,0,0,.23-.36C775.37,493.82,775.17,493.31,775,493.29Z"/><path class="cls-10" d="M794.12,500.9c-.14-.27.28-.53.24-1a1,1,0,0,0-.58-.78,1.1,1.1,0,0,0-1.27.53,1,1,0,0,0-.07,1c.27.45.91.31,1,.68.07.21-.12.29-.22.76a1.48,1.48,0,0,0,.09,1,1.22,1.22,0,0,0,1,.58,1.29,1.29,0,0,0,1.26-.84,1.24,1.24,0,0,0-.09-1,1.9,1.9,0,0,0-.88-.68C794.3,501,794.19,501,794.12,500.9Z"/><path class="cls-10" d="M795.08,498.47c-.14.42.36.68,1,1.85s.59,1.47,1,1.56,1.07-.41,1.32-.87a1.4,1.4,0,0,0,.17-.72,1.11,1.11,0,0,0-.27-.74,1.13,1.13,0,0,0-.88-.32c-.39,0-.56.28-.68.19s.09-.44,0-.87a1,1,0,0,0-.53-.58A1,1,0,0,0,795.08,498.47Z"/><path class="cls-44" d="M793.59,499.73a.37.37,0,0,0-.3,0,.43.43,0,0,0-.21.44s0,.29.25.35a.39.39,0,0,0,.41-.2A.44.44,0,0,0,793.59,499.73Z"/><path class="cls-44" d="M794.22,501.88a.53.53,0,0,0-.2.36.65.65,0,0,0,.08.58.56.56,0,0,0,.94-.57A.63.63,0,0,0,794.22,501.88Z"/><path class="cls-44" d="M795.64,498.61c0,.06.08.09.25.26s.24.38.31.37.12-.25.09-.43a.41.41,0,0,0-.14-.28C796,498.4,795.66,498.5,795.64,498.61Z"/><path class="cls-44" d="M796.71,500.12c0,.13.15.17.35.5s.18.61.33.65.51-.28.61-.61a.62.62,0,0,0,0-.48.59.59,0,0,0-.33-.27C797.28,499.76,796.75,499.91,796.71,500.12Z"/><circle class="cls-10" cx="732.5" cy="480.19" r="0.43" transform="translate(38.94 1015.09) rotate(-70.89)"/><circle class="cls-10" cx="750.25" cy="485.73" r="0.43" transform="translate(45.64 1035.59) rotate(-70.89)"/><circle class="cls-10" cx="772.54" cy="493.23" r="0.43" transform="translate(53.55 1061.69) rotate(-70.89)"/><circle class="cls-10" cx="796.27" cy="502.2" r="0.43" transform="translate(61.03 1090.15) rotate(-70.89)"/><path class="cls-45" d="M852.59,452.86a1.45,1.45,0,0,1,.9,1.85L816.56,561.28a1.45,1.45,0,0,1-1.85.9L694.28,520.44a1.45,1.45,0,0,1-.9-1.85L730.31,412a1.45,1.45,0,0,1,1.85-.9l120.43,41.73m.34-1L732.5,410.15a2.49,2.49,0,0,0-3.17,1.54L692.41,518.25a2.49,2.49,0,0,0,1.54,3.17l120.43,41.73a2.49,2.49,0,0,0,3.17-1.54L854.47,455A2.49,2.49,0,0,0,852.93,451.88Z"/></g></g></svg>
