<svg xmlns="http://www.w3.org/2000/svg" xmlns:xlink="http://www.w3.org/1999/xlink" viewBox="0 0 1026 776.31"><defs><style>.cls-1,.cls-28{fill:none;}.cls-1{stroke:#e9eced;}.cls-1,.cls-28,.cls-29,.cls-4{stroke-miterlimit:10;}.cls-1,.cls-4{stroke-width:5px;}.cls-2{fill:#c7c9c8;}.cls-3{fill:#202532;}.cls-10,.cls-4{fill:#fff;}.cls-4{stroke:#fff;}.cls-5{fill:#152230;}.cls-6{fill:#e5b090;}.cls-7{fill:#333;}.cls-8{fill:#962d69;}.cls-9{fill:#72263c;}.cls-11{fill:#eaac41;}.cls-12{fill:#dba426;}.cls-13{fill:#20d7a4;}.cls-14{fill:#e5dee5;}.cls-15{fill:#f18302;}.cls-16{fill:#882e00;}.cls-17{fill:#9e7138;}.cls-18{fill:#bb0d04;}.cls-19{fill:#e47a0a;}.cls-20{fill:#180700;}.cls-21{fill:#f7d5a8;}.cls-22{fill:#fecda4;}.cls-23{fill:url(#linear-gradient);}.cls-24{fill:#c07d08;}.cls-25{fill:#cdcfd0;}.cls-26{fill:#33100a;}.cls-27{fill:#000100;}.cls-28{stroke:#152230;}.cls-29{fill:#2c4963;stroke:#424242;}.cls-30{fill:url(#linear-gradient-2);}.cls-31{fill:#f0f0f0;}.cls-32{fill:#d7d7d7;}.cls-33{fill:#efefef;}.cls-34{fill:#edb143;}.cls-35{fill:#e9eced;}.cls-36{fill:#89cce5;}</style><linearGradient id="linear-gradient" x1="218.53" y1="135.24" x2="247.95" y2="135.24" gradientTransform="matrix(0.94, -0.35, -0.35, -0.94, 207.13, 670.85)" gradientUnits="userSpaceOnUse"><stop offset="0.52" stop-color="#7e8083"/><stop offset="0.53" stop-color="#cdcfd0"/></linearGradient><linearGradient id="linear-gradient-2" x1="292.86" y1="156.46" x2="316.86" y2="156.46" gradientTransform="matrix(0.94, -0.35, -0.35, -0.94, 207.13, 670.85)" gradientUnits="userSpaceOnUse"><stop offset="0.52" stop-color="#20d7a4"/><stop offset="0.53" stop-color="#5cbfa0"/></linearGradient></defs><title>Start-side</title><g id="Layer_2" data-name="Layer 2"><g id="Layer_1-2" data-name="Layer 1"><rect class="cls-1" x="2.5" y="2.5" width="1021" height="771.31"/><rect class="cls-2" x="114.08" y="42.31" width="789.75" height="703.23"/><path class="cls-3" d="M459.34,112.7c1.42-1,3.52-.69,6.23-.29,2.37.35,3.24.85,4,.29,1-.72.73-2.42.55-4.47-.55-6.27-.83-9.4.55-10.73,2-1.94,7.75-.63,9.36,2.37.53,1,.42,2.68.18,6-.33,4.46-.87,5.42-.09,6.36.23.28.94,1,6.36.91,4.79-.07,6-.65,6.91.27,1.31,1.37.73,4.85-1.09,6.09-.59.4-1.23.52-4.73.18-4.83-.46-6.44-1-7.45,0a3.58,3.58,0,0,0-.73,2.82c0,.11-.21,7.34-.64,21.81a46.76,46.76,0,0,0,.45,10.36c.82,4.83,1.87,5.71,2.64,6,1.82.7,4.1-1.15,5.54-2.36a22.6,22.6,0,0,0,6.45-9.18c4.9-13,5.51-26.1,5.91-34.63.2-4.37.3-6.61-.09-8.72s-.42-4.13-.73-6.18c-.18-1.23-.27-1.66,0-2.1,1.1-1.76,6.79-1.46,9.36,1.37,1.19,1.31,1.36,2.77,1.09,9.72-.34,8.78-.52,13.16-1,16.9-.75,5.81-1.46,8.5-.45,9,1.66.83,4.52-6,10.18-6.63a10.54,10.54,0,0,1,9.82,5.18c2.82,5.36-1.13,13.45-4.54,20.45-2,4.17-3.65,6.33-2.82,7.27,1.16,1.31,6.26-.68,9.82-3.73,2.65-2.27,3.95-4.85,6.54-10a76.37,76.37,0,0,0,4.82-11.27c1.32-4,1.17-4.79,2.36-6.09,2.84-3.1,8-3.35,11.45-2.45,1.58.4,4.38,1.12,6,3.64,2,3,.93,6.74.36,8.82a10.1,10.1,0,0,1-2.36,4.91c-3.49,3.5-8.85,1.47-9.72,3.64-.61,1.5,1.26,4.22,3.54,5.18,4,1.69,9.66-1.95,12.54-4.82,1.72-1.71,2.33-3,3-2.82,1.3.4,1.3,6-.27,10.63-.67,2-3.82,11.26-12.27,12.63a14.46,14.46,0,0,1-13.27-5.09c-3.17-4.11-2.46-9.19-4.18-9.36-1.18-.12-1.65,2.25-4.36,5.36a23.91,23.91,0,0,1-8,5.82c-1,.44-8.63,3.73-11.45.82-.64-.66-1.67-2.3.45-9.91,3.23-11.58,8-16.3,6.45-18.09s-7.51-.08-11.36,3.73c-4.12,4.07-2.27,7.34-6.82,14.36-1.66,2.56-4.08,6.21-8.72,8.54a20.47,20.47,0,0,1-10.72,2c-2.47-.16-7.05-.46-10.57-3.59s-4.1-7.29-4.75-12c-.43-3.14-.46-6.15.85-22.13.47-5.74.71-8.18-.95-9.59-3.08-2.63-9,1.37-11-1.14C456.73,117.24,457.57,113.94,459.34,112.7Z"/><path class="cls-2" d="M549.28,140.88c2.51,1,5.29-.82,6.66-2.36.34-.38,2.5-2.82,1.66-4.58s-4.25-1.9-6.52-1-4.65,3.49-4,5.69A3.79,3.79,0,0,0,549.28,140.88Z"/><line class="cls-4" x1="224.19" y1="314.27" x2="793.71" y2="314.27"/><path class="cls-3" d="M243.32,301.78c-1.07-1.32.52-3.48,2.14-9a110.32,110.32,0,0,0,2-10.91c2.08-13.23-.74-40.09.46-63.37,1-19.92,3.84-30,.93-31-3.16-1.09-10.2,9.47-13.41,18.5-1.24,3.49-4.41,12.76-1.85,23.59,2.17,9.15,7,13.33,5.55,14.8-1.79,1.83-11.61-2.25-16.65-10.18-5.59-8.79-3.22-19-1.85-25,.78-3.37,4.57-18.1,18-27.29,3.53-2.41,10-6.7,17.58-5.41,1.26.21,6.87,1.17,9.25,5.41a10.07,10.07,0,0,1,1,6.12c-3.33,30.07,1.49,63.64-2.46,81.76a7.86,7.86,0,0,0,.53,5.56c1.64,2.85,5.91,4.51,8.94,3.4,2.39-.88,4-3.5,5.37-9.73,3.49-16.38.51-38-.26-43.25-.35-2.37-1-6.36,1.28-8.45,2.62-2.44,7.75-1,11.26,0a5.33,5.33,0,0,1,3.33,2,5.1,5.1,0,0,1,.43,3.68c-1.14,5.93-3.1,29.71-1.71,30.11.86.25,3.94-8.15,10.75-21.75,3.42-6.83,5.56-10.54,10-13.05a15.89,15.89,0,0,1,11.26-2,13.7,13.7,0,0,1,11,16.12c-1.19,11.12-.56,22.36-1,33.53-.27,6.58-.29,8.51.77,9,2.07.88,5-5.3,16.12-18.68,5.82-7,9-10.1,8.19-14.08s-4.36-3.93-5.63-8.19c-1.87-6.28,3.71-13.81,9-17.4,1.77-1.21,5.61-3.83,10.49-3.07,1.53.24,5.09.79,6.4,3.33,2.09,4.06-2.5,11.41-6.4,17.66-1.2,1.93-1.53,2.24-1.54,3.07,0,4.35,9,4.92,17.15,13.31,2.41,2.47,5.75,6,6.65,11.26.77,4.47-.74,7.16.26,7.68,1.87,1,10.31-7,13.56-17.92,1.38-4.62.45-5.14,1-19.95s1.54-17.89-1-20c-4.8-4-14.06,3.3-17.92-.77-2.34-2.47-1.82-8.2,1-10.75,4.5-4,12.27,2.21,16.38-1.28,5.35-4.55-3.35-19,1.54-22.65,0,0,1.76-1.32,17.4,4,0,1.32,0,3.27-.17,5.62-.59,10.46-2.16,12.26-.85,14.08,3.3,4.59,15.93-3,20.73,2.3,2.09,2.32,2.18,6.55.51,8.45-1,1.12-2.5,1.32-11.52,1-5.68-.19-8.52-.1-9.21.26-5.27,2.72-1.65,13.88-1.71,35.06,0,16.37-2.25,25.62,3.5,29.69a8.68,8.68,0,0,0,5.89,1.54c7.5-1.11,10.75-14.71,11.52-17.92,1.53-6.4.46-7.68,1.28-14.59s2.83-23.8,14.08-29.43c3.95-2,11-3.56,16.12-.51,3.94,2.36,6,7.06,7.93,6.4,1.26-.43.67-2.48,2.3-4.09,2.68-2.64,9.23-2,12,1.28,2,2.4,1.7,5.74,1.54,7.42,0,0-1.45,15,0,44.79.15,3.19.43,6.88,2.82,8.19,2.78,1.53,7.53-.67,10-3.84,1.27-1.64,1.95-3.59,2.3-7.17a42.73,42.73,0,0,0-1-14.33c-2.88-11.57,2.19-29.2,13.05-36.6,4.9-3.34,13.57-6.37,19.45-3.07,4.29,2.4,6.52,7.84,8.19,7.17,1.27-.51,0-3.65,1.79-5.63,2.65-2.9,10.63-1.88,13.56,2.3,2.23,3.18,1.07,7.5.62,9.3-4.16,16.68-3.63,42.19-.36,43.17,2.79.84,14.6-14,14-29.76-.15-3.84-1.08-8.69,1.38-14.51a18.57,18.57,0,0,1,7.93-9.47c6-3.33,14.18-2.67,18.94,1.28,4.33,3.6,5.1,9.28,6.91,9,1.6-.28,1-4.72,3.84-6.4a6.81,6.81,0,0,1,7.42,1c3.58,3.47-1.49,10.11-3.58,25.59a71.87,71.87,0,0,0,2,25.59c1.15,4.33,2.27,6.8,4.1,7.17,3.15.63,7.06-5.31,9-9.47,3-6.66,2.65-12.5,2.3-19.71-1.45-30.08.25-33.9,2.82-35.57,2.86-1.87,7.72-1.66,9.73.51,1.34,1.46,1.16,3.55,1,5.63-.51,7.85-.5,18.21.51,18.43S665,233,666.9,226.86c2.15-7.15,2.14-9.32,4.35-10.75,3.67-2.36,10.42-.71,12.54,3.07,1.49,2.66.05,5.24-1.79,11.77-2.94,10.41-3.58,19.06-3.07,19.2s3.59-7.81,10.49-24.83c1.54-3.81,2.86-6.92,6.14-9,4.17-2.58,10.89-3,13.56,0,3.58,4.07-2.67,11.4-6.65,27.64-2.54,10.35-5.5,29.82.51,32.76,3.61,1.77,9.35-3,13.82-6.65,4.11-3.39,9.65-9.09,15.1-20.47,7.32-15.28,3.78-18.44,9.73-25.59,5.72-6.88,15.86-12.24,26.11-10.49,1.07.18,14,2.56,16.38,11.77,2.12,8.09-4.93,17.36-12.28,20.47-7.68,3.24-12.29-.78-16.38,3.07-5,4.74-3.92,16.78,2.29,23,.93.94,4.65,4.69,9.35,4.21,3.17-.32,6-2.48,9.35-7.48,8.84-13,8.9-26.25,10-26.17s3.23,11.74-1,24.83c-2.94,9-6.5,20-16.89,23.8-6.32,2.31-14.68,1.8-20.73-2.56-11.07-8-9.57-25.34-13.56-25.34-2.08,0-2.24,4.71-6.4,11-.49.74-8.09,11.89-21.75,15.36-1.49.38-14.31,3.63-18.43-2-2-2.72-1.16-6.41-.77-8.19,3-13.59,9.07-41.37,7.68-42S680.73,260,678.42,274.72c-.17,1.1-1.79,11.77-1.79,11.77s-6.16,1.4-8.19.51c-7.38-3.21,8.34-50.38,4.43-52-1.83-.74-8.81,8.24-12.87,19.45-5.78,15.95-1.91,26-10.49,34a19.48,19.48,0,0,1-9.21,4.86c-4.37.91-11.2.61-15.1-3.58-4.51-4.85-2.53-12.18-4.61-12.54-1.64-.29-2.72,4.33-7.17,9.73-3.06,3.72-7.12,8.65-12.54,9-6.54.38-13.37-6.07-15.36-12.54-1.5-4.89-.13-9.47-1.79-10-.87-.27-1.72.84-5.37,4.09-3.34,3-4.37,3.61-5.12,4.35-4.41,4.39-.2,14.15.77,24.06.26,2.7,2,20.12-8.19,31-5.11,5.46-15.25,11.42-25.08,7.93-7.72-2.74-14.37-11-14.08-18.94.55-14.77,25.24-32.88,28.35-35a9.59,9.59,0,0,0,3.38-3.9c1.32-2.92,1-6.71-.26-7.17-1-.37-2.24,1.66-4.61,4.09-2.16,2.22-8.14,8.36-14.59,8.19-5.35-.14-9.93-4.59-11.52-6.14-3.33-3.24-4.22-6.06-6.14-5.89-2.11.19-2.13,3.68-5.12,6.65-3.44,3.42-9.64,5-14.08,3.38-7.33-2.69-7.13-13.17-11.77-13.36-3-.12-3.46,4.23-10.24,9.21-3,2.24-6.78,5-11.77,5.12-6.23.16-11.83-3.82-14.84-7.93-3.87-5.28-3.7-11.08-5.12-11-1.23.06-.86,4.41-4.3,9.4a23,23,0,0,1-5.42,5.45c-1.88,1.4-4.44,3.3-7.42,3.84-5.51,1-11.22-2.9-14.33-6.65-6.74-8.13-4.26-19.19-6.65-19.45-1.24-.14-1.9,2.8-5.37,8.45-1.89,3.07-4.73,7.68-8.7,11-4.8,4-9.94,5.05-14.08,5.89,0,0-14.07,2.84-25.08-3.84a6,6,0,0,1-2.82-3.07c-1.41-4.13,3.33-10.52,7.42-10.49,1.89,0,2.24,1.38,5.37,3.07.55.29,7.7,4.07,11.26,1.79,3.89-2.49,2.23-11.41.77-15.87-2.61-8-9.2-15.78-12.8-14.59-1.71.56-1.42,2.72-3.33,7.68-1.2,3.13-4.66,7.93-11.52,17.4-5.35,7.39-6.7,9-8.7,11-4.39,4.35-7.28,7.21-11,7.17-6.54-.08-11.08-9.06-11.77-10.49-2.1-4.32-2.93-9.14-.84-29.41,1.47-14.24,2.81-20.8.58-21.77s-6.24,4-7.17,5.12c-16.36,19.81-5,47.61-17.92,55-3.55,2-9.85,3.06-12.28.51-1.88-2-.75-5.3-2.56-6.14-2.11-1-4.29,3.3-8.19,3.07s-5.44-4.76-7.42-4.09-.57,4.69-3.07,10a19,19,0,0,1-6.91,7.68C250.54,302,244.87,303.7,243.32,301.78Z"/><path class="cls-2" d="M481.61,228.39a10,10,0,0,0-8.19-1.28c-6.11,1.8-8.25,9.85-10,16.38-1.21,4.54-3.45,13.44-.08,23.84,1.3,4,4.16,12.84,9,13.27,5.83.52,11.55-11.21,13.57-18.71,1.58-5.86,1.24-10.38.7-17.44C486,236.28,485.58,231.09,481.61,228.39Z"/><path class="cls-2" d="M551.73,228.39a10.5,10.5,0,0,0-7.93-1.28c-4.12,1.18-6.05,5.18-8.15,9.7a45,45,0,0,0-4,18.45c-.07,5.14-.08,11.29,3.49,17.58,1.52,2.67,4.14,7.31,8.08,7.54,4.25.25,7.59-4.78,9.54-7.72,7.83-11.79,5.8-25.09,4.86-31.22C556.15,231.81,553.28,229.37,551.73,228.39Z"/><path class="cls-2" d="M614.15,234.1a10.22,10.22,0,0,0-5.35-3.91c-4.86-1.17-9.48,3.35-10.24,4.09-5.23,5.12-5.42,12.29-5.72,23.55-.24,9.13,1.09,12.44,1.88,14.07.63,1.31,4.27,8.84,9.58,8.84,4.43,0,7.51-5.25,9.62-8.84,6.1-10.4,4.61-20.89,3.33-29.94A15.71,15.71,0,0,0,614.15,234.1Z"/><path class="cls-2" d="M762.36,236.84c3.47-1.33,11.32-5.07,10.75-8.45-.46-2.73-6.23-4-9.73-4.09-.68,0-7.89,0-12.54,5.63-.5.61-4.29,5.24-2.82,7.68C749.8,240.53,758,238.51,762.36,236.84Z"/><g id="Layer_2-2" data-name="Layer 2"><g id="Layer_1-2-2" data-name="Layer 1-2"><path class="cls-5" d="M363.59,480.92a1.79,1.79,0,0,1-2.29-1.05l-35.37-95.61A1.79,1.79,0,0,1,327,382l108.09-40a1.79,1.79,0,0,1,2.29,1.05l35.37,95.61a1.79,1.79,0,0,1-1.05,2.29Z"/><path class="cls-5" d="M435.24,342.42a1.31,1.31,0,0,1,1.69.78l35.37,95.61a1.31,1.31,0,0,1-.78,1.69l-108.09,40a1.31,1.31,0,0,1-1.69-.78l-35.37-95.61a1.31,1.31,0,0,1,.78-1.69l108.09-40m-.33-.88-108.09,40a2.25,2.25,0,0,0-1.33,2.89L360.86,480a2.25,2.25,0,0,0,2.89,1.33l108.09-40a2.25,2.25,0,0,0,1.33-2.89l-35.37-95.61A2.25,2.25,0,0,0,434.92,341.54Z"/><path class="cls-6" d="M432.2,367.68a12.24,12.24,0,0,1,1.42,1c2.42,1.94,3.32,6.66,5.07,12,1.36,4.17,1.68,3.89,1.82,5.52a13.94,13.94,0,0,1-2.62,9.08,13.26,13.26,0,0,1-12.88,5,13.9,13.9,0,0,1-7.9-5.19,15.2,15.2,0,0,1-1.62-3.24c-4.67-10.72-4.77-12.34-4.63-13.65a12.2,12.2,0,0,1,2.47-6c4.66-6.42,13.21-6.15,15.38-5.69A13,13,0,0,1,432.2,367.68Z"/><path class="cls-7" d="M434,377.25a2.4,2.4,0,0,0-1.54-.71,3.46,3.46,0,0,0-3,1.11,2.38,2.38,0,0,0-.71,1.54c.1,0,.39-.68,1.21-1.31a4.53,4.53,0,0,1,2.25-.83A11.94,11.94,0,0,1,434,377.25Z"/><circle class="cls-7" cx="431.88" cy="381.25" r="1.41" transform="matrix(0.94, -0.35, 0.35, 0.94, -105.45, 173.52)"/><circle class="cls-7" cx="419.88" cy="385.69" r="1.41" transform="matrix(0.94, -0.35, 0.35, 0.94, -107.73, 169.63)"/><path class="cls-8" d="M434.32,386.1s-.28,1.62-.43,2.3a8,8,0,0,1-1.65,3.59,6.69,6.69,0,0,1-5.62,2.08,7.1,7.1,0,0,1-2.95-1A16.09,16.09,0,0,1,421.2,391l13.11-4.85Z"/><path class="cls-9" d="M433.18,389.94c-.14-.27-.49-.34-1-.48a5,5,0,0,0-2.53.08,8.48,8.48,0,0,0-4.84,3.07c-.13.19-.26.33-.23.51.13.79,3,1.5,5.33.59C432,392.9,433.59,390.73,433.18,389.94Z"/><path class="cls-10" d="M433.24,387.78l-10.12,3.75-.42-1.12,10.12-3.75Z"/><path class="cls-6" d="M434.2,398.48c.45.19.49.84.68,2.43a49.19,49.19,0,0,1,.6,5.67c.06,2.48-.18,2.64-.29,2.67-.27.08-.58-.43-1.59-2s-1.93-3.1-3-4.59-1.54-1.95-1.31-2.39,1-.32,2.62-1C433.36,398.76,433.75,398.28,434.2,398.48Z"/><path class="cls-11" d="M410.58,388.91h0a48.65,48.65,0,0,1-2.14-7.52,18.22,18.22,0,0,1,.23-8.62,16.24,16.24,0,0,1,5.68-8.3,12.59,12.59,0,0,1,6.24-2.73,13.67,13.67,0,0,1,8.41,2c1.86,1,3.35,1.78,4.28,3.53a8.47,8.47,0,0,1,.45,5.81,14.61,14.61,0,0,1-5.42,8.4c-1.45,1.11-1.36.64-9.25,3.84C419.07,385.35,417.84,385.85,410.58,388.91Z"/><path class="cls-12" d="M420.48,391.74a2.78,2.78,0,0,1,1.44-.71,2.45,2.45,0,0,1,1.24.12c.11,0,1.61.62,1.52,1.79a1.68,1.68,0,0,1-1.63,1.54c-.61-.08-1.07-.84-1.31-1.21a5.2,5.2,0,0,0-.71-1.12A2.6,2.6,0,0,0,420.48,391.74Z"/><path class="cls-13" d="M430,412.17c-1.36-1.89-3.89-1.78-7.38-2.13-5.85-.59-12.32-1.32-16.49-5.35a26.92,26.92,0,0,1-4.8-7.2,18.06,18.06,0,0,1-1.35-3.66c-.47-2-.16-2.6-.74-3.12-1.37-1.27-5.41-.14-6.51,2.23-.23.51-.58,1.55.61,5.21a26.62,26.62,0,0,0,6.14,10.94,22,22,0,0,0,5.1,4.13c3.21,1.83,5.39,1.88,10.82,2.79,10.43,1.72,13.18,3.34,14.7,1.54C431.29,416.22,431.08,413.66,430,412.17Z"/><path class="cls-12" d="M417.59,393.29a7.37,7.37,0,0,1-1.11-.13c-1.6-.21-3.23-.26-4.83-.57a3.65,3.65,0,0,0-1.14-.06,2.76,2.76,0,0,0-1,.28c-.57.29-.59.58-1,.75a1.75,1.75,0,0,1-1,0c-1.65-.35-11.57-2.27-13.3-2.29a6,6,0,0,1-1.09-.14,2.49,2.49,0,0,1-1.11-.47c-.12-.11-.4-.43-.33-2.14a11.28,11.28,0,0,1,.56-3.18c.28-.86.42-1.29.77-1.48a3.2,3.2,0,0,1,2.07.07,2,2,0,0,0,.4.11c.37.08.64.12.73.13,1,.1,8.3,1.43,10.32,1.82,1.36.28,1.21.29,1.56.32a2.53,2.53,0,0,1,1.21.25,2.61,2.61,0,0,1,.54.42c.2.21.23.29.53.68a3,3,0,0,0,.46.55,2.35,2.35,0,0,0,.91.34c.44.12.66.16.66.16,1.25.24,4.37.94,5.17,1.17.22.06.45.09.66.16s.33.14.49.08.15-.14.25-.13a.69.69,0,0,1,.37.2c.12.1.18.15.21.12s0-.19,0-.27.55,0,.73.31a.58.58,0,0,1,.09.25,2.78,2.78,0,0,1-.17,1.22,5.44,5.44,0,0,1-.32,1.52.86.86,0,0,1-.28.32.52.52,0,0,1-.61,0c0-.06,0-.11-.12-.16a.29.29,0,0,0-.23,0c-.09,0-.11,0-.2.05a.36.36,0,0,1-.32-.1l-.08-.11C418,393.21,417.65,393.29,417.59,393.29Z"/><path class="cls-14" d="M404,392.89a.65.65,0,0,1,.11-.4.32.32,0,0,1,.16-.12,3.5,3.5,0,0,0,1-1.16,5.48,5.48,0,0,0,.59-3.38c0-.15-.06-.26-.08-.33a3.4,3.4,0,0,0-.48-1.2.37.37,0,0,1-.08-.11.1.1,0,0,1,0-.08.53.53,0,0,0,0-.32h0l-4.52-.83h0s-.53,1.7-.87,3.42c-.09.41-.13.69-.5,3.68h0S404,392.89,404,392.89Z"/><path class="cls-15" d="M396.45,391.54c.1-.06.09-.23.09-.25,0-.26.15-1.26.48-3.29a30.68,30.68,0,0,1,.77-3.38s.06-.1,0-.13h-.12l-.77-.14h-.08a9,9,0,0,0-.89-.15.37.37,0,0,0-.24,0c-.19.09-.22.38-.23.46-.11,1.06-.54,2.06-.73,3.11s-.12,2.1-.4,3.13c0,.07-.1.34,0,.41a.33.33,0,0,0,.17,0,6.32,6.32,0,0,1,.9.11l.62.11h.08C396.29,391.56,396.38,391.58,396.45,391.54Z"/><path class="cls-16" d="M419,393.69c-.1-.12,0-.3.11-.68a5,5,0,0,0,.18-.81c.14-.71.14-1.45.21-1.71a1.11,1.11,0,0,0,0-.13c0-.18,0-.23,0-.28s.31,0,.49.08a.77.77,0,0,1,.28.28,1.32,1.32,0,0,1,.06.76c0,.39-.13.41-.19.85s0,.4-.09.77a1.44,1.44,0,0,1-.19.57.79.79,0,0,1-.48.38S419.1,393.81,419,393.69Z"/><circle class="cls-17" cx="405.61" cy="389.46" r="1.48" transform="translate(-47.15 722.95) rotate(-80.21)"/><circle class="cls-18" cx="405.65" cy="389.48" r="1.18" transform="translate(-47.13 723) rotate(-80.21)"/><path class="cls-19" d="M417.69,393.27c.29-.09.12-.8.35-1.75.17-.68.48-1.24.29-1.38l-.25-.09-.36-.11c-.51-.15-3.14-.78-3.14-.78h0l-2.51-.47h0l-.4-.11c-.09.41-.28,1.5-.35,1.93s-.28,1.56-.37,2l.27,0,.27,0c.37,0,1.3.22,2.07.31l.64.06,2.73.29.45,0Z"/><path class="cls-20" d="M402.79,392.07a.41.41,0,0,0,0-.24.37.37,0,0,0-.25-.19.43.43,0,0,0-.36.05l0,0a.07.07,0,0,0,0,0c0-.07,0-.12-.08-.15a.77.77,0,0,0-.77-.14s-.14.11-.37.3l-.27.24,2.11.4A.5.5,0,0,0,402.79,392.07Z"/><path class="cls-14" d="M402.54,392.13h0L402,392h0a.52.52,0,0,1,.17-.2.28.28,0,0,1,.28,0,.29.29,0,0,1,.08.15Z"/><path class="cls-14" d="M401.81,392h0s-.72-.11-.73-.13h0a.63.63,0,0,1,.32-.26.55.55,0,0,1,.28,0,.22.22,0,0,1,.17.08.26.26,0,0,1,0,.24S401.79,392,401.81,392Z"/><path class="cls-20" d="M402.87,391.5a1.14,1.14,0,0,0,0-.27.6.6,0,0,0,0-.37.49.49,0,0,0-.25-.19.34.34,0,0,0-.37.08c-.06.06-.06.1-.11.12s-.07,0-.13-.07a1.68,1.68,0,0,1-.32-.32c0-.09,0-.15-.08-.15s-.13.15-.09.25.08.11.2.22l.25.19a.12.12,0,0,1,.09.07.1.1,0,0,1,0,.08s-.09,0-.24,0-.36,0-.4-.11,0-.05,0,0-.15.25-.15.25Z"/><path class="cls-14" d="M402.73,391.29a.4.4,0,0,0,0-.17.22.22,0,0,0-.08-.15.33.33,0,0,0-.25-.09.27.27,0,0,0-.22.2.75.75,0,0,0,0,.13A4,4,0,0,1,402.73,391.29Z"/><path class="cls-20" d="M403,390.56h0c.09-.47.14-.77.14-.77h0s-.18-.11-.21-.08,0,.08,0,.15,0,.41-.07.45-.07,0-.23,0h-.08s0-.21.11-.36a.07.07,0,0,0,0,0s-.05,0-.17-.08-.07,0-.08,0a.06.06,0,0,0,0,0s.05.36,0,.41-.06,0-.17,0-.24,0-.27,0,0-.37.18-.53l.07-.09c0-.05-.28-.06-.32,0a.06.06,0,0,0,0,0,2.09,2.09,0,0,1-.18.71h0Z"/><path class="cls-20" d="M403.16,389.56h0c.09-.47.14-.77.14-.77h0s-.18-.11-.21-.08,0,.08,0,.15,0,.41-.07.45-.07,0-.23,0h-.08s0-.21.11-.36a.07.07,0,0,0,0,0s-.05,0-.17-.08-.07,0-.08,0a.06.06,0,0,0,0,0s.05.36,0,.41-.06,0-.17,0-.24,0-.27,0,0-.37.18-.53l.07-.09c0-.05-.28-.06-.32,0a.06.06,0,0,0,0,0,2.09,2.09,0,0,1-.18.71h0Z"/><path class="cls-20" d="M403.52,387.5c0-.23.09-.47.13-.73h0s-.26-.06-.27,0l.09.07s0,.11,0,.24,0,.2-.08.21h0s-.07,0-.21,0-.12,0-.13,0,0-.27.07-.36a.07.07,0,0,0,0,0s-.07,0-.15,0h-.12c-.05,0,.1.32,0,.37s-.06,0-.13,0c-.25-.07-.34,0-.41-.07a1.21,1.21,0,0,1,0-.2.49.49,0,0,1,0-.27c0-.05.07-.07.07-.09a.71.71,0,0,0-.28,0,.07.07,0,0,0,0,0,.22.22,0,0,0,0,.15,1.19,1.19,0,0,1,.09.52C402.62,387.34,403.07,387.41,403.52,387.5Z"/><path class="cls-20" d="M403.11,388.54s.28,0,.28,0h0l.14-.81h0l-.39.13c-.61.19-.81.34-.88.27s0-.33.14-.49.09-.09.07-.13-.3,0-.37.08,0,.11,0,.28c0,0,0,.06-.06.6h0l.53-.14c.45-.14.62-.31.69-.25s0,.27-.07.36S403.09,388.5,403.11,388.54Z"/><path class="cls-20" d="M403.67,386.65h0l-1.58-.27h0s-.13-.19-.09-.25.69.3.81.18a.14.14,0,0,0,0-.08c0-.05-.13-.07-.17-.08a1.79,1.79,0,0,1-.52-.23,1.14,1.14,0,0,1-.37-.28c-.05-.08-.08-.17-.05-.2s.08.05.16.12c.29.25.4.15.77.41.08.05.16.12.25.09A.27.27,0,0,0,403,386a.61.61,0,0,1,.76.18C403.83,386.33,403.67,386.65,403.67,386.65Z"/><path class="cls-14" d="M403.51,386.43a.35.35,0,0,0,0-.13.25.25,0,0,0-.12-.16.27.27,0,0,0-.27,0,.55.55,0,0,0-.19.25h0l.55.08Z"/><path class="cls-21" d="M393.39,391.93a1.3,1.3,0,0,0,.16-.66c0-.19-.16-.28-.33-.46a8.36,8.36,0,0,1-.77-1.15,9.29,9.29,0,0,1-.55-.94c-.41-.91.1-1.25.08-3a5.59,5.59,0,0,1,.28-2.28,1.4,1.4,0,0,1,.33-.34,1,1,0,0,1,.5-.21.86.86,0,0,1,.54.1.67.67,0,0,1,.34.33c0,.11,0,.2.09.31s.09.15.17.14.13-.13.14-.17a.52.52,0,0,0,0-.24.86.86,0,0,1,.34-.59.94.94,0,0,1,.5-.21.91.91,0,0,1,.64.22.69.69,0,0,1,.33.46.44.44,0,0,0,0,.24.26.26,0,0,0,.11.14c.08,0,.13-.13.19-.29a3.7,3.7,0,0,1,.15-.41.89.89,0,0,1,.33-.34,1,1,0,0,1,.73,0,.7.7,0,0,1,.3.15.83.83,0,0,1,.27.56,2.25,2.25,0,0,0,.08.49.07.07,0,0,0,.06.06s.06,0,.14-.11.1-.34.16-.48c.14-.33.72-.37.76-.38a.89.89,0,0,1,.71.24.78.78,0,0,1,.21.5,1.6,1.6,0,0,1-.06.66c0,.09-.06.22,0,.24s.09,0,.12,0a1.45,1.45,0,0,1,.62-.21.85.85,0,0,1,.54.16.94.94,0,0,1,.34.39,1.16,1.16,0,0,1,.09.61c-.08.61-.09,1.21-.19,1.81-.27,1.6.1,1.74-.29,2.4a4.49,4.49,0,0,1-.86,1c-.27.24-.52.49-.79.73a.73.73,0,0,0-.19.23,2,2,0,0,0-.11.78h0l-6.28-.44Z"/><path class="cls-22" d="M343,413a17.57,17.57,0,0,0-.66,2.42c-.84,4.47,2.66,10.59,5.78,18.16,2.45,5.93,1.84,5.93,3.23,7.86A20.38,20.38,0,0,0,362.9,449a19.38,19.38,0,0,0,19.05-6.73A20.27,20.27,0,0,0,385.77,429a24.33,24.33,0,0,0-1.28-5.14c-5-16.37-6.47-18.25-7.86-19.57a18.19,18.19,0,0,0-8.48-4.35c-11.29-2.7-20.53,5.76-22.51,8.33A19.46,19.46,0,0,0,343,413Z"/><path class="cls-7" d="M350.08,425.34a3.58,3.58,0,0,1,1-2.26,5,5,0,0,1,4.39-1.63,3.58,3.58,0,0,1,2.26,1,14.63,14.63,0,0,0-2.6-.28,6.34,6.34,0,0,0-3.29,1.22C350.67,424.34,350.21,425.41,350.08,425.34Z"/><circle class="cls-7" cx="356.29" cy="427.74" r="2.04" transform="translate(-126.27 150.18) rotate(-20.3)"/><circle class="cls-7" cx="373.86" cy="421.24" r="2.04" transform="translate(-122.93 155.88) rotate(-20.3)"/><path class="cls-8" d="M358.2,435.44s1.85,1.53,2.67,2.13a12.05,12.05,0,0,0,5.27,2.43,9.86,9.86,0,0,0,8.24-3,10.47,10.47,0,0,0,2.27-4,23,23,0,0,0,.77-4.66Z"/><path class="cls-9" d="M363.11,438.62c-.1-.42.22-.82.69-1.49a7.34,7.34,0,0,1,2.88-2.31,12.38,12.38,0,0,1,8.29-1.19c.33.08.6.12.75.34.61,1-1.94,4.53-5.38,5.72C367.26,440.76,363.42,439.9,363.11,438.62Z"/><path class="cls-10" d="M361,436.28l14.83-5.49-.61-1.65-14.83,5.49Z"/><path class="cls-23" d="M368,475.52s0,0,0,0,2.23,3.43,2.23,3.43l26.36-9.75a35,35,0,0,0-1.14-3.83l-.2-.54c-.6-1.56-.95-2.57-1-2.74a18.63,18.63,0,0,0-6.19-8.32,15,15,0,0,0-8.42-2.5,14.34,14.34,0,0,0-9.88,3.65,13.66,13.66,0,0,0-3.51,5.68,16.42,16.42,0,0,0-.45,8.9A35.56,35.56,0,0,0,368,475.52Z"/><path class="cls-22" d="M370.12,449.09c-.34.65.24,1.39,1.56,3.34,2.72,4.05,2.84,4.59,4.72,6.88,2.3,2.81,2.72,2.75,2.87,2.68.36-.17.22-1-.13-3.69s-.81-5.27-1.05-7.92-.14-3.62-.83-3.91-1.38.55-3.85,1.42C371.32,448.61,370.45,448.43,370.12,449.09Z"/><path class="cls-11" d="M387.26,416h0a70.79,70.79,0,0,0-4.79-10.4A26.69,26.69,0,0,0,374,396.2a23.57,23.57,0,0,0-14.21-3.79,18.57,18.57,0,0,0-9.53,2.91c-4.59,3-6.34,7.44-7.44,10.25s-2,5.17-1.41,8c.79,3.54,3.44,5.64,5,6.87a21.58,21.58,0,0,0,14,4.18c2.66-.15,2.12-.58,13.93-4.53C374.42,420.09,376.26,419.47,387.26,416Z"/><path class="cls-24" d="M350,438.47l-2.21-4.1c-2.47-4.56-3.7-6.82-3.7-6.82-.67-1.21-1.27-2.45-2-3.65a17.84,17.84,0,0,1-2.37-4.74,6.31,6.31,0,0,1-.27-2.4c.24-1.77,1.52-3.36,1.93-3.21.16.06.18.37.2.54.13,1.27.62,1.67,1.63,4.39,1.29,3.48,2.22,7.51,4.53,13.93C348.56,434.63,350,438.47,350,438.47Z"/><path class="cls-12" d="M379,428.54a4,4,0,0,0-2.28.58,3.82,3.82,0,0,0-1.27,1.33c-.08.15-1.18,2.21,0,3.45a2.47,2.47,0,0,0,3.27.15c.61-.67.4-1.95.28-2.58a5.93,5.93,0,0,1-.25-1.92A4,4,0,0,1,379,428.54Z"/><path class="cls-25" d="M387.8,460.32c-.3-3.41,2.66-5.68,6.18-9.38,5.93-6.21,12.44-13.21,13.23-21.64.5-5.44-1.34-11.87-1.53-12.56a26.3,26.3,0,0,0-2-5.34c-1.4-2.72-2.28-3-2.14-4.16.33-2.72,5.89-5.3,9.36-3.74.75.34,2.13,1.17,4.28,6.39,1.71,4.12,4,9.94,3.6,18a32,32,0,0,1-1.76,9.46c-1.81,5.09-4.18,7.22-9.39,13.4-10,11.86-11.49,16.26-14.87,15.71C390.24,466,388,463,387.8,460.32Z"/><path class="cls-12" d="M383.65,427.5a14.37,14.37,0,0,0,1.12-1.19c1.58-1.77,3.35-3.38,4.82-5.24a5.47,5.47,0,0,1,1.21-1.15,4.38,4.38,0,0,1,1.4-.66c.9-.21,1.21.07,1.87-.17a2.52,2.52,0,0,0,1.1-.91c1.51-2,10.69-13.55,12.58-15.2a6.44,6.44,0,0,0,1.08-1.2,3.53,3.53,0,0,0,.79-1.59c0-.25,0-.86-1.67-2.68a17.47,17.47,0,0,0-3.66-3c-1.12-.7-1.71-1-2.26-.92-1.12.26-2.11,1.86-2.22,2.06s-.15.25-.33.5a9.77,9.77,0,0,1-.67.83c-1,1-7.86,9.48-9.72,11.85-1.25,1.58-1.05,1.47-1.43,1.85a3.86,3.86,0,0,0-1.09,1.42,3.54,3.54,0,0,0-.2,1c0,.41,0,.54.07,1.27a5.11,5.11,0,0,1,0,1,4,4,0,0,1-.69,1.26l-.58.81c-1.14,1.44-4,5.22-4.62,6.2a8,8,0,0,0-.58.81c-.15.25-.25.47-.47.57s-.29,0-.42.1-.16.26-.22.58-.06.32-.11.34-.15-.24-.31-.24-.59.52-.51,1a.87.87,0,0,0,.14.37,4.36,4.36,0,0,0,1.34,1.2c.83.61,1,1.06,1.79,1.39a1,1,0,0,0,.63.09c.31-.08.66-.32.66-.58,0-.1-.06-.16,0-.29a.58.58,0,0,1,.21-.26c.13-.09.16,0,.27-.12a.6.6,0,0,0,.25-.41c0-.1,0-.11,0-.2C383.13,427.76,383.55,427.56,383.65,427.5Z"/><path class="cls-14" d="M398.39,414.08a1,1,0,0,0-.5-.33.51.51,0,0,0-.29,0,5,5,0,0,1-2.21-.36,8,8,0,0,1-3.86-3.21,3,3,0,0,1-.23-.46,5.27,5.27,0,0,1-.6-1.79.31.31,0,0,0,0-.2.24.24,0,0,0-.11-.08.84.84,0,0,1-.27-.4h0l4.24-5.23h0s2.21,1.38,4.22,3c.48.38.77.63,4.05,3.62h0l-4.42,5.43Z"/><path class="cls-15" d="M405.49,405.42c-.15,0-.32-.16-.36-.21-.25-.29-1.38-1.25-3.66-3.2a41.5,41.5,0,0,0-4.08-3s-.17-.08-.15-.13,0,0,0-.05a.39.39,0,0,0,.08-.11l.72-.87a.46.46,0,0,0,.08-.11c.36-.43.53-.68.86-1a.85.85,0,0,1,.26-.22c.29-.09.6.22.7.32,1.14,1.08,2.56,1.79,3.76,2.77s2.14,2.22,3.42,3.09c.08.05.42.27.38.48a.36.36,0,0,1-.17.2,6.49,6.49,0,0,0-.89,1c-.13.15-.43.5-.59.72l-.08.11A1.34,1.34,0,0,1,405.49,405.42Z"/><path class="cls-16" d="M382.45,429.27c0-.22-.31-.35-.77-.63a9.61,9.61,0,0,1-1-.72c-.83-.67-1.52-1.47-1.88-1.72l-.15-.13c-.19-.19-.19-.29-.27-.3s-.38.28-.47.57a1.23,1.23,0,0,0,0,.58c0,.16.13.41.65.88s.52.33,1,.76.4.43.83.77a2.2,2.2,0,0,0,.74.44,1.2,1.2,0,0,0,.91,0C382.11,429.71,382.44,429.53,382.45,429.27Z"/><circle class="cls-17" cx="393.32" cy="411.83" r="2.17" transform="translate(-174.71 452.29) rotate(-50.39)"/><circle class="cls-18" cx="393.31" cy="411.86" r="1.74" transform="translate(-174.74 452.29) rotate(-50.39)"/><path class="cls-19" d="M383.52,427.57c-.42.17-.91-.78-2.05-1.6-.83-.61-1.7-.93-1.63-1.28a2.64,2.64,0,0,1,.21-.36,5.19,5.19,0,0,1,.29-.45c.44-.64,2.77-3.86,2.77-3.86h0l2.34-2.92h0s.07-.13.33-.5l2.22,1.8c.52.43,1.8,1.47,2.34,1.89l-.28.28-.28.28c-.39.4-1.23,1.48-2,2.32l-.65.68-2.76,2.92-.48.48C383.65,427.44,383.55,427.56,383.52,427.57Z"/><path class="cls-20" d="M398.92,412a.77.77,0,0,1-.18-.31.63.63,0,0,1,.1-.44.61.61,0,0,1,.45-.29s.08,0,.09,0,0,0-.05,0-.07-.18-.07-.23a1.1,1.1,0,0,1,.72-.87,4.76,4.76,0,0,1,.71,0h.52l-1.95,2.46A1.26,1.26,0,0,1,398.92,412Z"/><path class="cls-14" d="M399.27,411.88h0l.47-.57h0a.92.92,0,0,0-.38-.06.31.31,0,0,0-.23.51A.57.57,0,0,0,399.27,411.88Z"/><path class="cls-14" d="M399.94,411h0l.67-.83h0a1,1,0,0,0-.62,0,.57.57,0,0,0-.3.27.41.41,0,0,0-.13.25.29.29,0,0,0,.22.26C399.86,411,400,411.06,399.94,411Z"/><path class="cls-20" d="M398.29,411.5a3.3,3.3,0,0,1-.31-.24c-.18-.17-.3-.27-.32-.44a.61.61,0,0,1,.1-.44.56.56,0,0,1,.49-.28c.1,0,.16.06.25,0a.22.22,0,0,0,.07-.19,1.69,1.69,0,0,0,0-.67c0-.15-.1-.2-.07-.23s.27,0,.36.21,0,.21,0,.42a3.26,3.26,0,0,1-.1.44.17.17,0,0,0,0,.15.15.15,0,0,0,.11.08c.07,0,.12,0,.26-.22s.35-.39.33-.5,0-.07,0-.09.4.15.4.15S398.29,411.5,398.29,411.5Z"/><path class="cls-14" d="M398.25,411.11a.83.83,0,0,1-.2-.17.32.32,0,0,1-.07-.23.44.44,0,0,1,.21-.36.37.37,0,0,1,.23-.07.36.36,0,0,1,.19.07l.15.13S398.25,411.11,398.25,411.11Z"/><path class="cls-20" d="M397.26,410.54h0l-.87-.72h0s.09-.29.17-.3.07.07.11.18.37.46.52.43.05-.08.21-.26.09-.07.08-.11-.26-.21-.45-.29c0,0,0,0-.05,0s0-.09.13-.25.06-.1.08-.11,0,0,.05,0,.28.44.42.43.06-.06.17-.2.25-.23.24-.31-.38-.38-.71-.4c-.07,0-.14,0-.15,0s.26-.33.4-.27l.05,0a3.55,3.55,0,0,0,.87.62h0S397.26,410.54,397.26,410.54Z"/><path class="cls-20" d="M396.11,409.61h0l-.87-.72h0s.09-.29.17-.3.07.07.11.18.37.46.52.43.05-.08.21-.26.09-.07.08-.11-.26-.21-.45-.29c0,0,0,0-.05,0s0-.09.13-.25.06-.1.08-.11,0,0,.05,0,.28.44.42.43.06-.06.17-.2.25-.23.24-.31-.38-.38-.71-.4c-.07,0-.14,0-.15,0s.26-.33.4-.27l.05,0a3.55,3.55,0,0,0,.87.62h0S396.11,409.61,396.11,409.61Z"/><path class="cls-20" d="M393.76,407.66c-.28-.22-.55-.46-.83-.67h0a2,2,0,0,1,.24-.31s0,.05,0,.15.07.13.22.26.23.19.3.17h0a1.52,1.52,0,0,1,.19-.25c.1-.12.14-.11.13-.15s-.26-.28-.41-.35,0,0-.05,0,.09,0,.18-.11l.08-.11,0-.05c.08,0,.19.45.32.44s.06-.06.13-.15c.19-.29.38-.32.39-.46s-.06-.1-.16-.22-.2-.22-.31-.24-.14,0-.15,0,.23-.19.35-.23h.09c.07,0,.09.15.11.18a1.94,1.94,0,0,0,.39.68C394.61,406.63,394.18,407.14,393.76,407.66Z"/><path class="cls-20" d="M395.22,408.42c0,.09-.35.23-.35.23h0l-.92-.76h0s.41-.19.55-.24c.84-.37,1.23-.4,1.22-.53s-.34-.33-.61-.41c-.11,0-.19,0-.19-.07s.27-.34.49-.28.12.11.27.3a6,6,0,0,0,.62.61h0s-.4.21-.73.35c-.62.27-1,.25-1,.37s.26.28.41.35S395.2,408.37,395.22,408.42Z"/><path class="cls-20" d="M392.78,406.85h0l1.5-1.79h0s0-.34-.14-.37-.47,1-.72,1a.15.15,0,0,1-.11-.08c0-.09.07-.19.13-.25a2.3,2.3,0,0,0,.36-.75,1.39,1.39,0,0,0,.13-.67c0-.13-.08-.27-.12-.27s0,.16-.07.29c-.08.55-.28.54-.46,1.19,0,.11-.07.29-.21.36a.55.55,0,0,1-.2,0,.89.89,0,0,0-.68.91C392.31,406.66,392.78,406.85,392.78,406.85Z"/><path class="cls-14" d="M392.76,406.47a.57.57,0,0,1-.15-.13c-.07-.09,0-.25,0-.29a.43.43,0,0,1,.24-.31.73.73,0,0,1,.44.1h0l-.51.63Z"/><path class="cls-21" d="M409.21,402.94a1.71,1.71,0,0,1-.81-.58c-.15-.24-.09-.47-.06-.82a11.44,11.44,0,0,0-.24-2,11.82,11.82,0,0,0-.3-1.57c-.42-1.4-1.32-1.31-3-3.28-.4-.49-1.67-2-2.48-2.28a2.45,2.45,0,0,0-.68-.07,1.7,1.7,0,0,0-.75.24,1.26,1.26,0,0,0-.51.63,1,1,0,0,0-.07.68c.06.16.16.22.18.43s0,.25-.07.3-.26,0-.3-.07a1.5,1.5,0,0,1-.25-.25A1.15,1.15,0,0,0,399,394a1.41,1.41,0,0,0-.75.24,1.43,1.43,0,0,0-.52.87,1,1,0,0,0,.06.82.82.82,0,0,1,.18.31c0,.07.05.2,0,.26s-.29,0-.51-.13-.37-.24-.56-.31a1.08,1.08,0,0,0-.68-.07,1.75,1.75,0,0,0-1,1.12,1.36,1.36,0,0,0,.25.89,2.85,2.85,0,0,1,.37.62s0,.09,0,.12-.06.06-.26,0a2.57,2.57,0,0,1-.62-.39c-.47-.25-1.16.27-1.19.3a1.31,1.31,0,0,0-.57.93,1.29,1.29,0,0,0,.24.75,3.08,3.08,0,0,0,.67.69c.12.1.27.18.25.25s-.12,0-.19.07a2,2,0,0,0-.88.37,1.33,1.33,0,0,0-.45.68,1.5,1.5,0,0,0,0,.76,1.45,1.45,0,0,0,.5.75c.66.6,1.24,1.26,1.93,1.82,1.8,1.51,1.55,2,2.61,2.41a5.66,5.66,0,0,0,1.94.32c.52,0,1,.06,1.57.08a1.58,1.58,0,0,1,.44.06,2.88,2.88,0,0,1,.88.75h0c0,.05,6.58-6.41,6.58-6.41Z"/><path class="cls-26" d="M410.61,388.94h0a49.49,49.49,0,0,1-2.17-7.59,18.28,18.28,0,0,1,.22-8.69,16.27,16.27,0,0,1,5.73-8.38,13,13,0,0,1,6.31-2.77,13.77,13.77,0,0,1,8.5,2c1.89,1,3.38,1.79,4.34,3.57A8.5,8.5,0,0,1,434,373a15,15,0,0,1-5.49,8.49c-1.46,1.12-1.38.65-9.33,3.89C419.17,385.33,417.94,385.85,410.61,388.94Z"/><path class="cls-27" d="M440,384.08s-.62-2.93-1.8-8.38c-.35-1.61-.27-2.46-.65-4.08a9.66,9.66,0,0,0-.84-2.27,4,4,0,0,0-.95-1.37c-.92-.82-2.3-1.09-2.46-.81-.06.1.06.28.14.39.5.71.43,1.16,1.12,3,.88,2.39,2.2,4.92,3.89,9.33C439.07,381.41,440,384.08,440,384.08Z"/><polyline class="cls-28" points="413.7 386.28 415.23 385.71 437.59 377.44"/><path class="cls-5" d="M415.3,384.18,424,381l.28.76a5.53,5.53,0,0,1-.16,3.08,5.39,5.39,0,0,1-2.57,3.53,4.43,4.43,0,0,1-4.36-.11C416.62,387.75,416.42,387.21,415.3,384.18Z"/><path class="cls-5" d="M435.39,376.75,426.68,380l.28.76a5.53,5.53,0,0,0,2.12,2.23,5.39,5.39,0,0,0,4.25,1,4.43,4.43,0,0,0,3.24-2.92C436.71,380.32,436.49,379.78,435.39,376.75Z"/><path class="cls-29" d="M432,433.54c-.83,1.37.74,2.66,3.09,9.45.83,2.39,1,3.59,2,6.13.64,1.62,1.81,4.36,1.81,4.36l11.25-4.16c-.87-2.62-.92-2.76-.92-2.76-1.14-3.4-1.5-4.64-1.51-4.63A21.59,21.59,0,0,0,449,446c.57,1.37,1.47,3.15,1.47,3.15l10.55-3.9s-.67-2.51-.74-2.82a57.9,57.9,0,0,0-3-9.27c-2.3-5.62-2.82-6.21-3.59-6.46-2.56-.83-4.06,3.28-9.43,5.29C438,434.34,433.36,431.27,432,433.54Z"/><path class="cls-30" d="M431.83,433.82a49.27,49.27,0,0,0,5.69,1.61c3.27.59,5.52-.2,8.22-1.18a17.24,17.24,0,0,0,5.07-2.82c1.27-1,4.12-3.34,3.41-5.92l-.31-.83c-.88-2.31-1.41-3.81-1.51-4.1A45,45,0,0,0,445,407.52c-3.45-3.88-6.61-5-8.1-5.37a7,7,0,0,0-8,3,16.05,16.05,0,0,0-1.91,7.22,36.63,36.63,0,0,0,1.55,12.45,94.54,94.54,0,0,0,3.32,9Z"/><path class="cls-12" d="M446.46,393.48a15,15,0,0,0-.38,1.74c-.49,2.52-1.22,5-1.52,7.56a5.66,5.66,0,0,1-.49,1.76,4.75,4.75,0,0,1-.94,1.41c-.72.71-1.17.61-1.64,1.23a2.79,2.79,0,0,0-.52,1.47c-.29,2.67-2.32,18.58-3.15,21.19a8.26,8.26,0,0,0-.33,1.7,4,4,0,0,0,.15,1.92c.11.24.44.82,3.05,1.55a19.1,19.1,0,0,0,5.08.76c1.45,0,2.16,0,2.63-.41.9-.85.9-2.91.91-3.15,0-.08,0-.32,0-.65a7.39,7.39,0,0,1,.18-1.14c.34-1.52,2-13.22,2.38-16.47a20.48,20.48,0,0,1,.31-2.51,4.15,4.15,0,0,0,.22-1.94,3.83,3.83,0,0,0-.37-1,13.66,13.66,0,0,0-.78-1.15,5.74,5.74,0,0,1-.59-1,4.08,4.08,0,0,1-.07-1.55c0-.71.08-1.09.08-1.09.26-2,.74-7.07.8-8.37a9.47,9.47,0,0,0,.08-1.09c0-.32-.05-.58.11-.78s.27-.14.35-.31,0-.32-.11-.68-.14-.33-.08-.39.29.13.42.06.26-.81-.11-1.26a.91.91,0,0,0-.32-.26,4.83,4.83,0,0,0-1.93-.36,9.38,9.38,0,0,0-2.45-.29,1.07,1.07,0,0,0-.62.27c-.25.23-.43.68-.28.9s.14.11.19.25a.71.71,0,0,1,0,.36c-.07.14-.13.13-.18.27a.69.69,0,0,0,0,.52l.12.16C446.79,392.94,446.52,393.38,446.46,393.48Z"/><path class="cls-14" d="M440.3,414.22a1,1,0,0,0,.65,0,.46.46,0,0,0,.25-.19,5.57,5.57,0,0,1,2.26-.92,8.73,8.73,0,0,1,5.39.8,4,4,0,0,1,.47.29,5.64,5.64,0,0,1,1.57,1.32.29.29,0,0,0,.12.16.3.3,0,0,0,.15,0,.81.81,0,0,1,.48.22h0l-1,7.24h0s-2.81,0-5.6-.39c-.67-.09-1.08-.16-5.77-1.08h0s1-7.5,1-7.5Z"/><path class="cls-15" d="M438.59,426.24c.11-.12.39,0,.44,0,.38.12,2,.39,5.19.92a45.46,45.46,0,0,0,5.49.53s.19,0,.21,0,0,0,0,.07a.47.47,0,0,1,0,.15c-.07.41-.12.8-.19,1.23a.42.42,0,0,1,0,.15c-.08.59-.09.93-.21,1.44-.05.24-.07.29-.13.35-.23.24-.69.14-.82.1-1.65-.37-3.37-.21-5-.45s-3.24-.86-4.9-.94c-.1,0-.53,0-.62-.23a.5.5,0,0,1,0-.29,10.11,10.11,0,0,0,.29-1.43c0-.19.12-.7.15-1a.52.52,0,0,1,0-.15C438.49,426.44,438.52,426.31,438.59,426.24Z"/><path class="cls-16" d="M446.59,391.15c.14.21.47.14,1.08.16a12.52,12.52,0,0,1,1.3.12c1.16.15,2.25.51,2.7.54l.21,0c.28.06.34.16.41.15s.19-.47.11-.78a1.15,1.15,0,0,0-.28-.55,1.88,1.88,0,0,0-1.11-.45c-.61-.13-.66,0-1.37-.13s-.6-.18-1.21-.25a2.15,2.15,0,0,0-1,0,1.26,1.26,0,0,0-.82.54A.64.64,0,0,0,446.59,391.15Z"/><circle class="cls-17" cx="446.33" cy="413.46" r="2.34" transform="translate(-28.29 794.12) rotate(-81.54)"/><circle class="cls-18" cx="446.28" cy="413.42" r="1.87" transform="translate(-28.29 794.03) rotate(-81.54)"/><path class="cls-19" d="M446.55,393.35c.3-.39,1.3.22,2.8.34,1.11.09,2.1-.1,2.23.25a3.1,3.1,0,0,1,0,.44c0,.12,0,.38,0,.58,0,.86-.4,5.14-.4,5.14h0l-.53,4h0s0,.16,0,.65l-3.07-.42-3.22-.45a4.11,4.11,0,0,1,.1-.42c.07-.3.1-.42.1-.44.14-.59.32-2.06.56-3.29.06-.28,0-.09.21-1s.73-3.37.92-4.26c0,0,.06-.28.18-.71C446.49,393.53,446.54,393.37,446.55,393.35Z"/><path class="cls-20" d="M441,416.39a.59.59,0,0,1,.33.2.7.7,0,0,1-.1,1s-.08.05-.07.07,0,0,.07,0,.16.12.18.17a1.17,1.17,0,0,1-.19,1.23s-.24.17-.64.42l-.49.3.43-3.38A.86.86,0,0,1,441,416.39Z"/><path class="cls-14" d="M440.72,416.76h0l-.11.78h0a.78.78,0,0,0,.38-.16.43.43,0,0,0,.15-.41.33.33,0,0,0-.18-.17A.56.56,0,0,0,440.72,416.76Z"/><path class="cls-14" d="M440.56,417.9h0l-.18,1.14h0a1.2,1.2,0,0,0,.57-.35.9.9,0,0,0,.15-.41.43.43,0,0,0,0-.29.37.37,0,0,0-.35-.13Z"/><path class="cls-20" d="M441.85,416.57l.42.06c.26.06.43.08.55.24a.67.67,0,0,1,.15.46.69.69,0,0,1-.3.55c-.1.06-.21,0-.24.11s0,.12,0,.22a1.94,1.94,0,0,0,.33.64c.12.11.21.12.18.17a.39.39,0,0,1-.44,0c-.1-.06-.14-.17-.23-.4a2.81,2.81,0,0,1-.15-.46.19.19,0,0,0-.06-.16.16.16,0,0,0-.15,0c-.07,0-.08.11-.13.35-.08.43-.11.56,0,.65s.06.06.07.07-.45.09-.45.09S441.85,416.57,441.85,416.57Z"/><path class="cls-14" d="M442.11,416.89l.29,0a.39.39,0,0,1,.18.17.5.5,0,0,1,0,.44.32.32,0,0,1-.17.18.41.41,0,0,1-.22,0l-.21,0S442.11,416.89,442.11,416.89Z"/><path class="cls-20" d="M443.35,416.85h0l1.23.19h0s.1.32,0,.37-.11,0-.2-.11c-.25-.15-.61-.24-.72-.11s0,.1,0,.36,0,.11,0,.15.36,0,.58,0a.1.1,0,0,1,.07,0s0,.09,0,.29,0,.12,0,.15a0,0,0,0,1-.07,0s-.49-.26-.64-.16,0,.08,0,.29-.11.36-.06.42.56.15.88,0c.07,0,.13-.07.16-.06s-.05.46-.22.48-.06,0-.07,0A3.87,3.87,0,0,0,443,419h0S443.35,416.85,443.35,416.85Z"/><path class="cls-20" d="M444.92,417.09h0l1.23.19h0s.1.32,0,.37-.11,0-.2-.11c-.25-.15-.61-.24-.72-.11s0,.1,0,.36,0,.11,0,.15.36,0,.58,0a.1.1,0,0,1,.07,0s0,.09,0,.29,0,.12,0,.15a0,0,0,0,1-.07,0s-.49-.26-.64-.16,0,.08,0,.29-.11.36-.06.42.56.15.88,0c.07,0,.13-.07.16-.06s-.05.46-.22.48-.06,0-.07,0a3.87,3.87,0,0,0-1.15-.09h0S444.92,417.09,444.92,417.09Z"/><path class="cls-20" d="M448.22,417.59l1.14.18h0a2.4,2.4,0,0,1-.06.42s0-.08-.06-.16-.15-.08-.35-.13-.32,0-.37,0a0,0,0,0,0,0,0s0,.12,0,.33-.05.18,0,.21.42.1.57.09.06,0,.07,0-.07.09-.11.2,0,.11,0,.15,0,.06,0,.07-.43-.3-.55-.24,0,.09,0,.21c0,.39-.18.53-.1.64a.82.82,0,0,0,.28.12.75.75,0,0,0,.42.06c.09,0,.13-.07.16-.06s-.13.31-.21.42a.14.14,0,0,1-.07.07c-.09,0-.17-.08-.2-.11a2.13,2.13,0,0,0-.75-.4C448,419,448.11,418.31,448.22,417.59Z"/><path class="cls-20" d="M446.44,417.68c-.07-.07.21-.42.21-.42h0l1.29.18h0l-.36.53c-.58.81-.91,1.06-.84,1.19s.51.13.8,0c.12,0,.19-.07.22,0s-.06.48-.3.55-.17,0-.41-.15a8,8,0,0,0-.92-.22h0s.26-.44.47-.73c.44-.6.79-.79.72-.92s-.42-.1-.57-.09S446.48,417.73,446.44,417.68Z"/><path class="cls-20" d="M449.57,417.78h0l-.38,2.5h0s.23.29.32.26-.12-1.19.12-1.3a.16.16,0,0,1,.15,0c.09.07,0,.22,0,.29a2.49,2.49,0,0,0,.09.89,1.41,1.41,0,0,0,.26.7c.1.1.24.21.27.18s0-.16-.09-.31c-.23-.56,0-.66-.24-1.35,0-.13-.09-.31,0-.44a.29.29,0,0,1,.16-.12.93.93,0,0,0,.11-1.22C450.11,417.68,449.57,417.78,449.57,417.78Z"/><path class="cls-14" d="M449.81,418.11a.42.42,0,0,1,.21,0,.43.43,0,0,1,.19.25.43.43,0,0,1-.06.42.75.75,0,0,1-.46.15h0l.12-.86Z"/></g></g><g id="Layer_2-3" data-name="Layer 2"><g id="Layer_1-2-3" data-name="Layer 1-2"><path class="cls-3" d="M722.49,459.64a1.58,1.58,0,0,1-.48-2.16l48.3-75.54a1.58,1.58,0,0,1,2.16-.48L857.85,436a1.58,1.58,0,0,1,.48,2.16L810,513.75a1.58,1.58,0,0,1-2.16.48Z"/><path class="cls-3" d="M857.63,436.4A1.15,1.15,0,0,1,858,438l-48.3,75.54a1.15,1.15,0,0,1-1.59.35L722.72,459.3a1.15,1.15,0,0,1-.35-1.59l48.3-75.54a1.15,1.15,0,0,1,1.59-.35l85.37,54.58m.44-.69L772.7,381.12a2,2,0,0,0-2.73.6l-48.3,75.54a2,2,0,0,0,.6,2.73l85.37,54.58a2,2,0,0,0,2.73-.6l48.3-75.54A2,2,0,0,0,858.07,435.7Z"/><polygon class="cls-31" points="786.29 421.67 816 440.67 813.8 444.12 812.23 443.11 799.24 463.44 772.96 446.64 785.76 426.62 783.89 425.42 786.29 421.67"/><polygon class="cls-32" points="770.73 464.6 759.98 478 775.92 488.19 783.56 472.81 770.73 464.6"/><path class="cls-10" d="M785.29,428.07a19.25,19.25,0,0,1,3.77-2.44,18.48,18.48,0,0,1,5.92-2.38,15,15,0,0,1,6.8.38,13.47,13.47,0,0,1,6.57,4.2,14.09,14.09,0,0,1,3,7.66,20.92,20.92,0,0,1-1.85,11.16c-.77,1.88-2.79,6.88-7.22,9.92a21.61,21.61,0,0,1-5.1,2.47,12.9,12.9,0,0,1-3.07.68c-2.22.14-3.54-.83-9-4.45-5-3.27-6.09-3.91-6.91-5.75a10.08,10.08,0,0,1-.7-4.42c-.08-6.33,3.06-11.05,4.38-13.06A18.4,18.4,0,0,1,785.29,428.07Z"/><path class="cls-10" d="M770.64,448.23s-1.33,2-1.8,2.82a10.91,10.91,0,0,0-.9,6.92,13.76,13.76,0,0,0,2.7,6.13c1,1.46,5.19,7.45,12.93,8.72,2,.33,6.57,1.07,10.16-1.42a30.93,30.93,0,0,0,5-5.14h0s-28.14-18-28.14-18Z"/><path class="cls-33" d="M769.49,447.94s.64-.55.92-.74a3.61,3.61,0,0,1,2-.45c2.32.07,11.65,6.16,13.74,7.45s11.58,7,13.06,9.23a3.64,3.64,0,0,1,.65,1.74,6.33,6.33,0,0,1-.38,2Z"/><path class="cls-11" d="M813.16,408.69a13.24,13.24,0,0,0-4.37-1.11,11.65,11.65,0,0,0-7,2.31c-2.6,1.8-2.3,2.87-6.69,9-2.82,4-4.17,5.26-5.48,8.57a10.27,10.27,0,0,0-.81,5.64,10.53,10.53,0,0,0,1.58,3.81c.75,1.18,4.4,6.55,10,6.66a12.05,12.05,0,0,0,7.68-2.84c2.49-2,3.19-3.89,5.91-8.29,3.48-5.6,4.34-5.78,5.4-8.91a12.39,12.39,0,0,0,.81-6.59,11.51,11.51,0,0,0-3.87-6.49A13.3,13.3,0,0,0,813.16,408.69Z"/><path class="cls-24" d="M808.85,416a10.8,10.8,0,0,0-3.48-.92,8.77,8.77,0,0,0-5.54,1.72c-2,1.36-1.8,2.17-5.18,6.94-2.2,3.07-3.23,4-4.22,6.6a7.75,7.75,0,0,0-.57,4.39,8.1,8.1,0,0,0,1.31,3c.61.94,3.59,5.19,8,5.33a8.54,8.54,0,0,0,3-.46,10.3,10.3,0,0,0,3-1.64c1.95-1.51,2.48-3,4.58-6.37,2.67-4.32,3.36-4.46,4.16-6.87a9.63,9.63,0,0,0,.56-5.14,9.2,9.2,0,0,0-3.17-5.11A10.46,10.46,0,0,0,808.85,416Z"/><path class="cls-22" d="M804.74,411.48a8.73,8.73,0,0,0-1,.41c-1.82.89-3,3.79-4.89,6.91-1.43,2.45-1.61,2.24-1.91,3.26a9.26,9.26,0,0,0,.39,6.12,8.63,8.63,0,0,0,7.47,5,9,9,0,0,0,5.72-2.21,10.79,10.79,0,0,0,1.48-1.85c4.46-6.18,4.73-7.19,4.83-8a8.07,8.07,0,0,0-.74-4.17c-2.07-4.72-7.55-5.73-9-5.75A8.8,8.8,0,0,0,804.74,411.48Z"/><path class="cls-7" d="M802.23,417.29a1.68,1.68,0,0,1,1.09-.24,2.21,2.21,0,0,1,1.75,1.12,1.68,1.68,0,0,1,.24,1.09,4.72,4.72,0,0,0-.61-1,2.89,2.89,0,0,0-1.32-.84A5.36,5.36,0,0,0,802.23,417.29Z"/><path class="cls-7" d="M809.9,422.19A1.68,1.68,0,0,1,811,422a2.21,2.21,0,0,1,1.75,1.12,1.68,1.68,0,0,1,.24,1.09,4.72,4.72,0,0,0-.61-1,2.89,2.89,0,0,0-1.32-.84A5.36,5.36,0,0,0,809.9,422.19Z"/><circle class="cls-7" cx="803.04" cy="420.14" r="0.91" transform="translate(16.49 870.39) rotate(-57.41)"/><circle class="cls-7" cx="810.05" cy="424.62" r="0.91" transform="translate(15.95 878.36) rotate(-57.41)"/><path class="cls-8" d="M800.81,422.88s0,1.06,0,1.52a5.75,5.75,0,0,0,.55,2.5,4.38,4.38,0,0,0,3.3,2.11,5,5,0,0,0,2-.25,11.76,11.76,0,0,0,1.87-1Z"/><path class="cls-9" d="M801,425.47c.13-.15.36-.14.71-.16a3,3,0,0,1,1.59.41,5.58,5.58,0,0,1,2.63,2.62c.05.13.11.25.08.34-.18.49-2.12.53-3.47-.36C801.35,427.51,800.66,425.91,801,425.47Z"/><path class="cls-10" d="M801.28,424.1l5.93,3.79.43-.67-5.93-3.79Z"/><path class="cls-22" d="M799.17,430.77c-.32.07-.43.47-.76,1.47a36,36,0,0,0-1.18,3.53c-.37,1.58-.25,1.7-.18,1.75s.42-.2,1.27-1,1.65-1.7,2.53-2.49,1.26-1,1.16-1.35-.57-.33-1.53-1S799.5,430.71,799.17,430.77Z"/><path class="cls-34" d="M803.6,408.89c-.6.87.28,2.41,1,3.55,1.86,3.06,2.78,4.61,4.81,6.48,2.63,2.43,7.9,6.4,9.57,5a2,2,0,0,0,.43-.67,11.19,11.19,0,0,0,.67-6.38,11.39,11.39,0,0,0-3.15-5.71,13.44,13.44,0,0,0-9.09-3.66,9.88,9.88,0,0,0-3.26.72C803.9,408.56,803.71,408.71,803.6,408.89Z"/><path class="cls-22" d="M799.7,435c.46.59,1.17,1.51,2,2.64,1.41,1.86,2.12,2.78,2.35,3.18,1.57,2.75.71,6.79-.63,9.36-2.75,5.31-9.44,8-10.88,6.7a1.72,1.72,0,0,1-.15-2c.6-1,2.18-.66,3.5-1.07,3.67-1.12,5.17-8.08,4.47-8.45s-4.47,4.2-6.53,9.48c-.5,1.3-.58,3.76-2.42,6a5.59,5.59,0,0,1-2,1.73c-4,1.77-10.88-3.85-10.33-6.8a8.48,8.48,0,0,1,.79-1.88,15.23,15.23,0,0,1,1.5-2.44c.67-.92,1.22-1.94,1.84-2.91a82.82,82.82,0,0,0,5-10c-2.17,1.71-5.53,4.4-9.76,7.89-2.27,1.87-3.14,2.61-3.6,2.35-.87-.5-.23-4.39,6.4-19.25,0,0-2.18-2.55,1.5-4.36,0,0,.4-3.5,1.51-3.67s-.25,3.6-.25,3.6,1.72-2.29,2.32-2.37-1.21,2.94-1.21,2.94.13,3.25-1.44,4.27S780,441,780,441s8.49-10.34,13.75-8l4.29.88C798.59,434.29,799.14,434.64,799.7,435Z"/><path class="cls-35" d="M783.27,437c-1,1.86.28,4.82,1.27,4.86.35,0,.34-.35,1.55-1.38A23.76,23.76,0,0,1,788,439h0s-.76,1.68-.84,1.83a44.09,44.09,0,0,1-2.43,4.84c-.47.77-1.52,2.22-3.6,5.11-.64.88-.7,1-.76,1.19-.83,3.38,8.54,10.11,12,8,.81-.48.43-.92,2.47-6.5a22.37,22.37,0,0,1,4.19-7.08c.44-.48,1-1,1.24-.89s0,1.76-.57,3-.95,1.39-.84,1.83c.25.92,2.44,1.58,3.87.79a3.62,3.62,0,0,0,1.46-1.77,4.25,4.25,0,0,0,.23-.87,27.11,27.11,0,0,0,.42-2.76,10.32,10.32,0,0,0-.55-4.4c-.38-1-1.08-2.9-2.58-3.33-.47-.15-.48,0-1.66,0a7.07,7.07,0,0,1-3-.57,5.67,5.67,0,0,1-2.41-2.56c-.51-1-.33-1.41-.82-1.87-.8-.74-2.09-.52-3.15-.33-2.09.36-3.51,1.3-5.93,2.94C783.7,436.37,783.46,436.63,783.27,437Z"/><path class="cls-36" d="M779.12,455.61s-2.92,1.72-5.15,3c-5.31,3-5,2.55-5.75,3.17s-1,1.14-4,7.4c-3.09,6.46-3.71,7.67-5.5,8.61-.91.47-1.72.68-1.81,1.39-.2,1.73,4.06,5,6.66,4.45,1-.22,1.34-.93,2.73-3.54,3.61-6.77,2.37-4,4-7.4,2.41-4.93,2.38-5.38,3.48-6.18,1.49-1.08,2-.56,5.54-2.52,1.45-.8,2.36-1.4,3-1s.53,1.32.5,2.86c-.12,5.38.17,4.78,0,5.85s-.44,1.42-3.75,6.6c-4.28,6.69-4.11,6.49-4.26,6.67-1.39,1.59-2.16,2.1-2,3.19.25,2.29,4.14,4.94,5.82,4.31.77-.29.89-1.17,1.08-2.05.41-1.87,2.13-4.37,5.53-9.38,3-4.41,3.48-4,4-5.86.33-1.28,0-1,.33-7,.13-2.4.36-5.64.36-5.64Z"/><path class="cls-22" d="M794.73,454a15.09,15.09,0,0,0-6.62.26,18.76,18.76,0,0,0-3.58,1.62,13.19,13.19,0,0,1-1.9,1.13,1.75,1.75,0,0,1-.68.15c-.86,0-1.2-.85-1.71-.7a.64.64,0,0,0-.44.69c.07.22.38.2.92.39.21.07,1.26.45,1.25.8,0,.06,0,.15-1.35.89a1,1,0,0,0-.49.47c-.08.18-.12.49,0,.59.38.3,2.15-1.4,2.21-1.32a5.7,5.7,0,0,1-.85,1c-.39.42-.65.66-.62,1,0,0,0,.26.19.32s.48-.16.54-.24a1.71,1.71,0,0,0,.36-.56,2.09,2.09,0,0,1,1.08-1.07s-.37.49-.89,1.39a1.44,1.44,0,0,0-.25,1c0,.07.07.3.19.32s.48-.42.58-.61a8.24,8.24,0,0,0,.39-.92c.19-.42.47-.85.53-.83s-.13.56-.15,1.47c0,.35,0,.63.15.68a.27.27,0,0,0,.23-.05c.45-.28.12-1.17.51-2a2,2,0,0,1,.76-.88,11.93,11.93,0,0,1,2.53-1.51c1.67-.71,2.51-1.05,3.14-.93a17.4,17.4,0,0,0,2.53.64h.59Z"/></g></g><path class="cls-5" d="M676.17,453l-77,25.29a13.49,13.49,0,0,1-11.85-6L561.59,394a13.49,13.49,0,0,1,6-11.85l77-25.29a13.49,13.49,0,0,1,11.85,6l25.76,78.38a12.7,12.7,0,0,1-1.43,6.71A14,14,0,0,1,676.17,453Z"/><path class="cls-10" d="M649,386.85l-10.33,3.39a4.22,4.22,0,0,1-3.51-.41,3.66,3.66,0,0,1-1.4-1.88l-3.62-11a2.72,2.72,0,0,1,.24-1.64,2.1,2.1,0,0,1,1.18-1.17l11.73-3.86a4.94,4.94,0,0,1,2.57.71,2.72,2.72,0,0,1,1.17,1.18l3.62,11a4.94,4.94,0,0,1-.71,2.57A1.36,1.36,0,0,1,649,386.85Z"/><circle class="cls-10" cx="621.87" cy="417.59" r="20.26" transform="translate(-99.28 215.01) rotate(-18.19)"/><path class="cls-10" d="M583,420.23l7.51-2.47a33.27,33.27,0,0,0,6.8,18.31c7.15,9.09,20.87,16,34.95,11.4a31.67,31.67,0,0,0,21.13-28.27,46.93,46.93,0,0,0-2-10.79s-.54-1.64-3.87-9.39l8.21-2.7,13.57,41.3a8.82,8.82,0,0,1-.41,3.51h0a10.67,10.67,0,0,1-1.65,2.1l-65,22.14h0a10.37,10.37,0,0,1-3.74-1.11,15.12,15.12,0,0,1-2.4-4.93h0C595.84,459.42,583,420.23,583,420.23Z"/><path class="cls-5" d="M265.29,517.54l-56.85-28.7a10.6,10.6,0,0,1-3.26-9.91L234.41,421a10.6,10.6,0,0,1,9.91-3.26l56.85,28.7a10.6,10.6,0,0,1,3.26,9.91L275.2,514.28a10,10,0,0,1-4.53,2.93A11,11,0,0,1,265.29,517.54Z"/><path class="cls-10" d="M286.94,465.61l-7.63-3.85a3.32,3.32,0,0,1-1.73-2.18,2.87,2.87,0,0,1,.27-1.82l4.11-8.15a2.14,2.14,0,0,1,1-.78,1.65,1.65,0,0,1,1.3,0l8.67,4.38a3.88,3.88,0,0,1,1,1.83,2.14,2.14,0,0,1,0,1.3l-4.11,8.15a3.88,3.88,0,0,1-1.83,1A1.07,1.07,0,0,1,286.94,465.61Z"/><circle class="cls-10" cx="254.81" cy="467.65" r="15.92" transform="translate(-277.5 484.33) rotate(-63.21)"/><path class="cls-10" d="M231.7,447.5l5.55,2.8a26.15,26.15,0,0,0-6.39,14c-1.08,9,2.7,20.5,13.1,25.75a24.89,24.89,0,0,0,27.45-4,36.89,36.89,0,0,0,4.89-7.1s.61-1.21,3.07-7.37l6.07,3.06L270,505.14a6.93,6.93,0,0,1-2.18,1.73h0a8.39,8.39,0,0,1-2.08.25l-48.45-23.81h0a8.15,8.15,0,0,1-1.47-2.7,11.88,11.88,0,0,1,1.41-4.08h0C217.09,476.45,231.7,447.5,231.7,447.5Z"/><path class="cls-5" d="M514.24,536.61l-38.47-29.77a8.1,8.1,0,0,1-1-7.91l30.32-39.17a8.1,8.1,0,0,1,7.91-1l38.47,29.77a8.1,8.1,0,0,1,1,7.91L522.14,535.6a7.62,7.62,0,0,1-3.82,1.54A8.38,8.38,0,0,1,514.24,536.61Z"/><path class="cls-10" d="M538,500.81l-5.16-4a2.54,2.54,0,0,1-1-1.88,2.19,2.19,0,0,1,.47-1.33l4.27-5.51a1.63,1.63,0,0,1,.9-.43,1.26,1.26,0,0,1,1,.19l5.86,4.54a3,3,0,0,1,.51,1.52,1.63,1.63,0,0,1-.19,1l-4.27,5.51a3,3,0,0,1-1.52.51A.82.82,0,0,1,538,500.81Z"/><circle class="cls-10" cx="513.61" cy="497.68" r="12.16" transform="matrix(0.61, -0.79, 0.79, 0.61, -194.32, 599.27)"/><path class="cls-10" d="M499.2,479.22l3.75,2.9a20,20,0,0,0-6.82,9.54c-2.12,6.61-1,15.77,6.09,21.21a19,19,0,0,0,21.17,1,28.18,28.18,0,0,0,4.7-4.62s.64-.82,3.37-5.08l4.11,3.18-16,20.64a5.29,5.29,0,0,1-1.88,1h0a6.41,6.41,0,0,1-1.6-.11L483.23,504h0a6.23,6.23,0,0,1-.71-2.24,9.08,9.08,0,0,1,1.64-2.85h0C484,498.8,499.2,479.22,499.2,479.22Z"/><path class="cls-2" d="M561.41,298s-6.87,6.67-12.92,13.69c-9.25,10.71-9.28,13.75-9.12,15.21.38,3.48,2.86,7.29,6.08,8,5.09,1.1,10.73-5.87,13.31-11,5.59-11.21,2.66-25.85,2.66-25.85Z"/></g></g></svg>
