<svg xmlns="http://www.w3.org/2000/svg" viewBox="0 0 638.8 568.1"><defs><style>.cls-1{fill:#e9eced;}.cls-2{fill:#757575;}.cls-3{fill:#6d6769;}.cls-4{fill:#202532;}.cls-5{fill:#06c918;}.cls-6{fill:#e50a15;}.cls-7{fill:#efef45;}.cls-8{fill:#350fd3;}.cls-9{fill:#312abc;}.cls-10{fill:#37a537;}.cls-11{fill:#e81f33;}.cls-12{fill:#feee95;}.cls-13{fill:#fad9b0;}.cls-14{fill:#f4912d;}.cls-15{fill:#f2c89c;}.cls-16{fill:#191d26;}.cls-17{fill:#b4dca7;}.cls-18{fill:#c46e2d;}.cls-19{fill:#eaac41;}.cls-20{fill:#c07d08;}.cls-21{fill:#fecda4;}.cls-22{fill:#333;}.cls-23{fill:#962d69;}.cls-24{fill:#72263c;}.cls-25{fill:#fff;}.cls-26{fill:#edb143;}.cls-27{fill:#ffc79f;}.cls-28{fill:#d17a2c;}.cls-29{fill:#72665e;}.cls-30{fill:#b19e8f;}.cls-31{fill:#73b5c9;}.cls-32{fill:#89cce5;}.cls-33{fill:#f2b186;}.cls-34{fill:#a92d2b;}.cls-35{fill:#952819;}.cls-36{fill:#c95b6e;}.cls-37{fill:#f5f7f7;}</style></defs><title>babysitting</title><g id="Layer_2" data-name="Layer 2"><g id="Layer_1-2" data-name="Layer 1"><path class="cls-1" d="M12,565.5A9.56,9.56,0,0,1,2.5,556V12A9.56,9.56,0,0,1,12,2.5H626.8a9.56,9.56,0,0,1,9.5,9.5V556a9.56,9.56,0,0,1-9.5,9.5Z"/><path class="cls-1" d="M626.8,5a7,7,0,0,1,7,7V556a7,7,0,0,1-7,7H12a7,7,0,0,1-7-7V12a7,7,0,0,1,7-7H626.8m0-5H12A12,12,0,0,0,0,12V556a12,12,0,0,0,12,12H626.8a12,12,0,0,0,12-12V12a12,12,0,0,0-12-12Z"/><path class="cls-2" d="M12,567.4c-5.2,0-9.5-1.1-9.5-2.4V426.3c0-1.3,4.3-2.4,9.5-2.4H626.8c5.2,0,9.5,1.1,9.5,2.4V565c0,1.3-4.3,2.4-9.5,2.4Z"/><path class="cls-2" d="M626.8,424.5c3.9,0,7,.8,7,1.8V565c0,1-3.1,1.8-7,1.8H12c-3.9,0-7-.8-7-1.8V426.3c0-1,3.1-1.8,7-1.8H626.8m0-1.3H12c-6.6,0-12,1.4-12,3.1V565c0,1.7,5.4,3.1,12,3.1H626.8c6.6,0,12-1.4,12-3.1V426.3c0-1.7-5.4-3.1-12-3.1Z"/><path class="cls-3" d="M414.4,393.8"/><path class="cls-3" d="M343.6,373.4"/><rect class="cls-4" x="336.5" y="361.1" width="117.3" height="5.6"/><path class="cls-3" d="M459,363H327.7a4.23,4.23,0,0,1-4.2-4.2V355a4.23,4.23,0,0,1,4.2-4.2H458.9a4.23,4.23,0,0,1,4.2,4.2v3.8A4.08,4.08,0,0,1,459,363Z"/><polygon class="cls-3" points="343.6 366.6 332.7 426.3 340.9 426.3 361.2 366.6 343.6 366.6"/><polygon class="cls-3" points="446.8 366.6 457.7 426.3 449.4 426.3 429.1 366.6 446.8 366.6"/><rect class="cls-5" x="350.3" y="342.2" width="8.5" height="8.5"/><rect class="cls-6" x="354.7" y="335" width="8.5" height="8.5"/><rect class="cls-7" x="351.8" y="326.8" width="8.5" height="8.5"/><rect class="cls-8" x="361.2" y="343.4" width="8.5" height="8.5"/><rect class="cls-9" x="385.12" y="342.17" width="8.5" height="8.5" transform="translate(-12.56 14.65) rotate(-2.12)"/><rect class="cls-10" x="390.57" y="334.78" width="8.5" height="8.5" transform="translate(-124.09 378.48) rotate(-45)"/><rect class="cls-11" x="396.97" y="342.22" width="8.5" height="8.5" transform="translate(-12.55 15.09) rotate(-2.12)"/><path class="cls-12" d="M54.1,229.8v27s6.5,6.7,11.8,6.7,12.2-6.7,12.2-6.7l-.8-27H54.1Z"/><polygon class="cls-13" points="306.8 400 307.8 458.8 316.2 459.4 320.5 401 306.8 400"/><polyline class="cls-4" points="332.4 354.7 329.2 409.3 305.9 407.1 304.8 349.2 332.4 353.2"/><path class="cls-14" d="M258.6,340.8s46.6,38.1,88,4.6c0,0-10.2-34.6-8.6-36.7S327.1,251,327.1,251l-8.7-2.6-21,4L268.1,258s6.1,44.5,3.4,47.8S258.6,340.8,258.6,340.8Z"/><path class="cls-14" d="M320.4,256.7s17,0,26,4.9,20.4,25.3,20.4,25.3,6.5,11.9,5.7,15.5-11.4,7.8-14.7,9.4-22.9,7.8-22.9,7.8L323,322.5l-4.9-10.6,21.6-7.5,16-5.6L341,287.6l-11-10.1Z"/><polygon class="cls-15" points="291.5 398.9 296.8 457.5 305.3 457.5 305.3 398.9 291.5 398.9"/><polyline class="cls-16" points="280.3 355.4 283.5 409.9 306.8 407.8 307.9 349.8 280.3 353.8"/><path class="cls-17" d="M311.6,394.7"/><path class="cls-18" d="M297.3,252.4l7.3,106.8s-40.6-5.3-46-18.4c0,0,9.5-36.1,12.8-35S268,258,268,258Z"/><path class="cls-19" d="M341.8,257.3c2.9-8.8.9-12,.8-29.2-.1-17.6,2-21.1-.8-31.5-2.7-10.1-6.7-14.3-7.7-15.3-5.9-6-13.2-7.5-17.7-8.4a39.94,39.94,0,0,0-20,.8c-3.8,1.2-9.3,2.8-13.8,7.7-2.2,2.3-5,6.4-6.9,18.4-1.8,11.1-.2,13.1-.8,28.4-.6,15.6-2.5,19.4,0,28.4"/><path class="cls-20" d="M334.2,263.5c1.4-3.6,1.6-6.6,1.5-12.3-.1-12.1-1.1-17.7-1.5-26.9-.7-14.5.9-14.7-.8-17.7-7.6-12.9-42.7-12.6-49.9.8-1.1,2-.5,2.3-.8,13-.4,14.7-1.6,20.2-.8,33"/><path class="cls-21" d="M287.4,190.6a20.84,20.84,0,0,0-1.9,2.7c-3.1,5.1-1.5,14.2-1.2,24.9.3,8.4-.4,8.1.4,11.1,2.5,9.2,10,14.1,10.7,14.6,7.7,4.8,18.3,5.5,26.5.4a26.74,26.74,0,0,0,10.7-14.6,36,36,0,0,0,.8-6.9c1.3-22.4.3-25.4-.8-27.6a24.7,24.7,0,0,0-8.4-9.2c-12.6-8.4-27.8-2.3-31.5,0A23.68,23.68,0,0,0,287.4,190.6Z"/><path class="cls-22" d="M290.4,209c-.1-.2.8-1.5,2.3-2.3a6.58,6.58,0,0,1,6.1,0,4.92,4.92,0,0,1,2.3,2.3,13.55,13.55,0,0,0-3.1-1.5,8.23,8.23,0,0,0-4.6,0C291.6,208,290.6,209.1,290.4,209Z"/><path class="cls-22" d="M317.3,209c-.1-.2.8-1.5,2.3-2.3a6.58,6.58,0,0,1,6.1,0A4.92,4.92,0,0,1,328,209a13.55,13.55,0,0,0-3.1-1.5,8.23,8.23,0,0,0-4.6,0A14.14,14.14,0,0,0,317.3,209Z"/><circle class="cls-22" cx="297" cy="214.8" r="2.7"/><circle class="cls-22" cx="321.5" cy="214.8" r="2.7"/><path class="cls-23" d="M294.7,227s1.5,2.6,2.2,3.6a15.07,15.07,0,0,0,5.1,5.1,12,12,0,0,0,10.9,0,12.82,12.82,0,0,0,4.4-3.6,25.63,25.63,0,0,0,2.9-5.1H294.7Z"/><path class="cls-24" d="M299.1,232.8c.1-.5.6-.9,1.5-1.5a9.57,9.57,0,0,1,4.4-1.5c1.7-.2,6.3-.5,10.2,2.2.3.2.7.4.7.7.3,1.4-4.2,4.5-8.8,4.4C303,237.1,298.9,234.5,299.1,232.8Z"/><path class="cls-25" d="M297.6,229.2h19.7V227H297.6Z"/><path class="cls-21" d="M305.5,254.7c.7-2.7,1.2-3.6.6-4.2s-1.6,0-4.3,0c-2.3,0-3.1-.5-3.7,0s-.3,1.5.3,3.9"/><path class="cls-26" d="M275.1,206.7c.8,2.5,10.6,2.4,18.4-.8,2.9-1.2,7-2.8,10-6.9s3.1-8.4,4.6-8.4,1.8,4.4,5.4,9.2a24.79,24.79,0,0,0,6.9,6.1c8.8,5.2,21.7,3.9,23,0,.2-.4.1-.8,0-1.5-.8-5.1-1.1-7.7-2.3-10.7-1.8-4.7-3-8.1-6.1-11.5-4.2-4.7-9.1-6.5-12.3-7.7a39.64,39.64,0,0,0-15.3-2.3c-4,.1-9.3.2-15.3,3.1a25.44,25.44,0,0,0-10,7.7,29.81,29.81,0,0,0-4.6,10c-.2.7-.7,2.8-1.5,6.9,0,0-.3,1.5-.8,6.1C275,206.4,275,206.5,275.1,206.7Z"/><path class="cls-27" d="M340.6,287.6s1.2-2.2,2.6-2.2c0,0,.4-4.7,1.4-4.7s.7,4.2.7,4.2,4.9-3.4,5.7-2.5-4.6,3.2-4.6,3.2l4.7-1.5s1.3.6.6,1.1a38.85,38.85,0,0,1-4.8,1.8,42.94,42.94,0,0,1,5-.7c0,.2.9.5.5.7s-5,.8-5,.8,3.7.1,3.7.6a1,1,0,0,1-.5,1,20.42,20.42,0,0,1-3.5,0,10.09,10.09,0,0,1-3.8,1.1C341.5,290.5,340.6,287.6,340.6,287.6Z"/><path class="cls-27" d="M327.3,316.2s-20.4-4.1-20.2-2,13.7,4.3,13.7,4.3-13.3-1.8-13.7,0,12.1,1.8,12.1,1.8-12.7,2-10.8,2.9,9-1,9-1-5.2,2.5-4.3,3.3,12.4-4.5,12.4-4.5v-6.1Z"/><path class="cls-27" d="M283.5,322.7s20.4-4.1,20.2-2S290,325,290,325s13.3-1.8,13.7,0-12.1,1.8-12.1,1.8,12.7,2,10.8,2.9-9-1-9-1,5.2,2.5,4.3,3.3-12.4-4.5-12.4-4.5v-6.1Z"/><path class="cls-28" d="M295.4,254.9s-17,0-26,4.9S249,285.1,249,285.1s-6.5,11.9-5.7,15.5,11.4,7.8,14.7,9.4,22.9,7.8,22.9,7.8l11.9,2.9,4.9-10.6-21.6-7.5-16-5.6,15.9-9.2Z"/><ellipse class="cls-29" cx="297.2" cy="458.7" rx="9.6" ry="2.5"/><ellipse class="cls-30" cx="316.8" cy="458.7" rx="9.6" ry="2.5"/><path class="cls-31" d="M300.3,290.8l10.1,42.9-6.1,2.6s7.5,25.7,4.6,28.9c0,0-6.6,7.1-8.6,6.3s-9.7.3,2.1-6.3c0,0-12.4-6.7-13.5-10.3s-8.4-43.4-5.4-43.7-3.9-2-7.2-1.5-16.5,1.9-16.5,1.9v-8.1h13.9s11.6-17.4,20.5-9.4Z"/><path class="cls-27" d="M262,307s-1.2-2.2-2.6-2.2c0,0-.4-4.7-1.4-4.7s-.7,4.2-.7,4.2-4.9-3.4-5.7-2.5,4.6,3.2,4.6,3.2l-4.7-1.5s-1.3.6-.6,1.1a38.85,38.85,0,0,0,4.8,1.8,42.94,42.94,0,0,0-5-.7c0,.2-.9.5-.5.7s5,.8,5,.8-3.7.1-3.7.6a1,1,0,0,0,.5,1c.3.1,3.5,0,3.5,0a10.09,10.09,0,0,0,3.8,1.1C261,309.9,262,307,262,307Z"/><path class="cls-32" d="M298,291.7l11.4,42.5,6.6-.5s5.5,26.2,9.6,27.7c0,0,9.2,3.1,10.6,1.5s8.7-4.3-4.9-4.5c0,0,7.8-11.7,7-15.5s-13.1-42.3-15.8-41.1,2.5-3.6,5.6-4.7,15.5-6.1,15.5-6.1l-3.8-7.1-12.3,6.6s-18.5-9.9-22.5,1.4Z"/><path class="cls-27" d="M296.8,299.5l-2.9-8.4s-20.9,3.1-27-14.9,0,2.5,0,2.5l7-15.5,4.1,4.1,9-9,1.2,4.9,12.7-4.9,2.9,4.9,2-4.9,16.4,6.5v6.5s-4.1,18.4-14.7,19.8v8.4S301.3,304.4,296.8,299.5Z"/><circle class="cls-22" cx="281.5" cy="270.7" r="1.9"/><circle class="cls-22" cx="301.1" cy="269.5" r="1.9"/><path class="cls-33" d="M288.9,281.8l11.5-.8s-1.1,3.7-2.5,3.7c0,0-5.6,1.5-6.4.6S288.9,281.8,288.9,281.8Z"/><path class="cls-27" d="M332.5,311.1s-18.6-3.9-18.4-1.9,13.7,4.3,13.7,4.3-13.3-1.8-13.7,0,12.1,1.8,12.1,1.8-12.7,2-10.8,2.9,9-1,9-1-5.2,2.5-4.3,3.3,12.4-4.5,12.4-4.5v-4.9Z"/><path class="cls-27" d="M281.7,311.3s18.6-3.7,18.4-1.7-13.7,4.3-13.7,4.3,13.3-1.8,13.7,0-12.1,1.8-12.1,1.8,12.7,2,10.8,2.9-9-1-9-1,5.2,2.5,4.3,3.3-12.4-4.5-12.4-4.5v-5.1Z"/><path class="cls-34" d="M266.7,277.8l6.4-14.4,4.1,4.1,9-9,1.2,4.9,12.7-4.9,2.9,4.9,2-4.9,16.4,6.5s-2.2-15.3-10.2-17.4-11.9-4.5-15.1-2.7c0,0,3.5-4.3,4.5-2.9,0,0-8.9-1.2-8.1,1,0,0-18.3-1.4-21.3,4.1s-10.1,20.7-4.9,29.2"/><path class="cls-35" d="M300.5,242.1s-8,1.5-7.7,2.6l-1.4,17.1-4,1.5-1.1-4.2-9.2,8.3-4.1-4.1-6.3,15.5s-9.5-23.5,3.2-32c0,0,13.3-7.9,21.6-4.2C291.6,242.6,300,240.8,300.5,242.1Z"/><path class="cls-32" d="M20.8,404.2s-1.8-26.7,6.7-25.5H209.6s9.2,2.4,9.8,6.7a3.64,3.64,0,0,1-.3,2c-2.5,5.5.4-1.3.4-1.3l-.4,23.4L20.5,408.3Z"/><path class="cls-29" d="M14,427.8H24.4V309.3s-6.1-9-10.4-1.1Z"/><path class="cls-29" d="M71.7,394.9"/><path class="cls-29" d="M213.9,426.3h10.4V307.8s-6.1-9-10.4-1.1Z"/><rect class="cls-29" x="19.2" y="325.7" width="199.9" height="5.2"/><rect class="cls-29" x="40.1" y="328.3" width="4.9" height="79.9"/><rect class="cls-29" x="60.9" y="328.3" width="4.9" height="79.9"/><rect class="cls-29" x="83" y="328.3" width="4.9" height="79.9"/><rect class="cls-29" x="103.9" y="328.3" width="4.9" height="79.9"/><rect class="cls-29" x="127" y="328.3" width="4.9" height="79.9"/><rect class="cls-29" x="148.5" y="328.3" width="4.9" height="79.9"/><rect class="cls-29" x="170.5" y="328.3" width="4.9" height="79.9"/><rect class="cls-29" x="192.2" y="328.3" width="4.9" height="79.9"/><rect class="cls-29" x="19.2" y="405.6" width="199.9" height="5.2"/><rect class="cls-36" x="64.1" y="236.7" width="3.5" height="51.9"/><polygon class="cls-14" points="35.1 236.7 96.6 236.7 83.1 185.8 49.8 185.8 35.1 236.7"/><rect class="cls-4" x="529.5" y="373.9" width="101.8" height="44.2"/><rect class="cls-12" x="529.5" y="356.1" width="101.8" height="17.8"/><rect class="cls-4" x="529.5" y="337.7" width="101.8" height="17.8"/><rect class="cls-12" x="529.5" y="320.5" width="101.8" height="17.8"/><circle class="cls-29" cx="580.4" cy="386.8" r="2.5"/><circle class="cls-29" cx="580.4" cy="365.9" r="2.5"/><circle class="cls-29" cx="580.4" cy="346.6" r="2.5"/><circle class="cls-29" cx="580.4" cy="329.4" r="2.5"/><rect class="cls-29" x="525.2" y="313.8" width="111" height="6.7"/><rect class="cls-29" x="540.5" y="418" width="11.3" height="11.3"/><rect class="cls-29" x="608.4" y="418" width="11.3" height="11.3"/><path class="cls-3" d="M457.5,219H429.3a12,12,0,0,1-12-12V174.5a12,12,0,0,1,12-12h28.2a12,12,0,0,1,12,12V207A12,12,0,0,1,457.5,219Z"/><path class="cls-37" d="M454.2,215.6H432.6a12,12,0,0,1-12-12V178a12,12,0,0,1,12-12h21.6a12,12,0,0,1,12,12v25.6A12,12,0,0,1,454.2,215.6Z"/><circle class="cls-3" cx="442.9" cy="191.5" r="1.8"/><path class="cls-3" d="M442.9,193.2s1.4,8.3,4,8.6C446.9,201.8,445.6,192.9,442.9,193.2Z"/><path class="cls-3" d="M441.3,190.8s-10-6-10.3-8,0-.8,0-.8S439.7,188.3,441.3,190.8Z"/><circle class="cls-3" cx="427.2" cy="180.7" r="0.8"/><circle class="cls-3" cx="432.6" cy="174.8" r="0.8"/><circle class="cls-3" cx="458.8" cy="203.5" r="0.8"/><circle class="cls-3" cx="434.2" cy="209.8" r="0.8"/><circle class="cls-3" cx="426.3" cy="202.7" r="0.8"/><circle class="cls-3" cx="458.8" cy="181.5" r="0.8"/><circle class="cls-3" cx="453.6" cy="174.8" r="0.8"/><circle class="cls-3" cx="453.6" cy="210.6" r="0.8"/></g></g></svg>
