<svg xmlns="http://www.w3.org/2000/svg" viewBox="0 0 638.8 568"><defs><style>.cls-1{fill:#202532;}.cls-2{fill:#89cce5;}.cls-3{fill:#e9eced;}.cls-4{fill:#4681b7;}.cls-5{fill:#b8d1d5;}.cls-6{fill:#fdfcfd;}.cls-7{fill:#569bc5;}.cls-21,.cls-8{fill:none;stroke-miterlimit:10;}.cls-8{stroke:#fff;stroke-width:10px;}.cls-9{fill:#e5b090;}.cls-10{fill:#eaac41;}.cls-11{fill:#c07d08;}.cls-12{fill:#fecda4;}.cls-13{fill:#333;}.cls-14{fill:#962d69;}.cls-15{fill:#72263c;}.cls-16{fill:#fff;}.cls-17{fill:#edb143;}.cls-18{fill:#a92d2b;}.cls-19{fill:#7c1f15;}.cls-20{fill:#952819;}.cls-21{stroke:#152230;}.cls-22{fill:#152230;}.cls-23{fill:#33100a;}.cls-24{fill:#000100;}.cls-25{fill:#9ed1ff;}.cls-26{fill:#006d8c;}.cls-27{fill:#004365;}</style></defs><title>rejse_insta</title><g id="Layer_2" data-name="Layer 2"><g id="Layer_1-2" data-name="Layer 1"><path class="cls-1" d="M12,565.5A9.56,9.56,0,0,1,2.5,556V12A9.56,9.56,0,0,1,12,2.5H626.8a9.56,9.56,0,0,1,9.5,9.5V556a9.56,9.56,0,0,1-9.5,9.5Z"/><path class="cls-1" d="M626.8,5a7,7,0,0,1,7,7V556a7,7,0,0,1-7,7H12a7,7,0,0,1-7-7V12a7,7,0,0,1,7-7H626.8m0-5H12A12,12,0,0,0,0,12V556a12,12,0,0,0,12,12H626.8a12,12,0,0,0,12-12V12A12,12,0,0,0,626.8,0Z"/><rect class="cls-2" x="2.5" y="2.5" width="633.8" height="419.65" rx="12" ry="12"/><rect class="cls-3" x="2.5" y="390" width="633.8" height="175.5" rx="12" ry="12"/><path class="cls-4" d="M271.14,110.72c.84-3.63,9.08-5.72,15.92-4.41,4.42.85,7.13,2.9,10.31,5.05,7.55,5.12,23.4,15.88,41.13,19,4.49.78,6.17.56,6.7,1.8,2.66,6.25-30.73,32.48-44.61,24.39-2.09-1.22-1.13-1.7-6.53-10.29-10.29-16.37-15.43-24.55-20.65-30.6C272.3,114.33,270.72,112.56,271.14,110.72Z"/><path class="cls-5" d="M287.13,156c-.12,1.48,12.33,3.81,18.88,4.76,29.79,4.28,58.75-2.72,63.3-3.85,33.78-8.44,53.43-14.85,88.8-25.32,53-15.69,79.55-23.53,83.29-24,4.91-.65,15.32-3.92,36.14-10.46,5.74-1.8,14.93-4.82,21.1-13.39,1.09-1.52,5.43-7.55,3.7-10C599,69,574.75,81.23,564,86.29c-42.31,19.86-83.5,26.16-165.41,38.69-21.82,3.34-36.47,4.76-55,11.69,0,0-23.3,8.73-41.1,14.61-4.84,1.6-7.25,2.4-9,2.85C289.05,155.31,287.18,155.45,287.13,156Z"/><path class="cls-6" d="M286.63,155.84c-.07-.23,8.78-2.77,20.32-7.76a200.26,200.26,0,0,0,19.6-9.78c21-11.71,72.28-25.41,119.7-41.58,2.06-.7,73.2-25,103.46-29.93A98.31,98.31,0,0,1,575.57,66c2.26.24,12.75,1.44,20.32,4.71l7,3s-33.05,16.08-65,27.3c-44.4,15.57-47.66,8.06-84,21.43a161.17,161.17,0,0,1-41.39,8.25c-4,.23-13.49.79-18-1.33a7.62,7.62,0,0,0-3.73-.93s-1.26,0-5.46,1.86c0,0,.94,1.39,1.6,2.26a11.11,11.11,0,0,0,3.06,3.19,6.78,6.78,0,0,0,3.2.87c5.23.3,23.76-2.12,23.82-1.93s-18.05,5.78-28,9.05a321.1,321.1,0,0,1-57.6,12.3c-.66.07-1.66.13-1.89-.32-.34-.67,1.16-2.05,1.71-2.56,9.36-8.71,14.33-13.33,13.86-14.34-.69-1.5-14.1,3.55-30.75,8.92,0,0-7.27,2.64-25,7.42A15.28,15.28,0,0,1,286.63,155.84Z"/><path class="cls-7" d="M362.15,134.33a2.33,2.33,0,0,0-2.69.51c-.73.81-.46,2-.13,3.45.28,1.23.45,2,1.15,2.43a2.46,2.46,0,0,0,3.07-.38c.37-.5.17-1.4-.26-3.2S362.71,134.65,362.15,134.33Z"/><path class="cls-7" d="M368.3,132.35a2.33,2.33,0,0,0-2.69.51c-.73.81-.46,2-.13,3.45.28,1.23.45,2,1.15,2.43a2.46,2.46,0,0,0,3.07-.38c.37-.5.17-1.4-.26-3.2S368.85,132.67,368.3,132.35Z"/><path class="cls-7" d="M374.55,130.43a2.33,2.33,0,0,0-2.69.51c-.73.81-.46,2-.13,3.45.28,1.23.45,2,1.15,2.43a2.46,2.46,0,0,0,3.07-.38c.37-.5.17-1.4-.26-3.2S375.11,130.75,374.55,130.43Z"/><path class="cls-7" d="M380.24,128.86a2.33,2.33,0,0,0-2.69.51c-.73.81-.46,2-.13,3.45.28,1.23.45,2,1.15,2.43a2.46,2.46,0,0,0,3.07-.38c.37-.5.17-1.4-.26-3.2S380.79,129.18,380.24,128.86Z"/><path class="cls-7" d="M414.51,118.81a2.33,2.33,0,0,0-2.69.51c-.73.81-.46,2-.13,3.45.28,1.23.45,2,1.15,2.43a2.46,2.46,0,0,0,3.07-.38c.37-.5.17-1.4-.26-3.2S415.06,119.12,414.51,118.81Z"/><path class="cls-7" d="M420.56,116.89a2.33,2.33,0,0,0-2.69.51c-.73.81-.46,2-.13,3.45.28,1.23.45,2,1.15,2.43a2.46,2.46,0,0,0,3.07-.38c.37-.5.17-1.4-.26-3.2S421.11,117.21,420.56,116.89Z"/><path class="cls-7" d="M426.61,115a2.33,2.33,0,0,0-2.69.51c-.73.81-.46,2-.13,3.45.28,1.23.45,2,1.15,2.43A2.46,2.46,0,0,0,428,121c.37-.5.17-1.4-.26-3.2S427.16,115.29,426.61,115Z"/><path class="cls-7" d="M432.65,113.4a2.33,2.33,0,0,0-2.69.51c-.73.81-.46,2-.13,3.45.28,1.23.45,2,1.15,2.43a2.46,2.46,0,0,0,3.07-.38c.37-.5.17-1.4-.26-3.2S433.2,113.71,432.65,113.4Z"/><path class="cls-7" d="M438.71,111.48A2.33,2.33,0,0,0,436,112c-.73.81-.46,2-.13,3.45.28,1.23.45,2,1.15,2.43a2.46,2.46,0,0,0,3.07-.38c.37-.5.17-1.4-.26-3.2S439.26,111.79,438.71,111.48Z"/><path class="cls-7" d="M444.71,109.54A2.33,2.33,0,0,0,442,110c-.73.81-.46,2-.13,3.45.28,1.23.45,2,1.15,2.43a2.46,2.46,0,0,0,3.07-.38c.37-.5.17-1.4-.26-3.2S445.26,109.85,444.71,109.54Z"/><path class="cls-7" d="M450.71,108a2.33,2.33,0,0,0-2.69.51c-.73.81-.46,2-.13,3.45.28,1.23.45,2,1.15,2.43a2.46,2.46,0,0,0,3.07-.38c.37-.5.17-1.4-.26-3.2S451.26,108.3,450.71,108Z"/><path class="cls-7" d="M456.77,106a2.33,2.33,0,0,0-2.69.51c-.73.81-.46,2-.13,3.45.28,1.23.45,2,1.15,2.43a2.46,2.46,0,0,0,3.07-.38c.37-.5.17-1.4-.26-3.2S457.32,106.36,456.77,106Z"/><path class="cls-7" d="M462.86,104.1a2.33,2.33,0,0,0-2.69.51c-.73.81-.46,2-.13,3.45.28,1.23.45,2,1.15,2.43a2.46,2.46,0,0,0,3.07-.38c.37-.5.17-1.4-.26-3.2S463.42,104.41,462.86,104.1Z"/><path class="cls-7" d="M474.08,100.8a4.7,4.7,0,0,0-5.2.94c-1.41,1.48-.9,3.61-.25,6.32.54,2.25.87,3.62,2.23,4.45,1.83,1.11,4.76.79,5.94-.7.72-.91.32-2.57-.49-5.85C475.55,102.91,475.15,101.37,474.08,100.8Z"/><path class="cls-7" d="M481.27,98.56a2.33,2.33,0,0,0-2.69.51c-.73.81-.46,2-.13,3.45.28,1.23.45,2,1.15,2.43a2.46,2.46,0,0,0,3.07-.38c.37-.5.17-1.4-.26-3.2S481.82,98.87,481.27,98.56Z"/><path class="cls-7" d="M487.36,96.72a2.33,2.33,0,0,0-2.69.51c-.73.81-.46,2-.13,3.45.28,1.23.45,2,1.15,2.43a2.46,2.46,0,0,0,3.07-.38c.37-.5.17-1.4-.26-3.2S487.91,97,487.36,96.72Z"/><path class="cls-7" d="M493.48,95.06a2.33,2.33,0,0,0-2.69.51c-.73.81-.46,2-.13,3.45.28,1.23.45,2,1.15,2.43a2.46,2.46,0,0,0,3.07-.38c.37-.5.17-1.4-.26-3.2S494,95.38,493.48,95.06Z"/><path class="cls-7" d="M499.61,93.23a2.33,2.33,0,0,0-2.69.51c-.73.81-.46,2-.13,3.45.28,1.23.45,2,1.15,2.43a2.46,2.46,0,0,0,3.07-.38c.37-.5.17-1.4-.26-3.2S500.16,93.54,499.61,93.23Z"/><path class="cls-7" d="M505.67,91.19a2.33,2.33,0,0,0-2.69.51c-.73.81-.46,2-.13,3.45.28,1.23.45,2,1.15,2.43a2.46,2.46,0,0,0,3.07-.38c.37-.5.17-1.4-.26-3.2S506.23,91.51,505.67,91.19Z"/><path class="cls-7" d="M511.83,89.36a2.33,2.33,0,0,0-2.69.51c-.73.81-.46,2-.13,3.45.28,1.23.45,2,1.15,2.43a2.46,2.46,0,0,0,3.07-.38c.37-.5.17-1.4-.26-3.2S512.38,89.67,511.83,89.36Z"/><path class="cls-7" d="M517.85,87.7a2.33,2.33,0,0,0-2.69.51c-.73.81-.46,2-.13,3.45.28,1.23.45,2,1.15,2.43a2.46,2.46,0,0,0,3.07-.38c.37-.5.17-1.4-.26-3.2S518.4,88,517.85,87.7Z"/><path class="cls-7" d="M523.83,85.86a2.33,2.33,0,0,0-2.69.51c-.73.81-.46,2-.13,3.45.28,1.23.45,2,1.15,2.43a2.46,2.46,0,0,0,3.07-.38c.37-.5.17-1.4-.26-3.2S524.39,86.18,523.83,85.86Z"/><path class="cls-7" d="M529.88,84.21a2.33,2.33,0,0,0-2.69.51c-.73.81-.46,2-.13,3.45.28,1.23.45,2,1.15,2.43a2.46,2.46,0,0,0,3.07-.38c.37-.5.17-1.4-.26-3.2S530.43,84.52,529.88,84.21Z"/><path class="cls-7" d="M540.37,80.63a4.7,4.7,0,0,0-5.2.94c-1.41,1.48-.9,3.61-.25,6.32.54,2.25.87,3.62,2.23,4.45,1.83,1.11,4.76.79,5.94-.7.72-.91.32-2.57-.49-5.85C541.84,82.74,541.44,81.2,540.37,80.63Z"/><path class="cls-7" d="M569.41,69.86a13.47,13.47,0,0,0-6.29,1.32h0s1,4.09,3.39,5.22c1,.47,2.16.2,4.47-.33,2.69-.62,4.88-1.12,5.05-2.24.2-1.32-2.54-2.89-4.39-3.51A9.19,9.19,0,0,0,569.41,69.86Z"/><path class="cls-7" d="M573.55,68.62c0,.15,0,.48,1.74,1.74s2.78,2,3.81,2.32,1.76.16,6.62-1.32c4.62-1.41,5.17-1.67,5.16-2,0-.64-2.08-1.06-6-1.85a23.19,23.19,0,0,0-5.54-.74C577,66.84,573.66,67.52,573.55,68.62Z"/><rect class="cls-8" x="8.04" y="7.75" width="151.17" height="382.25" rx="12" ry="12"/><rect class="cls-8" x="165.4" y="7.75" width="151.17" height="382.25" rx="12" ry="12"/><rect class="cls-8" x="322.77" y="7.75" width="151.17" height="382.25" rx="12" ry="12"/><rect class="cls-8" x="480.14" y="7.75" width="151.17" height="382.25" rx="12" ry="12"/><path class="cls-9" d="M332.59,433.81c-4,4.6,4.6,62.9,4.6,62.9l-1.4,17.2s37.1,5.4,40.2-4.6-30.9-7.2-28-15.5,1.9-54.6,1.9-54.6,2.6-44.3,5.5-60.1-4.6-47.5-4.4-50.6c.2-2.8,2.3-31.8,2.3-31.8s9.8,26.6,6.7,29.8,6.2,43.4,6.2,43.4-6.5,45,8.2,32.9-.6-34.1-.6-34.1c2.8-20.1-4.6-35.9-6.9-63.9-3-36-13.8-37.1-13.8-37.1a108,108,0,0,0-44.9,0c-16.17,3.55-15.36,7.54-34.45,12.3-22.36,5.58-44.71,5.39-46.46,13.61-.47,2.21.56,5-1.41,8.45-2.28,4-6.25,5-6.1,5.63.22,1,9.55.41,51.15-7l39.57-8.35,3.6,36.4-4.4,42.3,1.4,55.3c-3.4,6.8,6.1,68.1,2.1,70.4-8.1,4.5-30.9,8-25.9,15.8s38.1,2,38.3,1.4a62.54,62.54,0,0,0,0-15.7c-1.1-8.3,4.3-59.6,3.1-61.9s2.7-56.6,2.7-56.6S336.59,429.21,332.59,433.81Z"/><path class="cls-10" d="M434.37,167.78a46.35,46.35,0,0,0-15.1,5c-10.3,5.9-14.7,16-16.5,20.2-4.3,10.3-1.4,12.9-2.8,39.4-.8,17.2-2.4,23.5,0,35.8,1.5,7.4,3.7,13.3,8.3,18.3,4.1,4.5,8.5,6.6,11.9,8.3,4.5,2.1,25.5,11.1,42.2.9a41.44,41.44,0,0,0,10.1-9.2,43.54,43.54,0,0,0,7.3-13.8c3.6-10.6,2.1-17.6,1.8-35.8-.3-23.2,1.9-25.4-.9-36.7-1.8-7-3.7-14.3-10.1-21.1-9.4-10-21.6-11.6-23.8-11.9A47.53,47.53,0,0,0,434.37,167.78Z"/><path class="cls-11" d="M435.47,197.68a38,38,0,0,0-12.1,3.9c-8.3,4.6-11.8,12.3-13.2,15.6-3.5,7.9-1.2,9.9-2.2,30.4-.7,13.3-1.9,18.1,0,27.6,1.2,5.7,2.9,10.2,6.6,14.1a28.54,28.54,0,0,0,9.6,6.4c3.6,1.6,20.5,8.6,33.8.7a30.88,30.88,0,0,0,8.1-7.1,35,35,0,0,0,5.9-10.6c2.9-8.2,1.7-13.6,1.5-27.6-.3-17.9,1.5-19.6-.7-28.3-1.4-5.4-3-11-8.1-16.3a32.85,32.85,0,0,0-19.1-9.2A41.06,41.06,0,0,0,435.47,197.68Z"/><path class="cls-12" d="M414.67,192.08a24.76,24.76,0,0,0-2.3,3.2c-3.7,6.1-1.8,17-1.4,29.8.4,10-.5,9.7.5,13.3,3,11,12,16.9,12.8,17.4,9.2,5.8,21.8,6.5,31.6.5.6-.4,9.8-6.3,12.8-17.4.5-1.9.6-3.2.9-8.3,1.5-26.8.4-30.3-.9-33a28.81,28.81,0,0,0-10.1-11c-15.1-10.1-33.3-2.7-37.6,0A31.72,31.72,0,0,0,414.67,192.08Z"/><path class="cls-13" d="M418.27,214.08c-.1-.2,1-1.8,2.8-2.8a7.85,7.85,0,0,1,7.3,0c1.8,1,2.9,2.6,2.8,2.8s-1.4-1.2-3.7-1.8a10.4,10.4,0,0,0-5.5,0C419.67,212.88,418.47,214.28,418.27,214.08Z"/><path class="cls-13" d="M450.37,214.08c-.1-.2,1-1.8,2.8-2.8a7.85,7.85,0,0,1,7.3,0c1.8,1,2.9,2.6,2.8,2.8s-1.4-1.2-3.7-1.8a10.4,10.4,0,0,0-5.5,0C451.77,212.88,450.47,214.28,450.37,214.08Z"/><circle class="cls-13" cx="426.07" cy="220.98" r="3.2"/><circle class="cls-13" cx="455.37" cy="220.98" r="3.2"/><path class="cls-14" d="M424.67,233.38s1.9,3.2,2.8,4.6a19.92,19.92,0,0,0,6.4,6.4,15.25,15.25,0,0,0,13.8,0,16.47,16.47,0,0,0,5.5-4.6,37.84,37.84,0,0,0,3.7-6.4h-32.2Z"/><path class="cls-15" d="M430.17,240.68c.1-.7.8-1.1,1.8-1.8a10.89,10.89,0,0,1,5.5-1.8c2.1-.2,7.9-.6,12.8,2.8.4.3.8.5.9.9.4,1.8-5.3,5.6-11,5.5C435.07,246.08,430,242.68,430.17,240.68Z"/><path class="cls-16" d="M428.37,236.08h24.8v-2.8h-24.8Z"/><path class="cls-12" d="M434.77,259.88c-.8.8-.4,2.2.5,5.8,1.8,7.4,1.7,8.3,3.2,12.7,1.9,5.4,2.5,5.5,2.8,5.5.6-.1.9-1.4,1.8-5.5s1.7-8.2,2.8-12.2,1.8-5.4.9-6.2-2.3.1-6.4,0C436.77,259.78,435.67,259.08,434.77,259.88Z"/><path class="cls-17" d="M406.37,186.58c-.1,3.7,5.4,6.6,9.6,8.7,11.3,5.6,17,8.4,26.6,10.1,12.4,2.2,35.6,4,38-3.2a6.05,6.05,0,0,0,0-2.8c-1.7-11.4-9.3-19.4-10.1-20.2a40.17,40.17,0,0,0-20.2-11s-18.2-4.2-33.9,6.4a34.78,34.78,0,0,0-8.3,8.3C406.67,185,406.37,185.78,406.37,186.58Z"/><path class="cls-12" d="M448.15,268.05l7.5,4.1c16.2,2.1,20.7,36.5,20.7,36.5s10.1-24.8,7.9-29.2,3.1-11.3,3.1-11.3.3-9.1,1.6-8.1,1.9,8.4,1.9,8.4,2.5-10.1,4.9-8.2-2,10.1-2,10.1c6,9.1-3.1,11.6-3.1,11.6,2.2,19.1-10.3,50.2-14.1,50.9s-12.9-28.9-12.9-28.9-14.4,29.2-6.9,33,22.3,28.6,22.3,28.6l-15.7,140.5v26.4h-12.9l-.6-9.7,2.2-15.7V435l-7.9-51.5c-.6,1.6-22.6,43.4-20.4,52.5,3.9,15.9-24.5,69.5-23,71.7s1.6,18.8,1.6,18.8l-33.5,6.1.3-11.9,14.1-3.8,6-9.4,30.2-152.7s-3.2,4-5.8,5.6-8.2-1.1-8.2-1.1c0-.8,5.1-.6,4.9-2.4-.6-6,7.1-8.6,3.8-10.8s-26.2-36.3-26.2-36.3l29.6-35.7,15.3-5.5Z"/><path class="cls-2" d="M421.46,300.59c-1.17-.84-6,2.26-15.71,8.49l-.16.1.1.2c10,20.51,11,21.06,11.47,21,1.51-.33-.3-6.65,1.83-17.37C420.52,305.31,422.83,301.58,421.46,300.59Z"/><path class="cls-18" d="M119.12,169a46.35,46.35,0,0,1,15.1,5c10.3,5.9,14.7,16,16.5,20.2,4.3,10.3,1.4,12.9,2.8,39.4.8,17.2,2.4,23.5,0,35.8-1.5,7.4-3.7,13.3-8.3,18.3-4.1,4.5-8.5,6.6-11.9,8.3-4.5,2.1-25.5,11.1-42.2.9a41.44,41.44,0,0,1-10.1-9.2,43.54,43.54,0,0,1-7.3-13.8c-3.6-10.6-2.1-17.6-1.8-35.8.3-23.2-1.9-25.4.9-36.7,1.8-7,3.7-14.3,10.1-21.1,9.4-10,21.6-11.6,23.8-11.9A47.85,47.85,0,0,1,119.12,169Z"/><path class="cls-19" d="M118,198.91a38,38,0,0,1,12.1,3.9c8.3,4.6,11.8,12.3,13.2,15.6,3.5,7.9,1.2,9.9,2.2,30.4.7,13.3,1.9,18.1,0,27.6-1.2,5.7-2.9,10.2-6.6,14.1a28.54,28.54,0,0,1-9.6,6.4c-3.6,1.6-20.5,8.6-33.8.7a30.88,30.88,0,0,1-8.1-7.1,35,35,0,0,1-5.9-10.6c-2.9-8.2-1.7-13.6-1.5-27.6.3-17.9-1.5-19.6.7-28.3,1.4-5.4,3-11,8.1-16.3a32.85,32.85,0,0,1,19.1-9.2A36.82,36.82,0,0,1,118,198.91Z"/><path class="cls-12" d="M87.32,193.31a24.76,24.76,0,0,0-2.3,3.2c-3.7,6.1-1.8,17-1.4,29.8.4,10-.5,9.7.5,13.3,3,11,12,16.9,12.8,17.4,9.2,5.8,21.8,6.5,31.6.5.6-.4,9.8-6.3,12.8-17.4.5-1.9.6-3.2.9-8.3,1.5-26.8.4-30.3-.9-33a28.81,28.81,0,0,0-10.1-11c-15.1-10.1-33.3-2.7-37.6,0A31.72,31.72,0,0,0,87.32,193.31Z"/><path class="cls-13" d="M91,215.31c-.1-.2,1-1.8,2.8-2.8a7.85,7.85,0,0,1,7.3,0c1.8,1,2.9,2.6,2.8,2.8s-1.4-1.2-3.7-1.8a10.4,10.4,0,0,0-5.5,0C92.42,214.11,91.12,215.51,91,215.31Z"/><path class="cls-13" d="M123.12,215.31c-.1-.2,1-1.8,2.8-2.8a7.85,7.85,0,0,1,7.3,0c1.8,1,2.9,2.6,2.8,2.8s-1.4-1.2-3.7-1.8a10.4,10.4,0,0,0-5.5,0C124.52,214.11,123.22,215.51,123.12,215.31Z"/><circle class="cls-13" cx="98.82" cy="222.21" r="3.2"/><circle class="cls-13" cx="128.12" cy="222.21" r="3.2"/><path class="cls-14" d="M97.42,234.51s1.9,3.2,2.8,4.6a19.92,19.92,0,0,0,6.4,6.4,15.25,15.25,0,0,0,13.8,0,16.47,16.47,0,0,0,5.5-4.6,37.84,37.84,0,0,0,3.7-6.4H97.42Z"/><path class="cls-15" d="M102.92,241.91c.1-.7.8-1.1,1.8-1.8a10.89,10.89,0,0,1,5.5-1.8c2.1-.2,7.9-.6,12.8,2.8.4.3.8.5.9.9.4,1.8-5.3,5.6-11,5.5C107.82,247.31,102.72,243.91,102.92,241.91Z"/><path class="cls-16" d="M101.12,237.31h24.8v-2.8h-24.8Z"/><path class="cls-12" d="M107.52,261c-.8.8-.4,2.2.5,5.8,1.8,7.4,1.7,8.3,3.2,12.7,1.9,5.4,2.5,5.5,2.8,5.5.6-.1.9-1.4,1.8-5.5s1.7-8.2,2.8-12.2,1.8-5.4.9-6.2-2.3.1-6.4,0C109.52,261,108.32,260.31,107.52,261Z"/><path class="cls-20" d="M147.12,187.81c.1,3.7-5.4,6.6-9.6,8.7-11.3,5.6-17,8.4-26.6,10.1-12.4,2.2-35.6,4-38-3.2a6.06,6.06,0,0,1,0-2.8c1.7-11.4,9.3-19.4,10.1-20.2a40.17,40.17,0,0,1,20.2-11s18.2-4.2,33.9,6.4a34.78,34.78,0,0,1,8.3,8.3C146.82,186.21,147.12,187,147.12,187.81Z"/><polyline class="cls-21" points="84.12 193.71 87.82 193.71 141.92 193.71"/><path class="cls-22" d="M89.22,190.51h21.1v1.8a12.11,12.11,0,0,1-2.8,6.4c-1.4,1.8-3.9,5-8.3,5.5-3.2.4-7.3-.8-9.2-3.7C89.22,199.21,89.22,197.81,89.22,190.51Z"/><path class="cls-22" d="M137.82,190.51h-21.1v1.8a12.11,12.11,0,0,0,2.8,6.4c1.4,1.8,3.9,5,8.3,5.5,3.2.4,7.3-.8,9.2-3.7C137.82,199.21,137.72,197.81,137.82,190.51Z"/><path class="cls-12" d="M120.64,268.55l15.3,5.5,29.6,35.7s-22.9,34.1-26.2,36.3,4.4,4.8,3.8,10.8c-.2,1.8,4.9,1.6,4.9,2.4,0,0-5.6,2.7-8.2,1.1s-5.8-5.6-5.8-5.6l30.2,152.7,6,9.4,14.1,3.8.3,11.9-33.5-6.1s.1-16.6,1.6-18.8-26.9-55.8-23-71.7c2.2-9.1-19.8-50.9-20.4-52.5l-7.9,51.5v72.1l2.2,15.7-.6,9.7H90.14v-26.4l-15.7-140.5s14.8-24.8,22.3-28.6-6.9-33-6.9-33-9.1,29.6-12.9,28.9-16.3-31.8-14.1-50.9c0,0-9.1-2.5-3.1-11.6,0,0-4.4-8.2-2-10.1s4.9,8.2,4.9,8.2.6-7.4,1.9-8.4,1.6,8.1,1.6,8.1,5.3,6.9,3.1,11.3,7.9,29.2,7.9,29.2,4.5-34.4,20.7-36.5l7.5-4.1Z"/><path class="cls-2" d="M132.72,299.59c1.17-.84,6,2.26,15.71,8.49l.16.1-.1.2c-10,20.51-11,21.06-11.47,21-1.51-.33.3-6.65-1.83-17.37C133.66,304.31,131.35,300.58,132.72,299.59Z"/><path class="cls-12" d="M184.6,186.9a24.76,24.76,0,0,0-2.3,3.2c-3.7,6.1-1.8,17-1.4,29.8.4,10-.5,9.7.5,13.3,3,11,12,16.9,12.8,17.4,9.2,5.8,21.8,6.5,31.6.5.6-.4,9.8-6.3,12.8-17.4.5-1.9.6-3.2.9-8.3,1.5-26.8.4-30.3-.9-33a28.81,28.81,0,0,0-10.1-11c-15.1-10.1-33.3-2.7-37.6,0A31.72,31.72,0,0,0,184.6,186.9Z"/><path class="cls-13" d="M188.3,208.9c-.1-.2,1-1.8,2.8-2.8a7.85,7.85,0,0,1,7.3,0c1.8,1,2.9,2.6,2.8,2.8s-1.4-1.2-3.7-1.8a10.4,10.4,0,0,0-5.5,0C189.7,207.7,188.4,209.1,188.3,208.9Z"/><circle class="cls-13" cx="196.1" cy="215.8" r="3.2"/><circle class="cls-13" cx="225.4" cy="215.8" r="3.2"/><path class="cls-14" d="M194.7,228.2s1.9,3.2,2.8,4.6a19.92,19.92,0,0,0,6.4,6.4,15.25,15.25,0,0,0,13.8,0,16.47,16.47,0,0,0,5.5-4.6,37.84,37.84,0,0,0,3.7-6.4H194.7Z"/><path class="cls-15" d="M200.2,235.5c.1-.7.8-1.1,1.8-1.8a10.89,10.89,0,0,1,5.5-1.8c2.1-.2,7.9-.6,12.8,2.8.4.3.8.5.9.9.4,1.8-5.3,5.6-11,5.5C205.1,240.9,199.9,237.5,200.2,235.5Z"/><path class="cls-16" d="M198.4,230.9h24.8v-2.8H198.4Z"/><path class="cls-12" d="M204.8,254.7c-.8.8-.4,2.2.5,5.8,1.8,7.4,1.7,8.3,3.2,12.7,1.9,5.4,2.5,5.5,2.8,5.5.6-.1.9-1.4,1.8-5.5s1.7-8.2,2.8-12.2,1.8-5.4.9-6.2-2.3.1-6.4,0C206.8,254.6,205.6,253.9,204.8,254.7Z"/><path class="cls-10" d="M247.9,215.3h0a108.15,108.15,0,0,0-1.4-17.9c-.8-4.2-2.1-11.3-7.3-18.3a36.94,36.94,0,0,0-18.8-13.3,29.6,29.6,0,0,0-15.6-.9c-8.4,2-13.3,7.5-16.5,11s-5.8,6.5-6.4,11c-.8,5.6,2,10.1,3.7,12.8,5.9,9.6,15.8,13,18.3,13.8,4,1.2,3.4.3,22.9.9C226.9,214.4,229.9,214.5,247.9,215.3Z"/><path class="cls-11" d="M181,228.2s-.4-2.5-1-7.2c-1.1-8-1.7-12-1.7-12-.3-2.1-.5-4.3-.9-6.4-.6-3.4-1.2-5.3-.9-8.3a8.85,8.85,0,0,1,.9-3.7c1.3-2.5,4-4.1,4.6-3.7.2.2.1.6,0,.9-.5,1.9,0,2.8,0,7.3,0,5.8-.8,12.2-.9,22.9C181,221.7,181,228.2,181,228.2Z"/><path class="cls-12" d="M210.13,379.71s3.9,54.3,2.7,56.6,4.2,53.6,3.1,61.9a62.54,62.54,0,0,0,0,15.7c.2.6,33.3,6.4,38.3-1.4s-17.8-11.3-25.9-15.8c-4-2.3,5.5-63.6,2.1-70.4l1.4-55.3-4.4-42.3,3.6-36.4,7.8,34.3s3.1,36.7,5,43.2c1.4,4.9-2.4,19.4-2.4,19.4s5.5,15.5,10.9,13.8,4.3-26.8,4.3-26.8l-4.8-8.3s.2-40.6-3.8-42.6.5-57.1-14.7-57.6-44.9,0-44.9,0-10.8,1.1-13.8,37.1c-2.3,28-9.7,43.8-6.9,63.9,0,0-15.3,22-.6,34.1s8.2-32.9,8.2-32.9,9.3-40.2,6.2-43.4,6.7-29.8,6.7-29.8,2.1,29,2.3,31.8c.2,3.1-7.3,34.8-4.4,50.6s5.5,60.1,5.5,60.1-1,46.3,1.9,54.6-31.1,5.5-28,15.5,40.2,4.6,40.2,4.6l-1.4-17.2s8.6-58.3,4.6-62.9S210.13,379.71,210.13,379.71Z"/><path class="cls-9" d="M308.46,186.25a24.76,24.76,0,0,0-2.3,3.2c-3.7,6.1-1.8,17-1.4,29.8.4,10-.5,9.7.5,13.3,3,11,12,16.9,12.8,17.4,9.2,5.8,21.8,6.5,31.6.5.6-.4,9.8-6.3,12.8-17.4.5-1.9.6-3.2.9-8.3,1.5-26.8.4-30.3-.9-33a28.81,28.81,0,0,0-10.1-11c-15.1-10.1-33.3-2.7-37.6,0A31.72,31.72,0,0,0,308.46,186.25Z"/><path class="cls-13" d="M344.26,208.25c-.1-.2,1-1.8,2.8-2.8a7.85,7.85,0,0,1,7.3,0c1.8,1,2.9,2.6,2.8,2.8s-1.4-1.2-3.7-1.8a10.4,10.4,0,0,0-5.5,0C345.66,207,344.36,208.45,344.26,208.25Z"/><path class="cls-14" d="M318.56,227.55s1.9,3.2,2.8,4.6a19.92,19.92,0,0,0,6.4,6.4,15.25,15.25,0,0,0,13.8,0,16.47,16.47,0,0,0,5.5-4.6,37.84,37.84,0,0,0,3.7-6.4h-32.2Z"/><path class="cls-15" d="M324.06,234.85c.1-.7.8-1.1,1.8-1.8a10.89,10.89,0,0,1,5.5-1.8c2.1-.2,7.9-.6,12.8,2.8.4.3.8.5.9.9.4,1.8-5.3,5.6-11,5.5C329,240.25,323.76,236.85,324.06,234.85Z"/><path class="cls-16" d="M322.26,230.25h24.8v-2.8h-24.8Z"/><path class="cls-9" d="M328.66,254c-.8.8-.4,2.2.5,5.8,1.8,7.4,1.7,8.3,3.2,12.7,1.9,5.4,2.5,5.5,2.8,5.5.6-.1.9-1.4,1.8-5.5s1.7-8.2,2.8-12.2,1.8-5.4.9-6.2-2.3.1-6.4,0C330.66,253.95,329.46,253.25,328.66,254Z"/><path class="cls-23" d="M296.56,217.45h0a108.15,108.15,0,0,1,1.4-17.9c.8-4.2,2.1-11.3,7.3-18.3a36.94,36.94,0,0,1,18.8-13.3,29.6,29.6,0,0,1,15.6-.9c8.4,2,13.3,7.5,16.5,11s5.8,6.5,6.4,11c.8,5.6-2,10.1-3.7,12.8-5.9,9.6-15.8,13-18.3,13.8-4,1.2-3.4.3-22.9.9C317.66,216.55,314.56,216.65,296.56,217.45Z"/><path class="cls-24" d="M363.46,230.25s1-6.7,2.8-19.3c.5-3.7,1.4-5.4,1.8-9.2a23.42,23.42,0,0,0,0-5.5,10.06,10.06,0,0,0-.9-3.7c-1.3-2.5-4-4.1-4.6-3.7-.2.2-.1.6,0,.9.5,1.9,0,2.8,0,7.3,0,5.8.8,12.2.9,22.9C363.46,223.85,363.46,230.25,363.46,230.25Z"/><polyline class="cls-21" points="305.26 214.25 308.96 214.25 363.06 214.25"/><path class="cls-22" d="M310.36,211h21.1v1.8a12.11,12.11,0,0,1-2.8,6.4c-1.4,1.8-3.9,5-8.3,5.5-3.2.4-7.3-.8-9.2-3.7C310.26,219.65,310.36,218.35,310.36,211Z"/><path class="cls-22" d="M358.86,211h-21.1v1.8a12.11,12.11,0,0,0,2.8,6.4c1.4,1.8,3.9,5,8.3,5.5,3.2.4,7.3-.8,9.2-3.7C358.86,219.65,358.86,218.35,358.86,211Z"/><path d="M79.24,359.85c-.71-.39-3.16,2-4.39,4.7a12.77,12.77,0,0,0-.75,7.46c2,11.4,2.69,23,3.69,34.52.46,5.23,1.57,14.43,3.8,32.83,4.93,40.76,5.49,38.57,5.17,44.23-.67,12.07-3.09,19.77,1.48,23.44,3.7,3,10.39,2,14.25-.84,6.22-4.62,1.33-14.47-.21-38.85a281.15,281.15,0,0,1,.21-32.51c1-14.92,3.43-15.76,4.86-33.36.6-7.38.9-15.3,2.32-15.41.75-.06,1.44,2.31,2.43,5.07,2.23,6.24,2.31,4.26,7.71,16.26,1.5,3.33,3.39,8.24,7.18,18.05a40.18,40.18,0,0,1,1.48,4.86,17.39,17.39,0,0,1,.63,4.22,35,35,0,0,1-.53,3.91,18.17,18.17,0,0,0,.32,5,159.69,159.69,0,0,0,6.44,24.81c1.45,4,3,8.24,5.49,13.83,5.65,12.63,7.57,12.8,8.87,19.42.46,2.36.58,4.15,2.11,5.38,3.36,2.7,11.13.74,12.77-3.27.77-1.88-.16-3.34-1.58-7.92-1.24-4-1.79-8.17-2.74-12.25-2.11-9-2.4-13.07-4.54-24.6-1.8-9.68-1.88-8.34-5-23.33-2.6-12.63-2.08-11.33-6.23-32.41-.66-3.34-2.13-10.56-5.07-25-.6-2.94-.9-4.41-1-4.54C132.18,358,80.36,368.18,79.27,362,79.14,361.25,79.68,360.09,79.24,359.85Z"/><path class="cls-25" d="M474.45,359.89c.71-.39,3.16,2,4.39,4.7a12.77,12.77,0,0,1,.75,7.46c-2,11.4-2.69,23-3.69,34.52-.46,5.23-1.57,14.43-3.8,32.83-4.93,40.76-5.49,38.57-5.17,44.23.67,12.07,3.09,19.77-1.48,23.44-3.7,3-10.39,2-14.25-.84-6.22-4.62-1.33-14.47.21-38.85a281.15,281.15,0,0,0-.21-32.51c-1-14.92-3.43-15.76-4.86-33.36-.6-7.38-.9-15.3-2.32-15.41-.75-.06-1.44,2.31-2.43,5.07-2.23,6.24-2.31,4.26-7.71,16.26-1.5,3.33-3.39,8.24-7.18,18.05a40.19,40.19,0,0,0-1.48,4.86,17.39,17.39,0,0,0-.63,4.22,35,35,0,0,0,.53,3.91,18.17,18.17,0,0,1-.32,5,159.69,159.69,0,0,1-6.44,24.81c-1.45,4-3,8.24-5.49,13.83-5.65,12.63-7.57,12.8-8.87,19.42-.46,2.36-.58,4.15-2.11,5.38-3.36,2.7-11.13.74-12.77-3.27-.77-1.88.16-3.34,1.58-7.92,1.24-4,1.79-8.17,2.74-12.25,2.11-9,2.4-13.07,4.54-24.6,1.8-9.68,1.88-8.34,5-23.33,2.6-12.63,2.08-11.33,6.23-32.41.66-3.34,2.13-10.56,5.07-25,.6-2.94.9-4.41,1-4.54,6.31-15.5,58.13-5.31,59.22-11.51C474.55,361.29,474,360.13,474.45,359.89Z"/><path class="cls-1" d="M308.68,372.23c-.78,1.57-.3,1.65.25,12.5,1,20.22-.3,27.27.88,34.13a21.59,21.59,0,0,1,.25,6,21.34,21.34,0,0,1-1.25,5.38c-2,5.6,0,16.89,1.5,32.63,1.08,11.47,1.59,17.29.38,21.38-1.08,3.62-2.45,5.85-1.25,7.75,3,4.7,18,1.62,18,1.63s-.07-11.87.5-23.13c.72-14.19,2-18,1.88-31.63,0-2.71-.07-2.37-.13-5.75-.31-19.58,1.21-37,1.75-37,.39,0,.38,9.11.38,18.38,0,24.27-1.14,25.33-.75,41.63.25,10.15,1,24.7,1.25,28.51,0,.73.5,9.13.5,9.13s16.84,4.52,20.25-.5c1.09-1.6-.08-2.86-1-10.75,0,0-.22-1.88-.63-9.38a335.88,335.88,0,0,1,1.88-59.64c1.62-11.21,1.83-22.62,3.88-33.76.75-4.1,1.25-6.21.13-8.63C351.73,359.13,315.21,359.17,308.68,372.23Z"/><path class="cls-26" d="M233,374.33c.78,1.57.3,1.65-.25,12.5-1,20.22.3,27.27-.88,34.13a21.59,21.59,0,0,0-.25,6,21.34,21.34,0,0,0,1.25,5.38c2,5.6,0,16.89-1.5,32.63-1.08,11.47-1.59,17.29-.38,21.38,1.08,3.62,2.45,5.85,1.25,7.75-3,4.7-18,1.62-18,1.63s.07-11.87-.5-23.13c-.72-14.19-2-18-1.88-31.63,0-2.71.07-2.37.13-5.75.31-19.58-1.21-37-1.75-37-.39,0-.38,9.11-.38,18.38,0,24.27,1.14,25.33.75,41.63-.25,10.15-1,24.7-1.25,28.51,0,.73-.5,9.13-.5,9.13s-16.84,4.52-20.25-.5c-1.09-1.6.08-2.86,1-10.75,0,0,.22-1.88.63-9.38a335.88,335.88,0,0,0-1.88-59.64c-1.62-11.21-1.83-22.62-3.88-33.76-.75-4.1-1.25-6.21-.13-8.63C190,361.23,226.49,361.27,233,374.33Z"/><path class="cls-27" d="M322.45,270.33c.59,1.07,3.27,6,8.21,7.09s10.51-1.79,11.94-5.41a26.71,26.71,0,0,0,1-5.49s7.6-.33,12.77,2.53c3.5,1.94,5.18,4.94,6.89,8,2.71,4.84,2.14,7.06,4.48,16,2.89,11.12,4.67,12.5,3.36,15.49-2.68,6.12-13.65,8.36-15.68,5.79-.74-.94.13-2,.37-5.23.42-5.55-1.5-10.78-2.24-10.72-1.14.09-1.33,12.63-.75,22.64a270.82,270.82,0,0,0,4.43,33c2.5,13.57,3.38,14.74,2.17,17.35-6.55,14.05-48,13.68-53.2,1.35-1.55-3.66,1.15-5.37,3.77-17.07,1.59-7.1,1.75-15.23,2-31.19.42-25.37-1.11-28.35-3.32-29.38-3.75-1.75-11.61,1.1-16.6,2.91-3.1,1.13-3.86,1.72-5.23,1.33-6.54-1.86-7.28-20.64-3.11-24.11.28-.24.6-.46.6-.46,1-.61,2.4-.54,7.19-1.88,6.85-1.91,6.56-2.69,12.07-4.24a86.6,86.6,0,0,1,16.59-2.75S321.89,269.29,322.45,270.33Z"/><path class="cls-27" d="M200.42,270.88c2.1,3,4.39,6.23,8.21,7.09,4.86,1.1,10.51-1.79,11.94-5.41a26.71,26.71,0,0,0,1-5.49h0a79.55,79.55,0,0,1,11.52.16,14.34,14.34,0,0,1,4,.62c3.07,1.43,4,4.95,5.4,9.92,1.57,5.47,2.36,8.21,6.89,27.76a5.75,5.75,0,0,1,.11,2.22,6.14,6.14,0,0,1-.4,1.39c-2.68,6.12-13.65,8.36-15.68,5.79-.74-.94.13-2,.37-5.23.42-5.55-1.5-10.78-2.24-10.72-1.14.09-1.33,12.63-.75,22.64a270.82,270.82,0,0,0,4.43,33c2.5,13.57,3.38,14.74,2.17,17.35-6.55,14.05-48,13.68-53.2,1.35a10.66,10.66,0,0,1-.43-1.59,25.42,25.42,0,0,1,1.12-14c2.63-7.79,3.14-18.66,3.79-32.67.58-12.41-.3-25.82-.3-25.82h0a40.47,40.47,0,0,0-4.08,12.54c-.49,3.64.06,4.72-.88,5.4-2.24,1.61-9.36-1.65-12-7.15-2.14-4.5,1-5.88,1.9-19.11.05-.76.77-5.46,2.19-14.88.21-1.4.69-4.3,2.88-5.77a8.42,8.42,0,0,1,3.16-1c6.82-1.51,6-1.4,6.81-1.53a60.8,60.8,0,0,1,9.79-.61h0A24.7,24.7,0,0,0,200.42,270.88Z"/><path class="cls-27" d="M430.39,273.71c5.73,4.81,5.78,6.54,8.21,7.09,4.86,1.1,10.51-1.79,11.94-5.41a26.71,26.71,0,0,0,1-5.49s7.6-.33,12.77,2.53c3.5,1.94,5.18,4.94,6.89,8,2.71,4.84,2.14,7.06,4.48,16,2.42,9.29,4.05,11.78,3.76,14.1a5.2,5.2,0,0,1-.4,1.39c-1.89,5.15-7.86,9.07-10.74,7.66-.46-.23-1.18-.76-2.82-7.71-1.37-5.84-1.46-8-1.9-8-.83,0-.81,7.6-2.84,20.5-1,6.09-1.51,7.91-.68,11,.76,2.84,2.51,5.47,6,10.72,2,3.08,3.79,5.4,4.17,5.91,5.83,7.77,7.75,8.5,8,10.86.56,5.29-8.14,10.28-10.9,11.86-22.84,13.1-51.24,7-53.2,1.35a14.93,14.93,0,0,1-.43-1.59c-.66-3.17.25-4.35.52-8.51.24-3.67-.32-4.81.79-6.41.35-.5.46-.47,1.82-2.06,1.84-2.15,2.27-2.95,2.54-2.85.74.28-1.44,6.37-.8,6.64s6.59-6.18,6-13.57c-.47-5.37-4.39-11.41-4.69-11.86a14.63,14.63,0,0,1-2.75-5.62c-.33-1.65-.16-2.67.3-6,1.31-9.67,1-9.32,1.66-12,.26-1,.72-2.74,1.62-6.29,1-3.89,1.23-5,.72-5.39s-1.85.35-5,2.87c-6.56,5.22-6.81,6.56-8.75,7.12-4.55,1.31-12.18-3.45-13.2-9-.87-4.77,3.88-5.57,15-21.22,2-2.83,3.78-5.52,7.31-7.19,3.93-1.86,9.85-2.39,9.85-2.39h0C427.52,271.4,428.84,272.41,430.39,273.71Z"/><path class="cls-27" d="M123.73,272.71c-5.73,4.81-5.78,6.54-8.21,7.09-4.86,1.1-10.51-1.79-11.94-5.41a26.71,26.71,0,0,1-1-5.49s-7.6-.33-12.77,2.53c-3.5,1.94-5.18,4.94-6.89,8-2.71,4.84-2.14,7.06-4.48,16-2.42,9.29-4.05,11.78-3.76,14.1A5.2,5.2,0,0,0,75,311c1.89,5.15,7.86,9.07,10.74,7.66.46-.23,1.18-.76,2.82-7.71,1.37-5.84,1.46-8,1.9-8,.83,0,.81,7.6,2.84,20.5,1,6.09,1.51,7.91.68,11-.76,2.84-2.51,5.47-6,10.72-2,3.08-3.79,5.4-4.17,5.91-5.83,7.77-7.75,8.5-8,10.86-.56,5.29,8.14,10.28,10.9,11.86,22.84,13.1,51.24,7,53.2,1.35a14.93,14.93,0,0,0,.43-1.59,10.52,10.52,0,0,0,.23-2c.05-2.9-.62-3.79-.76-6.56-.16-3.07.72-3.44,0-4.71s-1.76-1.08-3.56-2.9c-1.53-1.54-1.91-2.81-2.24-2.7-.7.23,1,5.73.44,5.91s-5.77-6.37-4.95-13.84A29.75,29.75,0,0,1,134.21,335a14.63,14.63,0,0,0,2.75-5.62c.33-1.65.16-2.67-.3-6-1.31-9.67-1-9.32-1.66-12-.26-1-.72-2.74-1.62-6.29-1-3.89-1.23-5-.72-5.39s1.85.35,5,2.87c6.56,5.22,6.81,6.56,8.75,7.12,4.55,1.31,12.18-3.45,13.2-9,.87-4.77-3.88-5.57-15-21.22-2-2.83-3.78-5.52-7.31-7.19-3.93-1.86-9.85-2.39-9.85-2.39C126.61,270.4,125.28,271.41,123.73,272.71Z"/><path class="cls-16" d="M109.76,315.79c-1.05-1,.42-2.86-.47-4.92a4.63,4.63,0,0,0-3.89-2.65c-2.43-.1-4.49,2.13-4.95,4.42a5,5,0,0,0,1.24,4.59c1.92,1.62,4.65,0,5.79,1.49.64.85-.11,1.5.22,3.81a7.12,7.12,0,0,0,2,4.58,5.88,5.88,0,0,0,5.39,1.07,6.23,6.23,0,0,0,4.42-5.83,6,6,0,0,0-2-4.48,9.16,9.16,0,0,0-5.07-1.7C110.77,316,110.27,316.28,109.76,315.79Z"/><path class="cls-16" d="M110.28,303.16c0,2.13,2.72,2.55,7.66,6.77,4.39,3.75,5,5.78,7,5.56,2.38-.27,4.24-3.54,4.62-6.07a6.76,6.76,0,0,0-.34-3.54,5.37,5.37,0,0,0-2.4-3,5.47,5.47,0,0,0-4.51-.06c-1.71.77-2.1,2.14-2.8,1.94s-.28-2.15-1.6-3.88a4.69,4.69,0,0,0-3.31-1.83A4.62,4.62,0,0,0,110.28,303.16Z"/><path class="cls-27" d="M105.49,311.26a1.78,1.78,0,0,0-1.37.46,2.07,2.07,0,0,0-.29,2.34c0,.08.64,1.28,1.71,1.2a1.87,1.87,0,0,0,1.54-1.54A2.13,2.13,0,0,0,105.49,311.26Z"/><path class="cls-27" d="M111.78,320.06a2.57,2.57,0,0,0-.34,1.94,3.13,3.13,0,0,0,1.26,2.51,2.69,2.69,0,0,0,3.37-4.06C115,319.07,112.63,319,111.78,320.06Z"/><path class="cls-27" d="M113.09,302.92c0,.3.52.27,1.54.8,1.33.69,1.71,1.36,2,1.2s.18-1.32-.29-2.11a2,2,0,0,0-1.09-1C114.25,301.48,113,302.41,113.09,302.92Z"/><path class="cls-27" d="M120.35,308.12c.09.63.95.54,2.4,1.71,1.68,1.36,1.77,2.49,2.51,2.46,1,0,1.89-2.09,1.83-3.77a3,3,0,0,0-.8-2.17,2.86,2.86,0,0,0-1.94-.69C122.35,305.59,120.21,307.09,120.35,308.12Z"/><path class="cls-16" d="M205.39,305.18c-.08-1.46,2.27-1.79,3-3.91a4.63,4.63,0,0,0-1-4.6c-1.69-1.74-4.72-1.54-6.63-.18a5,5,0,0,0-2.25,4.19c.28,2.5,3.39,3.17,3.18,5.06-.12,1.05-1.11,1-2.45,2.92a7.12,7.12,0,0,0-1.67,4.72,5.88,5.88,0,0,0,3.19,4.48,6.23,6.23,0,0,0,7.21-1.21,6,6,0,0,0,1.62-4.63,9.16,9.16,0,0,0-2.52-4.72C206,306,205.43,305.89,205.39,305.18Z"/><path class="cls-16" d="M213.61,296.44c-1.46,1.56.23,3.72.92,10.18.62,5.74-.32,7.65,1.26,8.83,1.91,1.44,5.51.33,7.53-1.24a6.76,6.76,0,0,0,2.18-2.81,5.37,5.37,0,0,0,.29-3.81,5.47,5.47,0,0,0-3.24-3.14c-1.77-.61-3,.12-3.37-.51s1.27-1.75,1.5-3.92a4.69,4.69,0,0,0-1.16-3.6A4.62,4.62,0,0,0,213.61,296.44Z"/><path class="cls-27" d="M205.39,299a1.78,1.78,0,0,0-1.31-.61,2.07,2.07,0,0,0-1.82,1.51,2,2,0,0,0,.42,2,1.87,1.87,0,0,0,2.18-.06A2.13,2.13,0,0,0,205.39,299Z"/><path class="cls-27" d="M203.92,309.67a2.57,2.57,0,0,0-1.58,1.18,3.13,3.13,0,0,0-.81,2.69,2.69,2.69,0,0,0,5.24-.64C206.94,311.15,205.24,309.51,203.92,309.67Z"/><path class="cls-27" d="M215.82,298.19c-.17.25.2.55.57,1.64.49,1.42.3,2.16.63,2.24s1-.84,1.24-1.73a2,2,0,0,0-.08-1.49C217.65,297.94,216.11,297.76,215.82,298.19Z"/><path class="cls-27" d="M217.53,306.95c-.37.51.32,1,.57,2.89.29,2.15-.42,3,.14,3.51.75.65,2.81-.22,3.92-1.49a3,3,0,0,0,.91-2.13,2.86,2.86,0,0,0-.94-1.83C220.72,306.49,218.13,306.1,217.53,306.95Z"/><path class="cls-16" d="M328.27,301.92c.89-1.15,2.89.13,4.85-1a4.63,4.63,0,0,0,2.23-4.14c-.15-2.42-2.58-4.25-4.91-4.46A5,5,0,0,0,326,294c-1.42,2.08.5,4.62-.88,5.91-.77.72-1.5,0-3.77.61a7.12,7.12,0,0,0-4.35,2.49,5.88,5.88,0,0,0-.51,5.48,6.23,6.23,0,0,0,6.26,3.79,6,6,0,0,0,4.25-2.45,9.16,9.16,0,0,0,1.17-5.22C328.18,302.94,327.84,302.48,328.27,301.92Z"/><path class="cls-16" d="M340.69,301.35c-2.12.23-2.25,3-5.94,8.32-3.27,4.75-5.23,5.59-4.81,7.52.51,2.33,4,3.85,6.51,4a6.76,6.76,0,0,0,3.48-.71,5.37,5.37,0,0,0,2.71-2.69,5.47,5.47,0,0,0-.41-4.5c-.95-1.62-2.35-1.87-2.22-2.58s2.11-.5,3.7-2a4.69,4.69,0,0,0,1.48-3.48A4.62,4.62,0,0,0,340.69,301.35Z"/><path class="cls-27" d="M332.34,297.2a1.78,1.78,0,0,0-.6-1.32,2.07,2.07,0,0,0-2.36,0c-.08,0-1.2.77-1,1.83a1.87,1.87,0,0,0,1.69,1.37A2.13,2.13,0,0,0,332.34,297.2Z"/><path class="cls-27" d="M324.24,304.36a2.57,2.57,0,0,0-2-.14,3.13,3.13,0,0,0-2.37,1.51,2.69,2.69,0,0,0,4.38,2.93C325.55,307.45,325.33,305.1,324.24,304.36Z"/><path class="cls-27" d="M341.22,304.11c-.29.08-.21.55-.64,1.62-.55,1.39-1.18,1.84-1,2.11s1.33,0,2.07-.5a2,2,0,0,0,.91-1.19C342.77,305.12,341.72,304,341.22,304.11Z"/><path class="cls-27" d="M336.8,311.87c-.61.15-.44,1-1.46,2.56-1.18,1.82-2.29,2-2.18,2.75.15,1,2.27,1.67,3.94,1.43a3,3,0,0,0,2.08-1,2.86,2.86,0,0,0,.48-2C339.52,313.6,337.81,311.62,336.8,311.87Z"/><path class="cls-16" d="M436.16,316.3c-1.05-1,.42-2.86-.47-4.92a4.63,4.63,0,0,0-3.89-2.65c-2.43-.1-4.49,2.13-4.95,4.42a5,5,0,0,0,1.24,4.59c1.92,1.62,4.65,0,5.79,1.49.64.85-.11,1.5.22,3.81a7.12,7.12,0,0,0,2,4.58,5.88,5.88,0,0,0,5.39,1.07,6.23,6.23,0,0,0,4.42-5.83,6,6,0,0,0-2-4.48,9.16,9.16,0,0,0-5.07-1.7C437.17,316.5,436.67,316.78,436.16,316.3Z"/><path class="cls-16" d="M436.68,303.67c0,2.13,2.72,2.55,7.66,6.77,4.39,3.75,5,5.78,7,5.56,2.38-.27,4.24-3.54,4.62-6.07a6.76,6.76,0,0,0-.34-3.54,5.37,5.37,0,0,0-2.4-3,5.47,5.47,0,0,0-4.51-.06c-1.71.77-2.1,2.14-2.8,1.94s-.28-2.15-1.6-3.88A4.69,4.69,0,0,0,441,299.6,4.62,4.62,0,0,0,436.68,303.67Z"/><path class="cls-27" d="M431.89,311.77a1.78,1.78,0,0,0-1.37.46,2.07,2.07,0,0,0-.29,2.34c0,.08.64,1.28,1.71,1.2a1.87,1.87,0,0,0,1.54-1.54A2.13,2.13,0,0,0,431.89,311.77Z"/><path class="cls-27" d="M438.17,320.56a2.57,2.57,0,0,0-.34,1.94,3.13,3.13,0,0,0,1.26,2.51,2.69,2.69,0,0,0,3.37-4.06C441.38,319.58,439,319.55,438.17,320.56Z"/><path class="cls-27" d="M439.49,303.42c0,.3.52.27,1.54.8,1.33.69,1.71,1.36,2,1.2s.18-1.32-.29-2.11a2,2,0,0,0-1.09-1C440.65,302,439.41,302.92,439.49,303.42Z"/><path class="cls-27" d="M446.74,308.62c.09.63.95.54,2.4,1.71,1.68,1.36,1.77,2.49,2.51,2.46,1,0,1.89-2.09,1.83-3.77a3,3,0,0,0-.8-2.17,2.86,2.86,0,0,0-1.94-.69C448.75,306.1,446.6,307.6,446.74,308.62Z"/><circle class="cls-16" cx="122.63" cy="319.2" r="2.09"/><circle class="cls-16" cx="212.27" cy="316.44" r="2.09"/><circle class="cls-16" cx="325.71" cy="315.41" r="2.09"/><circle class="cls-16" cx="448.02" cy="318.82" r="2.09"/></g></g></svg>
