<svg xmlns="http://www.w3.org/2000/svg" width="100" height="88.46" viewBox="0 0 100 88.46"><defs><style>.cls-1{fill:#202532;}.cls-2,.cls-3{fill:#fff;}.cls-3{font-size:9px;font-family:Futura-CondensedExtraBold, Futura;}.cls-4{font-weight:700;}.cls-5{letter-spacing:-0.01em;}.cls-6{letter-spacing:-0.01em;}.cls-7{font-size:4px;font-family:Futura-Medium, Futura;}.cls-8{letter-spacing:0.01em;}.cls-9{letter-spacing:-0.01em;}.cls-10{letter-spacing:-0.02em;}.cls-11{letter-spacing:0.01em;}.cls-12{letter-spacing:-0.01em;}.cls-13{letter-spacing:0.02em;}.cls-14{letter-spacing:-0.02em;}.cls-15{letter-spacing:0.01em;}.cls-16{letter-spacing:0.02em;}.cls-17{letter-spacing:-0.02em;}.cls-18{letter-spacing:-0.04em;}.cls-19{letter-spacing:-0.02em;}.cls-20{letter-spacing:-0.01em;}</style></defs><title>babysitting_info</title><g id="Layer_2" data-name="Layer 2"><g id="Layer_1-2" data-name="Layer 1"><path class="cls-1" d="M7.72,68.92l-1-.31A8.21,8.21,0,0,1,1,60.77V9.23A8.24,8.24,0,0,1,9.23,1H90.77A8.24,8.24,0,0,1,99,9.23V60.77A8.24,8.24,0,0,1,90.77,69H18.69L2.28,84.86Z"/><path class="cls-2" d="M90.77,2A7.23,7.23,0,0,1,98,9.23V60.77A7.23,7.23,0,0,1,90.77,68H18.28l-.58.56L4.57,81.26,8.34,70.21,9,68.28l-1.95-.62a7.31,7.31,0,0,1-5-6.89V9.23A7.23,7.23,0,0,1,9.23,2H90.77m0-2H9.23A9.25,9.25,0,0,0,0,9.23V60.77a9.27,9.27,0,0,0,6.44,8.8L0,88.46,19.09,70H90.77A9.25,9.25,0,0,0,100,60.77V9.23A9.25,9.25,0,0,0,90.77,0Z"/><text class="cls-3" transform="translate(9.8 13.82)"><tspan class="cls-4">H<tspan class="cls-5" x="5.49" y="0">o</tspan><tspan class="cls-6" x="10.38" y="0">v</tspan><tspan x="14.81" y="0">sa!</tspan></tspan><tspan class="cls-7"><tspan x="0" y="12">I d</tspan><tspan class="cls-8" x="4.81" y="12">e</tspan><tspan x="7.06" y="12">t</tspan><tspan class="cls-8" x="8.15" y="12">t</tspan><tspan x="9.28" y="12">e til</tspan><tspan class="cls-9" x="15.82" y="12">f</tspan><tspan x="16.98" y="12">ælde s</tspan><tspan class="cls-10" x="28.89" y="12">k</tspan><tspan x="30.81" y="12">al du spørge </tspan><tspan class="cls-11" x="55.02" y="12">f</tspan><tspan x="56.25" y="12">o</tspan><tspan class="cls-12" x="58.66" y="12">r</tspan><tspan x="60.13" y="12">æld</tspan><tspan class="cls-12" x="66.96" y="12">r</tspan><tspan x="68.43" y="12">ene til </tspan><tspan x="0" y="16.8">ba</tspan><tspan class="cls-13" x="4.8" y="16.8">r</tspan><tspan x="6.35" y="16.8">n</tspan><tspan class="cls-8" x="8.55" y="16.8">e</tspan><tspan x="10.79" y="16.8">t om d</tspan><tspan class="cls-8" x="22.32" y="16.8">e</tspan><tspan x="24.57" y="16.8">t o</tspan><tspan class="cls-10" x="29.3" y="16.8">k</tspan><tspan class="cls-8" x="31.23" y="16.8">a</tspan><tspan x="33.66" y="16.8">y at dele billede.</tspan><tspan x="0" y="21.6">Se</tspan><tspan class="cls-8" x="4.54" y="21.6">l</tspan><tspan class="cls-14" x="5.58" y="21.6">v</tspan><tspan x="7.51" y="21.6">om d</tspan><tspan class="cls-8" x="16.71" y="21.6">e</tspan><tspan x="18.96" y="21.6">t </tspan><tspan class="cls-10" x="21.29" y="21.6">k</tspan><tspan x="23.21" y="21.6">an </tspan><tspan class="cls-15" x="29.04" y="21.6">f</tspan><tspan x="30.27" y="21.6">øles </tspan><tspan class="cls-16" x="38.74" y="21.6">f</tspan><tspan x="40.01" y="21.6">joll</tspan><tspan class="cls-8" x="45.4" y="21.6">e</tspan><tspan x="47.65" y="21.6">t, når d</tspan><tspan class="cls-8" x="60.93" y="21.6">e</tspan><tspan x="63.18" y="21.6">t ba</tspan><tspan class="cls-12" x="70.3" y="21.6">r</tspan><tspan x="71.77" y="21.6">e er </tspan><tspan x="0" y="26.4">en ba</tspan><tspan class="cls-17" x="10.44" y="26.4">b</tspan><tspan class="cls-18" x="12.76" y="26.4">y</tspan><tspan x="14.77" y="26.4">, så tænk på at denne ba</tspan><tspan class="cls-17" x="60.45" y="26.4">b</tspan><tspan x="62.77" y="26.4">y </tspan><tspan class="cls-13" x="66.18" y="26.4">f</tspan><tspan x="67.43" y="26.4">aktisk </tspan><tspan x="0" y="31.2">ik</tspan><tspan class="cls-19" x="2.99" y="31.2">k</tspan><tspan x="4.92" y="31.2">e har mulighed </tspan><tspan class="cls-11" x="33.46" y="31.2">f</tspan><tspan x="34.69" y="31.2">or at sty</tspan><tspan class="cls-12" x="49.44" y="31.2">r</tspan><tspan x="50.91" y="31.2">e sin egen </tspan><tspan x="0" y="36">online-tils</tspan><tspan class="cls-8" x="16.58" y="36">t</tspan><tspan x="17.71" y="36">ed</tspan><tspan class="cls-10" x="22.32" y="36">e</tspan><tspan class="cls-20" x="24.46" y="36">v</tspan><tspan x="26.42" y="36">æ</tspan><tspan class="cls-12" x="29.87" y="36">r</tspan><tspan x="31.33" y="36">else.</tspan></tspan></text></g></g></svg>
