<?xml version="1.0" encoding="utf-8"?>
<!-- Generator: Adobe Illustrator 21.1.0, SVG Export Plug-In . SVG Version: 6.00 Build 0)  -->
<svg version="1.1" id="Layer_1" xmlns="http://www.w3.org/2000/svg" xmlns:xlink="http://www.w3.org/1999/xlink" x="0px" y="0px"
	 viewBox="0 0 626 621" style="enable-background:new 0 0 626 621;" xml:space="preserve">
<path d="M29.9,601.9c-4.6-2.7,10.4-70.2,11.1-73.3c13.6-60.4,26.9-120,60.1-188c15-30.9,44.3-89.8,97.9-140.2
	c21.8-20.5,57.9-53.7,109-66.9c42.2-10.9,100.2-9.6,100.1-9.6l0,0c0,0,1.8-27.9,2.2-57.4c0.3-21.1,0-44.6,0-44.6l0,0
	c0,0,173.6,191.2,173.6,191.2l0,0c0,0-171.3,191.2-171.4,191.2l0,0c0,0-2.2-105.2-2.2-105.2l0,0c0,0-46.6-3.5-82.3,0
	c-9.2,0.9-45.1,4.9-89,25.5c-26.1,12.2-61.3,29.2-97.9,70.1c-28.2,31.6-45.4,64.2-60.1,92.4C47.6,551.6,34,604.3,29.9,601.9z"/>
</svg>
