<svg xmlns="http://www.w3.org/2000/svg" width="99" height="99" viewBox="0 0 99 99"><defs><style>.cls-1{fill:#f4912d;}.cls-2,.cls-3{fill:none;stroke:#fff;stroke-miterlimit:10;}.cls-2{stroke-width:9px;}.cls-3{stroke-width:10px;}</style></defs><title>delknap</title><g id="Layer_2" data-name="Layer 2"><g id="Layer_1-2" data-name="Layer 1"><path class="cls-1" d="M16,0h69A13.94,13.94,0,0,1,99,13.94V85.06A13.94,13.94,0,0,1,85.06,99H13.94A13.94,13.94,0,0,1,0,85.06V16A16,16,0,0,1,16,0Z"/><path class="cls-2" d="M79.64,18.24,41,79.43a1.16,1.16,0,0,0,.49,1.65l.54.28a1.39,1.39,0,0,0,1.81-.44L82.47,19.73a.92.92,0,0,0-.39-1.32l-1-.53A1.1,1.1,0,0,0,79.64,18.24Z"/><path class="cls-3" d="M15.78,50,39.67,79.37c.23.28.78.14,1.24-.31l.39-.38c.45-.44.64-1,.41-1.31L17.83,48c-.18-.22-.63-.11-1,.24l-.72.71C15.75,49.35,15.6,49.81,15.78,50Z"/></g></g></svg>
