<svg xmlns="http://www.w3.org/2000/svg" width="99" height="99" viewBox="0 0 99 99"><defs><style>.cls-1{fill:#f4912d;}.cls-2,.cls-3{fill:none;stroke:#fff;stroke-miterlimit:10;}.cls-2{stroke-width:3.9px;}.cls-3{stroke-width:3.13px;}</style></defs><title>delknap</title><g id="Layer_2" data-name="Layer 2"><g id="Layer_1-2" data-name="Layer 1"><path class="cls-1" d="M16,0h69A13.94,13.94,0,0,1,99,13.94V85.06A13.94,13.94,0,0,1,85.06,99H13.94A13.94,13.94,0,0,1,0,85.06V16A16,16,0,0,1,16,0Z"/><path class="cls-2" d="M82.64,19.23,44,80.43a1.16,1.16,0,0,0,.49,1.65l.54.28a1.39,1.39,0,0,0,1.81-.44L85.47,20.73a.92.92,0,0,0-.39-1.32l-1-.53A1.11,1.11,0,0,0,82.64,19.23Z"/><path class="cls-3" d="M13.78,45.15,43.57,81.26c.28.34.92.21,1.43-.29l.44-.43c.51-.5.7-1.18.42-1.52L16.07,42.91c-.23-.27-.74-.17-1.15.23l-.81.79C13.7,44.33,13.55,44.88,13.78,45.15Z"/></g></g></svg>
