<svg xmlns="http://www.w3.org/2000/svg" width="100" height="88.46" viewBox="0 0 100 88.46"><defs><style>.cls-1{fill:#89cce5;}.cls-2,.cls-3{fill:#fff;}.cls-3{font-size:9px;font-family:Futura-CondensedExtraBold, Futura;}.cls-4{font-weight:700;}.cls-5{letter-spacing:-0.05em;}.cls-6{font-size:4px;font-family:Futura-Medium, Futura;}.cls-7{letter-spacing:-0.02em;}.cls-8{letter-spacing:0.01em;}.cls-9{letter-spacing:0.01em;}.cls-10{letter-spacing:0.01em;}.cls-11{letter-spacing:-0.02em;}.cls-12{letter-spacing:-0.01em;}.cls-13{letter-spacing:-0.02em;}.cls-14{letter-spacing:-0.01em;}.cls-15{letter-spacing:-0.02em;}.cls-16{letter-spacing:0.02em;}.cls-17{letter-spacing:-0.04em;}.cls-18{letter-spacing:0.03em;}</style></defs><title>druk_ros</title><g id="Layer_2" data-name="Layer 2"><g id="Layer_1-2" data-name="Layer 1"><path class="cls-1" d="M7.72,68.92l-1-.31A8.21,8.21,0,0,1,1,60.77V9.23A8.24,8.24,0,0,1,9.23,1H90.77A8.24,8.24,0,0,1,99,9.23V60.77A8.24,8.24,0,0,1,90.77,69H18.69L2.28,84.86Z"/><path class="cls-2" d="M90.77,2A7.23,7.23,0,0,1,98,9.23V60.77A7.23,7.23,0,0,1,90.77,68H18.28l-.58.56L4.57,81.26,8.34,70.21,9,68.28l-1.95-.62a7.31,7.31,0,0,1-5-6.89V9.23A7.23,7.23,0,0,1,9.23,2H90.77m0-2H9.23A9.25,9.25,0,0,0,0,9.23V60.77a9.27,9.27,0,0,0,6.44,8.8L0,88.46,19.09,70H90.77A9.25,9.25,0,0,0,100,60.77V9.23A9.25,9.25,0,0,0,90.77,0Z"/><text class="cls-3" transform="translate(9.8 13.82)"><tspan class="cls-4"><tspan class="cls-5">Y</tspan><tspan x="4.64" y="0">es!</tspan></tspan><tspan class="cls-6"><tspan x="0" y="12">Godt du ik</tspan><tspan class="cls-7" x="19.3" y="12">k</tspan><tspan x="21.23" y="12">e del</tspan><tspan class="cls-8" x="30.28" y="12">t</tspan><tspan x="31.41" y="12">e billed</tspan><tspan class="cls-8" x="44.86" y="12">e</tspan><tspan x="47.11" y="12">t, </tspan><tspan class="cls-9" x="50.67" y="12">f</tspan><tspan x="51.9" y="12">or der er s</tspan><tspan class="cls-10" x="70.95" y="12">t</tspan><tspan x="72.07" y="12">or </tspan><tspan class="cls-9" x="0" y="16.8">f</tspan><tspan x="1.24" y="16.8">ors</tspan><tspan class="cls-7" x="6.76" y="16.8">k</tspan><tspan x="8.69" y="16.8">el på, h</tspan><tspan class="cls-11" x="22.59" y="16.8">v</tspan><tspan x="24.52" y="16.8">o</tspan><tspan class="cls-12" x="26.93" y="16.8">r</tspan><tspan x="28.4" y="16.8">dan mennes</tspan><tspan class="cls-7" x="50.22" y="16.8">k</tspan><tspan x="52.15" y="16.8">er opl</tspan><tspan class="cls-13" x="62.89" y="16.8">ev</tspan><tspan x="66.98" y="16.8">er </tspan><tspan x="0" y="21.6">billeddeling, </tspan><tspan class="cls-8" x="23.66" y="21.6">e</tspan><tspan x="25.91" y="21.6">t billede som d</tspan><tspan class="cls-8" x="52.5" y="21.6">e</tspan><tspan x="54.75" y="21.6">t</tspan><tspan class="cls-8" x="55.85" y="21.6">t</tspan><tspan x="56.97" y="21.6">e </tspan><tspan class="cls-13" x="60.42" y="21.6">k</tspan><tspan x="62.35" y="21.6">an </tspan><tspan class="cls-14" x="68.17" y="21.6">v</tspan><tspan x="70.13" y="21.6">æ</tspan><tspan class="cls-12" x="73.58" y="21.6">r</tspan><tspan x="75.04" y="21.6">e </tspan><tspan x="0" y="26.4">g</tspan><tspan class="cls-12" x="2.39" y="26.4">r</tspan><tspan x="3.86" y="26.4">ænse</tspan><tspan class="cls-15" x="13.34" y="26.4">o</tspan><tspan class="cls-13" x="15.66" y="26.4">v</tspan><tspan x="17.6" y="26.4">ersk</tspan><tspan class="cls-16" x="24.93" y="26.4">r</tspan><tspan x="26.48" y="26.4">idende </tspan><tspan class="cls-9" x="40.13" y="26.4">f</tspan><tspan x="41.37" y="26.4">or én og helt o</tspan><tspan class="cls-13" x="68.31" y="26.4">k</tspan><tspan class="cls-8" x="70.23" y="26.4">a</tspan><tspan x="72.67" y="26.4">y </tspan><tspan class="cls-9" x="0" y="31.2">f</tspan><tspan x="1.24" y="31.2">or en anden. D</tspan><tspan class="cls-8" x="28.78" y="31.2">e</tspan><tspan x="31.03" y="31.2">t er vigtigt at </tspan><tspan class="cls-8" x="55.24" y="31.2">t</tspan><tspan x="56.37" y="31.2">ale om, at vi </tspan><tspan x="0" y="36">har </tspan><tspan class="cls-9" x="7.32" y="36">f</tspan><tspan x="8.56" y="36">ors</tspan><tspan class="cls-7" x="14.08" y="36">k</tspan><tspan x="16.01" y="36">ellige g</tspan><tspan class="cls-12" x="29.45" y="36">r</tspan><tspan x="30.92" y="36">ænse</tspan><tspan class="cls-17" x="40.39" y="36">r</tspan><tspan x="41.72" y="36">, og at man de</tspan><tspan class="cls-18" x="68.55" y="36">r</tspan><tspan class="cls-9" x="70.18" y="36">f</tspan><tspan x="71.42" y="36">or </tspan><tspan x="0" y="40.8">ik</tspan><tspan class="cls-7" x="2.99" y="40.8">k</tspan><tspan x="4.92" y="40.8">e </tspan><tspan class="cls-13" x="8.36" y="40.8">k</tspan><tspan x="10.29" y="40.8">an </tspan><tspan class="cls-8" x="16.11" y="40.8">t</tspan><tspan x="17.24" y="40.8">age udgangspunkt i sig se</tspan><tspan class="cls-8" x="64.47" y="40.8">l</tspan><tspan class="cls-17" x="65.5" y="40.8">v</tspan><tspan x="67.35" y="40.8">, når </tspan><tspan x="0" y="45.6">der er and</tspan><tspan class="cls-12" x="19.28" y="45.6">r</tspan><tspan x="20.74" y="45.6">e på billed</tspan><tspan class="cls-8" x="40.22" y="45.6">e</tspan><tspan x="42.47" y="45.6">t.</tspan></tspan></text></g></g></svg>
