<svg xmlns="http://www.w3.org/2000/svg" width="100" height="88.46" viewBox="0 0 100 88.46"><defs><style>.cls-1{fill:#202532;}.cls-2,.cls-3{fill:#fff;}.cls-3{font-size:9px;font-family:Futura-CondensedExtraBold, Futura;}.cls-4{font-weight:700;}.cls-5{letter-spacing:0.01em;}.cls-6{letter-spacing:0.01em;}.cls-7{letter-spacing:0.01em;}.cls-8{font-size:4px;font-family:Futura-Medium, Futura;}.cls-9{letter-spacing:0.01em;}.cls-10{letter-spacing:-0.02em;}.cls-11{letter-spacing:-0.01em;}.cls-12{letter-spacing:0.02em;}.cls-13{letter-spacing:-0.02em;}.cls-14{letter-spacing:-0.04em;}.cls-15{letter-spacing:-0.02em;}.cls-16{letter-spacing:0.01em;}.cls-17{letter-spacing:-0.08em;}.cls-18{letter-spacing:0.02em;}</style></defs><title>ferie_info</title><g id="Layer_2" data-name="Layer 2"><g id="Layer_1-2" data-name="Layer 1"><path class="cls-1" d="M7.72,68.92l-1-.31A8.21,8.21,0,0,1,1,60.77V9.23A8.24,8.24,0,0,1,9.23,1H90.77A8.24,8.24,0,0,1,99,9.23V60.77A8.24,8.24,0,0,1,90.77,69H18.69L2.28,84.86Z"/><path class="cls-2" d="M90.77,2A7.23,7.23,0,0,1,98,9.23V60.77A7.23,7.23,0,0,1,90.77,68H18.28l-.58.56L4.57,81.26,8.34,70.21,9,68.28l-1.95-.62a7.31,7.31,0,0,1-5-6.89V9.23A7.23,7.23,0,0,1,9.23,2H90.77m0-2H9.23A9.25,9.25,0,0,0,0,9.23V60.77a9.27,9.27,0,0,0,6.44,8.8L0,88.46,19.09,70H90.77A9.25,9.25,0,0,0,100,60.77V9.23A9.25,9.25,0,0,0,90.77,0Z"/><text class="cls-3" transform="translate(9.8 13.82)"><tspan class="cls-4"><tspan class="cls-5">V</tspan><tspan x="5.38" y="0">id</tspan><tspan class="cls-6" x="13.02" y="0">s</tspan><tspan class="cls-7" x="17.1" y="0">t</tspan><tspan x="20.22" y="0">e du?</tspan></tspan><tspan class="cls-8"><tspan x="0" y="12">D</tspan><tspan class="cls-9" x="2.9" y="12">e</tspan><tspan x="5.15" y="12">t er ul</tspan><tspan class="cls-10" x="15.6" y="12">o</tspan><tspan class="cls-9" x="17.92" y="12">v</tspan><tspan x="19.97" y="12">ligt at dele billeder af and</tspan><tspan class="cls-11" x="67.22" y="12">r</tspan><tspan x="68.69" y="12">e i </tspan><tspan x="0" y="16.8">p</tspan><tspan class="cls-12" x="2.4" y="16.8">r</tspan><tspan x="3.96" y="16.8">i</tspan><tspan class="cls-13" x="4.95" y="16.8">v</tspan><tspan x="6.89" y="16.8">a</tspan><tspan class="cls-9" x="9.29" y="16.8">t</tspan><tspan x="10.42" y="16.8">e og intime situatione</tspan><tspan class="cls-14" x="48.98" y="16.8">r</tspan><tspan x="50.32" y="16.8">, som p</tspan><tspan class="cls-7" x="63.61" y="16.8">o</tspan><tspan class="cls-9" x="66.04" y="16.8">t</tspan><tspan x="67.17" y="16.8">entielt </tspan><tspan x="0" y="21.6">yd</tspan><tspan class="cls-15" x="4.57" y="21.6">m</tspan><tspan x="7.67" y="21.6">yger eller k</tspan><tspan class="cls-11" x="28.32" y="21.6">r</tspan><tspan x="29.79" y="21.6">æn</tspan><tspan class="cls-15" x="35.43" y="21.6">k</tspan><tspan x="37.36" y="21.6">er de</tspan><tspan class="cls-11" x="46.91" y="21.6">r</tspan><tspan x="48.38" y="21.6">es p</tspan><tspan class="cls-12" x="55.85" y="21.6">r</tspan><tspan x="57.41" y="21.6">i</tspan><tspan class="cls-13" x="58.4" y="21.6">v</tspan><tspan x="60.34" y="21.6">atliv uden </tspan><tspan x="0" y="26.4">samtyk</tspan><tspan class="cls-15" x="12.45" y="26.4">k</tspan><tspan x="14.37" y="26.4">e. </tspan><tspan class="cls-16" x="0" y="31.2">V</tspan><tspan x="2.74" y="31.2">ids</tspan><tspan class="cls-9" x="7.76" y="31.2">t</tspan><tspan x="8.89" y="31.2">e du, at personen er under </tspan><tspan class="cls-17" x="58.74" y="31.2">1</tspan><tspan x="60.91" y="31.2">8, så </tspan><tspan x="0" y="36">hø</tspan><tspan class="cls-11" x="4.6" y="36">r</tspan><tspan x="6.07" y="36">er d</tspan><tspan class="cls-9" x="13.41" y="36">e</tspan><tspan x="15.66" y="36">t </tspan><tspan class="cls-11" x="17.98" y="36">r</tspan><tspan x="19.45" y="36">ent </tspan><tspan class="cls-12" x="26.19" y="36">f</tspan><tspan x="27.44" y="36">aktisk under </tspan><tspan x="0" y="40.8">bø</tspan><tspan class="cls-12" x="4.8" y="40.8">r</tspan><tspan x="6.36" y="40.8">nepo</tspan><tspan class="cls-12" x="15.57" y="40.8">r</tspan><tspan x="17.13" y="40.8">nog</tspan><tspan class="cls-11" x="24.12" y="40.8">r</tspan><tspan x="25.59" y="40.8">a</tspan><tspan class="cls-18" x="27.98" y="40.8">f</tspan><tspan x="29.26" y="40.8">i?</tspan></tspan></text></g></g></svg>
