<svg xmlns="http://www.w3.org/2000/svg" width="99" height="99" viewBox="0 0 99 99"><defs><style>.cls-1{fill:#202532;}.cls-2{fill:none;stroke:#fff;stroke-miterlimit:10;stroke-width:5px;}</style></defs><title>Asset 16</title><g id="Layer_2" data-name="Layer 2"><g id="Layer_1-2" data-name="Layer 1"><path class="cls-1" d="M16,0h69A13.94,13.94,0,0,1,99,13.94V85.06A13.94,13.94,0,0,1,85.06,99H13.94A13.94,13.94,0,0,1,0,85.06V16A16,16,0,0,1,16,0Z"/><path class="cls-2" d="M7.79,47.85H92.39a1,1,0,0,1,1,1v1.18a1,1,0,0,1-1,1H7.79a1.31,1.31,0,0,1-1.31-1.31v-.66a1.31,1.31,0,0,1,1.31-1.31Z" transform="translate(-20.27 52.98) rotate(-47.57)"/><path class="cls-2" d="M7.79,47.85H92.39a1,1,0,0,1,1,1v1.18a1,1,0,0,1-1,1H7.79a1.31,1.31,0,0,1-1.31-1.31v-.66a1.31,1.31,0,0,1,1.31-1.31Z" transform="translate(50.3 119.8) rotate(-135)"/></g></g></svg>
