<svg xmlns="http://www.w3.org/2000/svg" width="100" height="88.46" viewBox="0 0 100 88.46"><defs><style>.cls-1{fill:#202532;}.cls-2,.cls-3{fill:#fff;}.cls-3{font-size:9px;font-family:Futura-CondensedExtraBold, Futura;}.cls-4{font-weight:700;}.cls-5{letter-spacing:0em;}.cls-6{font-size:4px;font-family:Futura-Medium, Futura;}.cls-7{letter-spacing:0.01em;}.cls-8{letter-spacing:0.02em;}.cls-9{letter-spacing:-0.01em;}.cls-10{letter-spacing:-0.02em;}.cls-11{letter-spacing:-0.02em;}</style></defs><title>rejse_info</title><g id="Layer_2" data-name="Layer 2"><g id="Layer_1-2" data-name="Layer 1"><path class="cls-1" d="M7.72,68.92l-1-.31A8.21,8.21,0,0,1,1,60.77V9.23A8.24,8.24,0,0,1,9.23,1H90.77A8.24,8.24,0,0,1,99,9.23V60.77A8.24,8.24,0,0,1,90.77,69H18.69L2.28,84.86Z"/><path class="cls-2" d="M90.77,2A7.23,7.23,0,0,1,98,9.23V60.77A7.23,7.23,0,0,1,90.77,68H18.28l-.58.56L4.57,81.26,8.34,70.21,9,68.28l-1.95-.62a7.31,7.31,0,0,1-5-6.89V9.23A7.23,7.23,0,0,1,9.23,2H90.77m0-2H9.23A9.25,9.25,0,0,0,0,9.23V60.77a9.27,9.27,0,0,0,6.44,8.8L0,88.46,19.09,70H90.77A9.25,9.25,0,0,0,100,60.77V9.23A9.25,9.25,0,0,0,90.77,0Z"/><text class="cls-3" transform="translate(9.8 13.82)"><tspan class="cls-4"><tspan class="cls-5">P</tspan><tspan x="5.1" y="0">as på!</tspan></tspan><tspan class="cls-6"><tspan x="0" y="12">Deling af billeder som in</tspan><tspan class="cls-7" x="44.31" y="12">f</tspan><tspan x="45.54" y="12">o</tspan><tspan class="cls-8" x="47.95" y="12">r</tspan><tspan x="49.51" y="12">me</tspan><tspan class="cls-9" x="54.88" y="12">r</tspan><tspan x="56.35" y="12">er and</tspan><tspan class="cls-9" x="68.29" y="12">r</tspan><tspan x="69.75" y="12">e om, </tspan><tspan x="0" y="16.8">at du er på </tspan><tspan class="cls-8" x="21.51" y="16.8">f</tspan><tspan x="22.76" y="16.8">e</tspan><tspan class="cls-8" x="24.97" y="16.8">r</tspan><tspan x="26.53" y="16.8">ie og de</tspan><tspan class="cls-8" x="41.62" y="16.8">r</tspan><tspan x="43.18" y="16.8">med ik</tspan><tspan class="cls-10" x="55.17" y="16.8">k</tspan><tspan x="57.1" y="16.8">e hjemme, </tspan><tspan x="0" y="21.6">øger </tspan><tspan class="cls-8" x="9.74" y="21.6">f</tspan><tspan x="10.99" y="21.6">aktisk </tspan><tspan class="cls-8" x="22.32" y="21.6">r</tspan><tspan x="23.88" y="21.6">isi</tspan><tspan class="cls-11" x="27.49" y="21.6">k</tspan><tspan x="29.4" y="21.6">oen </tspan><tspan class="cls-7" x="37.45" y="21.6">f</tspan><tspan x="38.69" y="21.6">or indb</tspan><tspan class="cls-8" x="51.81" y="21.6">r</tspan><tspan x="53.36" y="21.6">ud.</tspan></tspan></text></g></g></svg>
