<svg xmlns="http://www.w3.org/2000/svg" viewBox="0 0 554.88 580.08"><title>del</title><g id="Layer_2" data-name="Layer 2"><g id="Layer_1-2" data-name="Layer 1"><path d="M.88,580c-4.6-2.7,10.4-70.2,11.1-73.3,13.6-60.4,26.9-120,60.1-188,15-30.9,44.3-89.8,97.9-140.2,21.8-20.5,57.9-53.7,109-66.9,42.2-10.9,100.2-9.6,100.1-9.6h0s1.8-27.9,2.2-57.4c.3-21.1,0-44.6,0-44.6h0l173.6,191.2h0s-171.3,191.2-171.4,191.2h0l-2.2-105.2h0s-46.6-3.5-82.3,0c-9.2.9-45.1,4.9-89,25.5-26.1,12.2-61.3,29.2-97.9,70.1C83.88,404.4,66.68,437,52,465.2,18.58,529.7,5,582.4.88,580Z"/></g></g></svg>
