<svg xmlns="http://www.w3.org/2000/svg" viewBox="0 0 499.96 590.68"><title>del_ikke</title><g id="Layer_2" data-name="Layer 2"><g id="Layer_1-2" data-name="Layer 1"><path d="M40.53,87.15c7.3-14.8,26.9-36,33-33,1.5.8,1.7,2.8,6,7,3.1,3,5.4,5.2,9,6,.6.1,6.3,1.2,10-2s1.6-7.6,4-16c.7-2.3,3.7-13,11-16,6.3-2.6,13.4,1.5,16,3,33.3,18.9,107,157,107,157,152.8-205.5,192-193,192-193,9.3,3,30.6,15.9,29,26-.6,3.9-4.4,5.4-4,10,.5,6.3,8.4,12.4,16,13,5.5.4,6.4-2.3,11-2,10.4.7,21.8,15.6,19,25-2.1,7.1-11.7,8.9-12,17a11.65,11.65,0,0,0,1,5c7.2,18.2-180,202-180,202h0s117.9,99.4,119,150a53.48,53.48,0,0,1-3,19c-2.8,6.8-11.5,23.2-28,31-3.7,1.7-9.5,3.9-10,8-.3,2.9,2.3,4.1,3,7,1.9,7.9-11.7,23-24,22-11.6-1-15.9-15.8-25-14-3.7.7-5.4,3.6-9,8-8.8,10.5-20.8,19.4-26,21,0,0-21.5,6.5-97-126h0s-100.7,161.9-127,168a24,24,0,0,1-10,0c-7.1-1.7-15-7.6-16-15-1-7.6,5.9-12.3,4-15-2.4-3.4-12.5,4.3-24,3-17-1.9-33.8-23-32-40,1.2-10.8,9.1-12.6,10-24,1-13.5-9.4-21.2-13-29,0,0-16.6-35.4,136-166h0C20.63,127.35,40.53,87.15,40.53,87.15Z"/></g></g></svg>
