<svg xmlns="http://www.w3.org/2000/svg" xmlns:xlink="http://www.w3.org/1999/xlink" viewBox="0 0 639 568"><defs><style>.cls-1{fill:#152230;}.cls-2{fill:#552e0f;}.cls-3{fill:#2f1a09;}.cls-4{fill:url(#linear-gradient);}.cls-5{fill:url(#linear-gradient-2);}.cls-6{fill:#3a2b14;}.cls-7{fill:#211505;}.cls-8{fill:url(#linear-gradient-3);}.cls-9{fill:#eaac41;}.cls-10{fill:#c07d08;}.cls-11{fill:url(#linear-gradient-4);}.cls-12{fill:url(#linear-gradient-5);}.cls-13{fill:url(#linear-gradient-6);}.cls-14{fill:url(#linear-gradient-7);}.cls-15{fill:url(#linear-gradient-8);}.cls-16{fill:url(#linear-gradient-9);}.cls-17{fill:url(#linear-gradient-10);}.cls-18{fill:url(#linear-gradient-11);}.cls-19{fill:#2a1e06;}.cls-20{fill:#170d03;}.cls-21{fill:#a92d2b;}.cls-22{fill:#932b5c;}.cls-23{fill:#5a163d;}.cls-24{fill:#7c1f15;}.cls-25{fill:#fecda4;}.cls-26{fill:#333;}.cls-27{fill:url(#linear-gradient-12);}.cls-28{fill:#962d69;}.cls-29{fill:#72263c;}.cls-30,.cls-50{fill:#fff;}.cls-31{fill:#e5b090;}.cls-32{fill:url(#linear-gradient-13);}.cls-33{fill:#edb143;}.cls-34{fill:#ab826e;}.cls-35{fill:#fad8cd;}.cls-36{fill:url(#linear-gradient-14);}.cls-37{fill:url(#linear-gradient-15);}.cls-38{fill:url(#linear-gradient-16);}.cls-39{fill:#952819;}.cls-40{fill:#493615;}.cls-41{fill:#882755;}.cls-42{fill:#33100a;}.cls-43{fill:#000100;}.cls-44{fill:url(#linear-gradient-17);}.cls-45{fill:#5a3312;}.cls-46{fill:#4a3e32;}.cls-47,.cls-48,.cls-49{fill:none;}.cls-47{stroke:#152230;}.cls-47,.cls-48{stroke-miterlimit:10;}.cls-48{stroke:#2f1a09;}.cls-50{isolation:isolate;font-size:22.92px;font-family:FuturaPT-Book, Futura PT;}.cls-51{letter-spacing:-0.02em;}.cls-52{letter-spacing:-0.02em;}.cls-53{letter-spacing:-0.1em;}.cls-54{letter-spacing:-0.11em;}.cls-55{letter-spacing:-0.13em;}</style><linearGradient id="linear-gradient" x1="245.03" y1="371.25" x2="291.11" y2="371.25" gradientTransform="matrix(1, 0, 0, -1, 0, 569.8)" gradientUnits="userSpaceOnUse"><stop offset="0.52" stop-color="#2f548e"/><stop offset="0.53" stop-color="#2f54c2"/></linearGradient><linearGradient id="linear-gradient-2" x1="344.03" y1="372.15" x2="390.11" y2="372.15" gradientTransform="matrix(1, 0, 0, -1, 0, 569.8)" gradientUnits="userSpaceOnUse"><stop offset="0.52" stop-color="#20d7a4"/><stop offset="0.53" stop-color="#5cbfa0"/></linearGradient><linearGradient id="linear-gradient-3" x1="446.68" y1="372.15" x2="492.8" y2="372.15" gradientTransform="matrix(1, 0, 0, -1, 0, 569.8)" gradientUnits="userSpaceOnUse"><stop offset="0.52" stop-color="#1f3990"/><stop offset="0.53" stop-color="#2f24c2"/></linearGradient><linearGradient id="linear-gradient-4" x1="395.38" y1="267.65" x2="441.5" y2="267.65" xlink:href="#linear-gradient"/><linearGradient id="linear-gradient-5" x1="295.43" y1="267.65" x2="341.51" y2="267.65" gradientTransform="matrix(1, 0, 0, -1, 0, 569.8)" gradientUnits="userSpaceOnUse"><stop offset="0.52" stop-color="#5c8dad"/><stop offset="0.53" stop-color="#7f9cb5"/></linearGradient><linearGradient id="linear-gradient-6" x1="345.88" y1="170.45" x2="392" y2="170.45" gradientTransform="matrix(1, 0, 0, -1, 0, 569.8)" gradientUnits="userSpaceOnUse"><stop offset="0.52" stop-color="#374c60"/><stop offset="0.53" stop-color="#475a73"/></linearGradient><linearGradient id="linear-gradient-7" x1="142.38" y1="371.25" x2="188.5" y2="371.25" gradientTransform="matrix(1, 0, 0, -1, 0, 569.8)" gradientUnits="userSpaceOnUse"><stop offset="0.52" stop-color="#a6548e"/><stop offset="0.53" stop-color="#8854c2"/></linearGradient><linearGradient id="linear-gradient-8" x1="193.68" y1="266.75" x2="239.8" y2="266.75" xlink:href="#linear-gradient-6"/><linearGradient id="linear-gradient-9" x1="92.88" y1="266.75" x2="139" y2="266.75" xlink:href="#linear-gradient"/><linearGradient id="linear-gradient-10" x1="143.28" y1="169.55" x2="189.4" y2="169.55" gradientTransform="matrix(1, 0, 0, -1, 0, 569.8)" gradientUnits="userSpaceOnUse"><stop offset="0.52" stop-color="#ff4447"/><stop offset="0.53" stop-color="#c2391d"/></linearGradient><linearGradient id="linear-gradient-11" x1="497.13" y1="268.55" x2="543.21" y2="268.55" xlink:href="#linear-gradient"/><linearGradient id="linear-gradient-12" x1="40.58" y1="370.25" x2="86.7" y2="370.25" xlink:href="#linear-gradient-7"/><linearGradient id="linear-gradient-13" x1="545.7" y1="373.05" x2="591.8" y2="373.05" xlink:href="#linear-gradient-10"/><linearGradient id="linear-gradient-14" x1="245.93" y1="169.55" x2="292.01" y2="169.55" xlink:href="#linear-gradient-2"/><linearGradient id="linear-gradient-15" x1="447.63" y1="170.45" x2="493.71" y2="170.45" xlink:href="#linear-gradient"/><linearGradient id="linear-gradient-16" x1="546.61" y1="171.35" x2="592.69" y2="171.35" gradientTransform="matrix(1, 0, 0, -1, 0, 569.8)" gradientUnits="userSpaceOnUse"><stop offset="0.52" stop-color="#63395d"/><stop offset="0.53" stop-color="#7b4e9f"/></linearGradient><linearGradient id="linear-gradient-17" x1="41.53" y1="168.65" x2="87.61" y2="168.65" gradientTransform="matrix(1, 0, 0, -1, 0, 569.8)" gradientUnits="userSpaceOnUse"><stop offset="0.52" stop-color="#7e8083"/><stop offset="0.53" stop-color="#cdcfd0"/></linearGradient></defs><title>klassebillede</title><g id="Layer_2" data-name="Layer 2"><g id="Layer_1-2" data-name="Layer 1"><path class="cls-1" d="M12,565.5A9.56,9.56,0,0,1,2.5,556V12A9.56,9.56,0,0,1,12,2.5H627a9.56,9.56,0,0,1,9.5,9.5V556a9.56,9.56,0,0,1-9.5,9.5Z"/><path class="cls-1" d="M627,5a7,7,0,0,1,7,7V556a7,7,0,0,1-7,7H12a7,7,0,0,1-7-7V12a7,7,0,0,1,7-7H627m0-5H12A12,12,0,0,0,0,12V556a12,12,0,0,0,12,12H627a12,12,0,0,0,12-12V12A12,12,0,0,0,627,0Z"/><path class="cls-2" d="M455.2,84.8c-4.6,1.4-11.1,3.4-16.5,9.2-2.6,2.8-6,7.6-8.3,22-2.1,13.3-.2,15.6-.9,33.9-.7,18.7-2.9,23.2,0,33.9,1.4,4.9,2.8,10.4,7.3,15.6,10.1,11.8,26.4,11.9,33,11.9,6.9,0,18.7.1,28.4-8.3,6.9-6,9.4-13.3,11-18.3,3.4-10.5,1-14.3.9-34.8-.1-21,2.4-25.2-.9-37.6-3.2-12.1-8-17.1-9.2-18.3-7.1-7.2-15.8-9-21.1-10.1A50.53,50.53,0,0,0,455.2,84.8Z"/><path class="cls-3" d="M439.6,125.2c-1.3,2.4-.6,2.8-.9,15.6-.4,17.6-1.9,24.1-.9,39.4.4,7.2,1.1,11.3,3.7,15.6a29.2,29.2,0,0,0,11,10.1c10.2,5.6,26,7.5,37.6-.9a31.33,31.33,0,0,0,10.1-12.8c1.7-4.3,1.9-7.9,1.8-14.7-.2-14.5-1.3-21.1-1.8-32.1-.9-17.4,1.1-17.6-.9-21.1C490.1,108.9,448.2,109.2,439.6,125.2Z"/><path class="cls-4" d="M245.3,211.3s5.4,2.4,9.2,3.7c5.5,1.8,10.1,1.8,15.6,1.8a66.49,66.49,0,0,0,11-.9c2.9-.5,9.6-1.8,10.1-4.6v-5.5a29,29,0,0,0-4.6-15.6,23.73,23.73,0,0,0-11-8.3c-2-.7-9-3.2-16.5,0a21.81,21.81,0,0,0-8.3,6.4,26.33,26.33,0,0,0-5.5,12.8,51.61,51.61,0,0,0,0,10.2Z"/><path class="cls-5" d="M344.3,210.4s5.4,2.4,9.2,3.7c5.5,1.8,10.1,1.8,15.6,1.8a66.49,66.49,0,0,0,11-.9c2.9-.5,9.6-1.8,10.1-4.6v-5.5a29,29,0,0,0-4.6-15.6,23.73,23.73,0,0,0-11-8.3c-2-.7-9-3.2-16.5,0a21.81,21.81,0,0,0-8.3,6.4,26.33,26.33,0,0,0-5.5,12.8,51.61,51.61,0,0,0,0,10.2Z"/><path class="cls-6" d="M320.4,294.8c-6.6-.7-10.3-1.1-13.8-3.7s-4.3-5.5-7.3-5.5c-1.4,0-1.5.6-3.7.9-1.3.2-4.5.7-7.3-.9-3.2-1.8-4.2-5.2-4.6-6.4-.9-3.1.1-3.7-.9-5.5-1.7-2.8-4.8-1.6-7.3-4.6a8.78,8.78,0,0,1-1.8-7.3c.8-3.6,4.1-4.5,3.7-6.4s-3.3-1.1-5.5-3.7-2.6-6.7-.9-9.2c1.1-1.6,2.5-1.5,2.8-2.8.5-2-2.8-3.1-4.6-6.4-2.1-3.9-1.7-9.5.9-12.8,2.4-3,4.8-1.9,6.4-4.6,2.2-3.7-1.8-6.9,0-11.9,1.4-3.8,5.2-5.8,6.4-6.4,3.5-1.8,5.7-1.2,9.2-1.8,6.8-1.3,7.4-5.7,12.8-8.3,11-5.1,23,6,37.6,6.4a70.19,70.19,0,0,1,9.2.9c3.7.6,5.6.9,7.3,1.8.6.3,6.7,3.6,7.3,9.2.5,4.3-2.5,6.9-.9,9.2.8,1.2,1.9.8,3.7,1.8a11.48,11.48,0,0,1,5.5,10.1c-.5,5.7-7.5,8-6.4,11.9.3,1.2.9.9,1.8,2.8,1.2,2.5,1.8,6.3,0,9.2-1.7,2.7-4.2,2.4-4.6,4.6-.3,1.5.9,2.1,1.8,4.6.2.5,1.7,5,0,8.3s-5.3,2-7.3,5.5c-1.7,2.8.1,4.5-1.8,7.3-1.7,2.6-4.7,3.4-5.5,3.7-3.7,1.1-4.8-.7-8.3,0-2.4.5-2.3,1.4-8.3,5.5-3.8,2.6-5.8,4-8.3,4.6C325.5,295.3,323.8,295.1,320.4,294.8Z"/><path class="cls-7" d="M289.3,229.7a14.08,14.08,0,0,0-3.7,5.5c-.4,1.1-1.5,4.5,0,7.3.7,1.3,1.5,1.4,1.8,2.8s-.2,2-.9,4.6c-.9,3-1.3,4.5-.9,5.5.7,1.6,2.3,1.4,3.7,3.7a5.38,5.38,0,0,1,.9,2.8c.1,2-1.3,2.5-1.8,4.6s.1,5.3,1.8,6.4,3.6-.2,4.6.9-.7,3,0,5.5a7.4,7.4,0,0,0,5.5,4.6c2.3.4,3.7-.9,6.4,0a7.23,7.23,0,0,1,1.8.9,43,43,0,0,0,11,4.6c5.3,1.2,12.4.4,13.8-2.8.6-1.4-.1-3.1.9-3.7.8-.5,1.7.5,3.7.9.5.1,4,.9,6.4-.9a7.83,7.83,0,0,0,2.8-6.4c-.1-1.2-.5-2.2,0-2.8s1.6.2,2.8,0c2.3-.4,4.4-4.7,3.7-8.3a39.58,39.58,0,0,0-2.8-5.5h0c3.3-2.2,3.7-2.7,3.7-2.8a6.67,6.67,0,0,0,.9-5.5c-.6-1.9-1.8-2.1-1.8-3.7-.1-1.4.8-2,1.8-3.7a12,12,0,0,0,1.8-7.3c-.4-2.7-2.7-3.9-5.5-6.4-5.1-4.5-5.8-8-8.3-11-9.1-10.9-36.4-7.4-45.8.9C296.7,221.3,297.1,221,289.3,229.7Z"/><path class="cls-8" d="M446.9,210.4s5.4,2.4,9.2,3.7c5.5,1.8,10.1,1.8,15.6,1.8a66.49,66.49,0,0,0,11-.9c2.9-.5,9.6-1.8,10.1-4.6v-5.5a29,29,0,0,0-4.6-15.6,23.73,23.73,0,0,0-11-8.3c-2-.7-9-3.2-16.5,0a21.81,21.81,0,0,0-8.3,6.4,26.33,26.33,0,0,0-5.5,12.8,61.88,61.88,0,0,0,0,10.2Z"/><path class="cls-9" d="M412.6,185.2a46.35,46.35,0,0,0-15.1,5c-10.3,5.9-14.7,16-16.5,20.2-4.3,10.3-1.4,12.9-2.8,39.4-.8,17.2-2.4,23.5,0,35.8,1.5,7.4,3.7,13.3,8.3,18.3,4.1,4.5,8.5,6.6,11.9,8.3,4.5,2.1,25.5,11.1,42.2.9a41.44,41.44,0,0,0,10.1-9.2,43.54,43.54,0,0,0,7.3-13.8c3.6-10.6,2.1-17.6,1.8-35.8-.3-23.2,1.9-25.4-.9-36.7-1.8-7-3.7-14.3-10.1-21.1-9.4-10-21.6-11.6-23.8-11.9A47.53,47.53,0,0,0,412.6,185.2Z"/><path class="cls-10" d="M413.7,215.1a38,38,0,0,0-12.1,3.9c-8.3,4.6-11.8,12.3-13.2,15.6-3.5,7.9-1.2,9.9-2.2,30.4-.7,13.3-1.9,18.1,0,27.6,1.2,5.7,2.9,10.2,6.6,14.1a28.54,28.54,0,0,0,9.6,6.4c3.6,1.6,20.5,8.6,33.8.7a30.88,30.88,0,0,0,8.1-7.1,35,35,0,0,0,5.9-10.6c2.9-8.2,1.7-13.6,1.5-27.6-.3-17.9,1.5-19.6-.7-28.3-1.4-5.4-3-11-8.1-16.3a32.85,32.85,0,0,0-19.1-9.2A41.06,41.06,0,0,0,413.7,215.1Z"/><path class="cls-11" d="M395.6,314.9s5.4,2.4,9.2,3.7c5.5,1.8,10.1,1.8,15.6,1.8a66.49,66.49,0,0,0,11-.9c2.9-.5,9.6-1.8,10.1-4.6v-5.5a29,29,0,0,0-4.6-15.6,23.73,23.73,0,0,0-11-8.3c-2-.7-9-3.2-16.5,0a21.81,21.81,0,0,0-8.3,6.4,26.33,26.33,0,0,0-5.5,12.8,61.88,61.88,0,0,0,0,10.2Z"/><path class="cls-12" d="M295.7,314.9s5.4,2.4,9.2,3.7c5.5,1.8,10.1,1.8,15.6,1.8a66.49,66.49,0,0,0,11-.9c2.9-.5,9.6-1.8,10.1-4.6v-5.5a29,29,0,0,0-4.6-15.6,23.73,23.73,0,0,0-11-8.3c-2-.7-9-3.2-16.5,0a21.81,21.81,0,0,0-8.3,6.4,26.33,26.33,0,0,0-5.5,12.8,51.61,51.61,0,0,0,0,10.2Z"/><path class="cls-2" d="M362.1,386.4c4.4.4,8.2-.2,12.8-.9,5.1-.8,9.2-1.5,13.8-3.7A35.37,35.37,0,0,0,403.4,368c5.4-9.3,6.4-21.1,6.4-21.1h0l-.9-26.6h0s-4.1-9.1-4.6-10.1c-4.3-9.1-25.5-24.4-47.7-18.3-1.7.5-18.2,5.2-24.8,19.3-2.6,5.5-3.3,11.8-3.7,14.7-.5,4.4-.4,8.8,0,17.4.3,8,.5,12,.9,13.8,2.5,10.5,9.7,17.2,11.9,19.3C343.7,378.7,351.2,385.3,362.1,386.4Z"/><path class="cls-13" d="M346.1,412.1s5.4,2.4,9.2,3.7c5.5,1.8,10.1,1.8,15.6,1.8a66.49,66.49,0,0,0,11-.9c2.9-.5,9.6-1.8,10.1-4.6v-5.5a29,29,0,0,0-4.6-15.6,23.73,23.73,0,0,0-11-8.3c-2-.7-9-3.2-16.5,0a21.81,21.81,0,0,0-8.3,6.4,26.33,26.33,0,0,0-5.5,12.8,61.88,61.88,0,0,0,0,10.2Z"/><path class="cls-9" d="M190.7,203.5c-.9-.3.3-3.8,0-11.9a40.91,40.91,0,0,0-.9-9.2c-1.5-6.2-3.9-8.5-2.8-10.1s5.1-1,7.3,0a11,11,0,0,1,5.5,6.4c.4,1.2,1.1,4.1-1.8,11.9C195.9,196.4,192.1,204,190.7,203.5Z"/><path class="cls-14" d="M142.6,211.3s5.4,2.4,9.2,3.7c5.5,1.8,10.1,1.8,15.6,1.8a66.49,66.49,0,0,0,11-.9c2.9-.5,9.6-1.8,10.1-4.6v-5.5a29,29,0,0,0-4.6-15.6,23.73,23.73,0,0,0-11-8.3c-2-.7-9-3.2-16.5,0a21.81,21.81,0,0,0-8.3,6.4,26.33,26.33,0,0,0-5.5,12.8,61.88,61.88,0,0,0,0,10.2Z"/><path class="cls-6" d="M218.7,293.8c-6.6-.7-10.3-1.1-13.8-3.7s-4.3-5.5-7.3-5.5c-1.4,0-1.5.6-3.7.9-1.3.2-4.5.7-7.3-.9-3.2-1.8-4.2-5.2-4.6-6.4-.9-3.1.1-3.7-.9-5.5-1.7-2.8-4.8-1.6-7.3-4.6a8.78,8.78,0,0,1-1.8-7.3c.8-3.6,4.1-4.5,3.7-6.4s-3.3-1.1-5.5-3.7-2.6-6.7-.9-9.2c1.1-1.6,2.5-1.5,2.8-2.8.5-2-2.8-3.1-4.6-6.4-2.1-3.9-1.7-9.5.9-12.8,2.4-3,4.8-1.9,6.4-4.6,2.2-3.7-1.8-6.9,0-11.9,1.4-3.8,5.2-5.8,6.4-6.4,3.5-1.8,5.7-1.2,9.2-1.8,6.8-1.3,7.4-5.7,12.8-8.3,11-5.1,23,6,37.6,6.4a70.19,70.19,0,0,1,9.2.9c3.7.6,5.6.9,7.3,1.8.6.3,6.7,3.6,7.3,9.2.5,4.3-2.5,6.9-.9,9.2.8,1.2,1.9.8,3.7,1.8a11.48,11.48,0,0,1,5.5,10.1c-.5,5.7-7.5,8-6.4,11.9.3,1.2.9.9,1.8,2.8,1.2,2.5,1.8,6.3,0,9.2-1.7,2.7-4.2,2.4-4.6,4.6-.3,1.5.9,2.1,1.8,4.6.2.5,1.7,5,0,8.3s-5.3,2-7.3,5.5c-1.7,2.8.1,4.5-1.8,7.3-1.7,2.6-4.7,3.4-5.5,3.7-3.7,1.1-4.8-.7-8.3,0-2.4.5-2.3,1.4-8.3,5.5-3.8,2.6-5.8,4-8.3,4.6C223.8,294.4,222.1,294.2,218.7,293.8Z"/><path class="cls-7" d="M187.5,228.8a14.08,14.08,0,0,0-3.7,5.5c-.4,1.1-1.5,4.5,0,7.3.7,1.3,1.5,1.4,1.8,2.8s-.2,2-.9,4.6c-.9,3-1.3,4.5-.9,5.5.7,1.6,2.3,1.4,3.7,3.7a5.38,5.38,0,0,1,.9,2.8c.1,2-1.3,2.5-1.8,4.6s.1,5.3,1.8,6.4,3.6-.2,4.6.9-.7,3,0,5.5a7.4,7.4,0,0,0,5.5,4.6c2.3.4,3.7-.9,6.4,0a7.23,7.23,0,0,1,1.8.9,43,43,0,0,0,11,4.6c5.3,1.2,12.4.4,13.8-2.8.6-1.4-.1-3.1.9-3.7.8-.5,1.7.5,3.7.9.5.1,4,.9,6.4-.9a7.83,7.83,0,0,0,2.8-6.4c-.1-1.2-.5-2.2,0-2.8s1.6.2,2.8,0c2.3-.4,4.4-4.7,3.7-8.3A39.58,39.58,0,0,0,249,259h0c3.3-2.2,3.7-2.7,3.7-2.8a6.67,6.67,0,0,0,.9-5.5c-.6-1.9-1.8-2.1-1.8-3.7-.1-1.4.8-2,1.8-3.7a12,12,0,0,0,1.8-7.3c-.4-2.7-2.7-3.9-5.5-6.4-5.1-4.5-5.8-8-8.3-11-9.1-10.9-36.4-7.4-45.8.9C194.9,220.3,195.4,220.1,187.5,228.8Z"/><path class="cls-2" d="M152.7,285.6c-4.6,1.4-11.1,3.4-16.5,9.2-2.6,2.8-6,7.6-8.3,22-2.1,13.3-.2,15.6-.9,33.9-.7,18.7-2.9,23.2,0,33.9,1.4,4.9,2.8,10.4,7.3,15.6,10.1,11.8,26.4,11.9,33,11.9,6.9,0,18.7.1,28.4-8.3,6.9-6,9.4-13.3,11-18.3,3.4-10.5,1-14.3.9-34.8-.1-21,2.4-25.2-.9-37.6-3.2-12.1-8-17.1-9.2-18.3-7.1-7.2-15.8-9-21.1-10.1A47.85,47.85,0,0,0,152.7,285.6Z"/><path class="cls-3" d="M137.1,325.9c-1.3,2.4-.6,2.8-.9,15.6-.4,17.6-1.9,24.1-.9,39.4.4,7.2,1.1,11.3,3.7,15.6a29.2,29.2,0,0,0,11,10.1c10.2,5.6,26,7.5,37.6-.9a31.33,31.33,0,0,0,10.1-12.8c1.7-4.3,1.9-7.9,1.8-14.7-.2-14.5-1.3-21.1-1.8-32.1-.9-17.4,1.1-17.6-.9-21.1C187.6,309.6,145.7,309.9,137.1,325.9Z"/><path class="cls-15" d="M193.9,315.8s5.4,2.4,9.2,3.7c5.5,1.8,10.1,1.8,15.6,1.8a66.49,66.49,0,0,0,11-.9c2.9-.5,9.6-1.8,10.1-4.6v-5.5a29,29,0,0,0-4.6-15.6,23.73,23.73,0,0,0-11-8.3c-2-.7-9-3.2-16.5,0a21.81,21.81,0,0,0-8.3,6.4,26.33,26.33,0,0,0-5.5,12.8,61.88,61.88,0,0,0,0,10.2Z"/><path class="cls-16" d="M93.1,315.8s5.4,2.4,9.2,3.7c5.5,1.8,10.1,1.8,15.6,1.8a66.49,66.49,0,0,0,11-.9c2.9-.5,9.6-1.8,10.1-4.6v-5.5a29,29,0,0,0-4.6-15.6,23.73,23.73,0,0,0-11-8.3c-2-.7-9-3.2-16.5,0a21.81,21.81,0,0,0-8.3,6.4,26.33,26.33,0,0,0-5.5,12.8,61.88,61.88,0,0,0,0,10.2Z"/><path class="cls-17" d="M143.5,413s5.4,2.4,9.2,3.7c5.5,1.8,10.1,1.8,15.6,1.8a66.49,66.49,0,0,0,11-.9c2.9-.5,9.6-1.8,10.1-4.6v-5.5a29,29,0,0,0-4.6-15.6,23.73,23.73,0,0,0-11-8.3c-2-.7-9-3.2-16.5,0A21.81,21.81,0,0,0,149,390a26.33,26.33,0,0,0-5.5,12.8,61.88,61.88,0,0,0,0,10.2Z"/><path class="cls-18" d="M497.4,314s5.4,2.4,9.2,3.7c5.5,1.8,10.1,1.8,15.6,1.8a66.49,66.49,0,0,0,11-.9c2.9-.5,9.6-1.8,10.1-4.6v-5.5a29,29,0,0,0-4.6-15.6,23.73,23.73,0,0,0-11-8.3c-2-.7-9-3.2-16.5,0a21.81,21.81,0,0,0-8.3,6.4,26.33,26.33,0,0,0-5.5,12.8,51.61,51.61,0,0,0,0,10.2Z"/><path class="cls-19" d="M510.3,333.3c-1.7-5.7-2.3-6.7-3.7-11-2.6-8.3-1.7-8.4-3.7-12.8a40,40,0,0,0-5.5-9.2,32.82,32.82,0,0,0-11-9.2c-6.1-3-11.7-2.9-16.5-2.8-3.9.1-8.8.2-14.7,2.8a31.82,31.82,0,0,0-12.8,10.1,33.54,33.54,0,0,0-7.3,14.7c-.3,1.7-.8,4.9-1.8,10.1-.6,3-.9,4.5-.9,4.6a19.74,19.74,0,0,0-.9,4.6,10.52,10.52,0,0,0,0,1.8c0,3-1.5,5.4-1.8,6.4-1.6,5.4.5,10.5,1.8,13.8a28.61,28.61,0,0,0,9.2,11.9c6.6,5.5,13.3,7.1,18.3,8.3s16.4,3.6,29.3-.9a43.92,43.92,0,0,0,17.4-11c3-3.1,6.2-6.5,7.3-11.9,1-4.9,0-9.8-.9-13.8A53.51,53.51,0,0,0,510.3,333.3Z"/><path class="cls-20" d="M501.2,325a48.2,48.2,0,0,1,2.8,8.3c1.4,4.8,2.6,9.1,2.8,13.8.1,2.1.4,9.6-3.7,16.5-5.6,9.7-16.4,12.5-21.1,13.8-2.9.8-17,4.1-30.3-3.7a33.15,33.15,0,0,1-12.8-12.8,33.5,33.5,0,0,1-2.8-7.3,29,29,0,0,1,1.8-16.5,33.19,33.19,0,0,1,11-13.8C466.1,310.3,495.3,313.8,501.2,325Z"/><path class="cls-19" d="M228.8,132.5c1.7-5.7,2.3-6.7,3.7-11,2.6-8.3,1.7-8.4,3.7-12.8a40,40,0,0,1,5.5-9.2,32.82,32.82,0,0,1,11-9.2c6.1-3,11.7-2.9,16.5-2.8,3.9.1,8.8.2,14.7,2.8a31.82,31.82,0,0,1,12.8,10.1,33.54,33.54,0,0,1,7.3,14.7c.3,1.7.8,4.9,1.8,10.1.6,3,.9,4.5.9,4.6a19.74,19.74,0,0,1,.9,4.6,10.52,10.52,0,0,1,0,1.8c0,3,1.5,5.4,1.8,6.4,1.6,5.4-.5,10.5-1.8,13.8a28.61,28.61,0,0,1-9.2,11.9c-6.6,5.5-13.3,7.1-18.3,8.3s-16.4,3.6-29.3-.9a43.92,43.92,0,0,1-17.4-11c-3-3.1-6.2-6.5-7.3-11.9-1-4.9,0-9.8.9-13.8A59,59,0,0,1,228.8,132.5Z"/><path class="cls-20" d="M237.9,124.3a48.21,48.21,0,0,0-2.8,8.3c-1.4,4.8-2.6,9.1-2.8,13.8-.1,2.1-.4,9.6,3.7,16.5,5.6,9.7,16.4,12.5,21.1,13.8,2.9.8,17,4.1,30.3-3.7a33.15,33.15,0,0,0,12.8-12.8,33.5,33.5,0,0,0,2.8-7.3,29,29,0,0,0-1.8-16.5,33.19,33.19,0,0,0-11-13.8C273,109.6,243.8,113,237.9,124.3Z"/><path class="cls-21" d="M528.1,287.4c-4.4.4-8.2-.2-12.8-.9-5.1-.8-9.2-1.5-13.8-3.7A35.37,35.37,0,0,1,486.8,269c-5.4-9.3-6.4-21.1-6.4-21.1h0l.9-26.6h0s4.1-9.1,4.6-10.1c4.3-9.1,25.5-24.4,47.7-18.3,1.7.5,18.2,5.2,24.8,19.3,2.6,5.5,3.3,11.8,3.7,14.7.5,4.4.4,8.8,0,17.4-.3,8-.5,12-.9,13.8-2.5,10.5-9.7,17.2-11.9,19.3C546.5,279.7,539,286.3,528.1,287.4Z"/><path class="cls-22" d="M572.4,281.5a42.26,42.26,0,0,1,14.7,3.7c3.2,1.4,13.7,6.2,20.2,17.4,4.8,8.3,4.9,15.7,5,26.1.2,13,.3,21.9-5.5,31.2-9.4,15-26.4,18-28.4,18.3a43,43,0,0,1-26.6-4.6,44.07,44.07,0,0,1-14.7-12.8c-5.8-8.5-6.5-16.8-7.3-27.5-.4-5.6-.9-11.6.9-19.3a41.82,41.82,0,0,1,6.4-15.6C544.8,287.3,558.9,280.8,572.4,281.5Z"/><path class="cls-23" d="M600.3,327.8c1.6,2.6,2,5,2.8,9.2.8,4.9,2.7,15.8-3.7,25.7-6.2,9.5-16.3,12.1-19.3,12.8a35.46,35.46,0,0,1-24.8-2.8A32.65,32.65,0,0,1,540.6,358c-.7-1.5-7.2-15.4,0-26.6,3.3-5.1,7.9-7.3,11.9-9.2C568.4,315,592.6,315.1,600.3,327.8Z"/><path class="cls-9" d="M165.1,81.6a42.26,42.26,0,0,0-14.7,3.7c-3.2,1.4-13.7,6.2-20.2,17.4-4.8,8.3-4.9,15.7-5,26.1-.2,13-.3,21.9,5.5,31.2,9.4,15,26.4,18,28.4,18.3a43,43,0,0,0,26.6-4.6,44.07,44.07,0,0,0,14.7-12.8c5.8-8.5,6.5-16.8,7.3-27.5.4-5.6.9-11.6-.9-19.3a41.82,41.82,0,0,0-6.4-15.6C192.6,87.4,178.5,80.9,165.1,81.6Z"/><path class="cls-10" d="M137.1,127.9c-1.6,2.6-2,5-2.8,9.2-.8,4.9-2.7,15.8,3.7,25.7,6.2,9.5,16.3,12.1,19.3,12.8a35.46,35.46,0,0,0,24.8-2.8,32.65,32.65,0,0,0,14.7-14.7c.7-1.5,7.2-15.4,0-26.6-3.3-5.1-7.9-7.3-11.9-9.2C169,115.1,144.9,115.3,137.1,127.9Z"/><path class="cls-9" d="M567.9,189.3c-6.6-.7-10.3-1.1-13.8-3.7s-4.3-5.5-7.3-5.5c-1.4,0-1.5.6-3.7.9-1.3.2-4.5.7-7.3-.9-3.2-1.8-4.2-5.2-4.6-6.4-.9-3.1.1-3.7-.9-5.5-1.7-2.8-4.8-1.6-7.3-4.6a8.78,8.78,0,0,1-1.8-7.3c.8-3.6,4.1-4.5,3.7-6.4s-3.3-1.1-5.5-3.7-2.6-6.7-.9-9.2c1.1-1.6,2.5-1.5,2.8-2.8.5-2-2.8-3.1-4.6-6.4-2.1-3.9-1.7-9.5.9-12.8,2.4-3,4.8-1.9,6.4-4.6,2.2-3.7-1.8-6.9,0-11.9,1.4-3.8,5.2-5.8,6.4-6.4,3.5-1.8,5.7-1.2,9.2-1.8,6.8-1.3,7.4-5.7,12.8-8.3,11-5.1,23,6,37.6,6.4a70.19,70.19,0,0,1,9.2.9c3.7.6,5.6.9,7.3,1.8.6.3,6.7,3.6,7.3,9.2.5,4.3-2.5,6.9-.9,9.2.8,1.2,1.9.8,3.7,1.8a11.48,11.48,0,0,1,5.5,10.1c-.5,5.7-7.5,8-6.4,11.9.3,1.2.9.9,1.8,2.8,1.2,2.5,1.8,6.3,0,9.2-1.7,2.7-4.2,2.4-4.6,4.6-.3,1.5.9,2.1,1.8,4.6.2.5,1.7,5,0,8.3s-5.3,2-7.3,5.5c-1.7,2.8.1,4.5-1.8,7.3-1.7,2.6-4.7,3.4-5.5,3.7-3.7,1.1-4.8-.7-8.2,0-2.4.5-2.3,1.4-8.3,5.5-3.8,2.6-5.8,4-8.2,4.6S571.3,189.7,567.9,189.3Z"/><path class="cls-10" d="M536.8,124.3a14.08,14.08,0,0,0-3.7,5.5c-.4,1.1-1.5,4.5,0,7.3.7,1.3,1.5,1.4,1.8,2.8s-.2,2-.9,4.6c-.9,3-1.3,4.5-.9,5.5.7,1.6,2.3,1.4,3.7,3.7a5.38,5.38,0,0,1,.9,2.8c.1,2-1.3,2.5-1.8,4.6s.1,5.3,1.8,6.4,3.6-.2,4.6.9-.7,3,0,5.5a7.4,7.4,0,0,0,5.5,4.6c2.3.4,3.7-.9,6.4,0a7.23,7.23,0,0,1,1.8.9,43,43,0,0,0,11,4.6c5.3,1.2,12.4.4,13.8-2.8.6-1.4-.1-3.1.9-3.7.8-.5,1.7.5,3.7.9.5.1,4,.9,6.4-.9a7.83,7.83,0,0,0,2.8-6.4c-.1-1.2-.5-2.2,0-2.8s1.6.2,2.8,0c2.3-.4,4.4-4.7,3.7-8.3a39.57,39.57,0,0,0-2.8-5.5h0c3.3-2.2,3.7-2.7,3.7-2.8a6.67,6.67,0,0,0,.9-5.5c-.6-1.9-1.8-2.1-1.8-3.7-.1-1.4.8-2,1.8-3.7a12,12,0,0,0,1.8-7.3c-.4-2.7-2.7-3.9-5.5-6.4-5.1-4.5-5.8-8-8.3-11-9.1-10.9-36.4-7.4-45.8.9C544.2,115.8,544.6,115.6,536.8,124.3Z"/><path class="cls-21" d="M275.2,283.3a46.35,46.35,0,0,1,15.1,5c10.3,5.9,14.7,16,16.5,20.2,4.3,10.3,1.4,12.9,2.8,39.4.8,17.2,2.4,23.5,0,35.8-1.5,7.4-3.7,13.3-8.3,18.3-4.1,4.5-8.5,6.6-11.9,8.3-4.5,2.1-25.5,11.1-42.2.9a41.44,41.44,0,0,1-10.1-9.2,43.54,43.54,0,0,1-7.3-13.8c-3.6-10.6-2.1-17.6-1.8-35.8.3-23.2-1.9-25.4.9-36.7,1.8-7,3.7-14.3,10.1-21.1,9.4-10,21.6-11.6,23.8-11.9A47.85,47.85,0,0,1,275.2,283.3Z"/><path class="cls-24" d="M274.1,313.2a38,38,0,0,1,12.1,3.9c8.3,4.6,11.8,12.3,13.2,15.6,3.5,7.9,1.2,9.9,2.2,30.4.7,13.3,1.9,18.1,0,27.6-1.2,5.7-2.9,10.2-6.6,14.1a28.54,28.54,0,0,1-9.6,6.4c-3.6,1.6-20.5,8.6-33.8.7a30.88,30.88,0,0,1-8.1-7.1,35,35,0,0,1-5.9-10.6c-2.9-8.2-1.7-13.6-1.5-27.6.3-17.9-1.5-19.6.7-28.3,1.4-5.4,3-11,8.1-16.3a32.85,32.85,0,0,1,19.1-9.2A36.82,36.82,0,0,1,274.1,313.2Z"/><path class="cls-9" d="M57.8,84.4a46.35,46.35,0,0,0-15.1,5c-10.3,5.9-14.7,16-16.5,20.2-4.3,10.3-1.4,12.9-2.8,39.4-.8,17.2-2.4,23.5,0,35.8,1.5,7.4,3.7,13.3,8.3,18.3,4.1,4.5,8.5,6.6,11.9,8.3,4.5,2.1,25.5,11.1,42.2.9a41.44,41.44,0,0,0,10.1-9.2,43.54,43.54,0,0,0,7.3-13.8c3.6-10.6,2.1-17.6,1.8-35.8-.3-23.2,1.9-25.4-.9-36.7-1.8-7-3.7-14.3-10.1-21.1-9.4-9.9-21.6-11.5-23.8-11.8A44.85,44.85,0,0,0,57.8,84.4Z"/><path class="cls-10" d="M58.9,114.3a38,38,0,0,0-12.1,3.9c-8.3,4.6-11.8,12.3-13.2,15.6-3.5,7.9-1.2,9.9-2.2,30.4-.7,13.3-1.9,18.1,0,27.6,1.2,5.7,2.9,10.2,6.6,14.1a28.54,28.54,0,0,0,9.6,6.4c3.6,1.6,20.5,8.6,33.8.7a30.88,30.88,0,0,0,8.1-7.1,35,35,0,0,0,5.9-10.6c2.9-8.2,1.7-13.6,1.5-27.6-.3-17.9,1.5-19.6-.7-28.3-1.4-5.4-3-11-8.1-16.3A32.85,32.85,0,0,0,69,113.9,36.82,36.82,0,0,0,58.9,114.3Z"/><path class="cls-25" d="M38.1,106.8a24.76,24.76,0,0,0-2.3,3.2c-3.7,6.1-1.8,17-1.4,29.8.4,10-.5,9.7.5,13.3,3,11,12,16.9,12.8,17.4,9.2,5.8,21.8,6.5,31.6.5.6-.4,9.8-6.3,12.8-17.4.5-1.9.6-3.2.9-8.3,1.5-26.8.4-30.3-.9-33a28.81,28.81,0,0,0-10.1-11c-15.1-10.1-33.3-2.7-37.6,0A31.72,31.72,0,0,0,38.1,106.8Z"/><path class="cls-26" d="M41.8,128.8c-.1-.2,1-1.8,2.8-2.8a7.85,7.85,0,0,1,7.3,0c1.8,1,2.9,2.6,2.8,2.8s-1.4-1.2-3.7-1.8a10.4,10.4,0,0,0-5.5,0C43.2,127.7,41.9,129,41.8,128.8Z"/><path class="cls-26" d="M73.8,128.8c-.1-.2,1-1.8,2.8-2.8a7.85,7.85,0,0,1,7.3,0c1.8,1,2.9,2.6,2.8,2.8s-1.4-1.2-3.7-1.8a10.4,10.4,0,0,0-5.5,0C75.2,127.7,74,129,73.8,128.8Z"/><path class="cls-27" d="M40.8,212.3s5.4,2.4,9.2,3.7c5.5,1.8,10.1,1.8,15.6,1.8a66.49,66.49,0,0,0,11-.9c2.9-.5,9.6-1.8,10.1-4.6v-5.5a29,29,0,0,0-4.6-15.6,23.73,23.73,0,0,0-11-8.3c-2-.7-9-3.2-16.5,0a21.81,21.81,0,0,0-8.3,6.4,26.33,26.33,0,0,0-5.5,12.8,62.22,62.22,0,0,0,0,10.2Z"/><path class="cls-25" d="M58.3,174.6c-.8.8-.4,2.2.5,5.8,1.8,7.4,1.7,8.3,3.2,12.7,1.9,5.4,2.5,5.5,2.8,5.5.6-.1.9-1.4,1.8-5.5s1.7-8.2,2.8-12.2,1.8-5.4.9-6.2-2.3.1-6.4,0C60.3,174.5,59.1,173.8,58.3,174.6Z"/><path class="cls-25" d="M139.8,105.9a24.76,24.76,0,0,0-2.3,3.2c-3.7,6.1-1.8,17-1.4,29.8.4,10-.5,9.7.5,13.3,3,11,12,16.9,12.8,17.4,9.2,5.8,21.8,6.5,31.6.5.6-.4,9.8-6.3,12.8-17.4.5-1.9.6-3.2.9-8.3,1.5-26.8.4-30.3-.9-33a28.81,28.81,0,0,0-10.1-11c-15.1-10.1-33.3-2.7-37.6,0A35.63,35.63,0,0,0,139.8,105.9Z"/><path class="cls-26" d="M143.5,127.9c-.1-.2,1-1.8,2.8-2.8a7.85,7.85,0,0,1,7.3,0c1.8,1,2.9,2.6,2.8,2.8s-1.4-1.2-3.7-1.8a10.4,10.4,0,0,0-5.5,0C144.9,126.8,143.7,128.1,143.5,127.9Z"/><path class="cls-26" d="M175.6,127.9c-.1-.2,1-1.8,2.8-2.8a7.85,7.85,0,0,1,7.3,0c1.8,1,2.9,2.6,2.8,2.8s-1.4-1.2-3.7-1.8a10.4,10.4,0,0,0-5.5,0C177,126.8,175.7,128.1,175.6,127.9Z"/><circle class="cls-26" cx="151.3" cy="134.8" r="3.2"/><circle class="cls-26" cx="180.6" cy="134.8" r="3.2"/><path class="cls-28" d="M149.9,147.2s1.9,3.2,2.8,4.6a19.92,19.92,0,0,0,6.4,6.4,15.25,15.25,0,0,0,13.8,0,16.47,16.47,0,0,0,5.5-4.6,37.84,37.84,0,0,0,3.7-6.4H149.9Z"/><path class="cls-29" d="M155.4,154.5c.1-.7.8-1.1,1.8-1.8a10.89,10.89,0,0,1,5.5-1.8c2.1-.2,7.9-.6,12.8,2.8.4.3.8.5.9.9.4,1.8-5.3,5.6-11,5.5C160.3,159.9,155.2,156.5,155.4,154.5Z"/><path class="cls-30" d="M153.6,149.9h24.8v-2.8H153.6Z"/><path class="cls-25" d="M160,173.7c-.8.8-.4,2.2.5,5.8,1.8,7.4,1.7,8.3,3.2,12.7,1.9,5.4,2.5,5.5,2.8,5.5.6-.1.9-1.4,1.8-5.5s1.7-8.2,2.8-12.2,1.8-5.4.9-6.2-2.3.1-6.4,0C162,173.6,160.9,172.9,160,173.7Z"/><path class="cls-25" d="M242.5,105.9a24.76,24.76,0,0,0-2.3,3.2c-3.7,6.1-1.8,17-1.4,29.8.4,10-.5,9.7.5,13.3,3,11,12,16.9,12.8,17.4,9.2,5.8,21.8,6.5,31.6.5.6-.4,9.8-6.3,12.8-17.4.5-1.9.6-3.2.9-8.3,1.5-26.8.4-30.3-.9-33a28.81,28.81,0,0,0-10.1-11c-15.1-10.1-33.3-2.7-37.6,0A31.72,31.72,0,0,0,242.5,105.9Z"/><path class="cls-26" d="M246.2,127.9c-.1-.2,1-1.8,2.8-2.8a7.85,7.85,0,0,1,7.3,0c1.8,1,2.9,2.6,2.8,2.8s-1.4-1.2-3.7-1.8a10.4,10.4,0,0,0-5.5,0C247.6,126.8,246.3,128.1,246.2,127.9Z"/><path class="cls-26" d="M278.3,127.9c-.1-.2,1-1.8,2.8-2.8a7.85,7.85,0,0,1,7.3,0c1.8,1,2.9,2.6,2.8,2.8s-1.4-1.2-3.7-1.8a10.4,10.4,0,0,0-5.5,0C279.7,126.8,278.4,128.1,278.3,127.9Z"/><circle class="cls-26" cx="254" cy="134.8" r="3.2"/><circle class="cls-26" cx="283.3" cy="134.8" r="3.2"/><path class="cls-28" d="M252.6,147.2s1.9,3.2,2.8,4.6a19.92,19.92,0,0,0,6.4,6.4,15.25,15.25,0,0,0,13.8,0,16.47,16.47,0,0,0,5.5-4.6,37.84,37.84,0,0,0,3.7-6.4H252.6Z"/><path class="cls-29" d="M258.1,154.5c.1-.7.8-1.1,1.8-1.8a10.89,10.89,0,0,1,5.5-1.8c2.1-.2,7.9-.6,12.8,2.8.4.3.8.5.9.9.4,1.8-5.3,5.6-11,5.5C263,159.9,257.8,156.5,258.1,154.5Z"/><path class="cls-30" d="M256.3,149.9h24.8v-2.8H256.3Z"/><path class="cls-25" d="M262.7,173.7c-.8.8-.4,2.2.5,5.8,1.8,7.4,1.7,8.3,3.2,12.7,1.9,5.4,2.5,5.5,2.8,5.5.6-.1.9-1.4,1.8-5.5s1.7-8.2,2.8-12.2,1.8-5.4.9-6.2-2.3.1-6.4,0C264.7,173.6,263.5,172.9,262.7,173.7Z"/><path class="cls-31" d="M341.5,105a24.76,24.76,0,0,0-2.3,3.2c-3.7,6.1-1.8,17-1.4,29.8.4,10-.5,9.7.5,13.3,3,11,12,16.9,12.8,17.4,9.2,5.8,21.8,6.5,31.6.5.6-.4,9.8-6.3,12.8-17.4.5-1.9.6-3.2.9-8.3,1.5-26.8.4-30.3-.9-33a28.81,28.81,0,0,0-10.1-11c-15.1-10.1-33.3-2.7-37.6,0A31.72,31.72,0,0,0,341.5,105Z"/><path class="cls-26" d="M345.2,127c-.1-.2,1-1.8,2.8-2.8a7.85,7.85,0,0,1,7.3,0c1.8,1,2.9,2.6,2.8,2.8s-1.4-1.2-3.7-1.8a10.4,10.4,0,0,0-5.5,0C346.6,125.8,345.3,127.2,345.2,127Z"/><path class="cls-26" d="M377.3,127c-.1-.2,1-1.8,2.8-2.8a7.85,7.85,0,0,1,7.3,0c1.8,1,2.9,2.6,2.8,2.8s-1.4-1.2-3.7-1.8a10.4,10.4,0,0,0-5.5,0C378.7,125.8,377.4,127.2,377.3,127Z"/><circle class="cls-26" cx="353" cy="133.9" r="3.2"/><circle class="cls-26" cx="382.3" cy="133.9" r="3.2"/><path class="cls-28" d="M351.6,146.3s1.9,3.2,2.8,4.6a19.92,19.92,0,0,0,6.4,6.4,15.25,15.25,0,0,0,13.8,0,16.47,16.47,0,0,0,5.5-4.6,37.84,37.84,0,0,0,3.7-6.4H351.6Z"/><path class="cls-29" d="M357.1,153.6c.1-.7.8-1.1,1.8-1.8a10.89,10.89,0,0,1,5.5-1.8c2.1-.2,7.9-.6,12.8,2.8.4.3.8.5.9.9.4,1.8-5.3,5.6-11,5.5C362,159,356.8,155.6,357.1,153.6Z"/><path class="cls-30" d="M355.3,149h24.8v-2.8H355.3Z"/><path class="cls-31" d="M361.7,172.8c-.8.8-.4,2.2.5,5.8,1.8,7.4,1.7,8.3,3.2,12.7,1.9,5.4,2.5,5.5,2.8,5.5.6-.1.9-1.4,1.8-5.5s1.7-8.2,2.8-12.2,1.8-5.4.9-6.2-2.3.1-6.4,0C363.7,172.7,362.5,172,361.7,172.8Z"/><path class="cls-25" d="M444.2,105a24.76,24.76,0,0,0-2.3,3.2c-3.7,6.1-1.8,17-1.4,29.8.4,10-.5,9.7.5,13.3,3,11,12,16.9,12.8,17.4,9.2,5.8,21.8,6.5,31.6.5.6-.4,9.8-6.3,12.8-17.4.5-1.9.6-3.2.9-8.3,1.5-26.8.4-30.3-.9-33a28.81,28.81,0,0,0-10.1-11c-15.1-10.1-33.3-2.7-37.6,0A31.72,31.72,0,0,0,444.2,105Z"/><path class="cls-26" d="M447.9,127c-.1-.2,1-1.8,2.8-2.8a7.85,7.85,0,0,1,7.3,0c1.8,1,2.9,2.6,2.8,2.8s-1.4-1.2-3.7-1.8a10.4,10.4,0,0,0-5.5,0C449.2,125.8,448,127.2,447.9,127Z"/><path class="cls-26" d="M479.9,127c-.1-.2,1-1.8,2.8-2.8a7.85,7.85,0,0,1,7.3,0c1.8,1,2.9,2.6,2.8,2.8s-1.4-1.2-3.7-1.8a10.4,10.4,0,0,0-5.5,0C481.3,125.8,480.1,127.2,479.9,127Z"/><circle class="cls-26" cx="455.6" cy="133.9" r="3.2"/><circle class="cls-26" cx="485" cy="133.9" r="3.2"/><path class="cls-28" d="M454.3,146.3s1.9,3.2,2.8,4.6a19.92,19.92,0,0,0,6.4,6.4,15.25,15.25,0,0,0,13.8,0,16.47,16.47,0,0,0,5.5-4.6,37.84,37.84,0,0,0,3.7-6.4H454.3Z"/><path class="cls-29" d="M459.8,153.6c.1-.7.8-1.1,1.8-1.8a10.89,10.89,0,0,1,5.5-1.8c2.1-.2,7.9-.6,12.8,2.8.4.3.8.5.9.9.4,1.8-5.3,5.6-11,5.5C464.7,159,459.5,155.6,459.8,153.6Z"/><path class="cls-30" d="M457.9,149h24.8v-2.8H457.9Z"/><path class="cls-25" d="M464.4,172.8c-.8.8-.4,2.2.5,5.8,1.8,7.4,1.7,8.3,3.2,12.7,1.9,5.4,2.5,5.5,2.8,5.5.6-.1.9-1.4,1.8-5.5s1.7-8.2,2.8-12.2,1.8-5.4.9-6.2-2.3.1-6.4,0C466.4,172.7,465.2,172,464.4,172.8Z"/><path class="cls-25" d="M543.2,104.1a24.76,24.76,0,0,0-2.3,3.2c-3.7,6.1-1.8,17-1.4,29.8.4,10-.5,9.7.5,13.3,3,11,12,16.9,12.8,17.4,9.2,5.8,21.8,6.5,31.6.5.6-.4,9.8-6.3,12.8-17.4.5-1.9.6-3.2.9-8.3,1.5-26.8.4-30.3-.9-33a28.81,28.81,0,0,0-10.1-11c-15.1-10.1-33.3-2.7-37.6,0A31.73,31.73,0,0,0,543.2,104.1Z"/><path class="cls-26" d="M546.9,126.1c-.1-.2,1-1.8,2.8-2.8a7.85,7.85,0,0,1,7.3,0c1.8,1,2.9,2.6,2.8,2.8s-1.4-1.2-3.7-1.8a10.4,10.4,0,0,0-5.5,0C548.2,124.9,547,126.3,546.9,126.1Z"/><path class="cls-26" d="M578.9,126.1c-.1-.2,1-1.8,2.8-2.8a7.85,7.85,0,0,1,7.3,0c1.8,1,2.9,2.6,2.8,2.8s-1.4-1.2-3.7-1.8a10.4,10.4,0,0,0-5.5,0C580.3,124.9,579.1,126.3,578.9,126.1Z"/><circle class="cls-26" cx="554.6" cy="133" r="3.2"/><circle class="cls-26" cx="584" cy="133" r="3.2"/><path class="cls-28" d="M553.3,145.3s1.9,3.2,2.8,4.6a19.92,19.92,0,0,0,6.4,6.4,15.25,15.25,0,0,0,13.8,0,16.47,16.47,0,0,0,5.5-4.6,37.84,37.84,0,0,0,3.7-6.4H553.3Z"/><path class="cls-29" d="M558.8,152.7c.1-.7.8-1.1,1.8-1.8a10.89,10.89,0,0,1,5.5-1.8c2.1-.2,7.9-.6,12.8,2.8.4.3.8.5.9.9.4,1.8-5.3,5.6-11,5.5C563.7,158.1,558.5,154.7,558.8,152.7Z"/><path class="cls-30" d="M556.9,148.1h24.8v-2.8H556.9Z"/><path class="cls-32" d="M545.9,209.5s5.4,2.4,9.2,3.7c5.5,1.8,10.1,1.8,15.6,1.8a66.49,66.49,0,0,0,11-.9c2.9-.5,9.6-1.8,10.1-4.6V204a29,29,0,0,0-4.6-15.6,23.73,23.73,0,0,0-11-8.3c-2-.7-9-3.2-16.5,0a20.49,20.49,0,0,0-8.2,6.4,26.33,26.33,0,0,0-5.5,12.8,55.68,55.68,0,0,0-.1,10.2Z"/><path class="cls-25" d="M563.4,171.8c-.8.8-.4,2.2.5,5.8,1.8,7.4,1.7,8.3,3.2,12.7,1.9,5.4,2.5,5.5,2.8,5.5.6-.1.9-1.4,1.8-5.5s1.7-8.2,2.8-12.2,1.8-5.4.9-6.2-2.3.1-6.4,0C565.4,171.8,564.2,171.1,563.4,171.8Z"/><path class="cls-33" d="M29.8,103.2c-.1,3.7,5.4,6.6,9.6,8.7,11.3,5.6,17,8.4,26.6,10.1,12.4,2.2,35.6,4,38-3.2a6.06,6.06,0,0,0,0-2.8c-1.7-11.4-9.3-19.4-10.1-20.2a40.17,40.17,0,0,0-20.2-11s-18.2-4.2-33.9,6.4a34.78,34.78,0,0,0-8.3,8.3C30.1,101.6,29.9,102.4,29.8,103.2Z"/><path class="cls-25" d="M90.3,210.4a24.76,24.76,0,0,0-2.3,3.2c-3.7,6.1-1.8,17-1.4,29.8.4,10-.5,9.7.5,13.3,3,11,12,16.9,12.8,17.4,9.2,5.8,21.8,6.5,31.6.5.6-.4,9.8-6.3,12.8-17.4.5-1.9.6-3.2.9-8.3,1.5-26.8.4-30.3-.9-33a28.81,28.81,0,0,0-10.1-11c-15.1-10.1-33.3-2.7-37.6,0A35.63,35.63,0,0,0,90.3,210.4Z"/><path class="cls-26" d="M94,232.4c-.1-.2,1-1.8,2.8-2.8a7.85,7.85,0,0,1,7.3,0c1.8,1,2.9,2.6,2.8,2.8s-1.4-1.2-3.7-1.8a10.4,10.4,0,0,0-5.5,0C95.4,231.3,94.2,232.6,94,232.4Z"/><path class="cls-26" d="M126.1,232.4c-.1-.2,1-1.8,2.8-2.8a7.85,7.85,0,0,1,7.3,0c1.8,1,2.9,2.6,2.8,2.8s-1.4-1.2-3.7-1.8a10.4,10.4,0,0,0-5.5,0C127.5,231.3,126.2,232.6,126.1,232.4Z"/><circle class="cls-26" cx="101.8" cy="239.3" r="3.2"/><circle class="cls-26" cx="131.1" cy="239.3" r="3.2"/><path class="cls-28" d="M100.4,251.7s1.9,3.2,2.8,4.6a19.92,19.92,0,0,0,6.4,6.4,15.25,15.25,0,0,0,13.8,0,16.47,16.47,0,0,0,5.5-4.6,37.84,37.84,0,0,0,3.7-6.4H100.4Z"/><path class="cls-29" d="M105.9,259c.1-.7.8-1.1,1.8-1.8a10.89,10.89,0,0,1,5.5-1.8c2.1-.2,7.9-.6,12.8,2.8.4.3.8.5.9.9.4,1.8-5.3,5.6-11,5.5C110.8,264.4,105.7,261,105.9,259Z"/><path class="cls-30" d="M104.1,254.4h24.8v-2.8H104.1Z"/><path class="cls-25" d="M110.5,278.2c-.8.8-.4,2.2.5,5.8,1.8,7.4,1.7,8.3,3.2,12.7,1.9,5.4,2.5,5.5,2.8,5.5.6-.1.9-1.4,1.8-5.5s1.7-8.2,2.8-12.2,1.8-5.4.9-6.2-2.3.1-6.4,0C112.5,278.1,111.4,277.4,110.5,278.2Z"/><path class="cls-34" d="M191.2,210.4a24.76,24.76,0,0,0-2.3,3.2c-3.7,6.1-1.8,17-1.4,29.8.4,10-.5,9.7.5,13.3,3,11,12,16.9,12.8,17.4,9.2,5.8,21.8,6.5,31.6.5.6-.4,9.8-6.3,12.8-17.4.5-1.9.6-3.2.9-8.3,1.5-26.8.4-30.3-.9-33a28.81,28.81,0,0,0-10.1-11c-15.1-10.1-33.3-2.7-37.6,0A31.72,31.72,0,0,0,191.2,210.4Z"/><path class="cls-26" d="M194.8,232.4c-.1-.2,1-1.8,2.8-2.8a7.85,7.85,0,0,1,7.3,0c1.8,1,2.9,2.6,2.8,2.8s-1.4-1.2-3.7-1.8a10.4,10.4,0,0,0-5.5,0C196.2,231.3,195,232.6,194.8,232.4Z"/><path class="cls-26" d="M226.9,232.4c-.1-.2,1-1.8,2.8-2.8a7.85,7.85,0,0,1,7.3,0c1.8,1,2.9,2.6,2.8,2.8s-1.4-1.2-3.7-1.8a10.4,10.4,0,0,0-5.5,0C228.3,231.3,227.1,232.6,226.9,232.4Z"/><circle class="cls-26" cx="202.6" cy="239.3" r="3.2"/><circle class="cls-26" cx="232" cy="239.3" r="3.2"/><path class="cls-28" d="M201.3,251.7s1.9,3.2,2.8,4.6a19.92,19.92,0,0,0,6.4,6.4,15.25,15.25,0,0,0,13.8,0,16.47,16.47,0,0,0,5.5-4.6,37.84,37.84,0,0,0,3.7-6.4H201.3Z"/><path class="cls-29" d="M206.8,259c.1-.7.8-1.1,1.8-1.8a10.89,10.89,0,0,1,5.5-1.8c2.1-.2,7.9-.6,12.8,2.8.4.3.8.5.9.9.4,1.8-5.3,5.6-11,5.5C211.7,264.4,206.5,261,206.8,259Z"/><path class="cls-30" d="M204.9,254.4h24.8v-2.8H204.9Z"/><path class="cls-34" d="M211.3,278.2c-.8.8-.4,2.2.5,5.8,1.8,7.4,1.7,8.3,3.2,12.7,1.9,5.4,2.5,5.5,2.8,5.5.6-.1.9-1.4,1.8-5.5s1.7-8.2,2.8-12.2,1.8-5.4.9-6.2-2.3.1-6.4,0C213.4,278.1,212.2,277.4,211.3,278.2Z"/><path class="cls-34" d="M292.9,209.5a24.76,24.76,0,0,0-2.3,3.2c-3.7,6.1-1.8,17-1.4,29.8.4,10-.5,9.7.5,13.3,3,11,12,16.9,12.8,17.4,9.2,5.8,21.8,6.5,31.6.5.6-.4,9.8-6.3,12.8-17.4.5-1.9.6-3.2.9-8.3,1.5-26.8.4-30.3-.9-33a28.81,28.81,0,0,0-10.1-11c-15.1-10.1-33.3-2.7-37.6,0A31.72,31.72,0,0,0,292.9,209.5Z"/><path class="cls-26" d="M296.6,231.5c-.1-.2,1-1.8,2.8-2.8a7.85,7.85,0,0,1,7.3,0c1.8,1,2.9,2.6,2.8,2.8s-1.4-1.2-3.7-1.8a10.4,10.4,0,0,0-5.5,0C298,230.3,296.7,231.7,296.6,231.5Z"/><path class="cls-26" d="M328.7,231.5c-.1-.2,1-1.8,2.8-2.8a7.85,7.85,0,0,1,7.3,0c1.8,1,2.9,2.6,2.8,2.8s-1.4-1.2-3.7-1.8a10.4,10.4,0,0,0-5.5,0C330.1,230.3,328.8,231.7,328.7,231.5Z"/><circle class="cls-26" cx="304.4" cy="238.4" r="3.2"/><circle class="cls-26" cx="333.7" cy="238.4" r="3.2"/><path class="cls-28" d="M303,250.8s1.9,3.2,2.8,4.6a19.92,19.92,0,0,0,6.4,6.4,15.25,15.25,0,0,0,13.8,0,16.47,16.47,0,0,0,5.5-4.6,37.84,37.84,0,0,0,3.7-6.4H303Z"/><path class="cls-29" d="M308.5,258.1c.1-.7.8-1.1,1.8-1.8a10.89,10.89,0,0,1,5.5-1.8c2.1-.2,7.9-.6,12.8,2.8.4.3.8.5.9.9.4,1.8-5.3,5.6-11,5.5C313.4,263.5,308.3,260.1,308.5,258.1Z"/><path class="cls-30" d="M306.7,253.5h24.8v-2.8H306.7Z"/><path class="cls-34" d="M313.1,277.3c-.8.8-.4,2.2.5,5.8,1.8,7.4,1.7,8.3,3.2,12.7,1.9,5.4,2.5,5.5,2.8,5.5.6-.1.9-1.4,1.8-5.5s1.7-8.2,2.8-12.2,1.8-5.4.9-6.2-2.3.1-6.4,0C315.1,277.2,313.9,276.5,313.1,277.3Z"/><path class="cls-25" d="M392.9,209.5a24.76,24.76,0,0,0-2.3,3.2c-3.7,6.1-1.8,17-1.4,29.8.4,10-.5,9.7.5,13.3,3,11,12,16.9,12.8,17.4,9.2,5.8,21.8,6.5,31.6.5.6-.4,9.8-6.3,12.8-17.4.5-1.9.6-3.2.9-8.3,1.5-26.8.4-30.3-.9-33a28.81,28.81,0,0,0-10.1-11c-15.1-10.1-33.3-2.7-37.6,0A31.72,31.72,0,0,0,392.9,209.5Z"/><path class="cls-26" d="M396.5,231.5c-.1-.2,1-1.8,2.8-2.8a7.85,7.85,0,0,1,7.3,0c1.8,1,2.9,2.6,2.8,2.8s-1.4-1.2-3.7-1.8a10.4,10.4,0,0,0-5.5,0C397.9,230.3,396.7,231.7,396.5,231.5Z"/><path class="cls-26" d="M428.6,231.5c-.1-.2,1-1.8,2.8-2.8a7.85,7.85,0,0,1,7.3,0c1.8,1,2.9,2.6,2.8,2.8s-1.4-1.2-3.7-1.8a10.4,10.4,0,0,0-5.5,0C430,230.3,428.7,231.7,428.6,231.5Z"/><circle class="cls-26" cx="404.3" cy="238.4" r="3.2"/><circle class="cls-26" cx="433.6" cy="238.4" r="3.2"/><path class="cls-28" d="M402.9,250.8s1.9,3.2,2.8,4.6a19.92,19.92,0,0,0,6.4,6.4,15.25,15.25,0,0,0,13.8,0,16.47,16.47,0,0,0,5.5-4.6,37.84,37.84,0,0,0,3.7-6.4H402.9Z"/><path class="cls-29" d="M408.4,258.1c.1-.7.8-1.1,1.8-1.8a10.89,10.89,0,0,1,5.5-1.8c2.1-.2,7.9-.6,12.8,2.8.4.3.8.5.9.9.4,1.8-5.3,5.6-11,5.5C413.3,263.5,408.2,260.1,408.4,258.1Z"/><path class="cls-30" d="M406.6,253.5h24.8v-2.8H406.6Z"/><path class="cls-25" d="M413,277.3c-.8.8-.4,2.2.5,5.8,1.8,7.4,1.7,8.3,3.2,12.7,1.9,5.4,2.5,5.5,2.8,5.5.6-.1.9-1.4,1.8-5.5s1.7-8.2,2.8-12.2,1.8-5.4.9-6.2-2.3.1-6.4,0C415,277.2,413.9,276.5,413,277.3Z"/><path class="cls-35" d="M494.6,208.6a24.76,24.76,0,0,0-2.3,3.2c-3.7,6.1-1.8,17-1.4,29.8.4,10-.5,9.7.5,13.3,3,11,12,16.9,12.8,17.4,9.2,5.8,21.8,6.5,31.6.5.6-.4,9.8-6.3,12.8-17.4.5-1.9.6-3.2.9-8.3,1.5-26.8.4-30.3-.9-33a28.81,28.81,0,0,0-10.1-11c-15.1-10.1-33.3-2.7-37.6,0A31.72,31.72,0,0,0,494.6,208.6Z"/><path class="cls-26" d="M498.3,230.6c-.1-.2,1-1.8,2.8-2.8a7.85,7.85,0,0,1,7.3,0c1.8,1,2.9,2.6,2.8,2.8s-1.4-1.2-3.7-1.8a10.4,10.4,0,0,0-5.5,0C499.7,229.4,498.4,230.8,498.3,230.6Z"/><path class="cls-26" d="M530.4,230.6c-.1-.2,1-1.8,2.8-2.8a7.85,7.85,0,0,1,7.3,0c1.8,1,2.9,2.6,2.8,2.8s-1.4-1.2-3.7-1.8a10.4,10.4,0,0,0-5.5,0C531.7,229.4,530.5,230.8,530.4,230.6Z"/><path class="cls-28" d="M504.7,249.8s1.9,3.2,2.8,4.6a19.92,19.92,0,0,0,6.4,6.4,15.25,15.25,0,0,0,13.8,0,16.47,16.47,0,0,0,5.5-4.6,37.84,37.84,0,0,0,3.7-6.4H504.7Z"/><path class="cls-29" d="M510.2,257.2c.1-.7.8-1.1,1.8-1.8a10.89,10.89,0,0,1,5.5-1.8c2.1-.2,7.9-.6,12.8,2.8.4.3.8.5.9.9.4,1.8-5.3,5.6-11,5.5C515.1,262.6,509.9,259.2,510.2,257.2Z"/><path class="cls-30" d="M508.4,252.6h24.8v-2.8H508.4Z"/><path class="cls-35" d="M514.8,276.3c-.8.8-.4,2.2.5,5.8,1.8,7.4,1.7,8.3,3.2,12.7,1.9,5.4,2.5,5.5,2.8,5.5.6-.1.9-1.4,1.8-5.5s1.7-8.2,2.8-12.2,1.8-5.4.9-6.2-2.3.1-6.4,0C516.8,276.3,515.6,275.6,514.8,276.3Z"/><path class="cls-26" d="M74.8,330.5c-.1-.2,1-1.8,2.8-2.8a7.85,7.85,0,0,1,7.3,0c1.8,1,2.9,2.6,2.8,2.8s-1.4-1.2-3.7-1.8a10.4,10.4,0,0,0-5.5,0C76.2,329.3,74.9,330.7,74.8,330.5Z"/><path class="cls-25" d="M140.8,307.6a24.76,24.76,0,0,0-2.3,3.2c-3.7,6.1-1.8,17-1.4,29.8.4,10-.5,9.7.5,13.3,3,11,12,16.9,12.8,17.4,9.2,5.8,21.8,6.5,31.6.5.6-.4,9.8-6.3,12.8-17.4.5-1.9.6-3.2.9-8.3,1.5-26.8.4-30.3-.9-33a28.81,28.81,0,0,0-10.1-11c-15.1-10.1-33.3-2.7-37.6,0A31.72,31.72,0,0,0,140.8,307.6Z"/><path class="cls-26" d="M144.4,329.6c-.1-.2,1-1.8,2.8-2.8a7.85,7.85,0,0,1,7.3,0c1.8,1,2.9,2.6,2.8,2.8s-1.4-1.2-3.7-1.8a10.4,10.4,0,0,0-5.5,0C145.8,328.4,144.6,329.8,144.4,329.6Z"/><path class="cls-26" d="M176.5,329.6c-.1-.2,1-1.8,2.8-2.8a7.85,7.85,0,0,1,7.3,0c1.8,1,2.9,2.6,2.8,2.8s-1.4-1.2-3.7-1.8a10.4,10.4,0,0,0-5.5,0C177.9,328.4,176.7,329.8,176.5,329.6Z"/><circle class="cls-26" cx="152.2" cy="336.5" r="3.2"/><circle class="cls-26" cx="181.6" cy="336.5" r="3.2"/><path class="cls-25" d="M160.9,375.3c-.8.8-.4,2.2.5,5.8,1.8,7.4,1.7,8.3,3.2,12.7,1.9,5.4,2.5,5.5,2.8,5.5.6-.1.9-1.4,1.8-5.5s1.7-8.2,2.8-12.2,1.8-5.4.9-6.2-2.3.1-6.4,0C163,375.3,161.8,374.6,160.9,375.3Z"/><path class="cls-25" d="M243.4,307.6a24.76,24.76,0,0,0-2.3,3.2c-3.7,6.1-1.8,17-1.4,29.8.4,10-.5,9.7.5,13.3,3,11,12,16.9,12.8,17.4,9.2,5.8,21.8,6.5,31.6.5.6-.4,9.8-6.3,12.8-17.4.5-1.9.6-3.2.9-8.3,1.5-26.8.4-30.3-.9-33a28.81,28.81,0,0,0-10.1-11c-15.1-10.1-33.3-2.7-37.6,0A31.72,31.72,0,0,0,243.4,307.6Z"/><path class="cls-26" d="M247.1,329.6c-.1-.2,1-1.8,2.8-2.8a7.85,7.85,0,0,1,7.3,0c1.8,1,2.9,2.6,2.8,2.8s-1.4-1.2-3.7-1.8a10.4,10.4,0,0,0-5.5,0C248.5,328.4,247.2,329.8,247.1,329.6Z"/><path class="cls-26" d="M279.2,329.6c-.1-.2,1-1.8,2.8-2.8a7.85,7.85,0,0,1,7.3,0c1.8,1,2.9,2.6,2.8,2.8s-1.4-1.2-3.7-1.8a10.4,10.4,0,0,0-5.5,0C280.6,328.4,279.3,329.8,279.2,329.6Z"/><circle class="cls-26" cx="254.9" cy="336.5" r="3.2"/><circle class="cls-26" cx="284.2" cy="336.5" r="3.2"/><path class="cls-28" d="M253.5,348.8s1.9,3.2,2.8,4.6a19.92,19.92,0,0,0,6.4,6.4,15.25,15.25,0,0,0,13.8,0,16.47,16.47,0,0,0,5.5-4.6,37.84,37.84,0,0,0,3.7-6.4H253.5Z"/><path class="cls-29" d="M259,356.2c.1-.7.8-1.1,1.8-1.8a10.89,10.89,0,0,1,5.5-1.8c2.1-.2,7.9-.6,12.8,2.8.4.3.8.5.9.9.4,1.8-5.3,5.6-11,5.5C263.9,361.6,258.8,358.2,259,356.2Z"/><path class="cls-30" d="M257.2,351.6H282v-2.8H257.2Z"/><path class="cls-36" d="M246.2,413s5.4,2.4,9.2,3.7c5.5,1.8,10.1,1.8,15.6,1.8a66.49,66.49,0,0,0,11-.9c2.9-.5,9.6-1.8,10.1-4.6v-5.5a29,29,0,0,0-4.6-15.6,23.73,23.73,0,0,0-11-8.3c-2-.7-9-3.2-16.5,0a21.81,21.81,0,0,0-8.3,6.4,26.33,26.33,0,0,0-5.5,12.8,51.61,51.61,0,0,0,0,10.2Z"/><path class="cls-25" d="M263.6,375.3c-.8.8-.4,2.2.5,5.8,1.8,7.4,1.7,8.3,3.2,12.7,1.9,5.4,2.5,5.5,2.8,5.5.6-.1.9-1.4,1.8-5.5s1.7-8.2,2.8-12.2,1.8-5.4.9-6.2-2.3.1-6.4,0C265.6,375.3,264.4,374.6,263.6,375.3Z"/><path class="cls-25" d="M342.4,306.7a24.76,24.76,0,0,0-2.3,3.2c-3.7,6.1-1.8,17-1.4,29.8.4,10-.5,9.7.5,13.3,3,11,12,16.9,12.8,17.4,9.2,5.8,21.8,6.5,31.6.5.6-.4,9.8-6.3,12.8-17.4.5-1.9.6-3.2.9-8.3,1.5-26.8.4-30.3-.9-33a28.81,28.81,0,0,0-10.1-11c-15.1-10.1-33.3-2.7-37.6,0A31.73,31.73,0,0,0,342.4,306.7Z"/><path class="cls-26" d="M346.1,328.7c-.1-.2,1-1.8,2.8-2.8a7.85,7.85,0,0,1,7.3,0c1.8,1,2.9,2.6,2.8,2.8s-1.4-1.2-3.7-1.8a10.4,10.4,0,0,0-5.5,0A14.1,14.1,0,0,0,346.1,328.7Z"/><path class="cls-26" d="M378.2,328.7c-.1-.2,1-1.8,2.8-2.8a7.85,7.85,0,0,1,7.3,0c1.8,1,2.9,2.6,2.8,2.8s-1.4-1.2-3.7-1.8a10.4,10.4,0,0,0-5.5,0A14.1,14.1,0,0,0,378.2,328.7Z"/><circle class="cls-26" cx="353.9" cy="335.5" r="3.2"/><circle class="cls-26" cx="383.2" cy="335.5" r="3.2"/><path class="cls-28" d="M352.5,347.9s1.9,3.2,2.8,4.6a19.92,19.92,0,0,0,6.4,6.4,15.25,15.25,0,0,0,13.8,0,16.47,16.47,0,0,0,5.5-4.6,37.84,37.84,0,0,0,3.7-6.4H352.5Z"/><path class="cls-29" d="M358,355.3c.1-.7.8-1.1,1.8-1.8a10.89,10.89,0,0,1,5.5-1.8c2.1-.2,7.9-.6,12.8,2.8.4.3.8.5.9.9.4,1.8-5.3,5.6-11,5.5C362.9,360.6,357.8,357.3,358,355.3Z"/><path class="cls-30" d="M356.2,350.7H381v-2.8H356.2Z"/><path class="cls-25" d="M362.6,374.4c-.8.8-.4,2.2.5,5.8,1.8,7.4,1.7,8.3,3.2,12.7,1.9,5.4,2.5,5.5,2.8,5.5.6-.1.9-1.4,1.8-5.5s1.7-8.2,2.8-12.2,1.8-5.4.9-6.2-2.3.1-6.4,0C364.6,374.4,363.4,373.6,362.6,374.4Z"/><path class="cls-34" d="M445.1,306.7a24.76,24.76,0,0,0-2.3,3.2c-3.7,6.1-1.8,17-1.4,29.8.4,10-.5,9.7.5,13.3,3,11,12,16.9,12.8,17.4,9.2,5.8,21.8,6.5,31.6.5.6-.4,9.8-6.3,12.8-17.4.5-1.9.6-3.2.9-8.3,1.5-26.8.4-30.3-.9-33a28.81,28.81,0,0,0-10.1-11c-15.1-10.1-33.3-2.7-37.6,0A31.73,31.73,0,0,0,445.1,306.7Z"/><path class="cls-26" d="M448.8,328.7c-.1-.2,1-1.8,2.8-2.8a7.85,7.85,0,0,1,7.3,0c1.8,1,2.9,2.6,2.8,2.8s-1.4-1.2-3.7-1.8a10.4,10.4,0,0,0-5.5,0A14.1,14.1,0,0,0,448.8,328.7Z"/><path class="cls-26" d="M480.9,328.7c-.1-.2,1-1.8,2.8-2.8a7.85,7.85,0,0,1,7.3,0c1.8,1,2.9,2.6,2.8,2.8s-1.4-1.2-3.7-1.8a10.4,10.4,0,0,0-5.5,0A12.28,12.28,0,0,0,480.9,328.7Z"/><circle class="cls-26" cx="456.6" cy="335.5" r="3.2"/><circle class="cls-26" cx="485.9" cy="335.5" r="3.2"/><path class="cls-37" d="M447.9,412.1s5.4,2.4,9.2,3.7c5.5,1.8,10.1,1.8,15.6,1.8a66.49,66.49,0,0,0,11-.9c2.9-.5,9.6-1.8,10.1-4.6v-5.5a29,29,0,0,0-4.6-15.6,23.73,23.73,0,0,0-11-8.3c-2-.7-9-3.2-16.5,0a21.81,21.81,0,0,0-8.3,6.4,26.33,26.33,0,0,0-5.5,12.8,51.61,51.61,0,0,0,0,10.2Z"/><path class="cls-34" d="M465.3,374.4c-.8.8-.4,2.2.5,5.8,1.8,7.4,1.7,8.3,3.2,12.7,1.9,5.4,2.5,5.5,2.8,5.5.6-.1.9-1.4,1.8-5.5s1.7-8.2,2.8-12.2,1.8-5.4.9-6.2-2.3.1-6.4,0C467.3,374.4,466.1,373.6,465.3,374.4Z"/><path class="cls-25" d="M544.1,305.8a24.76,24.76,0,0,0-2.3,3.2c-3.7,6.1-1.8,17-1.4,29.8.4,10-.5,9.7.5,13.3,3,11,12,16.9,12.8,17.4,9.2,5.8,21.8,6.5,31.6.5.6-.4,9.8-6.3,12.8-17.4.5-1.9.6-3.2.9-8.3,1.5-26.8.4-30.3-.9-33a28.81,28.81,0,0,0-10.1-11c-15.1-10.1-33.3-2.7-37.6,0A28.5,28.5,0,0,0,544.1,305.8Z"/><path class="cls-26" d="M547.8,327.8c-.1-.2,1-1.8,2.8-2.8a7.85,7.85,0,0,1,7.3,0c1.8,1,2.9,2.6,2.8,2.8s-1.4-1.2-3.7-1.8a10.4,10.4,0,0,0-5.5,0A14.1,14.1,0,0,0,547.8,327.8Z"/><path class="cls-26" d="M579.9,327.8c-.1-.2,1-1.8,2.8-2.8a7.85,7.85,0,0,1,7.3,0c1.8,1,2.9,2.6,2.8,2.8s-1.4-1.2-3.7-1.8a10.4,10.4,0,0,0-5.5,0A12.28,12.28,0,0,0,579.9,327.8Z"/><circle class="cls-26" cx="555.6" cy="334.6" r="3.2"/><circle class="cls-26" cx="584.9" cy="334.6" r="3.2"/><path class="cls-28" d="M554.2,347s1.9,3.2,2.8,4.6a19.92,19.92,0,0,0,6.4,6.4,15.25,15.25,0,0,0,13.8,0,16.47,16.47,0,0,0,5.5-4.6,37.84,37.84,0,0,0,3.7-6.4H554.2Z"/><path class="cls-29" d="M559.7,354.3c.1-.7.8-1.1,1.8-1.8a10.89,10.89,0,0,1,5.5-1.8c2.1-.2,7.9-.6,12.8,2.8.4.3.8.5.9.9.4,1.8-5.3,5.6-11,5.5C564.6,359.7,559.4,356.4,559.7,354.3Z"/><path class="cls-30" d="M557.9,349.8h24.8V347H557.9Z"/><path class="cls-38" d="M546.9,411.2s5.4,2.4,9.2,3.7c5.5,1.8,10.1,1.8,15.6,1.8a66.49,66.49,0,0,0,11-.9c2.9-.5,9.6-1.8,10.1-4.6v-5.5a29,29,0,0,0-4.6-15.6,23.73,23.73,0,0,0-11-8.3c-2-.7-9-3.2-16.5,0a20.49,20.49,0,0,0-8.2,6.4A26.33,26.33,0,0,0,547,401a47.42,47.42,0,0,0-.1,10.2Z"/><path class="cls-25" d="M564.3,373.5c-.8.8-.4,2.2.5,5.8,1.8,7.4,1.7,8.3,3.2,12.7,1.9,5.4,2.5,5.5,2.8,5.5.6-.1.9-1.4,1.8-5.5s1.7-8.2,2.8-12.2,1.8-5.4.9-6.2-2.3.1-6.4,0C566.3,373.4,565.1,372.7,564.3,373.5Z"/><path class="cls-33" d="M384.6,204c-.1,3.7,5.4,6.6,9.6,8.7,11.3,5.6,17,8.4,26.6,10.1,12.4,2.2,35.6,4,38-3.2a6.05,6.05,0,0,0,0-2.8c-1.7-11.4-9.3-19.4-10.1-20.2a40.17,40.17,0,0,0-20.2-11s-18.2-4.2-33.9,6.4a34.78,34.78,0,0,0-8.3,8.3C384.9,202.4,384.6,203.2,384.6,204Z"/><path class="cls-39" d="M303.2,302.1c.1,3.7-5.4,6.6-9.6,8.7-11.3,5.6-17,8.4-26.6,10.1-12.4,2.2-35.6,4-38-3.2a6.06,6.06,0,0,1,0-2.8c1.7-11.4,9.3-19.4,10.1-20.2a40.17,40.17,0,0,1,20.2-11s18.2-4.2,33.9,6.4a34.78,34.78,0,0,1,8.3,8.3C302.9,300.5,303.2,301.3,303.2,302.1Z"/><path class="cls-40" d="M193,202.2h0s-1-5.5-.5-8.7c1.3-7.2,12.1-12.5,19.3-11.9,1.9.2,3.4,1.8,6.4,1.8,2.6,0,3.7-.8,6-1.4,4.9-1.1,9.2.7,11.9,1.8,3.6,1.5,9,3.8,10.1,8.3,1,4.2-1.8,10.1-1.8,10.1h0s4.6-.3,7.3.9c4.5,2,5.4,8.6,5.5,9.2a13.82,13.82,0,0,1-5.5,12.8c-.3.2-5.3,3.6-11,1.8a12.82,12.82,0,0,1-6.4-4.6c-1.5-2.2-1.2-3.6-2.8-4.6s-2.6.2-6.4,0c-3.3-.1-3.4-1-6.4-.9-2.7.1-2.7.8-5.5.9-4.2.2-6-1.2-7.3,0-1,.9-.6,2.3-.9,3.7-1.1,4.3-8.1,7-13.8,6.4a12.35,12.35,0,0,1-11.1-16.5c.2-.5,1.9-5.3,6.4-7.3C186.6,204,187.4,203.6,193,202.2Z"/><path class="cls-33" d="M542.3,97.7h0s-1-5.5-.5-8.7c1.3-7.2,12.1-12.5,19.3-11.9,1.9.2,3.4,1.8,6.4,1.8,2.6,0,3.7-.8,6-1.4,4.9-1.1,9.2.7,11.9,1.8,3.6,1.5,9,3.8,10.1,8.3,1,4.2-1.8,10.1-1.8,10.1h0s4.6-.3,7.3.9c4.5,2,5.4,8.6,5.5,9.2a13.82,13.82,0,0,1-5.5,12.8c-.3.2-5.3,3.6-11,1.8a12.82,12.82,0,0,1-6.4-4.6c-1.5-2.2-1.2-3.6-2.8-4.6s-2.6.2-6.4,0c-3.3-.1-3.4-1-6.4-.9-2.7.1-2.7.8-5.5.9-4.2.2-6-1.2-7.3,0-1,.9-.6,2.3-.9,3.7-1.1,4.3-8.1,7-13.8,6.4a12.43,12.43,0,0,1-8.2-3.7,12.91,12.91,0,0,1-2.8-12.8c.2-.5,1.9-5.3,6.4-7.3C535.9,99.5,536.6,99.1,542.3,97.7Z"/><path class="cls-33" d="M131.6,101.3c-.8,4.1,6.2,8.5,10.1,11,8.1,5.1,13.6,8.6,22,9.2,0,0,16.1,1.2,33.9-16.5.9-.9,3.2-3.1,2.8-5.5a3.58,3.58,0,0,0-.9-1.8c-13-15.4-32.1-15.6-32.1-15.6a48.23,48.23,0,0,0-34.8,17.4A3.87,3.87,0,0,0,131.6,101.3Z"/><path class="cls-41" d="M605.8,301.2c.8,4.1-6.2,8.5-10.1,11-8.1,5.1-13.6,8.6-22,9.2,0,0-16.1,1.2-33.9-16.5-.9-.9-3.2-3.1-2.8-5.5a3.58,3.58,0,0,1,.9-1.8C550.9,282.2,570,282,570,282a48.23,48.23,0,0,1,34.8,17.4A2.61,2.61,0,0,1,605.8,301.2Z"/><path class="cls-22" d="M546.7,403.4c.9-.3-.3-3.8,0-11.9a40.9,40.9,0,0,1,.9-9.2c1.5-6.2,3.9-8.5,2.8-10.1s-5.1-1-7.3,0a11,11,0,0,0-5.5,6.4c-.4,1.2-1.1,4.1,1.8,11.9C541.5,396.3,545.3,403.9,546.7,403.4Z"/><path class="cls-42" d="M329.6,136.2h0a108.15,108.15,0,0,1,1.4-17.9c.8-4.2,2.1-11.3,7.3-18.3a36.94,36.94,0,0,1,18.8-13.3,29.6,29.6,0,0,1,15.6-.9c8.4,2,13.3,7.5,16.5,11s5.8,6.5,6.4,11c.8,5.6-2,10.1-3.7,12.8-5.9,9.6-15.8,13-18.3,13.8-4,1.2-3.4.3-22.9.9C350.7,135.3,347.6,135.4,329.6,136.2Z"/><path class="cls-43" d="M396.5,149s1-6.7,2.8-19.3c.5-3.7,1.4-5.4,1.8-9.2a23.42,23.42,0,0,0,0-5.5,10.06,10.06,0,0,0-.9-3.7c-1.3-2.5-4-4.1-4.6-3.7-.2.2-.1.6,0,.9.5,1.9,0,2.8,0,7.3,0,5.8.8,12.2.9,22.9C396.5,142.6,396.5,149,396.5,149Z"/><path class="cls-25" d="M39,308.5a24.76,24.76,0,0,0-2.3,3.2c-3.7,6.1-1.8,17-1.4,29.8.4,10-.5,9.7.5,13.3,3,11,12,16.9,12.8,17.4,9.2,5.8,21.8,6.5,31.6.5.6-.4,9.8-6.3,12.8-17.4.5-1.9.6-3.2.9-8.3,1.5-26.8.4-30.3-.9-33a28.81,28.81,0,0,0-10.1-11c-15.1-10.1-33.3-2.7-37.6,0A31.72,31.72,0,0,0,39,308.5Z"/><path class="cls-26" d="M42.7,330.5c-.1-.2,1-1.8,2.8-2.8a7.85,7.85,0,0,1,7.3,0c1.8,1,2.9,2.6,2.8,2.8s-1.4-1.2-3.7-1.8a10.4,10.4,0,0,0-5.5,0C44.1,329.3,42.8,330.7,42.7,330.5Z"/><circle class="cls-26" cx="50.5" cy="337.4" r="3.2"/><circle class="cls-26" cx="79.8" cy="337.4" r="3.2"/><path class="cls-28" d="M49.1,349.8s1.9,3.2,2.8,4.6a19.92,19.92,0,0,0,6.4,6.4,15.25,15.25,0,0,0,13.8,0,16.47,16.47,0,0,0,5.5-4.6,37.84,37.84,0,0,0,3.7-6.4H49.1Z"/><path class="cls-29" d="M54.6,357.1c.1-.7.8-1.1,1.8-1.8a10.89,10.89,0,0,1,5.5-1.8c2.1-.2,7.9-.6,12.8,2.8.4.3.8.5.9.9.4,1.8-5.3,5.6-11,5.5C59.5,362.5,54.3,359.1,54.6,357.1Z"/><path class="cls-30" d="M52.8,352.5H77.6v-2.8H52.8Z"/><path class="cls-44" d="M41.8,413.9s5.4,2.4,9.2,3.7c5.5,1.8,10.1,1.8,15.6,1.8a66.49,66.49,0,0,0,11-.9c2.9-.5,9.6-1.8,10.1-4.6v-5.5a29,29,0,0,0-4.6-15.6,23.73,23.73,0,0,0-11-8.3c-2-.7-9-3.2-16.5,0a21.81,21.81,0,0,0-8.3,6.4,26.33,26.33,0,0,0-5.5,12.8,51.61,51.61,0,0,0,0,10.2Z"/><path class="cls-25" d="M59.2,376.3c-.8.8-.4,2.2.5,5.8,1.8,7.4,1.7,8.3,3.2,12.7,1.9,5.4,2.5,5.5,2.8,5.5.6-.1.9-1.4,1.8-5.5s1.7-8.2,2.8-12.2,1.8-5.4.9-6.2-2.3.1-6.4,0C61.2,376.2,60,375.5,59.2,376.3Z"/><path class="cls-9" d="M102.3,336.9h0a108.15,108.15,0,0,0-1.4-17.9c-.8-4.2-2.1-11.3-7.3-18.3a36.94,36.94,0,0,0-18.8-13.3,29.6,29.6,0,0,0-15.6-.9c-8.4,2-13.3,7.5-16.5,11s-5.8,6.5-6.4,11c-.8,5.6,2,10.1,3.7,12.8,5.9,9.6,15.8,13,18.3,13.8,4,1.2,3.4.3,22.9.9C81.3,336,84.3,336.1,102.3,336.9Z"/><path class="cls-10" d="M35.4,349.8s-.4-2.5-1-7.2c-1.1-8-1.7-12-1.7-12-.3-2.1-.5-4.3-.9-6.4-.6-3.4-1.2-5.3-.9-8.3a8.85,8.85,0,0,1,.9-3.7c1.3-2.5,4-4.1,4.6-3.7.2.2.1.6,0,.9-.5,1.9,0,2.8,0,7.3,0,5.8-.8,12.2-.9,22.9C35.4,343.3,35.4,349.8,35.4,349.8Z"/><path class="cls-45" d="M402,309c-.1,3.3-2.6,5.7-5.5,8.3a42.58,42.58,0,0,1-15.1,8.7c-20.3,6.2-42.1,2.8-42.2,2.8h0l-11-1.8h0v-2.8a30.09,30.09,0,0,1,1.8-8.3,42.86,42.86,0,0,1,11-16.5c9.5-8.1,20.8-8.2,26.6-8.3a48.09,48.09,0,0,1,25.7,7.3C396.9,300.8,402.1,304.3,402,309Z"/><path class="cls-39" d="M488.2,210c.1,3.3,2.6,5.7,5.5,8.3a42.58,42.58,0,0,0,15.1,8.7c20.3,6.2,42.1,2.8,42.2,2.8h0l11-1.8h0v-2.8a30.09,30.09,0,0,0-1.8-8.3,42.86,42.86,0,0,0-11-16.5c-9.5-8.1-20.8-8.2-26.6-8.3a48.09,48.09,0,0,0-25.7,7.3C493.3,201.8,488.1,205.3,488.2,210Z"/><path class="cls-46" d="M237.9,106.8c-.3,1.7.3,4.6,11.9,12.8,6.3,4.5,9.5,6.8,14.7,9.2,5.6,2.6,9.8,3.6,17.4,5.5,12.8,3.1,24.1,5.9,26.6,1.8.5-.8.3-2.1,0-4.6a26,26,0,0,0-.9-4.6,82.17,82.17,0,0,1-1.8-9.2c-.5-2.5-4-16.6-16.5-24.8a35.85,35.85,0,0,0-15.6-5.5c-2.7-.3-14.9-1.8-24.8,5.5-2.9,2.1-5.3,5.4-10.1,11.9A12.14,12.14,0,0,0,237.9,106.8Z"/><path class="cls-46" d="M502.1,307.6c.3,1.7-.3,4.6-11.9,12.8-6.3,4.5-9.5,6.8-14.7,9.2-5.6,2.6-9.8,3.6-17.4,5.5-12.8,3.1-24.1,5.9-26.6,1.8-.5-.8-.3-2.1,0-4.6a26,26,0,0,1,.9-4.6,82.17,82.17,0,0,0,1.8-9.2c.5-2.5,4-16.6,16.5-24.8a35.85,35.85,0,0,1,15.6-5.5c2.7-.3,14.9-1.8,24.8,5.5,2.9,2.1,5.3,5.4,10.1,11.9A12.15,12.15,0,0,1,502.1,307.6Z"/><path class="cls-45" d="M429.5,124.3c1,2.9,12.7,2.9,22-.9,3.5-1.4,8.4-3.4,11.9-8.3,3.7-5.1,3.7-10.1,5.5-10.1s2.1,5.3,6.4,11a31.15,31.15,0,0,0,8.3,7.3c10.5,6.2,25.9,4.7,27.5,0a3.6,3.6,0,0,0,0-1.8c-.9-6.1-1.4-9.2-2.8-12.8-2.1-5.6-3.6-9.6-7.3-13.8-5-5.6-10.8-7.7-14.7-9.2A49.11,49.11,0,0,0,468,82.9c-4.8.1-11.1.2-18.3,3.7a29.93,29.93,0,0,0-11.9,9.2,37.15,37.15,0,0,0-5.5,11.9c-.3.8-.8,3.3-1.8,8.3a69.77,69.77,0,0,0-.9,7.3A5.13,5.13,0,0,0,429.5,124.3Z"/><path class="cls-45" d="M127,325c1,2.9,12.7,2.9,22-.9,3.5-1.4,8.4-3.4,11.9-8.3,3.7-5.1,3.7-10.1,5.5-10.1s2.1,5.3,6.4,11a31.15,31.15,0,0,0,8.3,7.3c10.5,6.2,25.9,4.7,27.5,0a3.6,3.6,0,0,0,0-1.8c-.9-6.1-1.4-9.2-2.8-12.8-2.1-5.6-3.6-9.6-7.3-13.8-5-5.6-10.8-7.7-14.7-9.2a49.11,49.11,0,0,0-18.3-2.8c-4.8.1-11.1.2-18.3,3.7a29.93,29.93,0,0,0-11.9,9.2,37.15,37.15,0,0,0-5.5,11.9c-.3.8-.8,3.3-1.8,8.3a69.77,69.77,0,0,0-.9,7.3A5.81,5.81,0,0,0,127,325Z"/><path class="cls-42" d="M153.7,237.9h0a108.15,108.15,0,0,0-1.4-17.9c-.8-4.2-2.1-11.3-7.3-18.3a36.94,36.94,0,0,0-18.8-13.3,29.6,29.6,0,0,0-15.6-.9c-8.4,2-13.3,7.5-16.5,11s-5.8,6.5-6.4,11c-.8,5.6,2,10.1,3.7,12.8,5.9,9.6,15.8,13,18.3,13.8,4,1.2,3.4.3,22.9.9C132.6,237,135.6,237.1,153.7,237.9Z"/><path class="cls-43" d="M86.8,250.8s-.4-2.5-1-7.2c-1.1-8-1.7-12-1.7-12-.3-2.1-.5-4.3-.9-6.4-.6-3.4-1.2-5.3-.9-8.3a8.85,8.85,0,0,1,.9-3.7c1.3-2.5,4-4.1,4.6-3.7.2.2.1.6,0,.9-.5,1.9,0,2.8,0,7.3,0,5.8-.8,12.2-.9,22.9C86.7,244.3,86.8,250.8,86.8,250.8Z"/><path class="cls-40" d="M294.8,203.1h0s-1-5.5-.5-8.7c1.3-7.2,12.1-12.5,19.3-11.9,1.9.2,3.4,1.8,6.4,1.8,2.6,0,3.7-.8,6-1.4,4.9-1.1,9.2.7,11.9,1.8,3.6,1.5,9,3.8,10.1,8.3,1,4.2-1.8,10.1-1.8,10.1h0s4.6-.3,7.3.9c4.5,2,5.4,8.6,5.5,9.2a13.82,13.82,0,0,1-5.5,12.8c-.3.2-5.3,3.6-11,1.8a12.82,12.82,0,0,1-6.4-4.6c-1.5-2.2-1.2-3.6-2.8-4.6s-2.6.2-6.4,0c-3.3-.1-3.4-1-6.4-.9-2.7.1-2.7.8-5.5.9-4.2.2-6-1.2-7.3,0-1,.9-.6,2.3-.9,3.7-1.1,4.3-8.1,7-13.8,6.4a12.35,12.35,0,0,1-11.1-16.5c.2-.5,1.9-5.3,6.4-7.3C288.4,204.9,289.1,204.6,294.8,203.1Z"/><polyline class="cls-47" points="338.3 133 342 133 396.1 133"/><path class="cls-1" d="M343.4,129.8h21.1v1.8a12.11,12.11,0,0,1-2.8,6.4c-1.4,1.8-3.9,5-8.3,5.5-3.2.4-7.3-.8-9.2-3.7C343.3,138.4,343.4,137.1,343.4,129.8Z"/><path class="cls-1" d="M391.9,129.8H370.8v1.8a12.11,12.11,0,0,0,2.8,6.4c1.4,1.8,3.9,5,8.3,5.5,3.2.4,7.3-.8,9.2-3.7C391.9,138.4,391.9,137.1,391.9,129.8Z"/><polyline class="cls-47" points="240.2 308 243.9 308 298 308"/><path class="cls-1" d="M245.3,304.8h21.1v1.8a12.11,12.11,0,0,1-2.8,6.4c-1.4,1.8-3.9,5-8.3,5.5-3.2.4-7.3-.8-9.2-3.7C245.3,313.5,245.3,312.1,245.3,304.8Z"/><path class="cls-1" d="M293.9,304.8H272.8v1.8a12.11,12.11,0,0,0,2.8,6.4c1.4,1.8,3.9,5,8.3,5.5,3.2.4,7.3-.8,9.2-3.7C293.9,313.5,293.8,312.1,293.9,304.8Z"/><circle class="cls-47" cx="555.6" cy="133.9" r="8.7"/><circle class="cls-47" cx="584" cy="133.9" r="8.7"/><line class="cls-47" x1="539.5" y1="133.4" x2="546.9" y2="133.4"/><line class="cls-47" x1="564.7" y1="133.4" x2="575.3" y2="133.4"/><line class="cls-47" x1="592.2" y1="133.4" x2="598.6" y2="133.4"/><path class="cls-48" d="M152.7,357.1a29.21,29.21,0,0,0,7.3,3.7,22.46,22.46,0,0,0,12.8.9,19.45,19.45,0,0,0,6.4-2.8"/><path class="cls-48" d="M484.5,355.3a29.21,29.21,0,0,1-7.3,3.7,22.46,22.46,0,0,1-12.8.9,19.45,19.45,0,0,1-6.4-2.8"/><path class="cls-48" d="M50,155.4a29.21,29.21,0,0,0,7.3,3.7,22.46,22.46,0,0,0,12.8.9,19.45,19.45,0,0,0,6.4-2.8"/><path class="cls-26" d="M44.5,134.4c-.1.2.8,1.6,2.4,2.4a7.2,7.2,0,0,0,6.4,0c1.6-.8,2.5-2.2,2.4-2.4s-1.2,1-3.2,1.6a8.93,8.93,0,0,1-4.8,0C45.7,135.4,44.6,134.2,44.5,134.4Z"/><path class="cls-26" d="M72.4,134.4c-.1.2.8,1.6,2.4,2.4a7.2,7.2,0,0,0,6.4,0c1.6-.8,2.5-2.2,2.4-2.4s-1.2,1-3.2,1.6a8.93,8.93,0,0,1-4.8,0C73.7,135.4,72.6,134.2,72.4,134.4Z"/><path class="cls-26" d="M501,238c-.1.2.8,1.6,2.4,2.4a7.2,7.2,0,0,0,6.4,0c1.6-.8,2.5-2.2,2.4-2.4s-1.2,1-3.2,1.6a8.93,8.93,0,0,1-4.8,0C502.2,239,501.1,237.8,501,238Z"/><path class="cls-26" d="M528.9,238c-.1.2.8,1.6,2.4,2.4a7.2,7.2,0,0,0,6.4,0c1.6-.8,2.5-2.2,2.4-2.4s-1.2,1-3.2,1.6a8.93,8.93,0,0,1-4.8,0C530.2,239,529.1,237.8,528.9,238Z"/><rect class="cls-49" x="162.7" y="455.1" width="342.6" height="40.4"/><text class="cls-50" transform="translate(185.16 471.79)">Glades<tspan class="cls-51" x="65.33" y="0">k</tspan><tspan x="74.66" y="0">olen - 8.B - </tspan><tspan class="cls-52" x="179.64" y="0">2</tspan><tspan class="cls-53" x="192.08" y="0">0</tspan><tspan class="cls-54" x="202.81" y="0">1</tspan><tspan x="213.26" y="0">7/</tspan><tspan class="cls-52" x="239.84" y="0">2</tspan><tspan class="cls-53" x="252.29" y="0">0</tspan><tspan class="cls-55" x="263.01" y="0">1</tspan><tspan x="273.16" y="0">8</tspan></text></g></g></svg>
