<svg xmlns="http://www.w3.org/2000/svg" viewBox="0 0 35.3 39.23"><defs><style>.cls-1{fill:#262626;stroke:#262626;stroke-miterlimit:10;}</style></defs><title>knap_mand</title><g id="Layer_2" data-name="Layer 2"><g id="Layer_1-2" data-name="Layer 1"><path class="cls-1" d="M21.88,1.63A7.44,7.44,0,0,1,24.28,4a6.9,6.9,0,0,1,.8,3.2c.1,1.2,0,1.4,0,4a28.74,28.74,0,0,1,0,3.2,8.35,8.35,0,0,1-1.6,4,7.56,7.56,0,0,1-3.2,2.4,6.73,6.73,0,0,1-4.8,0,7.49,7.49,0,0,1-2.4-1.6,8.56,8.56,0,0,1-2.4-4.8,15,15,0,0,1,0-2.4c0-2.8-.3-3.4,0-4.8a15.73,15.73,0,0,1,.8-2.4,8.05,8.05,0,0,1,2.3-3.2C16.18-.07,19.68.33,21.88,1.63Z"/><path class="cls-1" d="M.88,38.73h0c-.6-6.5-.4-7.3,0-8.1,1-1.9,2.9-2.7,5.6-4a21.52,21.52,0,0,1,4.8-1.6,30.33,30.33,0,0,1,15.3.8,15.22,15.22,0,0,1,4,1.6,9,9,0,0,1,4,4s.5,1.2,0,7.3H.88Z"/></g></g></svg>
