<svg xmlns="http://www.w3.org/2000/svg" viewBox="0 0 44.47 40.48"><defs><style>.cls-1{fill:#262626;stroke:#262626;stroke-miterlimit:10;}</style></defs><title>knap_hjerte</title><g id="Layer_2" data-name="Layer 2"><g id="Layer_1-2" data-name="Layer 1"><path class="cls-1" d="M22.27,7.5c.8,0,1.4-1.2,2-2.2A11.24,11.24,0,0,1,30.17,1a10.09,10.09,0,0,1,9.9,2.2C43.87,6.6,44,11.8,44,14a19.82,19.82,0,0,1-2,8.6c-.6,1.2-1.5,2.8-7.9,8.6-4.9,4.4-9.9,8.6-9.9,8.6l-.1-.1c-4.8-4-6.6-5.3-11.1-8.9-3.2-2.6-5.5-4.6-8-7a8.79,8.79,0,0,1-1-1,15,15,0,0,1-3.4-11c.2-1.8.6-5.7,3.9-8.6A10.34,10.34,0,0,1,14.37,1a11.24,11.24,0,0,1,5.9,4.3C21,6.4,21.47,7.5,22.27,7.5Z"/></g></g></svg>
