<svg xmlns="http://www.w3.org/2000/svg" viewBox="0 0 50.23 49.29"><defs><style>.cls-1{fill:none;}.cls-1,.cls-2{stroke:#fff;stroke-miterlimit:10;stroke-width:4px;}.cls-2{fill:#f4912d;}</style></defs><title>payoff_ikon_chat</title><g id="Layer_2" data-name="Layer 2"><g id="Layer_1-2" data-name="Layer 1"><path class="cls-1" d="M40.16,20.43A18,18,0,0,0,36.4,9.15a19,19,0,0,0-16.91-7C9.3,3.21,1.64,12.83,2.11,20,2.4,24.57,6,26.29,5.39,31.7c-.53,5-4,8.26-3.29,8.93S6,36.88,11,36.4c4.46-.43,5.79,2.75,9.87,3.29C28.63,40.71,39.84,31.37,40.16,20.43Z"/><path class="cls-2" d="M48.15,47.21c.57-.57-2-2.64-2.35-6.11-.32-3.28,1.73-4.16,1.88-7.52.21-4.68-3.52-8.28-4.23-8.93-.45-.41-5.36-4.8-11.74-3.29a13.28,13.28,0,0,0-9.87,12.21c-.19,4.21,1.73,9.12,5.64,11.28,3.55,2,8,1.23,9.4.94,1.94-.41,2.17-.88,3.76-.94C44.8,44.71,47.51,47.84,48.15,47.21Z"/></g></g></svg>
