<svg xmlns="http://www.w3.org/2000/svg" viewBox="0 0 639 568"><defs><style>.cls-1{fill:#e9eced;}.cls-2{fill:#757575;}.cls-3{fill:#6d6769;}.cls-4{fill:#202532;}.cls-5{fill:#06c918;}.cls-6{fill:#e50a15;}.cls-7{fill:#efef45;}.cls-8{fill:#350fd3;}.cls-9{fill:#312abc;}.cls-10{fill:#37a537;}.cls-11{fill:#e81f33;}.cls-12{fill:#feee95;}.cls-13{fill:#fad9b0;}.cls-14{fill:#f4912d;}.cls-15{fill:#f2c89c;}.cls-16{fill:#191d26;}.cls-17{fill:#b4dca7;}.cls-18{fill:#c46e2d;}.cls-19{fill:#eaac41;}.cls-20{fill:#c07d08;}.cls-21{fill:#fecda4;}.cls-22{fill:#333;}.cls-23{fill:#962d69;}.cls-24{fill:#72263c;}.cls-25{fill:#fff;}.cls-26{fill:#edb143;}.cls-27{fill:#ffc79f;}.cls-28{fill:#d17a2c;}.cls-29{fill:#72665e;}.cls-30{fill:#b19e8f;}.cls-31{fill:#73b5c9;}.cls-32{fill:#89cce5;}.cls-33{fill:#f2b186;}.cls-34{fill:#a92d2b;}.cls-35{fill:#952819;}.cls-36{fill:#c95b6e;}.cls-37{fill:#f5f7f7;}</style></defs><title>babysitting</title><g id="Layer_2" data-name="Layer 2"><g id="Layer_1-2" data-name="Layer 1"><g id="Layer_1-2-2" data-name="Layer 1-2"><path class="cls-1" d="M12,565.39a9.58,9.58,0,0,1-9.5-9.54V9.54A9.58,9.58,0,0,1,12,0H627a9.58,9.58,0,0,1,9.5,9.54V555.85a9.58,9.58,0,0,1-9.5,9.54Z"/><path class="cls-2" d="M12,567.3c-5.2,0-9.5-1.1-9.5-2.41V425.6c0-1.31,4.3-2.41,9.5-2.41H627c5.2,0,9.5,1.1,9.5,2.41V564.89c0,1.31-4.3,2.41-9.5,2.41Z"/><path class="cls-2" d="M627,423.79c3.9,0,7,.8,7,1.81V564.89c0,1-3.1,1.81-7,1.81H12c-3.9,0-7-.8-7-1.81V425.6c0-1,3.1-1.81,7-1.81H627m0-1.31H12c-6.6,0-12,1.41-12,3.11V564.89C0,566.59,5.4,568,12,568H627c6.6,0,12-1.41,12-3.11V425.6c0-1.71-5.4-3.11-12-3.11Z"/><path class="cls-3" d="M414.53,393"/><path class="cls-3" d="M343.71,372.47"/><rect class="cls-4" x="336.61" y="360.12" width="117.34" height="5.62"/><path class="cls-3" d="M459.14,362H327.8a4.24,4.24,0,0,1-4.2-4.22V354a4.24,4.24,0,0,1,4.2-4.22H459a4.24,4.24,0,0,1,4.2,4.22v3.82a4.09,4.09,0,0,1-4,4.22Z"/><polygon class="cls-3" points="343.71 365.64 332.8 425.6 341.01 425.6 361.31 365.64 343.71 365.64"/><polygon class="cls-3" points="446.94 365.64 457.84 425.6 449.54 425.6 429.23 365.64 446.94 365.64"/><rect class="cls-5" x="350.41" y="341.14" width="8.5" height="8.54"/><rect class="cls-6" x="354.81" y="333.91" width="8.5" height="8.54"/><rect class="cls-7" x="351.91" y="325.68" width="8.5" height="8.54"/><rect class="cls-8" x="361.31" y="342.35" width="8.5" height="8.54"/><rect class="cls-9" x="385.23" y="341.12" width="8.5" height="8.54" transform="translate(-12.56 14.7) rotate(-2.13)"/><polygon class="cls-10" points="388.93 337.96 394.94 331.92 400.96 337.96 394.94 343.99 388.93 337.96"/><rect class="cls-11" x="397.09" y="341.17" width="8.5" height="8.54" transform="translate(-12.55 15.14) rotate(-2.13)"/><path class="cls-12" d="M54.12,228.26v27.11s6.5,6.73,11.8,6.73,12.2-6.73,12.2-6.73l-.8-27.11H54.12Z"/><polygon class="cls-13" points="306.9 399.19 307.9 458.24 316.3 458.84 320.6 400.19 306.9 399.19"/><polyline class="cls-4" points="332.5 353.69 329.3 408.53 306 406.32 304.89 348.17 332.5 352.19"/><path class="cls-14" d="M258.68,339.74s46.61,38.26,88,4.62c0,0-10.2-34.75-8.6-36.86s-10.9-57.94-10.9-57.94l-8.7-2.61-21,4-29.31,5.62s6.1,44.69,3.4,48S258.68,339.74,258.68,339.74Z"/><path class="cls-14" d="M320.5,255.28s17,0,26,4.92,20.41,25.41,20.41,25.41,6.5,12,5.7,15.57-11.4,7.83-14.7,9.44S335,318.45,335,318.45l-11.9,2.91-4.9-10.64,21.61-7.53,16-5.62-14.7-11.25-11-10.14Z"/><polygon class="cls-15" points="291.59 398.08 296.89 456.93 305.4 456.93 305.4 398.08 291.59 398.08"/><polyline class="cls-16" points="280.39 354.4 283.59 409.13 306.9 407.02 308 348.77 280.39 352.79"/><path class="cls-17" d="M311.7,393.86"/><path class="cls-18" d="M297.39,251l7.3,107.25s-40.61-5.32-46-18.48c0,0,9.5-36.25,12.8-35.15s-3.4-48-3.4-48Z"/><path class="cls-19" d="M341.91,255.88c2.9-8.84.9-12.05.8-29.32-.1-17.67,2-21.19-.8-31.63-2.7-10.14-6.7-14.36-7.7-15.36-5.9-6-13.2-7.53-17.71-8.44a39.8,39.8,0,0,0-20,.8c-3.8,1.21-9.3,2.81-13.8,7.73-2.2,2.31-5,6.43-6.9,18.48-1.8,11.15-.2,13.16-.8,28.52-.6,15.67-2.5,19.48,0,28.52"/><path class="cls-20" d="M334.3,262.11c1.4-3.62,1.6-6.63,1.5-12.35-.1-12.15-1.1-17.78-1.5-27-.7-14.56.9-14.76-.8-17.78-7.6-13-42.71-12.65-49.92.8-1.1,2-.5,2.31-.8,13.06-.4,14.76-1.6,20.29-.8,33.14"/><path class="cls-21" d="M287.49,188.9a20.93,20.93,0,0,0-1.9,2.71c-3.1,5.12-1.5,14.26-1.2,25,.3,8.44-.4,8.13.4,11.15,2.5,9.24,10,14.16,10.7,14.66,7.7,4.82,18.31,5.52,26.51.4a26.85,26.85,0,0,0,10.7-14.66,36.29,36.29,0,0,0,.8-6.93c1.3-22.5.3-25.51-.8-27.72a24.77,24.77,0,0,0-8.4-9.24c-12.6-8.44-27.81-2.31-31.51,0A23.71,23.71,0,0,0,287.49,188.9Z"/><path class="cls-22" d="M290.49,207.38c-.1-.2.8-1.51,2.3-2.31a6.56,6.56,0,0,1,6.1,0,4.93,4.93,0,0,1,2.3,2.31,13.53,13.53,0,0,0-3.1-1.51,8.2,8.2,0,0,0-4.6,0C291.69,206.37,290.69,207.48,290.49,207.38Z"/><path class="cls-22" d="M317.4,207.38c-.1-.2.8-1.51,2.3-2.31a6.56,6.56,0,0,1,6.1,0,4.93,4.93,0,0,1,2.3,2.31,13.53,13.53,0,0,0-3.1-1.51,8.2,8.2,0,0,0-4.6,0A14.12,14.12,0,0,0,317.4,207.38Z"/><ellipse class="cls-22" cx="297.09" cy="213.2" rx="2.7" ry="2.71"/><ellipse class="cls-22" cx="321.6" cy="213.2" rx="2.7" ry="2.71"/><path class="cls-23" d="M294.79,225.45s1.5,2.61,2.2,3.62a15.1,15.1,0,0,0,5.1,5.12,12,12,0,0,0,10.9,0,12.83,12.83,0,0,0,4.4-3.62,25.77,25.77,0,0,0,2.9-5.12Z"/><path class="cls-24" d="M299.19,231.28c.1-.5.6-.9,1.5-1.51a9.55,9.55,0,0,1,4.4-1.51c1.7-.2,6.3-.5,10.2,2.21.3.2.7.4.7.7.3,1.41-4.2,4.52-8.8,4.42C303.09,235.6,299,233,299.19,231.28Z"/><path class="cls-25" d="M297.69,227.66H317.4v-2.21H297.69Z"/><path class="cls-21" d="M305.6,253.27c.7-2.71,1.2-3.62.6-4.22s-1.6,0-4.3,0c-2.3,0-3.1-.5-3.7,0s-.3,1.51.3,3.92"/><path class="cls-26" d="M275.19,205.07c.8,2.51,10.6,2.41,18.41-.8,2.9-1.21,7-2.81,10-6.93s3.1-8.44,4.6-8.44,1.8,4.42,5.4,9.24a24.83,24.83,0,0,0,6.9,6.13c8.8,5.22,21.71,3.92,23,0,.2-.4.1-.8,0-1.51-.8-5.12-1.1-7.73-2.3-10.75-1.8-4.72-3-8.13-6.1-11.55-4.2-4.72-9.1-6.53-12.3-7.73a39.51,39.51,0,0,0-15.3-2.31c-4,.1-9.3.2-15.3,3.11a25.46,25.46,0,0,0-10,7.73,30,30,0,0,0-4.6,10c-.2.7-.7,2.81-1.5,6.93,0,0-.3,1.51-.8,6.13C275.09,204.77,275.09,204.87,275.19,205.07Z"/><path class="cls-27" d="M340.71,286.31s1.2-2.21,2.6-2.21c0,0,.4-4.72,1.4-4.72s.7,4.22.7,4.22,4.9-3.41,5.7-2.51-4.6,3.21-4.6,3.21l4.7-1.51s1.3.6.6,1.1a38.77,38.77,0,0,1-4.8,1.81,42.79,42.79,0,0,1,5-.7c0,.2.9.5.5.7s-5,.8-5,.8,3.7.1,3.7.6a1,1,0,0,1-.5,1,20.35,20.35,0,0,1-3.5,0,10.06,10.06,0,0,1-3.8,1.1C341.61,289.22,340.71,286.31,340.71,286.31Z"/><path class="cls-27" d="M327.4,315s-20.41-4.12-20.21-2,13.7,4.32,13.7,4.32-13.3-1.81-13.7,0,12.1,1.81,12.1,1.81-12.7,2-10.8,2.91,9-1,9-1-5.2,2.51-4.3,3.31,12.4-4.52,12.4-4.52v-6.13Z"/><path class="cls-27" d="M283.59,321.56s20.41-4.12,20.21-2-13.7,4.32-13.7,4.32,13.3-1.81,13.7,0-12.1,1.81-12.1,1.81,12.7,2,10.8,2.91-9-1-9-1,5.2,2.51,4.3,3.31-12.4-4.52-12.4-4.52v-6.13Z"/><path class="cls-28" d="M295.49,253.47s-17,0-26,4.92-20.41,25.41-20.41,25.41-6.5,12-5.7,15.57,11.4,7.83,14.7,9.44S281,316.64,281,316.64l11.9,2.91,4.9-10.64-21.61-7.53-16-5.62,15.9-9.24Z"/><ellipse class="cls-29" cx="297.29" cy="458.14" rx="9.6" ry="2.51"/><ellipse class="cls-30" cx="316.9" cy="458.14" rx="9.6" ry="2.51"/><path class="cls-31" d="M300.39,289.52l10.1,43.08-6.1,2.61s7.5,25.81,4.6,29c0,0-6.6,7.13-8.6,6.33s-9.7.3,2.1-6.33c0,0-12.4-6.73-13.5-10.34s-8.4-43.58-5.4-43.89-3.9-2-7.2-1.51-16.51,1.91-16.51,1.91v-8.13h13.9s11.6-17.47,20.51-9.44Z"/><path class="cls-27" d="M262.08,305.79s-1.2-2.21-2.6-2.21c0,0-.4-4.72-1.4-4.72s-.7,4.22-.7,4.22-4.9-3.41-5.7-2.51,4.6,3.21,4.6,3.21l-4.7-1.51s-1.3.6-.6,1.1a38.77,38.77,0,0,0,4.8,1.81,42.79,42.79,0,0,0-5-.7c0,.2-.9.5-.5.7s5,.8,5,.8-3.7.1-3.7.6a1,1,0,0,0,.5,1c.3.1,3.5,0,3.5,0a10.06,10.06,0,0,0,3.8,1.1C261.08,308.7,262.08,305.79,262.08,305.79Z"/><path class="cls-32" d="M298.09,290.43l11.4,42.68,6.6-.5s5.5,26.31,9.6,27.82c0,0,9.2,3.11,10.6,1.51s8.7-4.32-4.9-4.52c0,0,7.8-11.75,7-15.57s-13.1-42.48-15.8-41.27,2.5-3.62,5.6-4.72,15.5-6.13,15.5-6.13l-3.8-7.13-12.3,6.63s-18.51-9.94-22.51,1.41Z"/><path class="cls-27" d="M296.89,298.26l-2.9-8.44s-20.91,3.11-27-15,0,2.51,0,2.51l7-15.57,4.1,4.12,9-9,1.2,4.92,12.7-4.92,2.9,4.92,2-4.92,16.41,6.53v6.53s-4.1,18.48-14.7,19.88v8.44S301.39,303.18,296.89,298.26Z"/><ellipse class="cls-22" cx="281.59" cy="269.34" rx="1.9" ry="1.91"/><ellipse class="cls-22" cx="301.19" cy="268.13" rx="1.9" ry="1.91"/><path class="cls-33" d="M289,280.49l11.5-.8s-1.1,3.72-2.5,3.72c0,0-5.6,1.51-6.4.6S289,280.49,289,280.49Z"/><path class="cls-27" d="M332.6,309.91S314,306,314.2,308s13.7,4.32,13.7,4.32-13.3-1.81-13.7,0,12.1,1.81,12.1,1.81-12.7,2-10.8,2.91,9-1,9-1-5.2,2.51-4.3,3.31,12.4-4.52,12.4-4.52v-4.92Z"/><path class="cls-27" d="M281.79,310.11s18.61-3.72,18.41-1.71-13.7,4.32-13.7,4.32,13.3-1.81,13.7,0-12.1,1.81-12.1,1.81,12.7,2,10.8,2.91-9-1-9-1,5.2,2.51,4.3,3.31-12.4-4.52-12.4-4.52v-5.12Z"/><path class="cls-34" d="M266.78,276.47l6.4-14.46,4.1,4.12,9-9,1.2,4.92,12.7-4.92,2.9,4.92,2-4.92,16.41,6.53s-2.2-15.36-10.2-17.47-11.9-4.52-15.1-2.71c0,0,3.5-4.32,4.5-2.91,0,0-8.9-1.21-8.1,1,0,0-18.31-1.41-21.31,4.12s-10.1,20.79-4.9,29.32"/><path class="cls-35" d="M300.59,240.62s-8,1.51-7.7,2.61l-1.4,17.17-4,1.51-1.1-4.22-9.2,8.34-4.1-4.12-6.3,15.57s-9.5-23.6,3.2-32.14c0,0,13.3-7.93,21.61-4.22C291.69,241.12,300.09,239.31,300.59,240.62Z"/><path class="cls-32" d="M20.81,403.4s-1.8-26.81,6.7-25.61H209.67s9.2,2.41,9.8,6.73a3.67,3.67,0,0,1-.3,2c-2.5,5.52.4-1.31.4-1.31l-.4,23.5L20.51,407.52Z"/><path class="cls-29" d="M14,427.1h10.4v-119s-6.1-9-10.4-1.1Z"/><path class="cls-29" d="M71.72,394.07"/><path class="cls-29" d="M214,425.6h10.4v-119s-6.1-9-10.4-1.1Z"/><rect class="cls-29" x="19.21" y="324.57" width="199.96" height="5.22"/><rect class="cls-29" x="40.11" y="327.18" width="4.9" height="80.24"/><rect class="cls-29" x="60.92" y="327.18" width="4.9" height="80.24"/><rect class="cls-29" x="83.03" y="327.18" width="4.9" height="80.24"/><rect class="cls-29" x="103.93" y="327.18" width="4.9" height="80.24"/><rect class="cls-29" x="127.04" y="327.18" width="4.9" height="80.24"/><rect class="cls-29" x="148.55" y="327.18" width="4.9" height="80.24"/><rect class="cls-29" x="170.55" y="327.18" width="4.9" height="80.24"/><rect class="cls-29" x="192.26" y="327.18" width="4.9" height="80.24"/><rect class="cls-29" x="19.21" y="404.81" width="199.96" height="5.22"/><rect class="cls-36" x="64.12" y="235.19" width="3.5" height="52.12"/><polygon class="cls-14" points="35.11 235.19 96.63 235.19 83.13 184.08 49.82 184.08 35.11 235.19"/><rect class="cls-4" x="529.67" y="372.98" width="101.83" height="44.39"/><rect class="cls-12" x="529.67" y="355.1" width="101.83" height="17.88"/><rect class="cls-4" x="529.67" y="336.62" width="101.83" height="17.88"/><rect class="cls-12" x="529.67" y="319.35" width="101.83" height="17.88"/><ellipse class="cls-29" cx="580.58" cy="385.93" rx="2.5" ry="2.51"/><ellipse class="cls-29" cx="580.58" cy="364.94" rx="2.5" ry="2.51"/><ellipse class="cls-29" cx="580.58" cy="345.56" rx="2.5" ry="2.51"/><ellipse class="cls-29" cx="580.58" cy="328.29" rx="2.5" ry="2.51"/><rect class="cls-29" x="525.36" y="312.62" width="111.03" height="6.73"/><rect class="cls-29" x="540.67" y="417.26" width="11.3" height="11.35"/><rect class="cls-29" x="608.59" y="417.26" width="11.3" height="11.35"/><path class="cls-3" d="M457.64,217.42H429.43a12,12,0,0,1-12-12.05V172.73a12,12,0,0,1,12-12.05h28.21a12,12,0,0,1,12,12.05v32.64A12,12,0,0,1,457.64,217.42Z"/><path class="cls-37" d="M454.34,214H432.74a12,12,0,0,1-12-12.05V176.24a12,12,0,0,1,12-12.05h21.61a12,12,0,0,1,12,12.05V202A12,12,0,0,1,454.34,214Z"/><ellipse class="cls-3" cx="443.04" cy="189.8" rx="1.8" ry="1.81"/><path class="cls-3" d="M443,191.51s1.4,8.34,4,8.64C447,200.15,445.74,191.21,443,191.51Z"/><path class="cls-3" d="M441.44,189.1s-10-6-10.3-8,0-.8,0-.8S439.84,186.59,441.44,189.1Z"/><circle class="cls-3" cx="427.33" cy="178.96" r="0.8"/><circle class="cls-3" cx="432.74" cy="173.03" r="0.8"/><circle class="cls-3" cx="458.94" cy="201.85" r="0.8"/><circle class="cls-3" cx="434.34" cy="208.18" r="0.8"/><circle class="cls-3" cx="426.43" cy="201.05" r="0.8"/><circle class="cls-3" cx="458.94" cy="179.76" r="0.8"/><circle class="cls-3" cx="453.74" cy="173.03" r="0.8"/><circle class="cls-3" cx="453.74" cy="208.98" r="0.8"/></g></g></g></svg>
