<?xml version="1.0" encoding="utf-8"?>
<!-- Generator: Adobe Illustrator 21.1.0, SVG Export Plug-In . SVG Version: 6.00 Build 0)  -->
<svg version="1.1" id="Layer_1" xmlns="http://www.w3.org/2000/svg" xmlns:xlink="http://www.w3.org/1999/xlink" x="0px" y="0px"
	 viewBox="0 0 626 621" style="enable-background:new 0 0 626 621;" xml:space="preserve">
<path d="M104,102c7.3-14.8,26.9-36,33-33c1.5,0.8,1.7,2.8,6,7c3.1,3,5.4,5.2,9,6c0.6,0.1,6.3,1.2,10-2c3.8-3.3,1.6-7.6,4-16
	c0.7-2.3,3.7-13,11-16c6.3-2.6,13.4,1.5,16,3c33.3,18.9,107,157,107,157C452.8,2.5,492,15,492,15c9.3,3,30.6,15.9,29,26
	c-0.6,3.9-4.4,5.4-4,10c0.5,6.3,8.4,12.4,16,13c5.5,0.4,6.4-2.3,11-2c10.4,0.7,21.8,15.6,19,25c-2.1,7.1-11.7,8.9-12,17
	c-0.1,2.7,0.9,4.7,1,5c7.2,18.2-180,202-180,202l0,0c0,0,117.9,99.4,119,150c0.2,11-3,19-3,19c-2.8,6.8-11.5,23.2-28,31
	c-3.7,1.7-9.5,3.9-10,8c-0.3,2.9,2.3,4.1,3,7c1.9,7.9-11.7,23-24,22c-11.6-1-15.9-15.8-25-14c-3.7,0.7-5.4,3.6-9,8
	c-8.8,10.5-20.8,19.4-26,21c0,0-21.5,6.5-97-126l0,0c0,0-100.7,161.9-127,168c-5.1,1.2-10,0-10,0c-7.1-1.7-15-7.6-16-15
	c-1-7.6,5.9-12.3,4-15c-2.4-3.4-12.5,4.3-24,3c-17-1.9-33.8-23-32-40c1.2-10.8,9.1-12.6,10-24c1-13.5-9.4-21.2-13-29
	c0,0-16.6-35.4,136-166l0,0C84.1,142.2,104,102,104,102z"/>
</svg>
