<?xml version="1.0" encoding="utf-8"?>
<!-- Generator: Adobe Illustrator 21.0.2, SVG Export Plug-In . SVG Version: 6.00 Build 0)  -->
<svg version="1.1" id="Lag_1" xmlns="http://www.w3.org/2000/svg" xmlns:xlink="http://www.w3.org/1999/xlink" x="0px" y="0px"
	 viewBox="0 0 639 568" style="enable-background:new 0 0 639 568;" xml:space="preserve">
<style type="text/css">
	.st0{fill:#DEF9FF;}
	.st1{fill:#DDB25B;}
	.st2{fill:#89CCE5;}
	.st3{fill:#EAAC41;}
	.st4{fill:#C07D08;}
	.st5{fill:#FCBA83;}
	.st6{fill:#333333;}
	.st7{fill:#EDB143;}
	.st8{fill:#552E0F;}
	.st9{fill:#2F1A09;}
	.st10{fill:#F9BE93;}
	.st11{fill:#5A3312;}
	.st12{fill:none;stroke:#2F1A09;stroke-width:0.2;stroke-miterlimit:10;}
	.st13{fill:#F4912D;}
	.st14{fill:#070606;}
	.st15{fill:#E20E23;}
	.st16{fill:#962D69;}
	.st17{fill:#72263C;}
	.st18{fill:#FFFFFF;}
	.st19{fill:#F7EBED;stroke:#EFE6DF;stroke-width:0.5;stroke-miterlimit:10;}
	.st20{fill:#F90D94;}
	.st21{fill:none;stroke:#020202;stroke-width:0.5;stroke-miterlimit:10;}
</style>
<title>druk</title>
<rect y="0" class="st0" width="639" height="311.1"/>
<polyline class="st1" points="0,430.3 639,430.3 639,568 0,568 "/>
<polyline class="st2" points="0,311.2 639,311.2 639,430.7 0,430.7 "/>
<path class="st3" d="M374.1,349.9c-0.6-0.2,0.2-2.8,0-8.7c-0.1-2.9-0.1-4.5-0.6-6.7c-1-4.5-2.7-6.1-1.9-7.3c0.8-1.2,3.5-0.8,5.1,0
	c2.7,1.3,3.6,4.1,3.8,4.7c0.3,0.9,0.8,3-1.3,8.7C377.6,344.8,375,350.3,374.1,349.9z"/>
<path class="st3" d="M356.4,262.8c-4.8,0.3-8.4,1.9-10.1,2.7c-2.2,1-9.4,4.5-13.9,12.7c-3.3,6-3.4,11.4-3.5,19
	c-0.1,9.4-0.2,15.9,3.8,22.6c6.5,10.9,18.2,13.1,19.6,13.3c8.6,1.5,15.5-1.7,18.3-3.3c6.2-3.5,9.5-8.3,10.1-9.3
	c4-6.2,4.5-12.2,5.1-20c0.3-4.1,0.6-8.4-0.6-14c-0.6-2.6-1.5-7-4.4-11.3C375.3,267,365.7,262.3,356.4,262.8z"/>
<path class="st4" d="M337.1,296.4c-1.1,1.9-1.4,3.6-1.9,6.7c-0.6,3.6-1.9,11.5,2.5,18.6c4.3,6.9,11.2,8.8,13.3,9.3
	c1.8,0.5,9.3,2.3,17.1-2c1.7-0.9,7.1-4,10.1-10.7c0.5-1.1,4.9-11.2,0-19.3c-2.3-3.7-5.5-5.3-8.2-6.7
	C359.1,287.1,342.4,287.2,337.1,296.4z"/>
<path class="st5" d="M339,280.4c0,0-0.9,1.1-1.6,2.3c-2.5,4.4-1.3,12.3-0.9,21.6c0.3,7.3-0.4,7,0.3,9.7c2.1,8,8.3,12.3,8.9,12.7
	c6.3,4.2,15,4.7,21.8,0.3c0.4-0.3,6.8-4.6,8.9-12.7c0.3-1.4,0.4-2.3,0.6-6c1-19.4,0.3-22-0.6-24c-2.1-4.5-5.5-7-7-8
	c-10.4-7.3-22.9-2-25.9,0C340.8,278.2,339,280.4,339,280.4z"/>
<path class="st6" d="M341.5,296.4c-0.1-0.1,0.7-1.3,1.9-2c1.5-0.9,3.5-0.9,5.1,0c1.2,0.7,2,1.9,1.9,2c-0.1,0.1-1-0.8-2.5-1.3
	c-1.8-0.6-3.5-0.1-3.8,0C342.5,295.6,341.6,296.6,341.5,296.4z"/>
<path class="st6" d="M363.6,296.4c-0.1-0.1,0.7-1.3,1.9-2c1.5-0.9,3.5-0.9,5.1,0c1.2,0.7,2,1.9,1.9,2c-0.1,0.1-1-0.8-2.5-1.3
	c-1.8-0.6-3.5-0.1-3.8,0C364.6,295.6,363.7,296.6,363.6,296.4z"/>
<ellipse class="st6" cx="346.9" cy="301.4" rx="2.2" ry="2.3"/>
<ellipse class="st6" cx="367.1" cy="301.4" rx="2.2" ry="2.3"/>
<path class="st5" d="M352.9,328.2c-0.6,0.6-0.3,1.6,0.3,4.2c1.2,5.4,1.2,6,2.2,9.2c1.3,3.9,1.7,4,1.9,4c0.4,0,0.6-1,1.3-4
	c0.6-3,1.2-5.9,1.9-8.9c0.7-2.9,1.2-3.9,0.6-4.5c-0.6-0.6-1.6,0.1-4.4,0C354.3,328.2,353.5,327.6,352.9,328.2z"/>
<path class="st7" d="M333.3,277.1c-0.5,3,4.3,6.2,7,8c5.6,3.7,9.4,6.2,15.2,6.7c0,0,11.1,0.8,23.4-12c0.6-0.7,2.2-2.3,1.9-4
	c-0.1-0.7-0.5-1.2-0.6-1.3c-9-11.2-22.1-11.3-22.1-11.3s-13.9-0.2-24,12.7C333.7,276,333.4,276.5,333.3,277.1z"/>
<path class="st8" d="M222.7,265.4c-3,0.9-7.5,2.3-11,6.1c-1.7,1.9-4,5.1-5.5,14.7c-1.4,8.9-0.1,10.4-0.6,22.7
	c-0.5,12.5-2,15.5,0,22.7c0.9,3.3,1.9,6.9,4.9,10.4c6.8,7.9,17.7,8,22.1,8c4.6,0,12.5,0.1,19-5.5c4.6-4,6.3-8.9,7.4-12.3
	c2.3-7.1,0.7-9.6,0.6-23.3c-0.1-14.1,1.6-16.9-0.6-25.2c-2.2-8.1-5.3-11.5-6.1-12.3c-4.7-4.8-10.6-6-14.1-6.7
	C230.6,263.2,224.3,264.9,222.7,265.4z"/>
<path class="st9" d="M212.2,292.4c-0.8,1.6-0.4,1.9-0.6,10.4c-0.3,11.8-1.2,16.2-0.6,26.4c0.3,4.8,0.7,7.6,2.5,10.4
	c2.3,3.9,5.7,5.8,7.4,6.7c6.8,3.8,17.4,5,25.2-0.6c1.2-0.8,4.8-3.7,6.7-8.6c1.1-2.9,1.3-5.3,1.2-9.8c-0.1-9.7-0.9-14.1-1.2-21.5
	c-0.6-11.6,0.8-11.8-0.6-14.1C246,281.5,218,281.7,212.2,292.4z"/>
<path class="st10" d="M214.7,280.1c0,0-0.9,1-1.5,2.1c-2.5,4.1-1.2,11.4-0.9,19.9c0.2,6.7-0.3,6.5,0.3,8.9c2,7.4,8,11.3,8.6,11.7
	c6.1,3.9,14.6,4.4,21.2,0.3c0.4-0.2,6.6-4.2,8.6-11.7c0.3-1.3,0.4-2.1,0.6-5.5c1-17.9,0.3-20.3-0.6-22.1c-2-4.2-5.4-6.4-6.7-7.4
	c-10.1-6.7-22.3-1.8-25.2,0C216.4,278.1,214.7,280.1,214.7,280.1z"/>
<path class="st6" d="M213.5,293.8c-0.1-0.1,0.6-1.2,1.8-1.8c1.5-0.8,3.4-0.8,4.9,0c1.2,0.6,1.9,1.7,1.8,1.8
	c-0.1,0.1-0.9-0.8-2.5-1.2c-1.8-0.5-3.4-0.1-3.7,0C214.4,293,213.6,293.9,213.5,293.8z"/>
<path class="st6" d="M238.6,294.9c-0.1-0.1,0.6-1.2,1.8-1.8c1.5-0.8,3.4-0.8,4.9,0c1.2,0.6,1.9,1.7,1.8,1.8
	c-0.1,0.1-0.9-0.8-2.5-1.2c-1.8-0.5-3.4-0.1-3.7,0C239.6,294.1,238.7,295,238.6,294.9z"/>
<circle class="st6" cx="218.7" cy="298.4" r="2.2"/>
<circle class="st6" cx="242" cy="299.5" r="2.1"/>
<path class="st11" d="M205.5,291.8c0.7,2,8.5,1.9,14.7-0.6c2.3-0.9,5.6-2.3,8-5.5c2.5-3.4,2.5-6.7,3.7-6.7c1.2,0,1.4,3.5,4.3,7.4
	c0.2,0.2,2.3,3,5.5,4.9c7,4.2,17.3,3.2,18.4,0c0.1-0.4,0.1-0.6,0-1.2c-0.6-4.1-0.9-6.1-1.8-8.6c-1.4-3.8-2.4-6.5-4.9-9.2
	c-3.4-3.7-7.2-5.2-9.8-6.1c-5.2-1.9-9.7-1.9-12.3-1.8c-3.2,0.1-7.4,0.2-12.3,2.5c-2,0.9-5.3,2.6-8,6.1c-2.1,2.9-3,5.8-3.7,8
	c-0.2,0.6-0.5,2.2-1.2,5.5c0,0-0.3,1.2-0.6,4.9C205.5,291.6,205.5,291.7,205.5,291.8z"/>
<path class="st12" d="M349,317.3c1.7,1.2,3.2,1.9,4.3,2.3c1.4,0.5,4.2,1.4,7.5,0.6c1.7-0.4,3-1.2,3.7-1.7"/>
<path class="st10" d="M237.4,329.4l12.1,4.3l23.4,28.2c0,0-18.1,27-20.7,28.7c-2.6,1.7,3.4,3.8,3,8.5c-0.1,1.4,3.8,1.2,3.8,1.9
	c0,0-4.4,2.1-6.4,0.8c-2-1.3-4.5-4.4-4.5-4.4l23.8,120.7l4.7,7.5l11.2,3l0.2,9.4l-26.5-4.8c0,0,0-13.1,1.2-14.8
	c1.2-1.7-21.2-44.1-18.2-56.6c1.7-7.2-15.6-40.2-16.1-41.5l-6.2,40.7l0,56.9l1.7,12.4l-0.5,7.7h-10.2v-20.9l-12.4-111
	c0,0,11.7-19.6,17.6-22.6c6-3-5.5-26.1-5.5-26.1s-7.2,23.3-10.2,22.9s-12.9-25.1-11.2-40.2c0,0-7.2-2-2.5-9.2c0,0-3.5-6.5-1.6-7.9
	c1.9-1.5,3.8,6.5,3.8,6.5s0.5-5.8,1.5-6.6s1.2,6.4,1.2,6.4s4.2,5.5,2.5,8.9s6.2,23.1,6.2,23.1s3.5-27.2,16.4-28.8c6-3.2,6-3.2,6-3.2
	L237.4,329.4z"/>
<path class="st2" d="M248.7,386.2l14.4-24.2l-11.3-12.6c0,0,1,5.1-1.9,14.9C247.4,372.3,248.7,386.2,248.7,386.2z"/>
<path class="st13" d="M217.2,367.4c0,0,10.1-5.4,31.8,0.4c8.4-13.6-0.8-25.2-1.9-25.2l-0.5-9.8l-3-1.1l0.7,12.5l-9.1,13.8l-4.2,0.2
	l-9.6-12.8l-0.4-14l-2.7,1.1v11.7c0,0-5.9,9.2-5.7,13.1C212.8,361.3,217.2,367.4,217.2,367.4z"/>
<path class="st10" d="M228.2,325.5c-0.6,0.5-0.3,1.5,0.3,3.9c1.2,5,1.1,5.5,2.1,8.5c1.2,3.6,1.7,3.7,1.8,3.7c0.4,0,0.6-0.9,1.2-3.7
	c0.6-2.7,1.1-5.5,1.8-8.2c0.7-2.7,1.2-3.6,0.6-4.2c-0.6-0.6-1.6,0-4.3,0C229.6,325.4,228.8,325,228.2,325.5z"/>
<path class="st13" d="M208.2,394.7c0,0,26.2,13,40.7,11.3c2.3-0.3,2.9,9.3,2.9,9.3s-20.9,2.3-23.4,4.9c-1.3,1.4-11.9-14.4-25.5-16.5
	C200.5,403.4,208.2,394.7,208.2,394.7z"/>
<circle class="st14" cx="232.2" cy="388.4" r="0.5"/>
<path class="st5" d="M358.5,422.6c0,0,3.1,42.9,2.1,44.7c-0.9,1.8,3.3,42.4,2.4,48.9c-0.8,5.5-0.2,11.9,0,12.4s26.3,5,30.2-1.1
	c3.9-6.1-14.1-8.9-20.5-12.5c-3.2-1.8,4.3-50.3,1.7-55.6l1.1-43.7l-3.4-33.4l2.9-28.7l6.2,27.1c0,0,2.4,29,3.9,34.1
	c1.1,3.9-1.9,15.3-1.9,15.3s4.3,12.3,8.6,10.9c4.3-1.4,3.4-21.2,3.4-21.2l-3.8-6.5c0,0,0.2-32.1-3-33.6c-3.2-1.6,0.4-45.1-11.6-45.5
	c-12-0.4-35.5,0-35.5,0s-8.6,0.9-10.9,29.3c-1.8,22.1-7.7,34.6-5.4,50.5c0,0-12.1,17.4-0.5,26.9c11.6,9.5,6.5-26,6.5-26
	s7.3-31.8,4.9-34.3c-2.4-2.6,5.3-23.5,5.3-23.5s1.7,22.9,1.8,25.1c0.1,2.4-5.8,27.5-3.5,40s4.3,47.5,4.3,47.5s-0.8,36.6,1.5,43.1
	c2.3,6.5-24.6,4.4-22.2,12.3c2.4,7.9,31.7,3.7,31.7,3.7l-1.1-13.6c0,0,6.8-46.1,3.7-49.7C354.4,461.7,358.5,422.6,358.5,422.6z"/>
<path class="st15" d="M341.9,364.1l32.1,0.3c0,0,2.4-17.5,1-19.6c-1.4-2.1-4.8-11.2-4.8-11.2h-2.1c0,0,3.5,8,1.8,10.9
	s-13.4,12.4-11.7,17.5s-0.2-8.2-11.9-17.3c-2.9-2.2,3.2-11.2,3.2-11.2h-2.8l-6.9,11.9L341.9,364.1z"/>
<path class="st16" d="M219.1,309.6c0,0,1.5,2.6,2.2,3.6c0.7,1.1,2.3,3.6,5.1,5.1c3.4,1.9,7.7,1.6,10.9,0c2.5-1.2,3.9-3.1,4.3-3.6
	c1.6-2,2.9-5.1,2.9-5.1l0,0H219.1L219.1,309.6z"/>
<path class="st17" d="M223.5,314c0.1-0.5,0.6-0.9,1.4-1.4c1.2-0.8,2.6-1.2,4.3-1.4c1.7-0.2,6.2-0.5,10.1,2.2
	c0.3,0.2,0.7,0.4,0.7,0.7c0.3,1.4-4.2,4.4-8.7,4.3C227.4,318.2,223.3,315.6,223.5,314z"/>
<path class="st18" d="M222,311.9c6.5,0,13,0,19.6,0c0-0.7,0-1.4,0-2.2H222C222,310.5,222,311.2,222,311.9z"/>
<polygon class="st15" points="358.4,422.2 374.8,407.3 373.6,396.1 340.9,396.1 339.4,408.2 "/>
<circle class="st14" cx="358.6" cy="384.1" r="0.4"/>
<line class="st19" x1="517.2" y1="438.1" x2="477.6" y2="497.1"/>
<path class="st20" d="M456.3,424.4l100.2,51.7c0,0,26.6-65.9-6.7-84.5C521.6,375.7,468.1,390.9,456.3,424.4z"/>
<path class="st21" d="M139.8,143.9c0,0,4.6-28.9,23.5-13c0,0-3-29.6,23.6-12.3"/>
<circle class="st13" cx="511.4" cy="60.6" r="39.5"/>
</svg>
