<svg id="Lag_1" data-name="Lag 1" xmlns="http://www.w3.org/2000/svg" viewBox="0 0 100 100"><defs><style>.cls-1{fill:#def9ff;}.cls-2{fill:#ddb25b;}.cls-3{fill:#89cce5;}.cls-4{fill:#eaac41;}.cls-5{fill:#c07d08;}.cls-6{fill:#fcba83;}.cls-7{fill:#333;}.cls-8{fill:#edb143;}.cls-9{fill:#552e0f;}.cls-10{fill:#2f1a09;}.cls-11{fill:#f9be93;}.cls-12{fill:#5a3312;}.cls-13,.cls-22{fill:none;}.cls-13{stroke:#2f1a09;}.cls-13,.cls-20,.cls-22{stroke-miterlimit:10;stroke-width:0.5px;}.cls-14{fill:#f4912d;}.cls-15{fill:#070606;}.cls-16{fill:#e20e23;}.cls-17{fill:#962d69;}.cls-18{fill:#72263c;}.cls-19{fill:#fff;}.cls-20{fill:#f7ebed;stroke:#efe6df;}.cls-21{fill:#f90d94;}.cls-22{stroke:#020202;}</style></defs><title>Tegnebræt 1</title><rect class="cls-1" x="-0.02" width="99.95" height="54.76"/><polyline class="cls-2" points="0.09 75.76 99.97 75.76 99.97 100 0.09 100"/><polyline class="cls-3" points="0.01 54.79 99.96 54.79 99.96 75.82 0.01 75.82"/><path class="cls-4" d="M60.76,61.61c-.11,0,0-.49,0-1.52a5.76,5.76,0,0,0-.11-1.17c-.18-.79-.48-1.08-.33-1.29s.61-.13.89,0a1.38,1.38,0,0,1,.67.82c0,.15.13.52-.22,1.52C61.39,60.7,60.92,61.67,60.76,61.61Z"/><path class="cls-4" d="M57.64,46.27a4.72,4.72,0,0,0-1.78.47A5.3,5.3,0,0,0,53.41,49a6.52,6.52,0,0,0-.61,3.34c0,1.66,0,2.8.67,4a5.18,5.18,0,0,0,3.45,2.35,5,5,0,0,0,3.23-.59,5.22,5.22,0,0,0,1.78-1.64,6.84,6.84,0,0,0,.89-3.52,7.81,7.81,0,0,0-.11-2.46,5.69,5.69,0,0,0-.78-2A4.93,4.93,0,0,0,57.64,46.27Z"/><path class="cls-5" d="M54.25,52.19a3.14,3.14,0,0,0-.33,1.17,4.66,4.66,0,0,0,.45,3.28,3.85,3.85,0,0,0,2.34,1.64,4.11,4.11,0,0,0,3-.35,4.06,4.06,0,0,0,1.78-1.88,3.93,3.93,0,0,0,0-3.4A3.12,3.12,0,0,0,60,51.48C58.12,50.55,55.19,50.57,54.25,52.19Z"/><path class="cls-6" d="M54.58,49.37a3.69,3.69,0,0,0-.28.41c-.45.78-.22,2.17-.17,3.81a8.4,8.4,0,0,0,.06,1.7,4,4,0,0,0,1.56,2.23,3.52,3.52,0,0,0,3.84.06,4,4,0,0,0,1.56-2.23,5,5,0,0,0,.11-1.06c.18-3.42,0-3.88-.11-4.22a3.55,3.55,0,0,0-1.22-1.41,4.38,4.38,0,0,0-4.56,0A3.76,3.76,0,0,0,54.58,49.37Z"/><path class="cls-7" d="M55,52.19s.12-.23.33-.35a.92.92,0,0,1,.89,0c.22.12.35.33.33.35a2.93,2.93,0,0,0-.45-.23,1.16,1.16,0,0,0-.67,0A2.93,2.93,0,0,0,55,52.19Z"/><path class="cls-7" d="M58.92,52.19s.12-.23.33-.35a.92.92,0,0,1,.89,0c.22.12.35.33.33.35A2.93,2.93,0,0,0,60,52a1.16,1.16,0,0,0-.67,0A2.93,2.93,0,0,0,58.92,52.19Z"/><ellipse class="cls-7" cx="55.97" cy="53.07" rx="0.39" ry="0.41"/><ellipse class="cls-7" cx="59.53" cy="53.07" rx="0.39" ry="0.41"/><path class="cls-6" d="M57,57.78c-.1.1,0,.28.06.74a15.19,15.19,0,0,0,.39,1.62c.23.69.3.71.33.7s.11-.18.22-.7.2-1,.33-1.56.21-.69.11-.79-.28,0-.78,0S57.13,57.68,57,57.78Z"/><path class="cls-8" d="M53.58,48.79c-.09.52.75,1.09,1.22,1.41a5.31,5.31,0,0,0,2.67,1.17s1.95.15,4.12-2.11c.11-.12.39-.4.33-.7a.51.51,0,0,0-.11-.23,5.49,5.49,0,0,0-3.9-2,5.73,5.73,0,0,0-4.23,2.23A.52.52,0,0,0,53.58,48.79Z"/><path class="cls-9" d="M34.1,46.73a4.07,4.07,0,0,0-1.94,1.08,4.52,4.52,0,0,0-1,2.59,29.06,29.06,0,0,0-.11,4c-.08,2.2-.34,2.74,0,4a4.32,4.32,0,0,0,.86,1.84,5,5,0,0,0,3.89,1.4,4.81,4.81,0,0,0,3.35-1,4.48,4.48,0,0,0,1.3-2.16c.4-1.24.12-1.69.11-4.1s.28-3-.11-4.43a4.69,4.69,0,0,0-1.08-2.16,4.54,4.54,0,0,0-2.48-1.19A5.81,5.81,0,0,0,34.1,46.73Z"/><path class="cls-10" d="M32.27,51.48c-.15.28-.07.33-.11,1.84,0,2.08-.22,2.84-.11,4.64a3.7,3.7,0,0,0,.43,1.84A3.3,3.3,0,0,0,33.78,61a4.27,4.27,0,0,0,4.43-.11,3.56,3.56,0,0,0,1.19-1.51,4.1,4.1,0,0,0,.22-1.73c0-1.7-.15-2.49-.22-3.78-.1-2,.13-2.08-.11-2.48C38.22,49.56,33.29,49.6,32.27,51.48Z"/><path class="cls-11" d="M32.7,49.32a3.4,3.4,0,0,0-.27.38c-.43.72-.22,2-.16,3.51a7.35,7.35,0,0,0,.05,1.57,3.75,3.75,0,0,0,1.51,2.05,3.57,3.57,0,0,0,3.73.05,3.74,3.74,0,0,0,1.51-2.05,4.37,4.37,0,0,0,.11-1c.18-3.15,0-3.57-.11-3.89a3.34,3.34,0,0,0-1.19-1.3,4.44,4.44,0,0,0-4.43,0A3.58,3.58,0,0,0,32.7,49.32Z"/><path class="cls-7" d="M33.13,51.91s.11-.21.32-.32a.93.93,0,0,1,.86,0c.21.11.34.3.32.32a2.89,2.89,0,0,0-.43-.22,1.18,1.18,0,0,0-.65,0A2.89,2.89,0,0,0,33.13,51.91Z"/><path class="cls-7" d="M36.91,51.91s.11-.21.32-.32a.93.93,0,0,1,.86,0c.21.11.34.3.32.32A2.89,2.89,0,0,0,38,51.7a1.18,1.18,0,0,0-.65,0A2.89,2.89,0,0,0,36.91,51.91Z"/><circle class="cls-7" cx="34.05" cy="52.72" r="0.38"/><circle class="cls-7" cx="37.51" cy="52.72" r="0.38"/><path class="cls-12" d="M31.08,51.37c.11.35,1.5.34,2.59-.11a3,3,0,0,0,1.4-1c.44-.6.43-1.19.65-1.19s.25.62.76,1.3a3.61,3.61,0,0,0,1,.86c1.24.73,3.05.56,3.24,0a.42.42,0,0,0,0-.22,6.82,6.82,0,0,0-.32-1.51,4.58,4.58,0,0,0-.86-1.62,4,4,0,0,0-1.73-1.08,5.57,5.57,0,0,0-2.16-.32,4.92,4.92,0,0,0-2.16.43A3.56,3.56,0,0,0,32.05,48a4.26,4.26,0,0,0-.65,1.4c0,.1-.09.39-.22,1,0,0,0,.22-.11.86A.25.25,0,0,0,31.08,51.37Z"/><path class="cls-13" d="M56.35,55.86a2.82,2.82,0,0,0,.75.4,2.25,2.25,0,0,0,1.32.1,2.08,2.08,0,0,0,.66-.3"/><path class="cls-11" d="M36.7,58l2.12.76,4.11,5s-3.18,4.75-3.65,5,.61.67.53,1.5c0,.24.68.22.68.33s-.78.37-1.13.15a4.44,4.44,0,0,1-.8-.78l4.2,21.25.83,1.31,2,.52,0,1.66-4.67-.85a12.49,12.49,0,0,1,.22-2.61c.21-.31-3.74-7.77-3.2-10,.31-1.27-2.76-7.08-2.84-7.3L34,81.15v10l.31,2.19-.09,1.36H32.44V91L30.25,71.5s2.06-3.45,3.1-4-1-4.59-1-4.59-1.27,4.11-1.79,4-2.27-4.42-2-7.08c0,0-1.27-.35-.44-1.62,0,0-.61-1.14-.28-1.4s.68,1.14.68,1.14.09-1,.26-1.17.22,1.13.22,1.13.74,1,.44,1.57,1.09,4.07,1.09,4.07.62-4.79,2.89-5.07l1-.57Z"/><path class="cls-3" d="M38.69,68l2.53-4.27-2-2.23a5.9,5.9,0,0,1-.34,2.62A13.09,13.09,0,0,0,38.69,68Z"/><path class="cls-14" d="M33.14,64.68s1.79-.94,5.61.07a3.49,3.49,0,0,0-.34-4.44l-.08-1.72-.53-.19.12,2.2L36.32,63l-.74,0L33.88,60.8l-.07-2.47-.47.2V60.6a6.83,6.83,0,0,0-1,2.31A4.55,4.55,0,0,0,33.14,64.68Z"/><path class="cls-11" d="M35.08,57.3c-.1.09,0,.26.05.68a13.4,13.4,0,0,0,.38,1.49c.22.63.3.65.32.65s.11-.16.22-.65.2-1,.32-1.44.21-.64.11-.73-.27,0-.76,0S35.18,57.21,35.08,57.3Z"/><path class="cls-14" d="M31.55,69.5s4.62,2.29,7.16,2c.4,0,.5,1.63.5,1.63s-3.67.41-4.11.87c-.23.24-2.1-2.54-4.5-2.9C30.21,71,31.55,69.5,31.55,69.5Z"/><circle class="cls-15" cx="35.77" cy="68.38" r="0.08"/><path class="cls-6" d="M58,74.4s.54,7.56.38,7.87.58,7.46.43,8.6a8.7,8.7,0,0,0,0,2.18c0,.09,4.63.89,5.32-.19s-2.48-1.57-3.6-2.19c-.56-.31.76-8.85.3-9.79l.2-7.69-.61-5.88.51-5.06L62,67s.43,5.1.69,6a8.59,8.59,0,0,1-.33,2.7s.76,2.16,1.52,1.92.6-3.73.6-3.73l-.66-1.15s0-5.64-.53-5.92.07-7.94-2-8-6.25,0-6.25,0S53.51,59,53.1,64c-.32,3.89-1.36,6.1-1,8.88,0,0-2.13,3.07-.09,4.74S53.2,73,53.2,73s1.29-5.59.86-6,.93-4.15.93-4.15.3,4,.32,4.42-1,4.84-.62,7,.76,8.36.76,8.36-.13,6.44.26,7.59-4.33.77-3.9,2.16S57.4,93,57.4,93l-.2-2.39s1.19-8.12.65-8.74S58,74.4,58,74.4Z"/><path class="cls-16" d="M55.09,64.1l5.65,0s.42-3.08.18-3.45a20.33,20.33,0,0,1-.85-2H59.7s.62,1.41.31,1.93S57.65,62.84,58,63.73s0-1.44-2.1-3c-.5-.39.56-2,.56-2h-.49l-1.21,2.1Z"/><path class="cls-17" d="M33.48,54.52s.26.45.38.64a2.58,2.58,0,0,0,.89.89,2.14,2.14,0,0,0,1.91,0,2.27,2.27,0,0,0,.77-.64,5.05,5.05,0,0,0,.51-.89H33.48Z"/><path class="cls-18" d="M34.25,55.27c0-.09.1-.15.26-.26a1.61,1.61,0,0,1,.77-.26,2.71,2.71,0,0,1,1.79.38c.06,0,.12.07.13.13,0,.25-.74.78-1.53.77S34.21,55.56,34.25,55.27Z"/><path class="cls-19" d="M34,54.92h3.44v-.38H34Z"/><polygon class="cls-16" points="58 74.33 60.89 71.7 60.68 69.73 54.91 69.73 54.65 71.87 58 74.33"/><circle class="cls-15" cx="58.04" cy="67.63" r="0.07"/><line class="cls-20" x1="85.95" y1="77.14" x2="78.99" y2="87.51"/><path class="cls-21" d="M75.23,74.72l17.64,9.1s4.68-11.6-1.18-14.88C86.73,66.15,77.32,68.83,75.23,74.72Z"/><path class="cls-22" d="M19.22,21.91s1.28-8,6.54-3.61c0,0-.84-8.24,6.57-3.42"/><circle class="cls-14" cx="84.94" cy="10.68" r="6.96"/></svg>