<?xml version="1.0" encoding="utf-8"?>
<!-- Generator: Adobe Illustrator 21.1.0, SVG Export Plug-In . SVG Version: 6.00 Build 0)  -->
<svg version="1.1" id="Layer_1" xmlns="http://www.w3.org/2000/svg" xmlns:xlink="http://www.w3.org/1999/xlink" x="0px" y="0px"
	 viewBox="0 0 468.2 53.7" style="enable-background:new 0 0 468.2 53.7;" xml:space="preserve">
<style type="text/css">
	.st0{fill:none;}
	.st1{font-family:'FuturaPT-Book';}
	.st2{font-size:18px;}
</style>
<title>toilet</title>
<g id="Layer_2">
	<g id="Layer_1-2">
		<rect x="0" y="1.8" class="st0" width="468.1" height="51.9"/>
		<g id="Layer_2-2">
			<g id="Layer_1-2-2">
				<rect y="1.8" class="st0" width="468.2" height="50.4"/>
				<g>
					<text transform="matrix(1 0 0 1 3.002930e-02 15)" class="st1 st2">#li</text>
					<text transform="matrix(1 0 0 1 18.32 15)" class="st1 st2">k</text>
					<text transform="matrix(1 0 0 1 25.73 15)" class="st1 st2">e4li</text>
					<text transform="matrix(1 0 0 1 52.1 15)" class="st1 st2">k</text>
					<text transform="matrix(1 0 0 1 59.52 15)" class="st1 st2">e #friends #nofilter #pictu</text>
					<text transform="matrix(1 0 0 1 240.56 15)" class="st1 st2">r</text>
					<text transform="matrix(1 0 0 1 245.45 15)" class="st1 st2">e #squad #8bpåtur</text>
				</g>
				<g>
					<text transform="matrix(1 0 0 1 3.002930e-02 36.6)" class="st1 st2">#follow4follow #hahaha #b</text>
					<text transform="matrix(1 0 0 1 200.18 36.6)" class="st1 st2">f</text>
					<text transform="matrix(1 0 0 1 204.86 36.6)" class="st1 st2">f #rejsevennerne #os2altid</text>
				</g>
			</g>
		</g>
	</g>
</g>
</svg>
