<?xml version="1.0" encoding="utf-8"?>
<!-- Generator: Adobe Illustrator 21.1.0, SVG Export Plug-In . SVG Version: 6.00 Build 0)  -->
<svg version="1.1" id="Layer_1" xmlns="http://www.w3.org/2000/svg" xmlns:xlink="http://www.w3.org/1999/xlink" x="0px" y="0px"
	 viewBox="0 0 670 610" style="enable-background:new 0 0 670 610;" xml:space="preserve">
<style type="text/css">
	.st0{fill:#E9ECED;}
	.st1{fill:#757575;}
	.st2{fill:#6D6769;}
	.st3{fill:#202532;}
	.st4{fill:#06C918;}
	.st5{fill:#E50A15;}
	.st6{fill:#EFEF45;}
	.st7{fill:#350FD3;}
	.st8{fill:#312ABC;}
	.st9{fill:#37A537;}
	.st10{fill:#E81F33;}
	.st11{fill:#FEEE95;}
	.st12{fill:#FAD9B0;}
	.st13{fill:#F4912D;}
	.st14{fill:#F2C89C;}
	.st15{fill:#191D26;}
	.st16{fill:#B4DCA7;}
	.st17{fill:#C46E2D;}
	.st18{fill:#EAAC41;}
	.st19{fill:#C07D08;}
	.st20{fill:#FECDA4;}
	.st21{fill:#333333;}
	.st22{fill:#962D69;}
	.st23{fill:#72263C;}
	.st24{fill:#FFFFFF;}
	.st25{fill:#EDB143;}
	.st26{fill:#FFC79F;}
	.st27{fill:#D17A2C;}
	.st28{fill:#72665E;}
	.st29{fill:#B19E8F;}
	.st30{fill:#73B5C9;}
	.st31{fill:#89CCE5;}
	.st32{fill:#F2B186;}
	.st33{fill:#A92D2B;}
	.st34{fill:#952819;}
	.st35{fill:#C95B6E;}
	.st36{fill:#F5F7F7;}
</style>
<g>
	<path class="st0" d="M29.9,586.5c-5.2,0-9.5-4.3-9.5-9.5V33c0-5.2,4.3-9.5,9.5-9.5h614.8c5.2,0,9.5,4.3,9.5,9.5v544
		c0,5.2-4.3,9.5-9.5,9.5H29.9z"/>
	<path class="st0" d="M644.7,26c3.9,0,7,3.1,7,7v544c0,3.9-3.1,7-7,7H29.9c-3.9,0-7-3.1-7-7V33c0-3.9,3.1-7,7-7L644.7,26 M644.7,21
		H29.9c-6.6,0-12,5.4-12,12v544c0,6.6,5.4,12,12,12h614.8c6.6,0,12-5.4,12-12V33C656.7,26.4,651.3,21,644.7,21L644.7,21z"/>
</g>
<g>
	<path class="st1" d="M29.9,588.4c-5.2,0-9.5-1.1-9.5-2.4V447.3c0-1.3,4.3-2.4,9.5-2.4h614.8c5.2,0,9.5,1.1,9.5,2.4v138.7
		c0,1.3-4.3,2.4-9.5,2.4H29.9z"/>
	<path class="st1" d="M644.7,445.5c3.9,0,7,0.8,7,1.8v138.7c0,1-3.1,1.8-7,1.8H29.9c-3.9,0-7-0.8-7-1.8V447.3c0-1,3.1-1.8,7-1.8
		H644.7 M644.7,444.2H29.9c-6.6,0-12,1.4-12,3.1v138.7c0,1.7,5.4,3.1,12,3.1h614.8c6.6,0,12-1.4,12-3.1V447.3
		C656.7,445.6,651.3,444.2,644.7,444.2L644.7,444.2z"/>
</g>
<g>
	<path class="st2" d="M432.3,414.8"/>
	<path class="st2" d="M361.5,394.4"/>
	<rect x="354.4" y="382.1" class="st3" width="117.3" height="5.6"/>
	<path class="st2" d="M476.9,384H345.6c-2.3,0-4.2-1.9-4.2-4.2v-3.8c0-2.3,1.9-4.2,4.2-4.2h131.2c2.3,0,4.2,1.9,4.2,4.2v3.8
		C481.1,382.1,479.2,384,476.9,384z"/>
	<polygon class="st2" points="361.5,387.6 350.6,447.3 358.8,447.3 379.1,387.6 	"/>
	<polygon class="st2" points="464.7,387.6 475.6,447.3 467.3,447.3 447,387.6 	"/>
	<rect x="368.2" y="363.2" class="st4" width="8.5" height="8.5"/>
	<rect x="372.6" y="356" class="st5" width="8.5" height="8.5"/>
	<rect x="369.7" y="347.8" class="st6" width="8.5" height="8.5"/>
	<rect x="379.1" y="364.4" class="st7" width="8.5" height="8.5"/>

		<rect x="403" y="363.2" transform="matrix(3.701166e-02 0.9993 -0.9993 3.701166e-02 759.3907 -53.1439)" class="st8" width="8.5" height="8.5"/>

		<rect x="408.5" y="355.8" transform="matrix(0.7071 -0.7071 0.7071 0.7071 -133.7302 397.2924)" class="st9" width="8.5" height="8.5"/>

		<rect x="414.9" y="363.2" transform="matrix(3.701166e-02 0.9993 -0.9993 3.701166e-02 770.7986 -64.982)" class="st10" width="8.5" height="8.5"/>
	<path class="st11" d="M72,250.8v27c0,0,6.5,6.7,11.8,6.7s12.2-6.7,12.2-6.7l-0.8-27H72z"/>
	<polygon class="st12" points="324.7,421 325.7,479.8 334.1,480.4 338.4,422 	"/>
	<polyline class="st3" points="350.3,375.7 347.1,430.3 323.8,428.1 322.7,370.2 350.3,374.2 	"/>
	<path class="st13" d="M276.5,361.8c0,0,46.6,38.1,88,4.6c0,0-10.2-34.6-8.6-36.7c1.5-2.1-10.9-57.7-10.9-57.7l-8.7-2.6l-21,4
		l-29.3,5.6c0,0,6.1,44.5,3.4,47.8S276.5,361.8,276.5,361.8z"/>
	<path class="st13" d="M338.3,277.7c0,0,17,0,26,4.9c9,4.9,20.4,25.3,20.4,25.3s6.5,11.9,5.7,15.5c-0.8,3.7-11.4,7.8-14.7,9.4
		s-22.9,7.8-22.9,7.8l-11.9,2.9l-4.9-10.6l21.6-7.5l16-5.6l-14.7-11.2l-11-10.1L338.3,277.7z"/>
	<polygon class="st14" points="309.4,419.9 314.7,478.5 323.2,478.5 323.2,419.9 	"/>
	<polyline class="st15" points="298.2,376.4 301.4,430.9 324.7,428.8 325.8,370.8 298.2,374.8 	"/>
	<path class="st16" d="M329.5,415.7"/>
	<path class="st17" d="M315.2,273.4l7.3,106.8c0,0-40.6-5.3-46-18.4c0,0,9.5-36.1,12.8-35s-3.4-47.8-3.4-47.8L315.2,273.4z"/>
	<path class="st18" d="M359.7,278.3c2.9-8.8,0.9-12,0.8-29.2c-0.1-17.6,2-21.1-0.8-31.5c-2.7-10.1-6.7-14.3-7.7-15.3
		c-5.9-6-13.2-7.5-17.7-8.4c-10-2.1-17.9,0.1-20,0.8c-3.8,1.2-9.3,2.8-13.8,7.7c-2.2,2.3-5,6.4-6.9,18.4
		c-1.8,11.1-0.2,13.1-0.8,28.4c-0.6,15.6-2.5,19.4,0,28.4"/>
	<path class="st19" d="M352.1,284.5c1.4-3.6,1.6-6.6,1.5-12.3c-0.1-12.1-1.1-17.7-1.5-26.9c-0.7-14.5,0.9-14.7-0.8-17.7
		c-7.6-12.9-42.7-12.6-49.9,0.8c-1.1,2-0.5,2.3-0.8,13c-0.4,14.7-1.6,20.2-0.8,33"/>
	<path class="st20" d="M305.3,211.6c0,0-1.1,1.3-1.9,2.7c-3.1,5.1-1.5,14.2-1.2,24.9c0.3,8.4-0.4,8.1,0.4,11.1
		c2.5,9.2,10,14.1,10.7,14.6c7.7,4.8,18.3,5.5,26.5,0.4c0.5-0.3,8.2-5.3,10.7-14.6c0.4-1.6,0.5-2.6,0.8-6.9
		c1.3-22.4,0.3-25.4-0.8-27.6c-2.6-5.2-6.7-8-8.4-9.2c-12.6-8.4-27.8-2.3-31.5,0C307.4,209,305.3,211.6,305.3,211.6z"/>
	<path class="st21" d="M308.3,230c-0.1-0.2,0.8-1.5,2.3-2.3c1.9-1,4.3-1,6.1,0c1.5,0.8,2.4,2.2,2.3,2.3c-0.1,0.1-1.2-1-3.1-1.5
		c-2.2-0.7-4.2-0.1-4.6,0C309.5,229,308.5,230.1,308.3,230z"/>
	<path class="st21" d="M335.2,230c-0.1-0.2,0.8-1.5,2.3-2.3c1.9-1,4.3-1,6.1,0c1.5,0.8,2.4,2.2,2.3,2.3c-0.1,0.1-1.2-1-3.1-1.5
		c-2.2-0.7-4.2-0.1-4.6,0C336.4,229,335.3,230.1,335.2,230z"/>
	<circle class="st21" cx="314.9" cy="235.8" r="2.7"/>
	<circle class="st21" cx="339.4" cy="235.8" r="2.7"/>
	<path class="st22" d="M312.6,248c0,0,1.5,2.6,2.2,3.6c0.7,1.1,2.4,3.6,5.1,5.1c3.5,1.9,7.8,1.6,10.9,0c2.5-1.2,4-3.1,4.4-3.6
		c1.6-2,2.9-5.1,2.9-5.1l0,0H312.6L312.6,248z"/>
	<path class="st23" d="M317,253.8c0.1-0.5,0.6-0.9,1.5-1.5c1.2-0.8,2.6-1.3,4.4-1.5c1.7-0.2,6.3-0.5,10.2,2.2
		c0.3,0.2,0.7,0.4,0.7,0.7c0.3,1.4-4.2,4.5-8.8,4.4C320.9,258.1,316.8,255.5,317,253.8z"/>
	<path class="st24" d="M315.5,250.2c6.6,0,13.1,0,19.7,0c0-0.7,0-1.5,0-2.2h-19.7C315.5,248.7,315.5,249.5,315.5,250.2z"/>
	<path class="st20" d="M323.4,275.7c0.7-2.7,1.2-3.6,0.6-4.2c-0.6-0.6-1.6,0-4.3,0c-2.3,0-3.1-0.5-3.7,0c-0.6,0.5-0.3,1.5,0.3,3.9"
		/>
	<path class="st25" d="M293,227.7c0.8,2.5,10.6,2.4,18.4-0.8c2.9-1.2,7-2.8,10-6.9c3.1-4.2,3.1-8.4,4.6-8.4c1.6,0,1.8,4.4,5.4,9.2
		c0.2,0.3,2.8,3.7,6.9,6.1c8.8,5.2,21.7,3.9,23,0c0.2-0.4,0.1-0.8,0-1.5c-0.8-5.1-1.1-7.7-2.3-10.7c-1.8-4.7-3-8.1-6.1-11.5
		c-4.2-4.7-9.1-6.5-12.3-7.7c-6.6-2.4-12.1-2.4-15.3-2.3c-4,0.1-9.3,0.2-15.3,3.1c-2.5,1.2-6.6,3.2-10,7.7c-2.7,3.6-3.8,7.3-4.6,10
		c-0.2,0.7-0.7,2.8-1.5,6.9c0,0-0.3,1.5-0.8,6.1C292.9,227.4,292.9,227.5,293,227.7z"/>
	<path class="st26" d="M358.5,308.6c0,0,1.2-2.2,2.6-2.2c0,0,0.4-4.7,1.4-4.7c1,0,0.7,4.2,0.7,4.2s4.9-3.4,5.7-2.5
		c0.8,0.9-4.6,3.2-4.6,3.2l4.7-1.5c0,0,1.3,0.6,0.6,1.1c-0.7,0.5-4.8,1.8-4.8,1.8s5-0.9,5-0.7c0,0.2,0.9,0.5,0.5,0.7
		c-0.5,0.2-5,0.8-5,0.8s3.7,0.1,3.7,0.6s-0.2,0.9-0.5,1c-0.2,0.2-3.5,0-3.5,0s-2.1,1.1-3.8,1.1C359.4,311.5,358.5,308.6,358.5,308.6
		z"/>
	<path class="st26" d="M345.2,337.2c0,0-20.4-4.1-20.2-2c0.2,2,13.7,4.3,13.7,4.3s-13.3-1.8-13.7,0c-0.4,1.8,12.1,1.8,12.1,1.8
		s-12.7,2-10.8,2.9c1.8,0.8,9-1,9-1s-5.2,2.5-4.3,3.3c1,0.8,12.4-4.5,12.4-4.5v-6.1L345.2,337.2z"/>
	<path class="st26" d="M301.4,343.7c0,0,20.4-4.1,20.2-2c-0.2,2-13.7,4.3-13.7,4.3s13.3-1.8,13.7,0c0.4,1.8-12.1,1.8-12.1,1.8
		s12.7,2,10.8,2.9c-1.8,0.8-9-1-9-1s5.2,2.5,4.3,3.3c-1,0.8-12.4-4.5-12.4-4.5v-6.1L301.4,343.7z"/>
	<path class="st27" d="M313.3,275.9c0,0-17,0-26,4.9s-20.4,25.3-20.4,25.3s-6.5,11.9-5.7,15.5c0.8,3.7,11.4,7.8,14.7,9.4
		c3.3,1.6,22.9,7.8,22.9,7.8l11.9,2.9l4.9-10.6l-21.6-7.5l-16-5.6l15.9-9.2L313.3,275.9z"/>
	<ellipse class="st28" cx="315.1" cy="479.7" rx="9.6" ry="2.5"/>
	<ellipse class="st29" cx="334.7" cy="479.7" rx="9.6" ry="2.5"/>
	<path class="st30" d="M318.2,311.8l10.1,42.9l-6.1,2.6c0,0,7.5,25.7,4.6,28.9c0,0-6.6,7.1-8.6,6.3s-9.7,0.3,2.1-6.3
		c0,0-12.4-6.7-13.5-10.3c-1-3.7-8.4-43.4-5.4-43.7c3-0.2-3.9-2-7.2-1.5s-16.5,1.9-16.5,1.9v-8.1h13.9c0,0,11.6-17.4,20.5-9.4
		L318.2,311.8z"/>
	<path class="st26" d="M279.9,328c0,0-1.2-2.2-2.6-2.2c0,0-0.4-4.7-1.4-4.7c-1,0-0.7,4.2-0.7,4.2s-4.9-3.4-5.7-2.5
		c-0.8,0.9,4.6,3.2,4.6,3.2l-4.7-1.5c0,0-1.3,0.6-0.6,1.1c0.7,0.5,4.8,1.8,4.8,1.8s-5-0.9-5-0.7c0,0.2-0.9,0.5-0.5,0.7
		c0.5,0.2,5,0.8,5,0.8s-3.7,0.1-3.7,0.6s0.2,0.9,0.5,1s3.5,0,3.5,0s2.1,1.1,3.8,1.1S279.9,328,279.9,328z"/>
	<path class="st31" d="M315.9,312.7l11.4,42.5l6.6-0.5c0,0,5.5,26.2,9.6,27.7c0,0,9.2,3.1,10.6,1.5s8.7-4.3-4.9-4.5
		c0,0,7.8-11.7,7-15.5c-0.8-3.7-13.1-42.3-15.8-41.1c-2.8,1.2,2.5-3.6,5.6-4.7s15.5-6.1,15.5-6.1l-3.8-7.1l-12.3,6.6
		c0,0-18.5-9.9-22.5,1.4L315.9,312.7z"/>
	<path class="st26" d="M314.7,320.5l-2.9-8.4c0,0-20.9,3.1-27-14.9c-6.1-18,0,2.5,0,2.5l7-15.5l4.1,4.1l9-9l1.2,4.9l12.7-4.9
		l2.9,4.9l2-4.9l16.4,6.5v6.5c0,0-4.1,18.4-14.7,19.8v8.4C325.4,320.5,319.2,325.4,314.7,320.5z"/>
	<circle class="st21" cx="299.4" cy="291.7" r="1.9"/>
	<circle class="st21" cx="319" cy="290.5" r="1.9"/>
	<path class="st32" d="M306.8,302.8l11.5-0.8c0,0-1.1,3.7-2.5,3.7c0,0-5.6,1.5-6.4,0.6S306.8,302.8,306.8,302.8z"/>
	<path class="st26" d="M350.4,332.1c0,0-18.6-3.9-18.4-1.9c0.2,2,13.7,4.3,13.7,4.3s-13.3-1.8-13.7,0c-0.4,1.8,12.1,1.8,12.1,1.8
		s-12.7,2-10.8,2.9s9-1,9-1s-5.2,2.5-4.3,3.3c1,0.8,12.4-4.5,12.4-4.5V332.1L350.4,332.1z"/>
	<path class="st26" d="M299.6,332.3c0,0,18.6-3.7,18.4-1.7c-0.2,2-13.7,4.3-13.7,4.3s13.3-1.8,13.7,0c0.4,1.8-12.1,1.8-12.1,1.8
		s12.7,2,10.8,2.9c-1.8,0.8-9-1-9-1s5.2,2.5,4.3,3.3c-1,0.8-12.4-4.5-12.4-4.5v-5.5V332.3z"/>
	<path class="st33" d="M284.6,298.8l6.4-14.4l4.1,4.1l9-9l1.2,4.9l12.7-4.9l2.9,4.9l2-4.9l16.4,6.5c0,0-2.2-15.3-10.2-17.4
		c-8-2-11.9-4.5-15.1-2.7c0,0,3.5-4.3,4.5-2.9c0,0-8.9-1.2-8.1,1c0,0-18.3-1.4-21.3,4.1c-3.1,5.5-10.1,20.7-4.9,29.2"/>
	<path class="st34" d="M318.4,263.1c0,0-8,1.5-7.7,2.6l-1.4,17.1l-4,1.5l-1.1-4.2l-9.2,8.3l-4.1-4.1l-6.3,15.5c0,0-9.5-23.5,3.2-32
		c0,0,13.3-7.9,21.6-4.2C309.5,263.6,317.9,261.8,318.4,263.1z"/>
	<g>
		<path class="st31" d="M38.7,425.2c0,0-1.8-26.7,6.7-25.5l182.1,0c0,0,9.2,2.4,9.8,6.7c0.1,0.6,0,1.3-0.3,2
			c-2.5,5.5,0.4-1.3,0.4-1.3l-0.4,23.4l-198.6-1.2L38.7,425.2z"/>
		<path class="st28" d="M31.9,448.8h10.4V330.3c0,0-6.1-9-10.4-1.1V448.8z"/>
		<path class="st28" d="M89.6,415.9"/>
		<path class="st28" d="M231.8,447.3h10.4V328.8c0,0-6.1-9-10.4-1.1V447.3z"/>
		<rect x="37.1" y="346.7" class="st28" width="199.9" height="5.2"/>
		<rect x="58" y="349.3" class="st28" width="4.9" height="79.9"/>
		<rect x="78.8" y="349.3" class="st28" width="4.9" height="79.9"/>
		<rect x="100.9" y="349.3" class="st28" width="4.9" height="79.9"/>
		<rect x="121.8" y="349.3" class="st28" width="4.9" height="79.9"/>
		<rect x="144.9" y="349.3" class="st28" width="4.9" height="79.9"/>
		<rect x="166.4" y="349.3" class="st28" width="4.9" height="79.9"/>
		<rect x="188.4" y="349.3" class="st28" width="4.9" height="79.9"/>
		<rect x="210.1" y="349.3" class="st28" width="4.9" height="79.9"/>
		<rect x="37.1" y="426.6" class="st28" width="199.9" height="5.2"/>
	</g>
	<rect x="82" y="257.7" class="st35" width="3.5" height="51.9"/>
	<polygon class="st13" points="53,257.7 114.5,257.7 101,206.8 67.7,206.8 	"/>
	<rect x="547.4" y="394.9" class="st3" width="101.8" height="44.2"/>
	<rect x="547.4" y="377.1" class="st11" width="101.8" height="17.8"/>
	<rect x="547.4" y="358.7" class="st3" width="101.8" height="17.8"/>
	<rect x="547.4" y="341.5" class="st11" width="101.8" height="17.8"/>
	<circle class="st28" cx="598.3" cy="407.8" r="2.5"/>
	<circle class="st28" cx="598.3" cy="386.9" r="2.5"/>
	<circle class="st28" cx="598.3" cy="367.6" r="2.5"/>
	<circle class="st28" cx="598.3" cy="350.4" r="2.5"/>
	<rect x="543.1" y="334.8" class="st28" width="111" height="6.7"/>
	<rect x="558.4" y="439" class="st28" width="11.3" height="11.3"/>
	<rect x="626.3" y="439" class="st28" width="11.3" height="11.3"/>
	<path class="st2" d="M475.4,240h-28.2c-6.6,0-12-5.4-12-12v-32.5c0-6.6,5.4-12,12-12h28.2c6.6,0,12,5.4,12,12V228
		C487.4,234.6,482,240,475.4,240z"/>
	<path class="st36" d="M472.1,236.6h-21.6c-6.6,0-12-5.4-12-12v-25.6c0-6.6,5.4-12,12-12h21.6c6.6,0,12,5.4,12,12v25.6
		C484.1,231.2,478.7,236.6,472.1,236.6z"/>
	<circle class="st2" cx="460.8" cy="212.5" r="1.8"/>
	<path class="st2" d="M460.8,214.2c0,0,1.4,8.3,4,8.6C464.8,222.8,463.5,213.9,460.8,214.2z"/>
	<path class="st2" d="M459.2,211.8c0,0-10-6-10.3-8c-0.3-2.1,0-0.8,0-0.8S457.6,209.3,459.2,211.8z"/>
	<circle class="st2" cx="445.1" cy="201.7" r="0.8"/>
	<circle class="st2" cx="450.5" cy="195.8" r="0.8"/>
	<circle class="st2" cx="476.7" cy="224.5" r="0.8"/>
	<circle class="st2" cx="452.1" cy="230.8" r="0.8"/>
	<circle class="st2" cx="444.2" cy="223.7" r="0.8"/>
	<circle class="st2" cx="476.7" cy="202.5" r="0.8"/>
	<circle class="st2" cx="471.5" cy="195.8" r="0.8"/>
	<circle class="st2" cx="471.5" cy="231.6" r="0.8"/>
</g>
</svg>
