<?xml version="1.0" encoding="utf-8"?>
<!-- Generator: Adobe Illustrator 21.1.0, SVG Export Plug-In . SVG Version: 6.00 Build 0)  -->
<svg version="1.1" id="Lag_1" xmlns="http://www.w3.org/2000/svg" xmlns:xlink="http://www.w3.org/1999/xlink" x="0px" y="0px"
	 viewBox="0 0 719 604" style="enable-background:new 0 0 719 604;" xml:space="preserve">
<style type="text/css">
	.st0{fill:#E9ECED;}
	.st1{fill:#EAAC41;}
	.st2{fill:#C07D08;}
	.st3{fill:#757575;}
	.st4{fill:#6D6769;}
	.st5{fill:#202532;}
	.st6{fill:#06C918;}
	.st7{fill:#E50A15;}
	.st8{fill:#EFEF45;}
	.st9{fill:#350FD3;}
	.st10{fill:#312ABC;}
	.st11{fill:#37A537;}
	.st12{fill:#E81F33;}
	.st13{fill:#FEEE95;}
	.st14{fill:#FAD9B0;}
	.st15{fill:#F4912D;}
	.st16{fill:#F2C89C;}
	.st17{fill:#191D26;}
	.st18{fill:#B4DCA7;}
	.st19{fill:#C46E2D;}
	.st20{fill:#FECDA4;}
	.st21{fill:#333333;}
	.st22{fill:#962D69;}
	.st23{fill:#72263C;}
	.st24{fill:#FFFFFF;}
	.st25{fill:#FFC79F;}
	.st26{fill:#D17A2C;}
	.st27{fill:#72665E;}
	.st28{fill:#B19E8F;}
	.st29{fill:#73B5C9;}
	.st30{fill:#89CCE5;}
	.st31{fill:#F2B186;}
	.st32{fill:#A92D2B;}
	.st33{fill:#952819;}
	.st34{fill:#C95B6E;}
	.st35{fill:#F5F7F7;}
	.st36{fill:#EDB143;}
</style>
<rect x="17.8" y="16" class="st0" width="683.2" height="428.5"/>
<path class="st1" d="M333.1,186.5c-2,0.3-7.6,1.3-12.8,4.3c-8.7,5-12.5,13.5-14,17.1c-3.7,8.7-1.2,10.9-2.3,33.4
	c-0.7,14.6-2.1,19.9,0,30.3c1.2,6.2,3.1,11.2,7,15.5c3.5,3.8,7.2,5.6,10.1,7c3.8,1.8,21.6,9.4,35.7,0.8c4.5-2.8,7.6-6.5,8.5-7.8
	c1.4-1.7,4.2-5.5,6.2-11.6c3-9,1.8-15,1.6-30.3c-0.3-19.7,1.6-21.5-0.8-31.1c-1.5-6-3.1-12.1-8.5-17.9c-8-8.5-18.3-9.9-20.2-10.1
	C339,185.6,335.2,186.2,333.1,186.5z"/>
<path class="st2" d="M334,211.8c-1.6,0.2-6.1,1-10.3,3.3c-7,3.9-10,10.4-11.2,13.2c-3,6.7-1,8.4-1.9,25.8c-0.6,11.2-1.6,15.4,0,23.4
	c1,4.8,2.5,8.7,5.6,12c2.8,3,5.8,4.3,8.1,5.4c3.1,1.4,17.3,7.3,28.7,0.6c3.6-2.1,6.1-5,6.9-6c1.1-1.3,3.3-4.3,5-9
	c2.4-6.9,1.4-11.5,1.2-23.4c-0.2-15.2,1.3-16.6-0.6-24c-1.2-4.6-2.5-9.3-6.9-13.8c-6.4-6.5-14.7-7.6-16.2-7.8
	C338.8,211.1,335.7,211.6,334,211.8z"/>
<rect x="17.8" y="443.6" class="st3" width="683.2" height="143.4"/>
<path class="st4" d="M450.1,416.1"/>
<path class="st4" d="M375.9,394.7"/>
<rect x="368.6" y="381.8" class="st5" width="122.7" height="5.8"/>
<path class="st4" d="M496.9,383.8H359.2c-2.3,0-4.2-1.9-4.2-4.2v-4.4c0-2.3,1.9-4.2,4.2-4.2h137.8c2.3,0,4.2,1.9,4.2,4.2v4.4
	C501.2,381.9,499.3,383.8,496.9,383.8z"/>
<polygon class="st4" points="375.9,387.6 364.5,450 373.1,450 394.4,387.6 "/>
<polygon class="st4" points="484,387.6 495.4,450 486.8,450 465.5,387.6 "/>
<rect x="383" y="362" class="st6" width="8.9" height="8.9"/>
<rect x="387.6" y="354.4" class="st7" width="8.9" height="8.9"/>
<rect x="384.5" y="345.9" class="st8" width="8.9" height="8.9"/>
<rect x="394.4" y="363.3" class="st9" width="8.9" height="8.9"/>
<rect x="419.4" y="362" transform="matrix(3.701166e-02 0.9993 -0.9993 3.701166e-02 774.4037 -70.6788)" class="st10" width="8.9" height="8.9"/>
<rect x="425.1" y="354.3" transform="matrix(0.7071 -0.7071 0.7071 0.7071 -127.8576 408.826)" class="st11" width="8.9" height="8.9"/>
<rect x="431.8" y="362" transform="matrix(3.701166e-02 0.9993 -0.9993 3.701166e-02 786.3441 -83.0696)" class="st12" width="8.9" height="8.9"/>
<path class="st13" d="M72.9,244.3v28.2c0,0,6.8,7.1,12.3,7.1c5.5,0,12.7-7.1,12.7-7.1l-0.9-28.2H72.9z"/>
<polygon class="st14" points="337.4,422.5 338.5,484.1 347.3,484.7 351.8,423.6 "/>
<polyline class="st5" points="364.3,375.1 360.9,432.2 336.5,430 335.4,369.3 364.3,373.5 "/>
<path class="st15" d="M287,360.6c0,0,48.8,39.9,92.1,4.8c0,0-10.6-36.2-9-38.4c1.6-2.2-11.4-60.4-11.4-60.4l-9.1-2.7l-22,4.2
	l-30.7,5.9c0,0,6.4,46.6,3.5,50C297.5,327.3,287,360.6,287,360.6z"/>
<path class="st15" d="M351.6,272.6c0,0,17.8,0,27.2,5.1c9.4,5.1,21.4,26.5,21.4,26.5s6.8,12.4,6,16.3s-12,8.1-15.4,9.8
	c-3.4,1.7-24,8.1-24,8.1l-12.4,3l-5.1-11.1l22.6-7.9l16.8-5.8l-15.4-11.8l-11.6-10.6L351.6,272.6z"/>
<polygon class="st16" points="321.4,421.4 327,482.7 335.9,482.7 335.9,421.4 "/>
<polyline class="st17" points="309.7,375.8 313.1,432.9 337.5,430.7 338.6,370 309.7,374.2 "/>
<path class="st18" d="M342.4,417"/>
<path class="st19" d="M327.5,268l7.6,111.8c0,0-42.5-5.5-48.2-19.3c0,0,9.9-37.8,13.4-36.7s-3.5-50-3.5-50L327.5,268z"/>
<path class="st20" d="M317.1,203.3c0,0-1.1,1.3-2,2.8c-3.2,5.4-1.6,14.9-1.2,26.1c0.3,8.8-0.5,8.5,0.4,11.6
	c2.6,9.6,10.5,14.8,11.2,15.3c8,5.1,19.1,5.7,27.7,0.4c0.5-0.3,8.6-5.5,11.2-15.3c0.4-1.7,0.5-2.8,0.8-7.2
	c1.3-23.5,0.4-26.6-0.8-28.9c-2.7-5.5-7-8.4-8.8-9.6c-13.2-8.8-29.1-2.4-32.9,0C319.4,200.6,317.1,203.3,317.1,203.3z"/>
<path class="st21" d="M320.3,222.6c-0.1-0.2,0.8-1.6,2.4-2.4c2-1.1,4.5-1.1,6.4,0c1.6,0.8,2.5,2.3,2.4,2.4c-0.1,0.2-1.2-1-3.2-1.6
	c-2.3-0.7-4.4-0.1-4.8,0C321.5,221.6,320.4,222.8,320.3,222.6z"/>
<path class="st21" d="M348.4,222.6c-0.1-0.2,0.8-1.6,2.4-2.4c2-1.1,4.5-1.1,6.4,0c1.6,0.8,2.5,2.3,2.4,2.4c-0.1,0.2-1.2-1-3.2-1.6
	c-2.3-0.7-4.4-0.1-4.8,0C349.7,221.6,348.6,222.8,348.4,222.6z"/>
<circle class="st21" cx="327.1" cy="228.6" r="2.8"/>
<circle class="st21" cx="352.8" cy="228.6" r="2.8"/>
<path class="st22" d="M324.8,241.5c0,0,1.6,2.7,2.3,3.8c0.7,1.1,2.5,3.8,5.3,5.3c3.6,2,8.1,1.6,11.5,0c2.6-1.3,4.2-3.3,4.6-3.8
	c1.7-2.1,3.1-5.3,3.1-5.3l0,0H324.8L324.8,241.5z"/>
<path class="st23" d="M329.4,247.6c0.1-0.6,0.6-0.9,1.5-1.5c1.3-0.9,2.7-1.3,4.6-1.5c1.7-0.2,6.6-0.5,10.7,2.3
	c0.4,0.2,0.7,0.4,0.8,0.8c0.3,1.5-4.4,4.7-9.2,4.6C333.5,252.1,329.2,249.3,329.4,247.6z"/>
<path class="st24" d="M327.9,243.7c6.9,0,13.7,0,20.6,0c0-0.8,0-1.5,0-2.3h-20.6C327.9,242.2,327.9,243,327.9,243.7z"/>
<path class="st20" d="M336.1,270.4c0.7-2.8,1.2-3.8,0.6-4.3c-0.6-0.6-1.6,0-4.5,0c-2.4,0-3.3-0.5-3.9,0c-0.6,0.5-0.3,1.5,0.3,4"/>
<path class="st25" d="M372.8,304.9c0,0,1.2-2.4,2.7-2.4c0,0,0.4-4.9,1.5-4.9s0.7,4.4,0.7,4.4s5.1-3.6,5.9-2.6c0.8,1-4.8,3.4-4.8,3.4
	l4.9-1.5c0,0,1.4,0.6,0.6,1.1c-0.7,0.5-5.1,1.8-5.1,1.8s5.2-1,5.3-0.7c0,0.2,1,0.5,0.5,0.7c-0.5,0.2-5.2,0.9-5.2,0.9
	s3.9,0.1,3.9,0.7c0,0.6-0.2,0.9-0.5,1.1c-0.2,0.2-3.7,0-3.7,0s-2.2,1.2-4,1.1C373.7,307.9,372.8,304.9,372.8,304.9z"/>
<path class="st25" d="M358.9,334.8c0,0-21.4-4.3-21.2-2.1c0.2,2.1,14.3,4.5,14.3,4.5s-13.9-1.9-14.3,0c-0.4,1.9,12.6,1.9,12.6,1.9
	s-13.3,2.1-11.3,3c1.9,0.9,9.5-1.1,9.5-1.1s-5.5,2.6-4.5,3.4s13-4.7,13-4.7v-6.4L358.9,334.8z"/>
<path class="st25" d="M313.1,341.6c0,0,21.4-4.3,21.2-2.1c-0.2,2.1-14.3,4.5-14.3,4.5s13.9-1.9,14.3,0c0.4,1.9-12.6,1.9-12.6,1.9
	s13.3,2.1,11.3,3c-1.9,0.9-9.5-1.1-9.5-1.1s5.5,2.6,4.5,3.4s-13-4.7-13-4.7v-6.4L313.1,341.6z"/>
<path class="st26" d="M325.5,270.6c0,0-17.8,0-27.2,5.1c-9.4,5.1-21.4,26.5-21.4,26.5s-6.8,12.4-6,16.3s12,8.1,15.4,9.8
	s24,8.1,24,8.1l12.4,3l5.1-11.1l-22.6-7.9l-16.8-5.8l16.7-9.6L325.5,270.6z"/>
<ellipse class="st27" cx="327.4" cy="484" rx="10" ry="2.6"/>
<ellipse class="st28" cx="347.9" cy="484" rx="10" ry="2.6"/>
<path class="st29" d="M330.6,308.3l10.5,44.9l-6.3,2.7c0,0,7.8,26.9,4.8,30.3c0,0-6.9,7.4-9,6.6c-2.1-0.8-10.2,0.3,2.2-6.6
	c0,0-13-7-14.1-10.8c-1.1-3.8-8.8-45.5-5.7-45.7s-4.1-2.1-7.5-1.6s-17.3,2-17.3,2v-8.5h14.5c0,0,12.2-18.3,21.4-9.8L330.6,308.3z"/>
<path class="st25" d="M290.6,325.1c0,0-1.2-2.4-2.7-2.4c0,0-0.4-4.9-1.5-4.9c-1.1,0-0.7,4.4-0.7,4.4s-5.1-3.6-5.9-2.6
	s4.8,3.4,4.8,3.4l-4.9-1.5c0,0-1.4,0.6-0.6,1.1c0.7,0.5,5.1,1.8,5.1,1.8s-5.2-1-5.3-0.7c0,0.2-1,0.5-0.5,0.7
	c0.5,0.2,5.2,0.9,5.2,0.9s-3.9,0.1-3.9,0.7c0,0.6,0.2,0.9,0.5,1.1c0.2,0.2,3.7,0,3.7,0s2.2,1.2,4,1.1S290.6,325.1,290.6,325.1z"/>
<path class="st30" d="M328.2,309.2l11.9,44.5l6.9-0.6c0,0,5.8,27.4,10,29c0,0,9.6,3.3,11.1,1.5c1.5-1.7,9.1-4.5-5.1-4.7
	c0,0,8.2-12.3,7.3-16.2s-13.7-44.3-16.6-43c-2.9,1.3,2.6-3.8,5.9-4.9c3.3-1.1,16.2-6.4,16.2-6.4l-4-7.5l-12.8,6.9
	c0,0-19.4-10.3-23.5,1.5L328.2,309.2z"/>
<path class="st25" d="M327,317.3l-3-8.8c0,0-21.8,3.2-28.2-15.6c-6.4-18.8,0,2.6,0,2.6l7.3-16.3l4.3,4.3l9.4-9.4l1.3,5.1l13.3-5.1
	l3,5.1l2.1-5.1l17.1,6.8v6.8c0,0-4.3,19.3-15.4,20.8v8.8C338.2,317.3,331.7,322.4,327,317.3z"/>
<circle class="st21" cx="310.9" cy="287.2" r="2"/>
<circle class="st21" cx="331.5" cy="285.9" r="2"/>
<path class="st31" d="M318.7,298.8l12-0.8c0,0-1.1,3.9-2.6,3.9c0,0-5.8,1.6-6.6,0.6S318.7,298.8,318.7,298.8z"/>
<path class="st25" d="M364.3,329.5c0,0-19.5-4.1-19.3-1.9c0.2,2.1,14.3,4.5,14.3,4.5s-13.9-1.9-14.3,0c-0.4,1.9,12.6,1.9,12.6,1.9
	s-13.3,2.1-11.3,3c1.9,0.9,9.5-1.1,9.5-1.1s-5.5,2.6-4.5,3.4s13-4.7,13-4.7V329.5L364.3,329.5z"/>
<path class="st25" d="M311.2,329.6c0,0,19.5-3.9,19.3-1.8c-0.2,2.1-14.3,4.5-14.3,4.5s13.9-1.9,14.3,0c0.4,1.9-12.6,1.9-12.6,1.9
	s13.3,2.1,11.3,3s-9.5-1.1-9.5-1.1s5.5,2.6,4.5,3.4c-1,0.9-13-4.7-13-4.7v-5.8V329.6z"/>
<path class="st32" d="M295.4,294.6l6.7-15.1l4.3,4.3l9.4-9.4l1.3,5.1l13.3-5.1l3,5.1l2.1-5.1l17.1,6.8c0,0-2.4-16-10.7-18.2
	c-8.3-2.1-12.4-4.7-15.8-2.8c0,0,3.6-4.5,4.7-3c0,0-9.3-1.3-8.5,1.1c0,0-19.1-1.5-22.3,4.3c-3.2,5.8-10.6,21.7-5.1,30.6"/>
<path class="st33" d="M330.9,257.3c0,0-8.4,1.6-8,2.8l-1.5,17.9l-4.2,1.6l-1.1-4.4l-9.6,8.7l-4.3-4.3l-6.6,16.2
	c0,0-9.9-24.6,3.4-33.5c0,0,14-8.3,22.6-4.4C321.6,257.8,330.4,255.9,330.9,257.3z"/>
<g>
	<path class="st30" d="M38.1,426.9c0,0-1.9-27.9,7.1-26.6l190.6,0c0,0,9.6,2.5,10.3,7c0.1,0.6,0,1.3-0.3,2c-2.6,5.8,0.4-1.4,0.4-1.4
		l-0.4,24.5l-207.8-1.3L38.1,426.9z"/>
	<path class="st27" d="M31,451.6h10.9v-124c0,0-6.4-9.5-10.9-1.1V451.6z"/>
	<path class="st27" d="M91.3,417.2"/>
	<path class="st27" d="M240.3,450h10.9V326c0,0-6.4-9.5-10.9-1.1V450z"/>
	<rect x="36.5" y="344.7" class="st27" width="209.3" height="5.5"/>
	<rect x="58.3" y="347.5" class="st27" width="5.1" height="83.6"/>
	<rect x="80.1" y="347.5" class="st27" width="5.1" height="83.6"/>
	<rect x="103.2" y="347.5" class="st27" width="5.1" height="83.6"/>
	<rect x="125" y="347.5" class="st27" width="5.1" height="83.6"/>
	<rect x="149.3" y="347.5" class="st27" width="5.1" height="83.6"/>
	<rect x="171.7" y="347.5" class="st27" width="5.1" height="83.6"/>
	<rect x="194.8" y="347.5" class="st27" width="5.1" height="83.6"/>
	<rect x="217.5" y="347.5" class="st27" width="5.1" height="83.6"/>
	<rect x="36.5" y="428.3" class="st27" width="209.3" height="5.5"/>
</g>
<rect x="83.4" y="251.6" class="st34" width="3.6" height="54.3"/>
<polygon class="st15" points="53,251.6 117.4,251.6 103.3,198.3 68.4,198.3 "/>
<rect x="570.5" y="395.2" class="st5" width="106.6" height="46.2"/>
<rect x="570.5" y="376.6" class="st13" width="106.6" height="18.6"/>
<rect x="570.5" y="357.3" class="st5" width="106.6" height="18.6"/>
<rect x="570.5" y="339.4" class="st13" width="106.6" height="18.6"/>
<circle class="st27" cx="623.8" cy="408.7" r="2.6"/>
<circle class="st27" cx="623.8" cy="386.9" r="2.6"/>
<circle class="st27" cx="623.8" cy="366.6" r="2.6"/>
<circle class="st27" cx="623.8" cy="348.7" r="2.6"/>
<rect x="566" y="332.3" class="st27" width="116.2" height="7.1"/>
<rect x="582" y="441.4" class="st27" width="11.9" height="11.9"/>
<rect x="653.1" y="441.4" class="st27" width="11.9" height="11.9"/>
<path class="st4" d="M495.8,233.1h-30.7c-6.6,0-12-5.4-12-12v-35.2c0-6.6,5.4-12,12-12h30.7c6.6,0,12,5.4,12,12v35.2
	C507.8,227.7,502.4,233.1,495.8,233.1z"/>
<path class="st35" d="M492.3,229.5h-23.8c-6.6,0-12-5.4-12-12v-27.9c0-6.6,5.4-12,12-12h23.8c6.6,0,12,5.4,12,12v27.9
	C504.3,224.1,498.9,229.5,492.3,229.5z"/>
<circle class="st4" cx="479.9" cy="204.3" r="1.8"/>
<path class="st4" d="M479.9,206.1c0,0,1.5,8.7,4.2,9C484.1,215.1,482.8,205.8,479.9,206.1z"/>
<path class="st4" d="M478.3,203.5c0,0-10.5-6.2-10.8-8.4c-0.3-2.2,0-0.8,0-0.8S476.6,200.9,478.3,203.5z"/>
<circle class="st4" cx="463.4" cy="193" r="0.9"/>
<circle class="st4" cx="469.1" cy="186.8" r="0.9"/>
<circle class="st4" cx="496.6" cy="216.8" r="0.9"/>
<circle class="st4" cx="470.8" cy="223.4" r="0.9"/>
<circle class="st4" cx="462.6" cy="216" r="0.9"/>
<circle class="st4" cx="496.6" cy="193.9" r="0.9"/>
<circle class="st4" cx="491.1" cy="186.8" r="0.9"/>
<circle class="st4" cx="491.1" cy="224.3" r="0.9"/>
<path class="st36" d="M309.4,202.4c-0.1,3.1,4.6,5.6,8.2,7.4c9.6,4.7,14.4,7.1,22.5,8.5c10.5,1.9,30.1,3.4,32.2-2.7
	c0.2-0.5,0.2-1,0-2.3c-1.4-9.6-7.9-16.4-8.5-17.1c-6.7-6.8-14.5-8.7-17.1-9.3c0,0-15.4-3.5-28.7,5.4c-3.6,2.4-6.2,5.9-7,7
	C309.7,201.1,309.4,201.8,309.4,202.4z"/>
</svg>
