<svg xmlns="http://www.w3.org/2000/svg" viewBox="0 0 1021 899"><defs><style>.cls-1{fill:#e9eced;}.cls-2{fill:#fff;}.cls-3{fill:#eaac41;}.cls-4{fill:#c07d08;}.cls-5{fill:#152230;}.cls-11,.cls-19,.cls-6,.cls-8{fill:none;}.cls-6{stroke:#000;}.cls-11,.cls-19,.cls-6{stroke-miterlimit:10;}.cls-7{fill:#262626;}.cls-13,.cls-9{isolation:isolate;}.cls-9{font-size:16px;font-family:FuturaPT-Book, Futura PT;}.cls-10{letter-spacing:-0.02em;}.cls-11,.cls-19{stroke:#262626;}.cls-12{fill:#c7c9c8;}.cls-13{font-size:18px;font-family:FuturaPT-Demi, Futura PT;}.cls-14{fill:#fecda4;}.cls-15{fill:#333;}.cls-16{fill:#962d69;}.cls-17{fill:#72263c;}.cls-18{fill:#edb143;}.cls-19{stroke-width:2px;}</style></defs><title>baggrund_uden_insta</title><g id="Layer_2" data-name="Layer 2"><g id="Layer_1-2" data-name="Layer 1"><rect class="cls-1" y="123" width="1021" height="776"/><rect class="cls-2" x="201" y="139" width="639" height="744"/><path class="cls-3" d="M229,146.8a26.27,26.27,0,0,0-8.6,2.9c-5.8,3.3-8.3,9-9.3,11.4a22.87,22.87,0,0,0-1.3,13A24,24,0,0,0,214,184c6.6,8.6,17.4,9,19,9,1.9,0,11.4,0,18-7a24.42,24.42,0,0,0,4.8-8,22.32,22.32,0,0,0,1.2-9,20,20,0,0,0-1-5,26.56,26.56,0,0,0-6.5-10.7c-1.4-1.3-6.2-5.9-13.5-6.7A24.53,24.53,0,0,0,229,146.8Z"/><path class="cls-4" d="M229.6,163.7a23.3,23.3,0,0,0-6.9,2.2,17.94,17.94,0,0,0-7.5,8.8c-.6,1.3-.8,2.5-.9,2.6a16,16,0,0,0-.4,4.6c.3,4.2,10.5,11.9,22,11,1-.1,9.3-.8,13-6a10.78,10.78,0,0,0,2.2-6.1,9.41,9.41,0,0,0-.6-3c-.8-3.1-1.7-6.2-4.6-9.2a18.36,18.36,0,0,0-10.8-5.2A38.15,38.15,0,0,0,229.6,163.7Z"/><rect class="cls-2" width="1021" height="123"/><path class="cls-5" d="M72,91H39.2a5.46,5.46,0,0,1-3.8-3.8V53.8A5.46,5.46,0,0,1,39.2,50H72a5.46,5.46,0,0,1,3.8,3.8V87.2a5.14,5.14,0,0,1-1.4,2.4A5.65,5.65,0,0,1,72,91Z"/><path class="cls-2" d="M69.9,62.1H65.5a1.71,1.71,0,0,1-1.3-.6,1.48,1.48,0,0,1-.3-.9V55.9a1.1,1.1,0,0,1,.3-.6.85.85,0,0,1,.6-.3h5a2,2,0,0,1,.9.6,1.1,1.1,0,0,1,.3.6v4.7a2,2,0,0,1-.6.9A.55.55,0,0,1,69.9,62.1Z"/><circle class="cls-2" cx="55.6" cy="70.5" r="8.2"/><path class="cls-2" d="M40.3,66.6h3.2a13.47,13.47,0,0,0,.3,7.9c1.6,4.4,6,8.8,12,8.8a12.82,12.82,0,0,0,11.7-8.2,19,19,0,0,0,.6-4.4s0-.7-.3-4.1h3.5V84.2a3.57,3.57,0,0,1-.6,1.3h0a4.32,4.32,0,0,1-.9.6L42,86.4h0a4.2,4.2,0,0,1-1.3-.9,6.12,6.12,0,0,1-.3-2.2h0C40.3,83.3,40.3,66.6,40.3,66.6Z"/><line class="cls-6" x1="95.5" y1="51" x2="95.5" y2="91.5"/><path class="cls-6" d="M603.5,75.5h-195a12,12,0,0,1-12-12v-12a12,12,0,0,1,12-12h195a12,12,0,0,1,12,12v12A12,12,0,0,1,603.5,75.5Z"/><polygon class="cls-7" points="474.3 59.3 476.9 62 478 60.7 475.3 58.3 474.3 59.3"/><ellipse class="cls-7" cx="470.7" cy="54.8" rx="5.7" ry="5.8"/><ellipse class="cls-2" cx="470.7" cy="54.8" rx="3.9" ry="4"/><rect class="cls-8" x="482.9" y="49.7" width="47.1" height="19.2"/><text class="cls-9" transform="translate(484.63 61.38)">Sea<tspan class="cls-10" x="24.4" y="0">r</tspan><tspan x="28.75" y="0">ch</tspan></text><path class="cls-11" d="M962.1,54.2a7.44,7.44,0,0,1,2.4,2.4,6.9,6.9,0,0,1,.8,3.2c.1,1.2,0,1.4,0,4a28.75,28.75,0,0,1,0,3.2,8.35,8.35,0,0,1-1.6,4,7.56,7.56,0,0,1-3.2,2.4,6.73,6.73,0,0,1-4.8,0,7.49,7.49,0,0,1-2.4-1.6,8.56,8.56,0,0,1-2.4-4.8,15,15,0,0,1,0-2.4c-.1-2.8-.3-3.4,0-4.8a15.73,15.73,0,0,1,.8-2.4,9.77,9.77,0,0,1,2.4-3.2C956.4,52.5,959.9,52.9,962.1,54.2Z"/><path class="cls-11" d="M941.1,91.3h0c-.6-6.5-.4-7.3,0-8.1,1-1.9,2.9-2.7,5.6-4a21.52,21.52,0,0,1,4.8-1.6,30.33,30.33,0,0,1,15.3.8,15.22,15.22,0,0,1,4,1.6,9,9,0,0,1,4,4s.5,1.2,0,7.3H941.1Z"/><path class="cls-11" d="M899.8,60.2c.8,0,1.4-1.2,2-2.2a11.24,11.24,0,0,1,5.9-4.3,10.09,10.09,0,0,1,9.9,2.2c3.8,3.4,3.9,8.6,3.9,10.8a19.82,19.82,0,0,1-2,8.6c-.6,1.2-1.5,2.8-7.9,8.6-4.9,4.4-9.9,8.6-9.9,8.6l-.1-.1c-4.8-4-6.6-5.3-11.1-8.9-3.2-2.6-5.5-4.6-8-7a8.79,8.79,0,0,1-1-1,15,15,0,0,1-3.4-11c.2-1.8.6-5.7,3.9-8.6a10.34,10.34,0,0,1,9.9-2.2,11.24,11.24,0,0,1,5.9,4.3C898.5,59.1,899,60.2,899.8,60.2Z"/><circle class="cls-11" cx="841.8" cy="72.2" r="18.8"/><path class="cls-11" d="M832.5,80.5c1.4-3.9,2.8-7.8,4.1-11.7,4-1.4,7.9-2.9,11.9-4.3-1.1,3.7-2.2,7.4-3.3,11.2C840.9,77.3,836.7,78.9,832.5,80.5Z"/><rect class="cls-12" x="201" y="200" width="639" height="569"/><rect class="cls-8" x="267.1" y="162.1" width="261" height="22.3"/><text class="cls-13" transform="translate(267.11 175.2)"><tspan xml:space="preserve">instagr8   </tspan></text><rect class="cls-8" x="213.1" y="803.1" width="612.9" height="61.9"/><text class="cls-13" transform="translate(213.11 837.8)"><tspan xml:space="preserve">instagr8   </tspan></text><path class="cls-2" d="M228,178.3h11.9V177H228Z"/><path class="cls-11" d="M229.2,787.2c.6,0,1-.9,1.4-1.6a7.71,7.71,0,0,1,4.3-3.1,7.31,7.31,0,0,1,7.2,1.6c2.8,2.5,2.9,6.3,2.9,7.9a15,15,0,0,1-1.4,6.3c-.4.9-1.1,2-5.8,6.3-3.5,3.2-7.2,6.3-7.2,6.3l-.1-.1c-3.5-3-4.8-3.9-8.1-6.5-2.3-1.9-4-3.3-5.8-5.1l-.7-.7c-2.9-3.2-2.5-7.6-2.5-8a9.36,9.36,0,0,1,2.9-6.3,7.55,7.55,0,0,1,7.2-1.6,8.92,8.92,0,0,1,4.3,3.1C228.2,786.3,228.6,787.2,229.2,787.2Z"/><path class="cls-11" d="M289.2,802.8c.3-2.3.9-2.9,1.2-4.7a9.8,9.8,0,0,0-.6-4.7,15.27,15.27,0,0,0-5.3-7.6,14.65,14.65,0,0,0-23.7,8.3c-.4,1.8-1.3,7.4,2.4,11.8,3.6,4.2,9,4.6,10.1,4.7a32.94,32.94,0,0,0,9.1-1,4.4,4.4,0,0,1,1-.2c3.8-.5,7.7,1.8,7.7,1.8a15.33,15.33,0,0,1-1.8-4.7A11.82,11.82,0,0,1,289.2,802.8Z"/><path class="cls-14" d="M219.1,154s-.7.9-1.3,1.8c-2.1,3.5-1.1,9.7-.8,17,.2,5.7-.3,5.5.3,7.6a17.82,17.82,0,0,0,7.3,9.9,17.54,17.54,0,0,0,18.1.3,18.34,18.34,0,0,0,7.3-9.9,17.71,17.71,0,0,0,.5-4.7c.9-15.3.2-17.3-.5-18.8a15.6,15.6,0,0,0-5.8-6.3c-8.6-5.8-19-1.5-21.5,0A16.73,16.73,0,0,0,219.1,154Z"/><path class="cls-15" d="M221.2,166.5c-.1-.1.5-1,1.6-1.6a4.46,4.46,0,0,1,4.2,0c1,.6,1.7,1.5,1.6,1.6a9.78,9.78,0,0,0-2.1-1,5,5,0,0,0-3.1,0A19.16,19.16,0,0,0,221.2,166.5Z"/><path class="cls-15" d="M239.5,166.5c-.1-.1.5-1,1.6-1.6a4.46,4.46,0,0,1,4.2,0c1,.6,1.7,1.5,1.6,1.6a9.78,9.78,0,0,0-2.1-1,5,5,0,0,0-3.1,0A19.16,19.16,0,0,0,239.5,166.5Z"/><circle class="cls-15" cx="225.7" cy="170.4" r="1.8"/><circle class="cls-15" cx="242.4" cy="170.4" r="1.8"/><path class="cls-16" d="M224.9,177.5s1.1,1.9,1.6,2.6a10.57,10.57,0,0,0,3.7,3.7,8.89,8.89,0,0,0,7.8,0,7.91,7.91,0,0,0,3.1-2.6,25,25,0,0,0,2.1-3.7H224.9Z"/><path class="cls-17" d="M228,181.7c0-.4.4-.6,1-1a6.33,6.33,0,0,1,3.1-1,11.42,11.42,0,0,1,7.3,1.6c.2.2.5.3.5.5.2,1-3,3.2-6.3,3.1C230.8,184.8,227.9,182.9,228,181.7Z"/><path class="cls-2" d="M227,179.1h14.1v-1.6H227Z"/><path class="cls-18" d="M213.2,157.5c-.1,2.1,3,3.7,5.4,4.9,6.4,3.1,9.6,4.7,15,5.7,7,1.3,20.1,2.3,21.5-1.8a3.85,3.85,0,0,0,0-1.6,23.51,23.51,0,0,0-5.7-11.4,22.78,22.78,0,0,0-11.4-6.2s-10.3-2.4-19.2,3.6a20.08,20.08,0,0,0-4.7,4.7C213.4,156.6,213.2,157,213.2,157.5Z"/><circle class="cls-19" cx="233.4" cy="170" r="23.4"/></g></g></svg>
