<?xml version="1.0" encoding="utf-8"?>
<!-- Generator: Adobe Illustrator 21.1.0, SVG Export Plug-In . SVG Version: 6.00 Build 0)  -->
<svg version="1.1" id="Layer_1" xmlns="http://www.w3.org/2000/svg" xmlns:xlink="http://www.w3.org/1999/xlink" x="0px" y="0px"
	 viewBox="0 0 1600 900" style="enable-background:new 0 0 1600 900;" xml:space="preserve">
<style type="text/css">
	.st0{fill:#FFFFFF;}
	.st1{fill:#262626;}
	.st2{fill:#152230;}
	.st3{fill:none;stroke:#000000;stroke-miterlimit:10;}
	.st4{fill:none;}
	.st5{font-family:'FuturaPT-Book';}
	.st6{font-size:16px;}
	.st7{fill:none;stroke:#262626;stroke-miterlimit:10;}
	.st8{fill:#E9ECED;}
	.st9{fill:#C7C9C8;}
	.st10{font-family:'FuturaPT-Demi';}
	.st11{font-size:18px;}
	.st12{fill:none;stroke:#262626;stroke-width:2;stroke-miterlimit:10;}
</style>
<rect x="269" y="1" class="st0" width="1021" height="123"/>
<g>
	<g id="JRxRvb.tif">

			<image style="overflow:visible;" width="1132" height="322" id="Layer_0" xlink:href="F7AAB35D78506A8D.png"  transform="matrix(0.1758 0 0 0.1758 382 35)">
		</image>
	</g>
	<path class="st1" d="M397.4,65.6c0.1,0,0,0.5,0.3,1.5c0.2,0.8,0.4,1.5,1,2.1c0.2,0.2,0.5,0.5,1,0.5c1.1,0.1,2-1,2.6-1.8
		c0.8-1,1.9-2.4,1.8-3.9c0-0.2-0.1-0.8,0.3-1c0.2-0.2,0.6-0.2,0.8,0c0.2,0.1,0.2,0.3,0,1.8c-0.1,0.8-0.2,1.1-0.3,1.5
		c0,0.2-0.2,0.8-0.5,1.5c-0.2,0.6-0.7,1.8-1.8,3.1c-0.5,0.6-0.9,1.1-1.5,1.5c-0.5,0.4-1.3,1-2.6,1c-0.4,0-1.6,0.1-2.3-0.5
		C394.3,71.4,397,65.5,397.4,65.6z"/>
</g>
<g>
	<path class="st2" d="M341,92h-32.8c-0.5-0.1-1.5-0.5-2.4-1.4c-0.9-0.9-1.3-1.9-1.4-2.4V54.8c0.1-0.5,0.5-1.5,1.4-2.4
		c0.9-0.9,1.9-1.3,2.4-1.4H341c0.5,0.1,1.5,0.5,2.4,1.4c0.9,0.9,1.3,1.9,1.4,2.4v33.4c-0.1,0.5-0.5,1.5-1.4,2.4
		C342.4,91.5,341.5,91.9,341,92z"/>
	<path class="st0" d="M338.9,63.1c-1.5,0-2.9,0-4.4,0c-0.1,0-0.8,0-1.3-0.6c-0.3-0.4-0.3-0.8-0.3-0.9c0-1.6,0-3.2,0-4.7
		c0-0.1,0.1-0.4,0.3-0.6c0.1-0.1,0.3-0.3,0.6-0.3c1.7,0,3.4,0,5,0c0.2,0.1,0.6,0.2,0.9,0.6c0.2,0.2,0.3,0.5,0.3,0.6
		c0,1.6,0,3.2,0,4.7c-0.1,0.2-0.2,0.6-0.6,0.9C339.3,63,339.1,63.1,338.9,63.1z"/>
	<circle class="st0" cx="324.6" cy="71.5" r="8.2"/>
	<path class="st0" d="M309.3,67.6L309.3,67.6c0,0,1.1,0,3.2,0c-0.4,1.4-0.9,4.5,0.3,7.9c1.6,4.4,6,8.8,12,8.8
		c6.1,0,10.6-4.7,11.7-8.2c0.6-2.2,0.6-4.4,0.6-4.4s0-0.7-0.3-4.1c1.2,0,2.3,0,3.5,0c0,0.1,0,0.2,0,0.3c0,0,0,17.3,0,17.3
		c-0.1,0.3-0.2,0.8-0.6,1.3c0,0,0,0,0,0c-0.3,0.3-0.9,0.6-0.9,0.6c-18,0.2-27.8,0.3-27.8,0.3l0,0c0,0-0.9-0.4-1.3-0.9
		c-0.4-0.6-0.3-3-0.3-2.2l0,0C309.3,84.3,309.3,67.6,309.3,67.6z"/>
</g>
<line class="st3" x1="364.5" y1="52" x2="364.5" y2="92.5"/>
<path class="st3" d="M872.5,76.5h-195c-6.6,0-12-5.4-12-12v-12c0-6.6,5.4-12,12-12h195c6.6,0,12,5.4,12,12v12
	C884.5,71.1,879.1,76.5,872.5,76.5z"/>
<g>
	<polygon class="st1" points="743.3,60.3 745.9,63 747,61.7 744.3,59.3 	"/>
	<ellipse class="st1" cx="739.7" cy="55.8" rx="5.7" ry="5.8"/>
	<ellipse class="st0" cx="739.7" cy="55.8" rx="3.9" ry="4"/>
</g>
<rect x="751.9" y="50.7" class="st4" width="47.1" height="19.2"/>
<text transform="matrix(1 0 0 1 753.6274 62.376)" class="st5 st6">Search</text>
<g>
	<path class="st7" d="M1231.1,55.2c0.4,0.3,1.6,1,2.4,2.4c0.6,1,0.7,2,0.8,3.2c0.1,1.2,0,1.4,0,4c0,2.5,0.1,2.4,0,3.2
		c-0.1,0.8-0.4,2.4-1.6,4c-0.4,0.5-1.4,1.7-3.2,2.4c-0.5,0.2-2.6,0.9-4.8,0c-1.2-0.5-2-1.2-2.4-1.6c-1.9-1.9-2.3-4.1-2.4-4.8
		c-0.1-0.6,0-0.3,0-2.4c-0.1-2.8-0.3-3.4,0-4.8c0.1-0.3,0.3-1.3,0.8-2.4c0.4-0.7,1.1-2.2,2.4-3.2
		C1225.4,53.5,1228.9,53.9,1231.1,55.2z"/>
	<path class="st7" d="M1210.1,92.3L1210.1,92.3c-0.6-6.5-0.4-7.3,0-8.1c1-1.9,2.9-2.7,5.6-4c0.8-0.4,2.5-1.1,4.8-1.6
		c6.6-1.5,11.9-0.1,15.3,0.8c1.4,0.4,2.7,0.8,4,1.6c1.2,0.7,3.1,1.9,4,4c0,0,0.5,1.2,0,7.3l0,0l0,0
		C1244,92.3,1210.1,92.3,1210.1,92.3L1210.1,92.3z"/>
</g>
<path class="st7" d="M1168.8,61.2c0.8,0,1.4-1.2,2-2.2c1.9-2.9,4.8-3.9,5.9-4.3c3-1.1,7-0.4,9.9,2.2c3.8,3.4,3.9,8.6,3.9,10.8
	c0,0.8,0,4.5-2,8.6c-0.6,1.2-1.5,2.8-7.9,8.6c-4.9,4.4-9.9,8.6-9.9,8.6c0,0-0.1-0.1-0.1-0.1c-4.8-4-6.6-5.3-11.1-8.9
	c-3.2-2.6-5.5-4.6-8-7c-0.6-0.5-0.8-0.8-1-1c-4-4.5-3.5-10.4-3.4-11c0.2-1.8,0.6-5.7,3.9-8.6c2.9-2.6,6.9-3.2,9.9-2.2
	c1.1,0.4,4,1.4,5.9,4.3C1167.5,60.1,1168,61.2,1168.8,61.2z"/>
<circle class="st7" cx="1110.8" cy="73.2" r="18.8"/>
<path class="st7" d="M1101.5,81.5c1.4-3.9,2.8-7.8,4.1-11.7c4-1.4,7.9-2.9,11.9-4.3c-1.1,3.7-2.2,7.4-3.3,11.2
	C1109.9,78.3,1105.7,79.9,1101.5,81.5z"/>
<rect x="269" y="124" class="st8" width="1021" height="776"/>
<rect x="470" y="140" class="st0" width="639" height="744"/>
<rect x="470" y="201" class="st9" width="639" height="569"/>
<rect x="536.1" y="163.1" class="st4" width="261" height="22.3"/>
<text transform="matrix(1 0 0 1 536.1079 176.1978)" class="st10 st11">karakters_navn</text>
<rect x="482.1" y="804.1" class="st4" width="612.9" height="61.9"/>
<text transform="matrix(1 0 0 1 482.1079 838.7979)"><tspan x="0" y="0" class="st10 st11">karakters_navn   </tspan><tspan x="133.6" y="0" class="st5 st11">#flotfyr15 #like4like #friends #nofilter #ootd #tbt #picture #goals </tspan><tspan x="0" y="21.6" class="st5 st11">#squad #follow4follow #heltsikkert #drunk #rejse_livet</tspan></text>
<path class="st0" d="M497,179.3c4,0,8,0,11.9,0c0-0.4,0-0.9,0-1.3H497C497,178.4,497,178.8,497,179.3z"/>
<circle class="st12" cx="502.4" cy="171" r="23.4"/>
<path class="st7" d="M498.2,788.2c0.6,0,1-0.9,1.4-1.6c1.4-2.1,3.5-2.9,4.3-3.1c2.2-0.8,5.1-0.3,7.2,1.6c2.8,2.5,2.9,6.3,2.9,7.9
	c0,0.6,0,3.3-1.4,6.3c-0.4,0.9-1.1,2-5.8,6.3c-3.5,3.2-7.2,6.3-7.2,6.3c0,0-0.1-0.1-0.1-0.1c-3.5-3-4.8-3.9-8.1-6.5
	c-2.3-1.9-4-3.3-5.8-5.1c-0.4-0.4-0.6-0.6-0.7-0.7c-2.9-3.2-2.5-7.6-2.5-8c0.1-1.3,0.5-4.1,2.9-6.3c2.1-1.9,5-2.3,7.2-1.6
	c0.8,0.3,2.9,1.1,4.3,3.1C497.2,787.3,497.6,788.2,498.2,788.2z"/>
<path class="st7" d="M558.2,803.8c0.3-2.3,0.9-2.9,1.2-4.7c0.3-1.9-0.2-3.4-0.6-4.7c-1.3-4.4-4.4-6.9-5.3-7.6
	c-1.3-1-3.5-2.4-6.5-2.9c-1.3-0.3-6-1.1-10.7,1.8c-4.9,3-6.2,7.9-6.5,9.4c-0.4,1.8-1.3,7.4,2.4,11.8c3.6,4.2,9,4.6,10.1,4.7
	c2.5,0.2,6.2-0.3,9.1-1c0.5-0.1,0.6-0.2,1-0.2c3.8-0.5,7.7,1.8,7.7,1.8c0,0-1.4-2.3-1.8-4.7C558,805.8,558.1,804.7,558.2,803.8z"/>
</svg>
