<?xml version="1.0" encoding="utf-8"?>
<!-- Generator: Adobe Illustrator 21.1.0, SVG Export Plug-In . SVG Version: 6.00 Build 0)  -->
<svg version="1.1" id="Layer_1" xmlns="http://www.w3.org/2000/svg" xmlns:xlink="http://www.w3.org/1999/xlink" x="0px" y="0px"
	 viewBox="0 0 1600 900" style="enable-background:new 0 0 1600 900;" xml:space="preserve">
<style type="text/css">
	.st0{fill:#152230;}
	.st1{fill:#E5B090;}
	.st2{fill:#333333;}
	.st3{fill:#962D69;}
	.st4{fill:#72263C;}
	.st5{fill:#FFFFFF;}
	.st6{fill:#EAAC41;}
	.st7{fill:#DBA426;}
	.st8{fill:#20D7A4;}
	.st9{fill:#E5DEE5;}
	.st10{fill:#F18302;}
	.st11{fill:#882E00;}
	.st12{fill:#9E7138;}
	.st13{fill:#BB0D04;}
	.st14{fill:#E47A0A;}
	.st15{fill:#180700;}
	.st16{fill:#F7D5A8;}
	.st17{fill:#FECDA4;}
	.st18{fill:url(#SVGID_1_);}
	.st19{fill:#C07D08;}
	.st20{fill:#CDCFD0;}
	.st21{fill:#33100A;}
	.st22{fill:#000100;}
	.st23{fill:none;stroke:#152230;stroke-miterlimit:10;}
	.st24{fill:#2C4963;stroke:#424242;stroke-miterlimit:10;}
	.st25{fill:url(#SVGID_2_);}
</style>
<g>
	<g>
		<path class="st0" d="M70,634.5c-5.2,0-9.5-4.3-9.5-9.5V81c0-5.2,4.3-9.5,9.5-9.5h615c5.2,0,9.5,4.3,9.5,9.5v544
			c0,5.2-4.3,9.5-9.5,9.5H70z"/>
		<path class="st0" d="M685,74c3.9,0,7,3.1,7,7v544c0,3.9-3.1,7-7,7H70c-3.9,0-7-3.1-7-7V81c0-3.9,3.1-7,7-7H685 M685,69H70
			c-6.6,0-12,5.4-12,12v544c0,6.6,5.4,12,12,12h615c6.6,0,12-5.4,12-12V81C697,74.4,691.6,69,685,69L685,69z"/>
	</g>
	<path class="st1" d="M623,194.8c0,0,3,3.6,5.3,7.5c8.5,14.2,4.3,39.5,3.2,69.4c-0.9,23.4,1.2,22.6-1.1,31
		c-6.9,25.6-27.9,39.3-29.9,40.6c-21.3,13.5-50.8,15.2-73.7,1.1c-1.4-0.9-22.9-14.6-29.9-40.6c-1.2-4.4-1.5-7.3-2.1-19.2
		c-3.5-62.3-1-70.6,2.1-76.9c7.1-14.5,18.6-22.4,23.5-25.6c35.2-23.5,77.5-6.3,87.5,0C616.9,187.6,623,194.8,623,194.8z"/>
	<path class="st2" d="M614.5,246.1c0.3-0.4-2.2-4.2-6.4-6.4c-5.2-2.8-11.9-2.8-17.1,0c-4.2,2.3-6.8,6-6.4,6.4
		c0.3,0.4,3.2-2.7,8.5-4.3c6.2-1.8,11.7-0.3,12.8,0C611.2,243.4,614.1,246.5,614.5,246.1z"/>
	<circle class="st2" cx="596.3" cy="262.1" r="7.5"/>
	<circle class="st2" cx="528" cy="262.1" r="7.5"/>
	<path class="st3" d="M599.5,290.9c0,0-4.4,7.6-6.4,10.7c-2,3.1-6.9,10.6-14.9,14.9c-10.1,5.5-22.8,4.6-32,0
		c-7.3-3.6-11.6-9.2-12.8-10.7c-4.6-6-8.5-14.9-8.5-14.9l0,0C524.8,290.9,599.5,290.9,599.5,290.9L599.5,290.9z"/>
	<path class="st4" d="M586.7,308c-0.2-1.6-1.8-2.6-4.3-4.3c-3.6-2.5-7.6-3.7-12.8-4.3c-4.9-0.6-18.3-1.4-29.9,6.4
		c-1,0.7-1.9,1.2-2.1,2.1c-0.8,4.2,12.4,13.1,25.6,12.8C575.3,320.6,587.3,312.7,586.7,308z"/>
	<path class="st5" d="M591,297.3c-19.2,0-38.4,0-57.6,0c0-2.1,0-4.3,0-6.4H591C591,293,591,295.2,591,297.3z"/>
	<path class="st1" d="M576,352.6c1.9,1.8,0.9,5.1-1.1,13.4c-4.2,17.3-3.9,19.2-7.5,29.5c-4.3,12.5-5.8,12.9-6.4,12.8
		c-1.5-0.1-2.1-3.2-4.3-12.8c-2.2-9.5-3.9-19.1-6.4-28.5c-2.5-9.3-4.1-12.6-2.1-14.4c2.1-2,5.4,0.2,14.9,0
		C571.3,352.5,574.1,350.8,576,352.6z"/>
	<path class="st6" d="M475.5,261L475.5,261c0,0-0.2-23.4,3.2-41.6c1.8-9.7,4.9-26.3,17.1-42.7c4.8-6.4,19-23.6,43.8-31
		c7.3-2.2,20.3-5.9,36.3-2.1c19.6,4.6,31.1,17.4,38.4,25.6c7.5,8.4,13.5,15.1,14.9,25.6c1.8,13.1-4.7,23.6-8.5,29.9
		c-13.7,22.3-36.8,30.2-42.7,32c-9.3,2.9-8,0.7-53.4,2.1C524.6,258.9,517.5,259.1,475.5,261z"/>
	<path class="st7" d="M519.8,293.5c1.2-0.5,4.5-1.7,8.5-0.9c3.4,0.7,5.6,2.5,6,2.9c0.5,0.4,6.9,6.1,4.3,11.8
		c-1.9,4.3-7.7,6.4-11,4.7c-2.9-1.5-3.8-6.2-4.3-8.5c-0.5-2.4-0.3-4.2-1.5-6.9C521.2,295.3,520.4,294.2,519.8,293.5z"/>
	<path class="st8" d="M529.8,413.4c-3.3-12-16.2-16.1-33-24.3c-28.2-13.8-59.2-29.4-72.6-57.3c-8.6-18-10.5-42.3-10.7-44.9
		c-0.6-8.1-0.9-13.4,0-20.8c1.4-11,4-13.3,2.1-17c-4.5-8.9-26.8-10.7-36.7-0.9c-2.1,2.1-5.8,6.7-6.6,27.2
		c-0.6,16.2-1.2,39.1,10.5,66.1c2.9,6.7,7.9,18.1,17.9,30.1c12.7,15.1,23.5,19.4,49,34c49,27.9,59.8,41.1,70.7,34.9
		C528.6,436,532.3,422.8,529.8,413.4z"/>
	<g>
		<path class="st7" d="M502.5,295.9c-0.3,0-2-0.9-5.3-2.7c-7.6-4-15.7-7.3-23.1-11.8c-0.8-0.5-2.8-1.7-5.6-2.4
			c-1.2-0.3-3.2-0.8-5.6-0.5c-3.4,0.4-4,1.8-6.6,1.8c-2.2,0-3.9-1.1-4.9-1.7c-7.6-4.8-53.7-32.8-62.3-36.1c-0.4-0.2-2.6-1-5.2-2.7
			c-1.8-1.2-3.8-2.6-4.7-4.4c-0.4-0.8-1.2-2.9,2.3-11.3c2.4-5.8,5.2-10.5,8.7-14.9c3-3.8,4.5-5.7,6.6-6c4.1-0.6,9.6,3.7,10.2,4.2
			c0.2,0.2,0.8,0.7,1.8,1.3c1.7,1.1,3,1.8,3.4,2c4.7,2.3,38.9,22.5,48.3,28.2c6.3,3.9,5.5,3.7,7.2,4.5c2,0.9,3.9,1.5,5.6,3.5
			c1.1,1.3,1.7,2.7,1.9,3.1c0.6,1.4,0.6,1.9,1.4,4.4c0.6,2,0.9,3,1.3,3.6c0.2,0.4,0.8,1.2,3.9,3.4c2,1.4,3,2,3,2
			c5.8,3.5,20.1,12.8,23.7,15.4c1,0.7,2.1,1.3,3,2c0.8,0.7,1.4,1.3,2.3,1.3c0.8,0,1-0.4,1.5-0.2c0.5,0.2,0.9,0.7,1.5,1.7
			c0.4,0.7,0.6,1.1,0.8,1c0.4,0,0.2-1,0.7-1.3c0.8-0.4,2.7,1.1,3.1,2.9c0.1,0.7,0.1,1.2,0,1.4c-0.4,2.3-1.8,3.9-3.1,5.8
			c-2,3.1-2.1,4.9-4.4,7c-0.4,0.3-1,0.9-2,1.1c-1.2,0.2-2.7-0.3-3-1.2c-0.1-0.4,0-0.6-0.3-1c-0.3-0.4-0.8-0.6-1.1-0.6
			c-0.5-0.1-0.6,0-1.1-0.1c-0.6-0.1-1.1-0.5-1.4-1.1c-0.1-0.3-0.1-0.4-0.2-0.7C504.5,296.2,502.8,296,502.5,295.9z"/>
		<path class="st9" d="M435.1,268.7c0,0,0.4-1.3,1.3-1.8c0.4-0.3,0.9-0.3,1-0.3c1.4,0,4.9-2.2,7.1-4c7.6-6.4,9.2-15.8,9.2-15.8
			c0.1-0.8,0.2-1.4,0.2-1.8c0.3-2.6,0.3-6.1-0.2-6.9c0-0.1-0.2-0.3-0.2-0.7c0-0.2,0.1-0.3,0.2-0.4c0.5-0.7,0.4-1.7,0.4-1.7l0,0
			c0,0-21.1-12.5-21.1-12.5l0,0c0,0-5.8,7.5-10.7,15.5c-1.2,1.9-1.9,3.2-9.3,17.5l0,0l0,0C413.2,255.8,435.1,268.7,435.1,268.7
			L435.1,268.7z"/>
		<path class="st10" d="M399.9,248c0.6-0.1,0.9-1,0.9-1.1c0.5-1.3,3.1-6,8.5-15.6c2.6-4.6,9.1-14.6,10.1-15.5c0,0,0.5-0.4,0.4-0.6
			c0,0-0.1-0.1-0.2-0.1c-0.1-0.1-0.3-0.2-0.4-0.2c-1.2-0.7-2.4-1.4-3.6-2.1c-0.3-0.2-0.4-0.2-0.4-0.2c-1.7-1-2.7-1.7-4.2-2.4
			c-0.7-0.4-0.9-0.4-1.2-0.4c-1.1,0.1-1.8,1.5-2,1.9c-2.5,5.1-6.5,9.3-9.4,14.2c-2.8,4.8-4.5,10.3-7.8,14.9
			c-0.2,0.3-1.1,1.5-0.7,2.1c0.2,0.3,0.6,0.4,0.8,0.5c0.6,0.2,1.8,0.8,4.3,2.2c0.6,0.3,2.1,1.2,2.9,1.7c0,0,0.2,0.1,0.4,0.2
			C399.1,247.8,399.5,248.1,399.9,248z"/>
		<path class="st11" d="M508.8,300.5c-0.3-0.8,0.6-1.5,1.8-3.2c0.9-1.1,1.4-2,2.4-3.7c2-3.3,3.4-7,4.2-8.2c0.1-0.1,0.2-0.3,0.4-0.6
			c0.4-0.9,0.3-1.2,0.5-1.4c0.5-0.3,1.6,0.5,2.3,1.3c0.2,0.2,0.7,0.9,0.9,1.9c0.1,0.6,0,1.6-1.1,3.9c-0.9,1.9-1.4,1.8-2.5,3.9
			c-0.9,1.6-0.8,2-1.9,3.7c-1.1,1.8-1.7,2.3-2,2.5c-0.5,0.4-1.7,1.2-3.1,1C510.5,301.5,509.1,301.3,508.8,300.5z"/>

			<ellipse transform="matrix(0.5013 -0.8653 0.8653 0.5013 3.9936 515.9517)" class="st12" cx="449.6" cy="254.5" rx="7.9" ry="7.9"/>

			<ellipse transform="matrix(0.5013 -0.8653 0.8653 0.5013 3.872 516.0728)" class="st13" cx="449.7" cy="254.7" rx="6.3" ry="6.3"/>
		<path class="st14" d="M503,296c1.6,0.1,2.1-3.8,5-8.1c2.1-3.1,4.7-5.3,4-6.4c-0.1-0.1-0.4-0.4-1.1-0.9c-0.3-0.2-1-0.8-1.6-1.2
			c-2.3-1.7-14.3-9.7-14.3-9.7l0,0c0,0-11.7-7-11.7-7l0,0c0,0-0.4-0.3-1.8-1.3c-1.2,1.9-4.2,7-5.3,9c-1.3,2.1-4.3,7.3-5.6,9.4
			c0,0,0.7,0.3,1.3,0.6c1,0.5,1.3,0.6,1.3,0.6c1.8,0.9,6.1,3.5,9.8,5.4c0.8,0.4,0.3,0.1,3.1,1.5c3.2,1.6,10.4,5.2,13.1,6.5
			c0,0,0.9,0.4,2.2,1C502.4,295.8,502.9,296,503,296z"/>
		<g>
			<path class="st15" d="M430.7,262.4c0.1-0.2,0.3-0.7,0.2-1.3c-0.1-0.8-0.7-1.3-0.9-1.4c-0.6-0.4-1.4-0.6-1.9-0.4
				c-0.1,0-0.3,0.1-0.3,0.1c0,0,0.1-0.1,0.1-0.2c0.2-0.3,0-0.7-0.1-0.9c-0.2-0.6-1.7-2.2-3.6-2.1c-0.2,0-0.9,0.3-2.4,0.8
				c-0.7,0.2-1.8,0.7-1.8,0.7c0,0,9.8,5.9,9.8,5.9C429.8,263.7,430.4,263.1,430.7,262.4z"/>
			<path class="st9" d="M429.3,262.2L429.3,262.2l-2.3-1.3l0,0c0,0,0.6-0.6,1.2-0.7c0.5-0.1,1.1,0.1,1.4,0.5
				c0.2,0.4,0.1,0.8,0.1,0.9C429.5,261.9,429.3,262.2,429.3,262.2z"/>
			<path class="st9" d="M425.9,260.3L425.9,260.3c0,0-3.4-1.9-3.4-2l0,0c0,0,1-0.8,2.1-0.7c0.6,0,1,0.3,1.4,0.5
				c0.4,0.2,0.6,0.4,0.7,0.7c0.1,0.4-0.1,0.9-0.4,1.2C426.2,260.1,425.7,260.4,425.9,260.3z"/>
			<path class="st15" d="M432.1,259.7c0,0,0.5-0.7,0.7-1.3c0.4-0.8,0.7-1.3,0.6-1.9c-0.1-0.7-0.7-1.2-0.9-1.4
				c-0.5-0.4-1.4-0.7-2-0.3c-0.4,0.2-0.5,0.4-0.8,0.4c-0.2,0-0.3-0.2-0.5-0.6c-0.6-1.1-0.9-1.7-1-2.2c0-0.5,0.1-0.8-0.1-0.9
				c-0.2-0.1-0.9,0.5-0.9,1.1c0,0.4,0.2,0.7,0.6,1.5c0.5,0.8,0.7,1.2,0.9,1.4c0.1,0.1,0.3,0.2,0.3,0.5c0,0.2-0.1,0.3-0.2,0.4
				c-0.2,0.1-0.5,0-1.2-0.4c-1.3-0.7-1.7-0.9-1.8-1.3c0-0.2,0-0.3-0.1-0.3c-0.3-0.1-1.2,1-1.2,1
				C424.6,255.3,432.1,259.7,432.1,259.7z"/>
			<path class="st9" d="M431.8,258.4c0,0,0.4-0.4,0.5-0.8c0.1-0.4,0-0.8-0.1-0.9c-0.3-0.7-1.1-0.9-1.1-0.9c-0.1,0-0.5-0.1-0.9,0.1
				c-0.3,0.1-0.5,0.4-0.6,0.5c0,0-0.1,0.1-0.4,0.6C429.3,256.9,431.8,258.4,431.8,258.4z"/>
			<path class="st15" d="M434.5,255.2L434.5,255.2c1.3-2.2,2.1-3.6,2.1-3.6l0,0c0,0-0.7-0.9-0.9-0.8c-0.1,0.1-0.1,0.4-0.2,0.8
				c-0.1,1-0.7,2.1-1.2,2.1c-0.3,0-0.3-0.2-1.1-0.6c-0.3-0.2-0.4-0.2-0.4-0.2c-0.1-0.3,0.6-1,1.2-1.6c0,0,0.1-0.1,0.1-0.2
				c0-0.2-0.2-0.3-0.7-0.7c-0.2-0.2-0.3-0.3-0.4-0.2c-0.1,0-0.1,0.2-0.1,0.2c0,0.1-0.4,1.9-0.9,2c-0.2,0.1-0.3-0.1-0.8-0.5
				c-0.9-0.6-1.2-0.5-1.3-0.7c-0.2-0.6,0.8-1.8,1.9-2.3c0.2-0.1,0.4-0.2,0.5-0.3c0-0.3-1.3-0.8-1.7-0.4c-0.1,0.1-0.1,0.2-0.1,0.2
				c-0.3,1.2-2.2,3.2-2.2,3.2l0,0C428.2,251.5,434.5,255.2,434.5,255.2z"/>
			<path class="st15" d="M437.2,250.5L437.2,250.5c1.3-2.2,2.1-3.6,2.1-3.6l0,0c0,0-0.7-0.9-0.9-0.8c-0.1,0.1-0.1,0.4-0.2,0.8
				c-0.1,1-0.7,2.1-1.2,2.1c-0.3,0-0.3-0.2-1.1-0.6c-0.3-0.2-0.4-0.2-0.4-0.2c-0.1-0.3,0.6-1,1.2-1.6c0,0,0.1-0.1,0.1-0.2
				c0-0.2-0.2-0.3-0.7-0.7c-0.2-0.2-0.3-0.3-0.4-0.2c-0.1,0-0.1,0.2-0.1,0.2c0,0.1-0.4,1.9-0.9,2c-0.2,0.1-0.3-0.1-0.8-0.5
				c-0.9-0.6-1.2-0.5-1.3-0.7c-0.2-0.6,0.8-1.8,1.9-2.3c0.2-0.1,0.4-0.2,0.5-0.3c0-0.3-1.3-0.8-1.7-0.4c-0.1,0.1-0.1,0.2-0.1,0.2
				c-0.3,1.2-2.2,3.2-2.2,3.2l0,0C430.9,246.9,437.2,250.5,437.2,250.5z"/>
			<path class="st15" d="M442.8,240.9c0.6-1.1,1.3-2.2,2-3.4l0,0c0,0-1.2-0.8-1.3-0.7c0,0,0.2,0.2,0.3,0.5c0.1,0.3-0.1,0.6-0.4,1.2
				c-0.3,0.5-0.6,0.9-0.8,0.9c0,0-0.1,0-0.1,0c-0.2,0-0.3-0.2-1-0.6c-0.5-0.3-0.6-0.2-0.6-0.4c-0.1-0.4,0.6-1.3,1-1.7
				c0,0,0.1-0.1,0.1-0.2c0-0.1-0.4,0-0.8-0.2c-0.1-0.1-0.3-0.2-0.4-0.2c-0.2-0.1-0.2-0.1-0.2-0.1c-0.3,0-0.1,1.8-0.6,1.9
				c-0.2,0-0.3-0.1-0.6-0.4c-1.1-0.8-1.7-0.6-1.9-1.1c0-0.1,0.1-0.4,0.3-1c0.2-0.7,0.4-1,0.7-1.3c0.3-0.2,0.5-0.2,0.5-0.3
				c0-0.2-1-0.3-1.5-0.3c-0.1,0-0.2,0-0.3,0.1c-0.2,0.2-0.2,0.6-0.2,0.8c0.1,0.4,0,1.2-0.5,2.8C438.6,238.4,440.7,239.6,442.8,240.9
				z"/>
			<path class="st15" d="M438.8,245.3c0.1,0.3,1.5,0.3,1.5,0.3l0,0c0,0,2.2-3.8,2.2-3.8l0,0c0,0-1.6-0.1-2.2-0.1
				c-3.4-0.2-4.7,0.2-4.9-0.3c-0.2-0.5,0.7-1.6,1.6-2.2c0.3-0.2,0.6-0.3,0.6-0.5c0-0.4-1.4-0.8-2-0.3c-0.3,0.2-0.3,0.5-0.5,1.4
				c0,0-0.1,0.3-1.4,2.9l0,0c0,0,1.7,0.2,2.9,0.3c2.5,0.1,3.7-0.4,3.9,0c0.2,0.4-0.6,1.3-1,1.7C439.1,245,438.8,245.1,438.8,245.3z"
				/>
			<path class="st15" d="M445.1,236.9L445.1,236.9c0,0-7.4-4.3-7.4-4.3l0,0c0,0-0.3-1.2,0-1.4c0.5-0.3,2.9,2.8,3.7,2.4
				c0.1-0.1,0.2-0.3,0.2-0.4c0-0.3-0.5-0.6-0.7-0.7c-0.6-0.3-1.1-0.9-2.2-2.1c-1.1-1.3-1.2-1.9-1.3-2.1c-0.1-0.5-0.1-1,0.1-1.1
				c0.1,0,0.3,0.4,0.6,0.9c1,1.8,1.7,1.5,3.1,3.5c0.3,0.4,0.6,0.9,1.1,0.9c0.3,0,0.5-0.1,0.7-0.2c1.1-0.4,3.4,0.9,3.5,2.3
				C446.5,235.6,445.1,236.9,445.1,236.9z"/>
			<path class="st9" d="M444.7,235.5c0,0,0.3-0.3,0.4-0.6c0.1-0.4-0.2-0.9-0.3-1c-0.2-0.3-0.7-0.8-1.3-0.7c-0.7,0.1-1.4,0.9-1.4,0.9
				l0,0L444.7,235.5L444.7,235.5z"/>
		</g>
	</g>
	<path class="st16" d="M383.9,244.3c0,0,1.7-1.5,2-3c0.2-1-0.3-1.7-0.8-2.9c-0.5-1.1-0.9-3.1-1.7-7.2c-0.5-2.4-0.9-4.3-1-5.7
		c-0.4-5.3,2.8-6.1,6-15c0.8-2.2,3.1-9.1,5.6-10.9c1.1-0.8,2.3-1.1,2.3-1.1c0.6-0.2,1.6-0.4,2.9-0.1c0.4,0.1,1.6,0.4,2.5,1.5
		c0.4,0.5,1.1,1.2,1.1,2.3c0,0.6-0.3,1-0.1,1.7c0.1,0.3,0.2,0.9,0.6,1c0.4,0.1,0.9-0.4,1-0.6c0.4-0.5,0.4-0.9,0.5-1.2
		c0.5-1.5,2.5-2.2,2.8-2.3c0.4-0.1,1.5-0.5,2.9-0.1c1.7,0.5,2.5,1.8,2.8,2.3c0.5,0.8,1.1,1.8,0.8,2.9c-0.1,0.3-0.3,0.7-0.2,1.3
		c0,0.3,0.1,0.7,0.3,0.9c0.4,0.2,0.9-0.4,1.5-1.1c0.9-1,0.9-1.3,1.5-1.8c0.2-0.2,1.1-0.9,2.3-1.1c1.7-0.2,3,0.8,3.7,1.3
		c0.5,0.4,0.9,0.7,1.2,1.3c0.8,1.4,0.4,3,0.3,3.3c-0.1,0.4-0.5,1.7-0.5,2.6c0,0.1,0,0.3,0.2,0.4c0.1,0,0.3,0.1,0.9-0.3
		c1-0.7,1.1-1.5,1.7-2.1c1.3-1.4,4.3-0.5,4.5-0.5c0.5,0.2,2.4,0.7,3.1,2.5c0.5,1.2,0.3,2.3,0.1,2.9c-0.3,1.5-1.3,3-1.5,3.2
		c-0.3,0.4-0.7,1-0.5,1.2c0.1,0.2,0.5,0,0.7,0c0,0,1.6-0.4,3.5,0.1c1.4,0.4,2.2,1.5,2.4,1.8c0.2,0.3,0.9,1.2,1,2.6
		c0.1,1.6-0.5,2.8-0.7,3.2c-1.5,2.9-2.7,5.9-4.3,8.7c-4.3,7.5-2.7,8.9-5.9,11.5c-1,0.8-3.3,2.5-6.2,3.6c-1.8,0.7-3.5,1.5-5.3,2.2
		c-0.5,0.2-1,0.4-1.4,0.8c0,0-0.8,0.7-2,3.7l0,0C414.6,258.1,383.9,244.3,383.9,244.3L383.9,244.3z"/>
	<path class="st17" d="M92.8,256.3c0,0-4.4,5.2-7.8,10.9c-12.5,20.8-6.3,57.9-4.7,101.6c1.3,34.2-1.8,33.1,1.6,45.3
		c10.1,37.5,40.8,57.5,43.7,59.4c31.2,19.7,74.3,22.3,107.8,1.6c2.1-1.3,33.5-21.4,43.7-59.4c1.7-6.4,2.1-10.8,3.1-28.1
		c5.2-91.2,1.4-103.3-3.1-112.5c-10.4-21.2-27.3-32.7-34.4-37.5c-51.5-34.4-113.4-9.2-128.1,0C101.7,245.7,92.8,256.3,92.8,256.3z"
		/>
	<path class="st2" d="M105.3,331.3c-0.5-0.6,3.3-6.1,9.4-9.4c7.6-4.1,17.4-4.1,25,0c6.1,3.3,9.9,8.8,9.4,9.4
		c-0.5,0.6-4.8-4-12.5-6.2c-9.1-2.7-17.1-0.5-18.7,0C110.1,327.4,105.8,331.9,105.3,331.3z"/>
	<circle class="st2" cx="131.9" cy="354.8" r="10.9"/>
	<circle class="st2" cx="231.9" cy="354.8" r="10.9"/>
	<path class="st3" d="M127.2,396.9c0,0,6.4,11.1,9.4,15.6c3,4.6,10.1,15.5,21.9,21.9c14.8,8,33.3,6.7,46.9,0
		c10.6-5.3,17-13.4,18.7-15.6c6.8-8.8,12.5-21.9,12.5-21.9l0,0C236.6,396.9,127.2,396.9,127.2,396.9L127.2,396.9z"/>
	<path class="st4" d="M145.9,421.9c0.3-2.3,2.6-3.7,6.2-6.2c5.3-3.6,11.2-5.4,18.7-6.2c7.1-0.8,26.8-2.1,43.7,9.4
		c1.5,1,2.8,1.7,3.1,3.1c1.2,6.2-18.1,19.1-37.5,18.7C162.7,440.3,145.1,428.9,145.9,421.9z"/>
	<path class="st5" d="M139.7,406.3c28.1,0,56.2,0,84.4,0c0-3.1,0-6.2,0-9.4h-84.4C139.7,400.1,139.7,403.2,139.7,406.3z"/>
	<linearGradient id="SVGID_1_" gradientUnits="userSpaceOnUse" x1="101.3899" y1="573.6204" x2="258.4553" y2="573.6204">
		<stop  offset="0.5248" style="stop-color:#7E8083"/>
		<stop  offset="0.5275" style="stop-color:#CDCFD0"/>
	</linearGradient>
	<path class="st18" d="M102.2,615.7c0,0.1,0.1,0.1,0.1,0.1c0.3,0,4.7,21.2,4.7,21.2l0,0c0,0,150,0,150,0l0,0c0,0,1.3-9.5,1.4-21.3
		c0-0.1,0-0.1,0-3.1c-0.1-8.9,0-14.6,0-15.6c-0.1-31.4-15.6-53.1-15.6-53.1c-12.4-17.4-29.3-25.1-37.5-28.1
		c-6.8-2.5-30.7-10.9-56.2,0c-15.2,6.5-23.9,16.8-28.1,21.9c-2.4,2.9-15.8,19.5-18.7,43.7C100.4,596.1,102.2,615.7,102.2,615.7z"/>
	<path class="st17" d="M161.6,487.3c-2.9,2.6-1.4,7.4,1.6,19.6c6.1,25.3,5.7,28.2,10.9,43.2c6.3,18.3,8.5,18.8,9.4,18.7
		c2.1-0.2,3-4.7,6.2-18.7c3.2-13.9,5.7-27.9,9.4-41.6c3.6-13.6,6-18.4,3.1-21.1c-3.1-3-7.9,0.2-21.9,0
		C168.5,487.1,164.5,484.6,161.6,487.3z"/>
	<path class="st6" d="M308.7,353.2L308.7,353.2c0,0,0.3-34.3-4.7-60.9c-2.6-14.2-7.2-38.5-25-62.5c-7-9.4-27.7-34.5-64.1-45.3
		c-10.7-3.2-29.8-8.6-53.1-3.1c-28.6,6.7-45.5,25.5-56.2,37.5c-11,12.3-19.8,22.1-21.9,37.5c-2.6,19.2,6.8,34.6,12.5,43.7
		c20.1,32.6,53.9,44.2,62.5,46.9c13.6,4.2,11.7,1,78.1,3.1C236.8,350.1,247.2,350.4,308.7,353.2z"/>
	<path class="st19" d="M80.6,396.9c0,0-1.2-8.4-3.5-24.6c-3.9-27.4-5.9-41-5.9-41c-1.1-7.3-1.8-14.6-3.1-21.9
		c-2.1-11.6-4-18.1-3.1-28.1c0.7-7.8,2.6-11.4,3.1-12.5c4.5-8.4,13.8-14,15.6-12.5c0.7,0.6,0.2,2.2,0,3.1c-1.7,6.6,0,9.5,0,25
		c0,19.8-2.8,41.7-3.1,78.1C80.5,375,80.6,396.9,80.6,396.9z"/>
	<path class="st7" d="M243.9,400.8c-1.8-0.8-6.6-2.5-12.5-1.3c-5,1.1-8.1,3.7-8.8,4.3c-0.7,0.6-10,8.9-6.3,17.3
		c2.8,6.2,11.3,9.3,16.1,6.8c4.3-2.2,5.6-9,6.2-12.4c0.7-3.5,0.4-6.1,2.3-10.1C241.9,403.4,243,401.8,243.9,400.8z"/>
	<path class="st20" d="M229.3,576.2c4.8-17.6,23.8-23.5,48.3-35.5c41.2-20.1,86.7-43.1,106.3-83.8c12.6-26.3,15.3-61.9,15.6-65.7
		c0.8-11.9,1.4-19.6,0-30.4c-2-16.2-5.8-19.4-3-24.8c6.7-13,39.3-15.6,53.8-1.4c3.1,3.1,8.5,9.8,9.6,39.9
		c0.9,23.8,1.7,57.2-15.3,96.8c-4.2,9.8-11.6,26.5-26.3,44.1c-18.5,22.1-34.3,28.4-71.8,49.7c-71.8,40.9-87.6,60.1-103.5,51.1
		C231,609.2,225.6,590,229.3,576.2z"/>
	<g>
		<path class="st7" d="M269.3,404.3c0.5-0.1,2.9-1.3,7.8-3.9c11.2-5.9,23-10.7,33.8-17.3c1.2-0.7,4.1-2.5,8.2-3.5
			c1.8-0.4,4.6-1.1,8.2-0.7c4.9,0.6,5.9,2.6,9.7,2.6c3.3,0,5.7-1.6,7.2-2.5c11.2-7,78.6-48,91.1-52.8c0.6-0.2,3.8-1.4,7.6-4
			c2.7-1.8,5.6-3.8,6.9-6.5c0.6-1.2,1.8-4.2-3.4-16.5c-3.6-8.5-7.6-15.4-12.7-21.9c-4.3-5.6-6.6-8.4-9.6-8.8
			c-6.1-0.8-14,5.4-14.9,6.2c-0.3,0.2-1.2,1-2.6,1.9c-2.5,1.7-4.4,2.6-4.9,2.9c-6.9,3.4-56.9,32.9-70.6,41.3
			c-9.2,5.6-8,5.4-10.6,6.6c-3,1.4-5.7,2.3-8.1,5.1c-1.6,1.8-2.5,3.9-2.8,4.5c-0.9,2-0.8,2.8-2,6.5c-0.9,2.9-1.4,4.4-1.9,5.2
			c-0.3,0.5-1.2,1.7-5.8,5c-2.9,2-4.4,3-4.4,3c-8.4,5.1-29.5,18.8-34.6,22.5c-1.4,1-3.1,1.8-4.4,3c-1.2,1-2.1,1.9-3.4,2
			c-1.1,0-1.4-0.6-2.3-0.3c-0.8,0.2-1.3,1-2.2,2.5c-0.7,1-0.9,1.5-1.2,1.5c-0.5-0.1-0.3-1.5-1.1-1.8c-1.1-0.5-3.9,1.5-4.5,4.3
			c-0.2,1-0.1,1.8,0,2.1c0.6,3.4,2.7,5.7,4.5,8.5c3,4.6,3.1,7.2,6.4,10.3c0.5,0.5,1.5,1.4,3,1.6c1.7,0.2,3.9-0.4,4.4-1.7
			c0.2-0.5,0-0.9,0.4-1.5c0.5-0.6,1.2-0.8,1.5-0.9c0.8-0.2,0.9,0.1,1.6-0.1c0.8-0.2,1.6-0.8,2-1.6c0.2-0.5,0.1-0.6,0.3-1
			C266.2,404.6,268.7,404.4,269.3,404.3z"/>
		<path class="st9" d="M367.9,364.4c0,0-0.6-1.8-1.9-2.6c-0.6-0.4-1.3-0.4-1.5-0.4c-2,0-7.2-3.2-10.4-5.9
			c-11.1-9.4-13.4-23.2-13.4-23.2c-0.2-1.1-0.3-2-0.3-2.7c-0.4-3.8-0.4-8.9,0.3-10.1c0.1-0.1,0.3-0.5,0.3-1
			c-0.1-0.3-0.2-0.4-0.4-0.6c-0.7-1-0.6-2.5-0.6-2.5l0,0c0,0,30.9-18.3,30.9-18.3l0,0c0,0,8.5,11,15.6,22.7
			c1.7,2.8,2.7,4.6,13.6,25.6l0,0l0,0C399.9,345.5,367.9,364.4,367.9,364.4L367.9,364.4z"/>
		<path class="st10" d="M419.5,334.2c-0.8-0.1-1.3-1.4-1.4-1.7c-0.7-1.9-4.6-8.8-12.4-22.8c-3.8-6.8-13.3-21.4-14.8-22.7
			c-0.1-0.1-0.7-0.7-0.5-0.9c0-0.1,0.1-0.1,0.3-0.2c0.2-0.1,0.4-0.2,0.6-0.4c1.7-1,3.5-2,5.2-3c0.4-0.2,0.6-0.4,0.6-0.4
			c2.6-1.5,3.9-2.4,6.2-3.6c1.1-0.5,1.4-0.6,1.7-0.6c1.6,0.1,2.6,2.2,2.9,2.9c3.7,7.5,9.5,13.7,13.7,20.8
			c4.1,7.1,6.6,15.1,11.4,21.8c0.3,0.4,1.6,2.1,1,3.1c-0.3,0.5-0.9,0.6-1.2,0.7c-0.9,0.2-2.7,1.2-6.3,3.3c-0.9,0.5-3.1,1.7-4.3,2.5
			c0,0-0.3,0.2-0.6,0.4C420.5,333.9,419.9,334.2,419.5,334.2z"/>
		<path class="st11" d="M260,410.9c0.4-1.1-0.9-2.3-2.7-4.6c-1.3-1.7-2-2.9-3.5-5.4c-2.9-4.9-4.9-10.2-6.2-12.1
			c-0.1-0.2-0.3-0.5-0.5-0.9c-0.6-1.3-0.4-1.8-0.8-2c-0.7-0.4-2.4,0.7-3.4,2c-0.3,0.4-1,1.3-1.3,2.8c-0.1,0.9-0.1,2.3,1.6,5.6
			c1.4,2.8,2,2.6,3.7,5.7c1.3,2.4,1.2,2.9,2.7,5.4c1.6,2.6,2.5,3.3,2.9,3.6c0.7,0.5,2.4,1.8,4.6,1.5
			C257.5,412.5,259.5,412.2,260,410.9z"/>

			<ellipse transform="matrix(0.8653 -0.5013 0.5013 0.8653 -125.5872 220.0777)" class="st12" cx="346.6" cy="343.7" rx="11.6" ry="11.6"/>

			<ellipse transform="matrix(0.8653 -0.5013 0.5013 0.8653 -125.7178 220.078)" class="st13" cx="346.6" cy="343.9" rx="9.3" ry="9.3"/>
		<path class="st14" d="M268.5,404.4c-2.4,0.1-3.1-5.6-7.3-11.8c-3-4.6-6.8-7.8-5.8-9.4c0.1-0.1,0.6-0.6,1.7-1.4
			c0.5-0.4,1.5-1.2,2.3-1.7c3.4-2.4,21-14.2,21-14.2l0,0c0,0,17.1-10.3,17.1-10.3l0,0c0,0,0.6-0.5,2.6-1.9
			c1.7,2.9,6.1,10.3,7.8,13.1c1.8,3.1,6.3,10.7,8.2,13.8c0,0-1,0.5-1.9,0.9c-1.4,0.7-1.9,0.9-1.9,0.9c-2.7,1.3-8.9,5.1-14.3,7.9
			c-1.2,0.6-0.4,0.2-4.5,2.2c-4.7,2.3-15.2,7.5-19.2,9.5c0,0-1.3,0.6-3.3,1.5C269.4,404,268.7,404.4,268.5,404.4z"/>
		<g>
			<path class="st15" d="M374.3,355.2c-0.1-0.3-0.4-1-0.3-1.9c0.2-1.2,1.1-1.8,1.3-2c0.8-0.6,2-0.9,2.8-0.6c0.1,0,0.4,0.2,0.5,0.1
				c0-0.1-0.1-0.2-0.2-0.3c-0.3-0.4,0-1,0.1-1.3c0.3-0.8,2.4-3.2,5.2-3c0.3,0,1.4,0.4,3.6,1.2c1,0.4,2.6,1,2.6,1
				c0,0-14.3,8.7-14.3,8.7C375.6,357.1,374.7,356.2,374.3,355.2z"/>
			<path class="st9" d="M376.4,355L376.4,355l3.4-2l0,0c0,0-0.9-0.8-1.8-1c-0.7-0.1-1.6,0.1-2,0.8c-0.3,0.6-0.1,1.2-0.1,1.3
				C376,354.5,376.4,355,376.4,355z"/>
			<path class="st9" d="M381.3,352.1L381.3,352.1c0,0,4.9-2.9,4.9-2.9l0,0c0,0-1.5-1.2-3.1-1.1c-0.9,0-1.5,0.4-2,0.8
				c-0.6,0.3-0.9,0.6-1.1,1c-0.2,0.6,0.1,1.4,0.6,1.7C380.9,351.9,381.6,352.3,381.3,352.1z"/>
			<path class="st15" d="M372.2,351.3c0,0-0.7-1-1.1-1.8c-0.6-1.2-1-1.9-0.8-2.8c0.2-1.1,1-1.8,1.3-2c0.8-0.6,2.1-1,3-0.5
				c0.5,0.2,0.7,0.6,1.2,0.6c0.3-0.1,0.5-0.3,0.7-0.8c0.9-1.6,1.3-2.4,1.4-3.3c0.1-0.8-0.1-1.2,0.1-1.3c0.3-0.1,1.3,0.7,1.4,1.7
				c0.1,0.6-0.2,1.1-0.8,2.1c-0.7,1.1-1,1.7-1.3,2c-0.1,0.1-0.4,0.3-0.4,0.7c0,0.2,0.2,0.5,0.4,0.6c0.3,0.2,0.7,0,1.7-0.6
				c1.9-1,2.5-1.3,2.6-1.9c0.1-0.2,0-0.4,0.1-0.5c0.4-0.2,1.7,1.5,1.7,1.5C383.3,344.8,372.2,351.3,372.2,351.3z"/>
			<path class="st9" d="M372.7,349.3c0,0-0.5-0.6-0.7-1.2c-0.2-0.6,0-1.1,0.1-1.3c0.4-1.1,1.6-1.4,1.7-1.4c0.2,0,0.7-0.2,1.3,0.1
				c0.4,0.2,0.7,0.5,0.8,0.7c0,0,0.1,0.1,0.5,0.9C376.4,347.2,372.7,349.3,372.7,349.3z"/>
			<path class="st15" d="M368.8,344.6L368.8,344.6c-1.8-3.2-3-5.2-3-5.2l0,0c0,0,1-1.3,1.4-1.2c0.2,0.1,0.2,0.5,0.2,1.1
				c0.2,1.4,1,3,1.8,3.1c0.4,0,0.4-0.3,1.5-0.9c0.5-0.2,0.6-0.2,0.6-0.4c0.1-0.5-0.9-1.5-1.7-2.3c-0.1-0.1-0.2-0.2-0.2-0.3
				c0-0.3,0.3-0.4,1.1-1c0.3-0.2,0.5-0.4,0.6-0.4c0.1,0,0.2,0.2,0.2,0.3c0,0.2,0.6,2.7,1.3,2.9c0.3,0.1,0.4-0.2,1.2-0.7
				c1.3-0.8,1.7-0.7,1.8-1.1c0.3-0.8-1.2-2.6-2.8-3.3c-0.3-0.2-0.7-0.3-0.7-0.4c0-0.5,1.9-1.2,2.5-0.6c0.1,0.1,0.2,0.3,0.2,0.3
				c0.5,1.7,3.2,4.7,3.2,4.7l0,0C378,339.3,368.8,344.6,368.8,344.6z"/>
			<path class="st15" d="M364.8,337.8L364.8,337.8c-1.8-3.2-3-5.2-3-5.2l0,0c0,0,1-1.3,1.4-1.2c0.2,0.1,0.2,0.5,0.2,1.1
				c0.2,1.4,1,3,1.8,3.1c0.4,0,0.4-0.3,1.5-0.9c0.5-0.2,0.6-0.2,0.6-0.4c0.1-0.5-0.9-1.5-1.7-2.3c-0.1-0.1-0.2-0.2-0.2-0.3
				c0-0.3,0.3-0.4,1.1-1c0.3-0.2,0.5-0.4,0.6-0.4c0.1,0,0.2,0.2,0.2,0.3c0,0.2,0.6,2.7,1.3,2.9c0.3,0.1,0.4-0.2,1.2-0.7
				c1.3-0.8,1.7-0.7,1.8-1.1c0.3-0.8-1.2-2.6-2.8-3.3c-0.3-0.2-0.7-0.3-0.7-0.4c0-0.5,1.9-1.2,2.5-0.6c0.1,0.1,0.2,0.3,0.2,0.3
				c0.5,1.7,3.2,4.7,3.2,4.7l0,0C374.1,332.5,364.8,337.8,364.8,337.8z"/>
			<path class="st15" d="M356.6,323.7c-1-1.6-1.9-3.3-2.9-4.9l0,0c0,0,1.7-1.2,1.8-1.1c0,0.1-0.3,0.2-0.4,0.7
				c-0.1,0.4,0.1,0.8,0.6,1.7c0.4,0.7,0.8,1.4,1.2,1.4c0.1,0,0.1,0,0.1,0c0.2-0.1,0.4-0.4,1.4-0.9c0.7-0.4,0.9-0.3,0.9-0.5
				c0.2-0.6-0.8-1.9-1.4-2.5c0,0-0.2-0.2-0.2-0.3c0.1-0.2,0.5,0,1.1-0.2c0.2-0.1,0.5-0.3,0.6-0.4c0.3-0.2,0.3-0.2,0.3-0.2
				c0.4,0.1,0.1,2.6,0.8,2.8c0.2,0.1,0.4-0.2,0.9-0.5c1.5-1.1,2.5-0.9,2.8-1.6c0.1-0.2-0.1-0.6-0.4-1.4c-0.4-1-0.6-1.5-1.1-1.8
				c-0.4-0.3-0.7-0.3-0.7-0.4c0-0.3,1.5-0.5,2.2-0.5c0.1,0,0.3,0,0.5,0.1c0.3,0.3,0.2,0.9,0.2,1.1c-0.1,0.6,0,1.8,0.7,4.1
				C362.8,320.1,359.7,321.9,356.6,323.7z"/>
			<path class="st15" d="M362.5,330.2c-0.1,0.5-2.2,0.5-2.2,0.5l0,0c0,0-3.2-5.5-3.2-5.5l0,0c0,0,2.4-0.2,3.2-0.2
				c4.9-0.3,6.9,0.3,7.1-0.4c0.3-0.7-1.1-2.3-2.3-3.2c-0.5-0.4-0.9-0.5-0.8-0.7c0-0.6,2-1.2,3-0.5c0.5,0.3,0.4,0.8,0.8,2
				c0,0,0.1,0.5,2,4.2l0,0c0,0-2.4,0.3-4.3,0.4c-3.6,0.2-5.4-0.6-5.7,0c-0.3,0.6,0.8,1.9,1.4,2.5C362,329.7,362.5,329.9,362.5,330.2
				z"/>
			<path class="st15" d="M353.2,317.8L353.2,317.8c0,0,10.8-6.2,10.8-6.2l0,0c0,0,0.4-1.8,0-2.1c-0.7-0.5-4.2,4.2-5.4,3.5
				c-0.2-0.1-0.4-0.4-0.4-0.6c0-0.5,0.7-0.8,1.1-1c0.9-0.5,1.7-1.3,3.2-3.1c1.6-1.8,1.8-2.8,1.9-3.1c0.1-0.7,0.1-1.5-0.1-1.6
				c-0.2-0.1-0.5,0.7-0.9,1.3c-1.4,2.6-2.4,2.2-4.5,5.1c-0.4,0.5-0.9,1.3-1.7,1.4c-0.4,0-0.7-0.2-1-0.3c-1.6-0.6-5,1.4-5.1,3.3
				C351.2,316,353.2,317.8,353.2,317.8z"/>
			<path class="st9" d="M353.8,315.9c0,0-0.4-0.5-0.5-0.9c-0.2-0.6,0.3-1.3,0.4-1.5c0.3-0.5,1-1.1,1.8-1.1c1,0.1,2,1.3,2,1.3l0,0
				L353.8,315.9L353.8,315.9z"/>
		</g>
	</g>
	<path class="st16" d="M442.7,328.7c0,0-2.6-2.1-3-4.4c-0.3-1.5,0.4-2.5,1.2-4.2c0.8-1.6,1.3-4.6,2.5-10.5c0.7-3.5,1.3-6.2,1.4-8.4
		c0.5-7.8-4.2-9-8.8-21.9c-1.1-3.2-4.6-13.3-8.2-16c-1.6-1.1-3.3-1.6-3.3-1.6c-0.9-0.2-2.4-0.6-4.2-0.2c-0.6,0.1-2.3,0.6-3.7,2.2
		c-0.6,0.7-1.6,1.8-1.6,3.3c0,0.9,0.4,1.4,0.1,2.5c-0.1,0.4-0.3,1.3-0.9,1.4c-0.6,0.1-1.2-0.7-1.4-0.9c-0.5-0.7-0.6-1.3-0.8-1.7
		c-0.7-2.2-3.6-3.2-4.1-3.3c-0.6-0.2-2.3-0.7-4.2-0.2c-2.5,0.7-3.7,2.7-4.2,3.4c-0.7,1.1-1.7,2.7-1.2,4.2c0.1,0.4,0.4,1,0.3,1.9
		c0,0.4-0.1,1.1-0.5,1.3c-0.5,0.2-1.4-0.6-2.3-1.6c-1.4-1.4-1.4-1.9-2.2-2.6c-0.3-0.3-1.5-1.4-3.3-1.6c-2.5-0.3-4.4,1.2-5.4,1.9
		c-0.7,0.6-1.3,1-1.8,1.8c-1.1,2-0.5,4.4-0.4,4.9c0.2,0.6,0.7,2.5,0.7,3.8c0,0.2,0,0.5-0.2,0.6c-0.1,0.1-0.4,0.2-1.3-0.5
		c-1.4-1.1-1.7-2.3-2.4-3.1c-1.9-2.1-6.3-0.8-6.5-0.7c-0.8,0.2-3.5,1.1-4.6,3.6c-0.7,1.7-0.4,3.3-0.2,4.2c0.5,2.2,1.9,4.4,2.1,4.7
		c0.4,0.7,1,1.4,0.8,1.7c-0.2,0.2-0.7,0-1.1,0c0,0-2.3-0.6-5.1,0.2c-2,0.6-3.2,2.2-3.5,2.6c-0.3,0.4-1.2,1.8-1.4,3.8
		c-0.2,2.3,0.7,4.1,1.1,4.7c2.2,4.2,3.9,8.6,6.3,12.7c6.2,10.9,4,13,8.6,16.9c1.4,1.2,4.8,3.7,9.1,5.2c2.6,1,5.1,2.2,7.7,3.3
		c0.8,0.3,1.4,0.6,2.1,1.1c0,0,1.2,1,3,5.4l0,0C397.9,348.9,442.7,328.7,442.7,328.7L442.7,328.7z"/>
	<path class="st21" d="M475.6,261.2L475.6,261.2c0,0-0.2-23.7,3.2-42c1.8-9.8,4.9-26.6,17.2-43.1c4.8-6.5,19.1-23.8,44.2-31.3
		c7.4-2.2,20.5-5.9,36.7-2.2c19.8,4.6,31.4,17.6,38.8,25.9c7.6,8.5,13.6,15.2,15.1,25.9c1.8,13.3-4.7,23.8-8.6,30.2
		C608.3,247,585,255,579,256.9c-9.4,2.9-8.1,0.7-53.9,2.2C525.1,259,518,259.3,475.6,261.2z"/>
	<path class="st22" d="M631.9,291.4c0,0,2.3-15.8,6.5-45.3c1.2-8.7,3.2-12.8,4.3-21.6c0.2-1.6,0.8-6.6,0-12.9
		c-0.5-3.7-0.7-6-2.2-8.6c-3.1-5.8-9.5-9.7-10.8-8.6c-0.5,0.4-0.2,1.5,0,2.2c1.2,4.5,0,6.6,0,17.2c0,13.6,1.9,28.7,2.2,53.9
		C632,276.2,631.9,291.4,631.9,291.4z"/>
	<g>
		<polyline class="st23" points="496,253.6 504.7,253.6 631.9,253.6 		"/>
		<path class="st0" d="M507.9,246.1L507.9,246.1L507.9,246.1c16.5,0,33.1,0,49.6,0l0,0l0,0c0,0.1,0,4.2,0,4.3c0,2.9-2,9.3-6.5,15.1
			c-3.3,4.2-9.1,11.8-19.4,12.9c-7.6,0.8-17.2-1.9-21.6-8.6C507.9,266.4,507.9,263.3,507.9,246.1z"/>
		<path class="st0" d="M622.2,246.1c-16.5,0-33.1,0-49.6,0c0,0.1,0,4.2,0,4.3c0,2.9,2,9.3,6.5,15.1c3.3,4.2,9.1,11.8,19.4,12.9
			c7.6,0.8,17.2-1.9,21.6-8.6C622.2,266.4,622.1,263.3,622.2,246.1z"/>
	</g>
	<path class="st24" d="M500,524c-6.7,5.3-1.2,14.7-2,53c-0.3,13.5-1.7,19.8-1.5,34.3c0.2,9.3,1,25.2,1,25.2l0,0c0,0,64,0,64,0l0,0
		C562,621.8,562,621,562,621c0.6-19.1,1.1-26,1-26c-0.1,0-1.6,10-1,23c0.3,7.9,1.5,18.5,1.5,18.5l0,0c0,0,60,0,60,0l0,0
		c0,0,1.3-13.8,1.5-15.5c2-20.8,2.8-28,2-52c-1.1-32.4-2.6-36.3-6-39c-11.3-8.9-26.4,8.9-57,9C528.6,539.1,511.1,515.2,500,524z"/>
	<linearGradient id="SVGID_2_" gradientUnits="userSpaceOnUse" x1="498" y1="460.5" x2="626" y2="460.5">
		<stop  offset="0.5248" style="stop-color:#20D7A4"/>
		<stop  offset="0.5275" style="stop-color:#5CBFA0"/>
	</linearGradient>
	<path class="st25" d="M498.7,525.1c0,0,14.9,12.3,25.5,18.6c15.3,9,28,9.2,43.3,9.3c8.6,0.1,18.8-0.8,30.6-4.7
		c8.2-2.7,26.8-9.1,28-23.3c0-0.3,0-0.3,0-4.7c-0.1-13.2,0-21.7,0-23.3c-0.1-46.7-12.7-79.1-12.7-79.1
		c-10.1-25.8-23.8-37.4-30.6-41.9c-5.5-3.7-25-16.2-45.8,0c-12.4,9.7-19.5,25-22.9,32.6c-2,4.4-12.8,29-15.3,65.2
		C497.2,496,498.7,525.1,498.7,525.1L498.7,525.1z"/>
	<g>
		<path class="st7" d="M646.6,350.3c-0.4,0.3-2,2.9-5.1,8c-7.1,11.7-15.4,22.8-21.6,35c-0.7,1.4-2.4,4.6-5.7,7.9
			c-1.4,1.4-3.7,3.6-7.3,5.3c-4.9,2.2-7,0.9-10.5,3.1c-3,1.9-4.4,4.6-5.3,6.4c-6.4,12.8-46,88.7-55,100.2c-0.4,0.5-2.7,3.5-4.8,7.9
			c-1.5,3.2-3,6.6-2.8,9.9c0.1,1.4,0.7,4.9,12.4,13.4c8.1,5.9,15.7,10,24,13.2c7.2,2.8,10.8,4.1,13.9,2.8
			c6.1-2.6,9.9-12.9,10.4-14.1c0.2-0.4,0.6-1.6,1.3-3.2c1.3-2.9,2.7-4.9,3-5.4c4.5-7,34.3-62.5,42.4-78c5.4-10.4,4.4-9.5,6.2-12
			c2-2.9,4-5.3,4.7-9.3c0.4-2.6,0.1-5,0-5.7c-0.3-2.4-0.8-3-1.8-7.2c-0.8-3.2-1.2-4.8-1.2-5.9c0-0.7,0.1-2.3,2.5-7.9
			c1.5-3.5,2.4-5.3,2.4-5.3c5-9.5,16.8-34,19.5-40.4c0.8-1.8,1.8-3.4,2.4-5.3c0.6-1.6,0.8-3,2-3.7c1-0.6,1.6-0.2,2.3-0.9
			c0.6-0.6,0.6-1.6,0.7-3.6c0-1.3-0.1-1.9,0.3-2.1c0.5-0.2,1.2,1.2,2,1.1c1.3-0.1,2.8-3.6,1.8-6.5c-0.3-1-0.9-1.7-1.1-1.9
			c-2.5-2.8-5.7-3.8-9-5.4c-5.4-2.6-6.9-5-11.7-6c-0.8-0.2-2.2-0.4-3.6,0.2c-1.7,0.7-3.4,2.6-3.1,4c0.1,0.6,0.5,0.8,0.5,1.6
			c-0.1,0.8-0.7,1.4-0.9,1.7c-0.6,0.6-0.9,0.4-1.4,1c-0.7,0.7-1,1.7-1,2.6c0.1,0.5,0.2,0.7,0.3,1
			C649.3,348.2,647.1,349.9,646.6,350.3z"/>
		<path class="st9" d="M577.4,442.7c0,0,1.6,1.4,3.2,1.3c0.8,0,1.4-0.3,1.6-0.5c1.9-1.1,8.5-1.1,13-0.4c15.6,2.5,25.5,14,25.5,14
			c0.8,0.9,1.4,1.7,1.8,2.3c2.5,3.3,5.4,8,5.4,9.5c0,0.1,0,0.7,0.3,1c0.2,0.2,0.4,0.3,0.7,0.4c1.3,0.5,2,2,2,2l0,0
			c0,0-18.4,34.4-18.4,34.4l0,0c0,0-14-5.4-27.3-12.3c-3.2-1.7-5.1-2.8-26.9-16.1l0,0l0,0C558.3,478.2,577.4,442.7,577.4,442.7
			L577.4,442.7z"/>
		<path class="st10" d="M546.6,499.7c0.8-0.4,2,0.6,2.2,0.8c1.7,1.3,9.2,5.6,24.3,14.2c7.3,4.2,24.4,12.4,26.5,12.8
			c0.1,0,1,0.2,1,0.6c0,0.1-0.1,0.1-0.2,0.3c-0.1,0.2-0.2,0.5-0.4,0.7c-1.1,1.9-2.1,3.8-3.2,5.8c-0.2,0.5-0.4,0.7-0.4,0.7
			c-1.5,2.8-2.2,4.5-3.7,6.8c-0.7,1.1-0.9,1.3-1.3,1.5c-1.6,0.8-3.7-0.6-4.3-1c-7.6-4.9-16.5-7.3-24.4-11.6
			c-7.8-4.2-14.6-10.3-22.8-13.8c-0.5-0.2-2.6-1.1-2.7-2.3c0-0.6,0.5-1.1,0.7-1.4c0.7-0.7,1.8-2.7,4.1-6.6c0.5-0.9,1.9-3.3,2.6-4.7
			c0,0,0.1-0.3,0.4-0.7C545.7,500.5,546.1,499.9,546.6,499.7z"/>
		<path class="st11" d="M651.6,338.9c0.3,1.3,2.1,1.6,5.1,2.8c2.1,0.8,3.5,1.6,6.3,3c5.5,2.9,10.3,6.7,12.5,7.7
			c0.2,0.1,0.6,0.3,1,0.6c1.3,0.8,1.4,1.4,1.8,1.5c0.9,0,1.8-2,2-3.7c0.1-0.5,0.2-1.8-0.4-3.3c-0.4-0.9-1.2-2.2-4.7-4.3
			c-2.8-1.8-3.3-1.3-6.6-3.2c-2.6-1.5-2.7-2-5.6-3.5c-2.9-1.5-4.2-1.7-4.8-1.7c-1-0.1-3.3-0.3-5.1,1.2
			C653,336,651.3,337.4,651.6,338.9z"/>

			<ellipse transform="matrix(0.4811 -0.8767 0.8767 0.4811 -78.5439 767.2909)" class="st12" cx="608.9" cy="450" rx="12.5" ry="12.5"/>

			<ellipse transform="matrix(0.4811 -0.8767 0.8767 0.4811 -78.3537 767.0879)" class="st13" cx="608.8" cy="449.7" rx="10" ry="10"/>
		<path class="st14" d="M647.3,349.8c2.2-1.4,6.1,3.5,13.4,6.9c5.4,2.5,10.7,3.4,10.7,5.4c0,0.2-0.3,0.9-0.8,2.2
			c-0.2,0.6-0.7,1.9-1.1,2.9c-1.8,4.2-11.5,25-11.5,25l0,0c0,0-10.1,19.1-10.1,19.1l0,0c0,0-0.3,0.8-1.3,3.2
			c-3.2-1.7-11.5-6.1-14.6-7.8c-3.4-1.8-11.9-6.4-15.3-8.2c0,0,0.6-1,1.3-1.9c0.9-1.4,1.3-1.9,1.3-2c1.8-2.7,5.4-9.7,8.9-15.4
			c0.8-1.3,0.3-0.4,2.9-4.6c3.1-4.8,9.9-15.5,12.5-19.6c0,0,0.8-1.3,2.2-3.2C646.7,350.6,647.2,349.9,647.3,349.8z"/>
		<g>
			<path class="st15" d="M576.7,454.8c0.3,0.2,1,0.7,1.3,1.6c0.5,1.2,0,2.3-0.1,2.6c-0.4,1-1.4,2-2.2,2.1c-0.1,0-0.5,0.1-0.5,0.2
				c0,0.1,0.2,0.1,0.3,0.2c0.5,0.2,0.6,0.9,0.6,1.2c0.2,1-0.4,4.4-3.2,5.8c-0.3,0.1-1.5,0.4-4,0.9c-1.1,0.2-3,0.6-3,0.6
				c0,0,8.4-16.1,8.4-16.1C574.4,453.8,575.7,454.1,576.7,454.8z"/>
			<path class="st9" d="M574.8,456.2L574.8,456.2l-2,3.7l0,0c0,0,1.3,0.3,2.2-0.1c0.7-0.3,1.5-1,1.5-1.8c0-0.7-0.6-1.2-0.6-1.2
				C575.5,456.4,574.8,456.2,574.8,456.2z"/>
			<path class="st9" d="M571.9,461.6L571.9,461.6c0,0-3,5.4-3,5.4l0,0c0,0,2.1,0.2,3.5-0.7c0.8-0.5,1.2-1.3,1.5-1.8
				c0.3-0.6,0.5-1,0.4-1.5c-0.2-0.7-0.9-1.2-1.5-1.3C572.4,461.6,571.6,461.6,571.9,461.6z"/>
			<path class="st15" d="M580.8,457.3c0,0,1.2,0.6,2,1.1c1.2,0.8,2,1.2,2.3,2.2c0.4,1.1,0.1,2.2-0.1,2.6c-0.4,1-1.4,2-2.5,2.2
				c-0.6,0.1-1.1-0.2-1.4,0.1c-0.2,0.2-0.2,0.6-0.2,1.2c0.1,2,0.1,3,0.5,3.8c0.4,0.8,0.8,1,0.6,1.2c-0.2,0.3-1.6,0.1-2.2-0.8
				c-0.4-0.5-0.4-1.1-0.4-2.4c0-1.4,0-2.2,0.1-2.6c0.1-0.2,0.2-0.6,0-0.9c-0.1-0.2-0.4-0.4-0.7-0.4c-0.4,0-0.6,0.4-1.3,1.5
				c-1.2,2-1.6,2.6-1.3,3.2c0.1,0.3,0.2,0.4,0.2,0.5c-0.3,0.4-2.4-0.4-2.4-0.4C574.2,469.5,580.8,457.3,580.8,457.3z"/>
			<path class="st9" d="M581.5,459.4c0,0,0.8,0.3,1.4,0.7c0.5,0.5,0.6,1.1,0.6,1.2c0.2,1.2-0.7,2.1-0.8,2.2
				c-0.2,0.2-0.6,0.6-1.2,0.6c-0.5,0.1-0.9-0.1-1.2-0.2c0,0-0.2-0.1-1-0.6C579.2,463.5,581.5,459.4,581.5,459.4z"/>
			<path class="st15" d="M587.8,461.5L587.8,461.5c3.5,1.9,5.8,3.2,5.8,3.2l0,0c0,0-0.1,1.8-0.6,1.9c-0.2,0-0.5-0.4-0.8-0.9
				c-1-1.2-2.6-2.3-3.4-1.9c-0.4,0.2-0.2,0.5-0.9,1.7c-0.3,0.5-0.4,0.5-0.4,0.7c0.1,0.5,1.7,0.9,2.9,1.1c0.1,0,0.2,0.1,0.3,0.2
				c0.2,0.2-0.1,0.5-0.4,1.5c-0.1,0.4-0.2,0.6-0.4,0.7c-0.1,0-0.3-0.1-0.3-0.2c-0.1-0.1-2-2.2-2.9-2c-0.3,0.1-0.2,0.4-0.7,1.4
				c-0.8,1.5-1.2,1.6-1.1,2c0.2,0.9,2.5,1.8,4.4,1.6c0.4,0,0.8-0.1,0.9,0c0.3,0.4-1.1,2.2-2,2c-0.2,0-0.3-0.1-0.3-0.2
				c-1.4-1.3-5.6-2.6-5.6-2.6l0,0C582.2,471.7,587.8,461.5,587.8,461.5z"/>
			<path class="st15" d="M595.2,465.6L595.2,465.6c3.5,1.9,5.8,3.2,5.8,3.2l0,0c0,0-0.1,1.8-0.6,1.9c-0.2,0-0.5-0.4-0.8-0.9
				c-1-1.2-2.6-2.3-3.4-1.9c-0.4,0.2-0.2,0.5-0.9,1.7c-0.3,0.5-0.4,0.5-0.4,0.7c0.1,0.5,1.7,0.9,2.9,1.1c0.1,0,0.2,0.1,0.3,0.2
				c0.2,0.2-0.1,0.5-0.4,1.5c-0.1,0.4-0.2,0.6-0.4,0.7c-0.1,0-0.3-0.1-0.3-0.2c-0.1-0.1-2-2.2-2.9-2c-0.3,0.1-0.2,0.4-0.7,1.4
				c-0.8,1.5-1.2,1.6-1.1,2c0.2,0.9,2.5,1.8,4.4,1.6c0.4,0,0.8-0.1,0.9,0c0.3,0.4-1.1,2.2-2,2c-0.2,0-0.3-0.1-0.3-0.2
				c-1.4-1.3-5.6-2.6-5.6-2.6l0,0C589.6,475.8,595.2,465.6,595.2,465.6z"/>
			<path class="st15" d="M610.8,474.2c1.8,1,3.6,2,5.4,3l0,0c0,0-1,2.1-1.1,2c-0.1,0,0.2-0.4,0-0.9c-0.1-0.4-0.6-0.7-1.5-1.3
				c-0.8-0.5-1.5-0.8-1.9-0.6c-0.1,0-0.1,0.1-0.1,0.1c-0.2,0.2-0.2,0.6-0.8,1.6c-0.4,0.7-0.6,0.8-0.6,1c0.1,0.7,1.9,1.3,2.7,1.5
				c0.1,0,0.3,0.1,0.3,0.2c0,0.2-0.5,0.3-0.9,0.8c-0.1,0.2-0.3,0.5-0.4,0.7c-0.2,0.3-0.1,0.3-0.2,0.3c-0.4,0.2-1.6-2.3-2.3-2.2
				c-0.2,0.1-0.3,0.4-0.6,1c-0.8,1.9-1.9,2.3-1.7,3c0.1,0.2,0.4,0.5,1.2,1.1c0.9,0.7,1.3,1,2,1.1c0.5,0.1,0.8-0.1,0.9,0
				c0.2,0.3-1.2,1.3-1.8,1.7c-0.1,0.1-0.3,0.2-0.5,0.2c-0.5-0.1-0.7-0.7-0.8-0.9c-0.3-0.6-1-1.7-3-3.4
				C607.1,480.9,608.9,477.6,610.8,474.2z"/>
			<path class="st15" d="M601.7,471.4c-0.2-0.5,1.8-1.7,1.8-1.7l0,0c0,0,6.1,3.3,6.1,3.3l0,0c0,0-2.1,1.5-2.8,2
				c-4.4,3-6.5,3.6-6.4,4.4c0.1,0.8,2.3,1.6,3.9,1.7c0.7,0,1.1,0,1.2,0.2c0.3,0.5-1.2,2.3-2.5,2.2c-0.6-0.1-0.8-0.5-1.8-1.5
				c0,0-0.4-0.4-4.2-2.8l0,0c0,0,2.1-1.7,3.7-2.8c3.3-2.2,5.4-2.5,5.3-3.3c-0.1-0.7-1.9-1.3-2.7-1.5
				C602.4,471.6,601.8,471.7,601.7,471.4z"/>
			<path class="st15" d="M617.2,477.7L617.2,477.7c0,0-6.5,11.8-6.5,11.8l0,0c0,0,0.6,1.9,1.1,1.9c1,0,1.6-6.2,3-6.3
				c0.2,0,0.5,0.1,0.7,0.4c0.3,0.5-0.2,1.2-0.4,1.5c-0.6,1-0.8,2.2-1.2,4.6c-0.5,2.6-0.1,3.6,0,4c0.3,0.7,0.8,1.5,1,1.4
				c0.2-0.1,0.1-0.9,0.1-1.7c-0.1-3.2,1-3.4,1.3-7.2c0.1-0.7,0.1-1.7,0.8-2.2c0.4-0.3,0.8-0.3,1-0.3c1.9-0.3,3.8-4.1,2.8-5.9
				C620.1,478.2,617.2,477.7,617.2,477.7z"/>
			<path class="st9" d="M617.8,479.8c0,0,0.7,0.2,1,0.6c0.5,0.5,0.5,1.3,0.5,1.6c0,0.6-0.3,1.6-1.1,2c-1,0.5-2.6-0.1-2.6-0.1l0,0
				L617.8,479.8L617.8,479.8z"/>
		</g>
	</g>
</g>
</svg>
