<?xml version="1.0" encoding="utf-8"?>
<!-- Generator: Adobe Illustrator 21.1.0, SVG Export Plug-In . SVG Version: 6.00 Build 0)  -->
<svg version="1.1" id="Lag_1" xmlns="http://www.w3.org/2000/svg" xmlns:xlink="http://www.w3.org/1999/xlink" x="0px" y="0px"
	 viewBox="0 0 718.7 582" style="enable-background:new 0 0 718.7 582;" xml:space="preserve">
<style type="text/css">
	.st0{fill:#F7D98D;}
	.st1{fill:#89CCE5;}
	.st2{fill:#EAAC41;}
	.st3{fill:#C07D08;}
	.st4{fill:#FCBA83;}
	.st5{fill:#333333;}
	.st6{fill:#EDB143;}
	.st7{fill:#552E0F;}
	.st8{fill:#2F1A09;}
	.st9{fill:#F9BE93;}
	.st10{fill:#5A3312;}
	.st11{fill:none;stroke:#2F1A09;stroke-miterlimit:10;}
	.st12{fill:#F4912D;}
	.st13{fill:#070606;}
	.st14{fill:#E20E23;}
	.st15{fill:#962D69;}
	.st16{fill:#72263C;}
	.st17{fill:#FFFFFF;}
	.st18{fill:none;stroke:#EFE6DF;stroke-width:4;stroke-miterlimit:10;}
	.st19{fill:#DEF9FF;}
	.st20{fill:#F90D94;}
	.st21{fill:none;stroke:#020202;stroke-width:2;stroke-miterlimit:10;}
</style>
<polyline class="st0" points="40.5,280.7 678.8,280.7 678.8,574.3 40.5,574.3 "/>
<polyline class="st1" points="40,6.3 678.8,6.3 678.8,303.7 40,303.7 "/>
<path class="st2" d="M407.9,196.2c-5.7,0.4-9.8,2.9-11.8,4.3c-2.6,1.7-11,7.2-16.3,20.3c-3.8,9.5-3.9,18.2-4.1,30.3
	c-0.2,15-0.3,25.4,4.4,36.1c7.6,17.4,21.2,20.9,22.9,21.2c10.1,2.3,18-2.7,21.4-5.4c7.3-5.5,11.1-13.3,11.8-14.9
	c4.7-9.8,5.2-19.6,6-31.9c0.4-6.4,0.7-13.4-0.7-22.3c-0.7-4.1-1.8-11.1-5.2-18.1C430.2,203,418.8,195.5,407.9,196.2z"/>
<path class="st3" d="M386.7,250c-1.2,3-1.6,5.8-2.1,10.6c-0.6,5.6-2.1,18.4,2.8,29.8c4.8,11,12.6,14,14.9,14.9
	c2,0.8,10.4,3.6,19.2-3.2c2-1.5,7.9-6.3,11.4-17c0.5-1.8,5.6-17.9,0-30.9c-2.6-5.9-6.1-8.5-9.2-10.6
	C411.4,235.1,392.6,235.3,386.7,250z"/>
<path class="st4" d="M388.8,219.9c0,0-1,1.4-1.8,2.9c-2.8,5.5-1.4,15.2-1.1,26.7c0.3,9-0.4,8.7,0.4,11.9c2.3,9.8,9.2,15.1,10,15.6
	c7.1,5.2,16.9,5.8,24.5,0.4c0.4-0.3,7.6-5.6,10-15.6c0.4-1.7,0.4-2.8,0.7-7.4c1.2-24,0.4-27.2-0.7-29.5c-2.4-5.5-6.2-8.6-7.8-9.8
	c-11.7-9.1-25.8-2.4-29.2,0C390.9,217.1,388.8,219.9,388.8,219.9z"/>
<path class="st5" d="M391.7,239.6c-0.1-0.2,0.7-1.6,2.1-2.4c1.7-1.1,4-1.1,5.7,0c1.4,0.9,2.2,2.3,2.1,2.4c-0.1,0.2-1.1-1.1-2.8-1.7
	c-2-0.7-3.9-0.1-4.3,0C392.7,238.6,391.8,239.8,391.7,239.6z"/>
<path class="st5" d="M416.6,239.6c-0.1-0.2,0.7-1.6,2.1-2.4c1.7-1.1,4-1.1,5.7,0c1.4,0.9,2.2,2.3,2.1,2.4c-0.1,0.2-1.1-1.1-2.8-1.7
	c-2-0.7-3.9-0.1-4.3,0C417.6,238.6,416.7,239.8,416.6,239.6z"/>
<ellipse class="st5" cx="397.7" cy="245.8" rx="2.5" ry="2.9"/>
<ellipse class="st5" cx="420.5" cy="245.8" rx="2.5" ry="2.9"/>
<path class="st4" d="M404.5,278.8c-0.6,0.7-0.4,1.9,0.4,5.2c1.4,6.6,1.3,7.4,2.5,11.3c1.4,4.8,2,5,2.1,5c0.4,0,0.7-1.3,1.4-5
	c0.7-3.6,1.3-7.3,2.1-10.9c0.8-3.6,1.3-4.9,0.7-5.5c-0.7-0.8-1.8,0.1-5,0C406.1,278.7,405.1,278.1,404.5,278.8z"/>
<path class="st6" d="M382.4,215.8c-0.6,3.7,4.8,7.6,7.8,9.8c6.3,4.6,10.6,7.7,17.1,8.2c0,0,12.4,1.1,26.3-14.8
	c0.7-0.8,2.5-2.8,2.1-5c-0.1-0.9-0.5-1.5-0.7-1.7c-10.1-13.7-24.9-13.9-24.9-13.9s-15.6-0.2-27,15.6
	C382.9,214.5,382.5,215,382.4,215.8z"/>
<path class="st7" d="M257.9,201.4c-3.5,1.2-8.4,2.8-12.4,7.6c-2,2.3-4.5,6.3-6.2,18.1c-1.6,10.9-0.2,12.9-0.7,27.9
	c-0.5,15.4-2.2,19.2,0,27.9c1,4.1,2.1,8.6,5.5,12.9c7.6,9.7,19.9,9.8,24.9,9.8c5.2,0,14.1,0.1,21.4-6.8c5.2-4.9,7-11,8.3-15.1
	c2.6-8.7,0.8-11.8,0.7-28.7c-0.1-17.3,1.8-20.7-0.7-31c-2.4-9.9-6-14.1-6.9-15.1c-5.3-5.9-11.9-7.4-15.9-8.3
	C266.9,198.6,259.8,200.8,257.9,201.4z"/>
<path class="st8" d="M246.2,234.7c-1,1.9-0.4,2.3-0.7,12.9c-0.4,14.5-1.4,19.9-0.7,32.5c0.4,5.9,0.8,9.3,2.8,12.9
	c2.7,4.9,6.4,7.2,8.3,8.3c7.6,4.7,19.6,6.1,28.3-0.8c1.3-1.1,5.3-4.5,7.6-10.6c1.3-3.5,1.4-6.5,1.4-12.1c-0.1-11.9-1-17.4-1.4-26.5
	c-0.6-14.3,0.9-14.5-0.7-17.4C284.3,221.3,252.7,221.5,246.2,234.7z"/>
<path class="st9" d="M249,219.5c0,0-1,1.3-1.7,2.6c-2.8,5.1-1.4,14-1.1,24.5c0.3,8.3-0.4,8,0.4,11c2.2,9.1,9,13.9,9.7,14.4
	c6.9,4.8,16.4,5.4,23.8,0.4c0.4-0.3,7.4-5.2,9.7-14.4c0.4-1.6,0.4-2.6,0.7-6.8c1.2-22.1,0.3-25-0.7-27.3c-2.3-5.2-6-7.9-7.6-9.1
	c-11.4-8.3-25.1-2.2-28.3,0C250.9,217,249,219.5,249,219.5z"/>
<path class="st5" d="M251.7,237.7c-0.1-0.2,0.7-1.5,2-2.2c1.7-1,3.8-1,5.5,0c1.3,0.8,2.2,2.1,2,2.2c-0.1,0.2-1.1-1-2.8-1.6
	c-2-0.7-3.7-0.1-4.2,0C252.8,236.8,251.8,237.8,251.7,237.7z"/>
<path class="st5" d="M275.9,237.7c-0.1-0.2,0.7-1.5,2-2.2c1.7-1,3.8-1,5.5,0c1.3,0.8,2.2,2.1,2,2.2c-0.1,0.2-1.1-1-2.8-1.6
	c-2-0.7-3.7-0.1-4.2,0C277,236.8,276,237.8,275.9,237.7z"/>
<ellipse class="st5" cx="257.6" cy="243.4" rx="2.4" ry="2.6"/>
<ellipse class="st5" cx="279.6" cy="243.4" rx="2.4" ry="2.6"/>
<path class="st10" d="M238.7,233.9c0.7,2.4,9.6,2.3,16.5-0.8c2.7-1.2,6.3-2.8,9-6.8c2.8-4.2,2.8-8.3,4.2-8.3s1.6,4.4,4.8,9.1
	c0.2,0.3,2.6,3.7,6.2,6c7.9,5.2,19.6,3.9,20.7,0c0.2-0.5,0.1-0.8,0-1.6c-0.7-5.1-1.1-7.6-2-10.6c-1.6-4.7-2.8-8-5.5-11.3
	c-3.8-4.6-8.2-6.4-11-7.6c-5.9-2.4-10.8-2.3-13.8-2.2c-3.6,0.1-8.4,0.2-13.8,3c-2.2,1.2-6,3.1-9,7.6c-2.4,3.5-3.4,7.2-4.2,9.8
	c-0.2,0.7-0.6,2.7-1.4,6.8c0,0-0.3,1.6-0.7,6C238.6,233.6,238.6,233.7,238.7,233.9z"/>
<path class="st11" d="M400.1,265.4c1.9,1.6,3.6,2.3,4.8,2.8c1.6,0.6,4.7,1.8,8.4,0.7c1.9-0.5,3.3-1.5,4.2-2"/>
<path class="st9" d="M274.6,280.3l13.6,5.4l26.3,34.8c0,0-20.4,33.2-23.3,35.3c-3,2,3.9,4.7,3.4,10.5c-0.2,1.8,4.4,1.6,4.4,2.3
	c0,0-5,2.6-7.3,1.1s-5.2-5.5-5.2-5.5l26.9,148.7l5.3,9.2l12.5,3.7l0.3,11.6l-29.8-5.9c0,0,0.1-16.2,1.4-18.3
	c1.3-2.1-23.9-54.3-20.4-69.8c2-8.9-17.6-49.6-18.1-51.1l-7,50.1v70.2l2,15.3l-0.5,9.4h-11.6v-25.7l-14-136.8
	c0,0,13.2-24.1,19.8-27.8s-6.1-32.1-6.1-32.1s-8.1,28.8-11.5,28.1c-3.4-0.7-14.5-31-12.5-49.6c0,0-8.1-2.4-2.8-11.3
	c0,0-3.9-8-1.8-9.8c2-1.8,4.4,8,4.4,8s0.5-7.2,1.7-8.2s1.4,7.9,1.4,7.9s4.7,6.7,2.8,11s7,28.4,7,28.4s4-33.5,18.4-35.5
	c6.7-4,6.7-4,6.7-4L274.6,280.3z"/>
<path class="st0" d="M287.2,350.3l16.2-29.9l-12.7-15.6c0,0,1.2,6.2-2.1,18.3C285.8,333,287.2,350.3,287.2,350.3z"/>
<path class="st12" d="M251.8,327c0,0,11.4-6.6,35.8,0.5c9.5-16.7-0.9-31.1-2.1-31.1l-0.5-12.1l-3.4-1.4l0.8,15.4l-10.3,17.1
	l-4.7,0.2l-10.8-15.8l-0.4-17.2l-3,1.4v14.4c0,0-6.6,11.3-6.4,16.2C246.8,319.5,251.8,327,251.8,327z"/>
<path class="st9" d="M264.2,275.4c-0.6,0.6-0.3,1.8,0.4,4.8c1.3,6.1,1.2,6.8,2.4,10.4c1.4,4.4,1.9,4.6,2,4.6c0.4,0,0.7-1.2,1.4-4.6
	c0.7-3.3,1.2-6.7,2-10c0.8-3.3,1.3-4.5,0.7-5.2c-0.7-0.7-1.8,0.1-4.8,0C265.7,275.4,264.8,274.8,264.2,275.4z"/>
<path class="st12" d="M241.7,360.8c0,0,29.5,16.1,45.8,13.9c2.6-0.3,3.2,11.4,3.2,11.4s-23.5,2.8-26.3,6.1
	c-1.5,1.8-13.4-17.7-28.7-20.3C233.1,371.5,241.7,360.8,241.7,360.8z"/>
<ellipse class="st13" cx="268.6" cy="352.9" rx="0.5" ry="0.6"/>
<path class="st4" d="M410.8,395.1c0,0,3.5,52.9,2.4,55.1c-1.1,2.2,3.7,52.2,2.8,60.3c-0.9,6.8-0.2,14.6,0,15.3
	c0.2,0.6,29.6,6.2,34.1-1.4s-15.8-11-23-15.4c-3.6-2.2,4.9-61.9,1.9-68.5l1.2-53.8l-3.9-41.2l3.2-35.4l6.9,33.4
	c0,0,2.8,35.7,4.4,42.1c1.2,4.8-2.1,18.9-2.1,18.9s4.9,15.1,9.7,13.4c4.8-1.7,3.8-26.1,3.8-26.1l-4.3-8.1c0,0,0.2-39.5-3.4-41.5
	s0.4-55.6-13.1-56.1c-13.5-0.5-39.9,0-39.9,0s-9.6,1.1-12.3,36.1c-2,27.3-8.6,42.6-6.1,62.2c0,0-13.6,21.4-0.5,33.2
	c13.1,11.8,7.3-32,7.3-32s8.3-39.1,5.5-42.3c-2.8-3.1,6-29,6-29s1.9,28.2,2,31c0.2,3-6.5,33.9-3.9,49.3s4.9,58.5,4.9,58.5
	s-0.9,45.1,1.7,53.2s-27.7,5.4-24.9,15.1c2.8,9.7,35.7,4.5,35.7,4.5l-1.2-16.7c0,0,7.6-56.8,4.1-61.2
	C406.2,443.4,410.8,395.1,410.8,395.1z"/>
<path class="st14" d="M392,323l36.1,0.3c0,0,2.7-21.6,1.2-24.1c-1.5-2.6-5.4-13.7-5.4-13.7h-2.3c0,0,4,9.8,2,13.5
	c-2,3.6-15.1,15.3-13.2,21.5c2,6.2-0.3-10.1-13.4-21.2c-3.2-2.7,3.6-13.7,3.6-13.7h-2.9l-7.7,14.7L392,323z"/>
<path class="st15" d="M253.9,255.9c0,0,1.7,3.1,2.5,4.5c0.8,1.3,2.7,4.4,5.7,6.2c3.9,2.3,8.7,1.9,12.3,0c2.8-1.6,4.4-3.8,4.9-4.5
	c1.8-2.5,3.3-6.2,3.3-6.2l0,0H253.9L253.9,255.9z"/>
<path class="st16" d="M258.8,261.2c0.1-0.7,0.7-1.1,1.6-1.8c1.4-1.1,2.9-1.6,4.9-1.8c1.9-0.2,7-0.6,11.4,2.7
	c0.4,0.3,0.7,0.5,0.8,0.9c0.4,1.8-4.7,5.5-9.8,5.4C263.2,266.4,258.7,263.2,258.8,261.2z"/>
<path class="st17" d="M257.2,258.7c7.4,0,14.7,0,22,0c0-0.9,0-1.8,0-2.7h-22C257.2,256.9,257.2,257.8,257.2,258.7z"/>
<polygon class="st14" points="410.7,394.6 429.1,376.2 427.9,362.4 391,362.4 389.3,377.3 "/>
<ellipse class="st13" cx="411" cy="347.6" rx="0.4" ry="0.5"/>
<line class="st18" x1="585.8" y1="303.7" x2="541.3" y2="376.4"/>
<rect x="39.9" y="7.7" class="st19" width="638.8" height="157.4"/>
<path class="st20" d="M523.7,277.5l112.7,63.7c0,0,30-81.2-7.6-104.2C597.2,217.6,537.1,236.4,523.7,277.5z"/>
<path class="st21" d="M183.2,103.5c0,0,8.2-56.3,41.8-25.3c0,0-5.3-57.6,42-24"/>
<ellipse class="st12" cx="570.8" cy="69.4" rx="44.5" ry="48.7"/>
</svg>
