<?xml version="1.0" encoding="utf-8"?>
<!-- Generator: Adobe Illustrator 21.1.0, SVG Export Plug-In . SVG Version: 6.00 Build 0)  -->
<svg version="1.1" id="Layer_1" xmlns="http://www.w3.org/2000/svg" xmlns:xlink="http://www.w3.org/1999/xlink" x="0px" y="0px"
	 viewBox="0 0 1600 900" style="enable-background:new 0 0 1600 900;" xml:space="preserve">
<style type="text/css">
	.st0{fill:#152230;}
	.st1{fill:#552E0F;}
	.st2{fill:#2F1A09;}
	.st3{fill:url(#SVGID_1_);}
	.st4{fill:url(#SVGID_2_);}
	.st5{fill:#3A2B14;}
	.st6{fill:#211505;}
	.st7{fill:url(#SVGID_3_);}
	.st8{fill:#EAAC41;}
	.st9{fill:#C07D08;}
	.st10{fill:url(#SVGID_4_);}
	.st11{fill:url(#SVGID_5_);}
	.st12{fill:url(#SVGID_6_);}
	.st13{fill:url(#SVGID_7_);}
	.st14{fill:url(#SVGID_8_);}
	.st15{fill:url(#SVGID_9_);}
	.st16{fill:url(#SVGID_10_);}
	.st17{fill:url(#SVGID_11_);}
	.st18{fill:#2A1E06;}
	.st19{fill:#170D03;}
	.st20{fill:#A92D2B;}
	.st21{fill:#932B5C;}
	.st22{fill:#5A163D;}
	.st23{fill:#7C1F15;}
	.st24{fill:#FECDA4;}
	.st25{fill:#333333;}
	.st26{fill:url(#SVGID_12_);}
	.st27{fill:#962D69;}
	.st28{fill:#72263C;}
	.st29{fill:#FFFFFF;}
	.st30{fill:#E5B090;}
	.st31{fill:url(#SVGID_13_);}
	.st32{fill:#EDB143;}
	.st33{fill:#AB826E;}
	.st34{fill:#FAD8CD;}
	.st35{fill:url(#SVGID_14_);}
	.st36{fill:url(#SVGID_15_);}
	.st37{fill:url(#SVGID_16_);}
	.st38{fill:#952819;}
	.st39{fill:#493615;}
	.st40{fill:#882755;}
	.st41{fill:#33100A;}
	.st42{fill:#000100;}
	.st43{fill:url(#SVGID_17_);}
	.st44{fill:#5A3312;}
	.st45{fill:#4A3E32;}
	.st46{fill:none;stroke:#152230;stroke-miterlimit:10;}
	.st47{fill:none;stroke:#2F1A09;stroke-miterlimit:10;}
	.st48{fill:none;}
	.st49{font-family:'FuturaPT-Book';}
	.st50{font-size:22.9168px;}
</style>
<g>
	<g>
		<path class="st0" d="M60,606.5c-5.2,0-9.5-4.3-9.5-9.5V53c0-5.2,4.3-9.5,9.5-9.5h615c5.2,0,9.5,4.3,9.5,9.5v544
			c0,5.2-4.3,9.5-9.5,9.5H60z"/>
		<path class="st0" d="M675,46c3.9,0,7,3.1,7,7v544c0,3.9-3.1,7-7,7H60c-3.9,0-7-3.1-7-7V53c0-3.9,3.1-7,7-7H675 M675,41H60
			c-6.6,0-12,5.4-12,12v544c0,6.6,5.4,12,12,12h615c6.6,0,12-5.4,12-12V53C687,46.4,681.6,41,675,41L675,41z"/>
	</g>
	<path class="st1" d="M503.1,125.8c-4.6,1.4-11.1,3.4-16.5,9.2c-2.6,2.8-6,7.6-8.3,22c-2.1,13.3-0.2,15.6-0.9,33.9
		c-0.7,18.7-2.9,23.2,0,33.9c1.4,4.9,2.8,10.4,7.3,15.6c10.1,11.8,26.4,11.9,33,11.9c6.9,0,18.7,0.1,28.4-8.3
		c6.9-6,9.4-13.3,11-18.3c3.4-10.5,1-14.3,0.9-34.8c-0.1-21,2.4-25.2-0.9-37.6c-3.2-12.1-8-17.1-9.2-18.3c-7.1-7.2-15.8-9-21.1-10.1
		C515,122.4,505.6,125,503.1,125.8z"/>
	<path class="st2" d="M487.6,166.1c-1.3,2.4-0.6,2.8-0.9,15.6c-0.4,17.6-1.9,24.1-0.9,39.4c0.4,7.2,1.1,11.3,3.7,15.6
		c3.5,5.8,8.6,8.7,11,10.1c10.2,5.6,26,7.5,37.6-0.9c1.7-1.3,7.1-5.5,10.1-12.8c1.7-4.3,1.9-7.9,1.8-14.7
		c-0.2-14.5-1.3-21.1-1.8-32.1c-0.9-17.4,1.1-17.6-0.9-21.1C538.1,149.8,496.2,150.1,487.6,166.1z"/>
	<linearGradient id="SVGID_1_" gradientUnits="userSpaceOnUse" x1="292.9792" y1="239.5721" x2="339.0566" y2="239.5721">
		<stop  offset="0.5248" style="stop-color:#2F548E"/>
		<stop  offset="0.5275" style="stop-color:#2F54C2"/>
	</linearGradient>
	<path class="st3" d="M293.2,252.3c0,0,5.4,2.4,9.2,3.7c5.5,1.8,10.1,1.8,15.6,1.8c3.1,0,6.8-0.2,11-0.9c2.9-0.5,9.6-1.8,10.1-4.6
		c0-0.1,0-0.1,0-0.9c0-2.6,0-4.3,0-4.6c0-9.2-4.6-15.6-4.6-15.6c-3.6-5.1-8.6-7.4-11-8.3c-2-0.7-9-3.2-16.5,0
		c-4.5,1.9-7,4.9-8.3,6.4c-0.7,0.9-4.6,5.7-5.5,12.8C292.7,246.6,293.2,252.3,293.2,252.3L293.2,252.3z"/>
	<linearGradient id="SVGID_2_" gradientUnits="userSpaceOnUse" x1="391.9796" y1="238.6555" x2="438.057" y2="238.6555">
		<stop  offset="0.5248" style="stop-color:#20D7A4"/>
		<stop  offset="0.5275" style="stop-color:#5CBFA0"/>
	</linearGradient>
	<path class="st4" d="M392.2,251.4c0,0,5.4,2.4,9.2,3.7c5.5,1.8,10.1,1.8,15.6,1.8c3.1,0,6.8-0.2,11-0.9c2.9-0.5,9.6-1.8,10.1-4.6
		c0-0.1,0-0.1,0-0.9c0-2.6,0-4.3,0-4.6c0-9.2-4.6-15.6-4.6-15.6c-3.6-5.1-8.6-7.4-11-8.3c-2-0.7-9-3.2-16.5,0
		c-4.5,1.9-7,4.9-8.3,6.4c-0.7,0.9-4.6,5.7-5.5,12.8C391.7,245.6,392.2,251.4,392.2,251.4L392.2,251.4z"/>
	<path class="st5" d="M368.4,335.7c-6.6-0.7-10.3-1.1-13.8-3.7c-3.4-2.5-4.3-5.5-7.3-5.5c-1.4,0-1.5,0.6-3.7,0.9
		c-1.3,0.2-4.5,0.7-7.3-0.9c-3.2-1.8-4.2-5.2-4.6-6.4c-0.9-3.1,0.1-3.7-0.9-5.5c-1.7-2.8-4.8-1.6-7.3-4.6c-1.6-1.9-2.4-4.9-1.8-7.3
		c0.8-3.6,4.1-4.5,3.7-6.4c-0.4-1.8-3.3-1.1-5.5-3.7c-2.1-2.5-2.6-6.7-0.9-9.2c1.1-1.6,2.5-1.5,2.8-2.8c0.5-2-2.8-3.1-4.6-6.4
		c-2.1-3.9-1.7-9.5,0.9-12.8c2.4-3,4.8-1.9,6.4-4.6c2.2-3.7-1.8-6.9,0-11.9c1.4-3.8,5.2-5.8,6.4-6.4c3.5-1.8,5.7-1.2,9.2-1.8
		c6.8-1.3,7.4-5.7,12.8-8.3c11-5.1,23,6,37.6,6.4c0.4,0,4.2,0.1,9.2,0.9c3.7,0.6,5.6,0.9,7.3,1.8c0.6,0.3,6.7,3.6,7.3,9.2
		c0.5,4.3-2.5,6.9-0.9,9.2c0.8,1.2,1.9,0.8,3.7,1.8c3.3,1.8,5.8,6.3,5.5,10.1c-0.5,5.7-7.5,8-6.4,11.9c0.3,1.2,0.9,0.9,1.8,2.8
		c1.2,2.5,1.8,6.3,0,9.2c-1.7,2.7-4.2,2.4-4.6,4.6c-0.3,1.5,0.9,2.1,1.8,4.6c0.2,0.5,1.7,5,0,8.3c-1.8,3.4-5.3,2-7.3,5.5
		c-1.7,2.8,0.1,4.5-1.8,7.3c-1.7,2.6-4.7,3.4-5.5,3.7c-3.7,1.1-4.8-0.7-8.3,0c-2.4,0.5-2.3,1.4-8.3,5.5c-3.8,2.6-5.8,4-8.3,4.6
		C373.5,336.3,371.8,336.1,368.4,335.7z"/>
	<path class="st6" d="M337.2,270.6c-1.6,1.7-2.9,3.1-3.7,5.5c-0.4,1.1-1.5,4.5,0,7.3c0.7,1.3,1.5,1.4,1.8,2.8c0.3,1.3-0.2,2-0.9,4.6
		c-0.9,3-1.3,4.5-0.9,5.5c0.7,1.6,2.3,1.4,3.7,3.7c0.3,0.5,0.9,1.5,0.9,2.8c0.1,2-1.3,2.5-1.8,4.6c-0.6,2.2,0.1,5.3,1.8,6.4
		c1.8,1.2,3.6-0.2,4.6,0.9c1.1,1.2-0.7,3,0,5.5c0.7,2.2,3.1,4.2,5.5,4.6c2.3,0.4,3.7-0.9,6.4,0c0.9,0.3,1.5,0.7,1.8,0.9
		c3.1,1.9,7.9,3.9,11,4.6c5.3,1.2,12.4,0.4,13.8-2.8c0.6-1.4-0.1-3.1,0.9-3.7c0.8-0.5,1.7,0.5,3.7,0.9c0.5,0.1,4,0.9,6.4-0.9
		c1.9-1.4,2.9-4.1,2.8-6.4c-0.1-1.2-0.5-2.2,0-2.8c0.6-0.6,1.6,0.2,2.8,0c2.3-0.4,4.4-4.7,3.7-8.3c0,0-0.2-0.8-2.8-5.5l0,0
		c3.3-2.2,3.7-2.7,3.7-2.8c1.1-1.5,1.4-3.7,0.9-5.5c-0.6-1.9-1.8-2.1-1.8-3.7c-0.1-1.4,0.8-2,1.8-3.7c1.4-2.3,2.1-5.2,1.8-7.3
		c-0.4-2.7-2.7-3.9-5.5-6.4c-5.1-4.5-5.8-8-8.3-11c-9.1-10.9-36.4-7.4-45.8,0.9C344.6,262.2,345.1,262,337.2,270.6z"/>
	<linearGradient id="SVGID_3_" gradientUnits="userSpaceOnUse" x1="494.6467" y1="238.6555" x2="540.7241" y2="238.6555">
		<stop  offset="0.525" style="stop-color:#1F3990"/>
		<stop  offset="0.5275" style="stop-color:#2F24C2"/>
	</linearGradient>
	<path class="st7" d="M494.9,251.4c0,0,5.4,2.4,9.2,3.7c5.5,1.8,10.1,1.8,15.6,1.8c3.1,0,6.8-0.2,11-0.9c2.9-0.5,9.6-1.8,10.1-4.6
		c0-0.1,0-0.1,0-0.9c0-2.6,0-4.3,0-4.6c0-9.2-4.6-15.6-4.6-15.6c-3.6-5.1-8.6-7.4-11-8.3c-2-0.7-9-3.2-16.5,0
		c-4.5,1.9-7,4.9-8.3,6.4c-0.7,0.9-4.6,5.7-5.5,12.8C494.3,245.6,494.9,251.4,494.9,251.4L494.9,251.4z"/>
	<path class="st8" d="M460.5,226.2c-2.3,0.4-9,1.5-15.1,5c-10.3,5.9-14.7,16-16.5,20.2c-4.3,10.3-1.4,12.9-2.8,39.4
		c-0.8,17.2-2.4,23.5,0,35.8c1.5,7.4,3.7,13.3,8.3,18.3c4.1,4.5,8.5,6.6,11.9,8.3c4.5,2.1,25.5,11.1,42.2,0.9
		c5.3-3.3,8.9-7.7,10.1-9.2c1.6-2,4.9-6.5,7.3-13.8c3.6-10.6,2.1-17.6,1.8-35.8c-0.3-23.2,1.9-25.4-0.9-36.7
		c-1.8-7-3.7-14.3-10.1-21.1c-9.4-10-21.6-11.6-23.8-11.9C467.5,225.1,463,225.8,460.5,226.2z"/>
	<path class="st9" d="M461.6,256.1c-1.9,0.3-7.2,1.2-12.1,3.9c-8.3,4.6-11.8,12.3-13.2,15.6c-3.5,7.9-1.2,9.9-2.2,30.4
		c-0.7,13.3-1.9,18.1,0,27.6c1.2,5.7,2.9,10.2,6.6,14.1c3.3,3.5,6.8,5.1,9.6,6.4c3.6,1.6,20.5,8.6,33.8,0.7c4.3-2.5,7.2-6,8.1-7.1
		c1.3-1.6,3.9-5,5.9-10.6c2.9-8.2,1.7-13.6,1.5-27.6c-0.3-17.9,1.5-19.6-0.7-28.3c-1.4-5.4-3-11-8.1-16.3c-7.5-7.7-17.3-9-19.1-9.2
		C467.2,255.2,463.6,255.7,461.6,256.1z"/>
	<linearGradient id="SVGID_4_" gradientUnits="userSpaceOnUse" x1="443.3132" y1="343.1559" x2="489.3905" y2="343.1559">
		<stop  offset="0.5248" style="stop-color:#2F548E"/>
		<stop  offset="0.5275" style="stop-color:#2F54C2"/>
	</linearGradient>
	<path class="st10" d="M443.6,355.9c0,0,5.4,2.4,9.2,3.7c5.5,1.8,10.1,1.8,15.6,1.8c3.1,0,6.8-0.2,11-0.9c2.9-0.5,9.6-1.8,10.1-4.6
		c0-0.1,0-0.1,0-0.9c0-2.6,0-4.3,0-4.6c0-9.2-4.6-15.6-4.6-15.6c-3.6-5.1-8.6-7.4-11-8.3c-2-0.7-9-3.2-16.5,0
		c-4.5,1.9-7,4.9-8.3,6.4c-0.7,0.9-4.6,5.7-5.5,12.8C443,350.1,443.6,355.9,443.6,355.9L443.6,355.9z"/>
	<linearGradient id="SVGID_5_" gradientUnits="userSpaceOnUse" x1="343.3961" y1="343.1559" x2="389.4734" y2="343.1559">
		<stop  offset="0.5248" style="stop-color:#5C8DAD"/>
		<stop  offset="0.5275" style="stop-color:#7F9CB5"/>
	</linearGradient>
	<path class="st11" d="M343.6,355.9c0,0,5.4,2.4,9.2,3.7c5.5,1.8,10.1,1.8,15.6,1.8c3.1,0,6.8-0.2,11-0.9c2.9-0.5,9.6-1.8,10.1-4.6
		c0-0.1,0-0.1,0-0.9c0-2.6,0-4.3,0-4.6c0-9.2-4.6-15.6-4.6-15.6c-3.6-5.1-8.6-7.4-11-8.3c-2-0.7-9-3.2-16.5,0
		c-4.5,1.9-7,4.9-8.3,6.4c-0.7,0.9-4.6,5.7-5.5,12.8C343.1,350.1,343.6,355.9,343.6,355.9L343.6,355.9z"/>
	<path class="st1" d="M410.1,427.4c4.4,0.4,8.2-0.2,12.8-0.9c5.1-0.8,9.2-1.5,13.8-3.7c8.7-4.2,13.3-11.4,14.7-13.8
		c5.4-9.3,6.4-21.1,6.4-21.1l0,0c0,0-0.9-26.6-0.9-26.6l0,0c0,0-4.1-9.1-4.6-10.1c-4.3-9.1-25.5-24.4-47.7-18.3
		c-1.7,0.5-18.2,5.2-24.8,19.3c-2.6,5.5-3.3,11.8-3.7,14.7c-0.5,4.4-0.4,8.8,0,17.4c0.3,8,0.5,12,0.9,13.8
		c2.5,10.5,9.7,17.2,11.9,19.3C391.6,419.6,399.1,426.3,410.1,427.4z"/>
	<linearGradient id="SVGID_6_" gradientUnits="userSpaceOnUse" x1="393.813" y1="440.3229" x2="439.8903" y2="440.3229">
		<stop  offset="0.5248" style="stop-color:#374C60"/>
		<stop  offset="0.5275" style="stop-color:#475A73"/>
	</linearGradient>
	<path class="st12" d="M394.1,453c0,0,5.4,2.4,9.2,3.7c5.5,1.8,10.1,1.8,15.6,1.8c3.1,0,6.8-0.2,11-0.9c2.9-0.5,9.6-1.8,10.1-4.6
		c0-0.1,0-0.1,0-0.9c0-2.6,0-4.3,0-4.6c0-9.2-4.6-15.6-4.6-15.6c-3.6-5.1-8.6-7.4-11-8.3c-2-0.7-9-3.2-16.5,0
		c-4.5,1.9-7,4.9-8.3,6.4c-0.7,0.9-4.6,5.7-5.5,12.8C393.5,447.3,394.1,453,394.1,453L394.1,453z"/>
	<path class="st8" d="M238.7,244.5c-0.9-0.3,0.3-3.8,0-11.9c-0.1-4-0.2-6.2-0.9-9.2c-1.5-6.2-3.9-8.5-2.8-10.1c1.2-1.7,5.1-1,7.3,0
		c3.9,1.8,5.2,5.6,5.5,6.4c0.4,1.2,1.1,4.1-1.8,11.9C243.9,237.4,240.1,245,238.7,244.5z"/>
	<linearGradient id="SVGID_7_" gradientUnits="userSpaceOnUse" x1="190.3122" y1="239.5721" x2="236.3895" y2="239.5721">
		<stop  offset="0.5248" style="stop-color:#A6548E"/>
		<stop  offset="0.5275" style="stop-color:#8854C2"/>
	</linearGradient>
	<path class="st13" d="M190.5,252.3c0,0,5.4,2.4,9.2,3.7c5.5,1.8,10.1,1.8,15.6,1.8c3.1,0,6.8-0.2,11-0.9c2.9-0.5,9.6-1.8,10.1-4.6
		c0-0.1,0-0.1,0-0.9c0-2.6,0-4.3,0-4.6c0-9.2-4.6-15.6-4.6-15.6c-3.6-5.1-8.6-7.4-11-8.3c-2-0.7-9-3.2-16.5,0
		c-4.5,1.9-7,4.9-8.3,6.4c-0.7,0.9-4.6,5.7-5.5,12.8C190,246.6,190.6,252.3,190.5,252.3L190.5,252.3z"/>
	<path class="st5" d="M266.6,334.8c-6.6-0.7-10.3-1.1-13.8-3.7c-3.4-2.5-4.3-5.5-7.3-5.5c-1.4,0-1.5,0.6-3.7,0.9
		c-1.3,0.2-4.5,0.7-7.3-0.9c-3.2-1.8-4.2-5.2-4.6-6.4c-0.9-3.1,0.1-3.7-0.9-5.5c-1.7-2.8-4.8-1.6-7.3-4.6c-1.6-1.9-2.4-4.9-1.8-7.3
		c0.8-3.6,4.1-4.5,3.7-6.4c-0.4-1.8-3.3-1.1-5.5-3.7c-2.1-2.5-2.6-6.7-0.9-9.2c1.1-1.6,2.5-1.5,2.8-2.8c0.5-2-2.8-3.1-4.6-6.4
		c-2.1-3.9-1.7-9.5,0.9-12.8c2.4-3,4.8-1.9,6.4-4.6c2.2-3.7-1.8-6.9,0-11.9c1.4-3.8,5.2-5.8,6.4-6.4c3.5-1.8,5.7-1.2,9.2-1.8
		c6.8-1.3,7.4-5.7,12.8-8.3c11-5.1,23,6,37.6,6.4c0.4,0,4.2,0.1,9.2,0.9c3.7,0.6,5.6,0.9,7.3,1.8c0.6,0.3,6.7,3.6,7.3,9.2
		c0.5,4.3-2.5,6.9-0.9,9.2c0.8,1.2,1.9,0.8,3.7,1.8c3.3,1.8,5.8,6.3,5.5,10.1c-0.5,5.7-7.5,8-6.4,11.9c0.3,1.2,0.9,0.9,1.8,2.8
		c1.2,2.5,1.8,6.3,0,9.2c-1.7,2.7-4.2,2.4-4.6,4.6c-0.3,1.5,0.9,2.1,1.8,4.6c0.2,0.5,1.7,5,0,8.3c-1.8,3.4-5.3,2-7.3,5.5
		c-1.7,2.8,0.1,4.5-1.8,7.3c-1.7,2.6-4.7,3.4-5.5,3.7c-3.7,1.1-4.8-0.7-8.3,0c-2.4,0.5-2.3,1.4-8.3,5.5c-3.8,2.6-5.8,4-8.3,4.6
		C271.7,335.3,270,335.2,266.6,334.8z"/>
	<path class="st6" d="M235.5,269.7c-1.6,1.7-2.9,3.1-3.7,5.5c-0.4,1.1-1.5,4.5,0,7.3c0.7,1.3,1.5,1.4,1.8,2.8c0.3,1.3-0.2,2-0.9,4.6
		c-0.9,3-1.3,4.5-0.9,5.5c0.7,1.6,2.3,1.4,3.7,3.7c0.3,0.5,0.9,1.5,0.9,2.8c0.1,2-1.3,2.5-1.8,4.6c-0.6,2.2,0.1,5.3,1.8,6.4
		c1.8,1.2,3.6-0.2,4.6,0.9c1.1,1.2-0.7,3,0,5.5c0.7,2.2,3.1,4.2,5.5,4.6c2.3,0.4,3.7-0.9,6.4,0c0.9,0.3,1.5,0.7,1.8,0.9
		c3.1,1.9,7.9,3.9,11,4.6c5.3,1.2,12.4,0.4,13.8-2.8c0.6-1.4-0.1-3.1,0.9-3.7c0.8-0.5,1.7,0.5,3.7,0.9c0.5,0.1,4,0.9,6.4-0.9
		c1.9-1.4,2.9-4.1,2.8-6.4c-0.1-1.2-0.5-2.2,0-2.8c0.6-0.6,1.6,0.2,2.8,0c2.3-0.4,4.4-4.7,3.7-8.3c0,0-0.2-0.8-2.8-5.5l0,0
		c3.3-2.2,3.7-2.7,3.7-2.8c1.1-1.5,1.4-3.7,0.9-5.5c-0.6-1.9-1.8-2.1-1.8-3.7c-0.1-1.4,0.8-2,1.8-3.7c1.4-2.3,2.1-5.2,1.8-7.3
		c-0.4-2.7-2.7-3.9-5.5-6.4c-5.1-4.5-5.8-8-8.3-11c-9.1-10.9-36.4-7.4-45.8,0.9C242.9,261.3,243.3,261,235.5,269.7z"/>
	<path class="st1" d="M200.6,326.5c-4.6,1.4-11.1,3.4-16.5,9.2c-2.6,2.8-6,7.6-8.3,22c-2.1,13.3-0.2,15.6-0.9,33.9
		c-0.7,18.7-2.9,23.2,0,33.9c1.4,4.9,2.8,10.4,7.3,15.6c10.1,11.8,26.4,11.9,33,11.9c6.9,0,18.7,0.1,28.4-8.3
		c6.9-6,9.4-13.3,11-18.3c3.4-10.5,1-14.3,0.9-34.8c-0.1-21,2.4-25.2-0.9-37.6c-3.2-12.1-8-17.1-9.2-18.3c-7.1-7.2-15.8-9-21.1-10.1
		C212.5,323.2,203.1,325.8,200.6,326.5z"/>
	<path class="st2" d="M185,366.9c-1.3,2.4-0.6,2.8-0.9,15.6c-0.4,17.6-1.9,24.1-0.9,39.4c0.4,7.2,1.1,11.3,3.7,15.6
		c3.5,5.8,8.6,8.7,11,10.1c10.2,5.6,26,7.5,37.6-0.9c1.7-1.3,7.1-5.5,10.1-12.8c1.7-4.3,1.9-7.9,1.8-14.7
		c-0.2-14.5-1.3-21.1-1.8-32.1c-0.9-17.4,1.1-17.6-0.9-21.1C235.6,350.6,193.7,350.9,185,366.9z"/>
	<linearGradient id="SVGID_8_" gradientUnits="userSpaceOnUse" x1="241.6457" y1="344.0725" x2="287.7231" y2="344.0725">
		<stop  offset="0.5248" style="stop-color:#374C60"/>
		<stop  offset="0.5275" style="stop-color:#475A73"/>
	</linearGradient>
	<path class="st14" d="M241.9,356.8c0,0,5.4,2.4,9.2,3.7c5.5,1.8,10.1,1.8,15.6,1.8c3.1,0,6.8-0.2,11-0.9c2.9-0.5,9.6-1.8,10.1-4.6
		c0-0.1,0-0.1,0-0.9c0-2.6,0-4.3,0-4.6c0-9.2-4.6-15.6-4.6-15.6c-3.6-5.1-8.6-7.4-11-8.3c-2-0.7-9-3.2-16.5,0
		c-4.5,1.9-7,4.9-8.3,6.4c-0.7,0.9-4.6,5.7-5.5,12.8C241.3,351.1,241.9,356.8,241.9,356.8L241.9,356.8z"/>
	<linearGradient id="SVGID_9_" gradientUnits="userSpaceOnUse" x1="140.812" y1="344.0725" x2="186.8893" y2="344.0725">
		<stop  offset="0.5248" style="stop-color:#2F548E"/>
		<stop  offset="0.5275" style="stop-color:#2F54C2"/>
	</linearGradient>
	<path class="st15" d="M141,356.8c0,0,5.4,2.4,9.2,3.7c5.5,1.8,10.1,1.8,15.6,1.8c3.1,0,6.8-0.2,11-0.9c2.9-0.5,9.6-1.8,10.1-4.6
		c0-0.1,0-0.1,0-0.9c0-2.6,0-4.3,0-4.6c0-9.2-4.6-15.6-4.6-15.6c-3.6-5.1-8.6-7.4-11-8.3c-2-0.7-9-3.2-16.5,0
		c-4.5,1.9-7,4.9-8.3,6.4c-0.7,0.9-4.6,5.7-5.5,12.8C140.5,351.1,141,356.8,141,356.8L141,356.8z"/>
	<linearGradient id="SVGID_10_" gradientUnits="userSpaceOnUse" x1="191.2289" y1="441.2396" x2="237.3062" y2="441.2396">
		<stop  offset="0.5248" style="stop-color:#FF4447"/>
		<stop  offset="0.5275" style="stop-color:#C2391D"/>
	</linearGradient>
	<path class="st16" d="M191.5,454c0,0,5.4,2.4,9.2,3.7c5.5,1.8,10.1,1.8,15.6,1.8c3.1,0,6.8-0.2,11-0.9c2.9-0.5,9.6-1.8,10.1-4.6
		c0-0.1,0-0.1,0-0.9c0-2.6,0-4.3,0-4.6c0-9.2-4.6-15.6-4.6-15.6c-3.6-5.1-8.6-7.4-11-8.3c-2-0.7-9-3.2-16.5,0
		c-4.5,1.9-7,4.9-8.3,6.4c-0.7,0.9-4.6,5.7-5.5,12.8C190.9,448.2,191.5,454,191.5,454L191.5,454z"/>
	<linearGradient id="SVGID_11_" gradientUnits="userSpaceOnUse" x1="545.0636" y1="342.2392" x2="591.1409" y2="342.2392">
		<stop  offset="0.5248" style="stop-color:#2F548E"/>
		<stop  offset="0.5275" style="stop-color:#2F54C2"/>
	</linearGradient>
	<path class="st17" d="M545.3,355c0,0,5.4,2.4,9.2,3.7c5.5,1.8,10.1,1.8,15.6,1.8c3.1,0,6.8-0.2,11-0.9c2.9-0.5,9.6-1.8,10.1-4.6
		c0-0.1,0-0.1,0-0.9c0-2.6,0-4.3,0-4.6c0-9.2-4.6-15.6-4.6-15.6c-3.6-5.1-8.6-7.4-11-8.3c-2-0.7-9-3.2-16.5,0
		c-4.5,1.9-7,4.9-8.3,6.4c-0.7,0.9-4.6,5.7-5.5,12.8C544.8,349.2,545.3,355,545.3,355L545.3,355z"/>
	<path class="st18" d="M558.3,374.2c-1.7-5.7-2.3-6.7-3.7-11c-2.6-8.3-1.7-8.4-3.7-12.8c-2.1-4.9-4.7-8.2-5.5-9.2
		c-1.9-2.3-5.3-6.4-11-9.2c-6.1-3-11.7-2.9-16.5-2.8c-3.9,0.1-8.8,0.2-14.7,2.8c-7.2,3.1-11.2,8-12.8,10.1
		c-1.5,1.8-5.9,7.3-7.3,14.7c-0.3,1.7-0.8,4.9-1.8,10.1c-0.6,3-0.9,4.5-0.9,4.6c-0.4,1.5-0.8,2.7-0.9,4.6c-0.1,0.9,0,1.3,0,1.8
		c0,3-1.5,5.4-1.8,6.4c-1.6,5.4,0.5,10.5,1.8,13.8c2.6,6.4,6.8,10,9.2,11.9c6.6,5.5,13.3,7.1,18.3,8.3c5.1,1.2,16.4,3.6,29.3-0.9
		c10.1-3.5,16-9.5,17.4-11c3-3.1,6.2-6.5,7.3-11.9c1-4.9,0-9.8-0.9-13.8C559.8,379.1,559.3,377.4,558.3,374.2z"/>
	<path class="st19" d="M549.1,366c0.9,1.7,1.7,4.4,2.8,8.3c1.4,4.8,2.6,9.1,2.8,13.8c0.1,2.1,0.4,9.6-3.7,16.5
		c-5.6,9.7-16.4,12.5-21.1,13.8c-2.9,0.8-17,4.1-30.3-3.7c-2.4-1.4-8.7-5.2-12.8-12.8c-1.9-3.6-2.6-6.6-2.8-7.3
		c-1.6-7.8,0.9-14.1,1.8-16.5c3.2-7.8,8.8-12.1,11-13.8C514.1,351.3,543.3,354.7,549.1,366z"/>
	<path class="st18" d="M276.7,173.5c1.7-5.7,2.3-6.7,3.7-11c2.6-8.3,1.7-8.4,3.7-12.8c2.1-4.9,4.7-8.2,5.5-9.2
		c1.9-2.3,5.3-6.4,11-9.2c6.1-3,11.7-2.9,16.5-2.8c3.9,0.1,8.8,0.2,14.7,2.8c7.2,3.1,11.2,8,12.8,10.1c1.5,1.8,5.9,7.3,7.3,14.7
		c0.3,1.7,0.8,4.9,1.8,10.1c0.6,3,0.9,4.5,0.9,4.6c0.4,1.5,0.8,2.7,0.9,4.6c0.1,0.9,0,1.3,0,1.8c0,3,1.5,5.4,1.8,6.4
		c1.6,5.4-0.5,10.5-1.8,13.8c-2.6,6.4-6.8,10-9.2,11.9c-6.6,5.5-13.3,7.1-18.3,8.3c-5.1,1.2-16.4,3.6-29.3-0.9
		c-10.1-3.5-16-9.5-17.4-11c-3-3.1-6.2-6.5-7.3-11.9c-1-4.9,0-9.8,0.9-13.8C275.2,178.3,275.7,176.7,276.7,173.5z"/>
	<path class="st19" d="M285.9,165.2c-0.9,1.7-1.7,4.4-2.8,8.3c-1.4,4.8-2.6,9.1-2.8,13.8c-0.1,2.1-0.4,9.6,3.7,16.5
		c5.6,9.7,16.4,12.5,21.1,13.8c2.9,0.8,17,4.1,30.3-3.7c2.4-1.4,8.7-5.2,12.8-12.8c1.9-3.6,2.6-6.6,2.8-7.3
		c1.6-7.8-0.9-14.1-1.8-16.5c-3.2-7.8-8.8-12.1-11-13.8C320.9,150.5,291.7,154,285.9,165.2z"/>
	<path class="st20" d="M576,328.4c-4.4,0.4-8.2-0.2-12.8-0.9c-5.1-0.8-9.2-1.5-13.8-3.7c-8.7-4.2-13.3-11.4-14.7-13.8
		c-5.4-9.3-6.4-21.1-6.4-21.1l0,0c0,0,0.9-26.6,0.9-26.6l0,0c0,0,4.1-9.1,4.6-10.1c4.3-9.1,25.5-24.4,47.7-18.3
		c1.7,0.5,18.2,5.2,24.8,19.3c2.6,5.5,3.3,11.8,3.7,14.7c0.5,4.4,0.4,8.8,0,17.4c-0.3,8-0.5,12-0.9,13.8
		c-2.5,10.5-9.7,17.2-11.9,19.3C594.5,320.6,587,327.3,576,328.4z"/>
	<path class="st21" d="M620.3,322.4c7,0.4,12.1,2.6,14.7,3.7c3.2,1.4,13.7,6.2,20.2,17.4c4.8,8.3,4.9,15.7,5,26.1
		c0.2,13,0.3,21.9-5.5,31.2c-9.4,15-26.4,18-28.4,18.3c-12.5,2-22.4-2.4-26.6-4.6c-9-4.8-13.7-11.5-14.7-12.8
		c-5.8-8.5-6.5-16.8-7.3-27.5c-0.4-5.6-0.9-11.6,0.9-19.3c0.8-3.6,2.2-9.6,6.4-15.6C592.8,328.2,606.8,321.7,620.3,322.4z"/>
	<path class="st22" d="M648.3,368.7c1.6,2.6,2,5,2.8,9.2c0.8,4.9,2.7,15.8-3.7,25.7c-6.2,9.5-16.3,12.1-19.3,12.8
		c-2.6,0.7-13.4,3.1-24.8-2.8c-2.5-1.3-10.2-5.4-14.7-14.7c-0.7-1.5-7.2-15.4,0-26.6c3.3-5.1,7.9-7.3,11.9-9.2
		C616.4,355.9,640.5,356.1,648.3,368.7z"/>
	<path class="st8" d="M213,122.6c-7,0.4-12.1,2.6-14.7,3.7c-3.2,1.4-13.7,6.2-20.2,17.4c-4.8,8.3-4.9,15.7-5,26.1
		c-0.2,13-0.3,21.9,5.5,31.2c9.4,15,26.4,18,28.4,18.3c12.5,2,22.4-2.4,26.6-4.6c9-4.8,13.7-11.5,14.7-12.8
		c5.8-8.5,6.5-16.8,7.3-27.5c0.4-5.6,0.9-11.6-0.9-19.3c-0.8-3.6-2.2-9.6-6.4-15.6C240.5,128.4,226.5,121.9,213,122.6z"/>
	<path class="st9" d="M185,168.9c-1.6,2.6-2,5-2.8,9.2c-0.8,4.9-2.7,15.8,3.7,25.7c6.2,9.5,16.3,12.1,19.3,12.8
		c2.6,0.7,13.4,3.1,24.8-2.8c2.5-1.3,10.2-5.4,14.7-14.7c0.7-1.5,7.2-15.4,0-26.6c-3.3-5.1-7.9-7.3-11.9-9.2
		C217,156.1,192.8,156.2,185,168.9z"/>
	<path class="st8" d="M615.9,230.3c-6.6-0.7-10.3-1.1-13.8-3.7c-3.4-2.5-4.3-5.5-7.3-5.5c-1.4,0-1.5,0.6-3.7,0.9
		c-1.3,0.2-4.5,0.7-7.3-0.9c-3.2-1.8-4.2-5.2-4.6-6.4c-0.9-3.1,0.1-3.7-0.9-5.5c-1.7-2.8-4.8-1.6-7.3-4.6c-1.6-1.9-2.4-4.9-1.8-7.3
		c0.8-3.6,4.1-4.5,3.7-6.4c-0.4-1.8-3.3-1.1-5.5-3.7c-2.1-2.5-2.6-6.7-0.9-9.2c1.1-1.6,2.5-1.5,2.8-2.8c0.5-2-2.8-3.1-4.6-6.4
		c-2.1-3.9-1.7-9.5,0.9-12.8c2.4-3,4.8-1.9,6.4-4.6c2.2-3.7-1.8-6.9,0-11.9c1.4-3.8,5.2-5.8,6.4-6.4c3.5-1.8,5.7-1.2,9.2-1.8
		c6.8-1.3,7.4-5.7,12.8-8.3c11-5.1,23,6,37.6,6.4c0.4,0,4.2,0.1,9.2,0.9c3.7,0.6,5.6,0.9,7.3,1.8c0.6,0.3,6.7,3.6,7.3,9.2
		c0.5,4.3-2.5,6.9-0.9,9.2c0.8,1.2,1.9,0.8,3.7,1.8c3.3,1.8,5.8,6.3,5.5,10.1c-0.5,5.7-7.5,8-6.4,11.9c0.3,1.2,0.9,0.9,1.8,2.8
		c1.2,2.5,1.8,6.3,0,9.2c-1.7,2.7-4.2,2.4-4.6,4.6c-0.3,1.5,0.9,2.1,1.8,4.6c0.2,0.5,1.7,5,0,8.3c-1.8,3.4-5.3,2-7.3,5.5
		c-1.7,2.8,0.1,4.5-1.8,7.3c-1.7,2.6-4.7,3.4-5.5,3.7c-3.7,1.1-4.8-0.7-8.2,0c-2.4,0.5-2.3,1.4-8.3,5.5c-3.8,2.6-5.8,4-8.3,4.6
		C621,230.8,619.3,230.7,615.9,230.3z"/>
	<path class="st9" d="M584.7,165.2c-1.6,1.7-2.9,3.1-3.7,5.5c-0.4,1.1-1.5,4.5,0,7.3c0.7,1.3,1.5,1.4,1.8,2.8c0.3,1.3-0.2,2-0.9,4.6
		c-0.9,3-1.3,4.5-0.9,5.5c0.7,1.6,2.3,1.4,3.7,3.7c0.3,0.5,0.9,1.5,0.9,2.8c0.1,2-1.3,2.5-1.8,4.6c-0.6,2.2,0.1,5.3,1.8,6.4
		c1.8,1.2,3.6-0.2,4.6,0.9c1.1,1.2-0.7,3,0,5.5c0.7,2.2,3.1,4.2,5.5,4.6c2.3,0.4,3.7-0.9,6.4,0c0.9,0.3,1.5,0.7,1.8,0.9
		c3.1,1.9,7.9,3.9,11,4.6c5.3,1.2,12.4,0.4,13.8-2.8c0.6-1.4-0.1-3.1,0.9-3.7c0.8-0.5,1.7,0.5,3.7,0.9c0.5,0.1,4,0.9,6.4-0.9
		c1.9-1.4,2.9-4.1,2.8-6.4c-0.1-1.2-0.5-2.2,0-2.8c0.6-0.6,1.6,0.2,2.8,0c2.3-0.4,4.4-4.7,3.7-8.3c0,0-0.2-0.8-2.8-5.5l0,0
		c3.3-2.2,3.7-2.7,3.7-2.8c1.1-1.5,1.4-3.7,0.9-5.5c-0.6-1.9-1.8-2.1-1.8-3.7c-0.1-1.4,0.8-2,1.8-3.7c1.4-2.3,2.1-5.2,1.8-7.3
		c-0.4-2.7-2.7-3.9-5.5-6.4c-5.1-4.5-5.8-8-8.2-11c-9.1-10.9-36.4-7.4-45.8,0.9C592.1,156.8,592.6,156.5,584.7,165.2z"/>
	<path class="st20" d="M323.2,324.2c2.3,0.4,9,1.5,15.1,5c10.3,5.9,14.7,16,16.5,20.2c4.3,10.3,1.4,12.9,2.8,39.4
		c0.8,17.2,2.4,23.5,0,35.8c-1.5,7.4-3.7,13.3-8.3,18.3c-4.1,4.5-8.5,6.6-11.9,8.3c-4.5,2.1-25.5,11.1-42.2,0.9
		c-5.3-3.3-8.9-7.7-10.1-9.2c-1.6-2-4.9-6.5-7.3-13.8c-3.6-10.6-2.1-17.6-1.8-35.8c0.3-23.2-1.9-25.4,0.9-36.7
		c1.8-7,3.7-14.3,10.1-21.1c9.4-10,21.6-11.6,23.8-11.9C316.2,323.1,320.7,323.8,323.2,324.2z"/>
	<path class="st23" d="M322.1,354.1c1.9,0.3,7.2,1.2,12.1,3.9c8.3,4.6,11.8,12.3,13.2,15.6c3.5,7.9,1.2,9.9,2.2,30.4
		c0.7,13.3,1.9,18.1,0,27.6c-1.2,5.7-2.9,10.2-6.6,14.1c-3.3,3.5-6.8,5.1-9.6,6.4c-3.6,1.6-20.5,8.6-33.8,0.7
		c-4.3-2.5-7.2-6-8.1-7.1c-1.3-1.6-3.9-5-5.9-10.6c-2.9-8.2-1.7-13.6-1.5-27.6c0.3-17.9-1.5-19.6,0.7-28.3c1.4-5.4,3-11,8.1-16.3
		c7.5-7.7,17.3-9,19.1-9.2C316.5,353.3,320.1,353.8,322.1,354.1z"/>
	<g>
		<path class="st8" d="M105.8,125.3c-2.3,0.4-9,1.5-15.1,5c-10.3,5.9-14.7,16-16.5,20.2c-4.3,10.3-1.4,12.9-2.8,39.4
			c-0.8,17.2-2.4,23.5,0,35.8c1.5,7.4,3.7,13.3,8.3,18.3c4.1,4.5,8.5,6.6,11.9,8.3c4.5,2.1,25.5,11.1,42.2,0.9
			c5.3-3.3,8.9-7.7,10.1-9.2c1.6-2,4.9-6.5,7.3-13.8c3.6-10.6,2.1-17.6,1.8-35.8c-0.3-23.2,1.9-25.4-0.9-36.7
			c-1.8-7-3.7-14.3-10.1-21.1c-9.4-10-21.6-11.6-23.8-11.9C112.7,124.2,108.2,124.9,105.8,125.3z"/>
		<path class="st9" d="M106.9,155.2c-1.9,0.3-7.2,1.2-12.1,3.9c-8.3,4.6-11.8,12.3-13.2,15.6c-3.5,7.9-1.2,9.9-2.2,30.4
			c-0.7,13.3-1.9,18.1,0,27.6c1.2,5.7,2.9,10.2,6.6,14.1c3.3,3.5,6.8,5.1,9.6,6.4c3.6,1.6,20.5,8.6,33.8,0.7c4.3-2.5,7.2-6,8.1-7.1
			c1.3-1.6,3.9-5,5.9-10.6c2.9-8.2,1.7-13.6,1.5-27.6c-0.3-17.9,1.5-19.6-0.7-28.3c-1.4-5.4-3-11-8.1-16.3c-7.5-7.7-17.3-9-19.1-9.2
			C112.4,154.4,108.9,154.9,106.9,155.2z"/>
	</g>
	<path class="st24" d="M86,147.8c0,0-1.3,1.5-2.3,3.2c-3.7,6.1-1.8,17-1.4,29.8c0.4,10-0.5,9.7,0.5,13.3c3,11,12,16.9,12.8,17.4
		c9.2,5.8,21.8,6.5,31.6,0.5c0.6-0.4,9.8-6.3,12.8-17.4c0.5-1.9,0.6-3.2,0.9-8.3c1.5-26.8,0.4-30.3-0.9-33c-3.1-6.2-8-9.6-10.1-11
		c-15.1-10.1-33.3-2.7-37.6,0C88.7,144.7,86,147.8,86,147.8z"/>
	<path class="st25" d="M89.7,169.8c-0.1-0.2,1-1.8,2.8-2.8c2.2-1.2,5.1-1.2,7.3,0c1.8,1,2.9,2.6,2.8,2.8c-0.1,0.2-1.4-1.2-3.7-1.8
		c-2.7-0.8-5-0.1-5.5,0C91.1,168.6,89.9,170,89.7,169.8z"/>
	<path class="st25" d="M121.8,169.8c-0.1-0.2,1-1.8,2.8-2.8c2.2-1.2,5.1-1.2,7.3,0c1.8,1,2.9,2.6,2.8,2.8c-0.1,0.2-1.4-1.2-3.7-1.8
		c-2.7-0.8-5-0.1-5.5,0C123.2,168.6,121.9,170,121.8,169.8z"/>
	<linearGradient id="SVGID_12_" gradientUnits="userSpaceOnUse" x1="88.5618" y1="240.4888" x2="134.6391" y2="240.4888">
		<stop  offset="0.5248" style="stop-color:#A6548E"/>
		<stop  offset="0.5275" style="stop-color:#8854C2"/>
	</linearGradient>
	<path class="st26" d="M88.8,253.2c0,0,5.4,2.4,9.2,3.7c5.5,1.8,10.1,1.8,15.6,1.8c3.1,0,6.8-0.2,11-0.9c2.9-0.5,9.6-1.8,10.1-4.6
		c0-0.1,0-0.1,0-0.9c0-2.6,0-4.3,0-4.6c0-9.2-4.6-15.6-4.6-15.6c-3.6-5.1-8.6-7.4-11-8.3c-2-0.7-9-3.2-16.5,0
		c-4.5,1.9-7,4.9-8.3,6.4c-0.7,0.9-4.6,5.7-5.5,12.8C88.3,247.5,88.8,253.2,88.8,253.2L88.8,253.2z"/>
	<path class="st24" d="M106.2,215.5c-0.8,0.8-0.4,2.2,0.5,5.8c1.8,7.4,1.7,8.3,3.2,12.7c1.9,5.4,2.5,5.5,2.8,5.5
		c0.6-0.1,0.9-1.4,1.8-5.5c0.9-4.1,1.7-8.2,2.8-12.2c1.1-4,1.8-5.4,0.9-6.2c-0.9-0.9-2.3,0.1-6.4,0
		C108.2,215.5,107.1,214.8,106.2,215.5z"/>
	<path class="st24" d="M187.8,146.9c0,0-1.3,1.5-2.3,3.2c-3.7,6.1-1.8,17-1.4,29.8c0.4,10-0.5,9.7,0.5,13.3c3,11,12,16.9,12.8,17.4
		c9.2,5.8,21.8,6.5,31.6,0.5c0.6-0.4,9.8-6.3,12.8-17.4c0.5-1.9,0.6-3.2,0.9-8.3c1.5-26.8,0.4-30.3-0.9-33c-3.1-6.2-8-9.6-10.1-11
		c-15.1-10.1-33.3-2.7-37.6,0C190.4,143.8,187.8,146.9,187.8,146.9z"/>
	<path class="st25" d="M191.5,168.9c-0.1-0.2,1-1.8,2.8-2.8c2.2-1.2,5.1-1.2,7.3,0c1.8,1,2.9,2.6,2.8,2.8c-0.1,0.2-1.4-1.2-3.7-1.8
		c-2.7-0.8-5-0.1-5.5,0C192.9,167.7,191.6,169,191.5,168.9z"/>
	<path class="st25" d="M223.5,168.9c-0.1-0.2,1-1.8,2.8-2.8c2.2-1.2,5.1-1.2,7.3,0c1.8,1,2.9,2.6,2.8,2.8c-0.1,0.2-1.4-1.2-3.7-1.8
		c-2.7-0.8-5-0.1-5.5,0C224.9,167.7,223.7,169,223.5,168.9z"/>
	<circle class="st25" cx="199.3" cy="175.7" r="3.2"/>
	<circle class="st25" cx="228.6" cy="175.7" r="3.2"/>
	<path class="st27" d="M197.9,188.1c0,0,1.9,3.2,2.8,4.6c0.9,1.3,3,4.5,6.4,6.4c4.4,2.4,9.8,2,13.8,0c3.1-1.6,5-3.9,5.5-4.6
		c2-2.6,3.7-6.4,3.7-6.4l0,0C230,188.1,197.9,188.1,197.9,188.1L197.9,188.1z"/>
	<path class="st28" d="M203.4,195.5c0.1-0.7,0.8-1.1,1.8-1.8c1.6-1.1,3.3-1.6,5.5-1.8c2.1-0.2,7.9-0.6,12.8,2.8
		c0.4,0.3,0.8,0.5,0.9,0.9c0.4,1.8-5.3,5.6-11,5.5C208.3,200.8,203.1,197.5,203.4,195.5z"/>
	<path class="st29" d="M201.5,190.9c8.3,0,16.5,0,24.8,0c0-0.9,0-1.8,0-2.8h-24.8C201.5,189,201.5,190,201.5,190.9z"/>
	<path class="st24" d="M208,214.6c-0.8,0.8-0.4,2.2,0.5,5.8c1.8,7.4,1.7,8.3,3.2,12.7c1.9,5.4,2.5,5.5,2.8,5.5
		c0.6-0.1,0.9-1.4,1.8-5.5c0.9-4.1,1.7-8.2,2.8-12.2c1.1-4,1.8-5.4,0.9-6.2c-0.9-0.9-2.3,0.1-6.4,0C210,214.6,208.8,213.8,208,214.6
		z"/>
	<path class="st24" d="M290.5,146.9c0,0-1.3,1.5-2.3,3.2c-3.7,6.1-1.8,17-1.4,29.8c0.4,10-0.5,9.7,0.5,13.3c3,11,12,16.9,12.8,17.4
		c9.2,5.8,21.8,6.5,31.6,0.5c0.6-0.4,9.8-6.3,12.8-17.4c0.5-1.9,0.6-3.2,0.9-8.3c1.5-26.8,0.4-30.3-0.9-33c-3.1-6.2-8-9.6-10.1-11
		c-15.1-10.1-33.3-2.7-37.6,0C293.1,143.8,290.5,146.9,290.5,146.9z"/>
	<path class="st25" d="M294.1,168.9c-0.1-0.2,1-1.8,2.8-2.8c2.2-1.2,5.1-1.2,7.3,0c1.8,1,2.9,2.6,2.8,2.8c-0.1,0.2-1.4-1.2-3.7-1.8
		c-2.7-0.8-5-0.1-5.5,0C295.5,167.7,294.3,169,294.1,168.9z"/>
	<path class="st25" d="M326.2,168.9c-0.1-0.2,1-1.8,2.8-2.8c2.2-1.2,5.1-1.2,7.3,0c1.8,1,2.9,2.6,2.8,2.8c-0.1,0.2-1.4-1.2-3.7-1.8
		c-2.7-0.8-5-0.1-5.5,0C327.6,167.7,326.4,169,326.2,168.9z"/>
	<circle class="st25" cx="301.9" cy="175.7" r="3.2"/>
	<circle class="st25" cx="331.3" cy="175.7" r="3.2"/>
	<path class="st27" d="M300.6,188.1c0,0,1.9,3.2,2.8,4.6c0.9,1.3,3,4.5,6.4,6.4c4.4,2.4,9.8,2,13.8,0c3.1-1.6,5-3.9,5.5-4.6
		c2-2.6,3.7-6.4,3.7-6.4l0,0C332.6,188.1,300.6,188.1,300.6,188.1L300.6,188.1z"/>
	<path class="st28" d="M306.1,195.5c0.1-0.7,0.8-1.1,1.8-1.8c1.6-1.1,3.3-1.6,5.5-1.8c2.1-0.2,7.9-0.6,12.8,2.8
		c0.4,0.3,0.8,0.5,0.9,0.9c0.4,1.8-5.3,5.6-11,5.5C311,200.8,305.8,197.5,306.1,195.5z"/>
	<path class="st29" d="M304.2,190.9c8.3,0,16.5,0,24.8,0c0-0.9,0-1.8,0-2.8h-24.8C304.2,189,304.2,190,304.2,190.9z"/>
	<path class="st24" d="M310.6,214.6c-0.8,0.8-0.4,2.2,0.5,5.8c1.8,7.4,1.7,8.3,3.2,12.7c1.9,5.4,2.5,5.5,2.8,5.5
		c0.6-0.1,0.9-1.4,1.8-5.5c0.9-4.1,1.7-8.2,2.8-12.2c1.1-4,1.8-5.4,0.9-6.2c-0.9-0.9-2.3,0.1-6.4,0
		C312.7,214.6,311.5,213.8,310.6,214.6z"/>
	<path class="st30" d="M389.5,146c0,0-1.3,1.5-2.3,3.2c-3.7,6.1-1.8,17-1.4,29.8c0.4,10-0.5,9.7,0.5,13.3c3,11,12,16.9,12.8,17.4
		c9.2,5.8,21.8,6.5,31.6,0.5c0.6-0.4,9.8-6.3,12.8-17.4c0.5-1.9,0.6-3.2,0.9-8.3c1.5-26.8,0.4-30.3-0.9-33c-3.1-6.2-8-9.6-10.1-11
		c-15.1-10.1-33.3-2.7-37.6,0C392.1,142.8,389.5,146,389.5,146z"/>
	<path class="st25" d="M393.1,168c-0.1-0.2,1-1.8,2.8-2.8c2.2-1.2,5.1-1.2,7.3,0c1.8,1,2.9,2.6,2.8,2.8c-0.1,0.2-1.4-1.2-3.7-1.8
		c-2.7-0.8-5-0.1-5.5,0C394.5,166.8,393.3,168.1,393.1,168z"/>
	<path class="st25" d="M425.2,168c-0.1-0.2,1-1.8,2.8-2.8c2.2-1.2,5.1-1.2,7.3,0c1.8,1,2.9,2.6,2.8,2.8c-0.1,0.2-1.4-1.2-3.7-1.8
		c-2.7-0.8-5-0.1-5.5,0C426.6,166.8,425.4,168.1,425.2,168z"/>
	<circle class="st25" cx="400.9" cy="174.8" r="3.2"/>
	<circle class="st25" cx="430.3" cy="174.8" r="3.2"/>
	<path class="st27" d="M399.6,187.2c0,0,1.9,3.2,2.8,4.6c0.9,1.3,3,4.5,6.4,6.4c4.4,2.4,9.8,2,13.8,0c3.1-1.6,5-3.9,5.5-4.6
		c2-2.6,3.7-6.4,3.7-6.4l0,0C431.6,187.2,399.6,187.2,399.6,187.2L399.6,187.2z"/>
	<path class="st28" d="M405.1,194.5c0.1-0.7,0.8-1.1,1.8-1.8c1.6-1.1,3.3-1.6,5.5-1.8c2.1-0.2,7.9-0.6,12.8,2.8
		c0.4,0.3,0.8,0.5,0.9,0.9c0.4,1.8-5.3,5.6-11,5.5C410,199.9,404.8,196.6,405.1,194.5z"/>
	<path class="st29" d="M403.2,190c8.3,0,16.5,0,24.8,0c0-0.9,0-1.8,0-2.8h-24.8C403.2,188.1,403.2,189,403.2,190z"/>
	<path class="st30" d="M409.6,213.7c-0.8,0.8-0.4,2.2,0.5,5.8c1.8,7.4,1.7,8.3,3.2,12.7c1.9,5.4,2.5,5.5,2.8,5.5
		c0.6-0.1,0.9-1.4,1.8-5.5c0.9-4.1,1.7-8.2,2.8-12.2c1.1-4,1.8-5.4,0.9-6.2c-0.9-0.9-2.3,0.1-6.4,0
		C411.7,213.6,410.5,212.9,409.6,213.7z"/>
	<path class="st24" d="M492.1,146c0,0-1.3,1.5-2.3,3.2c-3.7,6.1-1.8,17-1.4,29.8c0.4,10-0.5,9.7,0.5,13.3c3,11,12,16.9,12.8,17.4
		c9.2,5.8,21.8,6.5,31.6,0.5c0.6-0.4,9.8-6.3,12.8-17.4c0.5-1.9,0.6-3.2,0.9-8.3c1.5-26.8,0.4-30.3-0.9-33c-3.1-6.2-8-9.6-10.1-11
		c-15.1-10.1-33.3-2.7-37.6,0C494.7,142.8,492.1,146,492.1,146z"/>
	<path class="st25" d="M495.8,168c-0.1-0.2,1-1.8,2.8-2.8c2.2-1.2,5.1-1.2,7.3,0c1.8,1,2.9,2.6,2.8,2.8c-0.1,0.2-1.4-1.2-3.7-1.8
		c-2.7-0.8-5-0.1-5.5,0C497.2,166.8,495.9,168.1,495.8,168z"/>
	<path class="st25" d="M527.9,168c-0.1-0.2,1-1.8,2.8-2.8c2.2-1.2,5.1-1.2,7.3,0c1.8,1,2.9,2.6,2.8,2.8c-0.1,0.2-1.4-1.2-3.7-1.8
		c-2.7-0.8-5-0.1-5.5,0C529.3,166.8,528,168.1,527.9,168z"/>
	<circle class="st25" cx="503.6" cy="174.8" r="3.2"/>
	<circle class="st25" cx="532.9" cy="174.8" r="3.2"/>
	<path class="st27" d="M502.2,187.2c0,0,1.9,3.2,2.8,4.6c0.9,1.3,3,4.5,6.4,6.4c4.4,2.4,9.8,2,13.8,0c3.1-1.6,5-3.9,5.5-4.6
		c2-2.6,3.7-6.4,3.7-6.4l0,0C534.3,187.2,502.2,187.2,502.2,187.2L502.2,187.2z"/>
	<path class="st28" d="M507.7,194.5c0.1-0.7,0.8-1.1,1.8-1.8c1.6-1.1,3.3-1.6,5.5-1.8c2.1-0.2,7.9-0.6,12.8,2.8
		c0.4,0.3,0.8,0.5,0.9,0.9c0.4,1.8-5.3,5.6-11,5.5C512.6,199.9,507.5,196.6,507.7,194.5z"/>
	<path class="st29" d="M505.9,190c8.3,0,16.5,0,24.8,0c0-0.9,0-1.8,0-2.8h-24.8C505.9,188.1,505.9,189,505.9,190z"/>
	<path class="st24" d="M512.3,213.7c-0.8,0.8-0.4,2.2,0.5,5.8c1.8,7.4,1.7,8.3,3.2,12.7c1.9,5.4,2.5,5.5,2.8,5.5
		c0.6-0.1,0.9-1.4,1.8-5.5c0.9-4.1,1.7-8.2,2.8-12.2c1.1-4,1.8-5.4,0.9-6.2c-0.9-0.9-2.3,0.1-6.4,0
		C514.3,213.6,513.1,212.9,512.3,213.7z"/>
	<path class="st24" d="M591.1,145c0,0-1.3,1.5-2.3,3.2c-3.7,6.1-1.8,17-1.4,29.8c0.4,10-0.5,9.7,0.5,13.3c3,11,12,16.9,12.8,17.4
		c9.2,5.8,21.8,6.5,31.6,0.5c0.6-0.4,9.8-6.3,12.8-17.4c0.5-1.9,0.6-3.2,0.9-8.3c1.5-26.8,0.4-30.3-0.9-33c-3.1-6.2-8-9.6-10.1-11
		c-15.1-10.1-33.3-2.7-37.6,0C593.7,141.9,591.1,145,591.1,145z"/>
	<path class="st25" d="M594.8,167c-0.1-0.2,1-1.8,2.8-2.8c2.2-1.2,5.1-1.2,7.3,0c1.8,1,2.9,2.6,2.8,2.8c-0.1,0.2-1.4-1.2-3.7-1.8
		c-2.7-0.8-5-0.1-5.5,0C596.2,165.9,594.9,167.2,594.8,167z"/>
	<path class="st25" d="M626.9,167c-0.1-0.2,1-1.8,2.8-2.8c2.2-1.2,5.1-1.2,7.3,0c1.8,1,2.9,2.6,2.8,2.8c-0.1,0.2-1.4-1.2-3.7-1.8
		c-2.7-0.8-5-0.1-5.5,0C628.3,165.9,627,167.2,626.9,167z"/>
	<circle class="st25" cx="602.6" cy="173.9" r="3.2"/>
	<circle class="st25" cx="631.9" cy="173.9" r="3.2"/>
	<path class="st27" d="M601.2,186.3c0,0,1.9,3.2,2.8,4.6c0.9,1.3,3,4.5,6.4,6.4c4.4,2.4,9.8,2,13.8,0c3.1-1.6,5-3.9,5.5-4.6
		c2-2.6,3.7-6.4,3.7-6.4l0,0C633.3,186.3,601.2,186.3,601.2,186.3L601.2,186.3z"/>
	<path class="st28" d="M606.7,193.6c0.1-0.7,0.8-1.1,1.8-1.8c1.6-1.1,3.3-1.6,5.5-1.8c2.1-0.2,7.9-0.6,12.8,2.8
		c0.4,0.3,0.8,0.5,0.9,0.9c0.4,1.8-5.3,5.6-11,5.5C611.6,199,606.5,195.7,606.7,193.6z"/>
	<path class="st29" d="M604.9,189c8.2,0,16.5,0,24.8,0c0-0.9,0-1.8,0-2.8h-24.8C604.9,187.2,604.9,188.1,604.9,189z"/>
	<linearGradient id="SVGID_13_" gradientUnits="userSpaceOnUse" x1="593.6471" y1="237.7388" x2="639.7244" y2="237.7388">
		<stop  offset="0.5248" style="stop-color:#FF4447"/>
		<stop  offset="0.5275" style="stop-color:#C2391D"/>
	</linearGradient>
	<path class="st31" d="M593.9,250.5c0,0,5.4,2.4,9.2,3.7c5.5,1.8,10.1,1.8,15.6,1.8c3.1,0,6.8-0.2,11-0.9c2.9-0.5,9.6-1.8,10.1-4.6
		c0-0.1,0-0.1,0-0.9c0-2.6,0-4.3,0-4.6c0-9.2-4.6-15.6-4.6-15.6c-3.6-5.1-8.6-7.4-11-8.3c-2-0.7-9-3.2-16.5,0
		c-4.5,1.9-7,4.9-8.2,6.4c-0.7,0.9-4.6,5.7-5.5,12.8C593.3,244.7,593.9,250.5,593.9,250.5L593.9,250.5z"/>
	<path class="st24" d="M611.3,212.8c-0.8,0.8-0.4,2.2,0.5,5.8c1.8,7.4,1.7,8.3,3.2,12.7c1.9,5.4,2.5,5.5,2.8,5.5
		c0.6-0.1,0.9-1.4,1.8-5.5c0.9-4.1,1.7-8.2,2.8-12.2c1.1-4,1.8-5.4,0.9-6.2c-0.9-0.9-2.3,0.1-6.4,0
		C613.3,212.7,612.1,212,611.3,212.8z"/>
	<path class="st32" d="M77.8,144.1c-0.1,3.7,5.4,6.6,9.6,8.7c11.3,5.6,17,8.4,26.6,10.1c12.4,2.2,35.6,4,38-3.2
		c0.2-0.6,0.2-1.1,0-2.8c-1.7-11.4-9.3-19.4-10.1-20.2c-7.9-8.1-17.1-10.3-20.2-11c0,0-18.2-4.2-33.9,6.4c-4.2,2.8-7.3,6.9-8.3,8.3
		C78.1,142.5,77.8,143.3,77.8,144.1z"/>
	<path class="st24" d="M138.3,251.4c0,0-1.3,1.5-2.3,3.2c-3.7,6.1-1.8,17-1.4,29.8c0.4,10-0.5,9.7,0.5,13.3c3,11,12,16.9,12.8,17.4
		c9.2,5.8,21.8,6.5,31.6,0.5c0.6-0.4,9.8-6.3,12.8-17.4c0.5-1.9,0.6-3.2,0.9-8.3c1.5-26.8,0.4-30.3-0.9-33c-3.1-6.2-8-9.6-10.1-11
		c-15.1-10.1-33.3-2.7-37.6,0C140.9,248.3,138.3,251.4,138.3,251.4z"/>
	<path class="st25" d="M142,273.4c-0.1-0.2,1-1.8,2.8-2.8c2.2-1.2,5.1-1.2,7.3,0c1.8,1,2.9,2.6,2.8,2.8c-0.1,0.2-1.4-1.2-3.7-1.8
		c-2.7-0.8-5-0.1-5.5,0C143.4,272.2,142.1,273.5,142,273.4z"/>
	<path class="st25" d="M174,273.4c-0.1-0.2,1-1.8,2.8-2.8c2.2-1.2,5.1-1.2,7.3,0c1.8,1,2.9,2.6,2.8,2.8c-0.1,0.2-1.4-1.2-3.7-1.8
		c-2.7-0.8-5-0.1-5.5,0C175.4,272.2,174.2,273.5,174,273.4z"/>
	<circle class="st25" cx="149.8" cy="280.2" r="3.2"/>
	<circle class="st25" cx="179.1" cy="280.2" r="3.2"/>
	<path class="st27" d="M148.4,292.6c0,0,1.9,3.2,2.8,4.6c0.9,1.3,3,4.5,6.4,6.4c4.4,2.4,9.8,2,13.8,0c3.1-1.6,5-3.9,5.5-4.6
		c2-2.6,3.7-6.4,3.7-6.4l0,0C180.5,292.6,148.4,292.6,148.4,292.6L148.4,292.6z"/>
	<path class="st28" d="M153.9,300c0.1-0.7,0.8-1.1,1.8-1.8c1.6-1.1,3.3-1.6,5.5-1.8c2.1-0.2,7.9-0.6,12.8,2.8
		c0.4,0.3,0.8,0.5,0.9,0.9c0.4,1.8-5.3,5.6-11,5.5C158.8,305.3,153.6,302,153.9,300z"/>
	<path class="st29" d="M152,295.4c8.3,0,16.5,0,24.8,0c0-0.9,0-1.8,0-2.8H152C152,293.5,152,294.5,152,295.4z"/>
	<path class="st24" d="M158.5,319.1c-0.8,0.8-0.4,2.2,0.5,5.8c1.8,7.4,1.7,8.3,3.2,12.7c1.9,5.4,2.5,5.5,2.8,5.5
		c0.6-0.1,0.9-1.4,1.8-5.5c0.9-4.1,1.7-8.2,2.8-12.2c1.1-4,1.8-5.4,0.9-6.2c-0.9-0.9-2.3,0.1-6.4,0
		C160.5,319.1,159.3,318.3,158.5,319.1z"/>
	<path class="st33" d="M239.1,251.4c0,0-1.3,1.5-2.3,3.2c-3.7,6.1-1.8,17-1.4,29.8c0.4,10-0.5,9.7,0.5,13.3c3,11,12,16.9,12.8,17.4
		c9.2,5.8,21.8,6.5,31.6,0.5c0.6-0.4,9.8-6.3,12.8-17.4c0.5-1.9,0.6-3.2,0.9-8.3c1.5-26.8,0.4-30.3-0.9-33c-3.1-6.2-8-9.6-10.1-11
		c-15.1-10.1-33.3-2.7-37.6,0C241.7,248.3,239.1,251.4,239.1,251.4z"/>
	<path class="st25" d="M242.8,273.4c-0.1-0.2,1-1.8,2.8-2.8c2.2-1.2,5.1-1.2,7.3,0c1.8,1,2.9,2.6,2.8,2.8c-0.1,0.2-1.4-1.2-3.7-1.8
		c-2.7-0.8-5-0.1-5.5,0C244.2,272.2,242.9,273.5,242.8,273.4z"/>
	<path class="st25" d="M274.9,273.4c-0.1-0.2,1-1.8,2.8-2.8c2.2-1.2,5.1-1.2,7.3,0c1.8,1,2.9,2.6,2.8,2.8c-0.1,0.2-1.4-1.2-3.7-1.8
		c-2.7-0.8-5-0.1-5.5,0C276.3,272.2,275,273.5,274.9,273.4z"/>
	<circle class="st25" cx="250.6" cy="280.2" r="3.2"/>
	<circle class="st25" cx="279.9" cy="280.2" r="3.2"/>
	<path class="st27" d="M249.2,292.6c0,0,1.9,3.2,2.8,4.6c0.9,1.3,3,4.5,6.4,6.4c4.4,2.4,9.8,2,13.8,0c3.1-1.6,5-3.9,5.5-4.6
		c2-2.6,3.7-6.4,3.7-6.4l0,0C281.3,292.6,249.2,292.6,249.2,292.6L249.2,292.6z"/>
	<path class="st28" d="M254.7,300c0.1-0.7,0.8-1.1,1.8-1.8c1.6-1.1,3.3-1.6,5.5-1.8c2.1-0.2,7.9-0.6,12.8,2.8
		c0.4,0.3,0.8,0.5,0.9,0.9c0.4,1.8-5.3,5.6-11,5.5C259.6,305.3,254.5,302,254.7,300z"/>
	<path class="st29" d="M252.9,295.4c8.3,0,16.5,0,24.8,0c0-0.9,0-1.8,0-2.8h-24.8C252.9,293.5,252.9,294.5,252.9,295.4z"/>
	<path class="st33" d="M259.3,319.1c-0.8,0.8-0.4,2.2,0.5,5.8c1.8,7.4,1.7,8.3,3.2,12.7c1.9,5.4,2.5,5.5,2.8,5.5
		c0.6-0.1,0.9-1.4,1.8-5.5c0.9-4.1,1.7-8.2,2.8-12.2c1.1-4,1.8-5.4,0.9-6.2c-0.9-0.9-2.3,0.1-6.4,0
		C261.3,319.1,260.1,318.3,259.3,319.1z"/>
	<path class="st33" d="M340.9,250.5c0,0-1.3,1.5-2.3,3.2c-3.7,6.1-1.8,17-1.4,29.8c0.4,10-0.5,9.7,0.5,13.3c3,11,12,16.9,12.8,17.4
		c9.2,5.8,21.8,6.5,31.6,0.5c0.6-0.4,9.8-6.3,12.8-17.4c0.5-1.9,0.6-3.2,0.9-8.3c1.5-26.8,0.4-30.3-0.9-33c-3.1-6.2-8-9.6-10.1-11
		c-15.1-10.1-33.3-2.7-37.6,0C343.5,247.3,340.9,250.5,340.9,250.5z"/>
	<path class="st25" d="M344.6,272.5c-0.1-0.2,1-1.8,2.8-2.8c2.2-1.2,5.1-1.2,7.3,0c1.8,1,2.9,2.6,2.8,2.8c-0.1,0.2-1.4-1.2-3.7-1.8
		c-2.7-0.8-5-0.1-5.5,0C345.9,271.3,344.7,272.6,344.6,272.5z"/>
	<path class="st25" d="M376.6,272.5c-0.1-0.2,1-1.8,2.8-2.8c2.2-1.2,5.1-1.2,7.3,0c1.8,1,2.9,2.6,2.8,2.8c-0.1,0.2-1.4-1.2-3.7-1.8
		c-2.7-0.8-5-0.1-5.5,0C378,271.3,376.8,272.6,376.6,272.5z"/>
	<circle class="st25" cx="352.3" cy="279.3" r="3.2"/>
	<circle class="st25" cx="381.7" cy="279.3" r="3.2"/>
	<path class="st27" d="M351,291.7c0,0,1.9,3.2,2.8,4.6c0.9,1.3,3,4.5,6.4,6.4c4.4,2.4,9.8,2,13.8,0c3.1-1.6,5-3.9,5.5-4.6
		c2-2.6,3.7-6.4,3.7-6.4l0,0C383.1,291.7,351,291.7,351,291.7L351,291.7z"/>
	<path class="st28" d="M356.5,299c0.1-0.7,0.8-1.1,1.8-1.8c1.6-1.1,3.3-1.6,5.5-1.8c2.1-0.2,7.9-0.6,12.8,2.8
		c0.4,0.3,0.8,0.5,0.9,0.9c0.4,1.8-5.3,5.6-11,5.5C361.4,304.4,356.2,301.1,356.5,299z"/>
	<path class="st29" d="M354.6,294.5c8.3,0,16.5,0,24.8,0c0-0.9,0-1.8,0-2.8h-24.8C354.6,292.6,354.6,293.5,354.6,294.5z"/>
	<path class="st33" d="M361.1,318.2c-0.8,0.8-0.4,2.2,0.5,5.8c1.8,7.4,1.7,8.3,3.2,12.7c1.9,5.4,2.5,5.5,2.8,5.5
		c0.6-0.1,0.9-1.4,1.8-5.5c0.9-4.1,1.7-8.2,2.8-12.2c1.1-4,1.8-5.4,0.9-6.2c-0.9-0.9-2.3,0.1-6.4,0
		C363.1,318.1,361.9,317.4,361.1,318.2z"/>
	<path class="st24" d="M440.8,250.5c0,0-1.3,1.5-2.3,3.2c-3.7,6.1-1.8,17-1.4,29.8c0.4,10-0.5,9.7,0.5,13.3c3,11,12,16.9,12.8,17.4
		c9.2,5.8,21.8,6.5,31.6,0.5c0.6-0.4,9.8-6.3,12.8-17.4c0.5-1.9,0.6-3.2,0.9-8.3c1.5-26.8,0.4-30.3-0.9-33c-3.1-6.2-8-9.6-10.1-11
		c-15.1-10.1-33.3-2.7-37.6,0C443.4,247.3,440.8,250.5,440.8,250.5z"/>
	<path class="st25" d="M444.5,272.5c-0.1-0.2,1-1.8,2.8-2.8c2.2-1.2,5.1-1.2,7.3,0c1.8,1,2.9,2.6,2.8,2.8c-0.1,0.2-1.4-1.2-3.7-1.8
		c-2.7-0.8-5-0.1-5.5,0C445.9,271.3,444.6,272.6,444.5,272.5z"/>
	<path class="st25" d="M476.6,272.5c-0.1-0.2,1-1.8,2.8-2.8c2.2-1.2,5.1-1.2,7.3,0c1.8,1,2.9,2.6,2.8,2.8c-0.1,0.2-1.4-1.2-3.7-1.8
		c-2.7-0.8-5-0.1-5.5,0C477.9,271.3,476.7,272.6,476.6,272.5z"/>
	<circle class="st25" cx="452.3" cy="279.3" r="3.2"/>
	<circle class="st25" cx="481.6" cy="279.3" r="3.2"/>
	<path class="st27" d="M450.9,291.7c0,0,1.9,3.2,2.8,4.6c0.9,1.3,3,4.5,6.4,6.4c4.4,2.4,9.8,2,13.8,0c3.1-1.6,5-3.9,5.5-4.6
		c2-2.6,3.7-6.4,3.7-6.4l0,0C483,291.7,450.9,291.7,450.9,291.7L450.9,291.7z"/>
	<path class="st28" d="M456.4,299c0.1-0.7,0.8-1.1,1.8-1.8c1.6-1.1,3.3-1.6,5.5-1.8c2.1-0.2,7.9-0.6,12.8,2.8
		c0.4,0.3,0.8,0.5,0.9,0.9c0.4,1.8-5.3,5.6-11,5.5C461.3,304.4,456.1,301.1,456.4,299z"/>
	<path class="st29" d="M454.6,294.5c8.3,0,16.5,0,24.8,0c0-0.9,0-1.8,0-2.8h-24.8C454.6,292.6,454.6,293.5,454.6,294.5z"/>
	<path class="st24" d="M461,318.2c-0.8,0.8-0.4,2.2,0.5,5.8c1.8,7.4,1.7,8.3,3.2,12.7c1.9,5.4,2.5,5.5,2.8,5.5
		c0.6-0.1,0.9-1.4,1.8-5.5c0.9-4.1,1.7-8.2,2.8-12.2c1.1-4,1.8-5.4,0.9-6.2c-0.9-0.9-2.3,0.1-6.4,0C463,318.1,461.8,317.4,461,318.2
		z"/>
	<path class="st34" d="M542.6,249.5c0,0-1.3,1.5-2.3,3.2c-3.7,6.1-1.8,17-1.4,29.8c0.4,10-0.5,9.7,0.5,13.3c3,11,12,16.9,12.8,17.4
		c9.2,5.8,21.8,6.5,31.6,0.5c0.6-0.4,9.8-6.3,12.8-17.4c0.5-1.9,0.6-3.2,0.9-8.3c1.5-26.8,0.4-30.3-0.9-33c-3.1-6.2-8-9.6-10.1-11
		c-15.1-10.1-33.3-2.7-37.6,0C545.2,246.4,542.6,249.5,542.6,249.5z"/>
	<path class="st25" d="M546.2,271.5c-0.1-0.2,1-1.8,2.8-2.8c2.2-1.2,5.1-1.2,7.3,0c1.8,1,2.9,2.6,2.8,2.8c-0.1,0.2-1.4-1.2-3.7-1.8
		c-2.7-0.8-5-0.1-5.5,0C547.6,270.4,546.4,271.7,546.2,271.5z"/>
	<path class="st25" d="M578.3,271.5c-0.1-0.2,1-1.8,2.8-2.8c2.2-1.2,5.1-1.2,7.3,0c1.8,1,2.9,2.6,2.8,2.8c-0.1,0.2-1.4-1.2-3.7-1.8
		c-2.7-0.8-5-0.1-5.5,0C579.7,270.4,578.4,271.7,578.3,271.5z"/>
	<path class="st27" d="M552.6,290.8c0,0,1.9,3.2,2.8,4.6c0.9,1.3,3,4.5,6.4,6.4c4.4,2.4,9.8,2,13.8,0c3.1-1.6,5-3.9,5.5-4.6
		c2-2.6,3.7-6.4,3.7-6.4l0,0C584.7,290.8,552.6,290.8,552.6,290.8L552.6,290.8z"/>
	<path class="st28" d="M558.1,298.1c0.1-0.7,0.8-1.1,1.8-1.8c1.6-1.1,3.3-1.6,5.5-1.8c2.1-0.2,7.9-0.6,12.8,2.8
		c0.4,0.3,0.8,0.5,0.9,0.9c0.4,1.8-5.3,5.6-11,5.5C563,303.5,557.9,300.2,558.1,298.1z"/>
	<path class="st29" d="M556.3,293.5c8.3,0,16.5,0,24.8,0c0-0.9,0-1.8,0-2.8h-24.8C556.3,291.7,556.3,292.6,556.3,293.5z"/>
	<path class="st34" d="M562.7,317.3c-0.8,0.8-0.4,2.2,0.5,5.8c1.8,7.4,1.7,8.3,3.2,12.7c1.9,5.4,2.5,5.5,2.8,5.5
		c0.6-0.1,0.9-1.4,1.8-5.5c0.9-4.1,1.7-8.2,2.8-12.2c1.1-4,1.8-5.4,0.9-6.2c-0.9-0.9-2.3,0.1-6.4,0
		C564.7,317.2,563.6,316.5,562.7,317.3z"/>
	<path class="st25" d="M122.7,371.5c-0.1-0.2,1-1.8,2.8-2.8c2.2-1.2,5.1-1.2,7.3,0c1.8,1,2.9,2.6,2.8,2.8c-0.1,0.2-1.4-1.2-3.7-1.8
		c-2.7-0.8-5-0.1-5.5,0C124.1,370.3,122.9,371.6,122.7,371.5z"/>
	<path class="st24" d="M188.7,348.5c0,0-1.3,1.5-2.3,3.2c-3.7,6.1-1.8,17-1.4,29.8c0.4,10-0.5,9.7,0.5,13.3c3,11,12,16.9,12.8,17.4
		c9.2,5.8,21.8,6.5,31.6,0.5c0.6-0.4,9.8-6.3,12.8-17.4c0.5-1.9,0.6-3.2,0.9-8.3c1.5-26.8,0.4-30.3-0.9-33c-3.1-6.2-8-9.6-10.1-11
		c-15.1-10.1-33.3-2.7-37.6,0C191.3,345.4,188.7,348.5,188.7,348.5z"/>
	<path class="st25" d="M192.4,370.5c-0.1-0.2,1-1.8,2.8-2.8c2.2-1.2,5.1-1.2,7.3,0c1.8,1,2.9,2.6,2.8,2.8c-0.1,0.2-1.4-1.2-3.7-1.8
		c-2.7-0.8-5-0.1-5.5,0C193.8,369.4,192.5,370.7,192.4,370.5z"/>
	<path class="st25" d="M224.5,370.5c-0.1-0.2,1-1.8,2.8-2.8c2.2-1.2,5.1-1.2,7.3,0c1.8,1,2.9,2.6,2.8,2.8c-0.1,0.2-1.4-1.2-3.7-1.8
		c-2.7-0.8-5-0.1-5.5,0C225.9,369.4,224.6,370.7,224.5,370.5z"/>
	<circle class="st25" cx="200.2" cy="377.4" r="3.2"/>
	<circle class="st25" cx="229.5" cy="377.4" r="3.2"/>
	<path class="st24" d="M208.9,416.3c-0.8,0.8-0.4,2.2,0.5,5.8c1.8,7.4,1.7,8.3,3.2,12.7c1.9,5.4,2.5,5.5,2.8,5.5
		c0.6-0.1,0.9-1.4,1.8-5.5c0.9-4.1,1.7-8.2,2.8-12.2c1.1-4,1.8-5.4,0.9-6.2c-0.9-0.9-2.3,0.1-6.4,0
		C210.9,416.2,209.7,415.5,208.9,416.3z"/>
	<path class="st24" d="M291.4,348.5c0,0-1.3,1.5-2.3,3.2c-3.7,6.1-1.8,17-1.4,29.8c0.4,10-0.5,9.7,0.5,13.3c3,11,12,16.9,12.8,17.4
		c9.2,5.8,21.8,6.5,31.6,0.5c0.6-0.4,9.8-6.3,12.8-17.4c0.5-1.9,0.6-3.2,0.9-8.3c1.5-26.8,0.4-30.3-0.9-33c-3.1-6.2-8-9.6-10.1-11
		c-15.1-10.1-33.3-2.7-37.6,0C294,345.4,291.4,348.5,291.4,348.5z"/>
	<path class="st25" d="M295.1,370.5c-0.1-0.2,1-1.8,2.8-2.8c2.2-1.2,5.1-1.2,7.3,0c1.8,1,2.9,2.6,2.8,2.8c-0.1,0.2-1.4-1.2-3.7-1.8
		c-2.7-0.8-5-0.1-5.5,0C296.4,369.4,295.2,370.7,295.1,370.5z"/>
	<path class="st25" d="M327.1,370.5c-0.1-0.2,1-1.8,2.8-2.8c2.2-1.2,5.1-1.2,7.3,0c1.8,1,2.9,2.6,2.8,2.8c-0.1,0.2-1.4-1.2-3.7-1.8
		c-2.7-0.8-5-0.1-5.5,0C328.5,369.4,327.3,370.7,327.1,370.5z"/>
	<circle class="st25" cx="302.8" cy="377.4" r="3.2"/>
	<circle class="st25" cx="332.2" cy="377.4" r="3.2"/>
	<path class="st27" d="M301.5,389.8c0,0,1.9,3.2,2.8,4.6c0.9,1.3,3,4.5,6.4,6.4c4.4,2.4,9.8,2,13.8,0c3.1-1.6,5-3.9,5.5-4.6
		c2-2.6,3.7-6.4,3.7-6.4l0,0C333.6,389.8,301.5,389.8,301.5,389.8L301.5,389.8z"/>
	<path class="st28" d="M307,397.1c0.1-0.7,0.8-1.1,1.8-1.8c1.6-1.1,3.3-1.6,5.5-1.8c2.1-0.2,7.9-0.6,12.8,2.8
		c0.4,0.3,0.8,0.5,0.9,0.9c0.4,1.8-5.3,5.6-11,5.5C311.9,402.5,306.7,399.2,307,397.1z"/>
	<path class="st29" d="M305.1,392.5c8.3,0,16.5,0,24.8,0c0-0.9,0-1.8,0-2.8h-24.8C305.1,390.7,305.1,391.6,305.1,392.5z"/>
	<linearGradient id="SVGID_14_" gradientUnits="userSpaceOnUse" x1="293.8959" y1="441.2396" x2="339.9733" y2="441.2396">
		<stop  offset="0.5248" style="stop-color:#20D7A4"/>
		<stop  offset="0.5275" style="stop-color:#5CBFA0"/>
	</linearGradient>
	<path class="st35" d="M294.1,454c0,0,5.4,2.4,9.2,3.7c5.5,1.8,10.1,1.8,15.6,1.8c3.1,0,6.8-0.2,11-0.9c2.9-0.5,9.6-1.8,10.1-4.6
		c0-0.1,0-0.1,0-0.9c0-2.6,0-4.3,0-4.6c0-9.2-4.6-15.6-4.6-15.6c-3.6-5.1-8.6-7.4-11-8.3c-2-0.7-9-3.2-16.5,0
		c-4.5,1.9-7,4.9-8.3,6.4c-0.7,0.9-4.6,5.7-5.5,12.8C293.6,448.2,294.1,454,294.1,454L294.1,454z"/>
	<path class="st24" d="M311.6,416.3c-0.8,0.8-0.4,2.2,0.5,5.8c1.8,7.4,1.7,8.3,3.2,12.7c1.9,5.4,2.5,5.5,2.8,5.5
		c0.6-0.1,0.9-1.4,1.8-5.5c0.9-4.1,1.7-8.2,2.8-12.2c1.1-4,1.8-5.4,0.9-6.2c-0.9-0.9-2.3,0.1-6.4,0
		C313.6,416.2,312.4,415.5,311.6,416.3z"/>
	<path class="st24" d="M390.4,347.6c0,0-1.3,1.5-2.3,3.2c-3.7,6.1-1.8,17-1.4,29.8c0.4,10-0.5,9.7,0.5,13.3c3,11,12,16.9,12.8,17.4
		c9.2,5.8,21.8,6.5,31.6,0.5c0.6-0.4,9.8-6.3,12.8-17.4c0.5-1.9,0.6-3.2,0.9-8.3c1.5-26.8,0.4-30.3-0.9-33c-3.1-6.2-8-9.6-10.1-11
		c-15.1-10.1-33.3-2.7-37.6,0C393,344.5,390.4,347.6,390.4,347.6z"/>
	<path class="st25" d="M394.1,369.6c-0.1-0.2,1-1.8,2.8-2.8c2.2-1.2,5.1-1.2,7.3,0c1.8,1,2.9,2.6,2.8,2.8c-0.1,0.2-1.4-1.2-3.7-1.8
		c-2.7-0.8-5-0.1-5.5,0C395.4,368.5,394.2,369.8,394.1,369.6z"/>
	<path class="st25" d="M426.1,369.6c-0.1-0.2,1-1.8,2.8-2.8c2.2-1.2,5.1-1.2,7.3,0c1.8,1,2.9,2.6,2.8,2.8c-0.1,0.2-1.4-1.2-3.7-1.8
		c-2.7-0.8-5-0.1-5.5,0C427.5,368.5,426.3,369.8,426.1,369.6z"/>
	<circle class="st25" cx="401.8" cy="376.5" r="3.2"/>
	<circle class="st25" cx="431.2" cy="376.5" r="3.2"/>
	<path class="st27" d="M400.5,388.9c0,0,1.9,3.2,2.8,4.6c0.9,1.3,3,4.5,6.4,6.4c4.4,2.4,9.8,2,13.8,0c3.1-1.6,5-3.9,5.5-4.6
		c2-2.6,3.7-6.4,3.7-6.4l0,0C432.6,388.9,400.5,388.9,400.5,388.9L400.5,388.9z"/>
	<path class="st28" d="M406,396.2c0.1-0.7,0.8-1.1,1.8-1.8c1.6-1.1,3.3-1.6,5.5-1.8c2.1-0.2,7.9-0.6,12.8,2.8
		c0.4,0.3,0.8,0.5,0.9,0.9c0.4,1.8-5.3,5.6-11,5.5C410.9,401.6,405.7,398.2,406,396.2z"/>
	<path class="st29" d="M404.1,391.6c8.3,0,16.5,0,24.8,0c0-0.9,0-1.8,0-2.8h-24.8C404.1,389.8,404.1,390.7,404.1,391.6z"/>
	<path class="st24" d="M410.6,415.4c-0.8,0.8-0.4,2.2,0.5,5.8c1.8,7.4,1.7,8.3,3.2,12.7c1.9,5.4,2.5,5.5,2.8,5.5
		c0.6-0.1,0.9-1.4,1.8-5.5c0.9-4.1,1.7-8.2,2.8-12.2c1.1-4,1.8-5.4,0.9-6.2c-0.9-0.9-2.3,0.1-6.4,0
		C412.6,415.3,411.4,414.6,410.6,415.4z"/>
	<path class="st33" d="M493.1,347.6c0,0-1.3,1.5-2.3,3.2c-3.7,6.1-1.8,17-1.4,29.8c0.4,10-0.5,9.7,0.5,13.3c3,11,12,16.9,12.8,17.4
		c9.2,5.8,21.8,6.5,31.6,0.5c0.6-0.4,9.8-6.3,12.8-17.4c0.5-1.9,0.6-3.2,0.9-8.3c1.5-26.8,0.4-30.3-0.9-33c-3.1-6.2-8-9.6-10.1-11
		c-15.1-10.1-33.3-2.7-37.6,0C495.7,344.5,493.1,347.6,493.1,347.6z"/>
	<path class="st25" d="M496.7,369.6c-0.1-0.2,1-1.8,2.8-2.8c2.2-1.2,5.1-1.2,7.3,0c1.8,1,2.9,2.6,2.8,2.8c-0.1,0.2-1.4-1.2-3.7-1.8
		c-2.7-0.8-5-0.1-5.5,0C498.1,368.5,496.9,369.8,496.7,369.6z"/>
	<path class="st25" d="M528.8,369.6c-0.1-0.2,1-1.8,2.8-2.8c2.2-1.2,5.1-1.2,7.3,0c1.8,1,2.9,2.6,2.8,2.8c-0.1,0.2-1.4-1.2-3.7-1.8
		c-2.7-0.8-5-0.1-5.5,0C530.2,368.5,528.9,369.8,528.8,369.6z"/>
	<circle class="st25" cx="504.5" cy="376.5" r="3.2"/>
	<circle class="st25" cx="533.8" cy="376.5" r="3.2"/>
	<linearGradient id="SVGID_15_" gradientUnits="userSpaceOnUse" x1="495.5634" y1="440.3229" x2="541.6407" y2="440.3229">
		<stop  offset="0.5248" style="stop-color:#2F548E"/>
		<stop  offset="0.5275" style="stop-color:#2F54C2"/>
	</linearGradient>
	<path class="st36" d="M495.8,453c0,0,5.4,2.4,9.2,3.7c5.5,1.8,10.1,1.8,15.6,1.8c3.1,0,6.8-0.2,11-0.9c2.9-0.5,9.6-1.8,10.1-4.6
		c0-0.1,0-0.1,0-0.9c0-2.6,0-4.3,0-4.6c0-9.2-4.6-15.6-4.6-15.6c-3.6-5.1-8.6-7.4-11-8.3c-2-0.7-9-3.2-16.5,0
		c-4.5,1.9-7,4.9-8.3,6.4c-0.7,0.9-4.6,5.7-5.5,12.8C495.3,447.3,495.8,453,495.8,453L495.8,453z"/>
	<path class="st33" d="M513.2,415.4c-0.8,0.8-0.4,2.2,0.5,5.8c1.8,7.4,1.7,8.3,3.2,12.7c1.9,5.4,2.5,5.5,2.8,5.5
		c0.6-0.1,0.9-1.4,1.8-5.5c0.9-4.1,1.7-8.2,2.8-12.2c1.1-4,1.8-5.4,0.9-6.2c-0.9-0.9-2.3,0.1-6.4,0
		C515.2,415.3,514.1,414.6,513.2,415.4z"/>
	<path class="st24" d="M592.1,346.7c0,0-1.3,1.5-2.3,3.2c-3.7,6.1-1.8,17-1.4,29.8c0.4,10-0.5,9.7,0.5,13.3c3,11,12,16.9,12.8,17.4
		c9.2,5.8,21.8,6.5,31.6,0.5c0.6-0.4,9.8-6.3,12.8-17.4c0.5-1.9,0.6-3.2,0.9-8.3c1.5-26.8,0.4-30.3-0.9-33c-3.1-6.2-8-9.6-10.1-11
		c-15.1-10.1-33.3-2.7-37.6,0C594.7,343.6,592.1,346.7,592.1,346.7z"/>
	<path class="st25" d="M595.7,368.7c-0.1-0.2,1-1.8,2.8-2.8c2.2-1.2,5.1-1.2,7.3,0c1.8,1,2.9,2.6,2.8,2.8c-0.1,0.2-1.4-1.2-3.7-1.8
		c-2.7-0.8-5-0.1-5.5,0C597.1,367.5,595.9,368.9,595.7,368.7z"/>
	<path class="st25" d="M627.8,368.7c-0.1-0.2,1-1.8,2.8-2.8c2.2-1.2,5.1-1.2,7.3,0c1.8,1,2.9,2.6,2.8,2.8c-0.1,0.2-1.4-1.2-3.7-1.8
		c-2.7-0.8-5-0.1-5.5,0C629.2,367.5,627.9,368.9,627.8,368.7z"/>
	<circle class="st25" cx="603.5" cy="375.6" r="3.2"/>
	<circle class="st25" cx="632.8" cy="375.6" r="3.2"/>
	<path class="st27" d="M602.1,388c0,0,1.9,3.2,2.8,4.6c0.9,1.3,3,4.5,6.4,6.4c4.4,2.4,9.8,2,13.8,0c3.1-1.6,5-3.9,5.5-4.6
		c2-2.6,3.7-6.4,3.7-6.4l0,0C634.2,388,602.1,388,602.1,388L602.1,388z"/>
	<path class="st28" d="M607.6,395.3c0.1-0.7,0.8-1.1,1.8-1.8c1.6-1.1,3.3-1.6,5.5-1.8c2.1-0.2,7.9-0.6,12.8,2.8
		c0.4,0.3,0.8,0.5,0.9,0.9c0.4,1.8-5.3,5.6-11,5.5C612.5,400.7,607.4,397.3,607.6,395.3z"/>
	<path class="st29" d="M605.8,390.7c8.2,0,16.5,0,24.8,0c0-0.9,0-1.8,0-2.8h-24.8C605.8,388.9,605.8,389.8,605.8,390.7z"/>
	<linearGradient id="SVGID_16_" gradientUnits="userSpaceOnUse" x1="594.5638" y1="439.4062" x2="640.6411" y2="439.4062">
		<stop  offset="0.5248" style="stop-color:#63395D"/>
		<stop  offset="0.5275" style="stop-color:#7B4E9F"/>
	</linearGradient>
	<path class="st37" d="M594.8,452.1c0,0,5.4,2.4,9.2,3.7c5.5,1.8,10.1,1.8,15.6,1.8c3.1,0,6.8-0.2,11-0.9c2.9-0.5,9.6-1.8,10.1-4.6
		c0-0.1,0-0.1,0-0.9c0-2.6,0-4.3,0-4.6c0-9.2-4.6-15.6-4.6-15.6c-3.6-5.1-8.6-7.4-11-8.3c-2-0.7-9-3.2-16.5,0
		c-4.5,1.9-7,4.9-8.3,6.4c-0.7,0.9-4.6,5.7-5.5,12.8C594.3,446.4,594.8,452.1,594.8,452.1L594.8,452.1z"/>
	<path class="st24" d="M612.2,414.5c-0.8,0.8-0.4,2.2,0.5,5.8c1.8,7.4,1.7,8.3,3.2,12.7c1.9,5.4,2.5,5.5,2.8,5.5
		c0.6-0.1,0.9-1.4,1.8-5.5c0.9-4.1,1.7-8.2,2.8-12.2c1.1-4,1.8-5.4,0.9-6.2c-0.9-0.9-2.3,0.1-6.4,0
		C614.2,414.4,613.1,413.7,612.2,414.5z"/>
	<path class="st32" d="M432.6,245c-0.1,3.7,5.4,6.6,9.6,8.7c11.3,5.6,17,8.4,26.6,10.1c12.4,2.2,35.6,4,38-3.2
		c0.2-0.6,0.2-1.1,0-2.8c-1.7-11.4-9.3-19.4-10.1-20.2c-7.9-8.1-17.1-10.3-20.2-11c0,0-18.2-4.2-33.9,6.4c-4.2,2.8-7.3,6.9-8.3,8.3
		C432.8,243.4,432.6,244.2,432.6,245z"/>
	<path class="st38" d="M351.1,343c0.1,3.7-5.4,6.6-9.6,8.7c-11.3,5.6-17,8.4-26.6,10.1c-12.4,2.2-35.6,4-38-3.2
		c-0.2-0.6-0.2-1.1,0-2.8c1.7-11.4,9.3-19.4,10.1-20.2c7.9-8.1,17.1-10.3,20.2-11c0,0,18.2-4.2,33.9,6.4c4.2,2.8,7.3,6.9,8.3,8.3
		C350.8,341.4,351.1,342.3,351.1,343z"/>
	<path class="st39" d="M241,243.1L241,243.1c0,0-1-5.5-0.5-8.7c1.3-7.2,12.1-12.5,19.3-11.9c1.9,0.2,3.4,1.8,6.4,1.8
		c2.6,0,3.7-0.8,6-1.4c4.9-1.1,9.2,0.7,11.9,1.8c3.6,1.5,9,3.8,10.1,8.3c1,4.2-1.8,10.1-1.8,10.1l0,0c0,0,4.6-0.3,7.3,0.9
		c4.5,2,5.4,8.6,5.5,9.2c0.5,4.4-1.1,9.7-5.5,12.8c-0.3,0.2-5.3,3.6-11,1.8c-0.8-0.3-4.2-1.4-6.4-4.6c-1.5-2.2-1.2-3.6-2.8-4.6
		c-1.6-1-2.6,0.2-6.4,0c-3.3-0.1-3.4-1-6.4-0.9c-2.7,0.1-2.7,0.8-5.5,0.9c-4.2,0.2-6-1.2-7.3,0c-1,0.9-0.6,2.3-0.9,3.7
		c-1.1,4.3-8.1,7-13.8,6.4c-1.3-0.1-5.2-0.5-8.3-3.7c-3.3-3.4-4.2-8.6-2.8-12.8c0.2-0.5,1.9-5.3,6.4-7.3
		C234.6,245,235.3,244.6,241,243.1z"/>
	<path class="st32" d="M590.2,138.6L590.2,138.6c0,0-1-5.5-0.5-8.7c1.3-7.2,12.1-12.5,19.3-11.9c1.9,0.2,3.4,1.8,6.4,1.8
		c2.6,0,3.7-0.8,6-1.4c4.9-1.1,9.2,0.7,11.9,1.8c3.6,1.5,9,3.8,10.1,8.3c1,4.2-1.8,10.1-1.8,10.1l0,0c0,0,4.6-0.3,7.3,0.9
		c4.5,2,5.4,8.6,5.5,9.2c0.5,4.4-1.1,9.7-5.5,12.8c-0.3,0.2-5.3,3.6-11,1.8c-0.8-0.3-4.2-1.4-6.4-4.6c-1.5-2.2-1.2-3.6-2.8-4.6
		c-1.6-1-2.6,0.2-6.4,0c-3.3-0.1-3.4-1-6.4-0.9c-2.7,0.1-2.7,0.8-5.5,0.9c-4.2,0.2-6-1.2-7.3,0c-1,0.9-0.6,2.3-0.9,3.7
		c-1.1,4.3-8.1,7-13.8,6.4c-1.3-0.1-5.2-0.5-8.3-3.7c-3.3-3.4-4.2-8.6-2.8-12.8c0.2-0.5,1.9-5.3,6.4-7.3
		C583.8,140.5,584.6,140.1,590.2,138.6z"/>
	<path class="st32" d="M179.5,142.3c-0.8,4.1,6.2,8.5,10.1,11c8.1,5.1,13.6,8.6,22,9.2c0,0,16.1,1.2,33.9-16.5
		c0.9-0.9,3.2-3.1,2.8-5.5c-0.2-1-0.7-1.6-0.9-1.8c-13-15.4-32.1-15.6-32.1-15.6c0,0-20.2-0.2-34.8,17.4
		C180.2,140.8,179.7,141.4,179.5,142.3z"/>
	<path class="st40" d="M653.8,342.1c0.8,4.1-6.2,8.5-10.1,11c-8.1,5.1-13.6,8.6-22,9.2c0,0-16.1,1.2-33.9-16.5
		c-0.9-0.9-3.2-3.1-2.8-5.5c0.2-1,0.7-1.6,0.9-1.8c13-15.4,32.1-15.6,32.1-15.6s20.2-0.2,34.8,17.4
		C653.2,340.6,653.6,341.3,653.8,342.1z"/>
	<path class="st21" d="M594.7,444.3c0.9-0.3-0.3-3.8,0-11.9c0.1-4,0.2-6.2,0.9-9.2c1.5-6.2,3.9-8.5,2.8-10.1c-1.2-1.7-5.1-1-7.3,0
		c-3.9,1.8-5.2,5.6-5.5,6.4c-0.4,1.2-1.1,4.1,1.8,11.9C589.5,437.2,593.3,444.8,594.7,444.3z"/>
	<path class="st41" d="M377.6,177.1L377.6,177.1c0,0-0.1-10.1,1.4-17.9c0.8-4.2,2.1-11.3,7.3-18.3c2.1-2.8,8.1-10.1,18.8-13.3
		c3.1-0.9,8.7-2.5,15.6-0.9c8.4,2,13.3,7.5,16.5,11c3.2,3.6,5.8,6.5,6.4,11c0.8,5.6-2,10.1-3.7,12.8c-5.9,9.6-15.8,13-18.3,13.8
		c-4,1.2-3.4,0.3-22.9,0.9C398.6,176.2,395.6,176.3,377.6,177.1z"/>
	<path class="st42" d="M444.5,190c0,0,1-6.7,2.8-19.3c0.5-3.7,1.4-5.4,1.8-9.2c0.1-0.7,0.3-2.8,0-5.5c-0.2-1.6-0.3-2.5-0.9-3.7
		c-1.3-2.5-4-4.1-4.6-3.7c-0.2,0.2-0.1,0.6,0,0.9c0.5,1.9,0,2.8,0,7.3c0,5.8,0.8,12.2,0.9,22.9C444.5,183.5,444.5,190,444.5,190z"/>
	<g>
		<path class="st24" d="M87,349.5c0,0-1.3,1.5-2.3,3.2c-3.7,6.1-1.8,17-1.4,29.8c0.4,10-0.5,9.7,0.5,13.3c3,11,12,16.9,12.8,17.4
			c9.2,5.8,21.8,6.5,31.6,0.5c0.6-0.4,9.8-6.3,12.8-17.4c0.5-1.9,0.6-3.2,0.9-8.3c1.5-26.8,0.4-30.3-0.9-33c-3.1-6.2-8-9.6-10.1-11
			c-15.1-10.1-33.3-2.7-37.6,0C89.6,346.3,87,349.5,87,349.5z"/>
		<path class="st25" d="M90.6,371.5c-0.1-0.2,1-1.8,2.8-2.8c2.2-1.2,5.1-1.2,7.3,0c1.8,1,2.9,2.6,2.8,2.8c-0.1,0.2-1.4-1.2-3.7-1.8
			c-2.7-0.8-5-0.1-5.5,0C92,370.3,90.8,371.6,90.6,371.5z"/>
		<circle class="st25" cx="98.4" cy="378.3" r="3.2"/>
		<circle class="st25" cx="127.8" cy="378.3" r="3.2"/>
		<path class="st27" d="M97,390.7c0,0,1.9,3.2,2.8,4.6c0.9,1.3,3,4.5,6.4,6.4c4.4,2.4,9.8,2,13.8,0c3.1-1.6,5-3.9,5.5-4.6
			c2-2.6,3.7-6.4,3.7-6.4l0,0C129.1,390.7,97,390.7,97,390.7L97,390.7z"/>
		<path class="st28" d="M102.5,398c0.1-0.7,0.8-1.1,1.8-1.8c1.6-1.1,3.3-1.6,5.5-1.8c2.1-0.2,7.9-0.6,12.8,2.8
			c0.4,0.3,0.8,0.5,0.9,0.9c0.4,1.8-5.3,5.6-11,5.5C107.5,403.4,102.3,400.1,102.5,398z"/>
		<path class="st29" d="M100.7,393.5c8.3,0,16.5,0,24.8,0c0-0.9,0-1.8,0-2.8h-24.8C100.7,391.6,100.7,392.5,100.7,393.5z"/>
		<linearGradient id="SVGID_17_" gradientUnits="userSpaceOnUse" x1="89.4784" y1="442.1562" x2="135.5558" y2="442.1562">
			<stop  offset="0.5248" style="stop-color:#7E8083"/>
			<stop  offset="0.5275" style="stop-color:#CDCFD0"/>
		</linearGradient>
		<path class="st43" d="M89.7,454.9c0,0,5.4,2.4,9.2,3.7c5.5,1.8,10.1,1.8,15.6,1.8c3.1,0,6.8-0.2,11-0.9c2.9-0.5,9.6-1.8,10.1-4.6
			c0-0.1,0-0.1,0-0.9c0-2.6,0-4.3,0-4.6c0-9.2-4.6-15.6-4.6-15.6c-3.6-5.1-8.6-7.4-11-8.3c-2-0.7-9-3.2-16.5,0
			c-4.5,1.9-7,4.9-8.3,6.4c-0.7,0.9-4.6,5.7-5.5,12.8C89.2,449.1,89.7,454.9,89.7,454.9L89.7,454.9z"/>
		<path class="st24" d="M107.1,417.2c-0.8,0.8-0.4,2.2,0.5,5.8c1.8,7.4,1.7,8.3,3.2,12.7c1.9,5.4,2.5,5.5,2.8,5.5
			c0.6-0.1,0.9-1.4,1.8-5.5c0.9-4.1,1.7-8.2,2.8-12.2c1.1-4,1.8-5.4,0.9-6.2c-0.9-0.9-2.3,0.1-6.4,0
			C109.2,417.1,108,416.4,107.1,417.2z"/>
		<path class="st8" d="M150.3,377.9L150.3,377.9c0,0,0.1-10.1-1.4-17.9c-0.8-4.2-2.1-11.3-7.3-18.3c-2.1-2.8-8.1-10.1-18.8-13.3
			c-3.1-0.9-8.7-2.5-15.6-0.9c-8.4,2-13.3,7.5-16.5,11c-3.2,3.6-5.8,6.5-6.4,11c-0.8,5.6,2,10.1,3.7,12.8c5.9,9.6,15.8,13,18.3,13.8
			c4,1.2,3.4,0.3,22.9,0.9C129.2,377,132.2,377.1,150.3,377.9z"/>
		<path class="st9" d="M83.4,390.7c0,0-0.4-2.5-1-7.2c-1.1-8-1.7-12-1.7-12c-0.3-2.1-0.5-4.3-0.9-6.4c-0.6-3.4-1.2-5.3-0.9-8.3
			c0.2-2.3,0.7-3.4,0.9-3.7c1.3-2.5,4-4.1,4.6-3.7c0.2,0.2,0.1,0.6,0,0.9c-0.5,1.9,0,2.8,0,7.3c0,5.8-0.8,12.2-0.9,22.9
			C83.3,384.3,83.4,390.7,83.4,390.7z"/>
	</g>
	<path class="st44" d="M450,349.9c-0.1,3.3-2.6,5.7-5.5,8.3c-6.7,6-13.8,8.3-15.1,8.7c-20.3,6.2-42.1,2.8-42.2,2.8l0,0
		c0,0-11-1.8-11-1.8l0,0c0,0,0-2.5,0-2.8c0-2.3,1-6.1,1.8-8.3c3.9-10.5,11-16.5,11-16.5c9.5-8.1,20.8-8.2,26.6-8.3
		c3.2,0,14.7,0.2,25.7,7.3C444.9,341.7,450,345.2,450,349.9z"/>
	<path class="st38" d="M536.1,250.9c0.1,3.3,2.6,5.7,5.5,8.3c6.7,6,13.8,8.3,15.1,8.7c20.3,6.2,42.1,2.8,42.2,2.8l0,0
		c0,0,11-1.8,11-1.8l0,0c0,0,0-2.5,0-2.8c0-2.3-1-6.1-1.8-8.3c-3.9-10.5-11-16.5-11-16.5c-9.5-8.1-20.8-8.2-26.6-8.3
		c-3.2,0-14.7,0.2-25.7,7.3C541.2,242.7,536.1,246.2,536.1,250.9z"/>
	<path class="st45" d="M285.9,147.8c-0.3,1.7,0.3,4.6,11.9,12.8c6.3,4.5,9.5,6.8,14.7,9.2c5.6,2.6,9.8,3.6,17.4,5.5
		c12.8,3.1,24.1,5.9,26.6,1.8c0.5-0.8,0.3-2.1,0-4.6c-0.2-2.2-0.7-3.8-0.9-4.6c-1.2-4.3-1.4-7.2-1.8-9.2c-0.5-2.5-4-16.6-16.5-24.8
		c-6.6-4.3-13-5.2-15.6-5.5c-2.7-0.3-14.9-1.8-24.8,5.5c-2.9,2.1-5.3,5.4-10.1,11.9C286.4,146.5,286,147,285.9,147.8z"/>
	<path class="st45" d="M550,348.5c0.3,1.7-0.3,4.6-11.9,12.8c-6.3,4.5-9.5,6.8-14.7,9.2c-5.6,2.6-9.8,3.6-17.4,5.5
		c-12.8,3.1-24.1,5.9-26.6,1.8c-0.5-0.8-0.3-2.1,0-4.6c0.2-2.2,0.7-3.8,0.9-4.6c1.2-4.3,1.4-7.2,1.8-9.2c0.5-2.5,4-16.6,16.5-24.8
		c6.6-4.3,13-5.2,15.6-5.5c2.7-0.3,14.9-1.8,24.8,5.5c2.9,2.1,5.3,5.4,10.1,11.9C549.5,347.2,549.9,347.7,550,348.5z"/>
	<path class="st44" d="M477.5,165.2c1,2.9,12.7,2.9,22-0.9c3.5-1.4,8.4-3.4,11.9-8.3c3.7-5.1,3.7-10.1,5.5-10.1
		c1.9,0,2.1,5.3,6.4,11c0.3,0.3,3.4,4.5,8.3,7.3c10.5,6.2,25.9,4.7,27.5,0c0.2-0.5,0.1-1,0-1.8c-0.9-6.1-1.4-9.2-2.8-12.8
		c-2.1-5.6-3.6-9.6-7.3-13.8c-5-5.6-10.8-7.7-14.7-9.2c-7.8-2.9-14.4-2.8-18.3-2.8c-4.8,0.1-11.1,0.2-18.3,3.7
		c-2.9,1.4-7.9,3.8-11.9,9.2c-3.2,4.3-4.5,8.7-5.5,11.9c-0.3,0.8-0.8,3.3-1.8,8.3c0,0-0.4,1.8-0.9,7.3
		C477.4,164.9,477.4,165,477.5,165.2z"/>
	<path class="st44" d="M175,366c1,2.9,12.7,2.9,22-0.9c3.5-1.4,8.4-3.4,11.9-8.3c3.7-5.1,3.7-10.1,5.5-10.1c1.9,0,2.1,5.3,6.4,11
		c0.3,0.3,3.4,4.5,8.3,7.3c10.5,6.2,25.9,4.7,27.5,0c0.2-0.5,0.1-1,0-1.8c-0.9-6.1-1.4-9.2-2.8-12.8c-2.1-5.6-3.6-9.6-7.3-13.8
		c-5-5.6-10.8-7.7-14.7-9.2c-7.8-2.9-14.4-2.8-18.3-2.8c-4.8,0.1-11.1,0.2-18.3,3.7c-2.9,1.4-7.9,3.8-11.9,9.2
		c-3.2,4.3-4.5,8.7-5.5,11.9c-0.3,0.8-0.8,3.3-1.8,8.3c0,0-0.4,1.8-0.9,7.3C174.9,365.6,174.9,365.8,175,366z"/>
	<path class="st41" d="M201.6,278.9L201.6,278.9c0,0,0.1-10.1-1.4-17.9c-0.8-4.2-2.1-11.3-7.3-18.3c-2.1-2.8-8.1-10.1-18.8-13.3
		c-3.1-0.9-8.7-2.5-15.6-0.9c-8.4,2-13.3,7.5-16.5,11c-3.2,3.6-5.8,6.5-6.4,11c-0.8,5.6,2,10.1,3.7,12.8c5.9,9.6,15.8,13,18.3,13.8
		c4,1.2,3.4,0.3,22.9,0.9C180.5,278,183.6,278.1,201.6,278.9z"/>
	<path class="st42" d="M134.7,291.7c0,0-0.4-2.5-1-7.2c-1.1-8-1.7-12-1.7-12c-0.3-2.1-0.5-4.3-0.9-6.4c-0.6-3.4-1.2-5.3-0.9-8.3
		c0.2-2.3,0.7-3.4,0.9-3.7c1.3-2.5,4-4.1,4.6-3.7c0.2,0.2,0.1,0.6,0,0.9c-0.5,1.9,0,2.8,0,7.3c0,5.8-0.8,12.2-0.9,22.9
		C134.7,285.3,134.7,291.7,134.7,291.7z"/>
	<path class="st39" d="M342.7,244L342.7,244c0,0-1-5.5-0.5-8.7c1.3-7.2,12.1-12.5,19.3-11.9c1.9,0.2,3.4,1.8,6.4,1.8
		c2.6,0,3.7-0.8,6-1.4c4.9-1.1,9.2,0.7,11.9,1.8c3.6,1.5,9,3.8,10.1,8.3c1,4.2-1.8,10.1-1.8,10.1l0,0c0,0,4.6-0.3,7.3,0.9
		c4.5,2,5.4,8.6,5.5,9.2c0.5,4.4-1.1,9.7-5.5,12.8c-0.3,0.2-5.3,3.6-11,1.8c-0.8-0.3-4.2-1.4-6.4-4.6c-1.5-2.2-1.2-3.6-2.8-4.6
		c-1.6-1-2.6,0.2-6.4,0c-3.3-0.1-3.4-1-6.4-0.9c-2.7,0.1-2.7,0.8-5.5,0.9c-4.2,0.2-6-1.2-7.3,0c-1,0.9-0.6,2.3-0.9,3.7
		c-1.1,4.3-8.1,7-13.8,6.4c-1.3-0.1-5.2-0.5-8.3-3.7c-3.3-3.4-4.2-8.6-2.8-12.8c0.2-0.5,1.9-5.3,6.4-7.3
		C336.3,245.9,337.1,245.5,342.7,244z"/>
	<g>
		<polyline class="st46" points="386.3,173.9 389.9,173.9 444,173.9 		"/>
		<path class="st0" d="M391.3,170.7L391.3,170.7L391.3,170.7c7,0,14.1,0,21.1,0l0,0l0,0c0,0,0,1.8,0,1.8c0,1.2-0.8,3.9-2.8,6.4
			c-1.4,1.8-3.9,5-8.3,5.5c-3.2,0.4-7.3-0.8-9.2-3.7C391.3,179.3,391.3,178,391.3,170.7z"/>
		<path class="st0" d="M439.9,170.7c-7,0-14.1,0-21.1,0c0,0,0,1.8,0,1.8c0,1.2,0.8,3.9,2.8,6.4c1.4,1.8,3.9,5,8.3,5.5
			c3.2,0.4,7.3-0.8,9.2-3.7C439.9,179.3,439.9,178,439.9,170.7z"/>
	</g>
	<g>
		<polyline class="st46" points="288.2,349 291.8,349 345.9,349 		"/>
		<path class="st0" d="M293.2,345.8L293.2,345.8L293.2,345.8c7,0,14.1,0,21.1,0l0,0l0,0c0,0,0,1.8,0,1.8c0,1.2-0.8,3.9-2.8,6.4
			c-1.4,1.8-3.9,5-8.3,5.5c-3.2,0.4-7.3-0.8-9.2-3.7C293.2,354.4,293.2,353.1,293.2,345.8z"/>
		<path class="st0" d="M341.8,345.8c-7,0-14.1,0-21.1,0c0,0,0,1.8,0,1.8c0,1.2,0.8,3.9,2.8,6.4c1.4,1.8,3.9,5,8.3,5.5
			c3.2,0.4,7.3-0.8,9.2-3.7C341.8,354.4,341.8,353.1,341.8,345.8z"/>
	</g>
	<circle class="st46" cx="603.5" cy="174.8" r="8.7"/>
	<circle class="st46" cx="631.9" cy="174.8" r="8.7"/>
	<line class="st46" x1="587.5" y1="174.4" x2="594.8" y2="174.4"/>
	<line class="st46" x1="612.7" y1="174.4" x2="623.2" y2="174.4"/>
	<line class="st46" x1="640.2" y1="174.4" x2="646.6" y2="174.4"/>
	<path class="st47" d="M200.6,398c2.9,2,5.5,3.1,7.3,3.7c2.4,0.8,7.2,2.3,12.8,0.9c2.9-0.7,5.1-1.9,6.4-2.8"/>
	<path class="st47" d="M532.5,396.2c-2.9,2-5.5,3.1-7.3,3.7c-2.4,0.8-7.2,2.3-12.8,0.9c-2.9-0.7-5.1-1.9-6.4-2.8"/>
	<path class="st47" d="M98,196.4c2.9,2,5.5,3.1,7.3,3.7c2.4,0.8,7.2,2.3,12.8,0.9c2.9-0.7,5.1-1.9,6.4-2.8"/>
	<path class="st25" d="M92.5,175.3c-0.1,0.2,0.8,1.6,2.4,2.4c1.9,1,4.4,1,6.4,0c1.6-0.8,2.5-2.2,2.4-2.4c-0.1-0.2-1.2,1-3.2,1.6
		c-2.3,0.7-4.4,0.1-4.8,0C93.7,176.3,92.6,175.2,92.5,175.3z"/>
	<path class="st25" d="M120.4,175.3c-0.1,0.2,0.8,1.6,2.4,2.4c1.9,1,4.4,1,6.4,0c1.6-0.8,2.5-2.2,2.4-2.4c-0.1-0.2-1.2,1-3.2,1.6
		c-2.3,0.7-4.4,0.1-4.8,0C121.6,176.3,120.5,175.2,120.4,175.3z"/>
	<path class="st25" d="M549,278.9c-0.1,0.2,0.8,1.6,2.4,2.4c1.9,1,4.4,1,6.4,0c1.6-0.8,2.5-2.2,2.4-2.4c-0.1-0.2-1.2,1-3.2,1.6
		c-2.3,0.7-4.4,0.1-4.8,0C550.2,279.9,549.1,278.7,549,278.9z"/>
	<path class="st25" d="M576.9,278.9c-0.1,0.2,0.8,1.6,2.4,2.4c1.9,1,4.4,1,6.4,0c1.6-0.8,2.5-2.2,2.4-2.4c-0.1-0.2-1.2,1-3.2,1.6
		c-2.3,0.7-4.4,0.1-4.8,0C578.1,279.9,577,278.7,576.9,278.9z"/>
	<rect x="210.6" y="496" class="st48" width="342.6" height="40.4"/>
	<text transform="matrix(1 0 0 1 233.1074 512.7432)" class="st29 st49 st50">Gladeskolen - 8.B - 2017/2018</text>
</g>
</svg>
