<?xml version="1.0" encoding="utf-8"?>
<!-- Generator: Adobe Illustrator 21.1.0, SVG Export Plug-In . SVG Version: 6.00 Build 0)  -->
<svg version="1.1" id="Layer_1" xmlns="http://www.w3.org/2000/svg" xmlns:xlink="http://www.w3.org/1999/xlink" x="0px" y="0px"
	 viewBox="0 0 59 54" style="enable-background:new 0 0 59 54;" xml:space="preserve">
<style type="text/css">
	.st0{fill:#262626;stroke:#262626;stroke-miterlimit:10;}
</style>
<path class="st0" d="M29.8,16.4c0.8,0,1.4-1.2,2-2.2c1.9-2.9,4.8-3.9,5.9-4.3c3-1.1,7-0.4,9.9,2.2c3.8,3.4,3.9,8.6,3.9,10.8
	c0,0.8,0,4.5-2,8.6c-0.6,1.2-1.5,2.8-7.9,8.6c-4.9,4.4-9.9,8.6-9.9,8.6c0,0-0.1-0.1-0.1-0.1c-4.8-4-6.6-5.3-11.1-8.9
	c-3.2-2.6-5.5-4.6-8-7c-0.6-0.5-0.8-0.8-1-1c-4-4.5-3.5-10.4-3.4-11c0.2-1.8,0.6-5.7,3.9-8.6c2.9-2.6,6.9-3.2,9.9-2.2
	c1.1,0.4,4,1.4,5.9,4.3C28.5,15.3,29,16.4,29.8,16.4z"/>
</svg>
