<svg xmlns="http://www.w3.org/2000/svg" xmlns:xlink="http://www.w3.org/1999/xlink" viewBox="0 0 10590 738"><defs><style>.cls-1{fill:#e9eced;}.cls-2{fill:none;}.cls-3{fill:#fff;}.cls-4{font-size:18px;font-family:FuturaPT-Book, Futura PT;}.cls-5{letter-spacing:-0.02em;}.cls-6{letter-spacing:-0.02em;}.cls-7{letter-spacing:-0.02em;}.cls-8{letter-spacing:-0.04em;}.cls-9{letter-spacing:-0.02em;}.cls-10{letter-spacing:-0.01em;}.cls-11{letter-spacing:-0.03em;}.cls-12{fill:#89cce5;}</style><symbol id="_1" data-name="1" viewBox="0 0 706 738"><rect class="cls-1" width="706" height="738"/><rect class="cls-2" x="33.62" y="44.39" width="639" height="649"/><rect class="cls-3" x="33.62" y="44.39" width="639" height="478"/><rect class="cls-1" x="77.62" y="172.39" width="551" height="63"/><rect class="cls-1" x="77.62" y="258.39" width="551" height="63"/><rect class="cls-3" x="33.62" y="560.39" width="639" height="133"/><rect class="cls-2" x="155.62" y="365.39" width="394" height="76"/><text class="cls-4" transform="translate(87.26 210.14)">Username, p<tspan class="cls-5" x="88.63" y="0">h</tspan><tspan x="96.82" y="0">one number or email</tspan></text><text class="cls-4" transform="translate(87.26 293.14)"><tspan class="cls-6">P</tspan><tspan x="7.85" y="0">asswo</tspan><tspan class="cls-7" x="51.7" y="0">r</tspan><tspan x="56.59" y="0">d</tspan></text><text class="cls-4" transform="translate(287.26 464.14)"><tspan class="cls-8">F</tspan><tspan x="7.06" y="0">o</tspan><tspan class="cls-7" x="16.49" y="0">r</tspan><tspan x="21.38" y="0">got passwo</tspan><tspan class="cls-9" x="101.64" y="0">r</tspan><tspan x="106.54" y="0">d?</tspan></text><text class="cls-4" transform="translate(237.26 628.14)">Do<tspan class="cls-10" x="20.81" y="0">n</tspan><tspan class="cls-11" x="29.09" y="0">’</tspan><tspan x="33.3" y="0">t have an account? </tspan><tspan class="cls-12" x="169.29" y="0">Sign Up</tspan></text></symbol><symbol id="_2" data-name="2" viewBox="0 0 706 738"><rect class="cls-1" width="706" height="738"/><rect class="cls-2" x="33.62" y="44.39" width="639" height="649"/><rect class="cls-3" x="33.62" y="44.39" width="639" height="478"/><rect class="cls-1" x="77.62" y="172.39" width="551" height="63"/><rect class="cls-1" x="77.62" y="258.39" width="551" height="63"/><rect class="cls-3" x="33.62" y="560.39" width="639" height="133"/><rect class="cls-2" x="155.62" y="365.39" width="394" height="76"/><text></text><text class="cls-4" transform="translate(87.26 293.14)"><tspan class="cls-6">P</tspan><tspan x="7.85" y="0">asswo</tspan><tspan class="cls-7" x="51.7" y="0">r</tspan><tspan x="56.59" y="0">d</tspan></text><text class="cls-4" transform="translate(287.26 464.14)"><tspan class="cls-8">F</tspan><tspan x="7.06" y="0">o</tspan><tspan class="cls-7" x="16.49" y="0">r</tspan><tspan x="21.38" y="0">got passwo</tspan><tspan class="cls-9" x="101.64" y="0">r</tspan><tspan x="106.54" y="0">d?</tspan></text><text class="cls-4" transform="translate(237.26 628.14)">Do<tspan class="cls-10" x="20.81" y="0">n</tspan><tspan class="cls-11" x="29.09" y="0">’</tspan><tspan x="33.3" y="0">t have an account? </tspan><tspan class="cls-12" x="169.29" y="0">Sign Up</tspan></text></symbol><symbol id="_3" data-name="3" viewBox="0 0 706 738"><rect class="cls-1" width="706" height="738"/><rect class="cls-2" x="33.62" y="44.39" width="639" height="649"/><rect class="cls-3" x="33.62" y="44.39" width="639" height="478"/><rect class="cls-1" x="77.62" y="172.39" width="551" height="63"/><rect class="cls-1" x="77.62" y="258.39" width="551" height="63"/><rect class="cls-3" x="33.62" y="560.39" width="639" height="133"/><rect class="cls-2" x="155.62" y="365.39" width="394" height="76"/><text class="cls-4" transform="translate(87.26 210.14)">i</text><text class="cls-4" transform="translate(87.26 293.14)"><tspan class="cls-6">P</tspan><tspan x="7.85" y="0">asswo</tspan><tspan class="cls-7" x="51.7" y="0">r</tspan><tspan x="56.59" y="0">d</tspan></text><text class="cls-4" transform="translate(287.26 464.14)"><tspan class="cls-8">F</tspan><tspan x="7.06" y="0">o</tspan><tspan class="cls-7" x="16.49" y="0">r</tspan><tspan x="21.38" y="0">got passwo</tspan><tspan class="cls-9" x="101.64" y="0">r</tspan><tspan x="106.54" y="0">d?</tspan></text><text class="cls-4" transform="translate(237.26 628.14)">Do<tspan class="cls-10" x="20.81" y="0">n</tspan><tspan class="cls-11" x="29.09" y="0">’</tspan><tspan x="33.3" y="0">t have an account? </tspan><tspan class="cls-12" x="169.29" y="0">Sign Up</tspan></text></symbol><symbol id="_4" data-name="4" viewBox="0 0 706 738"><rect class="cls-1" width="706" height="738"/><rect class="cls-2" x="33.62" y="44.39" width="639" height="649"/><rect class="cls-3" x="33.62" y="44.39" width="639" height="478"/><rect class="cls-1" x="77.62" y="172.39" width="551" height="63"/><rect class="cls-1" x="77.62" y="258.39" width="551" height="63"/><rect class="cls-3" x="33.62" y="560.39" width="639" height="133"/><rect class="cls-2" x="155.62" y="365.39" width="394" height="76"/><text class="cls-4" transform="translate(87.26 210.14)">in</text><text class="cls-4" transform="translate(87.26 293.14)"><tspan class="cls-6">P</tspan><tspan x="7.85" y="0">asswo</tspan><tspan class="cls-7" x="51.7" y="0">r</tspan><tspan x="56.59" y="0">d</tspan></text><text class="cls-4" transform="translate(287.26 464.14)"><tspan class="cls-8">F</tspan><tspan x="7.06" y="0">o</tspan><tspan class="cls-7" x="16.49" y="0">r</tspan><tspan x="21.38" y="0">got passwo</tspan><tspan class="cls-9" x="101.64" y="0">r</tspan><tspan x="106.54" y="0">d?</tspan></text><text class="cls-4" transform="translate(237.26 628.14)">Do<tspan class="cls-10" x="20.81" y="0">n</tspan><tspan class="cls-11" x="29.09" y="0">’</tspan><tspan x="33.3" y="0">t have an account? </tspan><tspan class="cls-12" x="169.29" y="0">Sign Up</tspan></text></symbol><symbol id="_5" data-name="5" viewBox="0 0 706 738"><rect class="cls-1" width="706" height="738"/><rect class="cls-2" x="33.62" y="44.39" width="639" height="649"/><rect class="cls-3" x="33.62" y="44.39" width="639" height="478"/><rect class="cls-1" x="77.62" y="172.39" width="551" height="63"/><rect class="cls-1" x="77.62" y="258.39" width="551" height="63"/><rect class="cls-3" x="33.62" y="560.39" width="639" height="133"/><rect class="cls-2" x="155.62" y="365.39" width="394" height="76"/><text class="cls-4" transform="translate(87.26 210.14)">ins</text><text class="cls-4" transform="translate(87.26 293.14)"><tspan class="cls-6">P</tspan><tspan x="7.85" y="0">asswo</tspan><tspan class="cls-7" x="51.7" y="0">r</tspan><tspan x="56.59" y="0">d</tspan></text><text class="cls-4" transform="translate(287.26 464.14)"><tspan class="cls-8">F</tspan><tspan x="7.06" y="0">o</tspan><tspan class="cls-7" x="16.49" y="0">r</tspan><tspan x="21.38" y="0">got passwo</tspan><tspan class="cls-9" x="101.64" y="0">r</tspan><tspan x="106.54" y="0">d?</tspan></text><text class="cls-4" transform="translate(237.26 628.14)">Do<tspan class="cls-10" x="20.81" y="0">n</tspan><tspan class="cls-11" x="29.09" y="0">’</tspan><tspan x="33.3" y="0">t have an account? </tspan><tspan class="cls-12" x="169.29" y="0">Sign Up</tspan></text></symbol><symbol id="_6" data-name="6" viewBox="0 0 706 738"><rect class="cls-1" width="706" height="738"/><rect class="cls-2" x="33.62" y="44.39" width="639" height="649"/><rect class="cls-3" x="33.62" y="44.39" width="639" height="478"/><rect class="cls-1" x="77.62" y="172.39" width="551" height="63"/><rect class="cls-1" x="77.62" y="258.39" width="551" height="63"/><rect class="cls-3" x="33.62" y="560.39" width="639" height="133"/><rect class="cls-2" x="155.62" y="365.39" width="394" height="76"/><text class="cls-4" transform="translate(87.26 210.14)">inst</text><text class="cls-4" transform="translate(87.26 293.14)"><tspan class="cls-6">P</tspan><tspan x="7.85" y="0">asswo</tspan><tspan class="cls-7" x="51.7" y="0">r</tspan><tspan x="56.59" y="0">d</tspan></text><text class="cls-4" transform="translate(287.26 464.14)"><tspan class="cls-8">F</tspan><tspan x="7.06" y="0">o</tspan><tspan class="cls-7" x="16.49" y="0">r</tspan><tspan x="21.38" y="0">got passwo</tspan><tspan class="cls-9" x="101.64" y="0">r</tspan><tspan x="106.54" y="0">d?</tspan></text><text class="cls-4" transform="translate(237.26 628.14)">Do<tspan class="cls-10" x="20.81" y="0">n</tspan><tspan class="cls-11" x="29.09" y="0">’</tspan><tspan x="33.3" y="0">t have an account? </tspan><tspan class="cls-12" x="169.29" y="0">Sign Up</tspan></text></symbol><symbol id="_7" data-name="7" viewBox="0 0 706 738"><rect class="cls-1" width="706" height="738"/><rect class="cls-2" x="33.62" y="44.39" width="639" height="649"/><rect class="cls-3" x="33.62" y="44.39" width="639" height="478"/><rect class="cls-1" x="77.62" y="172.39" width="551" height="63"/><rect class="cls-1" x="77.62" y="258.39" width="551" height="63"/><rect class="cls-3" x="33.62" y="560.39" width="639" height="133"/><rect class="cls-2" x="155.62" y="365.39" width="394" height="76"/><text class="cls-4" transform="translate(87.26 210.14)">insta</text><text class="cls-4" transform="translate(87.26 293.14)"><tspan class="cls-6">P</tspan><tspan x="7.85" y="0">asswo</tspan><tspan class="cls-7" x="51.7" y="0">r</tspan><tspan x="56.59" y="0">d</tspan></text><text class="cls-4" transform="translate(287.26 464.14)"><tspan class="cls-8">F</tspan><tspan x="7.06" y="0">o</tspan><tspan class="cls-7" x="16.49" y="0">r</tspan><tspan x="21.38" y="0">got passwo</tspan><tspan class="cls-9" x="101.64" y="0">r</tspan><tspan x="106.54" y="0">d?</tspan></text><text class="cls-4" transform="translate(237.26 628.14)">Do<tspan class="cls-10" x="20.81" y="0">n</tspan><tspan class="cls-11" x="29.09" y="0">’</tspan><tspan x="33.3" y="0">t have an account? </tspan><tspan class="cls-12" x="169.29" y="0">Sign Up</tspan></text></symbol><symbol id="_8" data-name="8" viewBox="0 0 706 738"><rect class="cls-1" width="706" height="738"/><rect class="cls-2" x="33.62" y="44.39" width="639" height="649"/><rect class="cls-3" x="33.62" y="44.39" width="639" height="478"/><rect class="cls-1" x="77.62" y="172.39" width="551" height="63"/><rect class="cls-1" x="77.62" y="258.39" width="551" height="63"/><rect class="cls-3" x="33.62" y="560.39" width="639" height="133"/><rect class="cls-2" x="155.62" y="365.39" width="394" height="76"/><text class="cls-4" transform="translate(87.26 210.14)">instag</text><text class="cls-4" transform="translate(87.26 293.14)"><tspan class="cls-6">P</tspan><tspan x="7.85" y="0">asswo</tspan><tspan class="cls-7" x="51.7" y="0">r</tspan><tspan x="56.59" y="0">d</tspan></text><text class="cls-4" transform="translate(287.26 464.14)"><tspan class="cls-8">F</tspan><tspan x="7.06" y="0">o</tspan><tspan class="cls-7" x="16.49" y="0">r</tspan><tspan x="21.38" y="0">got passwo</tspan><tspan class="cls-9" x="101.64" y="0">r</tspan><tspan x="106.54" y="0">d?</tspan></text><text class="cls-4" transform="translate(237.26 628.14)">Do<tspan class="cls-10" x="20.81" y="0">n</tspan><tspan class="cls-11" x="29.09" y="0">’</tspan><tspan x="33.3" y="0">t have an account? </tspan><tspan class="cls-12" x="169.29" y="0">Sign Up</tspan></text></symbol><symbol id="_9" data-name="9" viewBox="0 0 706 738"><rect class="cls-1" width="706" height="738"/><rect class="cls-2" x="33.62" y="44.39" width="639" height="649"/><rect class="cls-3" x="33.62" y="44.39" width="639" height="478"/><rect class="cls-1" x="77.62" y="172.39" width="551" height="63"/><rect class="cls-1" x="77.62" y="258.39" width="551" height="63"/><rect class="cls-3" x="33.62" y="560.39" width="639" height="133"/><rect class="cls-2" x="155.62" y="365.39" width="394" height="76"/><text class="cls-4" transform="translate(87.26 210.14)">instagr</text><text class="cls-4" transform="translate(87.26 293.14)"><tspan class="cls-6">P</tspan><tspan x="7.85" y="0">asswo</tspan><tspan class="cls-7" x="51.7" y="0">r</tspan><tspan x="56.59" y="0">d</tspan></text><text class="cls-4" transform="translate(287.26 464.14)"><tspan class="cls-8">F</tspan><tspan x="7.06" y="0">o</tspan><tspan class="cls-7" x="16.49" y="0">r</tspan><tspan x="21.38" y="0">got passwo</tspan><tspan class="cls-9" x="101.64" y="0">r</tspan><tspan x="106.54" y="0">d?</tspan></text><text class="cls-4" transform="translate(237.26 628.14)">Do<tspan class="cls-10" x="20.81" y="0">n</tspan><tspan class="cls-11" x="29.09" y="0">’</tspan><tspan x="33.3" y="0">t have an account? </tspan><tspan class="cls-12" x="169.29" y="0">Sign Up</tspan></text></symbol><symbol id="_10" data-name="10" viewBox="0 0 706 738"><rect class="cls-1" width="706" height="738"/><rect class="cls-2" x="33.62" y="44.39" width="639" height="649"/><rect class="cls-3" x="33.62" y="44.39" width="639" height="478"/><rect class="cls-1" x="77.62" y="172.39" width="551" height="63"/><rect class="cls-1" x="77.62" y="258.39" width="551" height="63"/><rect class="cls-3" x="33.62" y="560.39" width="639" height="133"/><rect class="cls-2" x="155.62" y="365.39" width="394" height="76"/><text class="cls-4" transform="translate(87.26 210.14)">instagr8</text><text class="cls-4" transform="translate(87.26 293.14)"><tspan class="cls-6">P</tspan><tspan x="7.85" y="0">asswo</tspan><tspan class="cls-7" x="51.7" y="0">r</tspan><tspan x="56.59" y="0">d</tspan></text><text class="cls-4" transform="translate(287.26 464.14)"><tspan class="cls-8">F</tspan><tspan x="7.06" y="0">o</tspan><tspan class="cls-7" x="16.49" y="0">r</tspan><tspan x="21.38" y="0">got passwo</tspan><tspan class="cls-9" x="101.64" y="0">r</tspan><tspan x="106.54" y="0">d?</tspan></text><text class="cls-4" transform="translate(237.26 628.14)">Do<tspan class="cls-10" x="20.81" y="0">n</tspan><tspan class="cls-11" x="29.09" y="0">’</tspan><tspan x="33.3" y="0">t have an account? </tspan><tspan class="cls-12" x="169.29" y="0">Sign Up</tspan></text></symbol><symbol id="_11" data-name="11" viewBox="0 0 706 738"><rect class="cls-1" width="706" height="738"/><rect class="cls-2" x="33.62" y="44.39" width="639" height="649"/><rect class="cls-3" x="33.62" y="44.39" width="639" height="478"/><rect class="cls-1" x="77.62" y="172.39" width="551" height="63"/><rect class="cls-1" x="77.62" y="258.39" width="551" height="63"/><rect class="cls-3" x="33.62" y="560.39" width="639" height="133"/><rect class="cls-2" x="155.62" y="365.39" width="394" height="76"/><text class="cls-4" transform="translate(87.26 210.14)">instagr8</text><text></text><text class="cls-4" transform="translate(287.26 464.14)"><tspan class="cls-8">F</tspan><tspan x="7.06" y="0">o</tspan><tspan class="cls-7" x="16.49" y="0">r</tspan><tspan x="21.38" y="0">got passwo</tspan><tspan class="cls-9" x="101.64" y="0">r</tspan><tspan x="106.54" y="0">d?</tspan></text><text class="cls-4" transform="translate(237.26 628.14)">Do<tspan class="cls-10" x="20.81" y="0">n</tspan><tspan class="cls-11" x="29.09" y="0">’</tspan><tspan x="33.3" y="0">t have an account? </tspan><tspan class="cls-12" x="169.29" y="0">Sign Up</tspan></text></symbol><symbol id="_12" data-name="12" viewBox="0 0 706 738"><rect class="cls-1" width="706" height="738"/><rect class="cls-2" x="33.62" y="44.39" width="639" height="649"/><rect class="cls-3" x="33.62" y="44.39" width="639" height="478"/><rect class="cls-1" x="77.62" y="172.39" width="551" height="63"/><rect class="cls-1" x="77.62" y="258.39" width="551" height="63"/><rect class="cls-3" x="33.62" y="560.39" width="639" height="133"/><rect class="cls-2" x="155.62" y="365.39" width="394" height="76"/><text class="cls-4" transform="translate(87.26 210.14)">instagr8</text><text class="cls-4" transform="translate(87.26 293.14)">*</text><text class="cls-4" transform="translate(287.26 464.14)"><tspan class="cls-8">F</tspan><tspan x="7.06" y="0">o</tspan><tspan class="cls-7" x="16.49" y="0">r</tspan><tspan x="21.38" y="0">got passwo</tspan><tspan class="cls-9" x="101.64" y="0">r</tspan><tspan x="106.54" y="0">d?</tspan></text><text class="cls-4" transform="translate(237.26 628.14)">Do<tspan class="cls-10" x="20.81" y="0">n</tspan><tspan class="cls-11" x="29.09" y="0">’</tspan><tspan x="33.3" y="0">t have an account? </tspan><tspan class="cls-12" x="169.29" y="0">Sign Up</tspan></text></symbol><symbol id="_13" data-name="13" viewBox="0 0 706 738"><rect class="cls-1" width="706" height="738"/><rect class="cls-2" x="33.62" y="44.39" width="639" height="649"/><rect class="cls-3" x="33.62" y="44.39" width="639" height="478"/><rect class="cls-1" x="77.62" y="172.39" width="551" height="63"/><rect class="cls-1" x="77.62" y="258.39" width="551" height="63"/><rect class="cls-3" x="33.62" y="560.39" width="639" height="133"/><rect class="cls-2" x="155.62" y="365.39" width="394" height="76"/><text class="cls-4" transform="translate(87.26 210.14)">instagr8</text><text class="cls-4" transform="translate(87.26 293.14)">**</text><text class="cls-4" transform="translate(287.26 464.14)"><tspan class="cls-8">F</tspan><tspan x="7.06" y="0">o</tspan><tspan class="cls-7" x="16.49" y="0">r</tspan><tspan x="21.38" y="0">got passwo</tspan><tspan class="cls-9" x="101.64" y="0">r</tspan><tspan x="106.54" y="0">d?</tspan></text><text class="cls-4" transform="translate(237.26 628.14)">Do<tspan class="cls-10" x="20.81" y="0">n</tspan><tspan class="cls-11" x="29.09" y="0">’</tspan><tspan x="33.3" y="0">t have an account? </tspan><tspan class="cls-12" x="169.29" y="0">Sign Up</tspan></text></symbol><symbol id="_14" data-name="14" viewBox="0 0 706 738"><rect class="cls-1" width="706" height="738"/><rect class="cls-2" x="33.62" y="44.39" width="639" height="649"/><rect class="cls-3" x="33.62" y="44.39" width="639" height="478"/><rect class="cls-1" x="77.62" y="172.39" width="551" height="63"/><rect class="cls-1" x="77.62" y="258.39" width="551" height="63"/><rect class="cls-3" x="33.62" y="560.39" width="639" height="133"/><rect class="cls-2" x="155.62" y="365.39" width="394" height="76"/><text class="cls-4" transform="translate(87.26 210.14)">instagr8</text><text class="cls-4" transform="translate(87.26 293.14)">***</text><text class="cls-4" transform="translate(287.26 464.14)"><tspan class="cls-8">F</tspan><tspan x="7.06" y="0">o</tspan><tspan class="cls-7" x="16.49" y="0">r</tspan><tspan x="21.38" y="0">got passwo</tspan><tspan class="cls-9" x="101.64" y="0">r</tspan><tspan x="106.54" y="0">d?</tspan></text><text class="cls-4" transform="translate(237.26 628.14)">Do<tspan class="cls-10" x="20.81" y="0">n</tspan><tspan class="cls-11" x="29.09" y="0">’</tspan><tspan x="33.3" y="0">t have an account? </tspan><tspan class="cls-12" x="169.29" y="0">Sign Up</tspan></text></symbol><symbol id="_15-2" data-name="15" viewBox="0 0 706 738"><rect class="cls-1" width="706" height="738"/><rect class="cls-2" x="33.62" y="44.39" width="639" height="649"/><rect class="cls-3" x="33.62" y="44.39" width="639" height="478"/><rect class="cls-1" x="77.62" y="172.39" width="551" height="63"/><rect class="cls-1" x="77.62" y="258.39" width="551" height="63"/><rect class="cls-3" x="33.62" y="560.39" width="639" height="133"/><rect class="cls-2" x="155.62" y="365.39" width="394" height="76"/><text class="cls-4" transform="translate(87.26 210.14)">instagr8</text><text class="cls-4" transform="translate(87.26 293.14)">****</text><text class="cls-4" transform="translate(287.26 464.14)"><tspan class="cls-8">F</tspan><tspan x="7.06" y="0">o</tspan><tspan class="cls-7" x="16.49" y="0">r</tspan><tspan x="21.38" y="0">got passwo</tspan><tspan class="cls-9" x="101.64" y="0">r</tspan><tspan x="106.54" y="0">d?</tspan></text><text class="cls-4" transform="translate(237.26 628.14)">Do<tspan class="cls-10" x="20.81" y="0">n</tspan><tspan class="cls-11" x="29.09" y="0">’</tspan><tspan x="33.3" y="0">t have an account? </tspan><tspan class="cls-12" x="169.29" y="0">Sign Up</tspan></text></symbol></defs><title>loginsprite</title><g id="Layer_2" data-name="Layer 2"><g id="_15" data-name="15"><use width="706" height="738" xlink:href="#_1"/><use width="706" height="738" transform="translate(706)" xlink:href="#_2"/><use width="706" height="738" transform="translate(1412)" xlink:href="#_3"/><use width="706" height="738" transform="translate(2118)" xlink:href="#_4"/><use width="706" height="738" transform="translate(2824)" xlink:href="#_5"/><use width="706" height="738" transform="translate(3530)" xlink:href="#_6"/><use width="706" height="738" transform="translate(4236)" xlink:href="#_7"/><use width="706" height="738" transform="translate(4942)" xlink:href="#_8"/><use width="706" height="738" transform="translate(5648)" xlink:href="#_9"/><use width="706" height="738" transform="translate(6354)" xlink:href="#_10"/><use width="706" height="738" transform="translate(7060)" xlink:href="#_11"/><use width="706" height="738" transform="translate(7766)" xlink:href="#_12"/><use width="706" height="738" transform="translate(8472)" xlink:href="#_13"/><use width="706" height="738" transform="translate(9178)" xlink:href="#_14"/><use width="706" height="738" transform="translate(9884)" xlink:href="#_15-2"/></g></g></svg>
