<svg xmlns="http://www.w3.org/2000/svg" xmlns:xlink="http://www.w3.org/1999/xlink" viewBox="0 0 9585 649"><defs><style>.cls-1{fill:none;}.cls-2{fill:#fff;}.cls-3{fill:#e9eced;}.cls-12,.cls-4,.cls-6{font-size:18px;font-family:FuturaPT-Book, Futura PT;}.cls-4{fill:#515151;}.cls-5{letter-spacing:-0.02em;}.cls-12,.cls-6,.cls-9{isolation:isolate;}.cls-7{letter-spacing:-0.04em;}.cls-8{letter-spacing:-0.02em;}.cls-10{letter-spacing:-0.01em;}.cls-11{letter-spacing:-0.03em;}.cls-12{fill:#89cce5;}.cls-13{letter-spacing:-0.02em;}</style><symbol id="_1" data-name="1" viewBox="0 0 639 649"><rect class="cls-1" width="639" height="649"/><rect class="cls-2" width="639" height="478"/><rect class="cls-3" x="44" y="128" width="551" height="63"/><text class="cls-4" transform="translate(81.73 164.92)">Username, p<tspan class="cls-5" x="88.63" y="0">h</tspan><tspan x="96.82" y="0">one number or email</tspan></text><rect class="cls-3" x="44" y="214" width="551" height="63"/><rect class="cls-2" y="516" width="639" height="133"/><text class="cls-6" transform="translate(257.26 413.12)"><tspan class="cls-7">F</tspan><tspan x="7.06" y="0">o</tspan><tspan class="cls-8" x="16.49" y="0">r</tspan><tspan x="21.38" y="0">got passwo</tspan><tspan class="cls-8" x="101.64" y="0">r</tspan><tspan x="106.54" y="0">d?</tspan></text><rect class="cls-1" x="123" y="321" width="394" height="76"/><g class="cls-9"><text class="cls-6" transform="translate(216.86 589.12)">Do<tspan class="cls-10" x="20.81" y="0">n</tspan><tspan class="cls-11" x="29.09" y="0">’</tspan><tspan x="33.3" y="0">t have an account? </tspan></text><text class="cls-12" transform="translate(386.86 589.12)">Sign Up</text></g><text class="cls-4" transform="translate(81.73 250.92)"><tspan class="cls-13">P</tspan><tspan x="7.85" y="0">asswo</tspan><tspan class="cls-8" x="51.7" y="0">r</tspan><tspan x="56.59" y="0">d</tspan></text></symbol><symbol id="_2" data-name="2" viewBox="0 0 639 649"><rect class="cls-1" width="639" height="649"/><rect class="cls-2" width="639" height="478"/><rect class="cls-3" x="44" y="128" width="551" height="63"/><text></text><rect class="cls-3" x="44" y="214" width="551" height="63"/><rect class="cls-2" y="516" width="639" height="133"/><text class="cls-6" transform="translate(257.26 413.12)"><tspan class="cls-7">F</tspan><tspan x="7.06" y="0">o</tspan><tspan class="cls-8" x="16.49" y="0">r</tspan><tspan x="21.38" y="0">got passwo</tspan><tspan class="cls-8" x="101.64" y="0">r</tspan><tspan x="106.54" y="0">d?</tspan></text><rect class="cls-1" x="123" y="321" width="394" height="76"/><g class="cls-9"><text class="cls-6" transform="translate(216.86 589.12)">Do<tspan class="cls-10" x="20.81" y="0">n</tspan><tspan class="cls-11" x="29.09" y="0">’</tspan><tspan x="33.3" y="0">t have an account? </tspan></text><text class="cls-12" transform="translate(386.86 589.12)">Sign Up</text></g><text class="cls-4" transform="translate(81.73 250.92)"><tspan class="cls-13">P</tspan><tspan x="7.85" y="0">asswo</tspan><tspan class="cls-8" x="51.7" y="0">r</tspan><tspan x="56.59" y="0">d</tspan></text></symbol><symbol id="_3" data-name="3" viewBox="0 0 639 649"><rect class="cls-1" width="639" height="649"/><rect class="cls-2" width="639" height="478"/><rect class="cls-3" x="44" y="128" width="551" height="63"/><text></text><rect class="cls-3" x="44" y="214" width="551" height="63"/><rect class="cls-2" y="516" width="639" height="133"/><text class="cls-6" transform="translate(257.26 413.12)"><tspan class="cls-7">F</tspan><tspan x="7.06" y="0">o</tspan><tspan class="cls-8" x="16.49" y="0">r</tspan><tspan x="21.38" y="0">got passwo</tspan><tspan class="cls-8" x="101.64" y="0">r</tspan><tspan x="106.54" y="0">d?</tspan></text><rect class="cls-1" x="123" y="321" width="394" height="76"/><g class="cls-9"><text class="cls-6" transform="translate(216.86 589.12)">Do<tspan class="cls-10" x="20.81" y="0">n</tspan><tspan class="cls-11" x="29.09" y="0">’</tspan><tspan x="33.3" y="0">t have an account? </tspan></text><text class="cls-12" transform="translate(386.86 589.12)">Sign Up</text></g><text class="cls-4" transform="translate(81.73 250.92)"><tspan class="cls-13">P</tspan><tspan x="7.85" y="0">asswo</tspan><tspan class="cls-8" x="51.7" y="0">r</tspan><tspan x="56.59" y="0">d</tspan></text><text class="cls-4" transform="translate(81.73 164.92)">I</text></symbol><symbol id="_4" data-name="4" viewBox="0 0 639 649"><rect class="cls-1" width="639" height="649"/><rect class="cls-2" width="639" height="478"/><rect class="cls-3" x="44" y="128" width="551" height="63"/><text></text><rect class="cls-3" x="44" y="214" width="551" height="63"/><rect class="cls-2" y="516" width="639" height="133"/><text class="cls-6" transform="translate(257.26 413.12)"><tspan class="cls-7">F</tspan><tspan x="7.06" y="0">o</tspan><tspan class="cls-8" x="16.49" y="0">r</tspan><tspan x="21.38" y="0">got passwo</tspan><tspan class="cls-8" x="101.64" y="0">r</tspan><tspan x="106.54" y="0">d?</tspan></text><rect class="cls-1" x="123" y="321" width="394" height="76"/><g class="cls-9"><text class="cls-6" transform="translate(216.86 589.12)">Do<tspan class="cls-10" x="20.81" y="0">n</tspan><tspan class="cls-11" x="29.09" y="0">’</tspan><tspan x="33.3" y="0">t have an account? </tspan></text><text class="cls-12" transform="translate(386.86 589.12)">Sign Up</text></g><text class="cls-4" transform="translate(81.73 250.92)"><tspan class="cls-13">P</tspan><tspan x="7.85" y="0">asswo</tspan><tspan class="cls-8" x="51.7" y="0">r</tspan><tspan x="56.59" y="0">d</tspan></text><text class="cls-4" transform="translate(81.73 164.92)">In</text></symbol><symbol id="_5" data-name="5" viewBox="0 0 639 649"><rect class="cls-1" width="639" height="649"/><rect class="cls-2" width="639" height="478"/><rect class="cls-3" x="44" y="128" width="551" height="63"/><text></text><rect class="cls-3" x="44" y="214" width="551" height="63"/><rect class="cls-2" y="516" width="639" height="133"/><text class="cls-6" transform="translate(257.26 413.12)"><tspan class="cls-7">F</tspan><tspan x="7.06" y="0">o</tspan><tspan class="cls-8" x="16.49" y="0">r</tspan><tspan x="21.38" y="0">got passwo</tspan><tspan class="cls-8" x="101.64" y="0">r</tspan><tspan x="106.54" y="0">d?</tspan></text><rect class="cls-1" x="123" y="321" width="394" height="76"/><g class="cls-9"><text class="cls-6" transform="translate(216.86 589.12)">Do<tspan class="cls-10" x="20.81" y="0">n</tspan><tspan class="cls-11" x="29.09" y="0">’</tspan><tspan x="33.3" y="0">t have an account? </tspan></text><text class="cls-12" transform="translate(386.86 589.12)">Sign Up</text></g><text class="cls-4" transform="translate(81.73 250.92)"><tspan class="cls-13">P</tspan><tspan x="7.85" y="0">asswo</tspan><tspan class="cls-8" x="51.7" y="0">r</tspan><tspan x="56.59" y="0">d</tspan></text><text class="cls-4" transform="translate(81.73 164.92)">Ins</text></symbol><symbol id="_6" data-name="6" viewBox="0 0 639 649"><rect class="cls-1" width="639" height="649"/><rect class="cls-2" width="639" height="478"/><rect class="cls-3" x="44" y="128" width="551" height="63"/><text></text><rect class="cls-3" x="44" y="214" width="551" height="63"/><rect class="cls-2" y="516" width="639" height="133"/><text class="cls-6" transform="translate(257.26 413.12)"><tspan class="cls-7">F</tspan><tspan x="7.06" y="0">o</tspan><tspan class="cls-8" x="16.49" y="0">r</tspan><tspan x="21.38" y="0">got passwo</tspan><tspan class="cls-8" x="101.64" y="0">r</tspan><tspan x="106.54" y="0">d?</tspan></text><rect class="cls-1" x="123" y="321" width="394" height="76"/><g class="cls-9"><text class="cls-6" transform="translate(216.86 589.12)">Do<tspan class="cls-10" x="20.81" y="0">n</tspan><tspan class="cls-11" x="29.09" y="0">’</tspan><tspan x="33.3" y="0">t have an account? </tspan></text><text class="cls-12" transform="translate(386.86 589.12)">Sign Up</text></g><text class="cls-4" transform="translate(81.73 250.92)"><tspan class="cls-13">P</tspan><tspan x="7.85" y="0">asswo</tspan><tspan class="cls-8" x="51.7" y="0">r</tspan><tspan x="56.59" y="0">d</tspan></text><text class="cls-4" transform="translate(81.73 164.92)">Inst</text></symbol><symbol id="_7" data-name="7" viewBox="0 0 639 649"><rect class="cls-1" width="639" height="649"/><rect class="cls-2" width="639" height="478"/><rect class="cls-3" x="44" y="128" width="551" height="63"/><text></text><rect class="cls-3" x="44" y="214" width="551" height="63"/><rect class="cls-2" y="516" width="639" height="133"/><text class="cls-6" transform="translate(257.26 413.12)"><tspan class="cls-7">F</tspan><tspan x="7.06" y="0">o</tspan><tspan class="cls-8" x="16.49" y="0">r</tspan><tspan x="21.38" y="0">got passwo</tspan><tspan class="cls-8" x="101.64" y="0">r</tspan><tspan x="106.54" y="0">d?</tspan></text><rect class="cls-1" x="123" y="321" width="394" height="76"/><g class="cls-9"><text class="cls-6" transform="translate(216.86 589.12)">Do<tspan class="cls-10" x="20.81" y="0">n</tspan><tspan class="cls-11" x="29.09" y="0">’</tspan><tspan x="33.3" y="0">t have an account? </tspan></text><text class="cls-12" transform="translate(386.86 589.12)">Sign Up</text></g><text class="cls-4" transform="translate(81.73 250.92)"><tspan class="cls-13">P</tspan><tspan x="7.85" y="0">asswo</tspan><tspan class="cls-8" x="51.7" y="0">r</tspan><tspan x="56.59" y="0">d</tspan></text><text class="cls-4" transform="translate(81.73 164.92)">Insta</text></symbol><symbol id="_8" data-name="8" viewBox="0 0 639 649"><rect class="cls-1" width="639" height="649"/><rect class="cls-2" width="639" height="478"/><rect class="cls-3" x="44" y="128" width="551" height="63"/><text></text><rect class="cls-3" x="44" y="214" width="551" height="63"/><rect class="cls-2" y="516" width="639" height="133"/><text class="cls-6" transform="translate(257.26 413.12)"><tspan class="cls-7">F</tspan><tspan x="7.06" y="0">o</tspan><tspan class="cls-8" x="16.49" y="0">r</tspan><tspan x="21.38" y="0">got passwo</tspan><tspan class="cls-8" x="101.64" y="0">r</tspan><tspan x="106.54" y="0">d?</tspan></text><rect class="cls-1" x="123" y="321" width="394" height="76"/><g class="cls-9"><text class="cls-6" transform="translate(216.86 589.12)">Do<tspan class="cls-10" x="20.81" y="0">n</tspan><tspan class="cls-11" x="29.09" y="0">’</tspan><tspan x="33.3" y="0">t have an account? </tspan></text><text class="cls-12" transform="translate(386.86 589.12)">Sign Up</text></g><text class="cls-4" transform="translate(81.73 250.92)"><tspan class="cls-13">P</tspan><tspan x="7.85" y="0">asswo</tspan><tspan class="cls-8" x="51.7" y="0">r</tspan><tspan x="56.59" y="0">d</tspan></text><text class="cls-4" transform="translate(81.73 164.92)">Instag</text></symbol><symbol id="_9" data-name="9" viewBox="0 0 639 649"><rect class="cls-1" width="639" height="649"/><rect class="cls-2" width="639" height="478"/><rect class="cls-3" x="44" y="128" width="551" height="63"/><text></text><rect class="cls-3" x="44" y="214" width="551" height="63"/><rect class="cls-2" y="516" width="639" height="133"/><text class="cls-6" transform="translate(257.26 413.12)"><tspan class="cls-7">F</tspan><tspan x="7.06" y="0">o</tspan><tspan class="cls-8" x="16.49" y="0">r</tspan><tspan x="21.38" y="0">got passwo</tspan><tspan class="cls-8" x="101.64" y="0">r</tspan><tspan x="106.54" y="0">d?</tspan></text><rect class="cls-1" x="123" y="321" width="394" height="76"/><g class="cls-9"><text class="cls-6" transform="translate(216.86 589.12)">Do<tspan class="cls-10" x="20.81" y="0">n</tspan><tspan class="cls-11" x="29.09" y="0">’</tspan><tspan x="33.3" y="0">t have an account? </tspan></text><text class="cls-12" transform="translate(386.86 589.12)">Sign Up</text></g><text class="cls-4" transform="translate(81.73 250.92)"><tspan class="cls-13">P</tspan><tspan x="7.85" y="0">asswo</tspan><tspan class="cls-8" x="51.7" y="0">r</tspan><tspan x="56.59" y="0">d</tspan></text><text class="cls-4" transform="translate(81.73 164.92)">Instagr</text></symbol><symbol id="_10" data-name="10" viewBox="0 0 639 649"><rect class="cls-1" width="639" height="649"/><rect class="cls-2" width="639" height="478"/><rect class="cls-3" x="44" y="128" width="551" height="63"/><text></text><rect class="cls-3" x="44" y="214" width="551" height="63"/><rect class="cls-2" y="516" width="639" height="133"/><text class="cls-6" transform="translate(257.26 413.12)"><tspan class="cls-7">F</tspan><tspan x="7.06" y="0">o</tspan><tspan class="cls-8" x="16.49" y="0">r</tspan><tspan x="21.38" y="0">got passwo</tspan><tspan class="cls-8" x="101.64" y="0">r</tspan><tspan x="106.54" y="0">d?</tspan></text><rect class="cls-1" x="123" y="321" width="394" height="76"/><g class="cls-9"><text class="cls-6" transform="translate(216.86 589.12)">Do<tspan class="cls-10" x="20.81" y="0">n</tspan><tspan class="cls-11" x="29.09" y="0">’</tspan><tspan x="33.3" y="0">t have an account? </tspan></text><text class="cls-12" transform="translate(386.86 589.12)">Sign Up</text></g><text class="cls-4" transform="translate(81.73 250.92)"><tspan class="cls-13">P</tspan><tspan x="7.85" y="0">asswo</tspan><tspan class="cls-8" x="51.7" y="0">r</tspan><tspan x="56.59" y="0">d</tspan></text><text class="cls-4" transform="translate(81.73 164.92)">Instagr8</text></symbol><symbol id="_11" data-name="11" viewBox="0 0 639 649"><rect class="cls-1" width="639" height="649"/><rect class="cls-2" width="639" height="478"/><rect class="cls-3" x="44" y="128" width="551" height="63"/><text></text><rect class="cls-3" x="44" y="214" width="551" height="63"/><rect class="cls-2" y="516" width="639" height="133"/><text class="cls-6" transform="translate(257.26 413.12)"><tspan class="cls-7">F</tspan><tspan x="7.06" y="0">o</tspan><tspan class="cls-8" x="16.49" y="0">r</tspan><tspan x="21.38" y="0">got passwo</tspan><tspan class="cls-8" x="101.64" y="0">r</tspan><tspan x="106.54" y="0">d?</tspan></text><rect class="cls-1" x="123" y="321" width="394" height="76"/><g class="cls-9"><text class="cls-6" transform="translate(216.86 589.12)">Do<tspan class="cls-10" x="20.81" y="0">n</tspan><tspan class="cls-11" x="29.09" y="0">’</tspan><tspan x="33.3" y="0">t have an account? </tspan></text><text class="cls-12" transform="translate(386.86 589.12)">Sign Up</text></g><text class="cls-4" transform="translate(81.73 250.92)"> </text><text class="cls-4" transform="translate(81.73 164.92)">Instagr8</text></symbol><symbol id="_12" data-name="12" viewBox="0 0 639 649"><rect class="cls-1" width="639" height="649"/><rect class="cls-2" width="639" height="478"/><rect class="cls-3" x="44" y="128" width="551" height="63"/><text></text><rect class="cls-3" x="44" y="214" width="551" height="63"/><rect class="cls-2" y="516" width="639" height="133"/><text class="cls-6" transform="translate(257.26 413.12)"><tspan class="cls-7">F</tspan><tspan x="7.06" y="0">o</tspan><tspan class="cls-8" x="16.49" y="0">r</tspan><tspan x="21.38" y="0">got passwo</tspan><tspan class="cls-8" x="101.64" y="0">r</tspan><tspan x="106.54" y="0">d?</tspan></text><rect class="cls-1" x="123" y="321" width="394" height="76"/><g class="cls-9"><text class="cls-6" transform="translate(216.86 589.12)">Do<tspan class="cls-10" x="20.81" y="0">n</tspan><tspan class="cls-11" x="29.09" y="0">’</tspan><tspan x="33.3" y="0">t have an account? </tspan></text><text class="cls-12" transform="translate(386.86 589.12)">Sign Up</text></g><text class="cls-4" transform="translate(81.73 250.92)">*</text><text class="cls-4" transform="translate(81.73 164.92)">Instagr8</text></symbol><symbol id="_13" data-name="13" viewBox="0 0 639 649"><rect class="cls-1" width="639" height="649"/><rect class="cls-2" width="639" height="478"/><rect class="cls-3" x="44" y="128" width="551" height="63"/><text></text><rect class="cls-3" x="44" y="214" width="551" height="63"/><rect class="cls-2" y="516" width="639" height="133"/><text class="cls-6" transform="translate(257.26 413.12)"><tspan class="cls-7">F</tspan><tspan x="7.06" y="0">o</tspan><tspan class="cls-8" x="16.49" y="0">r</tspan><tspan x="21.38" y="0">got passwo</tspan><tspan class="cls-8" x="101.64" y="0">r</tspan><tspan x="106.54" y="0">d?</tspan></text><rect class="cls-1" x="123" y="321" width="394" height="76"/><g class="cls-9"><text class="cls-6" transform="translate(216.86 589.12)">Do<tspan class="cls-10" x="20.81" y="0">n</tspan><tspan class="cls-11" x="29.09" y="0">’</tspan><tspan x="33.3" y="0">t have an account? </tspan></text><text class="cls-12" transform="translate(386.86 589.12)">Sign Up</text></g><text class="cls-4" transform="translate(81.73 250.92)">**</text><text class="cls-4" transform="translate(81.73 164.92)">Instagr8</text></symbol><symbol id="_14" data-name="14" viewBox="0 0 639 649"><rect class="cls-1" width="639" height="649"/><rect class="cls-2" width="639" height="478"/><rect class="cls-3" x="44" y="128" width="551" height="63"/><text></text><rect class="cls-3" x="44" y="214" width="551" height="63"/><rect class="cls-2" y="516" width="639" height="133"/><text class="cls-6" transform="translate(257.26 413.12)"><tspan class="cls-7">F</tspan><tspan x="7.06" y="0">o</tspan><tspan class="cls-8" x="16.49" y="0">r</tspan><tspan x="21.38" y="0">got passwo</tspan><tspan class="cls-8" x="101.64" y="0">r</tspan><tspan x="106.54" y="0">d?</tspan></text><rect class="cls-1" x="123" y="321" width="394" height="76"/><g class="cls-9"><text class="cls-6" transform="translate(216.86 589.12)">Do<tspan class="cls-10" x="20.81" y="0">n</tspan><tspan class="cls-11" x="29.09" y="0">’</tspan><tspan x="33.3" y="0">t have an account? </tspan></text><text class="cls-12" transform="translate(386.86 589.12)">Sign Up</text></g><text class="cls-4" transform="translate(81.73 250.92)">***</text><text class="cls-4" transform="translate(81.73 164.92)">Instagr8</text></symbol><symbol id="_15-2" data-name="15" viewBox="0 0 639 649"><rect class="cls-1" width="639" height="649"/><rect class="cls-2" width="639" height="478"/><rect class="cls-3" x="44" y="128" width="551" height="63"/><text></text><rect class="cls-3" x="44" y="214" width="551" height="63"/><rect class="cls-2" y="516" width="639" height="133"/><text class="cls-6" transform="translate(257.26 413.12)"><tspan class="cls-7">F</tspan><tspan x="7.06" y="0">o</tspan><tspan class="cls-8" x="16.49" y="0">r</tspan><tspan x="21.38" y="0">got passwo</tspan><tspan class="cls-8" x="101.64" y="0">r</tspan><tspan x="106.54" y="0">d?</tspan></text><rect class="cls-1" x="123" y="321" width="394" height="76"/><g class="cls-9"><text class="cls-6" transform="translate(216.86 589.12)">Do<tspan class="cls-10" x="20.81" y="0">n</tspan><tspan class="cls-11" x="29.09" y="0">’</tspan><tspan x="33.3" y="0">t have an account? </tspan></text><text class="cls-12" transform="translate(386.86 589.12)">Sign Up</text></g><text class="cls-4" transform="translate(81.73 250.92)">****</text><text class="cls-4" transform="translate(81.73 164.92)">Instagr8</text></symbol></defs><title>sprite</title><g id="Layer_2" data-name="Layer 2"><g id="_15" data-name="15"><use width="639" height="649" xlink:href="#_1"/><use width="639" height="649" transform="translate(639)" xlink:href="#_2"/><use width="639" height="649" transform="translate(1278)" xlink:href="#_3"/><use width="639" height="649" transform="translate(1917)" xlink:href="#_4"/><use width="639" height="649" transform="translate(2556)" xlink:href="#_5"/><use width="639" height="649" transform="translate(3195)" xlink:href="#_6"/><use width="639" height="649" transform="translate(3834)" xlink:href="#_7"/><use width="639" height="649" transform="translate(4473)" xlink:href="#_8"/><use width="639" height="649" transform="translate(5112)" xlink:href="#_9"/><use width="639" height="649" transform="translate(5751)" xlink:href="#_10"/><use width="639" height="649" transform="translate(6390)" xlink:href="#_11"/><use width="639" height="649" transform="translate(7029)" xlink:href="#_12"/><use width="639" height="649" transform="translate(7668)" xlink:href="#_13"/><use width="639" height="649" transform="translate(8307)" xlink:href="#_14"/><use width="639" height="649" transform="translate(8946)" xlink:href="#_15-2"/></g></g></svg>
