<?xml version="1.0" encoding="utf-8"?>
<!-- Generator: Adobe Illustrator 21.1.0, SVG Export Plug-In . SVG Version: 6.00 Build 0)  -->
<svg version="1.1" id="Layer_1" xmlns="http://www.w3.org/2000/svg" xmlns:xlink="http://www.w3.org/1999/xlink" x="0px" y="0px"
	 viewBox="0 0 59 54" style="enable-background:new 0 0 59 54;" xml:space="preserve">
<style type="text/css">
	.st0{fill:#262626;stroke:#262626;stroke-miterlimit:10;}
</style>
<g>
	<path class="st0" d="M34.1,5.4c0.4,0.3,1.6,1,2.4,2.4c0.6,1,0.7,2,0.8,3.2c0.1,1.2,0,1.4,0,4c0,2.5,0.1,2.4,0,3.2
		c-0.1,0.8-0.4,2.4-1.6,4c-0.4,0.5-1.4,1.7-3.2,2.4c-0.5,0.2-2.6,0.9-4.8,0c-1.2-0.5-2-1.2-2.4-1.6c-1.9-1.9-2.3-4.1-2.4-4.8
		c-0.1-0.6,0-0.3,0-2.4c0-2.8-0.3-3.4,0-4.8c0.1-0.3,0.3-1.3,0.8-2.4C24,7.9,24.7,6.4,26,5.4C28.4,3.7,31.9,4.1,34.1,5.4z"/>
	<path class="st0" d="M13.1,42.5L13.1,42.5c-0.6-6.5-0.4-7.3,0-8.1c1-1.9,2.9-2.7,5.6-4c0.8-0.4,2.5-1.1,4.8-1.6
		c6.6-1.5,11.9-0.1,15.3,0.8c1.4,0.4,2.7,0.8,4,1.6c1.2,0.7,3.1,1.9,4,4c0,0,0.5,1.2,0,7.3l0,0l0,0C47,42.5,13.1,42.5,13.1,42.5
		L13.1,42.5z"/>
</g>
</svg>
