<?xml version="1.0" encoding="utf-8"?>
<!-- Generator: Adobe Illustrator 21.1.0, SVG Export Plug-In . SVG Version: 6.00 Build 0)  -->
<svg version="1.1" xmlns="http://www.w3.org/2000/svg" xmlns:xlink="http://www.w3.org/1999/xlink" x="0px" y="0px"
	 viewBox="0 0 12000 450" style="enable-background:new 0 0 12000 450;" xml:space="preserve">
<style type="text/css">
	.st0{fill:#E9ECED;}
	.st1{fill:#FFFFFF;}
	.st2{fill:#262626;}
	.st3{fill:#152230;}
	.st4{fill:none;stroke:#000000;stroke-miterlimit:10;}
	.st5{fill:#89CCE5;}
	.st6{fill:#FDFFFF;}
	.st7{fill:none;}
	.st8{fill:#666666;}
	.st9{display:none;}
</style>
<symbol  id="_x31_" viewBox="-800 -449.5 1600 899">
	<g>
		<rect x="-513" y="-449.5" class="st0" width="1021" height="776"/>
		<rect x="-312" y="-210.5" class="st1" width="639" height="478"/>
		<rect x="-513" y="326.5" class="st1" width="1021" height="123"/>
		<g>
			<g id="JRxRvb.tif_31_">

					<image style="overflow:visible;" width="1132" height="322" id="Layer_0_31_" xlink:href="13702B868C431F61.png"  transform="matrix(0.1758 0 0 -0.1758 -400 415.5)">
				</image>
			</g>
			<path class="st2" d="M-384.6,384.9c0.1,0,0-0.5,0.3-1.5c0.2-0.8,0.4-1.5,1-2.1c0.2-0.2,0.5-0.5,1-0.5c1.1-0.1,2,1,2.6,1.8
				c0.8,1,1.9,2.4,1.8,3.9c0,0.2-0.1,0.8,0.3,1c0.2,0.2,0.6,0.2,0.8,0c0.2-0.1,0.2-0.3,0-1.8c-0.1-0.8-0.2-1.1-0.3-1.5
				c0-0.2-0.2-0.8-0.5-1.5c-0.2-0.6-0.7-1.8-1.8-3.1c-0.5-0.6-0.9-1.1-1.5-1.5c-0.5-0.4-1.3-1-2.6-1c-0.4,0-1.6-0.1-2.3,0.5
				C-387.7,379.1-385,385-384.6,384.9z"/>
		</g>
		<g>
			<path class="st3" d="M-441,358.5h-32.8c-0.5,0.1-1.5,0.5-2.4,1.4c-0.9,0.9-1.3,1.9-1.4,2.4v33.4c0.1,0.5,0.5,1.5,1.4,2.4
				c0.9,0.9,1.9,1.3,2.4,1.4h32.8c0.5-0.1,1.5-0.5,2.4-1.4c0.9-0.9,1.3-1.9,1.4-2.4v-33.4c-0.1-0.5-0.5-1.5-1.4-2.4
				C-439.6,359-440.5,358.6-441,358.5z"/>
			<path class="st1" d="M-443.1,387.4c-1.5,0-2.9,0-4.4,0c-0.1,0-0.8,0-1.3,0.6c-0.3,0.4-0.3,0.8-0.3,0.9c0,1.6,0,3.2,0,4.7
				c0,0.1,0.1,0.4,0.3,0.6c0.1,0.1,0.3,0.3,0.6,0.3c1.7,0,3.4,0,5,0c0.2-0.1,0.6-0.2,0.9-0.6c0.2-0.2,0.3-0.5,0.3-0.6
				c0-1.6,0-3.2,0-4.7c-0.1-0.2-0.2-0.6-0.6-0.9C-442.7,387.5-442.9,387.4-443.1,387.4z"/>
			<circle class="st1" cx="-457.4" cy="379" r="8.2"/>
			<path class="st1" d="M-472.7,382.9L-472.7,382.9c0,0,1.1,0,3.2,0c-0.4-1.4-0.9-4.5,0.3-7.9c1.6-4.4,6-8.8,12-8.8
				c6.1,0,10.6,4.7,11.7,8.2c0.6,2.2,0.6,4.4,0.6,4.4c0,0,0,0.7-0.3,4.1c1.2,0,2.3,0,3.5,0c0-0.1,0-0.2,0-0.3c0,0,0-17.3,0-17.3
				c-0.1-0.3-0.2-0.8-0.6-1.3c0,0,0,0,0,0c-0.3-0.3-0.9-0.6-0.9-0.6c-18-0.2-27.8-0.3-27.8-0.3l0,0c0,0-0.9,0.4-1.3,0.9
				c-0.4,0.6-0.3,3-0.3,2.2l0,0C-472.7,366.2-472.7,382.9-472.7,382.9z"/>
		</g>
		<line class="st4" x1="-417.5" y1="398.5" x2="-417.5" y2="358"/>
		<rect x="-268" y="76.5" class="st0" width="551" height="63"/>
		<rect x="-268" y="-9.5" class="st0" width="551" height="63"/>
		<rect x="-312" y="-381.5" class="st1" width="639" height="133"/>
		<rect x="-268" y="-95.5" class="st5" width="551" height="63"/>
		<rect x="-189" y="-181.5" class="st7" width="394" height="49"/>
		<text transform="matrix(1 0 0 -1 -54.7373 -145.6216)" style="font-family:'FuturaPT-Book'; font-size:18px;">Forgot password?</text>
		<rect x="-189" y="-129.5" class="st7" width="394" height="76"/>
		<text transform="matrix(1 0 0 -1 -17.6694 -68.0796)" class="st6" style="font-family:'FuturaPT-Demi'; font-size:20px;">Log in</text>
		<rect x="-179" y="-350.5" class="st7" width="394" height="42"/>
		<text transform="matrix(1 0 0 -1 -95.1445 -321.6216)"><tspan x="0" y="0" style="font-family:'FuturaPT-Book'; font-size:18px;">Don’t have an account? </tspan><tspan x="170" y="0" class="st5" style="font-family:'FuturaPT-Book'; font-size:18px;">Sign Up</tspan></text>
		<g>
			<g id="JRxRvb.tif_30_">

					<image style="overflow:visible;" width="1132" height="322" id="Layer_0_30_" xlink:href="13702B868C431F63.png"  transform="matrix(0.2565 0 0 -0.2565 -134 237.5)">
				</image>
			</g>
			<path class="st2" d="M-111.5,192.8c0.2,0,0-0.7,0.4-2.3c0.3-1.1,0.6-2.2,1.5-3c0.3-0.2,0.8-0.7,1.5-0.8c1.6-0.2,2.9,1.5,3.8,2.6
				c1.1,1.4,2.7,3.5,2.6,5.6c0,0.3-0.1,1.2,0.4,1.5c0.3,0.2,0.8,0.2,1.1,0c0.2-0.2,0.3-0.5,0-2.6c-0.2-1.1-0.2-1.6-0.4-2.3
				c-0.1-0.3-0.3-1.1-0.8-2.3c-0.4-0.9-1.1-2.6-2.6-4.5c-0.7-0.9-1.3-1.6-2.3-2.3c-0.7-0.5-2-1.4-3.8-1.5c-0.6,0-2.4-0.2-3.4,0.8
				C-116.1,184.3-112.1,192.9-111.5,192.8z"/>
		</g>
		<rect x="-800" y="-449.5" class="st7" width="1600" height="899"/>
	</g>
	<rect x="-245.8" y="82.6" class="st7" width="513.9" height="34.9"/>
	<text transform="matrix(1 0 0 -1 -245.7832 104.4009)" class="st8" style="font-family:'FuturaPT-Book'; font-size:18px;">Phone number, username, or email</text>
	<rect x="-245.8" y="-1.4" class="st7" width="513.9" height="34.9"/>
	<text transform="matrix(1 0 0 -1 -245.7832 20.4009)" class="st8" style="font-family:'FuturaPT-Book'; font-size:18px;">Password</text>
</symbol>
<symbol  id="_x31_0" viewBox="-800 -449.5 1600 899">
	<g>
		<rect x="-513" y="-449.5" class="st0" width="1021" height="776"/>
		<rect x="-312" y="-210.5" class="st1" width="639" height="478"/>
		<rect x="-513" y="326.5" class="st1" width="1021" height="123"/>
		<g>
			<g id="JRxRvb.tif_50_">

					<image style="overflow:visible;" width="1132" height="322" id="Layer_0_50_" xlink:href="13702B868C431F66.png"  transform="matrix(0.1758 0 0 -0.1758 -400 415.5)">
				</image>
			</g>
			<path class="st2" d="M-384.6,384.9c0.1,0,0-0.5,0.3-1.5c0.2-0.8,0.4-1.5,1-2.1c0.2-0.2,0.5-0.5,1-0.5c1.1-0.1,2,1,2.6,1.8
				c0.8,1,1.9,2.4,1.8,3.9c0,0.2-0.1,0.8,0.3,1c0.2,0.2,0.6,0.2,0.8,0c0.2-0.1,0.2-0.3,0-1.8c-0.1-0.8-0.2-1.1-0.3-1.5
				c0-0.2-0.2-0.8-0.5-1.5c-0.2-0.6-0.7-1.8-1.8-3.1c-0.5-0.6-0.9-1.1-1.5-1.5c-0.5-0.4-1.3-1-2.6-1c-0.4,0-1.6-0.1-2.3,0.5
				C-387.7,379.1-385,385-384.6,384.9z"/>
		</g>
		<g>
			<path class="st3" d="M-441,358.5h-32.8c-0.5,0.1-1.5,0.5-2.4,1.4c-0.9,0.9-1.3,1.9-1.4,2.4v33.4c0.1,0.5,0.5,1.5,1.4,2.4
				c0.9,0.9,1.9,1.3,2.4,1.4h32.8c0.5-0.1,1.5-0.5,2.4-1.4c0.9-0.9,1.3-1.9,1.4-2.4v-33.4c-0.1-0.5-0.5-1.5-1.4-2.4
				C-439.6,359-440.5,358.6-441,358.5z"/>
			<path class="st1" d="M-443.1,387.4c-1.5,0-2.9,0-4.4,0c-0.1,0-0.8,0-1.3,0.6c-0.3,0.4-0.3,0.8-0.3,0.9c0,1.6,0,3.2,0,4.7
				c0,0.1,0.1,0.4,0.3,0.6c0.1,0.1,0.3,0.3,0.6,0.3c1.7,0,3.4,0,5,0c0.2-0.1,0.6-0.2,0.9-0.6c0.2-0.2,0.3-0.5,0.3-0.6
				c0-1.6,0-3.2,0-4.7c-0.1-0.2-0.2-0.6-0.6-0.9C-442.7,387.5-442.9,387.4-443.1,387.4z"/>
			<circle class="st1" cx="-457.4" cy="379" r="8.2"/>
			<path class="st1" d="M-472.7,382.9L-472.7,382.9c0,0,1.1,0,3.2,0c-0.4-1.4-0.9-4.5,0.3-7.9c1.6-4.4,6-8.8,12-8.8
				c6.1,0,10.6,4.7,11.7,8.2c0.6,2.2,0.6,4.4,0.6,4.4c0,0,0,0.7-0.3,4.1c1.2,0,2.3,0,3.5,0c0-0.1,0-0.2,0-0.3c0,0,0-17.3,0-17.3
				c-0.1-0.3-0.2-0.8-0.6-1.3c0,0,0,0,0,0c-0.3-0.3-0.9-0.6-0.9-0.6c-18-0.2-27.8-0.3-27.8-0.3l0,0c0,0-0.9,0.4-1.3,0.9
				c-0.4,0.6-0.3,3-0.3,2.2l0,0C-472.7,366.2-472.7,382.9-472.7,382.9z"/>
		</g>
		<line class="st4" x1="-417.5" y1="398.5" x2="-417.5" y2="358"/>
		<rect x="-268" y="76.5" class="st0" width="551" height="63"/>
		<rect x="-268" y="-9.5" class="st0" width="551" height="63"/>
		<rect x="-312" y="-381.5" class="st1" width="639" height="133"/>
		<rect x="-268" y="-95.5" class="st5" width="551" height="63"/>
		<rect x="-189" y="-181.5" class="st7" width="394" height="49"/>
		<text transform="matrix(1 0 0 -1 -54.7373 -145.6216)" style="font-family:'FuturaPT-Book'; font-size:18px;">Forgot password?</text>
		<rect x="-189" y="-129.5" class="st7" width="394" height="76"/>
		<text transform="matrix(1 0 0 -1 -17.6694 -68.0796)" class="st6" style="font-family:'FuturaPT-Demi'; font-size:20px;">Log in</text>
		<rect x="-179" y="-350.5" class="st7" width="394" height="42"/>
		<text transform="matrix(1 0 0 -1 -95.1445 -321.6216)"><tspan x="0" y="0" style="font-family:'FuturaPT-Book'; font-size:18px;">Don’t have an account? </tspan><tspan x="170" y="0" class="st5" style="font-family:'FuturaPT-Book'; font-size:18px;">Sign Up</tspan></text>
		<g>
			<g id="JRxRvb.tif_49_">

					<image style="overflow:visible;" width="1132" height="322" id="Layer_0_49_" xlink:href="13702B868C431F67.png"  transform="matrix(0.2565 0 0 -0.2565 -134 237.5)">
				</image>
			</g>
			<path class="st2" d="M-111.5,192.8c0.2,0,0-0.7,0.4-2.3c0.3-1.1,0.6-2.2,1.5-3c0.3-0.2,0.8-0.7,1.5-0.8c1.6-0.2,2.9,1.5,3.8,2.6
				c1.1,1.4,2.7,3.5,2.6,5.6c0,0.3-0.1,1.2,0.4,1.5c0.3,0.2,0.8,0.2,1.1,0c0.2-0.2,0.3-0.5,0-2.6c-0.2-1.1-0.2-1.6-0.4-2.3
				c-0.1-0.3-0.3-1.1-0.8-2.3c-0.4-0.9-1.1-2.6-2.6-4.5c-0.7-0.9-1.3-1.6-2.3-2.3c-0.7-0.5-2-1.4-3.8-1.5c-0.6,0-2.4-0.2-3.4,0.8
				C-116.1,184.3-112.1,192.9-111.5,192.8z"/>
		</g>
		<rect x="-800" y="-449.5" class="st7" width="1600" height="899"/>
	</g>
	<rect x="-245.8" y="82.6" class="st7" width="513.9" height="34.9"/>
	<text transform="matrix(1 0 0 -1 -245.7832 104.4009)" class="st8" style="font-family:'FuturaPT-Book'; font-size:18px;">instagr8</text>
	<rect x="-245.8" y="-1.4" class="st7" width="513.9" height="34.9"/>
	<text transform="matrix(1 0 0 -1 -245.7832 20.4009)" class="st8" style="font-family:'FuturaPT-Book'; font-size:18px;">Password</text>
</symbol>
<symbol  id="_x31_1" viewBox="-800 -449.5 1600 899">
	<g>
		<rect x="-513" y="-449.5" class="st0" width="1021" height="776"/>
		<rect x="-312" y="-210.5" class="st1" width="639" height="478"/>
		<rect x="-513" y="326.5" class="st1" width="1021" height="123"/>
		<g>
			<g id="JRxRvb.tif_52_">

					<image style="overflow:visible;" width="1132" height="322" id="Layer_0_52_" xlink:href="13702B868C431F62.png"  transform="matrix(0.1758 0 0 -0.1758 -400 415.5)">
				</image>
			</g>
			<path class="st2" d="M-384.6,384.9c0.1,0,0-0.5,0.3-1.5c0.2-0.8,0.4-1.5,1-2.1c0.2-0.2,0.5-0.5,1-0.5c1.1-0.1,2,1,2.6,1.8
				c0.8,1,1.9,2.4,1.8,3.9c0,0.2-0.1,0.8,0.3,1c0.2,0.2,0.6,0.2,0.8,0c0.2-0.1,0.2-0.3,0-1.8c-0.1-0.8-0.2-1.1-0.3-1.5
				c0-0.2-0.2-0.8-0.5-1.5c-0.2-0.6-0.7-1.8-1.8-3.1c-0.5-0.6-0.9-1.1-1.5-1.5c-0.5-0.4-1.3-1-2.6-1c-0.4,0-1.6-0.1-2.3,0.5
				C-387.7,379.1-385,385-384.6,384.9z"/>
		</g>
		<g>
			<path class="st3" d="M-441,358.5h-32.8c-0.5,0.1-1.5,0.5-2.4,1.4c-0.9,0.9-1.3,1.9-1.4,2.4v33.4c0.1,0.5,0.5,1.5,1.4,2.4
				c0.9,0.9,1.9,1.3,2.4,1.4h32.8c0.5-0.1,1.5-0.5,2.4-1.4c0.9-0.9,1.3-1.9,1.4-2.4v-33.4c-0.1-0.5-0.5-1.5-1.4-2.4
				C-439.6,359-440.5,358.6-441,358.5z"/>
			<path class="st1" d="M-443.1,387.4c-1.5,0-2.9,0-4.4,0c-0.1,0-0.8,0-1.3,0.6c-0.3,0.4-0.3,0.8-0.3,0.9c0,1.6,0,3.2,0,4.7
				c0,0.1,0.1,0.4,0.3,0.6c0.1,0.1,0.3,0.3,0.6,0.3c1.7,0,3.4,0,5,0c0.2-0.1,0.6-0.2,0.9-0.6c0.2-0.2,0.3-0.5,0.3-0.6
				c0-1.6,0-3.2,0-4.7c-0.1-0.2-0.2-0.6-0.6-0.9C-442.7,387.5-442.9,387.4-443.1,387.4z"/>
			<circle class="st1" cx="-457.4" cy="379" r="8.2"/>
			<path class="st1" d="M-472.7,382.9L-472.7,382.9c0,0,1.1,0,3.2,0c-0.4-1.4-0.9-4.5,0.3-7.9c1.6-4.4,6-8.8,12-8.8
				c6.1,0,10.6,4.7,11.7,8.2c0.6,2.2,0.6,4.4,0.6,4.4c0,0,0,0.7-0.3,4.1c1.2,0,2.3,0,3.5,0c0-0.1,0-0.2,0-0.3c0,0,0-17.3,0-17.3
				c-0.1-0.3-0.2-0.8-0.6-1.3c0,0,0,0,0,0c-0.3-0.3-0.9-0.6-0.9-0.6c-18-0.2-27.8-0.3-27.8-0.3l0,0c0,0-0.9,0.4-1.3,0.9
				c-0.4,0.6-0.3,3-0.3,2.2l0,0C-472.7,366.2-472.7,382.9-472.7,382.9z"/>
		</g>
		<line class="st4" x1="-417.5" y1="398.5" x2="-417.5" y2="358"/>
		<rect x="-268" y="76.5" class="st0" width="551" height="63"/>
		<rect x="-268" y="-9.5" class="st0" width="551" height="63"/>
		<rect x="-312" y="-381.5" class="st1" width="639" height="133"/>
		<rect x="-268" y="-95.5" class="st5" width="551" height="63"/>
		<rect x="-189" y="-181.5" class="st7" width="394" height="49"/>
		<text transform="matrix(1 0 0 -1 -54.7373 -145.6216)" style="font-family:'FuturaPT-Book'; font-size:18px;">Forgot password?</text>
		<rect x="-189" y="-129.5" class="st7" width="394" height="76"/>
		<text transform="matrix(1 0 0 -1 -17.6694 -68.0796)" class="st6" style="font-family:'FuturaPT-Demi'; font-size:20px;">Log in</text>
		<rect x="-179" y="-350.5" class="st7" width="394" height="42"/>
		<text transform="matrix(1 0 0 -1 -95.1445 -321.6216)"><tspan x="0" y="0" style="font-family:'FuturaPT-Book'; font-size:18px;">Don’t have an account? </tspan><tspan x="170" y="0" class="st5" style="font-family:'FuturaPT-Book'; font-size:18px;">Sign Up</tspan></text>
		<g>
			<g id="JRxRvb.tif_51_">

					<image style="overflow:visible;" width="1132" height="322" id="Layer_0_51_" xlink:href="13702B868C431F6D.png"  transform="matrix(0.2565 0 0 -0.2565 -134 237.5)">
				</image>
			</g>
			<path class="st2" d="M-111.5,192.8c0.2,0,0-0.7,0.4-2.3c0.3-1.1,0.6-2.2,1.5-3c0.3-0.2,0.8-0.7,1.5-0.8c1.6-0.2,2.9,1.5,3.8,2.6
				c1.1,1.4,2.7,3.5,2.6,5.6c0,0.3-0.1,1.2,0.4,1.5c0.3,0.2,0.8,0.2,1.1,0c0.2-0.2,0.3-0.5,0-2.6c-0.2-1.1-0.2-1.6-0.4-2.3
				c-0.1-0.3-0.3-1.1-0.8-2.3c-0.4-0.9-1.1-2.6-2.6-4.5c-0.7-0.9-1.3-1.6-2.3-2.3c-0.7-0.5-2-1.4-3.8-1.5c-0.6,0-2.4-0.2-3.4,0.8
				C-116.1,184.3-112.1,192.9-111.5,192.8z"/>
		</g>
		<rect x="-800" y="-449.5" class="st7" width="1600" height="899"/>
	</g>
	<rect x="-245.8" y="82.6" class="st7" width="513.9" height="34.9"/>
	<text transform="matrix(1 0 0 -1 -245.7832 104.4009)" class="st8" style="font-family:'FuturaPT-Book'; font-size:18px;">instagr8</text>
	<rect x="-245.8" y="-1.4" class="st7" width="513.9" height="34.9"/>
</symbol>
<symbol  id="_x31_2" viewBox="-800 -449.5 1600 899">
	<g>
		<rect x="-513" y="-449.5" class="st0" width="1021" height="776"/>
		<rect x="-312" y="-210.5" class="st1" width="639" height="478"/>
		<rect x="-513" y="326.5" class="st1" width="1021" height="123"/>
		<g>
			<g id="JRxRvb.tif_54_">

					<image style="overflow:visible;" width="1132" height="322" id="Layer_0_54_" xlink:href="13702B868C431F6E.png"  transform="matrix(0.1758 0 0 -0.1758 -400 415.5)">
				</image>
			</g>
			<path class="st2" d="M-384.6,384.9c0.1,0,0-0.5,0.3-1.5c0.2-0.8,0.4-1.5,1-2.1c0.2-0.2,0.5-0.5,1-0.5c1.1-0.1,2,1,2.6,1.8
				c0.8,1,1.9,2.4,1.8,3.9c0,0.2-0.1,0.8,0.3,1c0.2,0.2,0.6,0.2,0.8,0c0.2-0.1,0.2-0.3,0-1.8c-0.1-0.8-0.2-1.1-0.3-1.5
				c0-0.2-0.2-0.8-0.5-1.5c-0.2-0.6-0.7-1.8-1.8-3.1c-0.5-0.6-0.9-1.1-1.5-1.5c-0.5-0.4-1.3-1-2.6-1c-0.4,0-1.6-0.1-2.3,0.5
				C-387.7,379.1-385,385-384.6,384.9z"/>
		</g>
		<g>
			<path class="st3" d="M-441,358.5h-32.8c-0.5,0.1-1.5,0.5-2.4,1.4c-0.9,0.9-1.3,1.9-1.4,2.4v33.4c0.1,0.5,0.5,1.5,1.4,2.4
				c0.9,0.9,1.9,1.3,2.4,1.4h32.8c0.5-0.1,1.5-0.5,2.4-1.4c0.9-0.9,1.3-1.9,1.4-2.4v-33.4c-0.1-0.5-0.5-1.5-1.4-2.4
				C-439.6,359-440.5,358.6-441,358.5z"/>
			<path class="st1" d="M-443.1,387.4c-1.5,0-2.9,0-4.4,0c-0.1,0-0.8,0-1.3,0.6c-0.3,0.4-0.3,0.8-0.3,0.9c0,1.6,0,3.2,0,4.7
				c0,0.1,0.1,0.4,0.3,0.6c0.1,0.1,0.3,0.3,0.6,0.3c1.7,0,3.4,0,5,0c0.2-0.1,0.6-0.2,0.9-0.6c0.2-0.2,0.3-0.5,0.3-0.6
				c0-1.6,0-3.2,0-4.7c-0.1-0.2-0.2-0.6-0.6-0.9C-442.7,387.5-442.9,387.4-443.1,387.4z"/>
			<circle class="st1" cx="-457.4" cy="379" r="8.2"/>
			<path class="st1" d="M-472.7,382.9L-472.7,382.9c0,0,1.1,0,3.2,0c-0.4-1.4-0.9-4.5,0.3-7.9c1.6-4.4,6-8.8,12-8.8
				c6.1,0,10.6,4.7,11.7,8.2c0.6,2.2,0.6,4.4,0.6,4.4c0,0,0,0.7-0.3,4.1c1.2,0,2.3,0,3.5,0c0-0.1,0-0.2,0-0.3c0,0,0-17.3,0-17.3
				c-0.1-0.3-0.2-0.8-0.6-1.3c0,0,0,0,0,0c-0.3-0.3-0.9-0.6-0.9-0.6c-18-0.2-27.8-0.3-27.8-0.3l0,0c0,0-0.9,0.4-1.3,0.9
				c-0.4,0.6-0.3,3-0.3,2.2l0,0C-472.7,366.2-472.7,382.9-472.7,382.9z"/>
		</g>
		<line class="st4" x1="-417.5" y1="398.5" x2="-417.5" y2="358"/>
		<rect x="-268" y="76.5" class="st0" width="551" height="63"/>
		<rect x="-268" y="-9.5" class="st0" width="551" height="63"/>
		<rect x="-312" y="-381.5" class="st1" width="639" height="133"/>
		<rect x="-268" y="-95.5" class="st5" width="551" height="63"/>
		<rect x="-189" y="-181.5" class="st7" width="394" height="49"/>
		<text transform="matrix(1 0 0 -1 -54.7373 -145.6216)" style="font-family:'FuturaPT-Book'; font-size:18px;">Forgot password?</text>
		<rect x="-189" y="-129.5" class="st7" width="394" height="76"/>
		<text transform="matrix(1 0 0 -1 -17.6694 -68.0796)" class="st6" style="font-family:'FuturaPT-Demi'; font-size:20px;">Log in</text>
		<rect x="-179" y="-350.5" class="st7" width="394" height="42"/>
		<text transform="matrix(1 0 0 -1 -95.1445 -321.6216)"><tspan x="0" y="0" style="font-family:'FuturaPT-Book'; font-size:18px;">Don’t have an account? </tspan><tspan x="170" y="0" class="st5" style="font-family:'FuturaPT-Book'; font-size:18px;">Sign Up</tspan></text>
		<g>
			<g id="JRxRvb.tif_53_">

					<image style="overflow:visible;" width="1132" height="322" id="Layer_0_53_" xlink:href="13702B868C431F6F.png"  transform="matrix(0.2565 0 0 -0.2565 -134 237.5)">
				</image>
			</g>
			<path class="st2" d="M-111.5,192.8c0.2,0,0-0.7,0.4-2.3c0.3-1.1,0.6-2.2,1.5-3c0.3-0.2,0.8-0.7,1.5-0.8c1.6-0.2,2.9,1.5,3.8,2.6
				c1.1,1.4,2.7,3.5,2.6,5.6c0,0.3-0.1,1.2,0.4,1.5c0.3,0.2,0.8,0.2,1.1,0c0.2-0.2,0.3-0.5,0-2.6c-0.2-1.1-0.2-1.6-0.4-2.3
				c-0.1-0.3-0.3-1.1-0.8-2.3c-0.4-0.9-1.1-2.6-2.6-4.5c-0.7-0.9-1.3-1.6-2.3-2.3c-0.7-0.5-2-1.4-3.8-1.5c-0.6,0-2.4-0.2-3.4,0.8
				C-116.1,184.3-112.1,192.9-111.5,192.8z"/>
		</g>
		<rect x="-800" y="-449.5" class="st7" width="1600" height="899"/>
	</g>
	<rect x="-245.8" y="82.6" class="st7" width="513.9" height="34.9"/>
	<text transform="matrix(1 0 0 -1 -245.7832 104.4009)" class="st8" style="font-family:'FuturaPT-Book'; font-size:18px;">instagr8</text>
	<rect x="-245.8" y="-1.4" class="st7" width="513.9" height="34.9"/>
	<text transform="matrix(1 0 0 -1 -245.7832 20.4009)" class="st8" style="font-family:'FuturaPT-Book'; font-size:18px;">*</text>
</symbol>
<symbol  id="_x31_3" viewBox="-800 -449.5 1600 899">
	<g>
		<rect x="-513" y="-449.5" class="st0" width="1021" height="776"/>
		<rect x="-312" y="-210.5" class="st1" width="639" height="478"/>
		<rect x="-513" y="326.5" class="st1" width="1021" height="123"/>
		<g>
			<g id="JRxRvb.tif_56_">

					<image style="overflow:visible;" width="1132" height="322" id="Layer_0_56_" xlink:href="13702B868C431F64.png"  transform="matrix(0.1758 0 0 -0.1758 -400 415.5)">
				</image>
			</g>
			<path class="st2" d="M-384.6,384.9c0.1,0,0-0.5,0.3-1.5c0.2-0.8,0.4-1.5,1-2.1c0.2-0.2,0.5-0.5,1-0.5c1.1-0.1,2,1,2.6,1.8
				c0.8,1,1.9,2.4,1.8,3.9c0,0.2-0.1,0.8,0.3,1c0.2,0.2,0.6,0.2,0.8,0c0.2-0.1,0.2-0.3,0-1.8c-0.1-0.8-0.2-1.1-0.3-1.5
				c0-0.2-0.2-0.8-0.5-1.5c-0.2-0.6-0.7-1.8-1.8-3.1c-0.5-0.6-0.9-1.1-1.5-1.5c-0.5-0.4-1.3-1-2.6-1c-0.4,0-1.6-0.1-2.3,0.5
				C-387.7,379.1-385,385-384.6,384.9z"/>
		</g>
		<g>
			<path class="st3" d="M-441,358.5h-32.8c-0.5,0.1-1.5,0.5-2.4,1.4c-0.9,0.9-1.3,1.9-1.4,2.4v33.4c0.1,0.5,0.5,1.5,1.4,2.4
				c0.9,0.9,1.9,1.3,2.4,1.4h32.8c0.5-0.1,1.5-0.5,2.4-1.4c0.9-0.9,1.3-1.9,1.4-2.4v-33.4c-0.1-0.5-0.5-1.5-1.4-2.4
				C-439.6,359-440.5,358.6-441,358.5z"/>
			<path class="st1" d="M-443.1,387.4c-1.5,0-2.9,0-4.4,0c-0.1,0-0.8,0-1.3,0.6c-0.3,0.4-0.3,0.8-0.3,0.9c0,1.6,0,3.2,0,4.7
				c0,0.1,0.1,0.4,0.3,0.6c0.1,0.1,0.3,0.3,0.6,0.3c1.7,0,3.4,0,5,0c0.2-0.1,0.6-0.2,0.9-0.6c0.2-0.2,0.3-0.5,0.3-0.6
				c0-1.6,0-3.2,0-4.7c-0.1-0.2-0.2-0.6-0.6-0.9C-442.7,387.5-442.9,387.4-443.1,387.4z"/>
			<circle class="st1" cx="-457.4" cy="379" r="8.2"/>
			<path class="st1" d="M-472.7,382.9L-472.7,382.9c0,0,1.1,0,3.2,0c-0.4-1.4-0.9-4.5,0.3-7.9c1.6-4.4,6-8.8,12-8.8
				c6.1,0,10.6,4.7,11.7,8.2c0.6,2.2,0.6,4.4,0.6,4.4c0,0,0,0.7-0.3,4.1c1.2,0,2.3,0,3.5,0c0-0.1,0-0.2,0-0.3c0,0,0-17.3,0-17.3
				c-0.1-0.3-0.2-0.8-0.6-1.3c0,0,0,0,0,0c-0.3-0.3-0.9-0.6-0.9-0.6c-18-0.2-27.8-0.3-27.8-0.3l0,0c0,0-0.9,0.4-1.3,0.9
				c-0.4,0.6-0.3,3-0.3,2.2l0,0C-472.7,366.2-472.7,382.9-472.7,382.9z"/>
		</g>
		<line class="st4" x1="-417.5" y1="398.5" x2="-417.5" y2="358"/>
		<rect x="-268" y="76.5" class="st0" width="551" height="63"/>
		<rect x="-268" y="-9.5" class="st0" width="551" height="63"/>
		<rect x="-312" y="-381.5" class="st1" width="639" height="133"/>
		<rect x="-268" y="-95.5" class="st5" width="551" height="63"/>
		<rect x="-189" y="-181.5" class="st7" width="394" height="49"/>
		<text transform="matrix(1 0 0 -1 -54.7373 -145.6216)" style="font-family:'FuturaPT-Book'; font-size:18px;">Forgot password?</text>
		<rect x="-189" y="-129.5" class="st7" width="394" height="76"/>
		<text transform="matrix(1 0 0 -1 -17.6694 -68.0796)" class="st6" style="font-family:'FuturaPT-Demi'; font-size:20px;">Log in</text>
		<rect x="-179" y="-350.5" class="st7" width="394" height="42"/>
		<text transform="matrix(1 0 0 -1 -95.1445 -321.6216)"><tspan x="0" y="0" style="font-family:'FuturaPT-Book'; font-size:18px;">Don’t have an account? </tspan><tspan x="170" y="0" class="st5" style="font-family:'FuturaPT-Book'; font-size:18px;">Sign Up</tspan></text>
		<g>
			<g id="JRxRvb.tif_55_">

					<image style="overflow:visible;" width="1132" height="322" id="Layer_0_55_" xlink:href="CF364A7245B3891A.png"  transform="matrix(0.2565 0 0 -0.2565 -134 237.5)">
				</image>
			</g>
			<path class="st2" d="M-111.5,192.8c0.2,0,0-0.7,0.4-2.3c0.3-1.1,0.6-2.2,1.5-3c0.3-0.2,0.8-0.7,1.5-0.8c1.6-0.2,2.9,1.5,3.8,2.6
				c1.1,1.4,2.7,3.5,2.6,5.6c0,0.3-0.1,1.2,0.4,1.5c0.3,0.2,0.8,0.2,1.1,0c0.2-0.2,0.3-0.5,0-2.6c-0.2-1.1-0.2-1.6-0.4-2.3
				c-0.1-0.3-0.3-1.1-0.8-2.3c-0.4-0.9-1.1-2.6-2.6-4.5c-0.7-0.9-1.3-1.6-2.3-2.3c-0.7-0.5-2-1.4-3.8-1.5c-0.6,0-2.4-0.2-3.4,0.8
				C-116.1,184.3-112.1,192.9-111.5,192.8z"/>
		</g>
		<rect x="-800" y="-449.5" class="st7" width="1600" height="899"/>
	</g>
	<rect x="-245.8" y="82.6" class="st7" width="513.9" height="34.9"/>
	<text transform="matrix(1 0 0 -1 -245.7832 104.4009)" class="st8" style="font-family:'FuturaPT-Book'; font-size:18px;">instagr8</text>
	<rect x="-245.8" y="-1.4" class="st7" width="513.9" height="34.9"/>
	<text transform="matrix(1 0 0 -1 -245.7832 20.4009)" class="st8" style="font-family:'FuturaPT-Book'; font-size:18px;">**</text>
</symbol>
<symbol  id="_x31_4" viewBox="-800 -449.5 1600 899">
	<g>
		<rect x="-513" y="-449.5" class="st0" width="1021" height="776"/>
		<rect x="-312" y="-210.5" class="st1" width="639" height="478"/>
		<rect x="-513" y="326.5" class="st1" width="1021" height="123"/>
		<g>
			<g id="JRxRvb.tif_58_">

					<image style="overflow:visible;" width="1132" height="322" id="Layer_0_58_" xlink:href="CF364A7245B3891D.png"  transform="matrix(0.1758 0 0 -0.1758 -400 415.5)">
				</image>
			</g>
			<path class="st2" d="M-384.6,384.9c0.1,0,0-0.5,0.3-1.5c0.2-0.8,0.4-1.5,1-2.1c0.2-0.2,0.5-0.5,1-0.5c1.1-0.1,2,1,2.6,1.8
				c0.8,1,1.9,2.4,1.8,3.9c0,0.2-0.1,0.8,0.3,1c0.2,0.2,0.6,0.2,0.8,0c0.2-0.1,0.2-0.3,0-1.8c-0.1-0.8-0.2-1.1-0.3-1.5
				c0-0.2-0.2-0.8-0.5-1.5c-0.2-0.6-0.7-1.8-1.8-3.1c-0.5-0.6-0.9-1.1-1.5-1.5c-0.5-0.4-1.3-1-2.6-1c-0.4,0-1.6-0.1-2.3,0.5
				C-387.7,379.1-385,385-384.6,384.9z"/>
		</g>
		<g>
			<path class="st3" d="M-441,358.5h-32.8c-0.5,0.1-1.5,0.5-2.4,1.4c-0.9,0.9-1.3,1.9-1.4,2.4v33.4c0.1,0.5,0.5,1.5,1.4,2.4
				c0.9,0.9,1.9,1.3,2.4,1.4h32.8c0.5-0.1,1.5-0.5,2.4-1.4c0.9-0.9,1.3-1.9,1.4-2.4v-33.4c-0.1-0.5-0.5-1.5-1.4-2.4
				C-439.6,359-440.5,358.6-441,358.5z"/>
			<path class="st1" d="M-443.1,387.4c-1.5,0-2.9,0-4.4,0c-0.1,0-0.8,0-1.3,0.6c-0.3,0.4-0.3,0.8-0.3,0.9c0,1.6,0,3.2,0,4.7
				c0,0.1,0.1,0.4,0.3,0.6c0.1,0.1,0.3,0.3,0.6,0.3c1.7,0,3.4,0,5,0c0.2-0.1,0.6-0.2,0.9-0.6c0.2-0.2,0.3-0.5,0.3-0.6
				c0-1.6,0-3.2,0-4.7c-0.1-0.2-0.2-0.6-0.6-0.9C-442.7,387.5-442.9,387.4-443.1,387.4z"/>
			<circle class="st1" cx="-457.4" cy="379" r="8.2"/>
			<path class="st1" d="M-472.7,382.9L-472.7,382.9c0,0,1.1,0,3.2,0c-0.4-1.4-0.9-4.5,0.3-7.9c1.6-4.4,6-8.8,12-8.8
				c6.1,0,10.6,4.7,11.7,8.2c0.6,2.2,0.6,4.4,0.6,4.4c0,0,0,0.7-0.3,4.1c1.2,0,2.3,0,3.5,0c0-0.1,0-0.2,0-0.3c0,0,0-17.3,0-17.3
				c-0.1-0.3-0.2-0.8-0.6-1.3c0,0,0,0,0,0c-0.3-0.3-0.9-0.6-0.9-0.6c-18-0.2-27.8-0.3-27.8-0.3l0,0c0,0-0.9,0.4-1.3,0.9
				c-0.4,0.6-0.3,3-0.3,2.2l0,0C-472.7,366.2-472.7,382.9-472.7,382.9z"/>
		</g>
		<line class="st4" x1="-417.5" y1="398.5" x2="-417.5" y2="358"/>
		<rect x="-268" y="76.5" class="st0" width="551" height="63"/>
		<rect x="-268" y="-9.5" class="st0" width="551" height="63"/>
		<rect x="-312" y="-381.5" class="st1" width="639" height="133"/>
		<rect x="-268" y="-95.5" class="st5" width="551" height="63"/>
		<rect x="-189" y="-181.5" class="st7" width="394" height="49"/>
		<text transform="matrix(1 0 0 -1 -54.7373 -145.6216)" style="font-family:'FuturaPT-Book'; font-size:18px;">Forgot password?</text>
		<rect x="-189" y="-129.5" class="st7" width="394" height="76"/>
		<text transform="matrix(1 0 0 -1 -17.6694 -68.0796)" class="st6" style="font-family:'FuturaPT-Demi'; font-size:20px;">Log in</text>
		<rect x="-179" y="-350.5" class="st7" width="394" height="42"/>
		<text transform="matrix(1 0 0 -1 -95.1445 -321.6216)"><tspan x="0" y="0" style="font-family:'FuturaPT-Book'; font-size:18px;">Don’t have an account? </tspan><tspan x="170" y="0" class="st5" style="font-family:'FuturaPT-Book'; font-size:18px;">Sign Up</tspan></text>
		<g>
			<g id="JRxRvb.tif_57_">

					<image style="overflow:visible;" width="1132" height="322" id="Layer_0_57_" xlink:href="CF364A7245B3891E.png"  transform="matrix(0.2565 0 0 -0.2565 -134 237.5)">
				</image>
			</g>
			<path class="st2" d="M-111.5,192.8c0.2,0,0-0.7,0.4-2.3c0.3-1.1,0.6-2.2,1.5-3c0.3-0.2,0.8-0.7,1.5-0.8c1.6-0.2,2.9,1.5,3.8,2.6
				c1.1,1.4,2.7,3.5,2.6,5.6c0,0.3-0.1,1.2,0.4,1.5c0.3,0.2,0.8,0.2,1.1,0c0.2-0.2,0.3-0.5,0-2.6c-0.2-1.1-0.2-1.6-0.4-2.3
				c-0.1-0.3-0.3-1.1-0.8-2.3c-0.4-0.9-1.1-2.6-2.6-4.5c-0.7-0.9-1.3-1.6-2.3-2.3c-0.7-0.5-2-1.4-3.8-1.5c-0.6,0-2.4-0.2-3.4,0.8
				C-116.1,184.3-112.1,192.9-111.5,192.8z"/>
		</g>
		<rect x="-800" y="-449.5" class="st7" width="1600" height="899"/>
	</g>
	<rect x="-245.8" y="82.6" class="st7" width="513.9" height="34.9"/>
	<text transform="matrix(1 0 0 -1 -245.7832 104.4009)" class="st8" style="font-family:'FuturaPT-Book'; font-size:18px;">instagr8</text>
	<rect x="-245.8" y="-1.4" class="st7" width="513.9" height="34.9"/>
	<text transform="matrix(1 0 0 -1 -245.7832 20.4009)" class="st8" style="font-family:'FuturaPT-Book'; font-size:18px;">***</text>
</symbol>
<symbol  id="_x31_5" viewBox="-800 -449.5 1600 899">
	<g>
		<rect x="-513" y="-449.5" class="st0" width="1021" height="776"/>
		<rect x="-312" y="-210.5" class="st1" width="639" height="478"/>
		<rect x="-513" y="326.5" class="st1" width="1021" height="123"/>
		<g>
			<g id="JRxRvb.tif_60_">

					<image style="overflow:visible;" width="1132" height="322" id="Layer_0_60_" xlink:href="CF364A7245B3891C.png"  transform="matrix(0.1758 0 0 -0.1758 -400 415.5)">
				</image>
			</g>
			<path class="st2" d="M-384.6,384.9c0.1,0,0-0.5,0.3-1.5c0.2-0.8,0.4-1.5,1-2.1c0.2-0.2,0.5-0.5,1-0.5c1.1-0.1,2,1,2.6,1.8
				c0.8,1,1.9,2.4,1.8,3.9c0,0.2-0.1,0.8,0.3,1c0.2,0.2,0.6,0.2,0.8,0c0.2-0.1,0.2-0.3,0-1.8c-0.1-0.8-0.2-1.1-0.3-1.5
				c0-0.2-0.2-0.8-0.5-1.5c-0.2-0.6-0.7-1.8-1.8-3.1c-0.5-0.6-0.9-1.1-1.5-1.5c-0.5-0.4-1.3-1-2.6-1c-0.4,0-1.6-0.1-2.3,0.5
				C-387.7,379.1-385,385-384.6,384.9z"/>
		</g>
		<g>
			<path class="st3" d="M-441,358.5h-32.8c-0.5,0.1-1.5,0.5-2.4,1.4c-0.9,0.9-1.3,1.9-1.4,2.4v33.4c0.1,0.5,0.5,1.5,1.4,2.4
				c0.9,0.9,1.9,1.3,2.4,1.4h32.8c0.5-0.1,1.5-0.5,2.4-1.4c0.9-0.9,1.3-1.9,1.4-2.4v-33.4c-0.1-0.5-0.5-1.5-1.4-2.4
				C-439.6,359-440.5,358.6-441,358.5z"/>
			<path class="st1" d="M-443.1,387.4c-1.5,0-2.9,0-4.4,0c-0.1,0-0.8,0-1.3,0.6c-0.3,0.4-0.3,0.8-0.3,0.9c0,1.6,0,3.2,0,4.7
				c0,0.1,0.1,0.4,0.3,0.6c0.1,0.1,0.3,0.3,0.6,0.3c1.7,0,3.4,0,5,0c0.2-0.1,0.6-0.2,0.9-0.6c0.2-0.2,0.3-0.5,0.3-0.6
				c0-1.6,0-3.2,0-4.7c-0.1-0.2-0.2-0.6-0.6-0.9C-442.7,387.5-442.9,387.4-443.1,387.4z"/>
			<circle class="st1" cx="-457.4" cy="379" r="8.2"/>
			<path class="st1" d="M-472.7,382.9L-472.7,382.9c0,0,1.1,0,3.2,0c-0.4-1.4-0.9-4.5,0.3-7.9c1.6-4.4,6-8.8,12-8.8
				c6.1,0,10.6,4.7,11.7,8.2c0.6,2.2,0.6,4.4,0.6,4.4c0,0,0,0.7-0.3,4.1c1.2,0,2.3,0,3.5,0c0-0.1,0-0.2,0-0.3c0,0,0-17.3,0-17.3
				c-0.1-0.3-0.2-0.8-0.6-1.3c0,0,0,0,0,0c-0.3-0.3-0.9-0.6-0.9-0.6c-18-0.2-27.8-0.3-27.8-0.3l0,0c0,0-0.9,0.4-1.3,0.9
				c-0.4,0.6-0.3,3-0.3,2.2l0,0C-472.7,366.2-472.7,382.9-472.7,382.9z"/>
		</g>
		<line class="st4" x1="-417.5" y1="398.5" x2="-417.5" y2="358"/>
		<rect x="-268" y="76.5" class="st0" width="551" height="63"/>
		<rect x="-268" y="-9.5" class="st0" width="551" height="63"/>
		<rect x="-312" y="-381.5" class="st1" width="639" height="133"/>
		<rect x="-268" y="-95.5" class="st5" width="551" height="63"/>
		<rect x="-189" y="-181.5" class="st7" width="394" height="49"/>
		<text transform="matrix(1 0 0 -1 -54.7373 -145.6216)" style="font-family:'FuturaPT-Book'; font-size:18px;">Forgot password?</text>
		<rect x="-189" y="-129.5" class="st7" width="394" height="76"/>
		<text transform="matrix(1 0 0 -1 -17.6694 -68.0796)" class="st6" style="font-family:'FuturaPT-Demi'; font-size:20px;">Log in</text>
		<rect x="-179" y="-350.5" class="st7" width="394" height="42"/>
		<text transform="matrix(1 0 0 -1 -95.1445 -321.6216)"><tspan x="0" y="0" style="font-family:'FuturaPT-Book'; font-size:18px;">Don’t have an account? </tspan><tspan x="170" y="0" class="st5" style="font-family:'FuturaPT-Book'; font-size:18px;">Sign Up</tspan></text>
		<g>
			<g id="JRxRvb.tif_59_">

					<image style="overflow:visible;" width="1132" height="322" id="Layer_0_59_" xlink:href="CF364A7245B3891B.png"  transform="matrix(0.2565 0 0 -0.2565 -134 237.5)">
				</image>
			</g>
			<path class="st2" d="M-111.5,192.8c0.2,0,0-0.7,0.4-2.3c0.3-1.1,0.6-2.2,1.5-3c0.3-0.2,0.8-0.7,1.5-0.8c1.6-0.2,2.9,1.5,3.8,2.6
				c1.1,1.4,2.7,3.5,2.6,5.6c0,0.3-0.1,1.2,0.4,1.5c0.3,0.2,0.8,0.2,1.1,0c0.2-0.2,0.3-0.5,0-2.6c-0.2-1.1-0.2-1.6-0.4-2.3
				c-0.1-0.3-0.3-1.1-0.8-2.3c-0.4-0.9-1.1-2.6-2.6-4.5c-0.7-0.9-1.3-1.6-2.3-2.3c-0.7-0.5-2-1.4-3.8-1.5c-0.6,0-2.4-0.2-3.4,0.8
				C-116.1,184.3-112.1,192.9-111.5,192.8z"/>
		</g>
		<rect x="-800" y="-449.5" class="st7" width="1600" height="899"/>
	</g>
	<rect x="-245.8" y="82.6" class="st7" width="513.9" height="34.9"/>
	<text transform="matrix(1 0 0 -1 -245.7832 104.4009)" class="st8" style="font-family:'FuturaPT-Book'; font-size:18px;">instagr8</text>
	<rect x="-245.8" y="-1.4" class="st7" width="513.9" height="34.9"/>
	<text transform="matrix(1 0 0 -1 -245.7832 20.4009)" class="st8" style="font-family:'FuturaPT-Book'; font-size:18px;">****</text>
</symbol>
<symbol  id="_x32_" viewBox="-800 -449.5 1600 899">
	<g>
		<rect x="-513" y="-449.5" class="st0" width="1021" height="776"/>
		<rect x="-312" y="-210.5" class="st1" width="639" height="478"/>
		<rect x="-513" y="326.5" class="st1" width="1021" height="123"/>
		<g>
			<g id="JRxRvb.tif_34_">

					<image style="overflow:visible;" width="1132" height="322" id="Layer_0_34_" xlink:href="CF364A7245B38905.png"  transform="matrix(0.1758 0 0 -0.1758 -400 415.5)">
				</image>
			</g>
			<path class="st2" d="M-384.6,384.9c0.1,0,0-0.5,0.3-1.5c0.2-0.8,0.4-1.5,1-2.1c0.2-0.2,0.5-0.5,1-0.5c1.1-0.1,2,1,2.6,1.8
				c0.8,1,1.9,2.4,1.8,3.9c0,0.2-0.1,0.8,0.3,1c0.2,0.2,0.6,0.2,0.8,0c0.2-0.1,0.2-0.3,0-1.8c-0.1-0.8-0.2-1.1-0.3-1.5
				c0-0.2-0.2-0.8-0.5-1.5c-0.2-0.6-0.7-1.8-1.8-3.1c-0.5-0.6-0.9-1.1-1.5-1.5c-0.5-0.4-1.3-1-2.6-1c-0.4,0-1.6-0.1-2.3,0.5
				C-387.7,379.1-385,385-384.6,384.9z"/>
		</g>
		<g>
			<path class="st3" d="M-441,358.5h-32.8c-0.5,0.1-1.5,0.5-2.4,1.4c-0.9,0.9-1.3,1.9-1.4,2.4v33.4c0.1,0.5,0.5,1.5,1.4,2.4
				c0.9,0.9,1.9,1.3,2.4,1.4h32.8c0.5-0.1,1.5-0.5,2.4-1.4c0.9-0.9,1.3-1.9,1.4-2.4v-33.4c-0.1-0.5-0.5-1.5-1.4-2.4
				C-439.6,359-440.5,358.6-441,358.5z"/>
			<path class="st1" d="M-443.1,387.4c-1.5,0-2.9,0-4.4,0c-0.1,0-0.8,0-1.3,0.6c-0.3,0.4-0.3,0.8-0.3,0.9c0,1.6,0,3.2,0,4.7
				c0,0.1,0.1,0.4,0.3,0.6c0.1,0.1,0.3,0.3,0.6,0.3c1.7,0,3.4,0,5,0c0.2-0.1,0.6-0.2,0.9-0.6c0.2-0.2,0.3-0.5,0.3-0.6
				c0-1.6,0-3.2,0-4.7c-0.1-0.2-0.2-0.6-0.6-0.9C-442.7,387.5-442.9,387.4-443.1,387.4z"/>
			<circle class="st1" cx="-457.4" cy="379" r="8.2"/>
			<path class="st1" d="M-472.7,382.9L-472.7,382.9c0,0,1.1,0,3.2,0c-0.4-1.4-0.9-4.5,0.3-7.9c1.6-4.4,6-8.8,12-8.8
				c6.1,0,10.6,4.7,11.7,8.2c0.6,2.2,0.6,4.4,0.6,4.4c0,0,0,0.7-0.3,4.1c1.2,0,2.3,0,3.5,0c0-0.1,0-0.2,0-0.3c0,0,0-17.3,0-17.3
				c-0.1-0.3-0.2-0.8-0.6-1.3c0,0,0,0,0,0c-0.3-0.3-0.9-0.6-0.9-0.6c-18-0.2-27.8-0.3-27.8-0.3l0,0c0,0-0.9,0.4-1.3,0.9
				c-0.4,0.6-0.3,3-0.3,2.2l0,0C-472.7,366.2-472.7,382.9-472.7,382.9z"/>
		</g>
		<line class="st4" x1="-417.5" y1="398.5" x2="-417.5" y2="358"/>
		<rect x="-268" y="76.5" class="st0" width="551" height="63"/>
		<rect x="-268" y="-9.5" class="st0" width="551" height="63"/>
		<rect x="-312" y="-381.5" class="st1" width="639" height="133"/>
		<rect x="-268" y="-95.5" class="st5" width="551" height="63"/>
		<rect x="-189" y="-181.5" class="st7" width="394" height="49"/>
		<text transform="matrix(1 0 0 -1 -54.7373 -145.6216)" style="font-family:'FuturaPT-Book'; font-size:18px;">Forgot password?</text>
		<rect x="-189" y="-129.5" class="st7" width="394" height="76"/>
		<text transform="matrix(1 0 0 -1 -17.6694 -68.0796)" class="st6" style="font-family:'FuturaPT-Demi'; font-size:20px;">Log in</text>
		<rect x="-179" y="-350.5" class="st7" width="394" height="42"/>
		<text transform="matrix(1 0 0 -1 -95.1445 -321.6216)"><tspan x="0" y="0" style="font-family:'FuturaPT-Book'; font-size:18px;">Don’t have an account? </tspan><tspan x="170" y="0" class="st5" style="font-family:'FuturaPT-Book'; font-size:18px;">Sign Up</tspan></text>
		<g>
			<g id="JRxRvb.tif_33_">

					<image style="overflow:visible;" width="1132" height="322" id="Layer_0_33_" xlink:href="CF364A7245B38906.png"  transform="matrix(0.2565 0 0 -0.2565 -134 237.5)">
				</image>
			</g>
			<path class="st2" d="M-111.5,192.8c0.2,0,0-0.7,0.4-2.3c0.3-1.1,0.6-2.2,1.5-3c0.3-0.2,0.8-0.7,1.5-0.8c1.6-0.2,2.9,1.5,3.8,2.6
				c1.1,1.4,2.7,3.5,2.6,5.6c0,0.3-0.1,1.2,0.4,1.5c0.3,0.2,0.8,0.2,1.1,0c0.2-0.2,0.3-0.5,0-2.6c-0.2-1.1-0.2-1.6-0.4-2.3
				c-0.1-0.3-0.3-1.1-0.8-2.3c-0.4-0.9-1.1-2.6-2.6-4.5c-0.7-0.9-1.3-1.6-2.3-2.3c-0.7-0.5-2-1.4-3.8-1.5c-0.6,0-2.4-0.2-3.4,0.8
				C-116.1,184.3-112.1,192.9-111.5,192.8z"/>
		</g>
		<rect x="-800" y="-449.5" class="st7" width="1600" height="899"/>
	</g>
	<rect x="-245.8" y="82.6" class="st7" width="513.9" height="34.9"/>
	<rect x="-245.8" y="-1.4" class="st7" width="513.9" height="34.9"/>
	<text transform="matrix(1 0 0 -1 -245.7832 20.4009)" class="st8" style="font-family:'FuturaPT-Book'; font-size:18px;">Password</text>
</symbol>
<symbol  id="_x33_" viewBox="-800 -449.5 1600 899">
	<g>
		<rect x="-513" y="-449.5" class="st0" width="1021" height="776"/>
		<rect x="-312" y="-210.5" class="st1" width="639" height="478"/>
		<rect x="-513" y="326.5" class="st1" width="1021" height="123"/>
		<g>
			<g id="JRxRvb.tif_36_">

					<image style="overflow:visible;" width="1132" height="322" id="Layer_0_36_" xlink:href="CF364A7245B38904.png"  transform="matrix(0.1758 0 0 -0.1758 -400 415.5)">
				</image>
			</g>
			<path class="st2" d="M-384.6,384.9c0.1,0,0-0.5,0.3-1.5c0.2-0.8,0.4-1.5,1-2.1c0.2-0.2,0.5-0.5,1-0.5c1.1-0.1,2,1,2.6,1.8
				c0.8,1,1.9,2.4,1.8,3.9c0,0.2-0.1,0.8,0.3,1c0.2,0.2,0.6,0.2,0.8,0c0.2-0.1,0.2-0.3,0-1.8c-0.1-0.8-0.2-1.1-0.3-1.5
				c0-0.2-0.2-0.8-0.5-1.5c-0.2-0.6-0.7-1.8-1.8-3.1c-0.5-0.6-0.9-1.1-1.5-1.5c-0.5-0.4-1.3-1-2.6-1c-0.4,0-1.6-0.1-2.3,0.5
				C-387.7,379.1-385,385-384.6,384.9z"/>
		</g>
		<g>
			<path class="st3" d="M-441,358.5h-32.8c-0.5,0.1-1.5,0.5-2.4,1.4c-0.9,0.9-1.3,1.9-1.4,2.4v33.4c0.1,0.5,0.5,1.5,1.4,2.4
				c0.9,0.9,1.9,1.3,2.4,1.4h32.8c0.5-0.1,1.5-0.5,2.4-1.4c0.9-0.9,1.3-1.9,1.4-2.4v-33.4c-0.1-0.5-0.5-1.5-1.4-2.4
				C-439.6,359-440.5,358.6-441,358.5z"/>
			<path class="st1" d="M-443.1,387.4c-1.5,0-2.9,0-4.4,0c-0.1,0-0.8,0-1.3,0.6c-0.3,0.4-0.3,0.8-0.3,0.9c0,1.6,0,3.2,0,4.7
				c0,0.1,0.1,0.4,0.3,0.6c0.1,0.1,0.3,0.3,0.6,0.3c1.7,0,3.4,0,5,0c0.2-0.1,0.6-0.2,0.9-0.6c0.2-0.2,0.3-0.5,0.3-0.6
				c0-1.6,0-3.2,0-4.7c-0.1-0.2-0.2-0.6-0.6-0.9C-442.7,387.5-442.9,387.4-443.1,387.4z"/>
			<circle class="st1" cx="-457.4" cy="379" r="8.2"/>
			<path class="st1" d="M-472.7,382.9L-472.7,382.9c0,0,1.1,0,3.2,0c-0.4-1.4-0.9-4.5,0.3-7.9c1.6-4.4,6-8.8,12-8.8
				c6.1,0,10.6,4.7,11.7,8.2c0.6,2.2,0.6,4.4,0.6,4.4c0,0,0,0.7-0.3,4.1c1.2,0,2.3,0,3.5,0c0-0.1,0-0.2,0-0.3c0,0,0-17.3,0-17.3
				c-0.1-0.3-0.2-0.8-0.6-1.3c0,0,0,0,0,0c-0.3-0.3-0.9-0.6-0.9-0.6c-18-0.2-27.8-0.3-27.8-0.3l0,0c0,0-0.9,0.4-1.3,0.9
				c-0.4,0.6-0.3,3-0.3,2.2l0,0C-472.7,366.2-472.7,382.9-472.7,382.9z"/>
		</g>
		<line class="st4" x1="-417.5" y1="398.5" x2="-417.5" y2="358"/>
		<rect x="-268" y="76.5" class="st0" width="551" height="63"/>
		<rect x="-268" y="-9.5" class="st0" width="551" height="63"/>
		<rect x="-312" y="-381.5" class="st1" width="639" height="133"/>
		<rect x="-268" y="-95.5" class="st5" width="551" height="63"/>
		<rect x="-189" y="-181.5" class="st7" width="394" height="49"/>
		<text transform="matrix(1 0 0 -1 -54.7373 -145.6216)" style="font-family:'FuturaPT-Book'; font-size:18px;">Forgot password?</text>
		<rect x="-189" y="-129.5" class="st7" width="394" height="76"/>
		<text transform="matrix(1 0 0 -1 -17.6694 -68.0796)" class="st6" style="font-family:'FuturaPT-Demi'; font-size:20px;">Log in</text>
		<rect x="-179" y="-350.5" class="st7" width="394" height="42"/>
		<text transform="matrix(1 0 0 -1 -95.1445 -321.6216)"><tspan x="0" y="0" style="font-family:'FuturaPT-Book'; font-size:18px;">Don’t have an account? </tspan><tspan x="170" y="0" class="st5" style="font-family:'FuturaPT-Book'; font-size:18px;">Sign Up</tspan></text>
		<g>
			<g id="JRxRvb.tif_35_">

					<image style="overflow:visible;" width="1132" height="322" id="Layer_0_35_" xlink:href="CF364A7245B3890A.png"  transform="matrix(0.2565 0 0 -0.2565 -134 237.5)">
				</image>
			</g>
			<path class="st2" d="M-111.5,192.8c0.2,0,0-0.7,0.4-2.3c0.3-1.1,0.6-2.2,1.5-3c0.3-0.2,0.8-0.7,1.5-0.8c1.6-0.2,2.9,1.5,3.8,2.6
				c1.1,1.4,2.7,3.5,2.6,5.6c0,0.3-0.1,1.2,0.4,1.5c0.3,0.2,0.8,0.2,1.1,0c0.2-0.2,0.3-0.5,0-2.6c-0.2-1.1-0.2-1.6-0.4-2.3
				c-0.1-0.3-0.3-1.1-0.8-2.3c-0.4-0.9-1.1-2.6-2.6-4.5c-0.7-0.9-1.3-1.6-2.3-2.3c-0.7-0.5-2-1.4-3.8-1.5c-0.6,0-2.4-0.2-3.4,0.8
				C-116.1,184.3-112.1,192.9-111.5,192.8z"/>
		</g>
		<rect x="-800" y="-449.5" class="st7" width="1600" height="899"/>
	</g>
	<rect x="-245.8" y="82.6" class="st7" width="513.9" height="34.9"/>
	<text transform="matrix(1 0 0 -1 -245.7832 104.4009)" class="st8" style="font-family:'FuturaPT-Book'; font-size:18px;">i</text>
	<rect x="-245.8" y="-1.4" class="st7" width="513.9" height="34.9"/>
	<text transform="matrix(1 0 0 -1 -245.7832 20.4009)" class="st8" style="font-family:'FuturaPT-Book'; font-size:18px;">Password</text>
</symbol>
<symbol  id="_x34_" viewBox="-800 -449.5 1600 899">
	<g>
		<rect x="-513" y="-449.5" class="st0" width="1021" height="776"/>
		<rect x="-312" y="-210.5" class="st1" width="639" height="478"/>
		<rect x="-513" y="326.5" class="st1" width="1021" height="123"/>
		<g>
			<g id="JRxRvb.tif_38_">

					<image style="overflow:visible;" width="1132" height="322" id="Layer_0_38_" xlink:href="CF364A7245B3890D.png"  transform="matrix(0.1758 0 0 -0.1758 -400 415.5)">
				</image>
			</g>
			<path class="st2" d="M-384.6,384.9c0.1,0,0-0.5,0.3-1.5c0.2-0.8,0.4-1.5,1-2.1c0.2-0.2,0.5-0.5,1-0.5c1.1-0.1,2,1,2.6,1.8
				c0.8,1,1.9,2.4,1.8,3.9c0,0.2-0.1,0.8,0.3,1c0.2,0.2,0.6,0.2,0.8,0c0.2-0.1,0.2-0.3,0-1.8c-0.1-0.8-0.2-1.1-0.3-1.5
				c0-0.2-0.2-0.8-0.5-1.5c-0.2-0.6-0.7-1.8-1.8-3.1c-0.5-0.6-0.9-1.1-1.5-1.5c-0.5-0.4-1.3-1-2.6-1c-0.4,0-1.6-0.1-2.3,0.5
				C-387.7,379.1-385,385-384.6,384.9z"/>
		</g>
		<g>
			<path class="st3" d="M-441,358.5h-32.8c-0.5,0.1-1.5,0.5-2.4,1.4c-0.9,0.9-1.3,1.9-1.4,2.4v33.4c0.1,0.5,0.5,1.5,1.4,2.4
				c0.9,0.9,1.9,1.3,2.4,1.4h32.8c0.5-0.1,1.5-0.5,2.4-1.4c0.9-0.9,1.3-1.9,1.4-2.4v-33.4c-0.1-0.5-0.5-1.5-1.4-2.4
				C-439.6,359-440.5,358.6-441,358.5z"/>
			<path class="st1" d="M-443.1,387.4c-1.5,0-2.9,0-4.4,0c-0.1,0-0.8,0-1.3,0.6c-0.3,0.4-0.3,0.8-0.3,0.9c0,1.6,0,3.2,0,4.7
				c0,0.1,0.1,0.4,0.3,0.6c0.1,0.1,0.3,0.3,0.6,0.3c1.7,0,3.4,0,5,0c0.2-0.1,0.6-0.2,0.9-0.6c0.2-0.2,0.3-0.5,0.3-0.6
				c0-1.6,0-3.2,0-4.7c-0.1-0.2-0.2-0.6-0.6-0.9C-442.7,387.5-442.9,387.4-443.1,387.4z"/>
			<circle class="st1" cx="-457.4" cy="379" r="8.2"/>
			<path class="st1" d="M-472.7,382.9L-472.7,382.9c0,0,1.1,0,3.2,0c-0.4-1.4-0.9-4.5,0.3-7.9c1.6-4.4,6-8.8,12-8.8
				c6.1,0,10.6,4.7,11.7,8.2c0.6,2.2,0.6,4.4,0.6,4.4c0,0,0,0.7-0.3,4.1c1.2,0,2.3,0,3.5,0c0-0.1,0-0.2,0-0.3c0,0,0-17.3,0-17.3
				c-0.1-0.3-0.2-0.8-0.6-1.3c0,0,0,0,0,0c-0.3-0.3-0.9-0.6-0.9-0.6c-18-0.2-27.8-0.3-27.8-0.3l0,0c0,0-0.9,0.4-1.3,0.9
				c-0.4,0.6-0.3,3-0.3,2.2l0,0C-472.7,366.2-472.7,382.9-472.7,382.9z"/>
		</g>
		<line class="st4" x1="-417.5" y1="398.5" x2="-417.5" y2="358"/>
		<rect x="-268" y="76.5" class="st0" width="551" height="63"/>
		<rect x="-268" y="-9.5" class="st0" width="551" height="63"/>
		<rect x="-312" y="-381.5" class="st1" width="639" height="133"/>
		<rect x="-268" y="-95.5" class="st5" width="551" height="63"/>
		<rect x="-189" y="-181.5" class="st7" width="394" height="49"/>
		<text transform="matrix(1 0 0 -1 -54.7373 -145.6216)" style="font-family:'FuturaPT-Book'; font-size:18px;">Forgot password?</text>
		<rect x="-189" y="-129.5" class="st7" width="394" height="76"/>
		<text transform="matrix(1 0 0 -1 -17.6694 -68.0796)" class="st6" style="font-family:'FuturaPT-Demi'; font-size:20px;">Log in</text>
		<rect x="-179" y="-350.5" class="st7" width="394" height="42"/>
		<text transform="matrix(1 0 0 -1 -95.1445 -321.6216)"><tspan x="0" y="0" style="font-family:'FuturaPT-Book'; font-size:18px;">Don’t have an account? </tspan><tspan x="170" y="0" class="st5" style="font-family:'FuturaPT-Book'; font-size:18px;">Sign Up</tspan></text>
		<g>
			<g id="JRxRvb.tif_37_">

					<image style="overflow:visible;" width="1132" height="322" id="Layer_0_37_" xlink:href="CF364A7245B38921.png"  transform="matrix(0.2565 0 0 -0.2565 -134 237.5)">
				</image>
			</g>
			<path class="st2" d="M-111.5,192.8c0.2,0,0-0.7,0.4-2.3c0.3-1.1,0.6-2.2,1.5-3c0.3-0.2,0.8-0.7,1.5-0.8c1.6-0.2,2.9,1.5,3.8,2.6
				c1.1,1.4,2.7,3.5,2.6,5.6c0,0.3-0.1,1.2,0.4,1.5c0.3,0.2,0.8,0.2,1.1,0c0.2-0.2,0.3-0.5,0-2.6c-0.2-1.1-0.2-1.6-0.4-2.3
				c-0.1-0.3-0.3-1.1-0.8-2.3c-0.4-0.9-1.1-2.6-2.6-4.5c-0.7-0.9-1.3-1.6-2.3-2.3c-0.7-0.5-2-1.4-3.8-1.5c-0.6,0-2.4-0.2-3.4,0.8
				C-116.1,184.3-112.1,192.9-111.5,192.8z"/>
		</g>
		<rect x="-800" y="-449.5" class="st7" width="1600" height="899"/>
	</g>
	<rect x="-245.8" y="82.6" class="st7" width="513.9" height="34.9"/>
	<text transform="matrix(1 0 0 -1 -245.7832 104.4009)" class="st8" style="font-family:'FuturaPT-Book'; font-size:18px;">in</text>
	<rect x="-245.8" y="-1.4" class="st7" width="513.9" height="34.9"/>
	<text transform="matrix(1 0 0 -1 -245.7832 20.4009)" class="st8" style="font-family:'FuturaPT-Book'; font-size:18px;">Password</text>
</symbol>
<symbol  id="_x35_" viewBox="-800 -449.5 1600 899">
	<g>
		<rect x="-513" y="-449.5" class="st0" width="1021" height="776"/>
		<rect x="-312" y="-210.5" class="st1" width="639" height="478"/>
		<rect x="-513" y="326.5" class="st1" width="1021" height="123"/>
		<g>
			<g id="JRxRvb.tif_40_">

					<image style="overflow:visible;" width="1132" height="322" id="Layer_0_40_" xlink:href="CF364A7245B38923.png"  transform="matrix(0.1758 0 0 -0.1758 -400 415.5)">
				</image>
			</g>
			<path class="st2" d="M-384.6,384.9c0.1,0,0-0.5,0.3-1.5c0.2-0.8,0.4-1.5,1-2.1c0.2-0.2,0.5-0.5,1-0.5c1.1-0.1,2,1,2.6,1.8
				c0.8,1,1.9,2.4,1.8,3.9c0,0.2-0.1,0.8,0.3,1c0.2,0.2,0.6,0.2,0.8,0c0.2-0.1,0.2-0.3,0-1.8c-0.1-0.8-0.2-1.1-0.3-1.5
				c0-0.2-0.2-0.8-0.5-1.5c-0.2-0.6-0.7-1.8-1.8-3.1c-0.5-0.6-0.9-1.1-1.5-1.5c-0.5-0.4-1.3-1-2.6-1c-0.4,0-1.6-0.1-2.3,0.5
				C-387.7,379.1-385,385-384.6,384.9z"/>
		</g>
		<g>
			<path class="st3" d="M-441,358.5h-32.8c-0.5,0.1-1.5,0.5-2.4,1.4c-0.9,0.9-1.3,1.9-1.4,2.4v33.4c0.1,0.5,0.5,1.5,1.4,2.4
				c0.9,0.9,1.9,1.3,2.4,1.4h32.8c0.5-0.1,1.5-0.5,2.4-1.4c0.9-0.9,1.3-1.9,1.4-2.4v-33.4c-0.1-0.5-0.5-1.5-1.4-2.4
				C-439.6,359-440.5,358.6-441,358.5z"/>
			<path class="st1" d="M-443.1,387.4c-1.5,0-2.9,0-4.4,0c-0.1,0-0.8,0-1.3,0.6c-0.3,0.4-0.3,0.8-0.3,0.9c0,1.6,0,3.2,0,4.7
				c0,0.1,0.1,0.4,0.3,0.6c0.1,0.1,0.3,0.3,0.6,0.3c1.7,0,3.4,0,5,0c0.2-0.1,0.6-0.2,0.9-0.6c0.2-0.2,0.3-0.5,0.3-0.6
				c0-1.6,0-3.2,0-4.7c-0.1-0.2-0.2-0.6-0.6-0.9C-442.7,387.5-442.9,387.4-443.1,387.4z"/>
			<circle class="st1" cx="-457.4" cy="379" r="8.2"/>
			<path class="st1" d="M-472.7,382.9L-472.7,382.9c0,0,1.1,0,3.2,0c-0.4-1.4-0.9-4.5,0.3-7.9c1.6-4.4,6-8.8,12-8.8
				c6.1,0,10.6,4.7,11.7,8.2c0.6,2.2,0.6,4.4,0.6,4.4c0,0,0,0.7-0.3,4.1c1.2,0,2.3,0,3.5,0c0-0.1,0-0.2,0-0.3c0,0,0-17.3,0-17.3
				c-0.1-0.3-0.2-0.8-0.6-1.3c0,0,0,0,0,0c-0.3-0.3-0.9-0.6-0.9-0.6c-18-0.2-27.8-0.3-27.8-0.3l0,0c0,0-0.9,0.4-1.3,0.9
				c-0.4,0.6-0.3,3-0.3,2.2l0,0C-472.7,366.2-472.7,382.9-472.7,382.9z"/>
		</g>
		<line class="st4" x1="-417.5" y1="398.5" x2="-417.5" y2="358"/>
		<rect x="-268" y="76.5" class="st0" width="551" height="63"/>
		<rect x="-268" y="-9.5" class="st0" width="551" height="63"/>
		<rect x="-312" y="-381.5" class="st1" width="639" height="133"/>
		<rect x="-268" y="-95.5" class="st5" width="551" height="63"/>
		<rect x="-189" y="-181.5" class="st7" width="394" height="49"/>
		<text transform="matrix(1 0 0 -1 -54.7373 -145.6216)" style="font-family:'FuturaPT-Book'; font-size:18px;">Forgot password?</text>
		<rect x="-189" y="-129.5" class="st7" width="394" height="76"/>
		<text transform="matrix(1 0 0 -1 -17.6694 -68.0796)" class="st6" style="font-family:'FuturaPT-Demi'; font-size:20px;">Log in</text>
		<rect x="-179" y="-350.5" class="st7" width="394" height="42"/>
		<text transform="matrix(1 0 0 -1 -95.1445 -321.6216)"><tspan x="0" y="0" style="font-family:'FuturaPT-Book'; font-size:18px;">Don’t have an account? </tspan><tspan x="170" y="0" class="st5" style="font-family:'FuturaPT-Book'; font-size:18px;">Sign Up</tspan></text>
		<g>
			<g id="JRxRvb.tif_39_">

					<image style="overflow:visible;" width="1132" height="322" id="Layer_0_39_" xlink:href="CF364A7245B38920.png"  transform="matrix(0.2565 0 0 -0.2565 -134 237.5)">
				</image>
			</g>
			<path class="st2" d="M-111.5,192.8c0.2,0,0-0.7,0.4-2.3c0.3-1.1,0.6-2.2,1.5-3c0.3-0.2,0.8-0.7,1.5-0.8c1.6-0.2,2.9,1.5,3.8,2.6
				c1.1,1.4,2.7,3.5,2.6,5.6c0,0.3-0.1,1.2,0.4,1.5c0.3,0.2,0.8,0.2,1.1,0c0.2-0.2,0.3-0.5,0-2.6c-0.2-1.1-0.2-1.6-0.4-2.3
				c-0.1-0.3-0.3-1.1-0.8-2.3c-0.4-0.9-1.1-2.6-2.6-4.5c-0.7-0.9-1.3-1.6-2.3-2.3c-0.7-0.5-2-1.4-3.8-1.5c-0.6,0-2.4-0.2-3.4,0.8
				C-116.1,184.3-112.1,192.9-111.5,192.8z"/>
		</g>
		<rect x="-800" y="-449.5" class="st7" width="1600" height="899"/>
	</g>
	<rect x="-245.8" y="82.6" class="st7" width="513.9" height="34.9"/>
	<text transform="matrix(1 0 0 -1 -245.7832 104.4009)" class="st8" style="font-family:'FuturaPT-Book'; font-size:18px;">ins</text>
	<rect x="-245.8" y="-1.4" class="st7" width="513.9" height="34.9"/>
	<text transform="matrix(1 0 0 -1 -245.7832 20.4009)" class="st8" style="font-family:'FuturaPT-Book'; font-size:18px;">Password</text>
</symbol>
<symbol  id="_x36_" viewBox="-800 -449.5 1600 899">
	<g>
		<rect x="-513" y="-449.5" class="st0" width="1021" height="776"/>
		<rect x="-312" y="-210.5" class="st1" width="639" height="478"/>
		<rect x="-513" y="326.5" class="st1" width="1021" height="123"/>
		<g>
			<g id="JRxRvb.tif_42_">

					<image style="overflow:visible;" width="1132" height="322" id="Layer_0_42_" xlink:href="CF364A7245B3892F.png"  transform="matrix(0.1758 0 0 -0.1758 -400 415.5)">
				</image>
			</g>
			<path class="st2" d="M-384.6,384.9c0.1,0,0-0.5,0.3-1.5c0.2-0.8,0.4-1.5,1-2.1c0.2-0.2,0.5-0.5,1-0.5c1.1-0.1,2,1,2.6,1.8
				c0.8,1,1.9,2.4,1.8,3.9c0,0.2-0.1,0.8,0.3,1c0.2,0.2,0.6,0.2,0.8,0c0.2-0.1,0.2-0.3,0-1.8c-0.1-0.8-0.2-1.1-0.3-1.5
				c0-0.2-0.2-0.8-0.5-1.5c-0.2-0.6-0.7-1.8-1.8-3.1c-0.5-0.6-0.9-1.1-1.5-1.5c-0.5-0.4-1.3-1-2.6-1c-0.4,0-1.6-0.1-2.3,0.5
				C-387.7,379.1-385,385-384.6,384.9z"/>
		</g>
		<g>
			<path class="st3" d="M-441,358.5h-32.8c-0.5,0.1-1.5,0.5-2.4,1.4c-0.9,0.9-1.3,1.9-1.4,2.4v33.4c0.1,0.5,0.5,1.5,1.4,2.4
				c0.9,0.9,1.9,1.3,2.4,1.4h32.8c0.5-0.1,1.5-0.5,2.4-1.4c0.9-0.9,1.3-1.9,1.4-2.4v-33.4c-0.1-0.5-0.5-1.5-1.4-2.4
				C-439.6,359-440.5,358.6-441,358.5z"/>
			<path class="st1" d="M-443.1,387.4c-1.5,0-2.9,0-4.4,0c-0.1,0-0.8,0-1.3,0.6c-0.3,0.4-0.3,0.8-0.3,0.9c0,1.6,0,3.2,0,4.7
				c0,0.1,0.1,0.4,0.3,0.6c0.1,0.1,0.3,0.3,0.6,0.3c1.7,0,3.4,0,5,0c0.2-0.1,0.6-0.2,0.9-0.6c0.2-0.2,0.3-0.5,0.3-0.6
				c0-1.6,0-3.2,0-4.7c-0.1-0.2-0.2-0.6-0.6-0.9C-442.7,387.5-442.9,387.4-443.1,387.4z"/>
			<circle class="st1" cx="-457.4" cy="379" r="8.2"/>
			<path class="st1" d="M-472.7,382.9L-472.7,382.9c0,0,1.1,0,3.2,0c-0.4-1.4-0.9-4.5,0.3-7.9c1.6-4.4,6-8.8,12-8.8
				c6.1,0,10.6,4.7,11.7,8.2c0.6,2.2,0.6,4.4,0.6,4.4c0,0,0,0.7-0.3,4.1c1.2,0,2.3,0,3.5,0c0-0.1,0-0.2,0-0.3c0,0,0-17.3,0-17.3
				c-0.1-0.3-0.2-0.8-0.6-1.3c0,0,0,0,0,0c-0.3-0.3-0.9-0.6-0.9-0.6c-18-0.2-27.8-0.3-27.8-0.3l0,0c0,0-0.9,0.4-1.3,0.9
				c-0.4,0.6-0.3,3-0.3,2.2l0,0C-472.7,366.2-472.7,382.9-472.7,382.9z"/>
		</g>
		<line class="st4" x1="-417.5" y1="398.5" x2="-417.5" y2="358"/>
		<rect x="-268" y="76.5" class="st0" width="551" height="63"/>
		<rect x="-268" y="-9.5" class="st0" width="551" height="63"/>
		<rect x="-312" y="-381.5" class="st1" width="639" height="133"/>
		<rect x="-268" y="-95.5" class="st5" width="551" height="63"/>
		<rect x="-189" y="-181.5" class="st7" width="394" height="49"/>
		<text transform="matrix(1 0 0 -1 -54.7373 -145.6216)" style="font-family:'FuturaPT-Book'; font-size:18px;">Forgot password?</text>
		<rect x="-189" y="-129.5" class="st7" width="394" height="76"/>
		<text transform="matrix(1 0 0 -1 -17.6694 -68.0796)" class="st6" style="font-family:'FuturaPT-Demi'; font-size:20px;">Log in</text>
		<rect x="-179" y="-350.5" class="st7" width="394" height="42"/>
		<text transform="matrix(1 0 0 -1 -95.1445 -321.6216)"><tspan x="0" y="0" style="font-family:'FuturaPT-Book'; font-size:18px;">Don’t have an account? </tspan><tspan x="170" y="0" class="st5" style="font-family:'FuturaPT-Book'; font-size:18px;">Sign Up</tspan></text>
		<g>
			<g id="JRxRvb.tif_41_">

					<image style="overflow:visible;" width="1132" height="322" id="Layer_0_41_" xlink:href="CF364A7245B38922.png"  transform="matrix(0.2565 0 0 -0.2565 -134 237.5)">
				</image>
			</g>
			<path class="st2" d="M-111.5,192.8c0.2,0,0-0.7,0.4-2.3c0.3-1.1,0.6-2.2,1.5-3c0.3-0.2,0.8-0.7,1.5-0.8c1.6-0.2,2.9,1.5,3.8,2.6
				c1.1,1.4,2.7,3.5,2.6,5.6c0,0.3-0.1,1.2,0.4,1.5c0.3,0.2,0.8,0.2,1.1,0c0.2-0.2,0.3-0.5,0-2.6c-0.2-1.1-0.2-1.6-0.4-2.3
				c-0.1-0.3-0.3-1.1-0.8-2.3c-0.4-0.9-1.1-2.6-2.6-4.5c-0.7-0.9-1.3-1.6-2.3-2.3c-0.7-0.5-2-1.4-3.8-1.5c-0.6,0-2.4-0.2-3.4,0.8
				C-116.1,184.3-112.1,192.9-111.5,192.8z"/>
		</g>
		<rect x="-800" y="-449.5" class="st7" width="1600" height="899"/>
	</g>
	<rect x="-245.8" y="82.6" class="st7" width="513.9" height="34.9"/>
	<text transform="matrix(1 0 0 -1 -245.7832 104.4009)" class="st8" style="font-family:'FuturaPT-Book'; font-size:18px;">inst</text>
	<rect x="-245.8" y="-1.4" class="st7" width="513.9" height="34.9"/>
	<text transform="matrix(1 0 0 -1 -245.7832 20.4009)" class="st8" style="font-family:'FuturaPT-Book'; font-size:18px;">Password</text>
</symbol>
<symbol  id="_x37_" viewBox="-800 -449.5 1600 899">
	<g>
		<rect x="-513" y="-449.5" class="st0" width="1021" height="776"/>
		<rect x="-312" y="-210.5" class="st1" width="639" height="478"/>
		<rect x="-513" y="326.5" class="st1" width="1021" height="123"/>
		<g>
			<g id="JRxRvb.tif_44_">

					<image style="overflow:visible;" width="1132" height="322" id="Layer_0_44_" xlink:href="CF364A7245B38926.png"  transform="matrix(0.1758 0 0 -0.1758 -400 415.5)">
				</image>
			</g>
			<path class="st2" d="M-384.6,384.9c0.1,0,0-0.5,0.3-1.5c0.2-0.8,0.4-1.5,1-2.1c0.2-0.2,0.5-0.5,1-0.5c1.1-0.1,2,1,2.6,1.8
				c0.8,1,1.9,2.4,1.8,3.9c0,0.2-0.1,0.8,0.3,1c0.2,0.2,0.6,0.2,0.8,0c0.2-0.1,0.2-0.3,0-1.8c-0.1-0.8-0.2-1.1-0.3-1.5
				c0-0.2-0.2-0.8-0.5-1.5c-0.2-0.6-0.7-1.8-1.8-3.1c-0.5-0.6-0.9-1.1-1.5-1.5c-0.5-0.4-1.3-1-2.6-1c-0.4,0-1.6-0.1-2.3,0.5
				C-387.7,379.1-385,385-384.6,384.9z"/>
		</g>
		<g>
			<path class="st3" d="M-441,358.5h-32.8c-0.5,0.1-1.5,0.5-2.4,1.4c-0.9,0.9-1.3,1.9-1.4,2.4v33.4c0.1,0.5,0.5,1.5,1.4,2.4
				c0.9,0.9,1.9,1.3,2.4,1.4h32.8c0.5-0.1,1.5-0.5,2.4-1.4c0.9-0.9,1.3-1.9,1.4-2.4v-33.4c-0.1-0.5-0.5-1.5-1.4-2.4
				C-439.6,359-440.5,358.6-441,358.5z"/>
			<path class="st1" d="M-443.1,387.4c-1.5,0-2.9,0-4.4,0c-0.1,0-0.8,0-1.3,0.6c-0.3,0.4-0.3,0.8-0.3,0.9c0,1.6,0,3.2,0,4.7
				c0,0.1,0.1,0.4,0.3,0.6c0.1,0.1,0.3,0.3,0.6,0.3c1.7,0,3.4,0,5,0c0.2-0.1,0.6-0.2,0.9-0.6c0.2-0.2,0.3-0.5,0.3-0.6
				c0-1.6,0-3.2,0-4.7c-0.1-0.2-0.2-0.6-0.6-0.9C-442.7,387.5-442.9,387.4-443.1,387.4z"/>
			<circle class="st1" cx="-457.4" cy="379" r="8.2"/>
			<path class="st1" d="M-472.7,382.9L-472.7,382.9c0,0,1.1,0,3.2,0c-0.4-1.4-0.9-4.5,0.3-7.9c1.6-4.4,6-8.8,12-8.8
				c6.1,0,10.6,4.7,11.7,8.2c0.6,2.2,0.6,4.4,0.6,4.4c0,0,0,0.7-0.3,4.1c1.2,0,2.3,0,3.5,0c0-0.1,0-0.2,0-0.3c0,0,0-17.3,0-17.3
				c-0.1-0.3-0.2-0.8-0.6-1.3c0,0,0,0,0,0c-0.3-0.3-0.9-0.6-0.9-0.6c-18-0.2-27.8-0.3-27.8-0.3l0,0c0,0-0.9,0.4-1.3,0.9
				c-0.4,0.6-0.3,3-0.3,2.2l0,0C-472.7,366.2-472.7,382.9-472.7,382.9z"/>
		</g>
		<line class="st4" x1="-417.5" y1="398.5" x2="-417.5" y2="358"/>
		<rect x="-268" y="76.5" class="st0" width="551" height="63"/>
		<rect x="-268" y="-9.5" class="st0" width="551" height="63"/>
		<rect x="-312" y="-381.5" class="st1" width="639" height="133"/>
		<rect x="-268" y="-95.5" class="st5" width="551" height="63"/>
		<rect x="-189" y="-181.5" class="st7" width="394" height="49"/>
		<text transform="matrix(1 0 0 -1 -54.7373 -145.6216)" style="font-family:'FuturaPT-Book'; font-size:18px;">Forgot password?</text>
		<rect x="-189" y="-129.5" class="st7" width="394" height="76"/>
		<text transform="matrix(1 0 0 -1 -17.6694 -68.0796)" class="st6" style="font-family:'FuturaPT-Demi'; font-size:20px;">Log in</text>
		<rect x="-179" y="-350.5" class="st7" width="394" height="42"/>
		<text transform="matrix(1 0 0 -1 -95.1445 -321.6216)"><tspan x="0" y="0" style="font-family:'FuturaPT-Book'; font-size:18px;">Don’t have an account? </tspan><tspan x="170" y="0" class="st5" style="font-family:'FuturaPT-Book'; font-size:18px;">Sign Up</tspan></text>
		<g>
			<g id="JRxRvb.tif_43_">

					<image style="overflow:visible;" width="1132" height="322" id="Layer_0_43_" xlink:href="CF364A7245B38927.png"  transform="matrix(0.2565 0 0 -0.2565 -134 237.5)">
				</image>
			</g>
			<path class="st2" d="M-111.5,192.8c0.2,0,0-0.7,0.4-2.3c0.3-1.1,0.6-2.2,1.5-3c0.3-0.2,0.8-0.7,1.5-0.8c1.6-0.2,2.9,1.5,3.8,2.6
				c1.1,1.4,2.7,3.5,2.6,5.6c0,0.3-0.1,1.2,0.4,1.5c0.3,0.2,0.8,0.2,1.1,0c0.2-0.2,0.3-0.5,0-2.6c-0.2-1.1-0.2-1.6-0.4-2.3
				c-0.1-0.3-0.3-1.1-0.8-2.3c-0.4-0.9-1.1-2.6-2.6-4.5c-0.7-0.9-1.3-1.6-2.3-2.3c-0.7-0.5-2-1.4-3.8-1.5c-0.6,0-2.4-0.2-3.4,0.8
				C-116.1,184.3-112.1,192.9-111.5,192.8z"/>
		</g>
		<rect x="-800" y="-449.5" class="st7" width="1600" height="899"/>
	</g>
	<rect x="-245.8" y="82.6" class="st7" width="513.9" height="34.9"/>
	<text transform="matrix(1 0 0 -1 -245.7832 104.4009)" class="st8" style="font-family:'FuturaPT-Book'; font-size:18px;">insta</text>
	<rect x="-245.8" y="-1.4" class="st7" width="513.9" height="34.9"/>
	<text transform="matrix(1 0 0 -1 -245.7832 20.4009)" class="st8" style="font-family:'FuturaPT-Book'; font-size:18px;">Password</text>
</symbol>
<symbol  id="_x38_" viewBox="-800 -449.5 1600 899">
	<g>
		<rect x="-513" y="-449.5" class="st0" width="1021" height="776"/>
		<rect x="-312" y="-210.5" class="st1" width="639" height="478"/>
		<rect x="-513" y="326.5" class="st1" width="1021" height="123"/>
		<g>
			<g id="JRxRvb.tif_46_">

					<image style="overflow:visible;" width="1132" height="322" id="Layer_0_46_" xlink:href="CF364A7245B3891F.png"  transform="matrix(0.1758 0 0 -0.1758 -400 415.5)">
				</image>
			</g>
			<path class="st2" d="M-384.6,384.9c0.1,0,0-0.5,0.3-1.5c0.2-0.8,0.4-1.5,1-2.1c0.2-0.2,0.5-0.5,1-0.5c1.1-0.1,2,1,2.6,1.8
				c0.8,1,1.9,2.4,1.8,3.9c0,0.2-0.1,0.8,0.3,1c0.2,0.2,0.6,0.2,0.8,0c0.2-0.1,0.2-0.3,0-1.8c-0.1-0.8-0.2-1.1-0.3-1.5
				c0-0.2-0.2-0.8-0.5-1.5c-0.2-0.6-0.7-1.8-1.8-3.1c-0.5-0.6-0.9-1.1-1.5-1.5c-0.5-0.4-1.3-1-2.6-1c-0.4,0-1.6-0.1-2.3,0.5
				C-387.7,379.1-385,385-384.6,384.9z"/>
		</g>
		<g>
			<path class="st3" d="M-441,358.5h-32.8c-0.5,0.1-1.5,0.5-2.4,1.4c-0.9,0.9-1.3,1.9-1.4,2.4v33.4c0.1,0.5,0.5,1.5,1.4,2.4
				c0.9,0.9,1.9,1.3,2.4,1.4h32.8c0.5-0.1,1.5-0.5,2.4-1.4c0.9-0.9,1.3-1.9,1.4-2.4v-33.4c-0.1-0.5-0.5-1.5-1.4-2.4
				C-439.6,359-440.5,358.6-441,358.5z"/>
			<path class="st1" d="M-443.1,387.4c-1.5,0-2.9,0-4.4,0c-0.1,0-0.8,0-1.3,0.6c-0.3,0.4-0.3,0.8-0.3,0.9c0,1.6,0,3.2,0,4.7
				c0,0.1,0.1,0.4,0.3,0.6c0.1,0.1,0.3,0.3,0.6,0.3c1.7,0,3.4,0,5,0c0.2-0.1,0.6-0.2,0.9-0.6c0.2-0.2,0.3-0.5,0.3-0.6
				c0-1.6,0-3.2,0-4.7c-0.1-0.2-0.2-0.6-0.6-0.9C-442.7,387.5-442.9,387.4-443.1,387.4z"/>
			<circle class="st1" cx="-457.4" cy="379" r="8.2"/>
			<path class="st1" d="M-472.7,382.9L-472.7,382.9c0,0,1.1,0,3.2,0c-0.4-1.4-0.9-4.5,0.3-7.9c1.6-4.4,6-8.8,12-8.8
				c6.1,0,10.6,4.7,11.7,8.2c0.6,2.2,0.6,4.4,0.6,4.4c0,0,0,0.7-0.3,4.1c1.2,0,2.3,0,3.5,0c0-0.1,0-0.2,0-0.3c0,0,0-17.3,0-17.3
				c-0.1-0.3-0.2-0.8-0.6-1.3c0,0,0,0,0,0c-0.3-0.3-0.9-0.6-0.9-0.6c-18-0.2-27.8-0.3-27.8-0.3l0,0c0,0-0.9,0.4-1.3,0.9
				c-0.4,0.6-0.3,3-0.3,2.2l0,0C-472.7,366.2-472.7,382.9-472.7,382.9z"/>
		</g>
		<line class="st4" x1="-417.5" y1="398.5" x2="-417.5" y2="358"/>
		<rect x="-268" y="76.5" class="st0" width="551" height="63"/>
		<rect x="-268" y="-9.5" class="st0" width="551" height="63"/>
		<rect x="-312" y="-381.5" class="st1" width="639" height="133"/>
		<rect x="-268" y="-95.5" class="st5" width="551" height="63"/>
		<rect x="-189" y="-181.5" class="st7" width="394" height="49"/>
		<text transform="matrix(1 0 0 -1 -54.7373 -145.6216)" style="font-family:'FuturaPT-Book'; font-size:18px;">Forgot password?</text>
		<rect x="-189" y="-129.5" class="st7" width="394" height="76"/>
		<text transform="matrix(1 0 0 -1 -17.6694 -68.0796)" class="st6" style="font-family:'FuturaPT-Demi'; font-size:20px;">Log in</text>
		<rect x="-179" y="-350.5" class="st7" width="394" height="42"/>
		<text transform="matrix(1 0 0 -1 -95.1445 -321.6216)"><tspan x="0" y="0" style="font-family:'FuturaPT-Book'; font-size:18px;">Don’t have an account? </tspan><tspan x="170" y="0" class="st5" style="font-family:'FuturaPT-Book'; font-size:18px;">Sign Up</tspan></text>
		<g>
			<g id="JRxRvb.tif_45_">

					<image style="overflow:visible;" width="1132" height="322" id="Layer_0_45_" xlink:href="CF364A7245B38919.png"  transform="matrix(0.2565 0 0 -0.2565 -134 237.5)">
				</image>
			</g>
			<path class="st2" d="M-111.5,192.8c0.2,0,0-0.7,0.4-2.3c0.3-1.1,0.6-2.2,1.5-3c0.3-0.2,0.8-0.7,1.5-0.8c1.6-0.2,2.9,1.5,3.8,2.6
				c1.1,1.4,2.7,3.5,2.6,5.6c0,0.3-0.1,1.2,0.4,1.5c0.3,0.2,0.8,0.2,1.1,0c0.2-0.2,0.3-0.5,0-2.6c-0.2-1.1-0.2-1.6-0.4-2.3
				c-0.1-0.3-0.3-1.1-0.8-2.3c-0.4-0.9-1.1-2.6-2.6-4.5c-0.7-0.9-1.3-1.6-2.3-2.3c-0.7-0.5-2-1.4-3.8-1.5c-0.6,0-2.4-0.2-3.4,0.8
				C-116.1,184.3-112.1,192.9-111.5,192.8z"/>
		</g>
		<rect x="-800" y="-449.5" class="st7" width="1600" height="899"/>
	</g>
	<rect x="-245.8" y="82.6" class="st7" width="513.9" height="34.9"/>
	<text transform="matrix(1 0 0 -1 -245.7832 104.4009)" class="st8" style="font-family:'FuturaPT-Book'; font-size:18px;">instag</text>
	<rect x="-245.8" y="-1.4" class="st7" width="513.9" height="34.9"/>
	<text transform="matrix(1 0 0 -1 -245.7832 20.4009)" class="st8" style="font-family:'FuturaPT-Book'; font-size:18px;">Password</text>
</symbol>
<symbol  id="_x39_" viewBox="-800 -449.5 1600 899">
	<g>
		<rect x="-513" y="-449.5" class="st0" width="1021" height="776"/>
		<rect x="-312" y="-210.5" class="st1" width="639" height="478"/>
		<rect x="-513" y="326.5" class="st1" width="1021" height="123"/>
		<g>
			<g id="JRxRvb.tif_48_">

					<image style="overflow:visible;" width="1132" height="322" id="Layer_0_48_" xlink:href="CF364A7245B38918.png"  transform="matrix(0.1758 0 0 -0.1758 -400 415.5)">
				</image>
			</g>
			<path class="st2" d="M-384.6,384.9c0.1,0,0-0.5,0.3-1.5c0.2-0.8,0.4-1.5,1-2.1c0.2-0.2,0.5-0.5,1-0.5c1.1-0.1,2,1,2.6,1.8
				c0.8,1,1.9,2.4,1.8,3.9c0,0.2-0.1,0.8,0.3,1c0.2,0.2,0.6,0.2,0.8,0c0.2-0.1,0.2-0.3,0-1.8c-0.1-0.8-0.2-1.1-0.3-1.5
				c0-0.2-0.2-0.8-0.5-1.5c-0.2-0.6-0.7-1.8-1.8-3.1c-0.5-0.6-0.9-1.1-1.5-1.5c-0.5-0.4-1.3-1-2.6-1c-0.4,0-1.6-0.1-2.3,0.5
				C-387.7,379.1-385,385-384.6,384.9z"/>
		</g>
		<g>
			<path class="st3" d="M-441,358.5h-32.8c-0.5,0.1-1.5,0.5-2.4,1.4c-0.9,0.9-1.3,1.9-1.4,2.4v33.4c0.1,0.5,0.5,1.5,1.4,2.4
				c0.9,0.9,1.9,1.3,2.4,1.4h32.8c0.5-0.1,1.5-0.5,2.4-1.4c0.9-0.9,1.3-1.9,1.4-2.4v-33.4c-0.1-0.5-0.5-1.5-1.4-2.4
				C-439.6,359-440.5,358.6-441,358.5z"/>
			<path class="st1" d="M-443.1,387.4c-1.5,0-2.9,0-4.4,0c-0.1,0-0.8,0-1.3,0.6c-0.3,0.4-0.3,0.8-0.3,0.9c0,1.6,0,3.2,0,4.7
				c0,0.1,0.1,0.4,0.3,0.6c0.1,0.1,0.3,0.3,0.6,0.3c1.7,0,3.4,0,5,0c0.2-0.1,0.6-0.2,0.9-0.6c0.2-0.2,0.3-0.5,0.3-0.6
				c0-1.6,0-3.2,0-4.7c-0.1-0.2-0.2-0.6-0.6-0.9C-442.7,387.5-442.9,387.4-443.1,387.4z"/>
			<circle class="st1" cx="-457.4" cy="379" r="8.2"/>
			<path class="st1" d="M-472.7,382.9L-472.7,382.9c0,0,1.1,0,3.2,0c-0.4-1.4-0.9-4.5,0.3-7.9c1.6-4.4,6-8.8,12-8.8
				c6.1,0,10.6,4.7,11.7,8.2c0.6,2.2,0.6,4.4,0.6,4.4c0,0,0,0.7-0.3,4.1c1.2,0,2.3,0,3.5,0c0-0.1,0-0.2,0-0.3c0,0,0-17.3,0-17.3
				c-0.1-0.3-0.2-0.8-0.6-1.3c0,0,0,0,0,0c-0.3-0.3-0.9-0.6-0.9-0.6c-18-0.2-27.8-0.3-27.8-0.3l0,0c0,0-0.9,0.4-1.3,0.9
				c-0.4,0.6-0.3,3-0.3,2.2l0,0C-472.7,366.2-472.7,382.9-472.7,382.9z"/>
		</g>
		<line class="st4" x1="-417.5" y1="398.5" x2="-417.5" y2="358"/>
		<rect x="-268" y="76.5" class="st0" width="551" height="63"/>
		<rect x="-268" y="-9.5" class="st0" width="551" height="63"/>
		<rect x="-312" y="-381.5" class="st1" width="639" height="133"/>
		<rect x="-268" y="-95.5" class="st5" width="551" height="63"/>
		<rect x="-189" y="-181.5" class="st7" width="394" height="49"/>
		<text transform="matrix(1 0 0 -1 -54.7373 -145.6216)" style="font-family:'FuturaPT-Book'; font-size:18px;">Forgot password?</text>
		<rect x="-189" y="-129.5" class="st7" width="394" height="76"/>
		<text transform="matrix(1 0 0 -1 -17.6694 -68.0796)" class="st6" style="font-family:'FuturaPT-Demi'; font-size:20px;">Log in</text>
		<rect x="-179" y="-350.5" class="st7" width="394" height="42"/>
		<text transform="matrix(1 0 0 -1 -95.1445 -321.6216)"><tspan x="0" y="0" style="font-family:'FuturaPT-Book'; font-size:18px;">Don’t have an account? </tspan><tspan x="170" y="0" class="st5" style="font-family:'FuturaPT-Book'; font-size:18px;">Sign Up</tspan></text>
		<g>
			<g id="JRxRvb.tif_47_">

					<image style="overflow:visible;" width="1132" height="322" id="Layer_0_47_" xlink:href="CF364A7245B38944.png"  transform="matrix(0.2565 0 0 -0.2565 -134 237.5)">
				</image>
			</g>
			<path class="st2" d="M-111.5,192.8c0.2,0,0-0.7,0.4-2.3c0.3-1.1,0.6-2.2,1.5-3c0.3-0.2,0.8-0.7,1.5-0.8c1.6-0.2,2.9,1.5,3.8,2.6
				c1.1,1.4,2.7,3.5,2.6,5.6c0,0.3-0.1,1.2,0.4,1.5c0.3,0.2,0.8,0.2,1.1,0c0.2-0.2,0.3-0.5,0-2.6c-0.2-1.1-0.2-1.6-0.4-2.3
				c-0.1-0.3-0.3-1.1-0.8-2.3c-0.4-0.9-1.1-2.6-2.6-4.5c-0.7-0.9-1.3-1.6-2.3-2.3c-0.7-0.5-2-1.4-3.8-1.5c-0.6,0-2.4-0.2-3.4,0.8
				C-116.1,184.3-112.1,192.9-111.5,192.8z"/>
		</g>
		<rect x="-800" y="-449.5" class="st7" width="1600" height="899"/>
	</g>
	<rect x="-245.8" y="82.6" class="st7" width="513.9" height="34.9"/>
	<text transform="matrix(1 0 0 -1 -245.7832 104.4009)" class="st8" style="font-family:'FuturaPT-Book'; font-size:18px;">instagr</text>
	<rect x="-245.8" y="-1.4" class="st7" width="513.9" height="34.9"/>
	<text transform="matrix(1 0 0 -1 -245.7832 20.4009)" class="st8" style="font-family:'FuturaPT-Book'; font-size:18px;">Password</text>
</symbol>
<g id="Layer_1" class="st9">

		<use xlink:href="#_x31_"  width="1600" height="899" x="-800" y="-449.5" transform="matrix(1 0 0 -1 6625 -1003.5)" style="display:inline;overflow:visible;"/>
</g>
<g id="Layer_2" class="st9">

		<use xlink:href="#_x32_"  width="1600" height="899" x="-800" y="-449.5" transform="matrix(1 0 0 -1 6625 -1003.5)" style="display:inline;overflow:visible;"/>
</g>
<g id="Layer_3" class="st9">

		<use xlink:href="#_x33_"  width="1600" height="899" x="-800" y="-449.5" transform="matrix(1 0 0 -1 6625 -1003.5)" style="display:inline;overflow:visible;"/>
</g>
<g id="Layer_4" class="st9">

		<use xlink:href="#_x34_"  width="1600" height="899" x="-800" y="-449.5" transform="matrix(1 0 0 -1 6625 -1003.5)" style="display:inline;overflow:visible;"/>
</g>
<g id="Layer_5" class="st9">

		<use xlink:href="#_x35_"  width="1600" height="899" x="-800" y="-449.5" transform="matrix(1 0 0 -1 6625 -1003.5)" style="display:inline;overflow:visible;"/>
</g>
<g id="Layer_6" class="st9">

		<use xlink:href="#_x36_"  width="1600" height="899" x="-800" y="-449.5" transform="matrix(1 0 0 -1 6625 -1003.5)" style="display:inline;overflow:visible;"/>
</g>
<g id="Layer_7" class="st9">

		<use xlink:href="#_x37_"  width="1600" height="899" x="-800" y="-449.5" transform="matrix(1 0 0 -1 6625 -1003.5)" style="display:inline;overflow:visible;"/>
</g>
<g id="Layer_8" class="st9">

		<use xlink:href="#_x38_"  width="1600" height="899" x="-800" y="-449.5" transform="matrix(1 0 0 -1 6625 -1003.5)" style="display:inline;overflow:visible;"/>
</g>
<g id="Layer_9" class="st9">

		<use xlink:href="#_x39_"  width="1600" height="899" x="-800" y="-449.5" transform="matrix(1 0 0 -1 6625 -1003.5)" style="display:inline;overflow:visible;"/>
</g>
<g id="Layer_10" class="st9">

		<use xlink:href="#_x31_0"  width="1600" height="899" x="-800" y="-449.5" transform="matrix(1 0 0 -1 6625 -1003.5)" style="display:inline;overflow:visible;"/>
</g>
<g id="Layer_11" class="st9">

		<use xlink:href="#_x31_1"  width="1600" height="899" x="-800" y="-449.5" transform="matrix(1 0 0 -1 6625 -1003.5)" style="display:inline;overflow:visible;"/>
</g>
<g id="Layer_12" class="st9">

		<use xlink:href="#_x31_2"  width="1600" height="899" x="-800" y="-449.5" transform="matrix(1 0 0 -1 6625 -1003.5)" style="display:inline;overflow:visible;"/>
</g>
<g id="Layer_13" class="st9">

		<use xlink:href="#_x31_3"  width="1600" height="899" x="-800" y="-449.5" transform="matrix(1 0 0 -1 6625 -1003.5)" style="display:inline;overflow:visible;"/>
</g>
<g id="Layer_14" class="st9">

		<use xlink:href="#_x31_4"  width="1600" height="899" x="-800" y="-449.5" transform="matrix(1 0 0 -1 6625 -1003.5)" style="display:inline;overflow:visible;"/>
</g>
<g id="Layer_15">

		<use xlink:href="#_x31_"  width="1600" height="899" x="-800" y="-449.5" transform="matrix(0.5 0 0 -0.5006 400 225)" style="overflow:visible;"/>

		<use xlink:href="#_x32_"  width="1600" height="899" x="-800" y="-449.5" transform="matrix(0.5 0 0 -0.5006 1200 225)" style="overflow:visible;"/>

		<use xlink:href="#_x34_"  width="1600" height="899" x="-800" y="-449.5" transform="matrix(0.5 0 0 -0.5006 2800 225)" style="overflow:visible;"/>

		<use xlink:href="#_x35_"  width="1600" height="899" x="-800" y="-449.5" transform="matrix(0.5 0 0 -0.5006 3600 226)" style="overflow:visible;"/>

		<use xlink:href="#_x36_"  width="1600" height="899" x="-800" y="-449.5" transform="matrix(0.5 0 0 -0.5006 4400 225)" style="overflow:visible;"/>

		<use xlink:href="#_x37_"  width="1600" height="899" x="-800" y="-449.5" transform="matrix(0.5 0 0 -0.5006 5200 225)" style="overflow:visible;"/>

		<use xlink:href="#_x38_"  width="1600" height="899" x="-800" y="-449.5" transform="matrix(0.5 0 0 -0.5006 6000 225)" style="overflow:visible;"/>

		<use xlink:href="#_x39_"  width="1600" height="899" x="-800" y="-449.5" transform="matrix(0.5 0 0 -0.5006 6800 225)" style="overflow:visible;"/>

		<use xlink:href="#_x31_0"  width="1600" height="899" x="-800" y="-449.5" transform="matrix(0.5 0 0 -0.5006 7600 225)" style="overflow:visible;"/>

		<use xlink:href="#_x31_1"  width="1600" height="899" x="-800" y="-449.5" transform="matrix(0.5 0 0 -0.5006 8400 225)" style="overflow:visible;"/>

		<use xlink:href="#_x31_2"  width="1600" height="899" x="-800" y="-449.5" transform="matrix(0.5 0 0 -0.5006 9200 225)" style="overflow:visible;"/>

		<use xlink:href="#_x31_3"  width="1600" height="899" x="-800" y="-449.5" transform="matrix(0.5 0 0 -0.5006 10000 225)" style="overflow:visible;"/>

		<use xlink:href="#_x31_4"  width="1600" height="899" x="-800" y="-449.5" transform="matrix(0.5 0 0 -0.5006 10800 225)" style="overflow:visible;"/>

		<use xlink:href="#_x31_5"  width="1600" height="899" x="-800" y="-449.5" transform="matrix(0.5 0 0 -0.5006 11600 225)" style="overflow:visible;"/>

		<use xlink:href="#_x33_"  width="1600" height="899" x="-800" y="-449.5" transform="matrix(0.5 0 0 -0.5006 2000 225)" style="overflow:visible;"/>
</g>
</svg>
