<?xml version="1.0" encoding="utf-8"?>
<!-- Generator: Adobe Illustrator 21.1.0, SVG Export Plug-In . SVG Version: 6.00 Build 0)  -->
<svg version="1.1" id="Layer_1" xmlns="http://www.w3.org/2000/svg" xmlns:xlink="http://www.w3.org/1999/xlink" x="0px" y="0px"
	 viewBox="0 0 670 610" style="enable-background:new 0 0 670 610;" xml:space="preserve">
<style type="text/css">
	.st0{fill:#DEF9FF;}
	.st1{fill:#DBAC61;}
	.st2{fill:#89CCE5;}
	.st3{fill:#EAAC41;}
	.st4{fill:#C07D08;}
	.st5{fill:#FCBA83;}
	.st6{fill:#333333;}
	.st7{fill:#EDB143;}
	.st8{fill:#552E0F;}
	.st9{fill:#2F1A09;}
	.st10{fill:#F9BE93;}
	.st11{fill:#5A3312;}
	.st12{fill:none;stroke:#2F1A09;stroke-miterlimit:10;}
	.st13{fill:#F7D98D;}
	.st14{fill:#F4912D;}
	.st15{fill:#070606;}
	.st16{fill:#E20E23;}
	.st17{fill:#962D69;}
	.st18{fill:#72263C;}
	.st19{fill:#FFFFFF;}
	.st20{fill:#F7EBED;stroke:#EFE6DF;stroke-width:4;stroke-miterlimit:10;}
	.st21{fill:#F90D94;}
	.st22{fill:none;stroke:#020202;stroke-width:2;stroke-miterlimit:10;}
</style>
<g>
	<path class="st0" d="M29.9,586.5c-5.2,0-9.5-4.3-9.5-9.5V33c0-5.2,4.3-9.5,9.5-9.5h614.8c5.2,0,9.5,4.3,9.5,9.5v544
		c0,5.2-4.3,9.5-9.5,9.5H29.9z"/>
	<path class="st0" d="M644.7,26c3.9,0,7,3.1,7,7v544c0,3.9-3.1,7-7,7H29.9c-3.9,0-7-3.1-7-7V33c0-3.9,3.1-7,7-7L644.7,26 M644.7,21
		H29.9c-6.6,0-12,5.4-12,12v544c0,6.6,5.4,12,12,12h614.8c6.6,0,12-5.4,12-12V33C656.7,26.4,651.3,21,644.7,21L644.7,21z"/>
</g>
<g>
	<path class="st1" d="M29.9,588.4c-5.2,0-9.5-1.1-9.5-2.4V447.3c0-1.3,4.3-2.4,9.5-2.4h614.8c5.2,0,9.5,1.1,9.5,2.4v138.7
		c0,1.3-4.3,2.4-9.5,2.4H29.9z"/>
	<path class="st1" d="M644.7,445.5c3.9,0,7,0.8,7,1.8v138.7c0,1-3.1,1.8-7,1.8H29.9c-3.9,0-7-0.8-7-1.8V447.3c0-1,3.1-1.8,7-1.8
		H644.7 M644.7,444.2H29.9c-6.6,0-12,1.4-12,3.1v138.7c0,1.7,5.4,3.1,12,3.1h614.8c6.6,0,12-1.4,12-3.1V447.3
		C656.7,445.6,651.3,444.2,644.7,444.2L644.7,444.2z"/>
</g>
<g>
	<path class="st2" d="M29.9,448.4c-5.2,0-9.5-0.6-9.5-1.4v-81.5c0-0.8,4.3-1.4,9.5-1.4h614.8c5.2,0,9.5,0.6,9.5,1.4V447
		c0,0.8-4.3,1.4-9.5,1.4H29.9z"/>
	<path class="st2" d="M644.7,364.4c3.9,0,7,0.5,7,1V447c0,0.6-3.1,1-7,1H29.9c-3.9,0-7-0.5-7-1v-81.5c0-0.6,3.1-1,7-1H644.7
		 M644.7,363.7H29.9c-6.6,0-12,0.8-12,1.8V447c0,1,5.4,1.8,12,1.8h614.8c6.6,0,12-0.8,12-1.8v-81.5
		C656.7,364.5,651.3,363.7,644.7,363.7L644.7,363.7z"/>
</g>
<path class="st3" d="M365.2,334.8c-0.8-0.3,0.2-3.5,0-11c-0.1-3.6-0.2-5.7-0.8-8.4c-1.3-5.7-3.4-7.8-2.4-9.3c1.1-1.5,4.4-1,6.4,0
	c3.4,1.6,4.6,5.1,4.8,5.9c0.3,1.1,1,3.8-1.6,11C369.7,328.3,366.4,335.3,365.2,334.8z"/>
<path class="st3" d="M342.8,224.6c-6.1,0.3-10.6,2.3-12.8,3.4c-2.8,1.3-11.9,5.7-17.6,16c-4.2,7.6-4.3,14.5-4.4,24
	c-0.2,11.9-0.3,20.1,4.8,28.7c8.2,13.8,23,16.6,24.8,16.9c10.9,1.8,19.6-2.2,23.2-4.2c7.9-4.4,12-10.6,12.8-11.8
	c5.1-7.8,5.7-15.5,6.4-25.3c0.4-5.1,0.8-10.7-0.8-17.7c-0.7-3.3-2-8.8-5.6-14.3C366.8,229.9,354.5,223.9,342.8,224.6z"/>
<path class="st4" d="M318.4,267.1c-1.4,2.4-1.8,4.6-2.4,8.4c-0.7,4.5-2.4,14.6,3.2,23.6c5.4,8.7,14.2,11.1,16.8,11.8
	c2.3,0.6,11.7,2.9,21.6-2.5c2.2-1.2,8.9-5,12.8-13.5c0.6-1.4,6.3-14.2,0-24.4c-2.9-4.7-6.9-6.7-10.4-8.4
	C346.2,255.4,325.1,255.5,318.4,267.1z"/>
<path class="st5" d="M320.8,246.9c0,0-1.1,1.4-2,3c-3.2,5.6-1.6,15.6-1.2,27.4c0.3,9.2-0.4,8.9,0.4,12.2c2.6,10.1,10.4,15.5,11.2,16
	c8,5.3,19,6,27.6,0.4c0.5-0.3,8.6-5.8,11.2-16c0.4-1.7,0.5-2.9,0.8-7.6c1.3-24.6,0.4-27.9-0.8-30.3c-2.7-5.7-7-8.8-8.8-10.1
	c-13.2-9.3-29-2.5-32.8,0C323.1,244,320.8,246.9,320.8,246.9z"/>
<path class="st6" d="M324,267.1c-0.1-0.2,0.8-1.6,2.4-2.5c1.9-1.1,4.5-1.1,6.4,0c1.6,0.9,2.5,2.4,2.4,2.5c-0.1,0.2-1.2-1.1-3.2-1.7
	c-2.3-0.7-4.4-0.1-4.8,0C325.2,266.1,324.1,267.3,324,267.1z"/>
<path class="st6" d="M352,267.1c-0.1-0.2,0.8-1.6,2.4-2.5c1.9-1.1,4.5-1.1,6.4,0c1.6,0.9,2.5,2.4,2.4,2.5c-0.1,0.2-1.2-1.1-3.2-1.7
	c-2.3-0.7-4.4-0.1-4.8,0C353.2,266.1,352.1,267.3,352,267.1z"/>
<ellipse class="st6" cx="330.8" cy="273.4" rx="2.8" ry="3"/>
<ellipse class="st6" cx="356.4" cy="273.4" rx="2.8" ry="3"/>
<path class="st5" d="M338.4,307.4c-0.7,0.7-0.4,2,0.4,5.3c1.6,6.8,1.5,7.6,2.8,11.6c1.6,4.9,2.2,5.1,2.4,5.1c0.5,0,0.8-1.3,1.6-5.1
	c0.8-3.7,1.5-7.5,2.4-11.2c0.9-3.7,1.5-5,0.8-5.7c-0.8-0.8-2,0.1-5.6,0C340.1,307.3,339.1,306.6,338.4,307.4z"/>
<path class="st7" d="M313.6,242.7c-0.7,3.8,5.4,7.8,8.8,10.1c7.1,4.7,11.9,7.9,19.2,8.4c0,0,14,1.1,29.6-15.2
	c0.8-0.8,2.8-2.9,2.4-5.1c-0.1-0.9-0.6-1.5-0.8-1.7c-11.4-14.1-28-14.3-28-14.3s-17.6-0.2-30.4,16
	C314.1,241.3,313.7,241.9,313.6,242.7z"/>
<path class="st8" d="M173.6,227.9c-3.9,1.2-9.4,2.9-14,7.8c-2.2,2.4-5.1,6.5-7,18.6c-1.8,11.2-0.2,13.2-0.8,28.7
	c-0.6,15.8-2.5,19.7,0,28.7c1.1,4.2,2.4,8.8,6.2,13.2c8.6,10,22.4,10.1,28,10.1c5.9,0,15.9,0.1,24.1-7c5.8-5,7.9-11.3,9.3-15.5
	c2.9-8.9,0.9-12.1,0.8-29.5c-0.1-17.8,2-21.3-0.8-31.8c-2.7-10.2-6.7-14.5-7.8-15.5c-6-6.1-13.4-7.6-17.9-8.5
	C183.7,225,175.7,227.2,173.6,227.9z"/>
<path class="st9" d="M160.4,262c-1.1,2-0.5,2.4-0.8,13.2c-0.4,14.9-1.6,20.4-0.8,33.4c0.4,6.1,0.9,9.6,3.1,13.2c3,5,7.2,7.4,9.3,8.5
	c8.6,4.8,22,6.3,31.8-0.8c1.5-1.1,6-4.6,8.5-10.9c1.5-3.6,1.6-6.7,1.6-12.4c-0.1-12.2-1.1-17.9-1.6-27.2c-0.7-14.7,1-14.9-0.8-17.9
	C203.2,248.2,167.7,248.5,160.4,262z"/>
<path class="st10" d="M163.5,246.5c0,0-1.1,1.3-1.9,2.7c-3.1,5.2-1.6,14.4-1.2,25.2c0.3,8.5-0.4,8.2,0.4,11.3
	c2.5,9.3,10.1,14.3,10.9,14.8c7.8,4.9,18.5,5.5,26.8,0.4c0.5-0.3,8.3-5.3,10.9-14.8c0.4-1.6,0.5-2.7,0.8-7c1.3-22.7,0.3-25.7-0.8-28
	c-2.6-5.3-6.8-8.1-8.5-9.3c-12.8-8.5-28.2-2.3-31.8,0C165.7,243.9,163.5,246.5,163.5,246.5z"/>
<path class="st6" d="M166.6,265.1c-0.1-0.2,0.8-1.5,2.3-2.3c1.9-1,4.3-1,6.2,0c1.5,0.8,2.5,2.2,2.3,2.3c-0.1,0.2-1.2-1-3.1-1.6
	c-2.3-0.7-4.2-0.1-4.7,0C167.8,264.2,166.7,265.3,166.6,265.1z"/>
<path class="st6" d="M193.8,265.1c-0.1-0.2,0.8-1.5,2.3-2.3c1.9-1,4.3-1,6.2,0c1.5,0.8,2.5,2.2,2.3,2.3c-0.1,0.2-1.2-1-3.1-1.6
	c-2.3-0.7-4.2-0.1-4.7,0C195,264.2,193.9,265.3,193.8,265.1z"/>
<circle class="st6" cx="173.2" cy="271" r="2.7"/>
<circle class="st6" cx="198" cy="271" r="2.7"/>
<path class="st11" d="M151.8,261.3c0.8,2.5,10.8,2.4,18.6-0.8c3-1.2,7.1-2.9,10.1-7c3.1-4.3,3.1-8.5,4.7-8.5c1.6,0,1.8,4.5,5.4,9.3
	c0.2,0.3,2.9,3.8,7,6.2c8.9,5.3,22,4,23.3,0c0.2-0.5,0.1-0.8,0-1.6c-0.8-5.2-1.2-7.8-2.3-10.9c-1.8-4.8-3.1-8.2-6.2-11.6
	c-4.3-4.7-9.2-6.6-12.4-7.8c-6.6-2.5-12.2-2.4-15.5-2.3c-4,0.1-9.4,0.2-15.5,3.1c-2.5,1.2-6.7,3.2-10.1,7.8
	c-2.7,3.6-3.8,7.4-4.7,10.1c-0.2,0.7-0.7,2.8-1.6,7c0,0-0.3,1.6-0.8,6.2C151.8,261,151.8,261.1,151.8,261.3z"/>
<path class="st12" d="M333.5,293.5c2.1,1.6,4.1,2.4,5.4,2.9c1.8,0.6,5.3,1.8,9.5,0.7c2.1-0.5,3.7-1.5,4.7-2.1"/>
<path class="st10" d="M192.2,308.9l15.3,5.5l29.6,35.7c0,0-22.9,34.1-26.2,36.3c-3.4,2.1,4.4,4.8,3.8,10.8c-0.2,1.8,4.9,1.6,4.9,2.4
	c0,0-5.6,2.7-8.2,1.1c-2.5-1.6-5.8-5.6-5.8-5.6l30.2,152.7l6,9.4l14.1,3.8l0.3,11.9l-33.5-6.1c0,0,0.1-16.6,1.6-18.8
	s-26.9-55.8-23-71.7c2.2-9.1-19.8-50.9-20.4-52.5l-7.9,51.5l0,72.1l2.2,15.7l-0.6,9.7h-12.9v-26.4l-15.7-140.5
	c0,0,14.8-24.8,22.3-28.6c7.5-3.8-6.9-33-6.9-33s-9.1,29.6-12.9,28.9c-3.8-0.6-16.3-31.8-14.1-50.9c0,0-9.1-2.5-3.1-11.6
	c0,0-4.4-8.2-2-10.1c2.3-1.9,4.9,8.2,4.9,8.2s0.6-7.4,1.9-8.4c1.3-1,1.6,8.1,1.6,8.1s5.3,6.9,3.1,11.3c-2.2,4.4,7.9,29.2,7.9,29.2
	s4.5-34.4,20.7-36.5c7.5-4.1,7.5-4.1,7.5-4.1L192.2,308.9z"/>
<path class="st13" d="M206.5,380.8l18.2-30.7l-14.3-16c0,0,1.3,6.4-2.4,18.8C204.9,363.1,206.5,380.8,206.5,380.8z"/>
<path class="st14" d="M166.7,356.9c0,0,12.8-6.8,40.3,0.5c10.7-17.2-1-31.9-2.4-31.9l-0.6-12.4l-3.8-1.4l0.9,15.8L189.5,345
	l-5.3,0.2L172,329l-0.5-17.7l-3.4,1.4v14.8c0,0-7.4,11.6-7.2,16.6C161.1,349.2,166.7,356.9,166.7,356.9z"/>
<path class="st10" d="M180.6,303.9c-0.7,0.6-0.3,1.8,0.4,4.9c1.5,6.3,1.4,7,2.7,10.7c1.6,4.5,2.1,4.7,2.3,4.7c0.5,0,0.8-1.2,1.6-4.7
	c0.8-3.4,1.4-6.9,2.3-10.3c0.9-3.4,1.5-4.6,0.8-5.3c-0.8-0.7-2,0.1-5.4,0C182.3,303.8,181.3,303.2,180.6,303.9z"/>
<path class="st14" d="M155.3,391.6c0,0,33.2,16.5,51.5,14.3c2.9-0.3,3.6,11.7,3.6,11.7s-26.4,2.9-29.6,6.3
	c-1.7,1.8-15.1-18.2-32.3-20.8C145.6,402.6,155.3,391.6,155.3,391.6z"/>
<circle class="st15" cx="185.6" cy="383.5" r="0.6"/>
<path class="st5" d="M345.5,426.8c0,0,3.9,54.3,2.7,56.6c-1.2,2.3,4.2,53.6,3.1,61.9c-1,7-0.2,15,0,15.7c0.2,0.6,33.3,6.4,38.3-1.4
	c5-7.8-17.8-11.3-25.9-15.8c-4-2.3,5.5-63.6,2.1-70.4l1.4-55.3l-4.4-42.3l3.6-36.4l7.8,34.3c0,0,3.1,36.7,5,43.2
	c1.4,4.9-2.4,19.4-2.4,19.4s5.5,15.5,10.9,13.8c5.5-1.8,4.3-26.8,4.3-26.8l-4.8-8.3c0,0,0.2-40.6-3.8-42.6c-4-2,0.5-57.1-14.7-57.6
	s-44.9,0-44.9,0s-10.8,1.1-13.8,37.1c-2.3,28-9.7,43.8-6.9,63.9c0,0-15.3,22-0.6,34.1c14.7,12,8.2-32.9,8.2-32.9s9.3-40.2,6.2-43.4
	c-3.1-3.3,6.7-29.8,6.7-29.8s2.1,29,2.3,31.8c0.2,3.1-7.3,34.8-4.4,50.6c2.9,15.8,5.5,60.1,5.5,60.1s-1,46.3,1.9,54.6
	c2.9,8.3-31.1,5.5-28,15.5c3.1,10,40.2,4.6,40.2,4.6l-1.4-17.2c0,0,8.6-58.3,4.6-62.9C340.3,476.3,345.5,426.8,345.5,426.8z"/>
<path class="st16" d="M324.4,352.8l40.6,0.3c0,0,3-22.2,1.3-24.8c-1.7-2.7-6.1-14.1-6.1-14.1h-2.6c0,0,4.5,10.1,2.2,13.9
	s-17,15.7-14.8,22.1c2.2,6.4-0.3-10.4-15.1-21.8c-3.6-2.8,4-14.1,4-14.1h-3.5l-8.7,15.1L324.4,352.8z"/>
<path class="st17" d="M169.1,283.9c0,0,1.9,3.2,2.8,4.6c0.9,1.3,3,4.5,6.4,6.4c4.4,2.4,9.8,2,13.8,0c3.1-1.6,5-3.9,5.5-4.6
	c2-2.6,3.7-6.4,3.7-6.4l0,0H169.1L169.1,283.9z"/>
<path class="st18" d="M174.6,289.3c0.1-0.7,0.8-1.1,1.8-1.8c1.6-1.1,3.3-1.6,5.5-1.8c2.1-0.2,7.9-0.6,12.8,2.8
	c0.4,0.3,0.8,0.5,0.9,0.9c0.4,1.8-5.3,5.6-11,5.5C179.5,294.7,174.4,291.4,174.6,289.3z"/>
<path class="st19" d="M172.8,286.7c8.3,0,16.5,0,24.8,0c0-0.9,0-1.8,0-2.8h-24.8C172.8,284.9,172.8,285.8,172.8,286.7z"/>
<polygon class="st16" points="345.4,426.3 366.1,407.4 364.7,393.2 323.2,393.2 321.3,408.6 "/>
<circle class="st15" cx="345.7" cy="378.1" r="0.5"/>
<line class="st20" x1="545.3" y1="424.8" x2="495.3" y2="499.4"/>
<path class="st21" d="M475.5,398l126.8,65.4c0,0,33.7-83.4-8.5-107C558.2,336.4,490.6,355.6,475.5,398z"/>
<path class="st22" d="M89.5,127.3c0,0,9.2-57.8,47-26c0,0-6-59.2,47.2-24.6"/>
<circle class="st14" cx="525.5" cy="92.3" r="50"/>
</svg>
