<?xml version="1.0" encoding="utf-8"?>
<!-- Generator: Adobe Illustrator 21.1.0, SVG Export Plug-In . SVG Version: 6.00 Build 0)  -->
<svg version="1.1" id="Lag_1" xmlns="http://www.w3.org/2000/svg" xmlns:xlink="http://www.w3.org/1999/xlink" x="0px" y="0px"
	 viewBox="0 0 718.7 582" style="enable-background:new 0 0 718.7 582;" xml:space="preserve">
<style type="text/css">
	.st0{fill:#F7D98D;}
	.st1{fill:#89CCE5;}
	.st2{fill:#EAAC41;}
	.st3{fill:#C07D08;}
	.st4{fill:#FCBA83;}
	.st5{fill:#333333;}
	.st6{fill:#EDB143;}
	.st7{fill:#552E0F;}
	.st8{fill:#2F1A09;}
	.st9{fill:#F9BE93;}
	.st10{fill:#5A3312;}
	.st11{fill:none;stroke:#2F1A09;stroke-miterlimit:10;}
	.st12{fill:#F4912D;}
	.st13{fill:#070606;}
	.st14{fill:#E20E23;}
	.st15{fill:#962D69;}
	.st16{fill:#72263C;}
	.st17{fill:#FFFFFF;}
	.st18{fill:none;stroke:#EFE6DF;stroke-width:4;stroke-miterlimit:10;}
	.st19{fill:#DEF9FF;}
	.st20{fill:#F90D94;}
	.st21{fill:none;stroke:#020202;stroke-width:2;stroke-miterlimit:10;}
</style>
<polyline class="st0" points="0.7,280.4 718.7,280.4 718.7,582 0.7,582 "/>
<polyline class="st1" points="0.2,-1.4 718.7,-1.4 718.7,304.1 0.2,304.1 "/>
<path class="st2" d="M414,193.7c-6.4,0.4-11,3-13.3,4.4c-2.9,1.7-12.4,7.4-18.3,20.8c-4.3,9.8-4.4,18.7-4.6,31.1
	c-0.2,15.4-0.3,26.1,5,37.1c8.6,17.9,23.9,21.5,25.8,21.8c11.4,2.4,20.3-2.8,24.1-5.5c8.2-5.7,12.5-13.7,13.3-15.3
	c5.3-10.1,5.9-20.1,6.7-32.8c0.4-6.6,0.8-13.8-0.8-22.9c-0.8-4.2-2-11.4-5.8-18.6C439,200.6,426.2,192.9,414,193.7z"/>
<path class="st3" d="M390.1,248.9c-1.4,3.1-1.8,6-2.4,10.9c-0.7,5.8-2.4,18.9,3.2,30.6c5.4,11.3,14.2,14.4,16.8,15.3
	c2.3,0.8,11.7,3.7,21.6-3.3c2.2-1.5,8.9-6.5,12.8-17.5c0.6-1.8,6.3-18.4,0-31.7c-2.9-6.1-6.9-8.7-10.4-10.9
	C417.9,233.6,396.8,233.8,390.1,248.9z"/>
<path class="st4" d="M392.5,218c0,0-1.1,1.4-2,3c-3.2,5.6-1.6,15.6-1.2,27.4c0.3,9.2-0.4,8.9,0.4,12.2c2.6,10.1,10.4,15.5,11.2,16
	c8,5.3,19,6,27.6,0.4c0.5-0.3,8.6-5.8,11.2-16c0.4-1.7,0.5-2.9,0.8-7.6c1.3-24.6,0.4-27.9-0.8-30.3c-2.7-5.7-7-8.8-8.8-10.1
	c-13.2-9.3-29-2.5-32.8,0C394.8,215.1,392.5,218,392.5,218z"/>
<path class="st5" d="M395.7,238.2c-0.1-0.2,0.8-1.6,2.4-2.5c1.9-1.1,4.5-1.1,6.4,0c1.6,0.9,2.5,2.4,2.4,2.5
	c-0.1,0.2-1.2-1.1-3.2-1.7c-2.3-0.7-4.4-0.1-4.8,0C396.9,237.2,395.8,238.4,395.7,238.2z"/>
<path class="st5" d="M423.7,238.2c-0.1-0.2,0.8-1.6,2.4-2.5c1.9-1.1,4.5-1.1,6.4,0c1.6,0.9,2.5,2.4,2.4,2.5
	c-0.1,0.2-1.2-1.1-3.2-1.7c-2.3-0.7-4.4-0.1-4.8,0C424.9,237.2,423.8,238.4,423.7,238.2z"/>
<ellipse class="st5" cx="402.5" cy="244.6" rx="2.8" ry="3"/>
<ellipse class="st5" cx="428.1" cy="244.6" rx="2.8" ry="3"/>
<path class="st4" d="M410.1,278.5c-0.7,0.7-0.4,2,0.4,5.3c1.6,6.8,1.5,7.6,2.8,11.6c1.6,4.9,2.2,5.1,2.4,5.1c0.5,0,0.8-1.3,1.6-5.1
	c0.8-3.7,1.5-7.5,2.4-11.2s1.5-5,0.8-5.7c-0.8-0.8-2,0.1-5.6,0C411.9,278.4,410.8,277.8,410.1,278.5z"/>
<path class="st6" d="M385.3,213.8c-0.7,3.8,5.4,7.8,8.8,10.1c7.1,4.7,11.9,7.9,19.2,8.4c0,0,14,1.1,29.6-15.2
	c0.8-0.8,2.8-2.9,2.4-5.1c-0.1-0.9-0.6-1.5-0.8-1.7c-11.4-14.1-28-14.3-28-14.3s-17.6-0.2-30.4,16
	C385.8,212.4,385.4,213,385.3,213.8z"/>
<path class="st7" d="M245.3,199c-3.9,1.2-9.4,2.9-14,7.8c-2.2,2.4-5.1,6.5-7,18.6c-1.8,11.2-0.2,13.2-0.8,28.7
	c-0.6,15.8-2.5,19.7,0,28.7c1.1,4.2,2.4,8.8,6.2,13.2c8.6,10,22.4,10.1,28,10.1c5.9,0,15.9,0.1,24.1-7c5.8-5,7.9-11.3,9.3-15.5
	c2.9-8.9,0.9-12.1,0.8-29.5c-0.1-17.8,2-21.3-0.8-31.8c-2.7-10.2-6.7-14.5-7.8-15.5c-6-6.1-13.4-7.6-17.9-8.5
	C255.4,196.1,247.4,198.4,245.3,199z"/>
<path class="st8" d="M232.1,233.2c-1.1,2-0.5,2.4-0.8,13.2c-0.4,14.9-1.6,20.4-0.8,33.4c0.4,6.1,0.9,9.6,3.1,13.2
	c3,5,7.2,7.4,9.3,8.5c8.6,4.8,22,6.3,31.8-0.8c1.5-1.1,6-4.6,8.5-10.9c1.5-3.6,1.6-6.7,1.6-12.4c-0.1-12.2-1.1-17.9-1.6-27.2
	c-0.7-14.7,1-14.9-0.8-17.9C274.9,219.4,239.4,219.6,232.1,233.2z"/>
<path class="st9" d="M235.2,217.6c0,0-1.1,1.3-1.9,2.7c-3.1,5.2-1.6,14.4-1.2,25.2c0.3,8.5-0.4,8.2,0.4,11.3
	c2.5,9.3,10.1,14.3,10.9,14.8c7.8,4.9,18.5,5.5,26.8,0.4c0.5-0.3,8.3-5.3,10.9-14.8c0.4-1.6,0.5-2.7,0.8-7c1.3-22.7,0.3-25.7-0.8-28
	c-2.6-5.3-6.8-8.1-8.5-9.3c-12.8-8.5-28.2-2.3-31.8,0C237.4,215,235.2,217.6,235.2,217.6z"/>
<path class="st5" d="M238.3,236.3c-0.1-0.2,0.8-1.5,2.3-2.3c1.9-1,4.3-1,6.2,0c1.5,0.8,2.5,2.2,2.3,2.3c-0.1,0.2-1.2-1-3.1-1.6
	c-2.3-0.7-4.2-0.1-4.7,0C239.5,235.3,238.4,236.4,238.3,236.3z"/>
<path class="st5" d="M265.5,236.3c-0.1-0.2,0.8-1.5,2.3-2.3c1.9-1,4.3-1,6.2,0c1.5,0.8,2.5,2.2,2.3,2.3c-0.1,0.2-1.2-1-3.1-1.6
	c-2.3-0.7-4.2-0.1-4.7,0C266.7,235.3,265.6,236.4,265.5,236.3z"/>
<circle class="st5" cx="244.9" cy="242.1" r="2.7"/>
<circle class="st5" cx="269.7" cy="242.1" r="2.7"/>
<path class="st10" d="M223.6,232.4c0.8,2.5,10.8,2.4,18.6-0.8c3-1.2,7.1-2.9,10.1-7c3.1-4.3,3.1-8.5,4.7-8.5c1.6,0,1.8,4.5,5.4,9.3
	c0.2,0.3,2.9,3.8,7,6.2c8.9,5.3,22,4,23.3,0c0.2-0.5,0.1-0.8,0-1.6c-0.8-5.2-1.2-7.8-2.3-10.9c-1.8-4.8-3.1-8.2-6.2-11.6
	c-4.3-4.7-9.2-6.6-12.4-7.8c-6.6-2.5-12.2-2.4-15.5-2.3c-4,0.1-9.4,0.2-15.5,3.1c-2.5,1.2-6.7,3.2-10.1,7.8
	c-2.7,3.6-3.8,7.4-4.7,10.1c-0.2,0.7-0.7,2.8-1.6,7c0,0-0.3,1.6-0.8,6.2C223.5,232.1,223.5,232.2,223.6,232.4z"/>
<path class="st11" d="M405.2,264.7c2.1,1.6,4.1,2.4,5.4,2.9c1.8,0.6,5.3,1.8,9.5,0.7c2.1-0.5,3.7-1.5,4.7-2.1"/>
<path class="st9" d="M264,280l15.3,5.5l29.6,35.7c0,0-22.9,34.1-26.2,36.3c-3.4,2.1,4.4,4.8,3.8,10.8c-0.2,1.8,4.9,1.6,4.9,2.4
	c0,0-5.6,2.7-8.2,1.1s-5.8-5.6-5.8-5.6l30.2,152.7l6,9.4l14.1,3.8L328,544l-33.5-6.1c0,0,0.1-16.6,1.6-18.8s-26.9-55.8-23-71.7
	c2.2-9.1-19.8-50.9-20.4-52.5l-7.9,51.5v72.1l2.2,15.7l-0.6,9.7h-13.1v-26.4L217.6,377c0,0,14.8-24.8,22.3-28.6s-6.9-33-6.9-33
	s-9.1,29.6-12.9,28.9s-16.3-31.8-14.1-50.9c0,0-9.1-2.5-3.1-11.6c0,0-4.4-8.2-2-10.1c2.3-1.9,4.9,8.2,4.9,8.2s0.6-7.4,1.9-8.4
	s1.6,8.1,1.6,8.1s5.3,6.9,3.1,11.3s7.9,29.2,7.9,29.2s4.5-34.4,20.7-36.5c7.5-4.1,7.5-4.1,7.5-4.1L264,280z"/>
<path class="st0" d="M278.2,351.9l18.2-30.7l-14.3-16c0,0,1.3,6.4-2.4,18.8C276.6,334.2,278.2,351.9,278.2,351.9z"/>
<path class="st12" d="M238.4,328c0,0,12.8-6.8,40.3,0.5c10.7-17.2-1-31.9-2.4-31.9l-0.6-12.4l-3.8-1.4l0.9,15.8l-11.6,17.6l-5.3,0.2
	l-12.2-16.2l-0.5-17.7l-3.4,1.4v14.8c0,0-7.4,11.6-7.2,16.6S238.4,328,238.4,328z"/>
<path class="st9" d="M252.3,275c-0.7,0.6-0.3,1.8,0.4,4.9c1.5,6.3,1.4,7,2.7,10.7c1.6,4.5,2.1,4.7,2.3,4.7c0.5,0,0.8-1.2,1.6-4.7
	c0.8-3.4,1.4-6.9,2.3-10.3c0.9-3.4,1.5-4.6,0.8-5.3c-0.8-0.7-2,0.1-5.4,0C254,275,253,274.4,252.3,275z"/>
<path class="st12" d="M227,362.7c0,0,33.2,16.5,51.5,14.3c2.9-0.3,3.6,11.7,3.6,11.7s-26.4,2.9-29.6,6.3
	c-1.7,1.8-15.1-18.2-32.3-20.8C217.3,373.7,227,362.7,227,362.7z"/>
<circle class="st13" cx="257.3" cy="354.6" r="0.6"/>
<path class="st4" d="M417.2,397.9c0,0,3.9,54.3,2.7,56.6s4.2,53.6,3.1,61.9c-1,7-0.2,15,0,15.7c0.2,0.6,33.3,6.4,38.3-1.4
	c5-7.8-17.8-11.3-25.9-15.8c-4-2.3,5.5-63.6,2.1-70.4l1.4-55.3l-4.4-42.3l3.6-36.4l7.8,34.3c0,0,3.1,36.7,5,43.2
	c1.4,4.9-2.4,19.4-2.4,19.4s5.5,15.5,10.9,13.8s4.3-26.8,4.3-26.8l-4.8-8.3c0,0,0.2-40.6-3.8-42.6s0.5-57.1-14.7-57.6
	s-44.9,0-44.9,0s-10.8,1.1-13.8,37.1c-2.3,28-9.7,43.8-6.9,63.9c0,0-15.3,22-0.6,34.1s8.2-32.9,8.2-32.9s9.3-40.2,6.2-43.4
	s6.7-29.8,6.7-29.8s2.1,29,2.3,31.8c0.2,3.1-7.3,34.8-4.4,50.6c2.9,15.8,5.5,60.1,5.5,60.1s-1,46.3,1.9,54.6s-31.1,5.5-28,15.5
	s40.2,4.6,40.2,4.6l-1.4-17.2c0,0,8.6-58.3,4.6-62.9C412,447.5,417.2,397.9,417.2,397.9z"/>
<path class="st14" d="M396.1,323.9l40.6,0.3c0,0,3-22.2,1.3-24.8c-1.7-2.7-6.1-14.1-6.1-14.1h-2.6c0,0,4.5,10.1,2.2,13.9
	c-2.2,3.7-17,15.7-14.8,22.1s-0.3-10.4-15.1-21.8c-3.6-2.8,4-14.1,4-14.1h-3.3l-8.7,15.1L396.1,323.9z"/>
<path class="st15" d="M240.8,255c0,0,1.9,3.2,2.8,4.6c0.9,1.3,3,4.5,6.4,6.4c4.4,2.4,9.8,2,13.8,0c3.1-1.6,5-3.9,5.5-4.6
	c2-2.6,3.7-6.4,3.7-6.4l0,0H240.8L240.8,255z"/>
<path class="st16" d="M246.3,260.4c0.1-0.7,0.8-1.1,1.8-1.8c1.6-1.1,3.3-1.6,5.5-1.8c2.1-0.2,7.9-0.6,12.8,2.8
	c0.4,0.3,0.8,0.5,0.9,0.9c0.4,1.8-5.3,5.6-11,5.5C251.2,265.8,246.1,262.5,246.3,260.4z"/>
<path class="st17" d="M244.5,257.8c8.3,0,16.5,0,24.8,0c0-0.9,0-1.8,0-2.8h-24.8C244.5,256,244.5,256.9,244.5,257.8z"/>
<polygon class="st14" points="417.1,397.4 437.8,378.5 436.4,364.4 394.9,364.4 393,379.7 "/>
<circle class="st13" cx="417.4" cy="349.2" r="0.5"/>
<line class="st18" x1="614" y1="304.1" x2="564" y2="378.7"/>
<rect class="st19" width="718.5" height="161.7"/>
<path class="st20" d="M544.2,277.2L671,342.6c0,0,33.7-83.4-8.5-107C626.9,215.6,559.3,234.9,544.2,277.2z"/>
<path class="st21" d="M161.2,98.4c0,0,9.2-57.8,47-26c0,0-6-59.2,47.2-24.6"/>
<circle class="st12" cx="597.2" cy="63.4" r="50"/>
</svg>
