<?xml version="1.0" encoding="utf-8"?>
<!-- Generator: Adobe Illustrator 21.1.0, SVG Export Plug-In . SVG Version: 6.00 Build 0)  -->
<svg version="1.1" id="Layer_1" xmlns="http://www.w3.org/2000/svg" xmlns:xlink="http://www.w3.org/1999/xlink" x="0px" y="0px"
	 viewBox="0 0 670 610" style="enable-background:new 0 0 670 610;" xml:space="preserve">
<style type="text/css">
	.st0{fill:#202532;}
	.st1{fill:#F0F0F0;}
	.st2{fill:#D7D7D7;}
	.st3{fill:#FFFFFF;}
	.st4{fill:#EFEFEF;}
	.st5{fill:#EAAC41;}
	.st6{fill:#C07D08;}
	.st7{fill:#FECDA4;}
	.st8{fill:#333333;}
	.st9{fill:#962D69;}
	.st10{fill:#72263C;}
	.st11{fill:#EDB143;}
	.st12{fill:#E9ECED;}
	.st13{fill:#89CCE5;}
</style>
<g>
	<path class="st0" d="M33,584.7c-5.2,0-9.5-4.3-9.5-9.5v-544c0-5.2,4.3-9.5,9.5-9.5h614.8c5.2,0,9.5,4.3,9.5,9.5v544
		c0,5.2-4.3,9.5-9.5,9.5H33z"/>
	<path class="st0" d="M647.8,24.2c3.9,0,7,3.1,7,7v544c0,3.9-3.1,7-7,7H33c-3.9,0-7-3.1-7-7v-544c0-3.9,3.1-7,7-7L647.8,24.2
		 M647.8,19.2H33c-6.6,0-12,5.4-12,12v544c0,6.6,5.4,12,12,12h614.8c6.6,0,12-5.4,12-12v-544C659.8,24.6,654.4,19.2,647.8,19.2
		L647.8,19.2z"/>
</g>
<g>
	<polygon class="st1" points="235,182.1 449,182.1 449,206.9 437.7,206.9 437.7,353.3 248.5,353.3 248.5,209.1 235,209.1 	"/>
	<polygon class="st2" points="295.8,452.4 284.6,556 399.4,556 388.2,452.4 	"/>
	<path class="st3" d="M250.8,218.1c3.1-10.2,7.1-17.3,11.3-24.8c6.3-11.5,11.9-21.7,22.5-31.5c14.9-13.8,30.9-18.8,36-20.3
		c6.8-1.9,25.4-6.9,47.3,0c21,6.6,33.1,20.5,40.5,29.3c19.3,22.8,24.1,47.2,27,63.1c2.2,12.1,8.2,44.3-4.5,74.3
		c-6.6,15.6-17.5,28.7-18,29.3c-3.6,4.3-8,9.5-13.5,13.5c-10.9,8-20.8,7.3-60.8,6.8c-36-0.5-43.9-0.1-54.1-6.8
		c-8.2-5.4-12.3-11.6-18-20.3c-21.1-32.1-20.5-66.5-20.3-81.1C246.6,233.2,249.2,223.1,250.8,218.1z"/>
	<path class="st3" d="M241.8,369c0,0-0.3,14.5,0,20.3c1,18.9,13.8,33.5,18,38.3c11.5,13.1,24.4,18.7,33.8,22.5
		c10,4.1,50.9,21.1,94.6,2.3c11.2-4.8,37.1-16,47.3-40.5c6.5-15.7,9-42.8,9-42.8l0,0C444.5,369,241.8,369,241.8,369L241.8,369z"/>
	<path class="st4" d="M235,371.3c0,0,1.5-4.9,2.3-6.8c0,0,2-4.8,9-9c12.1-7.2,79.7-6.6,94.6-6.8c15.5-0.1,82.1-2,96.9,4.5
		c6.2,2.7,9,6.8,9,6.8c3,4.4,4.5,11.3,4.5,11.3l0,0C451.2,371.3,235,371.3,235,371.3L235,371.3z"/>
</g>
<g>
	<g>
		<path class="st5" d="M329.9,27.9c-4,0.7-15.5,2.6-26,8.6c-17.7,10.2-25.3,27.6-28.4,34.8c-7.4,17.7-2.4,22.2-4.8,67.9
			c-1.4,29.6-4.1,40.5,0,61.7c2.6,12.7,6.4,22.9,14.3,31.5c7.1,7.7,14.6,11.4,20.5,14.3c7.7,3.6,43.9,19.1,72.7,1.5
			c9.1-5.7,15.3-13.3,17.4-15.8c2.8-3.4,8.4-11.2,12.6-23.8c6.2-18.3,3.6-30.3,3.1-61.7c-0.5-40,3.3-43.7-1.5-63.2
			c-3.1-12.1-6.4-24.6-17.4-36.3c-16.2-17.2-37.2-20-41-20.5C341.8,26,334,27.2,329.9,27.9z"/>
		<path class="st6" d="M331.8,79.4c-3.3,0.5-12.4,2.1-20.8,6.7c-14.3,7.9-20.3,21.2-22.7,26.9c-6,13.6-2.1,17-3.8,52.4
			c-1.2,22.9-3.3,31.2,0,47.5c2.1,9.8,5,17.6,11.4,24.3c5.7,6,11.7,8.8,16.5,11c6.2,2.8,35.3,14.8,58.2,1.2
			c7.4-4.3,12.4-10.3,13.9-12.2c2.2-2.8,6.7-8.6,10.2-18.3c5-14.1,2.9-23.4,2.6-47.5c-0.5-30.8,2.6-33.8-1.2-48.7
			c-2.4-9.3-5.2-18.9-13.9-28.1c-12.9-13.3-29.8-15.5-32.9-15.8C341.3,78,335.2,78.8,331.8,79.4z"/>
		<path class="st7" d="M296,69.7c0,0-2.2,2.6-4,5.5c-6.4,10.5-3.1,29.3-2.4,51.3c0.7,17.2-0.9,16.7,0.9,22.9
			c5.2,18.9,20.7,29.1,22,30c15.8,10,37.5,11.2,54.4,0.9c1-0.7,16.9-10.8,22-30c0.9-3.3,1-5.5,1.5-14.3c2.6-46.2,0.7-52.2-1.5-56.8
			c-5.3-10.7-13.8-16.5-17.4-18.9c-26-17.4-57.3-4.6-64.8,0C300.4,64.4,296,69.7,296,69.7z"/>
		<path class="st8" d="M302.2,107.6c-0.2-0.3,1.7-3.1,4.8-4.8c3.8-2.1,8.8-2.1,12.6,0c3.1,1.7,5,4.5,4.8,4.8
			c-0.2,0.3-2.4-2.1-6.4-3.1c-4.6-1.4-8.6-0.2-9.5,0C304.6,105.5,302.5,107.9,302.2,107.6z"/>
		<path class="st8" d="M357.4,107.6c-0.2-0.3,1.7-3.1,4.8-4.8c3.8-2.1,8.8-2.1,12.6,0c3.1,1.7,5,4.5,4.8,4.8
			c-0.2,0.3-2.4-2.1-6.4-3.1c-4.6-1.4-8.6-0.2-9.5,0C359.9,105.5,357.6,107.9,357.4,107.6z"/>
		<circle class="st8" cx="315.6" cy="119.5" r="5.5"/>
		<circle class="st8" cx="366.1" cy="119.5" r="5.5"/>
		<path class="st9" d="M313.2,140.8c0,0,3.3,5.5,4.8,7.9c1.5,2.2,5.2,7.7,11,11c7.6,4.1,16.9,3.4,23.8,0c5.3-2.8,8.6-6.7,9.5-7.9
			c3.4-4.5,6.4-11,6.4-11l0,0C368.5,140.8,313.2,140.8,313.2,140.8L313.2,140.8z"/>
		<path class="st10" d="M322.7,153.4c0.2-1.2,1.4-1.9,3.1-3.1c2.8-1.9,5.7-2.8,9.5-3.1c3.6-0.3,13.6-1,22,4.8
			c0.7,0.5,1.4,0.9,1.5,1.5c0.7,3.1-9.1,9.6-18.9,9.5C331.1,162.7,322.3,156.8,322.7,153.4z"/>
		<path class="st3" d="M319.6,145.5c14.3,0,28.4,0,42.7,0c0-1.5,0-3.1,0-4.8h-42.7C319.6,142.4,319.6,143.9,319.6,145.5z"/>
		<path class="st7" d="M330.6,186.5c-1.4,1.4-0.7,3.8,0.9,10c3.1,12.7,2.9,14.3,5.5,21.9c3.3,9.3,4.3,9.5,4.8,9.5
			c1-0.2,1.5-2.4,3.1-9.5c1.5-7.1,2.9-14.1,4.8-21c1.9-6.9,3.1-9.3,1.5-10.7c-1.5-1.5-4,0.2-11,0C334,186.3,332.1,185.1,330.6,186.5
			z"/>
		<path class="st11" d="M281.7,60.2c-0.2,6.4,9.3,11.4,16.5,15c19.5,9.6,29.3,14.5,45.8,17.4c21.4,3.8,61.3,6.9,65.4-5.5
			c0.3-1,0.3-1.9,0-4.8c-2.9-19.6-16-33.4-17.4-34.8c-13.6-13.9-29.4-17.7-34.8-18.9c0,0-31.3-7.2-58.4,11
			c-7.2,4.8-12.6,11.9-14.3,14.3C282.2,57.5,281.7,58.9,281.7,60.2z"/>
	</g>
	<path class="st7" d="M347.1,206.4c4.3,1.5,10.9,3.9,18.9,6.9c13.3,4.9,19.9,7.3,22.4,8.6c17,8.9,25.8,32.4,27.4,49.9
		c3.3,36.1-22.1,71.8-33.7,69.8c-3.8-0.6-7.1-5.5-7.2-9.6c-0.2-7.1,9-10.5,14.4-16.9c15.1-17.7,0-58.2-4.8-57.8
		c-4.4,0.4-9.1,36.1-2.4,69.8c1.7,8.3,9.3,21.1,7.2,38.5c-0.7,5.6-1.3,10.5-4.4,15.3c-14.6,22.1-68.2,15.9-75-1
		c-1.2-2.9-1.7-8.1-2.1-12.2c-0.7-6.6-0.7-11.1-0.3-17.4c0.4-6.9-0.1-13.9-0.1-20.9c0-9.6-1.3-28.1-7.2-67.4
		c-5.5,15.8-13.9,40.6-24.1,72.2c-5.5,17-7.5,23.6-10.7,23.8c-6.1,0.3-15.5-21.7-30.2-119.3c0,0-19.5-5.9-6.6-27.2
		c0,0-9.4-19.2-4.3-23.7c4.9-4.5,10.5,19.2,10.5,19.2s1.3-17.3,4.1-19.7c2.8-2.3,3.4,19,3.4,19s11.3,16.2,6.6,26.5
		c-4.7,10.3,16.9,68.5,16.9,68.5s9.6-80.6,44.3-85.6c8.3-3.2,16.6-6.3,24.8-9.5C339.1,206.4,343.1,206.4,347.1,206.4z"/>
	<path class="st12" d="M269.6,270.2c0.9,12.8,17.2,23.7,22.4,20.7c1.8-1.1,0.6-2.9,3.4-12.1c1.4-4.7,6.9-18.4,5.2-13.8l0,0
		c0,0,1.6,11.1,1.7,12.1c1.9,13.5,3.2,22.6,3.4,32.7c0.1,5.5-0.5,16.3-1.7,37.9c-0.4,6.6-0.4,7.3,0,8.6c6.8,20,76.7,23.8,87.8,1.7
		c2.6-5.1-0.8-6.1-8.6-41.3c-1-4.6-5.8-27-1.7-49.9c0.7-3.9,1.8-8.5,3.4-8.6c2.4-0.1,5.7,9,6.9,17.2c1.1,7.8-0.3,10.2,1.7,12.1
		c4.3,3.9,17.6,0.1,22.4-8.6c3.2-5.9,1.9-12.9,1.7-13.8c-0.3-1.7-0.8-2.9-1.7-5.2c-3.3-7.9-4.9-11.9-6.9-15.5
		c-2.3-4.2-7.3-13.2-17.2-20.7c-5.3-4-15-11.3-24.1-8.6c-2.9,0.8-2.4,1.7-8.6,5.2c-6.5,3.7-11.2,6.3-17.2,6.9
		c-10.2,1.1-18.7-4-20.7-5.2c-6-3.6-6.3-6.1-10.3-6.9c-6.5-1.2-12.4,4.2-17.2,8.6c-9.5,8.7-13.7,18.1-20.7,34.4
		C269.8,265.7,269.4,267.8,269.6,270.2z"/>
</g>
<path class="st13" d="M309.3,379c0,0-9.3,18.3-16.6,32c-17.3,32.8-17.1,29.3-19,35c-2.1,6.7-1.6,9.2,3.6,51c5.3,43.1,6.1,51.3,0,62
	c-3.1,5.4-6.6,9.1-4.7,13c4.6,9.5,37.2,12.5,48.6,1c4.4-4.4,3.8-9.1,2.4-27c-3.7-46.4-1-28.3-3.6-51c-3.8-33.1-5.4-35.3-2.4-43
	c4.1-10.4,8.2-9.3,20.1-31c4.8-8.8,7.5-14.9,11.9-15c4-0.1,7,5,11.9,13c17,27.9,16.5,23.9,19,30c2.6,6.2,2.4,8.7,2.4,46
	c0,48.2,0.2,46.6,0,48c-1.9,12.7-4.2,17.8,0,23c8.8,10.9,37.3,11.7,43.8,3c3-4,0.7-8.9-1.2-14c-4-10.9-3.4-29.3-2.4-66
	c0.9-32.3,4.8-31.7,1.2-43c-2.5-7.6-3.4-5.3-21.3-37c-7.2-12.7-16.6-30-16.6-30l0,0C386.3,379,309.3,379,309.3,379L309.3,379z"/>
<path class="st7" d="M384,320c0,0-19.8,7.5-33,23c-6.7,7.8-12,18.1-13,20c-3.5,6.8-3.6,9-6,12c-1.2,1.5-1.8,2.3-3,3
	c-4.5,2.7-8.9-0.4-11,2c-1.3,1.4-1.1,4.1,0,5c1,0.8,2.6-0.2,6-1c1.3-0.3,7.9-1.8,9,0c0.2,0.3,0.3,0.9-4,9c-0.5,1-1.3,2.4-1,4
	c0.2,1.2,1,2.9,2,3c2.9,0.3,6.4-14.2,7-14c0.3,0.1-0.3,4.4-1,8c-0.6,3.4-1.2,5.5,0,7c0.1,0.1,1,1.2,2,1c1.3-0.2,1.9-2.4,2-3
	c0.4-1.8,0.1-3.2,0-4c-0.7-4.7,1.7-9.1,2-9c0.3,0.1-0.3,3.7,0,10c0.1,1.9,0.3,4.3,2,6c0.3,0.3,1.3,1.3,2,1c1.2-0.4,1.1-3.7,1-5
	c-0.1-2.5-0.6-3.2-1-6c-0.4-2.8-0.4-5.9,0-6c0.5-0.1,1.2,3.3,4,8c1.1,1.8,2.1,3.2,3,3c0.6-0.1,0.9-0.8,1-1c1.4-2.9-3.2-6.4-4-12
	c-0.3-2.2-0.2-3.9,1-7c2.9-7.1,4.3-10.6,8-16c6.2-9.1,9.4-13.6,13-15c3.8-1.5,11.6-2.8,15-5c0.1-0.1,3-2,3-2
	C390,339,384,320,384,320z"/>
</svg>
