<svg xmlns="http://www.w3.org/2000/svg" xmlns:xlink="http://www.w3.org/1999/xlink" viewBox="0 0 1300 900"><defs><style>.cls-1{fill:none;}.cls-2{fill:#89cce5;}.cls-3{clip-path:url(#clip-path);}.cls-4{fill:#152230;}.cls-5{fill:#f2902c;}.cls-11,.cls-6{fill:#fff;}.cls-12,.cls-13,.cls-14,.cls-15,.cls-16,.cls-17,.cls-18,.cls-24,.cls-25,.cls-7{fill:#202532;}.cls-19,.cls-8,.cls-9{fill:#e9eced;}.cls-9{stroke:#bcbcbc;stroke-width:3px;}.cls-10,.cls-11,.cls-9{stroke-miterlimit:10;}.cls-10{fill:#f4912d;}.cls-10,.cls-11{stroke:#fff;stroke-width:10px;}.cls-12{font-size:70px;}.cls-12,.cls-13,.cls-14,.cls-15,.cls-16,.cls-17,.cls-18,.cls-24,.cls-25{font-family:FuturaPT-Bold, Futura PT;font-weight:700;}.cls-13{font-size:59.58px;}.cls-14{font-size:48.98px;}.cls-15{font-size:46.31px;}.cls-16{font-size:56.94px;}.cls-17{font-size:56.45px;}.cls-18{font-size:60.96px;}.cls-19{font-size:45px;font-family:FuturaPT-Demi, Futura PT;}.cls-20{letter-spacing:-0.06em;}.cls-21{letter-spacing:-0.06em;}.cls-22{letter-spacing:0.02em;}.cls-23{letter-spacing:0.04em;}.cls-24{font-size:28.96px;}.cls-25{font-size:43.8px;}</style><clipPath id="clip-path"><rect class="cls-1" x="827" y="33" width="239.79" height="173"/></clipPath></defs><title>annonce_facebook</title><g id="Layer_2" data-name="Layer 2"><g id="Layer_1-2" data-name="Layer 1"><rect class="cls-2" width="1300" height="900"/><g id="Privat_snak_logo" data-name="Privat snak logo"><g class="cls-3"><g class="cls-3"><path class="cls-4" d="M861.9,118.39a12,12,0,0,0-3.17,2.19c-3.61,2.72-7.19,5.49-10.79,8.23-.28.22-.54.64-1,.47s-.31-.73-.31-1.12c0-5.56-.06-11.13,0-16.69,0-1.3-.4-1.56-1.6-1.53-3.53.08-7.07,0-10.61,0a7.37,7.37,0,0,1-7.45-7.58c0-20.32.1-40.64,0-61,0-5.19,3.68-8.41,8.43-8.41q111.82.13,223.64.06a7.31,7.31,0,0,1,7.71,7.72q0,30.77,0,61.53c0,3.86-2,6.38-6.1,7.6-.8,0-1.6,0-2.4,0H874.17a4,4,0,0,0-2.85.9c-1.8,1.51-3.79,2.79-5.6,4.29-1.29,1.07-2.88,1.79-3.83,3.26"/><path class="cls-5" d="M861.9,118.39c.94-1.47,2.54-2.19,3.83-3.26,1.81-1.5,3.8-2.78,5.6-4.29a4,4,0,0,1,2.85-.9h184.11c.8,0,1.6,0,2.4,0,.44.86,1.44.76,2.13,1.21a7.25,7.25,0,0,1,3.55,6.46c0,20.37-.07,40.74.06,61.1a8,8,0,0,1-8.21,8.2q-54.6-.11-109.2,0c-13.15,0-26.31,0-39.46,0a5.88,5.88,0,0,0-3.84,1.33q-9.25,7.16-18.53,14.28c-1.41,1.09-2.87,2.12-4.29,3.2-.88.67-1.2.44-1.2-.63q0-8,0-16c0-2.13,0-2.16-2.13-2.17-3.21,0-6.42-.1-9.62,0a7.77,7.77,0,0,1-8-8.09c.08-19.66,0-39.32,0-59,0-.47,0-.94,0-1.41"/><path class="cls-6" d="M868,91.34H857.62V51.56h16.46q6.7,0,10.26,3.48t3.56,9.81q0,6.33-3.56,9.81t-10.26,3.48H868Zm0-21.53h3.43q5.7,0,5.7-5t-5.7-5H868Z"/><path class="cls-6" d="M924.46,91.34H911.59L901.72,76v15.3H891.38V51.56h16.09a15.81,15.81,0,0,1,5.8,1,10.93,10.93,0,0,1,6.52,6.57,13.61,13.61,0,0,1,.82,4.75,11.67,11.67,0,0,1-2.19,7.36A11,11,0,0,1,912,75Zm-22.74-22h2a7.54,7.54,0,0,0,4.7-1.27,4.87,4.87,0,0,0,0-7.28,7.54,7.54,0,0,0-4.7-1.27h-2Z"/><rect class="cls-6" x="927.62" y="51.56" width="10.34" height="39.78"/><polygon class="cls-6" points="952.2 51.56 961.8 75.78 971.46 51.56 982.7 51.56 965.92 91.34 957.68 91.34 940.96 51.56 952.2 51.56"/><path class="cls-6" d="M1005.21,84.71H990.43l-2.37,6.91H977l15.14-39.78h11.29l15.14,39.78h-11Zm-2.74-7.86-4.64-13.24-4.64,13.24Z"/><polygon class="cls-6" points="1033.91 60.6 1033.91 91.63 1023.57 91.63 1023.57 60.6 1015.07 60.6 1015.07 51.84 1042.4 51.84 1042.4 60.6 1033.91 60.6"/><path class="cls-6" d="M914.32,138.3a12.77,12.77,0,0,0-3.37-2,9,9,0,0,0-3.26-.66,5.29,5.29,0,0,0-3.26.95,3,3,0,0,0-1.26,2.47,2.46,2.46,0,0,0,.63,1.74,5.49,5.49,0,0,0,1.66,1.18,14.06,14.06,0,0,0,2.32.87q1.29.37,2.55.79a15.92,15.92,0,0,1,7.39,4.5,11.1,11.1,0,0,1,2.34,7.34,14.29,14.29,0,0,1-1,5.52,11.52,11.52,0,0,1-3,4.24,13.82,13.82,0,0,1-4.84,2.74,20.17,20.17,0,0,1-6.5,1,23.9,23.9,0,0,1-13.94-4.47l4.42-8.31a17.91,17.91,0,0,0,4.58,3.05,11,11,0,0,0,4.47,1A5.34,5.34,0,0,0,908,159a3.59,3.59,0,0,0,.92-4.18,3.37,3.37,0,0,0-1.05-1.21,8.43,8.43,0,0,0-1.92-1q-1.18-.47-2.87-1.05-2-.63-3.92-1.39a12.32,12.32,0,0,1-3.42-2A9.4,9.4,0,0,1,893.3,145a11.25,11.25,0,0,1-.92-4.87,14.06,14.06,0,0,1,1-5.34,11.87,11.87,0,0,1,2.74-4.1,12.2,12.2,0,0,1,4.31-2.66,16.3,16.3,0,0,1,5.71-.95,25,25,0,0,1,6.16.82,27.19,27.19,0,0,1,6.16,2.39Z"/><polygon class="cls-6" points="923.95 167.82 923.95 128.15 934.27 128.15 953.31 152.41 953.31 128.15 963.58 128.15 963.58 167.82 953.31 167.82 934.27 143.56 934.27 167.82 923.95 167.82"/><path class="cls-6" d="M993.72,160.93H979l-2.37,6.89h-11l15.1-39.67H992l15.1,39.67h-11ZM991,153.09l-4.63-13.21-4.63,13.21Z"/><polygon class="cls-6" points="1019.35 144.51 1031.92 128.15 1044.66 128.15 1028.93 146.93 1046.13 167.82 1032.77 167.82 1019.35 150.62 1019.35 167.82 1009.04 167.82 1009.04 128.15 1019.35 128.15 1019.35 144.51"/></g></g></g><path class="cls-7" d="M441,37.36c1.15-.82,2.87-.57,5.08-.25,2,.25,2.62.74,3.27.25.82-.57.57-2,.41-3.68-.49-5.16-.65-7.7.41-8.76,1.64-1.56,6.39-.49,7.7,2,.41.82.33,2.21.16,4.91-.25,3.68-.74,4.42-.08,5.24.16.25.74.82,5.24.74,3.93-.08,4.91-.57,5.65.25,1.06,1.15.57,3.93-.9,5-.49.33-1,.41-3.85.16-3.93-.41-5.24-.82-6.14,0a2.79,2.79,0,0,0-.57,2.29c0,.08-.16,6-.49,17.85a35.47,35.47,0,0,0,.41,8.51c.65,3.93,1.56,4.67,2.13,4.91,1.47.57,3.36-1,4.5-2a18.56,18.56,0,0,0,5.32-7.53c4-10.64,4.5-21.37,4.83-28.33.16-3.6.25-5.4-.08-7.12s-.33-3.36-.57-5.08c-.16-1-.25-1.39,0-1.72.9-1.47,5.57-1.23,7.7,1.15,1,1.06,1.15,2.29.9,7.94-.25,7.2-.41,10.81-.82,13.84-.65,4.75-1.23,7-.41,7.37,1.39.65,3.68-4.91,8.35-5.4a8.64,8.64,0,0,1,8,4.26c2.29,4.42-.9,11.05-3.68,16.7-1.64,3.44-2.95,5.16-2.29,6,1,1.06,5.16-.57,8-3,2.21-1.88,3.19-3.93,5.32-8.19a63.7,63.7,0,0,0,3.93-9.25c1.06-3.27,1-3.93,2-5,2.29-2.54,6.55-2.7,9.41-2,1.31.33,3.6.9,4.91,2.95,1.64,2.46.74,5.48.33,7.2a8.06,8.06,0,0,1-2,4c-2.87,2.87-7.2,1.23-7.94,2.95-.49,1.23,1.06,3.44,2.87,4.26,3.27,1.39,7.94-1.56,10.23-3.93,1.39-1.39,1.88-2.46,2.46-2.29,1.06.33,1.06,4.91-.25,8.68-.57,1.64-3.11,9.25-10.07,10.31a11.93,11.93,0,0,1-10.89-4.18c-2.62-3.36-2-7.53-3.44-7.7-1-.08-1.39,1.8-3.6,4.42a20.53,20.53,0,0,1-6.55,4.75c-.82.33-7,3-9.41.65-.49-.57-1.39-1.88.41-8.1,2.62-9.5,6.55-13.34,5.32-14.82-1.15-1.31-6.14-.08-9.33,3-3.36,3.36-1.88,6-5.57,11.79a18.13,18.13,0,0,1-7.12,7,17.1,17.1,0,0,1-8.76,1.64c-2-.16-5.81-.41-8.68-2.95s-3.36-6-3.85-9.82c-.33-2.54-.41-5,.74-18.09.41-4.67.57-6.71-.74-7.86-2.54-2.13-7.37,1.15-9-.9C438.87,41.12,439.52,38.34,441,37.36Z"/><path class="cls-2" d="M514.67,60.44c2,.82,4.34-.65,5.48-2,.25-.33,2-2.29,1.39-3.77s-3.52-1.56-5.32-.82-3.77,2.87-3.27,4.67A2.63,2.63,0,0,0,514.67,60.44Z"/><rect class="cls-7" y="635.43" width="1300" height="263.57"/><path class="cls-8" d="M573.59,382A79.28,79.28,0,0,1,578.5,374a26.48,26.48,0,0,1,4.92-4.71s1.83-1.37,12.64-7H697.2V359.5h29.5v2.81a31.21,31.21,0,0,1,7,0,28.3,28.3,0,0,1,9.83,2.81,29.5,29.5,0,0,1,9.83,8.43h0c3.6,3.6,5.62,11.24,5.62,11.24h0V731.72c-2.2,7.38-5.64,11.57-8.43,14-5.27,4.68-14,8.43-14,8.43H593.26c4.86,2.49-10.54-4.24-14-8.43-.81-1-2.41-4.39-5.62-11.24h0V382Z"/><rect class="cls-7" x="586.23" y="418.49" width="157.32" height="279.52"/><path class="cls-7" d="M662.08,380.57a3.33,3.33,0,0,1,1.4-1.4,4.31,4.31,0,0,1,4.21,0,3.14,3.14,0,0,1,0,5.62,4.31,4.31,0,0,1-4.21,0,3.14,3.14,0,0,1-1.4-4.21Z"/><path class="cls-7" d="M648,396a8.83,8.83,0,0,1,1.4-2.81h30.9a9.34,9.34,0,0,1,1.4,2.81c.3,2-1.4,4.21-1.4,4.21h-30.9C649.47,400.3,647.73,398,648,396Z"/><path class="cls-6" d="M701.54,554.77l-71.43-.3a11.94,11.94,0,0,1-8.19-8.31l.28-72.74a11.94,11.94,0,0,1,8.31-8.19l71.43.3a11.94,11.94,0,0,1,8.19,8.31l-.28,72.74a11.52,11.52,0,0,1-3,5.21A13.12,13.12,0,0,1,701.54,554.77Z"/><path class="cls-7" d="M697.25,491.83l-9.56,0a3.75,3.75,0,0,1-2.82-1.31,2.91,2.91,0,0,1-.64-2l.06-10.2a2.51,2.51,0,0,1,.61-1.28,1.79,1.79,0,0,1,1.34-.67h10.87a4.27,4.27,0,0,1,2,1.31,3,3,0,0,1,.67,1.34l-.06,10.2a4.27,4.27,0,0,1-1.31,2A1.39,1.39,0,0,1,697.25,491.83Z"/><circle class="cls-7" cx="666.03" cy="509.94" r="17.89" transform="translate(153.29 1173.81) rotate(-89.76)"/><path class="cls-7" d="M632.78,501.28h7a29.89,29.89,0,0,0,.59,17.2c3.4,9.59,13,19.2,26,19.26A27.87,27.87,0,0,0,691.87,520a38.62,38.62,0,0,0,1.34-9.59s0-1.48-.64-8.95l7.61,0L700,539.77a7.26,7.26,0,0,1-1.31,2.82h0a10.23,10.23,0,0,1-1.92,1.31l-60.51.36h0a8.25,8.25,0,0,1-2.79-2,14.06,14.06,0,0,1-.64-4.77h0C632.64,537.66,632.78,501.28,632.78,501.28Z"/><path class="cls-9" d="M654.36,718.26a15.09,15.09,0,0,1,6-6.68,16.93,16.93,0,0,1,18.08,0,15.09,15.09,0,0,1,6,6.68c2.95,6.55.17,13,0,13.36a15.09,15.09,0,0,1-6,6.68,16.93,16.93,0,0,1-18.08,0,15.09,15.09,0,0,1-6-6.68C651.41,725.07,654.19,718.64,654.36,718.26Z"/><rect class="cls-10" x="810.6" y="260.27" width="99.9" height="99.9"/><rect class="cls-11" x="811" y="364.57" width="99.9" height="17.58"/><text class="cls-12" transform="translate(841.52 335.07)">?</text><rect class="cls-10" x="391.25" y="618.96" width="85.03" height="85.03" transform="translate(470.96 -128.66) rotate(35.95)"/><rect class="cls-11" x="359.97" y="697.69" width="85.03" height="14.97" transform="translate(490.66 -101.98) rotate(35.95)"/><text class="cls-13" transform="translate(408.24 669.09) rotate(35.95)">?</text><rect class="cls-10" x="444.87" y="255.71" width="99.9" height="99.9" transform="translate(113.34 -133.37) rotate(17.31)"/><rect class="cls-11" x="426.47" y="357.27" width="99.9" height="17.58" transform="translate(130.48 -125.16) rotate(17.31)"/><text class="cls-12" transform="translate(469.27 323.72) rotate(17.31)">?</text><rect class="cls-10" x="410.6" y="433.27" width="99.9" height="99.9"/><rect class="cls-11" x="411" y="537.57" width="99.9" height="17.58"/><text class="cls-12" transform="translate(441.52 508.07)">?</text><rect class="cls-10" x="959.89" y="506.52" width="99.9" height="99.9" transform="translate(390.19 -415.88) rotate(28.64)"/><rect class="cls-11" x="929.98" y="603.28" width="99.9" height="17.58" transform="translate(413.18 -394.75) rotate(28.64)"/><text class="cls-12" transform="matrix(0.88, 0.48, -0.48, 0.88, 981.23, 569.16)">?</text><rect class="cls-10" x="258.34" y="471.21" width="99.9" height="99.9" transform="matrix(0.92, -0.39, 0.39, 0.92, -178.34, 160.82)"/><rect class="cls-11" x="283.25" y="570.39" width="99.9" height="17.58" transform="translate(-198.93 175.06) rotate(-22.87)"/><text class="cls-12" transform="translate(300.42 551.45) rotate(-22.87)">?</text><rect class="cls-10" x="312.73" y="306.63" width="69.91" height="69.91" transform="translate(151.13 -104.43) rotate(21.72)"/><rect class="cls-11" x="296.63" y="376.58" width="69.91" height="12.3" transform="translate(165.22 -95.55) rotate(21.72)"/><text class="cls-14" transform="translate(328.88 352.81) rotate(21.72)">?</text><rect class="cls-10" x="661.79" y="245.29" width="66.09" height="66.09" transform="translate(-50.23 350.09) rotate(-27.33)"/><rect class="cls-11" x="681.21" y="309.51" width="66.09" height="11.63" transform="translate(-65.04 363.13) rotate(-27.33)"/><text class="cls-15" transform="translate(691.21 298.72) rotate(-27.33)">?</text><rect class="cls-10" x="973.3" y="347" width="81.27" height="81.27"/><rect class="cls-11" x="973.63" y="431.85" width="81.27" height="14.3"/><text class="cls-16" transform="translate(998.46 407.85)">?</text><rect class="cls-10" x="825.2" y="438.69" width="80.56" height="80.56" transform="translate(-123.52 497.75) rotate(-30.05)"/><rect class="cls-11" x="850.98" y="515.79" width="80.56" height="14.18" transform="translate(-142.04 516.55) rotate(-30.05)"/><text class="cls-17" transform="matrix(0.87, -0.5, 0.5, 0.87, 862.24, 504)">?</text><path class="cls-7" d="M263.35,192.16c-.9-1.06.41-2.87,1.72-7.37a80.22,80.22,0,0,0,1.64-8.92c1.72-10.81-.57-32.83.41-51.9.82-16.29,3.11-24.56.74-25.38-2.62-.9-8.35,7.78-11,15.14-1,2.87-3.6,10.48-1.56,19.32,1.8,7.53,5.73,10.89,4.58,12.12-1.47,1.47-9.5-1.88-13.67-8.35-4.58-7.2-2.62-15.55-1.56-20.47.65-2.78,3.77-14.82,14.74-22.35,2.87-2,8.19-5.48,14.41-4.42,1.06.16,5.65,1,7.61,4.42a8.33,8.33,0,0,1,.82,5c-2.7,24.64,1.23,52.07-2,67a6.73,6.73,0,0,0,.41,4.58,6.61,6.61,0,0,0,7.29,2.78c2-.74,3.27-2.87,4.42-7.94,2.87-13.43.41-31.11-.25-35.45-.25-2-.82-5.24,1.06-6.88,2.13-2,6.39-.82,9.25,0a4.6,4.6,0,0,1,2.7,1.64,4.17,4.17,0,0,1,.33,3c-.9,4.83-2.54,24.31-1.39,24.64.74.16,3.19-6.71,8.76-17.85,2.78-5.57,4.58-8.6,8.19-10.72a13.31,13.31,0,0,1,9.25-1.64,12.1,12.1,0,0,1,8.6,7.37,12.47,12.47,0,0,1,.41,5.89c-1,9.09-.49,18.34-.82,27.42-.25,5.4-.25,7,.65,7.37,1.72.74,4.09-4.34,13.18-15.31,4.75-5.73,7.37-8.27,6.71-11.54s-3.6-3.19-4.58-6.71c-1.56-5.16,3-11.3,7.37-14.24,1.47-1,4.58-3.11,8.6-2.54,1.23.16,4.18.65,5.24,2.7,1.72,3.36-2,9.33-5.24,14.49-1,1.56-1.23,1.8-1.23,2.54,0,3.52,7.37,4,14,10.89,2,2,4.67,4.91,5.48,9.25.65,3.68-.57,5.89.25,6.3,1.56.82,8.43-5.73,11.13-14.65,1.15-3.77.41-4.18.82-16.29s1.23-14.65-.82-16.37c-3.93-3.27-11.54,2.7-14.65-.65-1.88-2-1.47-6.71.82-8.76,3.68-3.27,10.07,1.8,13.43-1.06,4.42-3.68-2.78-15.55,1.23-18.58,0,0,1.47-1.06,14.24,3.27,0,1.06,0,2.7-.16,4.58-.49,8.6-1.8,10.07-.65,11.54,2.7,3.77,13-2.46,16.95,1.88,1.72,1.88,1.8,5.32.41,6.88-.82.9-2,1.06-9.41.82-4.67-.16-7-.08-7.53.25-4.34,2.21-1.31,11.38-1.39,28.73,0,13.43-1.88,21,2.87,24.31a7.09,7.09,0,0,0,4.83,1.23c6.14-.9,8.76-12,9.41-14.65,1.23-5.24.41-6.3,1.06-12s2.29-19.48,11.54-24.07c3.19-1.64,9-2.95,13.18-.41,3.19,2,4.91,5.81,6.47,5.24,1.06-.33.57-2,1.88-3.36,2.21-2.13,7.53-1.64,9.82,1.06,1.64,2,1.39,4.67,1.23,6.06,0,0-1.23,12.28,0,36.68.16,2.62.33,5.65,2.29,6.71,2.29,1.23,6.14-.57,8.19-3.11,1.06-1.31,1.56-2.95,1.88-5.89a36.74,36.74,0,0,0-.82-11.71c-2.37-9.5,1.8-23.9,10.72-30,4-2.7,11.13-5.24,16-2.54,3.52,2,5.32,6.39,6.71,5.89,1.06-.41,0-2.95,1.47-4.58,2.13-2.37,8.68-1.56,11.13,1.88,1.8,2.62.9,6.14.49,7.61-3.44,13.67-2.95,34.55-.33,35.37,2.29.65,12-11.46,11.46-24.4-.16-3.11-.9-7.12,1.15-11.87a15.6,15.6,0,0,1,6.47-7.78c4.91-2.7,11.62-2.21,15.47,1.06,3.52,2.95,4.18,7.61,5.65,7.37,1.31-.25.82-3.85,3.11-5.24a5.67,5.67,0,0,1,6.06.82c2.95,2.87-1.23,8.27-2.95,21a59.87,59.87,0,0,0,1.64,21c1,3.52,1.88,5.57,3.36,5.89,2.54.49,5.81-4.34,7.37-7.78,2.46-5.48,2.21-10.23,1.88-16.13-1.23-24.64.16-27.75,2.29-29.14,2.37-1.56,6.3-1.39,7.94.41,1.06,1.23,1,2.87.82,4.58-.41,6.47-.41,14.9.41,15.06s3.11-6.22,4.58-11.3c1.8-5.81,1.72-7.61,3.6-8.76,3-2,8.51-.57,10.23,2.54,1.23,2.21.08,4.26-1.47,9.66-2.37,8.51-2.95,15.64-2.54,15.72s2.95-6.39,8.6-20.3c1.23-3.11,2.37-5.65,5-7.37,3.44-2.13,8.92-2.46,11.13,0,2.95,3.36-2.21,9.33-5.48,22.59-2,8.51-4.5,24.4.41,26.85,2.95,1.47,7.7-2.46,11.3-5.48,3.36-2.78,7.86-7.45,12.36-16.78,6-12.53,3.11-15.06,7.94-21,4.67-5.65,13-10,21.37-8.6.9.16,11.46,2.13,13.43,9.66,1.72,6.63-4,14.24-10.07,16.78-6.3,2.62-10.07-.65-13.43,2.54-4.09,3.85-3.19,13.75,1.88,18.83.74.74,3.77,3.85,7.7,3.44,2.62-.25,4.91-2,7.7-6.14,7.2-10.64,7.29-21.53,8.19-21.45s2.62,9.58-.82,20.3c-2.37,7.37-5.32,16.37-13.84,19.48-5.16,1.88-12,1.47-16.95-2.13-9.09-6.55-7.86-20.71-11.13-20.71-1.72,0-1.8,3.85-5.24,9-.41.57-6.63,9.74-17.85,12.61-1.23.33-11.71,2.95-15.06-1.64-1.64-2.21-1-5.24-.65-6.71,2.46-11.13,7.45-33.89,6.3-34.38s-11.3,18.5-13.18,30.62c-.16.9-1.47,9.66-1.47,9.66s-5.08,1.15-6.71.41c-6.06-2.62,6.79-41.26,3.6-42.57-1.47-.57-7.2,6.71-10.56,15.88-4.75,13-1.56,21.28-8.6,27.83a16.58,16.58,0,0,1-7.53,4c-3.6.74-9.17.49-12.36-2.95-3.68-4-2-10-3.77-10.23-1.31-.25-2.21,3.52-5.89,7.94-2.54,3-5.81,7-10.23,7.37-5.32.33-11-5-12.61-10.23-1.23-4-.08-7.78-1.47-8.19-.74-.25-1.39.65-4.42,3.36-2.7,2.46-3.6,2.95-4.18,3.6-3.6,3.6-.16,11.62.65,19.73.25,2.21,1.64,16.45-6.71,25.38-4.18,4.5-12.44,9.33-20.55,6.47-6.3-2.21-11.79-9-11.54-15.47.49-12.12,20.63-26.93,23.25-28.65a8,8,0,0,0,2.78-3.19c1.06-2.37.82-5.48-.25-5.89-.82-.33-1.8,1.39-3.77,3.36-1.8,1.8-6.63,6.88-12,6.71-4.42-.08-8.1-3.77-9.41-5-2.7-2.62-3.44-5-5-4.83-1.72.16-1.72,3-4.18,5.48-2.78,2.78-7.86,4.09-11.54,2.78-6-2.21-5.81-10.81-9.66-11-2.46-.08-2.87,3.44-8.35,7.53-2.46,1.8-5.57,4.09-9.66,4.18-5.08.16-9.66-3.11-12.12-6.47-3.19-4.34-3-9.09-4.18-9-1,.08-.74,3.6-3.52,7.7a18.19,18.19,0,0,1-4.42,4.42c-1.56,1.15-3.6,2.7-6.06,3.11-4.5.82-9.17-2.37-11.71-5.48-5.48-6.63-3.52-15.72-5.48-16-1-.08-1.56,2.29-4.42,6.88-1.56,2.54-3.85,6.3-7.12,9-3.93,3.27-8.1,4.18-11.54,4.83,0,0-11.54,2.29-20.55-3.11a4.72,4.72,0,0,1-2.29-2.54c-1.15-3.36,2.7-8.6,6.06-8.6,1.56,0,1.8,1.15,4.42,2.54.41.25,6.3,3.36,9.25,1.47,3.19-2,1.8-9.33.65-13-2.13-6.55-7.53-12.93-10.48-12-1.39.49-1.15,2.21-2.7,6.3-1,2.54-3.85,6.47-9.41,14.24-4.34,6.06-5.48,7.37-7.12,9-3.6,3.52-6,5.89-9,5.89-5.32-.08-9.09-7.45-9.66-8.6-1.72-3.52-2.37-7.45-.65-24.07,1.23-11.62,2.29-17,.49-17.85s-5.08,3.27-5.89,4.18c-13.43,16.21-4.09,39-14.65,45-2.95,1.64-8,2.54-10.07.41-1.56-1.64-.65-4.34-2.13-5-1.72-.82-3.52,2.7-6.71,2.54s-4.42-3.93-6.06-3.36-.49,3.85-2.54,8.19a15.52,15.52,0,0,1-5.65,6.3C269.24,192.33,264.58,193.72,263.35,192.16Z"/><path class="cls-2" d="M458.43,132.08a8.1,8.1,0,0,0-6.71-1.06c-5,1.47-6.71,8-8.19,13.43a33.73,33.73,0,0,0-.08,19.48c1.06,3.27,3.44,10.48,7.37,10.89,4.75.41,9.41-9.17,11.13-15.31,1.31-4.83,1-8.51.57-14.24C462,138.54,461.71,134.29,458.43,132.08Z"/><path class="cls-2" d="M515.82,132.08a8.68,8.68,0,0,0-6.47-1.06c-3.36,1-5,4.26-6.63,7.94A37.21,37.21,0,0,0,499.45,154c-.08,4.18-.08,9.25,2.87,14.41,1.23,2.21,3.36,6,6.63,6.14,3.52.25,6.22-3.93,7.78-6.3,6.39-9.66,4.75-20.55,4-25.54C519.42,134.86,517.13,132.89,515.82,132.08Z"/><path class="cls-2" d="M566.9,136.74a8.65,8.65,0,0,0-4.34-3.19c-4-1-7.78,2.78-8.35,3.36-4.26,4.18-4.42,10.07-4.67,19.32-.16,7.45.9,10.15,1.56,11.54.49,1.06,3.52,7.2,7.86,7.2,3.6,0,6.14-4.26,7.86-7.2,5-8.51,3.77-17.11,2.7-24.48A13.3,13.3,0,0,0,566.9,136.74Z"/><path class="cls-2" d="M688.23,139c2.87-1.06,9.25-4.18,8.76-6.88-.41-2.21-5.08-3.27-7.94-3.36-.57,0-6.47,0-10.23,4.58-.41.49-3.52,4.26-2.29,6.3C678,142,684.71,140.34,688.23,139Z"/><path class="cls-2" d="M524.72,189.07s-6.41,6.23-12,12.73c-8.55,9.94-8.64,12.73-8.46,14.13.37,3.25,2.7,6.78,5.67,7.44,4.74,1,9.94-5.48,12.36-10.22,5.11-10.41,2.42-24.07,2.42-24.07Z"/><rect class="cls-10" x="819.6" y="617" width="89.05" height="87.01"/><rect class="cls-11" x="819.95" y="707.84" width="89.05" height="15.31"/><text class="cls-18" transform="translate(847.16 682.15) scale(1.02 1)">?</text><text class="cls-19" transform="translate(388 832.38)">H<tspan class="cls-20" x="31.23" y="0">V</tspan><tspan x="57.42" y="0">AD DELER DU </tspan><tspan class="cls-21" x="330.16" y="0">P</tspan><tspan x="351.49" y="0">Å N</tspan><tspan class="cls-22" x="427.23" y="0">E</tspan><tspan class="cls-23" x="450.49" y="0">T</tspan><tspan x="472.18" y="0">T</tspan><tspan class="cls-22" x="492.07" y="0">E</tspan><tspan x="515.33" y="0">T?</tspan></text><rect class="cls-10" x="180.15" y="413.07" width="41.33" height="41.33" transform="translate(162.82 -42.72) rotate(20.28)"/><rect class="cls-11" x="171.25" y="454.66" width="41.33" height="7.27" transform="translate(170.79 -38.11) rotate(20.28)"/><text class="cls-24" transform="translate(189.87 440.65) rotate(20.28)">?</text><rect class="cls-10" x="1098.49" y="300.36" width="41.33" height="41.33" transform="translate(-22.46 549.66) rotate(-27.33)"/><rect class="cls-11" x="1110.63" y="340.52" width="41.33" height="7.27" transform="translate(-31.73 557.82) rotate(-27.33)"/><text class="cls-24" transform="translate(1116.88 333.77) rotate(-27.33)">?</text><rect class="cls-10" x="133.92" y="534.79" width="69.91" height="69.91" transform="translate(-206.49 109.06) rotate(-22.66)"/><rect class="cls-11" x="151.2" y="604.25" width="69.91" height="12.3" transform="translate(-220.83 118.86) rotate(-22.66)"/><text class="cls-14" transform="matrix(0.92, -0.39, 0.39, 0.92, 163.29, 590.91)">?</text><rect class="cls-10" x="1116.73" y="426.63" width="69.91" height="69.91" transform="translate(252.65 -393.5) rotate(21.72)"/><rect class="cls-11" x="1100.63" y="496.58" width="69.91" height="12.3" transform="translate(266.74 -384.62) rotate(21.72)"/><text class="cls-14" transform="translate(1132.88 472.81) rotate(21.72)">?</text><rect class="cls-10" x="1096.49" y="587.36" width="41.33" height="41.33" transform="translate(-154.45 580.78) rotate(-27.33)"/><rect class="cls-11" x="1108.63" y="627.52" width="41.33" height="7.27" transform="translate(-163.72 588.94) rotate(-27.33)"/><text class="cls-24" transform="translate(1114.88 620.77) rotate(-27.33)">?</text><rect class="cls-10" x="188.31" y="287.36" width="62.51" height="62.51" transform="translate(-121.78 136.37) rotate(-27.33)"/><rect class="cls-11" x="206.67" y="348.1" width="62.51" height="11" transform="translate(-135.79 148.71) rotate(-27.33)"/><text class="cls-25" transform="translate(216.13 337.9) rotate(-27.33)">?</text></g></g></svg>
