<svg xmlns="http://www.w3.org/2000/svg" xmlns:xlink="http://www.w3.org/1999/xlink" viewBox="0 0 639 568"><defs><style>.cls-1,.cls-13,.cls-2,.cls-3{fill:none;}.cls-2{clip-path:url(#clip-path);}.cls-26,.cls-3{clip-path:url(#clip-path-3);}.cls-4{fill:#152230;}.cls-5{fill:#99cbe1;}.cls-6{font-size:47px;font-family:FuturaPT-Bold, Futura PT;font-weight:700;}.cls-35,.cls-6{fill:#f4912d;}.cls-7{letter-spacing:-0.02em;}.cls-14,.cls-15,.cls-28,.cls-31,.cls-36,.cls-41,.cls-8{isolation:isolate;}.cls-8{font-size:18.39px;}.cls-14,.cls-23,.cls-28,.cls-31,.cls-41,.cls-8{fill:#fff;}.cls-14,.cls-28,.cls-36,.cls-41,.cls-8{font-family:FuturaPT-Demi, Futura PT;}.cls-9{letter-spacing:-0.03em;}.cls-10{letter-spacing:-0.06em;}.cls-11{letter-spacing:0.02em;}.cls-12{letter-spacing:0em;}.cls-13{stroke:#f4912d;stroke-miterlimit:10;stroke-width:5px;}.cls-14{font-size:35px;}.cls-16{fill:#552e0f;}.cls-17{fill:#d4b080;}.cls-18{fill:#c99c72;}.cls-19{fill:#fecda4;}.cls-20{fill:#333;}.cls-21{fill:#962d69;}.cls-22{fill:#72263c;}.cls-24{fill:#e4c79b;}.cls-25{fill:#5a3312;}.cls-27{fill:#f2902c;}.cls-28{font-size:32.18px;}.cls-29{letter-spacing:-0.11em;}.cls-30{letter-spacing:-0.1em;}.cls-31{font-size:15px;}.cls-31,.cls-45{font-family:FuturaPT-Book, Futura PT;}.cls-32{letter-spacing:-0.04em;}.cls-33{letter-spacing:-0.09em;}.cls-34{letter-spacing:0em;}.cls-36{font-size:45px;fill:#202532;}.cls-37{letter-spacing:-0.03em;}.cls-38{letter-spacing:-0.01em;}.cls-39{letter-spacing:0.04em;}.cls-40{clip-path:url(#clip-path-212);}.cls-41{font-size:25px;}.cls-42{letter-spacing:-0.11em;}.cls-43{letter-spacing:0em;}.cls-44{letter-spacing:-0.1em;}.cls-45{font-size:18px;}.cls-46{letter-spacing:-0.02em;}.cls-47{letter-spacing:0em;}.cls-48{letter-spacing:-0.02em;}</style><clipPath id="clip-path"><rect class="cls-3" x="14" y="103" width="234" height="155.2"/></clipPath><clipPath id="clip-path-3"><rect class="cls-2" x="14" y="103" width="234" height="155.2"/></clipPath><clipPath id="clip-path-212"><rect class="cls-1" x="14" y="121.54" width="293.45" height="211.71"/></clipPath></defs><title>privatsnak</title><g id="Layer_2" data-name="Layer 2"><g id="Layer_1-2" data-name="Layer 1"><path class="cls-4" d="M627,568H12A12,12,0,0,1,0,556V12A12,12,0,0,1,12,0H627a12,12,0,0,1,12,12V556A12,12,0,0,1,627,568Z"/><path class="cls-5" d="M623,564H16A12,12,0,0,1,4,552V457a12,12,0,0,1,12-12H623a12,12,0,0,1,12,12v95A12,12,0,0,1,623,564Z"/><ellipse class="cls-4" cx="56" cy="475.2" rx="14" ry="12.9"/><text class="cls-6" transform="translate(87.25 526.95)">ww<tspan class="cls-7" x="84.5" y="0">w</tspan><tspan x="125.82" y="0">.privatsnak.dk</tspan></text><text class="cls-8" transform="translate(90.39 481.87) scale(1.09 1)">SE E<tspan class="cls-9" x="32.35" y="0">K</tspan><tspan x="43.45" y="0">SEMPLER </tspan><tspan class="cls-10" x="120" y="0">P</tspan><tspan class="cls-11" x="128.72" y="0">Å</tspan><tspan class="cls-12" x="141.46" y="0">:</tspan></text><line class="cls-13" x1="37" y1="76.8" x2="493.5" y2="76.8"/><rect class="cls-1" x="37.4" y="21.7" width="483.1" height="49.2"/><text class="cls-14" transform="translate(37.33 47.2) scale(1.09 1)">Rådgivning til børn og unge</text><g id="mqvHXi"><image class="cls-15" width="929" height="408" transform="translate(4.33 90) scale(0.68)" xlink:href="../MMD17/Semester 1/02-animation/02.04 Animationsprojekt/Illustrator Animations/63B8FF6C2895FE37.jpg"/></g><path class="cls-16" d="M343.7,317.3c5.7.9,10.5-.3,16.5-1.9,6.6-1.7,11.9-3,17.7-7.5,11.2-8.6,17.1-23.4,18.9-28.1,7-18.9,8.3-43.1,8.3-43.1h0l-1.2-54.4h0s-5.3-18.6-5.9-20.6c-5.5-18.7-32.8-49.8-61.4-37.5-2.2,1-23.4,10.6-31.9,39.4-3.3,11.3-4.3,24.1-4.7,30-.7,9.1-.5,18.1,0,35.6.4,16.4.6,24.6,1.2,28.1a92,92,0,0,0,15.3,39.4C319.9,301.5,329.6,315.1,343.7,317.3Z"/><path class="cls-17" d="M453.6,125.6a55.75,55.75,0,0,0-21.9,9.4c-14.9,11.1-21.3,29.9-23.9,37.8-6.3,19.2-2.1,24.2-4,73.9-1.2,32.2-3.5,44.1,0,67,2.1,13.8,5.3,24.8,11.9,34.4a49.45,49.45,0,0,0,6.5,7.6,71.86,71.86,0,0,0,12.9,9.3h57.7s10.3-9.5,15.8-16.9c3.9-5.2,7.1-12.3,10.6-25.8,5.2-19.9,3-33.1,2.7-67-.5-43.5,2.8-47.6-1.3-68.7-2.6-13.2-5.4-26.8-14.6-39.5-13.6-18.7-31.2-21.8-34.5-22.3A50,50,0,0,0,453.6,125.6Z"/><path class="cls-18" d="M455.2,181.7a45.85,45.85,0,0,0-17.6,7.3c-12,8.5-17.1,23.1-19.2,29.1-5,14.8-1.7,18.6-3.2,57-1,24.9-2.8,34,0,51.7,1.7,10.7,4.3,19.2,9.6,26.5a33.5,33.5,0,0,0,4.9,5.5c4.2,3.9,9.1,6.2,9,6.4s-.5-.1-.5-.2,0-.7,51.5,0h0s6.5-7.4,9.6-11.8c5.1-7.1,7-14.1,8.5-19.9,4.1-15.3,2.4-25.5,2.1-51.7-.4-33.6,2.2-36.7-1.1-53-2.1-10.2-4.3-20.7-11.7-30.5-10.9-14.4-25.1-16.8-27.7-17.2A41.67,41.67,0,0,0,455.2,181.7Z"/><path class="cls-19" d="M320.2,168.8a61.29,61.29,0,0,0-2.9,5.9c-4.6,11.2-2.3,31-1.7,54.4.5,18.3-.7,17.7.6,24.3,3.8,20.1,15.1,30.8,16.2,31.8,11.6,10.6,27.6,11.9,40,.8.8-.7,12.5-11.5,16.2-31.8.6-3.4.8-5.8,1.2-15.1,1.9-48.9.5-55.3-1.2-60.2a48.46,48.46,0,0,0-12.8-20.1c-19.1-18.4-42.1-4.9-47.6,0A48.25,48.25,0,0,0,320.2,168.8Z"/><path class="cls-20" d="M324.9,209c-.2-.3,1.2-3.3,3.5-5a7.38,7.38,0,0,1,9.3,0c2.3,1.8,3.7,4.7,3.5,5s-1.8-2.1-4.6-3.3a9.18,9.18,0,0,0-7,0C326.6,206.9,325.1,209.3,324.9,209Z"/><path class="cls-20" d="M365.5,209c-.2-.3,1.2-3.3,3.5-5a7.38,7.38,0,0,1,9.3,0c2.3,1.8,3.7,4.7,3.5,5s-1.8-2.1-4.6-3.3a9.18,9.18,0,0,0-7,0C367.2,206.9,365.7,209.3,365.5,209Z"/><ellipse class="cls-20" cx="334.7" cy="221.5" rx="4.1" ry="5.9"/><ellipse class="cls-20" cx="371.9" cy="221.5" rx="4.1" ry="5.9"/><path class="cls-21" d="M333,244.1s2.4,5.9,3.5,8.4,3.7,8.3,8.1,11.7c5.5,4.3,12.4,3.6,17.4,0,4-2.8,6.3-7.2,7-8.4a78.3,78.3,0,0,0,4.6-11.7H333Z"/><path class="cls-22" d="M340,257.5c.1-1.2,1-2,2.3-3.3a11.79,11.79,0,0,1,7-3.3,18.64,18.64,0,0,1,16.2,5c.5.5,1.1.9,1.2,1.7.4,3.3-6.7,10.3-13.9,10C346.2,267.3,339.6,261.2,340,257.5Z"/><path class="cls-23" d="M337.6,249.1h31.3v-5H337.6Z"/><path class="cls-19" d="M446.4,160.3A93.21,93.21,0,0,0,432,189.7c-3.9,14-3.1,28.2-4,28.2-.4,0-.2-2.8-2.2-4.4a4.85,4.85,0,0,0-4.1-1c-4.5,1.4-4.6,15.6-3.1,24.7.9,5.8,1.9,11.6,5.2,14.4a14.86,14.86,0,0,1,4.1,5.2,9.93,9.93,0,0,1,1,3.1c4.5,21.3,16.1,32.2,16.1,32.2,2,1.8,10.8,10.2,23,9.3a29.28,29.28,0,0,0,17.6-8.3c4.6-4.8,6.5-11.3,10.3-24.3,1-3.5,1.7-6.3,2.1-8.1h0a61,61,0,0,0,1-7.9,8.55,8.55,0,0,1,.8-3.8c.3-.5.6-1.2,1.3-1.4,1.2-.4,2.1,1,3.1,1,2.4,0,4.6-9,5.2-19.6.3-5.8.6-12.4-2.1-13.4-1.5-.6-3.8.8-4.1,1-2.6,1.6-2.9,4.1-3.6,4.1-.9,0-1.9-4-2.6-18.8h0a188.33,188.33,0,0,0-11.3-35.4c-3.7-8.6-6.3-12.9-11.3-15.2-6.5-3-14.8-1.6-20.6,2A22.81,22.81,0,0,0,446.4,160.3Z"/><path class="cls-20" d="M436.3,207.5c-.2-.4,1.2-3.6,3.5-5.6a7,7,0,0,1,9.4,0c2.3,2,3.7,5.2,3.5,5.6s-1.8-2.3-4.7-3.7a8.54,8.54,0,0,0-7.1,0C438.1,205.1,436.5,207.8,436.3,207.5Z"/><path class="cls-20" d="M477.5,207.5c-.2-.4,1.2-3.6,3.5-5.6a7,7,0,0,1,9.4,0c2.3,2,3.7,5.2,3.5,5.6s-1.8-2.3-4.7-3.7a8.54,8.54,0,0,0-7.1,0C479.3,205.1,477.7,207.8,477.5,207.5Z"/><ellipse class="cls-20" cx="446.3" cy="221.4" rx="4.1" ry="6.5"/><ellipse class="cls-20" cx="483.9" cy="221.4" rx="4.1" ry="6.5"/><path class="cls-21" d="M444.6,246.4s2.4,6.6,3.5,9.3,3.8,9.2,8.2,13c5.6,4.8,12.5,4,17.6,0,4-3.2,6.4-8,7.1-9.3a85,85,0,0,0,4.7-13H444.6Z"/><path class="cls-22" d="M451.6,261.3c.1-1.4,1-2.2,2.4-3.7a11.47,11.47,0,0,1,7.1-3.7,17.77,17.77,0,0,1,16.5,5.6c.5.6,1.1,1,1.2,1.9.5,3.7-6.8,11.4-14.1,11.1C457.9,272.2,451.3,265.4,451.6,261.3Z"/><path class="cls-23" d="M449.3,252H481v-5.6H449.3Z"/><path class="cls-24" d="M413.1,160.9c-.1,6.9,7.8,12.5,13.9,16.4,16.4,10.5,24.6,15.8,38.5,19,17.9,4.2,51.5,7.6,55.1-6.1.3-1.1.3-2.1,0-5.2A81.41,81.41,0,0,0,506,147c-11.4-15.2-24.8-19.4-29.2-20.8a54.87,54.87,0,0,0-49.1,12.1c-6.1,5.4-10.5,13.1-11.9,15.6C413.5,157.9,413.1,159.5,413.1,160.9Z"/><path class="cls-19" d="M450.5,273.7c-1.8,2.9-.9,8.3,1,22,3.9,28.4,3.7,31.5,7,48.3,4.1,20.5,5.5,21.1,6,21,1.4-.2,2-5.3,4-21,2-15.5,3.7-31.2,6-46.6,2.3-15.2,3.8-20.6,2-23.7-2-3.3-5.1.3-14,0C454.9,273.4,452.3,270.7,450.5,273.7Z"/><path class="cls-25" d="M395.1,162c-.1,7.2-3.4,12.6-7.1,18.3-8.6,13.4-17.7,18.4-19.5,19.3-26.1,13.8-54.2,6.1-54.3,6.1h0L300,201.6h0v-6.1a100.72,100.72,0,0,1,2.4-18.3c5-23.3,14.2-36.6,14.2-36.6,12.3-17.9,26.8-18.2,34.2-18.3,4.1-.1,19,.4,33,16.3C388.5,143.9,395.2,151.6,395.1,162Z"/><path class="cls-19" d="M342.1,281.2c-1.7,2.7-.8,7.6.9,20.2,3.6,26,3.4,28.9,6.5,44.4,3.8,18.8,5.1,19.3,5.6,19.3,1.3-.2,1.8-4.9,3.7-19.3s3.4-28.7,5.6-42.8,3.6-18.9,1.9-21.7c-1.8-3.1-4.7.2-13.1,0C346.2,281,343.8,278.5,342.1,281.2Z"/><g class="cls-26"><g id="Privat_snak_logo" data-name="Privat snak logo"><g class="cls-26"><path class="cls-4" d="M48.1,179.6a12.65,12.65,0,0,0-3.1,2c-3.5,2.4-7,4.9-10.5,7.4-.3.2-.5.6-.9.4s-.3-.7-.3-1c0-5-.1-10,0-15,0-1.2-.4-1.4-1.6-1.4-3.4.1-6.9,0-10.4,0-4.2,0-7.3-3-7.3-6.8,0-18.2.1-36.5,0-54.7,0-4.7,3.6-7.5,8.2-7.5q109,.15,218.2.1c4.5,0,7.5,2.8,7.5,6.9v55.2c0,3.5-2,5.7-6,6.8H59.9a4.16,4.16,0,0,0-2.8.8c-1.8,1.4-3.7,2.5-5.5,3.9-1.1.9-2.6,1.6-3.5,2.9"/><path class="cls-27" d="M48.1,179.6c.9-1.3,2.5-2,3.7-2.9,1.8-1.3,3.7-2.5,5.5-3.9a4,4,0,0,1,2.8-.8h182c.4.8,1.4.7,2.1,1.1a6.5,6.5,0,0,1,3.5,5.8c0,18.3-.1,36.6.1,54.8,0,3.8-3,7.4-8,7.4-35.5-.1-71,0-106.6,0H94.7a5.86,5.86,0,0,0-3.7,1.2c-6,4.3-12,8.5-18.1,12.8-1.4,1-2.8,1.9-4.2,2.9-.9.6-1.2.4-1.2-.6V243.1c0-1.9,0-1.9-2.1-1.9-3.1,0-6.3-.1-9.4,0a7.28,7.28,0,0,1-7.8-7.3c.1-17.6,0-35.3,0-52.9a7.08,7.08,0,0,1-.1-1.4"/><path class="cls-23" d="M54,155.3H43.9V119.6H60c4.4,0,7.7,1,10,3.1s3.5,5,3.5,8.8-1.2,6.7-3.5,8.8-5.7,3.1-10,3.1H54ZM54,136h3.3c3.7,0,5.6-1.5,5.6-4.5S61,127,57.3,127H54Z"/><path class="cls-23" d="M109.1,155.3H96.5l-9.6-13.7v13.7H76.8V119.6H92.5a16.24,16.24,0,0,1,5.7.9,10.46,10.46,0,0,1,6.4,5.9,11.76,11.76,0,0,1,.8,4.3,10,10,0,0,1-2.1,6.6,10.71,10.71,0,0,1-6.3,3.4ZM86.9,135.6h1.9a8.44,8.44,0,0,0,4.6-1.1,4.2,4.2,0,0,0,0-6.6,7.65,7.65,0,0,0-4.6-1.1H86.9Z"/><rect class="cls-23" x="112.2" y="119.7" width="10.1" height="35.7"/><polygon class="cls-23" points="136.2 119.7 145.5 141.4 155 119.7 165.9 119.7 149.6 155.3 141.5 155.3 125.2 119.7 136.2 119.7"/><path class="cls-23" d="M187.9,149.4H173.5l-2.3,6.2H160.4l14.8-35.7h11L201,155.6H190.2Zm-2.7-7.1-4.5-11.9-4.5,11.9Z"/><polygon class="cls-23" points="215.9 127.8 215.9 155.6 205.8 155.6 205.8 127.8 197.5 127.8 197.5 119.9 224.2 119.9 224.2 127.8 215.9 127.8"/><path class="cls-23" d="M99.2,197.5a13.46,13.46,0,0,0-3.3-1.8,9.48,9.48,0,0,0-3.2-.6,6.06,6.06,0,0,0-3.2.8,2.63,2.63,0,0,0-1.2,2.2,2.45,2.45,0,0,0,.6,1.6,6.45,6.45,0,0,0,1.6,1.1,12.34,12.34,0,0,0,2.3.8c.8.2,1.7.5,2.5.7a16.22,16.22,0,0,1,7.2,4,9.64,9.64,0,0,1,2.3,6.6,11.76,11.76,0,0,1-1,5,10.72,10.72,0,0,1-2.9,3.8,14.08,14.08,0,0,1-4.7,2.5,20.85,20.85,0,0,1-6.3.9,24.55,24.55,0,0,1-13.6-4l4.3-7.5a17.9,17.9,0,0,0,4.5,2.7,11.54,11.54,0,0,0,4.4.9,5.63,5.63,0,0,0,3.7-1,3.13,3.13,0,0,0,1.2-2.4,3.19,3.19,0,0,0-.3-1.4,2.59,2.59,0,0,0-1-1.1,11.39,11.39,0,0,0-1.9-.9c-.8-.3-1.7-.6-2.8-.9-1.3-.4-2.6-.8-3.8-1.3a14.8,14.8,0,0,1-3.3-1.8,8.49,8.49,0,0,1-2.4-2.9,9.29,9.29,0,0,1-.9-4.4,12.09,12.09,0,0,1,.9-4.8,9.84,9.84,0,0,1,2.7-3.7,12.18,12.18,0,0,1,4.2-2.4,16.49,16.49,0,0,1,5.6-.8,25.75,25.75,0,0,1,6,.7,30.45,30.45,0,0,1,6,2.1Z"/><polygon class="cls-23" points="108.6 224 108.6 188.4 118.7 188.4 137.3 210.1 137.3 188.4 147.3 188.4 147.3 224 137.3 224 118.7 202.2 118.7 224 108.6 224"/><path class="cls-23" d="M176.7,217.8H162.3L160,224H149.3L164,188.4h11L189.7,224H179Zm-2.7-7.1-4.5-11.9L165,210.7Z"/><polygon class="cls-23" points="201.7 203.1 214 188.4 226.4 188.4 211.1 205.2 227.8 224 214.8 224 201.7 208.5 201.7 224 191.6 224 191.6 188.4 201.7 188.4 201.7 203.1"/></g></g><path class="cls-4" d="M627,445H12A12,12,0,0,1,0,433V374a12,12,0,0,1,12-12H627a12,12,0,0,1,12,12v59A12,12,0,0,1,627,445Z"/><rect class="cls-1" x="90.4" y="378.5" width="526.6" height="66.6"/><text class="cls-28" transform="translate(90.38 401.92) scale(1.09 1)"><tspan class="cls-29">1</tspan><tspan x="14.58" y="0">3-</tspan><tspan class="cls-30" x="44.44" y="0">1</tspan><tspan x="59.37" y="0">5 år</tspan></text><text class="cls-31" transform="translate(90.38 419.92) scale(1.09 1)"><tspan class="cls-32">S</tspan><tspan x="7.14" y="0">TIL SPØRGSMÅL OM KRO</tspan><tspan class="cls-33" x="166.72" y="0">P</tspan><tspan class="cls-34" x="172.15" y="0">, SEX, FØLELSER, SE</tspan><tspan class="cls-32" x="289.37" y="0">K</tspan><tspan class="cls-34" x="297.26" y="0">SUALITET ELLER PRÆVENTION</tspan></text><ellipse class="cls-35" cx="56" cy="402.6" rx="14" ry="12.9"/><rect class="cls-1" x="5.4" y="495.7" width="628.6" height="49.2"/><text class="cls-36" transform="translate(126.67 528.49) scale(1.09 1)">ww<tspan class="cls-37" x="71.28" y="0">w</tspan><tspan x="105.48" y="0">.pri</tspan><tspan class="cls-38" x="169.38" y="0">v</tspan><tspan x="191.61" y="0">atsna</tspan><tspan class="cls-39" x="297.27" y="0">k</tspan><tspan x="322.15" y="0">.dk</tspan></text></g><g id="Privat_snak_logo-2" data-name="Privat snak logo"><g class="cls-40"><g class="cls-40"><path class="cls-4" d="M56.71,226c-1.55.52-2.63,1.74-3.88,2.69-4.42,3.33-8.8,6.72-13.2,10.07-.35.27-.67.78-1.17.58s-.38-.9-.38-1.37c0-6.81-.07-13.62,0-20.43,0-1.6-.48-1.9-2-1.87-4.33.09-8.65.06-13,0a9,9,0,0,1-9.12-9.28c0-24.87.12-49.74-.06-74.61,0-6.35,4.5-10.3,10.32-10.29q136.84.16,273.68.07c5.62,0,9.43,3.8,9.43,9.44q0,37.65,0,75.3c0,4.72-2.47,7.81-7.47,9.3-1,0-2,0-2.94,0H134.37q-31.32,0-62.65,0a4.93,4.93,0,0,0-3.49,1.11c-2.2,1.85-4.64,3.42-6.85,5.26-1.57,1.31-3.53,2.19-4.68,4"/><path class="cls-27" d="M56.71,226c1.15-1.8,3.11-2.68,4.68-4,2.21-1.84,4.65-3.4,6.85-5.26a4.93,4.93,0,0,1,3.49-1.11q31.32,0,62.65,0H297c1,0,2,0,2.94,0,.54,1,1.76.93,2.61,1.48a8.87,8.87,0,0,1,4.35,7.91c0,24.93-.09,49.85.07,74.78a9.75,9.75,0,0,1-10.05,10q-66.82-.14-133.63,0c-16.1,0-32.2,0-48.29,0a7.2,7.2,0,0,0-4.7,1.63Q99,320.17,87.66,328.89c-1.73,1.33-3.51,2.59-5.25,3.91-1.08.82-1.47.53-1.47-.77q0-9.78,0-19.56c0-2.61-.05-2.65-2.6-2.65-3.92,0-7.85-.12-11.77,0-5.49.22-9.84-4.17-9.81-9.9.1-24.06,0-48.12,0-72.18,0-.58,0-1.15,0-1.73"/><path class="cls-23" d="M64.13,192.94H51.48V144.25H71.62q8.2,0,12.56,4.26t4.36,12q0,7.75-4.36,12T71.62,176.8H64.13Zm0-26.35h4.2q7,0,7-6.07t-7-6.07h-4.2Z"/><path class="cls-23" d="M133.27,192.94H117.52l-12.07-18.73v18.73H92.79V144.25h19.69a19.34,19.34,0,0,1,7.1,1.19,13.37,13.37,0,0,1,8,8,16.66,16.66,0,0,1,1,5.81,14.28,14.28,0,0,1-2.68,9A13.49,13.49,0,0,1,118,173ZM105.44,166h2.39a9.23,9.23,0,0,0,5.75-1.55,6,6,0,0,0,0-8.91,9.23,9.23,0,0,0-5.75-1.55h-2.39Z"/><rect class="cls-23" x="137.14" y="144.25" width="12.66" height="48.69"/><polygon class="cls-23" points="167.21 144.25 178.97 173.89 190.78 144.25 204.54 144.25 184 192.94 173.93 192.94 153.46 144.25 167.21 144.25"/><path class="cls-23" d="M232.08,184.83H214l-2.91,8.46H197.6l18.53-48.69H230l18.53,48.69H235Zm-3.36-9.62L223,159l-5.68,16.21Z"/><polygon class="cls-23" points="267.21 155.32 267.21 193.29 254.56 193.29 254.56 155.32 244.16 155.32 244.16 144.6 277.61 144.6 277.61 155.32 267.21 155.32"/><path class="cls-23" d="M120.87,250.41a15.62,15.62,0,0,0-4.12-2.48,11,11,0,0,0-4-.8,6.48,6.48,0,0,0-4,1.16,3.61,3.61,0,0,0-1.55,3,3,3,0,0,0,.77,2.12,6.72,6.72,0,0,0,2,1.45,17.2,17.2,0,0,0,2.83,1.06q1.58.45,3.12,1,6.18,2.06,9,5.51a13.59,13.59,0,0,1,2.87,9,17.49,17.49,0,0,1-1.26,6.76,14.1,14.1,0,0,1-3.67,5.18A16.92,16.92,0,0,1,117,286.7a24.69,24.69,0,0,1-8,1.19A29.24,29.24,0,0,1,92,282.41l5.41-10.17A21.91,21.91,0,0,0,103,276a13.46,13.46,0,0,0,5.47,1.22,6.53,6.53,0,0,0,4.6-1.42,4.39,4.39,0,0,0,1.13-5.12,4.12,4.12,0,0,0-1.29-1.48,10.32,10.32,0,0,0-2.35-1.26q-1.45-.58-3.51-1.29-2.45-.77-4.8-1.71a15.08,15.08,0,0,1-4.19-2.48,11.5,11.5,0,0,1-3-3.9,13.77,13.77,0,0,1-1.13-6,17.2,17.2,0,0,1,1.19-6.54,14.52,14.52,0,0,1,3.35-5,14.93,14.93,0,0,1,5.28-3.25,20,20,0,0,1,7-1.16,30.61,30.61,0,0,1,7.53,1,33.27,33.27,0,0,1,7.53,2.93Z"/><polygon class="cls-23" points="132.65 286.54 132.65 237.98 145.27 237.98 168.58 267.67 168.58 237.98 181.14 237.98 181.14 286.54 168.58 286.54 145.27 256.85 145.27 286.54 132.65 286.54"/><path class="cls-23" d="M218,278.1H200l-2.9,8.44H183.65L202.13,238h13.78l18.48,48.55H220.93Zm-3.35-9.59L209,252.34l-5.67,16.16Z"/><polygon class="cls-23" points="249.39 258.01 264.78 237.98 280.37 237.98 261.11 260.97 282.17 286.54 265.81 286.54 249.39 265.48 249.39 286.54 236.77 286.54 236.77 237.98 249.39 237.98 249.39 258.01"/></g></g></g><ellipse class="cls-35" cx="56" cy="395.08" rx="14" ry="12.9"/><text class="cls-41" transform="translate(90.39 400.27) scale(1.09 1)"><tspan class="cls-42">1</tspan><tspan class="cls-43" x="11.33" y="0">3-</tspan><tspan class="cls-44" x="34.52" y="0">1</tspan><tspan x="46.12" y="0">5 år</tspan><tspan class="cls-45"><tspan x="0" y="21.6">Stil spø</tspan><tspan class="cls-46" x="50.09" y="21.6">r</tspan><tspan x="54.99" y="21.6">gsmål om k</tspan><tspan class="cls-46" x="134.08" y="21.6">r</tspan><tspan x="138.97" y="21.6">op, sex, følelse</tspan><tspan class="cls-47" x="242.53" y="21.6">r</tspan><tspan x="247.84" y="21.6">, seksualitet eller p</tspan><tspan class="cls-48" x="374.75" y="21.6">r</tspan><tspan x="379.7" y="21.6">ævention</tspan></tspan></text></g></g></svg>
