<svg xmlns="http://www.w3.org/2000/svg" viewBox="0 0 105.66 112"><defs><style>.cls-1{fill:#202532;}.cls-2{font-size:7.5px;fill:#fff;font-family:Futura-CondensedExtraBold, Futura CondensedExtraBold;font-weight:700;}.cls-3{letter-spacing:-0.01em;}.cls-4{letter-spacing:-0.01em;}.cls-5{font-size:7px;}.cls-6{letter-spacing:-0.01em;}.cls-7{letter-spacing:0.02em;}.cls-8{letter-spacing:-0.01em;}.cls-9{letter-spacing:-0.01em;}.cls-10{letter-spacing:-0.01em;}.cls-11{letter-spacing:-0.01em;}.cls-12{letter-spacing:0em;}.cls-13{letter-spacing:-0.01em;}.cls-14{letter-spacing:-0.04em;}.cls-15{letter-spacing:0.01em;}.cls-16{letter-spacing:0.02em;}.cls-17{letter-spacing:-0.01em;}.cls-18{letter-spacing:-0.01em;}.cls-19{letter-spacing:0em;}.cls-20{letter-spacing:0em;}.cls-21{letter-spacing:-0.01em;}.cls-22{letter-spacing:0em;}</style></defs><title>Aktiv 32</title><g id="Lag_2" data-name="Lag 2"><g id="Lag_1-2" data-name="Lag 1"><polyline class="cls-1" points="20.19 73.34 7 112 42.65 77.52"/><rect class="cls-1" width="105.66" height="89" rx="12" ry="12"/><text class="cls-2" transform="translate(5.84 13.32)">H<tspan class="cls-3" x="4.89" y="0">o</tspan><tspan class="cls-4" x="8.96" y="0">v</tspan><tspan x="12.52" y="0">sa!</tspan><tspan class="cls-5"><tspan x="0" y="8.4">I det</tspan><tspan class="cls-6" x="12.93" y="8.4">t</tspan><tspan x="15.2" y="8.4">e tilfælde s</tspan><tspan class="cls-7" x="46.62" y="8.4">k</tspan><tspan x="50.03" y="8.4">al du spø</tspan><tspan class="cls-8" x="76.43" y="8.4">r</tspan><tspan x="78.66" y="8.4">ge </tspan><tspan class="cls-9" x="0" y="16.8">f</tspan><tspan x="1.95" y="16.8">o</tspan><tspan class="cls-10" x="5.8" y="16.8">r</tspan><tspan x="8.05" y="16.8">æld</tspan><tspan class="cls-11" x="19.06" y="16.8">r</tspan><tspan x="21.28" y="16.8">ene til ba</tspan><tspan class="cls-12" x="48.11" y="16.8">r</tspan><tspan x="50.43" y="16.8">net om det </tspan><tspan x="0" y="25.2">o</tspan><tspan class="cls-7" x="3.84" y="25.2">k</tspan><tspan class="cls-13" x="7.25" y="25.2">a</tspan><tspan class="cls-14" x="10.57" y="25.2">y</tspan><tspan x="13.59" y="25.2">. </tspan><tspan class="cls-15" x="16.53" y="25.2">S</tspan><tspan x="20.02" y="25.2">el</tspan><tspan class="cls-11" x="25.18" y="25.2">v</tspan><tspan x="28.47" y="25.2">om det </tspan><tspan class="cls-16" x="50.9" y="25.2">k</tspan><tspan x="54.3" y="25.2">an </tspan><tspan class="cls-9" x="63.05" y="25.2">f</tspan><tspan x="65" y="25.2">øles fjollet </tspan><tspan x="0" y="33.6">når det ba</tspan><tspan class="cls-11" x="29.64" y="33.6">r</tspan><tspan x="31.86" y="33.6">e er en ba</tspan><tspan class="cls-17" x="60.37" y="33.6">b</tspan><tspan x="64.3" y="33.6">y så gør </tspan><tspan x="0" y="42">du dig selv en tjenes</tspan><tspan class="cls-6" x="59.62" y="42">t</tspan><tspan class="cls-18" x="61.89" y="42">e</tspan><tspan x="65.32" y="42">, </tspan><tspan class="cls-9" x="68.25" y="42">f</tspan><tspan x="70.2" y="42">or i </tspan><tspan x="0" y="50.4">p</tspan><tspan class="cls-19" x="3.98" y="50.4">r</tspan><tspan x="6.3" y="50.4">incippet </tspan><tspan class="cls-20" x="31.87" y="50.4">k</tspan><tspan x="35.18" y="50.4">unne du bli</tspan><tspan class="cls-21" x="68.36" y="50.4">v</tspan><tspan x="71.66" y="50.4">e meldt </tspan><tspan x="0" y="58.8">til politiet </tspan><tspan class="cls-9" x="29.47" y="58.8">f</tspan><tspan x="31.42" y="58.8">or </tspan><tspan class="cls-22" x="39.04" y="58.8">a</tspan><tspan x="42.38" y="58.8">t sp</tspan><tspan class="cls-21" x="52.94" y="58.8">r</tspan><tspan x="55.16" y="58.8">ede billeder </tspan><tspan x="0" y="67.2">af and</tspan><tspan class="cls-11" x="18.11" y="67.2">r</tspan><tspan class="cls-18" x="20.33" y="67.2">e</tspan><tspan x="23.75" y="67.2">. </tspan></tspan></text></g></g></svg>
