<svg xmlns="http://www.w3.org/2000/svg" viewBox="0 0 105.66 111"><defs><style>.cls-1{fill:#89cce5;}.cls-2{font-size:7.5px;fill:#fff;font-family:Futura-CondensedExtraBold, Futura;}.cls-3,.cls-30,.cls-7{font-weight:700;}.cls-4{letter-spacing:0.01em;}.cls-30,.cls-5{letter-spacing:0.01em;}.cls-6{letter-spacing:-0.01em;}.cls-29,.cls-7{font-size:6.5px;}.cls-8{letter-spacing:-0.01em;}.cls-9{letter-spacing:0em;}.cls-10{letter-spacing:0em;}.cls-11{letter-spacing:0em;}.cls-12{letter-spacing:0.01em;}.cls-13{letter-spacing:0.01em;}.cls-14{letter-spacing:-0.02em;}.cls-15{letter-spacing:0em;}.cls-16{letter-spacing:0.01em;}.cls-17{letter-spacing:0.01em;}.cls-18{letter-spacing:-0.03em;}.cls-19{letter-spacing:0em;}.cls-20{letter-spacing:0.01em;}.cls-21{letter-spacing:0em;}.cls-22{letter-spacing:0.02em;}.cls-23{letter-spacing:0em;}.cls-24{letter-spacing:-0.04em;}.cls-25{letter-spacing:0.01em;}.cls-26{letter-spacing:0em;}.cls-27{letter-spacing:0.01em;}.cls-28{letter-spacing:0em;}.cls-31{font-family:Futura-Medium, Futura;}</style></defs><title>babyimgrigtig</title><g id="Lag_2" data-name="Lag 2"><g id="Lag_1-2" data-name="Lag 1"><polyline class="cls-1" points="13.19 72.34 0 111 35.65 76.52"/><rect class="cls-1" width="105.66" height="87" rx="12" ry="12"/><text class="cls-2" transform="translate(5 11.19)"><tspan class="cls-3">B<tspan class="cls-4" x="4.5" y="0">r</tspan><tspan class="cls-5" x="7.48" y="0">a</tspan><tspan class="cls-6" x="11.75" y="0">v</tspan><tspan x="15.46" y="0">o!</tspan></tspan><tspan class="cls-7"><tspan x="0" y="7.8">Ik</tspan><tspan class="cls-8" x="5.65" y="7.8">k</tspan><tspan x="9.2" y="7.8">e at dele billed</tspan><tspan class="cls-9" x="53.49" y="7.8">e</tspan><tspan x="57.04" y="7.8">t er </tspan><tspan class="cls-9" x="69.23" y="7.8">e</tspan><tspan x="72.78" y="7.8">t klogt </tspan><tspan class="cls-10" x="0" y="15.6">v</tspan><tspan x="3.26" y="15.6">alg, du s</tspan><tspan class="cls-11" x="28.48" y="15.6">k</tspan><tspan x="32.08" y="15.6">al nemlig spø</tspan><tspan class="cls-12" x="71.51" y="15.6">r</tspan><tspan class="cls-5" x="74.1" y="15.6">g</tspan><tspan x="77.77" y="15.6">e </tspan><tspan class="cls-13" x="0" y="23.4">f</tspan><tspan x="2.26" y="23.4">o</tspan><tspan class="cls-14" x="5.84" y="23.4">r</tspan><tspan class="cls-15" x="8.26" y="23.4">æld</tspan><tspan class="cls-16" x="19.17" y="23.4">r</tspan><tspan x="21.75" y="23.4">ene til ba</tspan><tspan class="cls-17" x="49.58" y="23.4">r</tspan><tspan x="52.18" y="23.4">n</tspan><tspan class="cls-9" x="55.78" y="23.4">e</tspan><tspan x="59.33" y="23.4">t om d</tspan><tspan class="cls-9" x="78.08" y="23.4">e</tspan><tspan x="81.63" y="23.4">t </tspan><tspan x="0" y="31.2">o</tspan><tspan class="cls-11" x="3.58" y="31.2">k</tspan><tspan class="cls-5" x="7.19" y="31.2">a</tspan><tspan class="cls-18" x="10.89" y="31.2">y</tspan><tspan x="14.02" y="31.2">. Se</tspan><tspan class="cls-5" x="24.44" y="31.2">l</tspan><tspan class="cls-6" x="26.36" y="31.2">v</tspan><tspan x="29.57" y="31.2">om d</tspan><tspan class="cls-9" x="44.15" y="31.2">e</tspan><tspan class="cls-15" x="47.7" y="31.2">t </tspan><tspan class="cls-19" x="51.87" y="31.2">k</tspan><tspan x="55.47" y="31.2">an </tspan><tspan class="cls-20" x="64.69" y="31.2">f</tspan><tspan class="cls-21" x="66.94" y="31.2">øles </tspan><tspan class="cls-22" x="0" y="39">f</tspan><tspan x="2.31" y="39">joll</tspan><tspan class="cls-9" x="11.48" y="39">e</tspan><tspan x="15.04" y="39">t når d</tspan><tspan class="cls-23" x="34.59" y="39">e</tspan><tspan x="38.14" y="39">t ba</tspan><tspan class="cls-5" x="49.61" y="39">r</tspan><tspan x="52.19" y="39">e er en bab</tspan><tspan class="cls-24" x="85.76" y="39">y</tspan><tspan x="88.88" y="39">, </tspan><tspan x="0" y="46.8">så gør du dig se</tspan><tspan class="cls-5" x="47" y="46.8">l</tspan><tspan x="48.91" y="46.8">v en tjene</tspan><tspan class="cls-5" x="78" y="46.8">s</tspan><tspan class="cls-25" x="80.96" y="46.8">t</tspan><tspan x="83.21" y="46.8">e, </tspan><tspan class="cls-13" x="0" y="54.6">f</tspan><tspan x="2.26" y="54.6">or i p</tspan><tspan class="cls-9" x="17.78" y="54.6">r</tspan><tspan x="20.32" y="54.6">incipp</tspan><tspan class="cls-9" x="37.15" y="54.6">e</tspan><tspan x="40.7" y="54.6">t </tspan><tspan class="cls-26" x="44.87" y="54.6">k</tspan><tspan x="48.52" y="54.6">unne du bli</tspan><tspan class="cls-6" x="81.55" y="54.6">v</tspan><tspan x="84.76" y="54.6">e </tspan><tspan x="0" y="62.4">meldt til politi</tspan><tspan class="cls-9" x="41.53" y="62.4">e</tspan><tspan x="45.08" y="62.4">t </tspan><tspan class="cls-27" x="49.25" y="62.4">f</tspan><tspan class="cls-28" x="51.5" y="62.4">or at sp</tspan><tspan class="cls-5" x="73.93" y="62.4">r</tspan><tspan x="76.51" y="62.4">ede </tspan></tspan><tspan class="cls-29"><tspan class="cls-3" x="0" y="70.2">billeder af and</tspan><tspan class="cls-30" x="43.17" y="70.2">r</tspan><tspan class="cls-3" x="45.75" y="70.2">e. </tspan><tspan class="cls-31" x="53.2" y="70.2"> </tspan></tspan></text></g></g></svg>
