<svg xmlns="http://www.w3.org/2000/svg" viewBox="0 0 128 117"><defs><style>.cls-1{fill:#202532;}.cls-2{font-size:7.5px;fill:#fff;font-family:Futura-CondensedExtraBold, Futura;}.cls-3{font-weight:700;}.cls-4{letter-spacing:-0.01em;}.cls-5{letter-spacing:-0.01em;}.cls-6{letter-spacing:0em;}.cls-7{font-size:7px;font-family:Futura-Medium, Futura;}.cls-8{letter-spacing:0.01em;}.cls-9{letter-spacing:-0.01em;}.cls-10{letter-spacing:-0.02em;}.cls-11{letter-spacing:0.01em;}.cls-12{letter-spacing:-0.01em;}.cls-13{letter-spacing:0.02em;}.cls-14{letter-spacing:-0.02em;}.cls-15{letter-spacing:-0.06em;}.cls-16{letter-spacing:-0.02em;}.cls-17{letter-spacing:0.01em;}.cls-18{letter-spacing:0.02em;}.cls-19{letter-spacing:-0.02em;}.cls-20{letter-spacing:0.01em;}.cls-21{letter-spacing:0.02em;}.cls-22{letter-spacing:0em;}.cls-23{letter-spacing:0em;}</style></defs><title>babyimgforkert</title><g id="Lag_2" data-name="Lag 2"><g id="Lag_1-2" data-name="Lag 1"><polyline class="cls-1" points="13.19 78.34 0 117 35.65 82.52"/><rect class="cls-1" width="128" height="92" rx="12" ry="12"/><text class="cls-2" transform="translate(4.84 14.19)"><tspan class="cls-3">H<tspan class="cls-4" x="4.57" y="0">o</tspan><tspan class="cls-5" x="8.65" y="0">v</tspan><tspan class="cls-6" x="12.35" y="0">sa!</tspan></tspan><tspan class="cls-7"><tspan x="0" y="12">I d</tspan><tspan class="cls-8" x="8.42" y="12">e</tspan><tspan x="12.36" y="12">t</tspan><tspan class="cls-8" x="14.27" y="12">t</tspan><tspan x="16.25" y="12">e til</tspan><tspan class="cls-9" x="27.68" y="12">f</tspan><tspan x="29.72" y="12">ælde s</tspan><tspan class="cls-10" x="50.56" y="12">k</tspan><tspan x="53.92" y="12">al du spørge </tspan><tspan class="cls-11" x="0" y="20.4">f</tspan><tspan x="2.16" y="20.4">o</tspan><tspan class="cls-12" x="6.37" y="20.4">r</tspan><tspan x="8.94" y="20.4">æld</tspan><tspan class="cls-12" x="20.91" y="20.4">r</tspan><tspan x="23.48" y="20.4">ene til ba</tspan><tspan class="cls-13" x="53.18" y="20.4">r</tspan><tspan x="55.9" y="20.4">n</tspan><tspan class="cls-8" x="59.74" y="20.4">e</tspan><tspan x="63.67" y="20.4">t om d</tspan><tspan class="cls-8" x="83.85" y="20.4">e</tspan><tspan x="87.78" y="20.4">t </tspan><tspan x="0" y="28.8">o</tspan><tspan class="cls-14" x="4.21" y="28.8">k</tspan><tspan class="cls-8" x="7.57" y="28.8">a</tspan><tspan class="cls-15" x="11.83" y="28.8">y</tspan><tspan x="15.22" y="28.8">. Se</tspan><tspan class="cls-8" x="27.5" y="28.8">l</tspan><tspan class="cls-16" x="29.3" y="28.8">v</tspan><tspan x="32.69" y="28.8">om d</tspan><tspan class="cls-8" x="48.79" y="28.8">e</tspan><tspan x="52.72" y="28.8">t </tspan><tspan class="cls-10" x="56.8" y="28.8">k</tspan><tspan x="60.16" y="28.8">an </tspan><tspan class="cls-17" x="70.36" y="28.8">f</tspan><tspan x="72.51" y="28.8">øles </tspan><tspan class="cls-18" x="87.34" y="28.8">f</tspan><tspan x="89.56" y="28.8">joll</tspan><tspan class="cls-8" x="98.99" y="28.8">e</tspan><tspan x="102.93" y="28.8">t </tspan><tspan x="0" y="37.2">når d</tspan><tspan class="cls-8" x="17.01" y="37.2">e</tspan><tspan x="20.95" y="37.2">t ba</tspan><tspan class="cls-12" x="33.41" y="37.2">r</tspan><tspan x="35.98" y="37.2">e er en ba</tspan><tspan class="cls-19" x="68.93" y="37.2">b</tspan><tspan x="73" y="37.2">y så gør </tspan><tspan x="0" y="45.6">du dig se</tspan><tspan class="cls-8" x="29.18" y="45.6">l</tspan><tspan x="30.98" y="45.6">v en tjenes</tspan><tspan class="cls-8" x="64.61" y="45.6">t</tspan><tspan x="66.58" y="45.6">e, </tspan><tspan class="cls-20" x="74.78" y="45.6">f</tspan><tspan x="76.94" y="45.6">or i </tspan><tspan x="0" y="54">p</tspan><tspan class="cls-21" x="4.2" y="54">r</tspan><tspan x="6.92" y="54">incipp</tspan><tspan class="cls-8" x="25.98" y="54">e</tspan><tspan x="29.91" y="54">t </tspan><tspan class="cls-22" x="33.98" y="54">k</tspan><tspan x="37.49" y="54">unne du bli</tspan><tspan class="cls-10" x="72.87" y="54">v</tspan><tspan x="76.27" y="54">e meldt til </tspan><tspan x="0" y="62.4">politi</tspan><tspan class="cls-8" x="15.55" y="62.4">e</tspan><tspan x="19.48" y="62.4">t </tspan><tspan class="cls-11" x="23.56" y="62.4">f</tspan><tspan x="25.72" y="62.4">or at sp</tspan><tspan class="cls-12" x="50.01" y="62.4">r</tspan><tspan class="cls-23" x="52.58" y="62.4">ede billeder af </tspan><tspan x="0" y="70.8">and</tspan><tspan class="cls-12" x="12.23" y="70.8">r</tspan><tspan x="14.8" y="70.8">e. </tspan></tspan></text></g></g></svg>
