<svg xmlns="http://www.w3.org/2000/svg" width="100" height="88.46" viewBox="0 0 100 88.46"><defs><style>.cls-1{fill:#89cce5;}.cls-2,.cls-3{fill:#fff;}.cls-3{font-size:9px;font-family:Futura-CondensedExtraBold, Futura;}.cls-4{font-weight:700;}.cls-5{letter-spacing:0.01em;}.cls-6{letter-spacing:0.01em;}.cls-7{letter-spacing:-0.01em;}.cls-8{font-size:4px;font-family:Futura-Medium, Futura;}.cls-9{letter-spacing:-0.02em;}.cls-10{letter-spacing:-0.02em;}.cls-11{letter-spacing:0.01em;}.cls-12{letter-spacing:-0.01em;}.cls-13{letter-spacing:0.02em;}.cls-14{letter-spacing:-0.04em;}.cls-15{letter-spacing:0.01em;}.cls-16{letter-spacing:-0.02em;}.cls-17{letter-spacing:-0.02em;}.cls-18{letter-spacing:0.02em;}.cls-19{letter-spacing:-0.01em;}</style></defs><title>babysitting_ros</title><g id="Layer_2" data-name="Layer 2"><g id="Layer_1-2" data-name="Layer 1"><path class="cls-1" d="M7.72,68.92l-1-.31A8.21,8.21,0,0,1,1,60.77V9.23A8.24,8.24,0,0,1,9.23,1H90.77A8.24,8.24,0,0,1,99,9.23V60.77A8.24,8.24,0,0,1,90.77,69H18.69L2.28,84.86Z"/><path class="cls-2" d="M90.77,2A7.23,7.23,0,0,1,98,9.23V60.77A7.23,7.23,0,0,1,90.77,68H18.28l-.58.56L4.57,81.26,8.34,70.21,9,68.28l-1.95-.62a7.31,7.31,0,0,1-5-6.89V9.23A7.23,7.23,0,0,1,9.23,2H90.77m0-2H9.23A9.25,9.25,0,0,0,0,9.23V60.77a9.27,9.27,0,0,0,6.44,8.8L0,88.46,19.09,70H90.77A9.25,9.25,0,0,0,100,60.77V9.23A9.25,9.25,0,0,0,90.77,0Z"/><text class="cls-3" transform="translate(9.8 13.82)"><tspan class="cls-4">B<tspan class="cls-5" x="5.4" y="0">r</tspan><tspan class="cls-6" x="8.98" y="0">a</tspan><tspan class="cls-7" x="14.1" y="0">v</tspan><tspan x="18.55" y="0">o!</tspan></tspan><tspan class="cls-8"><tspan x="0" y="12">Ik</tspan><tspan class="cls-9" x="3.17" y="12">k</tspan><tspan x="5.1" y="12">e at dele billed</tspan><tspan class="cls-5" x="32.33" y="12">e</tspan><tspan x="34.57" y="12">t er </tspan><tspan class="cls-5" x="41.85" y="12">e</tspan><tspan x="44.09" y="12">t klogt </tspan><tspan class="cls-10" x="56.54" y="12">v</tspan><tspan x="58.48" y="12">alg. </tspan><tspan x="0" y="16.8">Du s</tspan><tspan class="cls-10" x="7.94" y="16.8">k</tspan><tspan x="9.87" y="16.8">al nemlig spørge </tspan><tspan class="cls-11" x="41.45" y="16.8">f</tspan><tspan x="42.69" y="16.8">o</tspan><tspan class="cls-12" x="45.09" y="16.8">r</tspan><tspan x="46.56" y="16.8">æld</tspan><tspan class="cls-12" x="53.4" y="16.8">r</tspan><tspan x="54.87" y="16.8">ene til ba</tspan><tspan class="cls-13" x="71.84" y="16.8">r</tspan><tspan x="73.39" y="16.8">n</tspan><tspan class="cls-5" x="75.59" y="16.8">e</tspan><tspan x="77.83" y="16.8">t </tspan><tspan x="0" y="21.6">om d</tspan><tspan class="cls-5" x="9.2" y="21.6">e</tspan><tspan x="11.45" y="21.6">t o</tspan><tspan class="cls-10" x="16.18" y="21.6">k</tspan><tspan class="cls-5" x="18.11" y="21.6">a</tspan><tspan class="cls-14" x="20.54" y="21.6">y</tspan><tspan x="22.54" y="21.6">, </tspan><tspan class="cls-15" x="25.01" y="21.6">f</tspan><tspan x="26.24" y="21.6">ør du deler indhold af de</tspan><tspan class="cls-12" x="71.99" y="21.6">r</tspan><tspan x="73.46" y="21.6">es </tspan><tspan x="0" y="26.4">ba</tspan><tspan class="cls-16" x="4.8" y="26.4">b</tspan><tspan x="7.12" y="26.4">y på n</tspan><tspan class="cls-5" x="18.76" y="26.4">e</tspan><tspan x="21" y="26.4">t</tspan><tspan class="cls-5" x="22.1" y="26.4">te</tspan><tspan x="25.47" y="26.4">t. </tspan><tspan x="0" y="31.2">Se</tspan><tspan class="cls-5" x="4.54" y="31.2">l</tspan><tspan class="cls-17" x="5.58" y="31.2">v</tspan><tspan x="7.51" y="31.2">om d</tspan><tspan class="cls-5" x="16.71" y="31.2">e</tspan><tspan x="18.96" y="31.2">t </tspan><tspan class="cls-10" x="21.29" y="31.2">k</tspan><tspan x="23.21" y="31.2">an </tspan><tspan class="cls-15" x="29.04" y="31.2">f</tspan><tspan x="30.27" y="31.2">øles </tspan><tspan class="cls-18" x="38.74" y="31.2">f</tspan><tspan x="40.01" y="31.2">joll</tspan><tspan class="cls-5" x="45.4" y="31.2">e</tspan><tspan x="47.65" y="31.2">t, når d</tspan><tspan class="cls-5" x="60.93" y="31.2">e</tspan><tspan x="63.18" y="31.2">t ba</tspan><tspan class="cls-12" x="70.3" y="31.2">r</tspan><tspan x="71.77" y="31.2">e er </tspan><tspan x="0" y="36">en ba</tspan><tspan class="cls-16" x="10.44" y="36">b</tspan><tspan class="cls-14" x="12.76" y="36">y</tspan><tspan x="14.77" y="36">, så tænk på at denne ba</tspan><tspan class="cls-16" x="60.45" y="36">b</tspan><tspan x="62.77" y="36">y </tspan><tspan class="cls-13" x="66.18" y="36">f</tspan><tspan x="67.43" y="36">aktisk </tspan><tspan x="0" y="40.8">ik</tspan><tspan class="cls-9" x="2.99" y="40.8">k</tspan><tspan x="4.92" y="40.8">e har mulighed </tspan><tspan class="cls-11" x="33.46" y="40.8">f</tspan><tspan x="34.69" y="40.8">or at sty</tspan><tspan class="cls-12" x="49.44" y="40.8">r</tspan><tspan x="50.91" y="40.8">e sin egen </tspan><tspan x="0" y="45.6">online-tils</tspan><tspan class="cls-5" x="16.58" y="45.6">t</tspan><tspan x="17.71" y="45.6">ed</tspan><tspan class="cls-10" x="22.32" y="45.6">e</tspan><tspan class="cls-19" x="24.46" y="45.6">v</tspan><tspan x="26.42" y="45.6">æ</tspan><tspan class="cls-12" x="29.87" y="45.6">r</tspan><tspan x="31.33" y="45.6">else.</tspan></tspan></text></g></g></svg>
