<svg xmlns="http://www.w3.org/2000/svg" viewBox="0 0 132 116"><defs><style>.cls-1{fill:#89cce5;}.cls-2{font-size:7.5px;fill:#fff;font-family:Futura-CondensedExtraBold, Futura;}.cls-3{font-weight:700;}.cls-4{letter-spacing:0.01em;}.cls-5{letter-spacing:0.01em;}.cls-6{letter-spacing:-0.01em;}.cls-7{font-size:6.5px;font-family:Futura-Medium, Futura;}.cls-8{letter-spacing:-0.02em;}.cls-9{letter-spacing:0.01em;}.cls-10{letter-spacing:0.01em;}.cls-11{letter-spacing:-0.02em;}.cls-12{letter-spacing:0.01em;}.cls-13{letter-spacing:0em;}.cls-14{letter-spacing:-0.01em;}.cls-15{letter-spacing:0.02em;}.cls-16{letter-spacing:0em;}.cls-17{letter-spacing:-0.06em;}.cls-18{letter-spacing:-0.02em;}.cls-19{letter-spacing:-0.02em;}.cls-20{letter-spacing:0.01em;}.cls-21{letter-spacing:0.02em;}.cls-22{letter-spacing:-0.01em;}.cls-23{letter-spacing:-0.02em;}.cls-24{letter-spacing:-0.04em;}.cls-25{letter-spacing:0em;}.cls-26{letter-spacing:0.01em;}.cls-27{font-size:5.5px;font-family:MyriadPro-Regular, Myriad Pro;}</style></defs><title>babyimgrigtig</title><g id="Lag_2" data-name="Lag 2"><g id="Lag_1-2" data-name="Lag 1"><polyline class="cls-1" points="13.19 77.34 0 116 35.65 81.52"/><rect class="cls-1" width="132" height="92" rx="12" ry="12"/><text class="cls-2" transform="translate(6 11.19)"><tspan class="cls-3">B<tspan class="cls-4" x="4.5" y="0">r</tspan><tspan class="cls-5" x="7.48" y="0">a</tspan><tspan class="cls-6" x="11.75" y="0">v</tspan><tspan x="15.46" y="0">o!</tspan></tspan><tspan class="cls-7"><tspan x="0" y="12">Ik</tspan><tspan class="cls-8" x="5.15" y="12">k</tspan><tspan x="8.29" y="12">e at dele billed</tspan><tspan class="cls-9" x="52.53" y="12">e</tspan><tspan x="56.18" y="12">t er </tspan><tspan class="cls-10" x="68" y="12">e</tspan><tspan x="71.65" y="12">t klogt </tspan><tspan class="cls-11" x="91.87" y="12">v</tspan><tspan x="95.03" y="12">alg, du </tspan><tspan x="0" y="19.8">s</tspan><tspan class="cls-11" x="2.64" y="19.8">k</tspan><tspan x="5.76" y="19.8">al nemlig spørge </tspan><tspan class="cls-12" x="57.09" y="19.8">f</tspan><tspan class="cls-13" x="59.1" y="19.8">o</tspan><tspan class="cls-14" x="63" y="19.8">r</tspan><tspan x="65.39" y="19.8">æld</tspan><tspan class="cls-14" x="76.5" y="19.8">r</tspan><tspan x="78.89" y="19.8">ene til </tspan><tspan x="0" y="27.6">ba</tspan><tspan class="cls-15" x="7.79" y="27.6">r</tspan><tspan class="cls-16" x="10.32" y="27.6">n</tspan><tspan class="cls-9" x="13.89" y="27.6">e</tspan><tspan x="17.54" y="27.6">t om d</tspan><tspan class="cls-10" x="36.28" y="27.6">e</tspan><tspan x="39.93" y="27.6">t o</tspan><tspan class="cls-11" x="47.62" y="27.6">k</tspan><tspan class="cls-10" x="50.75" y="27.6">a</tspan><tspan class="cls-17" x="54.7" y="27.6">y</tspan><tspan x="57.85" y="27.6">. Se</tspan><tspan class="cls-10" x="69.25" y="27.6">l</tspan><tspan class="cls-18" x="70.92" y="27.6">v</tspan><tspan x="74.06" y="27.6">om d</tspan><tspan class="cls-9" x="89.02" y="27.6">e</tspan><tspan x="92.67" y="27.6">t </tspan><tspan class="cls-19" x="96.45" y="27.6">k</tspan><tspan x="99.58" y="27.6">an </tspan><tspan class="cls-20" x="0" y="35.4">f</tspan><tspan x="2" y="35.4">øles </tspan><tspan class="cls-21" x="15.77" y="35.4">f</tspan><tspan x="17.83" y="35.4">joll</tspan><tspan class="cls-4" x="26.59" y="35.4">e</tspan><tspan x="30.24" y="35.4">t når d</tspan><tspan class="cls-10" x="49.82" y="35.4">e</tspan><tspan x="53.48" y="35.4">t ba</tspan><tspan class="cls-22" x="65.05" y="35.4">r</tspan><tspan x="67.44" y="35.4">e er en ba</tspan><tspan class="cls-23" x="98.04" y="35.4">b</tspan><tspan class="cls-24" x="101.82" y="35.4">y</tspan><tspan x="105.07" y="35.4">, så </tspan><tspan x="0" y="43.2">gør du dig se</tspan><tspan class="cls-4" x="39.33" y="43.2">l</tspan><tspan x="41" y="43.2">v en tjenes</tspan><tspan class="cls-9" x="72.23" y="43.2">t</tspan><tspan x="74.06" y="43.2">e, </tspan><tspan class="cls-12" x="81.67" y="43.2">f</tspan><tspan x="83.68" y="43.2">or i </tspan><tspan x="0" y="51">p</tspan><tspan class="cls-15" x="3.9" y="51">r</tspan><tspan class="cls-16" x="6.43" y="51">incipp</tspan><tspan class="cls-4" x="24.12" y="51">e</tspan><tspan x="27.77" y="51">t </tspan><tspan class="cls-25" x="31.56" y="51">k</tspan><tspan x="34.81" y="51">unne du bli</tspan><tspan class="cls-11" x="67.67" y="51">v</tspan><tspan x="70.82" y="51">e meldt til </tspan><tspan x="0" y="58.8">politi</tspan><tspan class="cls-4" x="14.44" y="58.8">e</tspan><tspan x="18.09" y="58.8">t </tspan><tspan class="cls-26" x="21.87" y="58.8">f</tspan><tspan x="23.88" y="58.8">or at sp</tspan><tspan class="cls-14" x="46.44" y="58.8">r</tspan><tspan x="48.83" y="58.8">ede billeder af and</tspan><tspan class="cls-22" x="105.4" y="58.8">r</tspan><tspan x="107.78" y="58.8" xml:space="preserve">e.  </tspan></tspan><tspan class="cls-27"><tspan x="0" y="65.4"> </tspan></tspan></text></g></g></svg>
