<svg xmlns="http://www.w3.org/2000/svg" viewBox="0 0 105.66 111"><defs><style>.cls-1{fill:#89cce5;}.cls-2{font-size:7.5px;fill:#fff;font-family:Futura-CondensedExtraBold, Futura CondensedExtraBold;}.cls-3,.cls-32,.cls-33,.cls-34,.cls-7{font-weight:700;}.cls-4{letter-spacing:-0.01em;}.cls-5{letter-spacing:-0.01em;}.cls-6{letter-spacing:-0.01em;}.cls-31,.cls-7{font-size:6.5px;}.cls-8{letter-spacing:0.01em;}.cls-9{letter-spacing:0.02em;}.cls-10{letter-spacing:0em;}.cls-11{letter-spacing:-0.02em;}.cls-12{letter-spacing:0.02em;}.cls-13{letter-spacing:-0.01em;}.cls-14{letter-spacing:-0.01em;}.cls-15{letter-spacing:0em;}.cls-16,.cls-32{letter-spacing:-0.01em;}.cls-17{letter-spacing:0em;}.cls-18{letter-spacing:0em;}.cls-19{letter-spacing:-0.04em;}.cls-20{letter-spacing:0.01em;}.cls-21{letter-spacing:0.02em;}.cls-22{letter-spacing:0em;}.cls-23{letter-spacing:-0.01em;}.cls-24{letter-spacing:-0.04em;}.cls-25{letter-spacing:-0.01em;}.cls-26{letter-spacing:-0.01em;}.cls-27{letter-spacing:0em;}.cls-28{letter-spacing:0em;}.cls-29{letter-spacing:-0.01em;}.cls-30{letter-spacing:0em;}.cls-33{letter-spacing:-0.01em;}.cls-34{letter-spacing:-0.01em;}.cls-35{font-family:Futura-Medium, Futura Medium;}.cls-36{font-size:5.5px;font-family:MyriadPro-Regular, Myriad Pro;}</style></defs><title>Aktiv 33</title><g id="Lag_2" data-name="Lag 2"><g id="Lag_1-2" data-name="Lag 1"><polyline class="cls-1" points="13.19 72.34 0 111 35.65 76.52"/><rect class="cls-1" width="105.66" height="87" rx="12" ry="12"/><text class="cls-2" transform="translate(5 10.32)"><tspan class="cls-3">B<tspan class="cls-4" x="4.06" y="0">r</tspan><tspan class="cls-5" x="6.48" y="0">a</tspan><tspan class="cls-6" x="10.04" y="0">v</tspan><tspan x="13.57" y="0">o!</tspan></tspan><tspan class="cls-7"><tspan class="cls-8" x="0" y="7.8">I</tspan><tspan class="cls-9" x="1.62" y="7.8">k</tspan><tspan x="4.78" y="7.8">ke </tspan><tspan class="cls-10" x="12.46" y="7.8">a</tspan><tspan x="15.57" y="7.8">t dele billedet er et </tspan><tspan class="cls-9" x="67.73" y="7.8">k</tspan><tspan x="70.89" y="7.8">logt </tspan><tspan class="cls-10" x="0" y="15.6">v</tspan><tspan x="3.1" y="15.6">al</tspan><tspan class="cls-11" x="7.77" y="15.6">g</tspan><tspan x="11.3" y="15.6">, du s</tspan><tspan class="cls-12" x="25.23" y="15.6">k</tspan><tspan x="28.39" y="15.6">al nemlig spø</tspan><tspan class="cls-13" x="64.63" y="15.6">r</tspan><tspan x="66.7" y="15.6">ge </tspan><tspan class="cls-14" x="0" y="23.4">f</tspan><tspan x="1.81" y="23.4">o</tspan><tspan class="cls-15" x="5.38" y="23.4">r</tspan><tspan x="7.48" y="23.4">æld</tspan><tspan class="cls-16" x="17.7" y="23.4">r</tspan><tspan x="19.76" y="23.4">ene til ba</tspan><tspan class="cls-17" x="44.67" y="23.4">r</tspan><tspan class="cls-18" x="46.83" y="23.4">net om det o</tspan><tspan class="cls-12" x="81.61" y="23.4">k</tspan><tspan class="cls-13" x="84.77" y="23.4">a</tspan><tspan class="cls-19" x="87.85" y="23.4">y</tspan><tspan x="90.66" y="23.4">. </tspan><tspan class="cls-20" x="0" y="31.2">S</tspan><tspan x="3.24" y="31.2">el</tspan><tspan class="cls-16" x="8.03" y="31.2">v</tspan><tspan x="11.1" y="31.2">om det </tspan><tspan class="cls-21" x="31.91" y="31.2">k</tspan><tspan x="35.08" y="31.2">an </tspan><tspan class="cls-14" x="43.2" y="31.2">f</tspan><tspan class="cls-22" x="45.01" y="31.2">øles fjollet når det </tspan><tspan x="0" y="39">ba</tspan><tspan class="cls-16" x="6.83" y="39">r</tspan><tspan x="8.89" y="39">e er en ba</tspan><tspan class="cls-23" x="35.36" y="39">b</tspan><tspan class="cls-24" x="39.01" y="39">y</tspan><tspan x="41.82" y="39">, så gør du dig selv </tspan><tspan x="0" y="46.8">en tjenes</tspan><tspan class="cls-25" x="24.67" y="46.8">t</tspan><tspan class="cls-26" x="26.78" y="46.8">e</tspan><tspan x="29.96" y="46.8">, </tspan><tspan class="cls-14" x="32.68" y="46.8">f</tspan><tspan x="34.49" y="46.8">or i p</tspan><tspan class="cls-27" x="48.16" y="46.8">r</tspan><tspan x="50.31" y="46.8">incippet </tspan><tspan class="cls-28" x="74.06" y="46.8">k</tspan><tspan x="77.13" y="46.8">unne </tspan><tspan x="0" y="54.6">du bli</tspan><tspan class="cls-16" x="15.38" y="54.6">v</tspan><tspan x="18.44" y="54.6">e meldt til politiet </tspan><tspan class="cls-29" x="67.84" y="54.6">f</tspan><tspan x="69.66" y="54.6">or </tspan><tspan class="cls-30" x="76.73" y="54.6">a</tspan><tspan x="79.84" y="54.6">t </tspan></tspan><tspan class="cls-31"><tspan class="cls-3" x="0" y="62.4">sp</tspan><tspan class="cls-32" x="6.27" y="62.4">r</tspan><tspan class="cls-3" x="8.33" y="62.4">ede billeder af and</tspan><tspan class="cls-33" x="58.67" y="62.4">r</tspan><tspan class="cls-34" x="60.73" y="62.4">e</tspan><tspan class="cls-3" x="63.91" y="62.4">. </tspan><tspan class="cls-35" x="66.64" y="62.4"> </tspan></tspan><tspan class="cls-36"><tspan x="0" y="69"> </tspan></tspan></text></g></g></svg>
