<svg xmlns="http://www.w3.org/2000/svg" viewBox="0 0 105.66 112"><defs><style>.cls-1{fill:#202532;}.cls-2{font-size:7.5px;fill:#fff;font-family:Futura-CondensedExtraBold, Futura;font-weight:700;}.cls-3{letter-spacing:-0.01em;}.cls-4{letter-spacing:-0.01em;}.cls-5{letter-spacing:0em;}.cls-6{font-size:7px;}.cls-7{letter-spacing:0em;}.cls-8{letter-spacing:0.01em;}.cls-9{letter-spacing:0em;}.cls-10{letter-spacing:0em;}.cls-11{letter-spacing:0.01em;}.cls-12{letter-spacing:0.01em;}.cls-13{letter-spacing:0.01em;}.cls-14{letter-spacing:-0.02em;}.cls-15{letter-spacing:0.01em;}.cls-16{letter-spacing:-0.03em;}.cls-17{letter-spacing:-0.01em;}.cls-18{letter-spacing:0.02em;}.cls-19{letter-spacing:0em;}.cls-20{letter-spacing:0em;}</style></defs><title>babyimgforkert</title><g id="Lag_2" data-name="Lag 2"><g id="Lag_1-2" data-name="Lag 1"><polyline class="cls-1" points="20.19 73.34 7 112 42.65 77.52"/><rect class="cls-1" width="105.66" height="89" rx="12" ry="12"/><text class="cls-2" transform="translate(5.84 14.19)">H<tspan class="cls-3" x="4.57" y="0">o</tspan><tspan class="cls-4" x="8.65" y="0">v</tspan><tspan class="cls-5" x="12.35" y="0">sa!</tspan><tspan class="cls-6"><tspan x="0" y="8.4">I d</tspan><tspan class="cls-7" x="8.2" y="8.4">e</tspan><tspan x="12.02" y="8.4">t</tspan><tspan class="cls-8" x="14.41" y="8.4">t</tspan><tspan x="16.83" y="8.4">e til</tspan><tspan class="cls-9" x="29.14" y="8.4">f</tspan><tspan x="31.52" y="8.4">ælde s</tspan><tspan class="cls-10" x="52.31" y="8.4">k</tspan><tspan x="56.19" y="8.4">al du </tspan><tspan x="0" y="16.8">spø</tspan><tspan class="cls-11" x="10.9" y="16.8">r</tspan><tspan class="cls-12" x="13.69" y="16.8">g</tspan><tspan x="17.64" y="16.8">e </tspan><tspan class="cls-13" x="23.56" y="16.8">f</tspan><tspan x="25.99" y="16.8">o</tspan><tspan class="cls-14" x="29.85" y="16.8">r</tspan><tspan x="32.45" y="16.8">æld</tspan><tspan class="cls-12" x="44.21" y="16.8">r</tspan><tspan x="46.98" y="16.8">ene til ba</tspan><tspan class="cls-15" x="76.96" y="16.8">r</tspan><tspan x="79.75" y="16.8">n</tspan><tspan class="cls-7" x="83.63" y="16.8">e</tspan><tspan x="87.46" y="16.8">t </tspan><tspan x="0" y="25.2">om d</tspan><tspan class="cls-7" x="15.7" y="25.2">e</tspan><tspan x="19.53" y="25.2">t o</tspan><tspan class="cls-10" x="27.87" y="25.2">k</tspan><tspan class="cls-12" x="31.76" y="25.2">a</tspan><tspan class="cls-16" x="35.74" y="25.2">y</tspan><tspan x="39.12" y="25.2">. Se</tspan><tspan class="cls-12" x="50.34" y="25.2">l</tspan><tspan class="cls-17" x="52.4" y="25.2">v</tspan><tspan x="55.86" y="25.2">om d</tspan><tspan class="cls-7" x="71.56" y="25.2">e</tspan><tspan x="75.39" y="25.2">t </tspan><tspan class="cls-10" x="79.87" y="25.2">k</tspan><tspan x="83.76" y="25.2">an </tspan><tspan class="cls-13" x="0" y="33.6">f</tspan><tspan x="2.43" y="33.6">øles </tspan><tspan class="cls-18" x="17.34" y="33.6">f</tspan><tspan x="19.82" y="33.6">joll</tspan><tspan class="cls-7" x="29.7" y="33.6">e</tspan><tspan x="33.53" y="33.6">t når d</tspan><tspan class="cls-19" x="54.59" y="33.6">e</tspan><tspan x="58.41" y="33.6">t ba</tspan><tspan class="cls-12" x="70.76" y="33.6">r</tspan><tspan x="73.54" y="33.6">e er </tspan><tspan x="0" y="42">en baby så gør du dig se</tspan><tspan class="cls-12" x="77.92" y="42">l</tspan><tspan x="79.98" y="42">v en </tspan><tspan x="0" y="50.4">tjene</tspan><tspan class="cls-12" x="15.89" y="50.4">s</tspan><tspan class="cls-8" x="19.07" y="50.4">t</tspan><tspan x="21.5" y="50.4">e, </tspan><tspan class="cls-13" x="29.52" y="50.4">f</tspan><tspan x="31.95" y="50.4">or i p</tspan><tspan class="cls-7" x="48.66" y="50.4">r</tspan><tspan x="51.4" y="50.4">incipp</tspan><tspan class="cls-7" x="69.53" y="50.4">e</tspan><tspan x="73.35" y="50.4">t </tspan><tspan class="cls-20" x="0" y="58.8">k</tspan><tspan x="3.92" y="58.8">unne du bli</tspan><tspan class="cls-17" x="39.49" y="58.8">v</tspan><tspan x="42.95" y="58.8">e meldt til </tspan><tspan x="0" y="67.2">politi</tspan><tspan class="cls-7" x="16.18" y="67.2">e</tspan><tspan x="20" y="67.2">t </tspan><tspan class="cls-13" x="24.49" y="67.2">f</tspan><tspan x="26.92" y="67.2">or at sp</tspan><tspan class="cls-12" x="51.07" y="67.2">r</tspan><tspan x="53.85" y="67.2">ede billeder </tspan></tspan></text></g></g></svg>
