<svg xmlns="http://www.w3.org/2000/svg" viewBox="0 0 105.66 111"><defs><style>.cls-1{fill:#89cce5;}.cls-2{font-size:7.5px;fill:#fff;font-family:Futura-CondensedExtraBold, Futura CondensedExtraBold;font-weight:700;}.cls-3{font-size:5.5px;}.cls-4{letter-spacing:0em;}.cls-5{letter-spacing:0.02em;}.cls-6{letter-spacing:-0.01em;}.cls-7{letter-spacing:0em;}.cls-8{letter-spacing:-0.01em;}.cls-9{letter-spacing:-0.01em;}.cls-10{letter-spacing:0em;}.cls-11{letter-spacing:-0.01em;}.cls-12{letter-spacing:-0.02em;}.cls-13{letter-spacing:0.02em;}.cls-14{letter-spacing:0em;}.cls-15{letter-spacing:-0.01em;}.cls-16{letter-spacing:0em;}.cls-17{letter-spacing:-0.01em;}.cls-18{letter-spacing:0em;}.cls-19{letter-spacing:-0.01em;}.cls-20{letter-spacing:0em;}.cls-21{letter-spacing:0.02em;}.cls-22{letter-spacing:-0.01em;}.cls-23{letter-spacing:-0.05em;}.cls-24{letter-spacing:0.03em;}.cls-25{letter-spacing:-0.04em;}.cls-26{font-size:6px;}</style></defs><title>Aktiv 29</title><g id="Lag_2" data-name="Lag 2"><g id="Lag_1-2" data-name="Lag 1"><polyline class="cls-1" points="18.19 72.34 5 111 40.65 76.52"/><rect class="cls-1" width="105.66" height="88" rx="12" ry="12"/><text class="cls-2" transform="translate(7.84 13.32)">Jubi!<tspan class="cls-3"><tspan class="cls-4" x="0" y="6.6">G</tspan><tspan x="3.58" y="6.6">odt du i</tspan><tspan class="cls-5" x="21.27" y="6.6">k</tspan><tspan x="23.95" y="6.6">ke del</tspan><tspan class="cls-6" x="37.6" y="6.6">t</tspan><tspan x="39.39" y="6.6">e billede</tspan><tspan class="cls-7" x="58.94" y="6.6">t</tspan><tspan x="60.74" y="6.6">, </tspan><tspan class="cls-8" x="63.05" y="6.6">f</tspan><tspan x="64.58" y="6.6">or der er </tspan><tspan x="0" y="13.2">s</tspan><tspan class="cls-6" x="2.18" y="13.2">t</tspan><tspan x="3.96" y="13.2">or </tspan><tspan class="cls-8" x="9.95" y="13.2">f</tspan><tspan x="11.48" y="13.2">orskel på, </tspan><tspan class="cls-8" x="34.36" y="13.2">h</tspan><tspan class="cls-9" x="37.34" y="13.2">v</tspan><tspan class="cls-10" x="39.93" y="13.2">o</tspan><tspan class="cls-11" x="42.95" y="13.2">r</tspan><tspan x="44.7" y="13.2">dan mennesker </tspan><tspan x="0" y="19.8">ople</tspan><tspan class="cls-9" x="10.2" y="19.8">v</tspan><tspan x="12.79" y="19.8">er billeddelin</tspan><tspan class="cls-12" x="42.88" y="19.8">g</tspan><tspan x="45.87" y="19.8">, et billede som </tspan><tspan x="0" y="26.4">det</tspan><tspan class="cls-6" x="7.68" y="26.4">t</tspan><tspan x="9.46" y="26.4">e </tspan><tspan class="cls-13" x="13.39" y="26.4">k</tspan><tspan x="16.06" y="26.4">an </tspan><tspan class="cls-14" x="22.93" y="26.4">v</tspan><tspan x="25.56" y="26.4">æ</tspan><tspan class="cls-15" x="29.81" y="26.4">r</tspan><tspan class="cls-16" x="31.55" y="26.4">e </tspan><tspan class="cls-17" x="35.47" y="26.4">g</tspan><tspan class="cls-18" x="38.52" y="26.4">r</tspan><tspan x="40.29" y="26.4">ænse</tspan><tspan class="cls-19" x="52.52" y="26.4">o</tspan><tspan class="cls-11" x="55.51" y="26.4">v</tspan><tspan x="58.1" y="26.4">ers</tspan><tspan class="cls-5" x="64.83" y="26.4">k</tspan><tspan class="cls-20" x="67.5" y="26.4">r</tspan><tspan x="69.32" y="26.4">idende </tspan><tspan class="cls-8" x="0" y="33">f</tspan><tspan x="1.53" y="33">or én og helt o</tspan><tspan class="cls-21" x="34.86" y="33">k</tspan><tspan class="cls-22" x="37.54" y="33">a</tspan><tspan x="40.15" y="33">y </tspan><tspan class="cls-8" x="43.91" y="33">f</tspan><tspan x="45.44" y="33">or en anden. </tspan><tspan class="cls-20" x="75.32" y="33">D</tspan><tspan x="79" y="33">et er </tspan><tspan x="0" y="39.6">vigtigt </tspan><tspan class="cls-14" x="16.17" y="39.6">a</tspan><tspan x="18.8" y="39.6">t tale om, </tspan><tspan class="cls-14" x="41.39" y="39.6">a</tspan><tspan x="44.02" y="39.6">t vi har </tspan><tspan class="cls-8" x="60.77" y="39.6">f</tspan><tspan x="62.31" y="39.6">orskellige </tspan><tspan class="cls-6" x="0" y="46.2">g</tspan><tspan class="cls-18" x="3.04" y="46.2">r</tspan><tspan x="4.81" y="46.2">ænse</tspan><tspan class="cls-23" x="17.05" y="46.2">r</tspan><tspan x="18.56" y="46.2">, og </tspan><tspan class="cls-14" x="28.12" y="46.2">a</tspan><tspan x="30.75" y="46.2">t man de</tspan><tspan class="cls-24" x="51.05" y="46.2">r</tspan><tspan class="cls-8" x="53.01" y="46.2">f</tspan><tspan x="54.55" y="46.2">or i</tspan><tspan class="cls-5" x="61.82" y="46.2">k</tspan><tspan x="64.49" y="46.2">ke </tspan><tspan class="cls-21" x="70.99" y="46.2">k</tspan><tspan x="73.67" y="46.2">an </tspan><tspan x="0" y="52.8">tage udgangspunkt i sig sel</tspan><tspan class="cls-25" x="62.8" y="52.8">v</tspan><tspan x="65.23" y="52.8">, når der er </tspan><tspan x="0" y="60">and</tspan><tspan class="cls-9" x="8.81" y="60">r</tspan><tspan x="10.55" y="60">e på billedet</tspan><tspan class="cls-26" x="38.86" y="60">.</tspan></tspan></text></g></g></svg>
