<svg xmlns="http://www.w3.org/2000/svg" viewBox="0 0 134 125"><defs><style>.cls-1{fill:#202532;}.cls-2{font-size:7.5px;fill:#fff;font-family:Futura-CondensedExtraBold, Futura;}.cls-3{font-weight:700;}.cls-4{letter-spacing:-0.02em;}.cls-5{letter-spacing:0em;}.cls-6{font-size:6.1px;font-family:Futura-Medium, Futura;}.cls-7{letter-spacing:0.01em;}.cls-8{letter-spacing:0.01em;}.cls-9{letter-spacing:-0.02em;}.cls-10{letter-spacing:-0.02em;}.cls-11{letter-spacing:-0.01em;}.cls-12{letter-spacing:-0.02em;}.cls-13{letter-spacing:0.01em;}.cls-14{letter-spacing:0.01em;}.cls-15{letter-spacing:0em;}.cls-16{letter-spacing:-0.01em;}.cls-17{letter-spacing:-0.01em;}.cls-18{letter-spacing:-0.01em;}.cls-19{letter-spacing:-0.02em;}.cls-20{letter-spacing:0.02em;}.cls-21{letter-spacing:0.01em;}.cls-22{letter-spacing:0.01em;}.cls-23{letter-spacing:-0.04em;}.cls-24{letter-spacing:0.03em;}</style></defs><title>drukimgforkert</title><g id="Lag_2" data-name="Lag 2"><g id="Lag_1-2" data-name="Lag 1"><polyline class="cls-1" points="13.19 86.34 0 125 35.65 90.52"/><rect class="cls-1" x="4" width="130" height="93" rx="12" ry="12"/><text class="cls-2" transform="translate(9.84 11.19)"><tspan class="cls-3">G<tspan class="cls-4" x="4.75" y="0">r</tspan><tspan class="cls-5" x="7.54" y="0">ænser!</tspan></tspan><tspan class="cls-6"><tspan x="0" y="12">Der er s</tspan><tspan class="cls-7" x="21.98" y="12">t</tspan><tspan x="23.69" y="12">or </tspan><tspan class="cls-8" x="31.52" y="12">f</tspan><tspan x="33.41" y="12">ors</tspan><tspan class="cls-9" x="41.83" y="12">k</tspan><tspan x="44.77" y="12">el på, h</tspan><tspan class="cls-10" x="65.97" y="12">v</tspan><tspan x="68.92" y="12">o</tspan><tspan class="cls-11" x="72.59" y="12">r</tspan><tspan x="74.83" y="12">dan mennes</tspan><tspan class="cls-9" x="108.11" y="12">k</tspan><tspan x="111.05" y="12">er </tspan><tspan x="0" y="19.32">opl</tspan><tspan class="cls-12" x="8.84" y="19.32">ev</tspan><tspan x="15.07" y="19.32">er billeddeling. Et billede som d</tspan><tspan class="cls-13" x="102.71" y="19.32">e</tspan><tspan x="106.13" y="19.32">t</tspan><tspan class="cls-14" x="107.8" y="19.32">t</tspan><tspan x="109.52" y="19.32">e </tspan><tspan class="cls-12" x="0" y="26.64">k</tspan><tspan class="cls-15" x="2.93" y="26.64">an </tspan><tspan class="cls-16" x="11.82" y="26.64">v</tspan><tspan x="14.81" y="26.64">æ</tspan><tspan class="cls-17" x="20.06" y="26.64">r</tspan><tspan x="22.3" y="26.64">e g</tspan><tspan class="cls-18" x="31.21" y="26.64">r</tspan><tspan x="33.45" y="26.64">ænse</tspan><tspan class="cls-19" x="47.9" y="26.64">o</tspan><tspan class="cls-12" x="51.44" y="26.64">v</tspan><tspan x="54.4" y="26.64">ersk</tspan><tspan class="cls-20" x="65.57" y="26.64">r</tspan><tspan x="67.94" y="26.64">idende </tspan><tspan class="cls-21" x="88.75" y="26.64">f</tspan><tspan x="90.64" y="26.64">or én og </tspan><tspan x="0" y="33.96">helt o</tspan><tspan class="cls-12" x="15.46" y="33.96">k</tspan><tspan class="cls-14" x="18.39" y="33.96">a</tspan><tspan x="22.1" y="33.96">y </tspan><tspan class="cls-8" x="27.3" y="33.96">f</tspan><tspan x="29.18" y="33.96">or en anden. D</tspan><tspan class="cls-14" x="71.19" y="33.96">e</tspan><tspan x="74.62" y="33.96">t er vigtigt at </tspan><tspan class="cls-14" x="0" y="41.28">t</tspan><tspan x="1.72" y="41.28">ale om, at vi har </tspan><tspan class="cls-22" x="49.25" y="41.28">f</tspan><tspan x="51.14" y="41.28">ors</tspan><tspan class="cls-9" x="59.56" y="41.28">k</tspan><tspan x="62.5" y="41.28">ellige g</tspan><tspan class="cls-11" x="82.99" y="41.28">r</tspan><tspan x="85.23" y="41.28">ænse</tspan><tspan class="cls-23" x="99.68" y="41.28">r</tspan><tspan x="101.72" y="41.28">, og </tspan><tspan x="0" y="48.6">at man de</tspan><tspan class="cls-24" x="27.95" y="48.6">r</tspan><tspan class="cls-22" x="30.43" y="48.6">f</tspan><tspan x="32.32" y="48.6">or ik</tspan><tspan class="cls-9" x="44.71" y="48.6">k</tspan><tspan x="47.65" y="48.6">e </tspan><tspan class="cls-12" x="52.91" y="48.6">k</tspan><tspan x="55.84" y="48.6">an </tspan><tspan class="cls-14" x="64.72" y="48.6">t</tspan><tspan x="66.45" y="48.6">age udgangspunkt </tspan><tspan x="0" y="55.92">i sig se</tspan><tspan class="cls-14" x="18.78" y="55.92">l</tspan><tspan class="cls-23" x="20.35" y="55.92">v</tspan><tspan x="23.17" y="55.92">, når der er and</tspan><tspan class="cls-18" x="67.5" y="55.92">r</tspan><tspan x="69.74" y="55.92">e på billed</tspan><tspan class="cls-14" x="99.44" y="55.92">e</tspan><tspan x="102.87" y="55.92">t. </tspan></tspan></text></g></g></svg>
