<svg xmlns="http://www.w3.org/2000/svg" viewBox="0 0 105.66 111"><defs><style>.cls-1{fill:#89cce5;}.cls-2{font-size:7.5px;fill:#fff;font-family:Futura-CondensedExtraBold, Futura;font-weight:700;}.cls-3{font-size:5.5px;}.cls-4{letter-spacing:-0.01em;}.cls-5{letter-spacing:0.01em;}.cls-6{letter-spacing:0em;}.cls-7{letter-spacing:0.01em;}.cls-8{letter-spacing:0.01em;}.cls-9{letter-spacing:0.01em;}.cls-10{letter-spacing:-0.01em;}.cls-11{letter-spacing:-0.01em;}.cls-12{letter-spacing:0.01em;}.cls-13{letter-spacing:-0.01em;}.cls-14{letter-spacing:0em;}.cls-15{letter-spacing:-0.01em;}.cls-16{letter-spacing:0.02em;}.cls-17{letter-spacing:-0.02em;}.cls-18{letter-spacing:0.01em;}.cls-19{letter-spacing:0em;}.cls-20{letter-spacing:0.01em;}.cls-21{letter-spacing:-0.04em;}.cls-22{letter-spacing:0.02em;}.cls-23{letter-spacing:0em;}.cls-24{letter-spacing:0.01em;}.cls-25{letter-spacing:0em;}.cls-26{letter-spacing:-0.03em;}</style></defs><title>drukimgrigtig</title><g id="Lag_2" data-name="Lag 2"><g id="Lag_1-2" data-name="Lag 1"><polyline class="cls-1" points="18.19 72.34 5 111 40.65 76.52"/><rect class="cls-1" width="105.66" height="88" rx="12" ry="12"/><text class="cls-2" transform="translate(7.84 14.19)">Jubi!<tspan class="cls-3"><tspan x="0" y="6.6">Godt du ik</tspan><tspan class="cls-4" x="25.63" y="6.6">k</tspan><tspan x="28.64" y="6.6">e del</tspan><tspan class="cls-5" x="40.95" y="6.6">t</tspan><tspan x="42.86" y="6.6">e billed</tspan><tspan class="cls-6" x="61.4" y="6.6">e</tspan><tspan x="64.41" y="6.6">t, </tspan><tspan class="cls-7" x="69.59" y="6.6">f</tspan><tspan x="71.5" y="6.6">or der </tspan><tspan x="0" y="13.2">er </tspan><tspan class="cls-8" x="6.79" y="13.2">s</tspan><tspan class="cls-5" x="9.29" y="13.2">t</tspan><tspan x="11.19" y="13.2">or </tspan><tspan class="cls-9" x="18.02" y="13.2">f</tspan><tspan x="19.93" y="13.2">o</tspan><tspan class="cls-6" x="22.96" y="13.2">r</tspan><tspan x="25.11" y="13.2">s</tspan><tspan class="cls-10" x="27.57" y="13.2">k</tspan><tspan x="30.58" y="13.2">el på, h</tspan><tspan class="cls-11" x="49.33" y="13.2">v</tspan><tspan x="52.04" y="13.2">o</tspan><tspan class="cls-12" x="55.08" y="13.2">r</tspan><tspan x="57.26" y="13.2">dan </tspan><tspan x="0" y="19.8">mennes</tspan><tspan class="cls-4" x="19.11" y="19.8">k</tspan><tspan x="22.12" y="19.8">er opl</tspan><tspan class="cls-13" x="36.59" y="19.8">e</tspan><tspan class="cls-11" x="39.54" y="19.8">v</tspan><tspan x="42.26" y="19.8">er billeddeling, </tspan><tspan class="cls-6" x="81.61" y="19.8">e</tspan><tspan x="84.61" y="19.8">t </tspan><tspan x="0" y="26.4">billede som d</tspan><tspan class="cls-6" x="33.34" y="26.4">e</tspan><tspan x="36.35" y="26.4">t</tspan><tspan class="cls-5" x="38.22" y="26.4">t</tspan><tspan x="40.12" y="26.4">e </tspan><tspan class="cls-14" x="44.77" y="26.4">k</tspan><tspan x="47.82" y="26.4">an </tspan><tspan class="cls-15" x="55.61" y="26.4">v</tspan><tspan x="58.31" y="26.4">æ</tspan><tspan class="cls-8" x="62.88" y="26.4">r</tspan><tspan x="65.06" y="26.4">e </tspan><tspan class="cls-16" x="0" y="33">g</tspan><tspan class="cls-17" x="3.15" y="33">r</tspan><tspan x="5.2" y="33">ænse</tspan><tspan class="cls-13" x="18.27" y="33">o</tspan><tspan class="cls-11" x="21.26" y="33">v</tspan><tspan x="23.98" y="33">e</tspan><tspan class="cls-6" x="26.97" y="33">r</tspan><tspan x="29.12" y="33">sk</tspan><tspan class="cls-6" x="34.65" y="33">r</tspan><tspan x="36.81" y="33">idende </tspan><tspan class="cls-18" x="55.25" y="33">f</tspan><tspan x="57.16" y="33">or én og helt </tspan><tspan x="0" y="39.6">o</tspan><tspan class="cls-19" x="3.03" y="39.6">k</tspan><tspan class="cls-8" x="6.08" y="39.6">a</tspan><tspan x="9.21" y="39.6">y </tspan><tspan class="cls-9" x="13.7" y="39.6">f</tspan><tspan x="15.61" y="39.6">or en anden. D</tspan><tspan class="cls-6" x="52.07" y="39.6">e</tspan><tspan x="55.07" y="39.6">t er vigtigt at </tspan><tspan class="cls-20" x="0" y="46.2">t</tspan><tspan x="1.92" y="46.2">ale om, at vi har </tspan><tspan class="cls-18" x="44.69" y="46.2">f</tspan><tspan x="46.6" y="46.2">o</tspan><tspan class="cls-6" x="49.63" y="46.2">r</tspan><tspan x="51.78" y="46.2">s</tspan><tspan class="cls-4" x="54.24" y="46.2">k</tspan><tspan x="57.25" y="46.2">elli</tspan><tspan class="cls-8" x="64.97" y="46.2">g</tspan><tspan x="68.08" y="46.2">e </tspan><tspan class="cls-16" x="0" y="52.8">g</tspan><tspan class="cls-17" x="3.15" y="52.8">r</tspan><tspan x="5.2" y="52.8">ænse</tspan><tspan class="cls-21" x="18.27" y="52.8">r</tspan><tspan x="20.18" y="52.8">, og at man de</tspan><tspan class="cls-22" x="56.29" y="52.8">r</tspan><tspan class="cls-7" x="58.54" y="52.8">f</tspan><tspan x="60.45" y="52.8">or ik</tspan><tspan class="cls-4" x="71.93" y="52.8">k</tspan><tspan x="74.94" y="52.8">e </tspan><tspan class="cls-23" x="79.59" y="52.8">k</tspan><tspan x="82.64" y="52.8">an </tspan><tspan class="cls-20" x="0" y="59.4">t</tspan><tspan x="1.92" y="59.4">a</tspan><tspan class="cls-8" x="5.01" y="59.4">g</tspan><tspan x="8.12" y="59.4">e ud</tspan><tspan class="cls-24" x="18.96" y="59.4">g</tspan><tspan class="cls-25" x="22.1" y="59.4">angspunkt i sig se</tspan><tspan class="cls-8" x="67.03" y="59.4">l</tspan><tspan class="cls-26" x="68.65" y="59.4">v</tspan><tspan x="71.27" y="59.4">, når </tspan><tspan x="0" y="66">der er and</tspan><tspan class="cls-8" x="25.89" y="66">r</tspan><tspan x="28.08" y="66">e på </tspan></tspan></text></g></g></svg>
