<svg xmlns="http://www.w3.org/2000/svg" viewBox="0 0 105.66 112"><defs><style>.cls-1{fill:#202532;}.cls-2{font-size:7.5px;fill:#fff;font-family:Futura-CondensedExtraBold, Futura;}.cls-3,.cls-31,.cls-6{font-weight:700;}.cls-4{letter-spacing:-0.02em;}.cls-5{letter-spacing:0em;}.cls-30,.cls-6{font-size:6.1px;}.cls-7{letter-spacing:0.01em;}.cls-8{letter-spacing:0.01em;}.cls-9{letter-spacing:0.01em;}.cls-10{letter-spacing:0em;}.cls-11{letter-spacing:-0.01em;}.cls-12{letter-spacing:-0.01em;}.cls-13{letter-spacing:0.01em;}.cls-14{letter-spacing:-0.01em;}.cls-15{letter-spacing:-0.01em;}.cls-16,.cls-31{letter-spacing:0em;}.cls-17{letter-spacing:0.01em;}.cls-18{letter-spacing:0em;}.cls-19{letter-spacing:-0.01em;}.cls-20{letter-spacing:0.02em;}.cls-21{letter-spacing:-0.02em;}.cls-22{letter-spacing:-0.01em;}.cls-23{letter-spacing:0em;}.cls-24{letter-spacing:0.01em;}.cls-25{letter-spacing:0em;}.cls-26{letter-spacing:-0.04em;}.cls-27{letter-spacing:0.02em;}.cls-28{letter-spacing:0.01em;}.cls-29{letter-spacing:-0.03em;}.cls-32{font-family:Futura-Medium, Futura;}</style></defs><title>drukimgforkert</title><g id="Lag_2" data-name="Lag 2"><g id="Lag_1-2" data-name="Lag 1"><polyline class="cls-1" points="16.19 73.34 3 112 38.65 77.52"/><rect class="cls-1" width="105.66" height="86" rx="12" ry="12"/><text class="cls-2" transform="translate(5.84 11.19)"><tspan class="cls-3">G<tspan class="cls-4" x="4.75" y="0">r</tspan><tspan class="cls-5" x="7.54" y="0">ænser!</tspan></tspan><tspan class="cls-6"><tspan x="0" y="7.32">Der er </tspan><tspan class="cls-7" x="18.77" y="7.32">s</tspan><tspan class="cls-8" x="21.54" y="7.32">t</tspan><tspan x="23.65" y="7.32">or </tspan><tspan class="cls-9" x="31.22" y="7.32">f</tspan><tspan x="33.34" y="7.32">o</tspan><tspan class="cls-10" x="36.7" y="7.32">r</tspan><tspan x="39.09" y="7.32">s</tspan><tspan class="cls-11" x="41.81" y="7.32">k</tspan><tspan x="45.15" y="7.32">el på, h</tspan><tspan class="cls-12" x="65.95" y="7.32">v</tspan><tspan x="68.96" y="7.32">o</tspan><tspan class="cls-13" x="72.32" y="7.32">r</tspan><tspan x="74.75" y="7.32">dan </tspan><tspan x="0" y="14.64">mennes</tspan><tspan class="cls-14" x="21.19" y="14.64">k</tspan><tspan x="24.53" y="14.64">er opl</tspan><tspan class="cls-15" x="40.59" y="14.64">e</tspan><tspan class="cls-12" x="43.86" y="14.64">v</tspan><tspan x="46.88" y="14.64">er billeddeling. </tspan><tspan x="0" y="21.96">Et billede som d</tspan><tspan class="cls-16" x="43.73" y="21.96">e</tspan><tspan x="47.06" y="21.96">t</tspan><tspan class="cls-17" x="49.14" y="21.96">t</tspan><tspan x="51.25" y="21.96">e </tspan><tspan class="cls-18" x="56.41" y="21.96">k</tspan><tspan x="59.79" y="21.96">an </tspan><tspan class="cls-19" x="68.43" y="21.96">v</tspan><tspan x="71.42" y="21.96">æ</tspan><tspan class="cls-7" x="76.49" y="21.96">r</tspan><tspan x="78.91" y="21.96">e </tspan><tspan class="cls-20" x="0" y="29.28">g</tspan><tspan class="cls-21" x="3.5" y="29.28">r</tspan><tspan x="5.77" y="29.28">ænse</tspan><tspan class="cls-22" x="20.26" y="29.28">o</tspan><tspan class="cls-12" x="23.58" y="29.28">v</tspan><tspan x="26.59" y="29.28">e</tspan><tspan class="cls-10" x="29.91" y="29.28">r</tspan><tspan x="32.3" y="29.28">sk</tspan><tspan class="cls-16" x="38.44" y="29.28">r</tspan><tspan class="cls-23" x="40.82" y="29.28">idende </tspan><tspan class="cls-24" x="61.28" y="29.28">f</tspan><tspan x="63.4" y="29.28">or én og </tspan><tspan x="0" y="36.6">helt o</tspan><tspan class="cls-25" x="15.73" y="36.6">k</tspan><tspan class="cls-7" x="19.11" y="36.6">a</tspan><tspan x="22.58" y="36.6">y </tspan><tspan class="cls-9" x="27.56" y="36.6">f</tspan><tspan x="29.68" y="36.6">or en anden. D</tspan><tspan class="cls-16" x="70.11" y="36.6">e</tspan><tspan x="73.44" y="36.6">t er </tspan><tspan x="0" y="43.92">vigtigt at </tspan><tspan class="cls-13" x="26.69" y="43.92">t</tspan><tspan x="28.82" y="43.92">ale om, at vi har </tspan><tspan class="cls-9" x="0" y="51.24">f</tspan><tspan x="2.12" y="51.24">o</tspan><tspan class="cls-10" x="5.48" y="51.24">r</tspan><tspan x="7.87" y="51.24">s</tspan><tspan class="cls-11" x="10.59" y="51.24">k</tspan><tspan x="13.93" y="51.24">elli</tspan><tspan class="cls-7" x="22.49" y="51.24">g</tspan><tspan x="25.94" y="51.24">e </tspan><tspan class="cls-20" x="31.1" y="51.24">g</tspan><tspan class="cls-21" x="34.59" y="51.24">r</tspan><tspan x="36.86" y="51.24">ænse</tspan><tspan class="cls-26" x="51.36" y="51.24">r</tspan><tspan x="53.48" y="51.24">, og at man </tspan><tspan x="0" y="58.56">de</tspan><tspan class="cls-27" x="6.75" y="58.56">r</tspan><tspan class="cls-9" x="9.24" y="58.56">f</tspan><tspan x="11.35" y="58.56">or ik</tspan><tspan class="cls-14" x="24.09" y="58.56">k</tspan><tspan x="27.43" y="58.56">e </tspan><tspan class="cls-25" x="32.58" y="58.56">k</tspan><tspan x="35.97" y="58.56">an </tspan><tspan class="cls-13" x="44.61" y="58.56">t</tspan><tspan x="46.74" y="58.56">a</tspan><tspan class="cls-7" x="50.17" y="58.56">g</tspan><tspan x="53.61" y="58.56">e ud</tspan><tspan class="cls-28" x="65.64" y="58.56">g</tspan><tspan x="69.12" y="58.56">angs</tspan><tspan x="82.05" y="58.56">-</tspan><tspan x="0" y="65.88">punkt i sig se</tspan><tspan class="cls-7" x="36.9" y="65.88">l</tspan><tspan class="cls-29" x="38.7" y="65.88">v</tspan><tspan x="41.6" y="65.88">, når der er and</tspan><tspan class="cls-7" x="85.01" y="65.88">r</tspan><tspan x="87.43" y="65.88">e </tspan></tspan><tspan class="cls-30"><tspan class="cls-3" x="0" y="73.2">på billed</tspan><tspan class="cls-31" x="24.09" y="73.2">e</tspan><tspan class="cls-3" x="27.42" y="73.2">t.</tspan><tspan class="cls-32" x="31.33" y="73.2"> </tspan></tspan></text></g></g></svg>
