<svg xmlns="http://www.w3.org/2000/svg" width="100" height="88.46" viewBox="0 0 100 88.46"><defs><style>.cls-1{fill:#202532;}.cls-2,.cls-3{fill:#fff;}.cls-3{font-size:9px;font-family:Futura-CondensedExtraBold, Futura;}.cls-4{font-weight:700;}.cls-5{letter-spacing:-0.02em;}.cls-6{font-size:4px;font-family:Futura-Medium, Futura;}.cls-7{letter-spacing:0.01em;}.cls-8{letter-spacing:0.01em;}.cls-9{letter-spacing:-0.02em;}.cls-10{letter-spacing:-0.01em;}.cls-11{letter-spacing:0.04em;}.cls-12{letter-spacing:0.01em;}.cls-13{letter-spacing:-0.01em;}.cls-14{letter-spacing:-0.02em;}.cls-15{letter-spacing:0.02em;}.cls-16{letter-spacing:-0.05em;}.cls-17{letter-spacing:-0.04em;}.cls-18{letter-spacing:0.03em;}.cls-19{letter-spacing:-0.04em;}.cls-20{font-size:4.1px;}</style></defs><title>druk_info</title><g id="Layer_2" data-name="Layer 2"><g id="Layer_1-2" data-name="Layer 1"><path class="cls-1" d="M7.72,68.92l-1-.31A8.21,8.21,0,0,1,1,60.77V9.23A8.24,8.24,0,0,1,9.23,1H90.77A8.24,8.24,0,0,1,99,9.23V60.77A8.24,8.24,0,0,1,90.77,69H18.69L2.28,84.86Z"/><path class="cls-2" d="M90.77,2A7.23,7.23,0,0,1,98,9.23V60.77A7.23,7.23,0,0,1,90.77,68H18.28l-.58.56L4.57,81.26,8.34,70.21,9,68.28l-1.95-.62a7.31,7.31,0,0,1-5-6.89V9.23A7.23,7.23,0,0,1,9.23,2H90.77m0-2H9.23A9.25,9.25,0,0,0,0,9.23V60.77a9.27,9.27,0,0,0,6.44,8.8L0,88.46,19.09,70H90.77A9.25,9.25,0,0,0,100,60.77V9.23A9.25,9.25,0,0,0,90.77,0Z"/><text class="cls-3" transform="translate(9.8 13.82)"><tspan class="cls-4">G<tspan class="cls-5" x="5.7" y="0">r</tspan><tspan x="9.05" y="0">ænser!</tspan></tspan><tspan class="cls-6"><tspan x="0" y="12">Der er s</tspan><tspan class="cls-7" x="14.41" y="12">t</tspan><tspan x="15.54" y="12">or </tspan><tspan class="cls-8" x="20.67" y="12">f</tspan><tspan x="21.91" y="12">ors</tspan><tspan class="cls-9" x="27.43" y="12">k</tspan><tspan x="29.36" y="12">el på g</tspan><tspan class="cls-10" x="42.23" y="12">r</tspan><tspan x="43.7" y="12">ænser i</tspan><tspan class="cls-11" x="56.89" y="12">f</tspan><tspan x="58.23" y="12">t. </tspan><tspan x="0" y="16.8">billeddeling;</tspan><tspan x="0" y="21.6">Et billede som d</tspan><tspan class="cls-12" x="28.86" y="21.6">e</tspan><tspan x="31.11" y="21.6">t</tspan><tspan class="cls-12" x="32.2" y="21.6">t</tspan><tspan x="33.33" y="21.6">e </tspan><tspan class="cls-5" x="36.78" y="21.6">k</tspan><tspan x="38.7" y="21.6">an </tspan><tspan class="cls-13" x="44.53" y="21.6">v</tspan><tspan x="46.49" y="21.6">æ</tspan><tspan class="cls-10" x="49.93" y="21.6">r</tspan><tspan x="51.4" y="21.6">e </tspan><tspan x="0" y="26.4">g</tspan><tspan class="cls-10" x="2.39" y="26.4">r</tspan><tspan x="3.86" y="26.4">ænse</tspan><tspan class="cls-14" x="13.34" y="26.4">o</tspan><tspan class="cls-5" x="15.66" y="26.4">v</tspan><tspan x="17.6" y="26.4">ersk</tspan><tspan class="cls-15" x="24.93" y="26.4">r</tspan><tspan x="26.48" y="26.4">idende </tspan><tspan class="cls-8" x="40.13" y="26.4">f</tspan><tspan x="41.37" y="26.4">or én og o</tspan><tspan class="cls-5" x="60.58" y="26.4">k</tspan><tspan class="cls-12" x="62.5" y="26.4">a</tspan><tspan x="64.94" y="26.4">y </tspan><tspan class="cls-8" x="68.34" y="26.4">f</tspan><tspan x="69.58" y="26.4">or en </tspan><tspan x="0" y="31.2">anden. D</tspan><tspan class="cls-12" x="16.77" y="31.2">e</tspan><tspan x="19.02" y="31.2">t er vigtigt at </tspan><tspan class="cls-12" x="43.23" y="31.2">t</tspan><tspan x="44.36" y="31.2">ale om, at vi har </tspan><tspan class="cls-8" x="0" y="36">f</tspan><tspan x="1.24" y="36">ors</tspan><tspan class="cls-9" x="6.76" y="36">k</tspan><tspan x="8.69" y="36">ellige g</tspan><tspan class="cls-10" x="22.13" y="36">r</tspan><tspan x="23.59" y="36">ænse</tspan><tspan class="cls-16" x="33.07" y="36">r</tspan><tspan x="34.35" y="36">.</tspan><tspan class="cls-17" x="0" y="40.8">T</tspan><tspan x="1.76" y="40.8">ag de</tspan><tspan class="cls-18" x="12.4" y="40.8">r</tspan><tspan class="cls-8" x="14.03" y="40.8">f</tspan><tspan x="15.27" y="40.8">or ik</tspan><tspan class="cls-9" x="23.39" y="40.8">k</tspan><tspan x="25.32" y="40.8">e ba</tspan><tspan class="cls-10" x="33.56" y="40.8">r</tspan><tspan x="35.03" y="40.8">e </tspan><tspan class="cls-12" x="38.48" y="40.8">t</tspan><tspan x="39.61" y="40.8">age udgangspunkt i </tspan><tspan x="0" y="45.72">sig se</tspan><tspan class="cls-12" x="10.08" y="45.72">l</tspan><tspan class="cls-19" x="11.12" y="45.72">v</tspan><tspan x="12.96" y="45.72">, når der er and</tspan><tspan class="cls-10" x="42.03" y="45.72">r</tspan><tspan x="43.5" y="45.72">e på billed</tspan><tspan class="cls-12" x="62.98" y="45.72">e</tspan><tspan x="65.22" y="45.72">t.</tspan><tspan class="cls-20" x="67.55" y="45.72"> </tspan></tspan></text></g></g></svg>
