<svg xmlns="http://www.w3.org/2000/svg" viewBox="0 0 139 108"><defs><style>.cls-1{fill:#89cce5;}.cls-2{font-size:7.5px;fill:#fff;font-family:Futura-CondensedExtraBold, Futura;}.cls-3{font-weight:700;}.cls-27,.cls-28,.cls-4{font-size:6.5px;}.cls-26,.cls-4{font-family:Futura-Medium, Futura;}.cls-5{letter-spacing:-0.02em;}.cls-6{letter-spacing:0em;}.cls-7{letter-spacing:0.01em;}.cls-28,.cls-8{letter-spacing:0.01em;}.cls-9{letter-spacing:0.01em;}.cls-10{letter-spacing:0.01em;}.cls-11{letter-spacing:-0.02em;}.cls-12{letter-spacing:-0.01em;}.cls-13{letter-spacing:-0.02em;}.cls-14{letter-spacing:-0.02em;}.cls-15,.cls-24{letter-spacing:0.01em;}.cls-16{letter-spacing:-0.01em;}.cls-17{letter-spacing:-0.01em;}.cls-18{letter-spacing:-0.01em;}.cls-19{letter-spacing:-0.02em;}.cls-20{letter-spacing:0.02em;}.cls-21{letter-spacing:-0.04em;}.cls-22{letter-spacing:0.03em;}.cls-23,.cls-24,.cls-25,.cls-26{font-size:6px;}.cls-25{letter-spacing:-0.04em;}</style></defs><title>drukimgrigtig</title><g id="Lag_2" data-name="Lag 2"><g id="Lag_1-2" data-name="Lag 1"><polyline class="cls-1" points="13.19 69.34 0 108 35.65 73.52"/><rect class="cls-1" x="9" width="130" height="97" rx="12" ry="12"/><text class="cls-2" transform="translate(16.84 14.19)"><tspan class="cls-3">Jubi!</tspan><tspan class="cls-4"><tspan x="0" y="12">Godt du ik</tspan><tspan class="cls-5" x="31.36" y="12">k</tspan><tspan class="cls-6" x="34.5" y="12">e del</tspan><tspan class="cls-7" x="49.21" y="12">t</tspan><tspan x="51.04" y="12">e billed</tspan><tspan class="cls-8" x="72.89" y="12">e</tspan><tspan x="76.55" y="12">t, </tspan><tspan class="cls-9" x="82.33" y="12">f</tspan><tspan x="84.34" y="12">or der er </tspan><tspan x="0" y="19.8">s</tspan><tspan class="cls-10" x="2.64" y="19.8">t</tspan><tspan x="4.46" y="19.8">or </tspan><tspan class="cls-9" x="12.8" y="19.8">f</tspan><tspan class="cls-6" x="14.81" y="19.8">ors</tspan><tspan class="cls-5" x="23.79" y="19.8">k</tspan><tspan x="26.92" y="19.8">el på, h</tspan><tspan class="cls-11" x="49.51" y="19.8">v</tspan><tspan x="52.65" y="19.8">o</tspan><tspan class="cls-12" x="56.56" y="19.8">r</tspan><tspan x="58.95" y="19.8">dan mennes</tspan><tspan class="cls-13" x="94.41" y="19.8">k</tspan><tspan x="97.54" y="19.8">er </tspan><tspan x="0" y="27.6">opl</tspan><tspan class="cls-14" x="9.42" y="27.6">ev</tspan><tspan x="16.06" y="27.6">er billeddeling, </tspan><tspan class="cls-8" x="62.54" y="27.6">e</tspan><tspan x="66.19" y="27.6">t billede som </tspan><tspan x="0" y="35.4">d</tspan><tspan class="cls-15" x="3.9" y="35.4">e</tspan><tspan x="7.55" y="35.4">t</tspan><tspan class="cls-15" x="9.33" y="35.4">t</tspan><tspan x="11.16" y="35.4">e </tspan><tspan class="cls-14" x="16.76" y="35.4">k</tspan><tspan x="19.89" y="35.4">an </tspan><tspan class="cls-16" x="29.36" y="35.4">v</tspan><tspan x="32.54" y="35.4">æ</tspan><tspan class="cls-17" x="38.14" y="35.4">r</tspan><tspan class="cls-6" x="40.53" y="35.4">e g</tspan><tspan class="cls-18" x="50.02" y="35.4">r</tspan><tspan x="52.41" y="35.4">ænse</tspan><tspan class="cls-19" x="67.8" y="35.4">o</tspan><tspan class="cls-14" x="71.58" y="35.4">v</tspan><tspan x="74.73" y="35.4">ersk</tspan><tspan class="cls-20" x="86.63" y="35.4">r</tspan><tspan x="89.17" y="35.4">idende </tspan><tspan class="cls-9" x="0" y="43.2">f</tspan><tspan x="2.01" y="43.2">or én og helt o</tspan><tspan class="cls-14" x="45.79" y="43.2">k</tspan><tspan class="cls-8" x="48.92" y="43.2">a</tspan><tspan x="52.87" y="43.2">y </tspan><tspan class="cls-9" x="58.41" y="43.2">f</tspan><tspan x="60.42" y="43.2">or en anden. D</tspan><tspan class="cls-8" x="105.18" y="43.2">e</tspan><tspan x="108.83" y="43.2">t </tspan><tspan x="0" y="51">er vigtigt at </tspan><tspan class="cls-15" x="35.56" y="51">t</tspan><tspan x="37.39" y="51">ale om, at vi har </tspan><tspan class="cls-9" x="0" y="58.8">f</tspan><tspan x="2.01" y="58.8">ors</tspan><tspan class="cls-13" x="10.98" y="58.8">k</tspan><tspan x="14.12" y="58.8">ellige g</tspan><tspan class="cls-17" x="35.95" y="58.8">r</tspan><tspan class="cls-6" x="38.34" y="58.8">ænse</tspan><tspan class="cls-21" x="53.73" y="58.8">r</tspan><tspan x="55.9" y="58.8">, og at man de</tspan><tspan class="cls-22" x="99.5" y="58.8">r</tspan><tspan class="cls-9" x="102.15" y="58.8">f</tspan><tspan x="104.16" y="58.8">or </tspan><tspan x="0" y="66.6">ik</tspan><tspan class="cls-5" x="4.86" y="66.6">k</tspan><tspan class="cls-6" x="7.99" y="66.6">e </tspan><tspan class="cls-14" x="13.59" y="66.6">k</tspan><tspan x="16.72" y="66.6">an </tspan><tspan class="cls-15" x="26.18" y="66.6">t</tspan><tspan x="28.02" y="66.6">age </tspan><tspan class="cls-23" x="41.41" y="66.6">udgangspunkt i sig se</tspan><tspan class="cls-24" x="99.89" y="66.6">l</tspan><tspan class="cls-25" x="101.44" y="66.6">v</tspan><tspan class="cls-23" x="104.21" y="66.6">, </tspan></tspan><tspan class="cls-26"><tspan x="0" y="74.4">når der er and</tspan><tspan class="cls-17" x="39.9" y="74.4">r</tspan><tspan x="42.1" y="74.4">e på</tspan><tspan class="cls-27" x="54.47" y="74.4" xml:space="preserve"> billed</tspan><tspan class="cls-28" x="72.72" y="74.4">e</tspan><tspan class="cls-27" x="76.37" y="74.4">t.</tspan></tspan></text></g></g></svg>
