<svg xmlns="http://www.w3.org/2000/svg" viewBox="0 0 105.66 112"><defs><style>.cls-1{fill:#202532;}.cls-2{font-size:7.5px;fill:#fff;font-family:Futura-CondensedExtraBold, Futura CondensedExtraBold;}.cls-28,.cls-29,.cls-3,.cls-5{font-weight:700;}.cls-4{letter-spacing:-0.01em;}.cls-27,.cls-5{font-size:6.1px;}.cls-6{letter-spacing:0em;}.cls-7{letter-spacing:-0.01em;}.cls-8{letter-spacing:-0.01em;}.cls-9{letter-spacing:-0.01em;}.cls-10{letter-spacing:-0.01em;}.cls-11{letter-spacing:-0.02em;}.cls-12{letter-spacing:0em;}.cls-13{letter-spacing:0em;}.cls-14{letter-spacing:0.02em;}.cls-15{letter-spacing:0em;}.cls-16{letter-spacing:0em;}.cls-17{letter-spacing:-0.01em;}.cls-18,.cls-28{letter-spacing:-0.01em;}.cls-19{letter-spacing:0.02em;}.cls-20{letter-spacing:0.02em;}.cls-21{letter-spacing:-0.01em;}.cls-22{letter-spacing:-0.01em;}.cls-23{letter-spacing:-0.05em;}.cls-24{letter-spacing:0.03em;}.cls-25{letter-spacing:0.02em;}.cls-26{letter-spacing:-0.04em;}.cls-29{letter-spacing:0em;}.cls-30{font-family:Futura-Medium, Futura Medium;}</style></defs><title>Aktiv 28</title><g id="Lag_2" data-name="Lag 2"><g id="Lag_1-2" data-name="Lag 1"><polyline class="cls-1" points="16.19 73.34 3 112 38.65 77.52"/><rect class="cls-1" width="105.66" height="86" rx="12" ry="12"/><text class="cls-2" transform="translate(5.84 10.32)"><tspan class="cls-3">G<tspan class="cls-4" x="4.84" y="0">r</tspan><tspan x="7.26" y="0">ænser!</tspan></tspan><tspan class="cls-5"><tspan class="cls-6" x="0" y="7.32">D</tspan><tspan x="4.09" y="7.32">er er s</tspan><tspan class="cls-7" x="19.19" y="7.32">t</tspan><tspan x="21.17" y="7.32">or </tspan><tspan class="cls-8" x="27.81" y="7.32">f</tspan><tspan x="29.51" y="7.32">orskel på, </tspan><tspan class="cls-8" x="54.89" y="7.32">h</tspan><tspan class="cls-9" x="58.19" y="7.32">v</tspan><tspan x="61.07" y="7.32">o</tspan><tspan class="cls-10" x="64.41" y="7.32">r</tspan><tspan x="66.35" y="7.32">dan </tspan><tspan x="0" y="14.64">mennesker ople</tspan><tspan class="cls-9" x="40.91" y="14.64">v</tspan><tspan x="43.78" y="14.64">er billeddelin</tspan><tspan class="cls-11" x="77.15" y="14.64">g</tspan><tspan x="80.46" y="14.64">. </tspan><tspan class="cls-12" x="83.02" y="14.64">E</tspan><tspan x="86" y="14.64">t </tspan><tspan x="0" y="21.96">billede som det</tspan><tspan class="cls-7" x="39.28" y="21.96">t</tspan><tspan class="cls-13" x="41.27" y="21.96">e </tspan><tspan class="cls-14" x="45.61" y="21.96">k</tspan><tspan x="48.58" y="21.96">an </tspan><tspan class="cls-15" x="56.2" y="21.96">v</tspan><tspan x="59.11" y="21.96">æ</tspan><tspan class="cls-9" x="63.83" y="21.96">r</tspan><tspan x="65.76" y="21.96">e </tspan><tspan class="cls-7" x="0" y="29.28">g</tspan><tspan class="cls-16" x="3.37" y="29.28">r</tspan><tspan x="5.34" y="29.28">ænse</tspan><tspan class="cls-17" x="18.91" y="29.28">o</tspan><tspan class="cls-18" x="22.22" y="29.28">v</tspan><tspan x="25.09" y="29.28">ers</tspan><tspan class="cls-19" x="32.56" y="29.28">k</tspan><tspan class="cls-6" x="35.52" y="29.28">r</tspan><tspan x="37.54" y="29.28">idende </tspan><tspan class="cls-8" x="56.64" y="29.28">f</tspan><tspan x="58.34" y="29.28">or én og helt </tspan><tspan x="0" y="36.6">o</tspan><tspan class="cls-20" x="3.35" y="36.6">k</tspan><tspan class="cls-21" x="6.32" y="36.6">a</tspan><tspan x="9.21" y="36.6">y </tspan><tspan class="cls-8" x="13.38" y="36.6">f</tspan><tspan x="15.08" y="36.6">or en anden. </tspan><tspan class="cls-6" x="48.21" y="36.6">D</tspan><tspan x="52.3" y="36.6">et er vigtigt </tspan><tspan class="cls-15" x="82.95" y="36.6">a</tspan><tspan x="85.87" y="36.6">t </tspan><tspan x="0" y="43.92">tale om, </tspan><tspan class="cls-15" x="21.74" y="43.92">a</tspan><tspan x="24.66" y="43.92">t vi har </tspan><tspan class="cls-8" x="43.23" y="43.92">f</tspan><tspan x="44.94" y="43.92">orskellige </tspan><tspan class="cls-22" x="70.68" y="43.92">g</tspan><tspan class="cls-16" x="74.05" y="43.92">r</tspan><tspan x="76.02" y="43.92">ænse</tspan><tspan class="cls-23" x="89.59" y="43.92">r</tspan><tspan x="91.26" y="43.92">, </tspan><tspan x="0" y="51.24">og </tspan><tspan class="cls-15" x="8.05" y="51.24">a</tspan><tspan x="10.97" y="51.24">t man de</tspan><tspan class="cls-24" x="33.48" y="51.24">r</tspan><tspan class="cls-8" x="35.66" y="51.24">f</tspan><tspan x="37.36" y="51.24">or i</tspan><tspan class="cls-19" x="45.42" y="51.24">k</tspan><tspan x="48.39" y="51.24">ke </tspan><tspan class="cls-25" x="55.6" y="51.24">k</tspan><tspan x="58.57" y="51.24">an tage </tspan><tspan x="0" y="58.56">udgangspunkt i sig sel</tspan><tspan class="cls-26" x="56.93" y="58.56">v</tspan><tspan x="59.62" y="58.56">, når der er </tspan></tspan><tspan class="cls-27"><tspan class="cls-3" x="0" y="65.88">and</tspan><tspan class="cls-28" x="9.77" y="65.88">r</tspan><tspan class="cls-3" x="11.7" y="65.88">e på billede</tspan><tspan class="cls-29" x="41.08" y="65.88">t</tspan><tspan class="cls-3" x="43.08" y="65.88">.</tspan><tspan class="cls-30" x="44.35" y="65.88"> </tspan></tspan></text></g></g></svg>
