<svg xmlns="http://www.w3.org/2000/svg" viewBox="0 0 105.66 107"><defs><style>.cls-1{fill:#89cce5;}.cls-2{font-size:7.5px;fill:#fff;font-family:Futura-CondensedExtraBold, Futura CondensedExtraBold;}.cls-21,.cls-22,.cls-3,.cls-5{font-weight:700;}.cls-4{letter-spacing:-0.08em;}.cls-20,.cls-5{font-size:7.2px;}.cls-6{letter-spacing:0.01em;}.cls-7{letter-spacing:0em;}.cls-8{letter-spacing:-0.01em;}.cls-9{letter-spacing:-0.01em;}.cls-10{letter-spacing:0em;}.cls-11{letter-spacing:-0.05em;}.cls-12{letter-spacing:0em;}.cls-13{letter-spacing:-0.01em;}.cls-14{letter-spacing:-0.01em;}.cls-15{letter-spacing:0em;}.cls-16,.cls-21{letter-spacing:0em;}.cls-17{letter-spacing:-0.01em;}.cls-18{letter-spacing:0.02em;}.cls-19{letter-spacing:-0.01em;}.cls-22{letter-spacing:-0.01em;}.cls-23{font-family:Futura-Medium, Futura Medium;}</style></defs><title>Aktiv 31</title><g id="Lag_2" data-name="Lag 2"><g id="Lag_1-2" data-name="Lag 1"><rect class="cls-1" width="105.66" height="83" rx="12" ry="12"/><text class="cls-2" transform="translate(6 13.32)"><tspan class="cls-3"><tspan class="cls-4">Y</tspan><tspan x="3.49" y="0">es!</tspan></tspan><tspan class="cls-5"><tspan class="cls-6" x="0" y="8.64">G</tspan><tspan x="4.69" y="8.64">odt gåe</tspan><tspan class="cls-7" x="27.71" y="8.64">t</tspan><tspan x="30.07" y="8.64">, </tspan><tspan class="cls-8" x="33.09" y="8.64">f</tspan><tspan x="35.1" y="8.64">or vids</tspan><tspan class="cls-9" x="54.99" y="8.64">t</tspan><tspan x="57.33" y="8.64">e du </tspan><tspan class="cls-10" x="72.02" y="8.64">a</tspan><tspan x="75.46" y="8.64">t </tspan><tspan x="0" y="17.28">deling af billede</tspan><tspan class="cls-11" x="48.15" y="17.28">r</tspan><tspan x="50.13" y="17.28">, som </tspan><tspan x="0" y="25.92">in</tspan><tspan class="cls-8" x="5.68" y="25.92">f</tspan><tspan x="7.69" y="25.92">o</tspan><tspan class="cls-12" x="11.64" y="25.92">r</tspan><tspan x="14.03" y="25.92">me</tspan><tspan class="cls-13" x="23.64" y="25.92">r</tspan><tspan x="25.92" y="25.92">er and</tspan><tspan class="cls-14" x="44.93" y="25.92">r</tspan><tspan x="47.22" y="25.92">e om </tspan><tspan class="cls-15" x="63.83" y="25.92">a</tspan><tspan x="67.28" y="25.92">t du er </tspan><tspan x="0" y="34.56">på </tspan><tspan class="cls-8" x="9.09" y="34.56">f</tspan><tspan x="11.1" y="34.56">e</tspan><tspan class="cls-12" x="14.71" y="34.56">r</tspan><tspan x="17.09" y="34.56">ie og de</tspan><tspan class="cls-16" x="41.08" y="34.56">r</tspan><tspan x="43.46" y="34.56">med indike</tspan><tspan class="cls-17" x="77.07" y="34.56">r</tspan><tspan x="79.36" y="34.56">er </tspan><tspan class="cls-10" x="86.85" y="34.56">a</tspan><tspan x="90.29" y="34.56">t </tspan><tspan x="0" y="43.2">du i</tspan><tspan class="cls-18" x="11.24" y="43.2">k</tspan><tspan x="14.74" y="43.2">ke er hjemm</tspan><tspan class="cls-19" x="52.1" y="43.2">e</tspan><tspan x="55.62" y="43.2">, øger </tspan></tspan><tspan class="cls-20"><tspan class="cls-21" x="0" y="51.84">r</tspan><tspan class="cls-3" x="2.38" y="51.84">isikoen </tspan><tspan class="cls-22" x="25.06" y="51.84">f</tspan><tspan class="cls-3" x="27.07" y="51.84">or indbrud? </tspan><tspan class="cls-23" x="63.57" y="51.84">. </tspan></tspan></text><polyline class="cls-1" points="16.19 68.34 3 107 38.65 72.52"/></g></g></svg>
