<svg xmlns="http://www.w3.org/2000/svg" viewBox="0 0 105.66 106"><defs><style>.cls-1{fill:#202532;}.cls-2{font-size:7.5px;fill:#fff;font-family:Futura-CondensedExtraBold, Futura CondensedExtraBold;font-weight:700;}.cls-3{letter-spacing:-0.03em;}.cls-4{font-size:7px;}.cls-5{letter-spacing:0em;}.cls-6{letter-spacing:-0.05em;}.cls-7{letter-spacing:-0.01em;}.cls-8{letter-spacing:-0.01em;}.cls-9{letter-spacing:-0.01em;}.cls-10{letter-spacing:0em;}.cls-11{letter-spacing:0.02em;}.cls-12{letter-spacing:-0.01em;}</style></defs><title>Aktiv 30</title><g id="Lag_2" data-name="Lag 2"><g id="Lag_1-2" data-name="Lag 1"><rect class="cls-1" width="105.66" height="84" rx="12" ry="12"/><text class="cls-2" transform="translate(6.84 11.32)"><tspan class="cls-3">P</tspan><tspan x="3.79" y="0">as på!</tspan><tspan class="cls-4"><tspan class="cls-5" x="0" y="8.4">D</tspan><tspan x="4.69" y="8.4">eling af billede</tspan><tspan class="cls-6" x="47.56" y="8.4">r</tspan><tspan x="49.48" y="8.4">, som </tspan><tspan x="0" y="16.8">in</tspan><tspan class="cls-7" x="5.52" y="16.8">f</tspan><tspan x="7.48" y="16.8">o</tspan><tspan class="cls-5" x="11.32" y="16.8">r</tspan><tspan x="13.64" y="16.8">me</tspan><tspan class="cls-8" x="22.98" y="16.8">r</tspan><tspan x="25.2" y="16.8">er and</tspan><tspan class="cls-9" x="43.69" y="16.8">r</tspan><tspan x="45.91" y="16.8">e om </tspan><tspan class="cls-10" x="62.06" y="16.8">a</tspan><tspan x="65.41" y="16.8">t du er på </tspan><tspan class="cls-7" x="0" y="25.2">f</tspan><tspan x="1.95" y="25.2">e</tspan><tspan class="cls-5" x="5.46" y="25.2">r</tspan><tspan x="7.78" y="25.2">ie og de</tspan><tspan class="cls-5" x="31.1" y="25.2">r</tspan><tspan x="33.42" y="25.2">med i</tspan><tspan class="cls-11" x="49.83" y="25.2">k</tspan><tspan x="53.23" y="25.2">ke hjemm</tspan><tspan class="cls-12" x="82.28" y="25.2">e</tspan><tspan x="85.7" y="25.2">, </tspan><tspan x="0" y="33.6">øger faktisk </tspan><tspan class="cls-5" x="35.23" y="33.6">r</tspan><tspan x="37.55" y="33.6">isikoen </tspan><tspan class="cls-7" x="59.6" y="33.6">f</tspan><tspan x="61.55" y="33.6">or indbru</tspan><tspan class="cls-9" x="88.77" y="33.6">d</tspan><tspan x="92.64" y="33.6">.</tspan></tspan></text><polyline class="cls-1" points="19.19 67.34 6 106 41.65 71.52"/></g></g></svg>
