<svg xmlns="http://www.w3.org/2000/svg" width="100" height="88.46" viewBox="0 0 100 88.46"><defs><style>.cls-1{fill:#89cce5;}.cls-2,.cls-3{fill:#fff;}.cls-3{font-size:9px;font-family:Futura-CondensedExtraBold, Futura;}.cls-4{font-weight:700;}.cls-5{font-size:4px;font-family:Futura-Medium, Futura;}.cls-6{letter-spacing:-0.01em;}.cls-7{letter-spacing:0.01em;}.cls-8{letter-spacing:0.02em;}.cls-9{letter-spacing:-0.02em;}.cls-10{letter-spacing:-0.02em;}.cls-11{letter-spacing:-0.04em;}.cls-12{letter-spacing:0.01em;}.cls-13{letter-spacing:-0.02em;}.cls-14{letter-spacing:-0.06em;}.cls-15{letter-spacing:0.01em;}.cls-16{letter-spacing:-0.08em;}.cls-17{letter-spacing:0.02em;}</style></defs><title>ferie_ros</title><g id="Layer_2" data-name="Layer 2"><g id="Layer_1-2" data-name="Layer 1"><path class="cls-1" d="M7.72,68.92l-1-.31A8.21,8.21,0,0,1,1,60.77V9.23A8.24,8.24,0,0,1,9.23,1H90.77A8.24,8.24,0,0,1,99,9.23V60.77A8.24,8.24,0,0,1,90.77,69H18.69L2.28,84.86Z"/><path class="cls-2" d="M90.77,2A7.23,7.23,0,0,1,98,9.23V60.77A7.23,7.23,0,0,1,90.77,68H18.28l-.58.56L4.57,81.26,8.34,70.21,9,68.28l-1.95-.62a7.31,7.31,0,0,1-5-6.89V9.23A7.23,7.23,0,0,1,9.23,2H90.77m0-2H9.23A9.25,9.25,0,0,0,0,9.23V60.77a9.27,9.27,0,0,0,6.44,8.8L0,88.46,19.09,70H90.77A9.25,9.25,0,0,0,100,60.77V9.23A9.25,9.25,0,0,0,90.77,0Z"/><text class="cls-3" transform="translate(9.8 13.82)"><tspan class="cls-4">Sådan!</tspan><tspan class="cls-5"><tspan x="0" y="12">Du gjo</tspan><tspan class="cls-6" x="12.11" y="12">r</tspan><tspan x="13.58" y="12">de d</tspan><tspan class="cls-7" x="21.83" y="12">e</tspan><tspan x="24.07" y="12">t helt </tspan><tspan class="cls-8" x="34.13" y="12">r</tspan><tspan x="35.69" y="12">igtige. </tspan><tspan x="0" y="16.8">D</tspan><tspan class="cls-7" x="2.9" y="16.8">e</tspan><tspan x="5.15" y="16.8">t er nemlig ul</tspan><tspan class="cls-9" x="28.79" y="16.8">o</tspan><tspan class="cls-7" x="31.12" y="16.8">v</tspan><tspan x="33.16" y="16.8">ligt at dele billeder af </tspan><tspan x="0" y="21.6">and</tspan><tspan class="cls-6" x="6.99" y="21.6">r</tspan><tspan x="8.46" y="21.6">e i p</tspan><tspan class="cls-8" x="16.54" y="21.6">r</tspan><tspan x="18.09" y="21.6">i</tspan><tspan class="cls-10" x="19.09" y="21.6">v</tspan><tspan x="21.03" y="21.6">a</tspan><tspan class="cls-7" x="23.43" y="21.6">t</tspan><tspan x="24.56" y="21.6">e og intime situatione</tspan><tspan class="cls-11" x="63.12" y="21.6">r</tspan><tspan x="64.46" y="21.6">, som </tspan><tspan x="0" y="26.4">p</tspan><tspan class="cls-12" x="2.4" y="26.4">o</tspan><tspan class="cls-7" x="4.83" y="26.4">t</tspan><tspan x="5.96" y="26.4">entielt yd</tspan><tspan class="cls-13" x="22.56" y="26.4">m</tspan><tspan x="25.66" y="26.4">yger eller k</tspan><tspan class="cls-6" x="46.31" y="26.4">r</tspan><tspan x="47.78" y="26.4">æn</tspan><tspan class="cls-13" x="53.42" y="26.4">k</tspan><tspan x="55.35" y="26.4">er de</tspan><tspan class="cls-6" x="64.9" y="26.4">r</tspan><tspan x="66.37" y="26.4">es </tspan><tspan x="0" y="31.2">p</tspan><tspan class="cls-8" x="2.4" y="31.2">r</tspan><tspan x="3.96" y="31.2">i</tspan><tspan class="cls-10" x="4.95" y="31.2">v</tspan><tspan x="6.89" y="31.2">atli</tspan><tspan class="cls-14" x="12.38" y="31.2">v</tspan><tspan x="14.17" y="31.2">. </tspan><tspan class="cls-15" x="0" y="36">V</tspan><tspan x="2.74" y="36">ids</tspan><tspan class="cls-7" x="7.76" y="36">t</tspan><tspan x="8.89" y="36">e du at hvis personen er under </tspan><tspan class="cls-16" x="65.56" y="36">1</tspan><tspan x="67.73" y="36">8 så </tspan><tspan x="0" y="40.8">hø</tspan><tspan class="cls-6" x="4.6" y="40.8">r</tspan><tspan x="6.07" y="40.8">er d</tspan><tspan class="cls-7" x="13.41" y="40.8">e</tspan><tspan x="15.66" y="40.8">t </tspan><tspan class="cls-6" x="17.98" y="40.8">r</tspan><tspan x="19.45" y="40.8">en </tspan><tspan class="cls-8" x="25.09" y="40.8">f</tspan><tspan x="26.34" y="40.8">aktisk under </tspan><tspan x="0" y="45.6">bø</tspan><tspan class="cls-8" x="4.8" y="45.6">r</tspan><tspan x="6.36" y="45.6">nepo</tspan><tspan class="cls-8" x="15.57" y="45.6">r</tspan><tspan x="17.13" y="45.6">nog</tspan><tspan class="cls-6" x="24.12" y="45.6">r</tspan><tspan x="25.59" y="45.6">a</tspan><tspan class="cls-17" x="27.98" y="45.6">f</tspan><tspan x="29.26" y="45.6">i?</tspan></tspan></text></g></g></svg>
