<svg xmlns="http://www.w3.org/2000/svg" viewBox="0 0 105.66 71.26"><defs><style>.cls-1{fill:#89cce5;}.cls-2{font-size:8px;font-family:Futura-CondensedExtraBold, Futura;}.cls-3{font-weight:700;}.cls-4{letter-spacing:0.01em;}.cls-5{letter-spacing:0.01em;}.cls-6{letter-spacing:0.01em;}.cls-7{font-size:5px;font-family:Futura-Medium, Futura;}.cls-8{letter-spacing:-0.02em;}.cls-9{letter-spacing:0.01em;}.cls-10{letter-spacing:-0.04em;}.cls-11{letter-spacing:-0.02em;}.cls-12{letter-spacing:-0.02em;}.cls-13{letter-spacing:-0.01em;}.cls-14{letter-spacing:-0.01em;}.cls-15{letter-spacing:0.02em;}.cls-16{letter-spacing:-0.02em;}.cls-17{letter-spacing:0.02em;}.cls-18{letter-spacing:0em;}.cls-19{letter-spacing:-0.01em;}</style></defs><title>Faktaboks_3</title><g id="Lag_2" data-name="Lag 2"><g id="Lag_1-2" data-name="Lag 1"><rect class="cls-1" width="105.66" height="71.26" rx="12" ry="12"/><text class="cls-2" transform="translate(6.84 14.9)"><tspan class="cls-3"><tspan class="cls-4">V</tspan><tspan x="4.79" y="0">id</tspan><tspan class="cls-5" x="11.57" y="0">s</tspan><tspan class="cls-6" x="15.2" y="0">t</tspan><tspan x="17.97" y="0">e du...</tspan></tspan><tspan class="cls-7"><tspan x="0" y="12">Uøns</tspan><tspan class="cls-8" x="11.47" y="12">k</tspan><tspan class="cls-9" x="13.88" y="12">e</tspan><tspan x="16.69" y="12">t billeddeling e</tspan><tspan class="cls-10" x="50.4" y="12">r</tspan><tspan x="52.06" y="12">, hvis nogle </tspan><tspan x="0" y="18">deler </tspan><tspan class="cls-9" x="13.19" y="18">e</tspan><tspan x="16" y="18">t billede uden den på billed</tspan><tspan class="cls-9" x="78.58" y="18">e</tspan><tspan x="81.39" y="18">t </tspan><tspan x="0" y="24">har gi</tspan><tspan class="cls-11" x="13.39" y="24">v</tspan><tspan class="cls-9" x="15.82" y="24">e</tspan><tspan x="18.63" y="24">t l</tspan><tspan class="cls-12" x="22.78" y="24">o</tspan><tspan x="25.69" y="24">v til delingen, f.eks. har lagt </tspan><tspan class="cls-9" x="0" y="30">e</tspan><tspan x="2.81" y="30">t nøgenbillede af en eks</tspan><tspan class="cls-13" x="57.14" y="30">k</tspan><tspan x="59.58" y="30">æ</tspan><tspan class="cls-14" x="63.88" y="30">r</tspan><tspan x="65.72" y="30">es</tspan><tspan class="cls-9" x="70.51" y="30">t</tspan><tspan x="71.93" y="30">e ud på </tspan><tspan x="0" y="36">in</tspan><tspan class="cls-9" x="3.99" y="36">t</tspan><tspan x="5.4" y="36">e</tspan><tspan class="cls-15" x="8.16" y="36">r</tspan><tspan x="10.11" y="36">n</tspan><tspan class="cls-9" x="12.85" y="36">e</tspan><tspan x="15.66" y="36">t</tspan><tspan class="cls-9" x="17.03" y="36">te</tspan><tspan x="21.25" y="36">t eller vist d</tspan><tspan class="cls-9" x="47.29" y="36">e</tspan><tspan x="50.1" y="36">t til </tspan><tspan class="cls-16" x="58.41" y="36">v</tspan><tspan x="60.84" y="36">enne</tspan><tspan class="cls-17" x="71.85" y="36">r</tspan><tspan class="cls-18" x="73.8" y="36">ne. </tspan><tspan x="0" y="42">Men d</tspan><tspan class="cls-9" x="14.86" y="42">e</tspan><tspan x="17.67" y="42">t </tspan><tspan class="cls-11" x="20.58" y="42">k</tspan><tspan x="22.98" y="42">an også </tspan><tspan class="cls-19" x="42.83" y="42">v</tspan><tspan x="45.28" y="42">æ</tspan><tspan class="cls-14" x="49.59" y="42">r</tspan><tspan x="51.42" y="42">e </tspan><tspan class="cls-9" x="55.73" y="42">e</tspan><tspan x="58.54" y="42">t helt </tspan></tspan></text></g></g></svg>
