<svg xmlns="http://www.w3.org/2000/svg" viewBox="0 0 105.66 71.26"><defs><style>.cls-1{fill:#89cce5;}.cls-2{font-size:8px;font-family:Futura-CondensedExtraBold, Futura;}.cls-3{font-weight:700;}.cls-4{letter-spacing:0.01em;}.cls-5{letter-spacing:0.01em;}.cls-6{letter-spacing:0.01em;}.cls-7{font-size:5px;font-family:Futura-Medium, Futura;}.cls-8{letter-spacing:-0.02em;}.cls-9{letter-spacing:0.01em;}.cls-10{letter-spacing:-0.02em;}.cls-11{letter-spacing:-0.01em;}.cls-12{letter-spacing:-0.01em;}.cls-13{letter-spacing:0em;}.cls-14{letter-spacing:-0.01em;}.cls-15{letter-spacing:-0.02em;}.cls-16{letter-spacing:-0.02em;}.cls-17{letter-spacing:-0.02em;}.cls-18{letter-spacing:-0.05em;}</style></defs><title>Faktaboks_4</title><g id="Lag_2" data-name="Lag 2"><g id="Lag_1-2" data-name="Lag 1"><rect class="cls-1" width="105.66" height="71.26" rx="12" ry="12"/><text class="cls-2" transform="translate(6.84 14.9)"><tspan class="cls-3"><tspan class="cls-4">V</tspan><tspan x="4.79" y="0">id</tspan><tspan class="cls-5" x="11.57" y="0">s</tspan><tspan class="cls-6" x="15.2" y="0">t</tspan><tspan x="17.97" y="0">e du...</tspan></tspan><tspan class="cls-7"><tspan x="0" y="12">Uøns</tspan><tspan class="cls-8" x="11.47" y="12">k</tspan><tspan class="cls-9" x="13.88" y="12">e</tspan><tspan x="16.69" y="12">t billeddeling </tspan><tspan class="cls-10" x="47.63" y="12">k</tspan><tspan x="50.03" y="12">an </tspan><tspan class="cls-11" x="57.32" y="12">v</tspan><tspan x="59.77" y="12">æ</tspan><tspan class="cls-12" x="64.07" y="12">r</tspan><tspan class="cls-13" x="65.91" y="12">e en g</tspan><tspan class="cls-14" x="80.26" y="12">r</tspan><tspan class="cls-15" x="82.09" y="12">o</tspan><tspan x="84.99" y="12">v </tspan><tspan x="0" y="18">k</tspan><tspan class="cls-12" x="2.49" y="18">r</tspan><tspan x="4.33" y="18">æn</tspan><tspan class="cls-8" x="11.37" y="18">k</tspan><tspan x="13.78" y="18">else af den, d</tspan><tspan class="cls-9" x="44.75" y="18">e</tspan><tspan x="47.56" y="18">t går ud </tspan><tspan class="cls-16" x="67.14" y="18">o</tspan><tspan class="cls-17" x="70.04" y="18">v</tspan><tspan x="72.47" y="18">e</tspan><tspan class="cls-18" x="75.23" y="18">r</tspan><tspan x="76.84" y="18">.</tspan></tspan></text></g></g></svg>
