<svg xmlns="http://www.w3.org/2000/svg" viewBox="0 0 105.66 71.26"><defs><style>.cls-1{fill:#e9eced;}.cls-2{font-size:8px;font-family:Futura-CondensedExtraBold, Futura;}.cls-3{font-weight:700;}.cls-4{letter-spacing:0.01em;}.cls-5{letter-spacing:0.01em;}.cls-6{letter-spacing:0.01em;}.cls-7{font-size:5px;font-family:Futura-Medium, Futura;}.cls-8{letter-spacing:-0.08em;}.cls-9{letter-spacing:-0.04em;}.cls-10{letter-spacing:0.01em;}.cls-11{letter-spacing:-0.02em;}.cls-12{letter-spacing:0.01em;}.cls-13{letter-spacing:0em;}.cls-14{letter-spacing:0.03em;}.cls-15{letter-spacing:0.02em;}.cls-16{letter-spacing:-0.01em;}.cls-17{letter-spacing:-0.02em;}.cls-18{letter-spacing:-0.02em;}.cls-19{letter-spacing:-0.02em;}.cls-20{letter-spacing:-0.02em;}.cls-21{letter-spacing:-0.06em;}</style></defs><title>Faktaboks_2</title><g id="Lag_2" data-name="Lag 2"><g id="Lag_1-2" data-name="Lag 1"><rect class="cls-1" width="105.66" height="71.26" rx="12" ry="12"/><text class="cls-2" transform="translate(6.84 14.9)"><tspan class="cls-3"><tspan class="cls-4">V</tspan><tspan x="4.79" y="0">id</tspan><tspan class="cls-5" x="11.57" y="0">s</tspan><tspan class="cls-6" x="15.2" y="0">t</tspan><tspan x="17.97" y="0">e du...</tspan></tspan><tspan class="cls-7"><tspan x="0" y="12">Hvis man er under </tspan><tspan class="cls-8" x="43.06" y="12">1</tspan><tspan x="45.77" y="12">8 å</tspan><tspan class="cls-9" x="53.39" y="12">r</tspan><tspan x="55.06" y="12">, er d</tspan><tspan class="cls-10" x="67.33" y="12">e</tspan><tspan x="70.14" y="12">t ul</tspan><tspan class="cls-11" x="77.02" y="12">o</tspan><tspan class="cls-12" x="79.92" y="12">v</tspan><tspan class="cls-13" x="82.48" y="12">ligt </tspan><tspan x="0" y="18">at lægge nøgenbilleder ud o</tspan><tspan class="cls-14" x="64.95" y="18">f</tspan><tspan class="cls-15" x="66.6" y="18">f</tspan><tspan x="68.16" y="18">entligt </tspan><tspan x="0" y="24">både af sig se</tspan><tspan class="cls-10" x="31.93" y="24">l</tspan><tspan x="33.22" y="24">v eller af and</tspan><tspan class="cls-16" x="63.48" y="24">r</tspan><tspan x="65.31" y="24">e under </tspan><tspan class="cls-8" x="0" y="30">1</tspan><tspan x="2.71" y="30">8 år - også se</tspan><tspan class="cls-10" x="33.75" y="30">l</tspan><tspan class="cls-17" x="35.03" y="30">v</tspan><tspan x="37.45" y="30">om </tspan><tspan class="cls-18" x="45.95" y="30">v</tspan><tspan x="48.38" y="30">ed</tspan><tspan class="cls-11" x="54.14" y="30">k</tspan><tspan x="56.53" y="30">ommende </tspan><tspan x="0" y="36">gi</tspan><tspan class="cls-19" x="4.24" y="36">v</tspan><tspan x="6.67" y="36">er l</tspan><tspan class="cls-20" x="14.09" y="36">o</tspan><tspan class="cls-21" x="16.99" y="36">v</tspan><tspan x="19.23" y="36">.</tspan></tspan></text></g></g></svg>
