<svg xmlns="http://www.w3.org/2000/svg" viewBox="0 0 105.66 71.26"><defs><style>.cls-1{fill:#f4912d;}.cls-2{font-size:8px;font-family:Futura-CondensedExtraBold, Futura;}.cls-3{font-weight:700;}.cls-4{letter-spacing:0.01em;}.cls-5{letter-spacing:0.01em;}.cls-6{letter-spacing:0.01em;}.cls-7{font-size:5px;font-family:Futura-Medium, Futura;}.cls-8{letter-spacing:0.01em;}.cls-9{letter-spacing:0.02em;}.cls-10{letter-spacing:-0.02em;}.cls-11{letter-spacing:-0.04em;}.cls-12{letter-spacing:0.02em;}.cls-13{letter-spacing:-0.02em;}.cls-14{letter-spacing:0em;}.cls-15{letter-spacing:0.01em;}.cls-16{letter-spacing:-0.01em;}</style></defs><title>Faktaboks_5</title><g id="Lag_2" data-name="Lag 2"><g id="Lag_1-2" data-name="Lag 1"><rect class="cls-1" width="105.66" height="71.26" rx="12" ry="12"/><text class="cls-2" transform="translate(6.84 14.9)"><tspan class="cls-3"><tspan class="cls-4">V</tspan><tspan x="4.79" y="0">id</tspan><tspan class="cls-5" x="11.57" y="0">s</tspan><tspan class="cls-6" x="15.2" y="0">t</tspan><tspan x="17.97" y="0">e du...</tspan></tspan><tspan class="cls-7"><tspan class="cls-8" x="0" y="12">U</tspan><tspan x="3.73" y="12">nge må ge</tspan><tspan class="cls-9" x="28.03" y="12">r</tspan><tspan x="29.97" y="12">ne dele intime billeder </tspan><tspan x="0" y="18">med hinanden p</tspan><tspan class="cls-9" x="36.78" y="18">r</tspan><tspan x="38.72" y="18">i</tspan><tspan class="cls-10" x="39.97" y="18">v</tspan><tspan x="42.4" y="18">at, fx mellem </tspan><tspan class="cls-10" x="0" y="24">v</tspan><tspan x="2.43" y="24">eninde</tspan><tspan class="cls-11" x="17.69" y="24">r</tspan><tspan x="19.36" y="24">, men billede</tspan><tspan class="cls-12" x="48.71" y="24">r</tspan><tspan x="50.66" y="24">ne må ik</tspan><tspan class="cls-13" x="69.94" y="24">k</tspan><tspan class="cls-14" x="72.35" y="24">e </tspan><tspan x="0" y="30">lægges på n</tspan><tspan class="cls-15" x="28.15" y="30">e</tspan><tspan x="30.96" y="30">t</tspan><tspan class="cls-15" x="32.33" y="30">te</tspan><tspan x="36.55" y="30">t eller sendes/vises til </tspan><tspan x="0" y="36">and</tspan><tspan class="cls-16" x="8.74" y="36">r</tspan><tspan x="10.57" y="36">e.</tspan></tspan></text></g></g></svg>
