<svg xmlns="http://www.w3.org/2000/svg" viewBox="0 0 129 116"><defs><style>.cls-1{fill:#89cce5;}.cls-2{font-size:7.5px;fill:#fff;font-family:Futura-CondensedExtraBold, Futura;}.cls-3{font-weight:700;}.cls-4{font-size:7px;font-family:Futura-Medium, Futura;}.cls-5{letter-spacing:0.01em;}.cls-6{letter-spacing:0.02em;}.cls-7{letter-spacing:-0.02em;}.cls-8{letter-spacing:-0.01em;}.cls-9{letter-spacing:0.03em;}.cls-10{letter-spacing:-0.02em;}.cls-11{letter-spacing:-0.02em;}.cls-12{letter-spacing:-0.02em;}.cls-13{letter-spacing:-0.02em;}.cls-14{letter-spacing:-0.04em;}.cls-15{letter-spacing:0.01em;}.cls-16{letter-spacing:-0.05em;}</style></defs><title>klasseimgrigtig</title><g id="Lag_2" data-name="Lag 2"><g id="Lag_1-2" data-name="Lag 1"><polyline class="cls-1" points="19.19 77.34 6 116 41.65 81.52"/><rect class="cls-1" width="129" height="92" rx="12" ry="12"/><text class="cls-2" transform="translate(6.84 13.19)"><tspan class="cls-3">Rigtigt!</tspan><tspan class="cls-4"><tspan x="0" y="12">D</tspan><tspan class="cls-5" x="5.08" y="12">e</tspan><tspan x="9.02" y="12">t er </tspan><tspan class="cls-6" x="21.74" y="12">r</tspan><tspan x="24.47" y="12">igtig ik</tspan><tspan class="cls-7" x="45.64" y="12">k</tspan><tspan x="49.01" y="12">e at dele </tspan><tspan x="0" y="20.4">billed</tspan><tspan class="cls-5" x="17.5" y="20.4">e</tspan><tspan x="21.43" y="20.4">t, hvis du eller and</tspan><tspan class="cls-8" x="80.18" y="20.4">r</tspan><tspan x="82.75" y="20.4">e vil </tspan><tspan x="0" y="28.8">o</tspan><tspan class="cls-9" x="4.21" y="28.8">f</tspan><tspan class="cls-6" x="6.52" y="28.8">f</tspan><tspan x="8.7" y="28.8">entliggø</tspan><tspan class="cls-8" x="34.4" y="28.8">r</tspan><tspan x="36.97" y="28.8">e </tspan><tspan class="cls-5" x="43" y="28.8">e</tspan><tspan x="46.94" y="28.8">t klassebillede </tspan><tspan x="0" y="37.2">s</tspan><tspan class="cls-10" x="2.84" y="37.2">k</tspan><tspan x="6.21" y="37.2">al du spørge h</tspan><tspan class="cls-11" x="52.4" y="37.2">v</tspan><tspan x="55.8" y="37.2">er en</tspan><tspan class="cls-12" x="72.16" y="37.2">k</tspan><tspan x="75.54" y="37.2">elt </tspan><tspan x="0" y="45.6">el</tspan><tspan class="cls-10" x="5.62" y="45.6">e</tspan><tspan x="9.37" y="45.6">v om l</tspan><tspan class="cls-13" x="28.69" y="45.6">o</tspan><tspan class="cls-14" x="32.76" y="45.6">v</tspan><tspan x="36" y="45.6">, eller de</tspan><tspan class="cls-8" x="64.4" y="45.6">r</tspan><tspan x="66.97" y="45.6">es </tspan><tspan class="cls-15" x="0" y="54">f</tspan><tspan x="2.16" y="54">o</tspan><tspan class="cls-8" x="6.37" y="54">r</tspan><tspan x="8.94" y="54">æld</tspan><tspan class="cls-8" x="20.91" y="54">r</tspan><tspan x="23.48" y="54">e afhængig af </tspan><tspan x="0" y="62.4">el</tspan><tspan class="cls-10" x="5.62" y="62.4">ev</tspan><tspan x="12.77" y="62.4">e</tspan><tspan class="cls-6" x="16.64" y="62.4">r</tspan><tspan x="19.36" y="62.4">nes alde</tspan><tspan class="cls-16" x="46.08" y="62.4">r</tspan><tspan x="48.33" y="62.4">. </tspan></tspan></text><text></text></g></g></svg>
