<svg xmlns="http://www.w3.org/2000/svg" viewBox="0 0 105.66 109"><defs><style>.cls-1{fill:#89cce5;}.cls-2{font-size:7.5px;fill:#fff;font-family:Futura-CondensedExtraBold, Futura CondensedExtraBold;font-weight:700;}.cls-3{letter-spacing:0.01em;}.cls-4{font-size:7px;}.cls-5{letter-spacing:0em;}.cls-6{letter-spacing:0em;}.cls-7{letter-spacing:0.02em;}.cls-8{letter-spacing:0em;}.cls-9{letter-spacing:0em;}.cls-10{letter-spacing:0em;}.cls-11{letter-spacing:-0.01em;}.cls-12{letter-spacing:-0.01em;}.cls-13{letter-spacing:0em;}.cls-14{letter-spacing:0.02em;}.cls-15{letter-spacing:0.02em;}.cls-16{letter-spacing:-0.01em;}.cls-17{letter-spacing:-0.01em;}.cls-18{letter-spacing:-0.04em;}.cls-19{letter-spacing:-0.01em;}.cls-20{letter-spacing:-0.01em;}.cls-21{letter-spacing:-0.01em;}.cls-22{letter-spacing:-0.05em;}</style></defs><title>Aktiv 23</title><g id="Lag_2" data-name="Lag 2"><g id="Lag_1-2" data-name="Lag 1"><rect class="cls-1" width="105.66" height="84" rx="12" ry="12"/><text class="cls-2" transform="translate(5.84 12.32)"><tspan class="cls-3">R</tspan><tspan x="4.11" y="0">igtigt</tspan><tspan class="cls-4"><tspan class="cls-5" x="0" y="8.4">D</tspan><tspan x="4.69" y="8.4">et er </tspan><tspan class="cls-6" x="19.28" y="8.4">r</tspan><tspan x="21.59" y="8.4">igtig i</tspan><tspan class="cls-7" x="38.14" y="8.4">k</tspan><tspan x="41.54" y="8.4">ke </tspan><tspan class="cls-8" x="49.81" y="8.4">a</tspan><tspan class="cls-9" x="53.16" y="8.4">t dele billede</tspan><tspan class="cls-10" x="90.95" y="8.4">t</tspan><tspan x="93.24" y="8.4">, </tspan><tspan class="cls-11" x="0" y="16.8">h</tspan><tspan x="3.79" y="16.8">vis du eller and</tspan><tspan class="cls-12" x="47.64" y="16.8">r</tspan><tspan x="49.86" y="16.8">e vil </tspan><tspan x="0" y="25.2">o</tspan><tspan class="cls-11" x="3.84" y="25.2">ff</tspan><tspan x="7.83" y="25.2">e</tspan><tspan class="cls-13" x="11.34" y="25.2">n</tspan><tspan x="15.2" y="25.2">tliggø</tspan><tspan class="cls-12" x="32.47" y="25.2">r</tspan><tspan x="34.69" y="25.2">e et </tspan><tspan class="cls-14" x="46.99" y="25.2">k</tspan><tspan x="50.39" y="25.2">lassebillede </tspan><tspan x="0" y="33.6">s</tspan><tspan class="cls-15" x="2.77" y="33.6">k</tspan><tspan x="6.18" y="33.6">al du spø</tspan><tspan class="cls-16" x="32.58" y="33.6">r</tspan><tspan x="34.81" y="33.6">ge </tspan><tspan class="cls-11" x="43.72" y="33.6">h</tspan><tspan class="cls-12" x="47.51" y="33.6">v</tspan><tspan x="50.81" y="33.6">er enkelt elev </tspan><tspan x="0" y="42">om l</tspan><tspan class="cls-17" x="12.82" y="42">o</tspan><tspan class="cls-18" x="16.61" y="42">v</tspan><tspan x="19.7" y="42">, eller de</tspan><tspan class="cls-19" x="44.18" y="42">r</tspan><tspan x="46.4" y="42">es </tspan><tspan class="cls-11" x="54.16" y="42">f</tspan><tspan x="56.12" y="42">o</tspan><tspan class="cls-20" x="59.96" y="42">r</tspan><tspan x="62.21" y="42">æld</tspan><tspan class="cls-12" x="73.23" y="42">r</tspan><tspan x="75.44" y="42">e </tspan><tspan x="0" y="50.4">afhæn</tspan><tspan class="cls-21" x="18.6" y="50.4">g</tspan><tspan x="22.47" y="50.4">ig af ele</tspan><tspan class="cls-12" x="45.07" y="50.4">v</tspan><tspan x="48.37" y="50.4">e</tspan><tspan class="cls-6" x="51.88" y="50.4">r</tspan><tspan x="54.19" y="50.4">nes alde</tspan><tspan class="cls-22" x="78.32" y="50.4">r</tspan><tspan x="80.24" y="50.4">. </tspan></tspan></text><text></text><polyline class="cls-1" points="21.19 70.34 8 109 43.65 74.52"/></g></g></svg>
