<svg xmlns="http://www.w3.org/2000/svg" viewBox="0 0 105.66 110"><defs><style>.cls-1{fill:#202532;}.cls-2{font-size:7.5px;fill:#fff;font-family:Futura-CondensedExtraBold, Futura;font-weight:700;}.cls-3{font-size:7px;}.cls-4{letter-spacing:0.01em;}.cls-5{letter-spacing:0.02em;}.cls-6{letter-spacing:0.01em;}.cls-7{letter-spacing:0em;}.cls-8{letter-spacing:0em;}.cls-9{letter-spacing:0.01em;}.cls-10{letter-spacing:-0.01em;}.cls-11{letter-spacing:-0.01em;}.cls-12{letter-spacing:-0.01em;}.cls-13{letter-spacing:-0.03em;}.cls-14{letter-spacing:0.01em;}.cls-15{letter-spacing:-0.02em;}.cls-16{letter-spacing:0.01em;}.cls-17{letter-spacing:-0.04em;}.cls-18{letter-spacing:-0.03em;}</style></defs><title>klasseimgforker</title><g id="Lag_2" data-name="Lag 2"><g id="Lag_1-2" data-name="Lag 1"><polyline class="cls-1" points="13.19 71.34 0 110 35.65 75.52"/><rect class="cls-1" width="105.66" height="84" rx="12" ry="12"/><text></text><text class="cls-2" transform="translate(7.84 12.19)">Husk!<tspan class="cls-3"><tspan x="0" y="8.4">Hvis du eller and</tspan><tspan class="cls-4" x="53.23" y="8.4">r</tspan><tspan x="56.01" y="8.4">e vil </tspan><tspan x="0" y="16.8">o</tspan><tspan class="cls-5" x="3.86" y="16.8">f</tspan><tspan class="cls-6" x="6.4" y="16.8">f</tspan><tspan x="8.83" y="16.8">entliggø</tspan><tspan class="cls-4" x="34.57" y="16.8">r</tspan><tspan x="37.35" y="16.8">e </tspan><tspan class="cls-7" x="43.27" y="16.8">e</tspan><tspan x="47.09" y="16.8">t klassebille</tspan><tspan x="85.25" y="16.8">-</tspan><tspan x="0" y="25.2">de s</tspan><tspan class="cls-8" x="12.97" y="25.2">k</tspan><tspan x="16.85" y="25.2">al du spø</tspan><tspan class="cls-9" x="45.79" y="25.2">r</tspan><tspan class="cls-4" x="48.57" y="25.2">g</tspan><tspan x="52.53" y="25.2">e h</tspan><tspan class="cls-10" x="62.33" y="25.2">v</tspan><tspan x="65.79" y="25.2">er </tspan><tspan x="0" y="33.6">en</tspan><tspan class="cls-11" x="7.69" y="33.6">k</tspan><tspan x="11.53" y="33.6">elt el</tspan><tspan class="cls-12" x="27.65" y="33.6">e</tspan><tspan class="cls-13" x="31.4" y="33.6">v</tspan><tspan x="34.74" y="33.6">, eller de</tspan><tspan class="cls-4" x="63.15" y="33.6">r</tspan><tspan x="65.93" y="33.6">es </tspan><tspan class="cls-14" x="0" y="42">f</tspan><tspan x="2.43" y="42">o</tspan><tspan class="cls-15" x="6.29" y="42">r</tspan><tspan x="8.89" y="42">æld</tspan><tspan class="cls-4" x="20.65" y="42">r</tspan><tspan x="23.43" y="42">e afhængig af </tspan><tspan x="0" y="50.4">el</tspan><tspan class="cls-12" x="5.82" y="50.4">e</tspan><tspan class="cls-10" x="9.57" y="50.4">v</tspan><tspan x="13.03" y="50.4">e</tspan><tspan class="cls-16" x="16.84" y="50.4">r</tspan><tspan x="19.64" y="50.4">nes alde</tspan><tspan class="cls-17" x="46.24" y="50.4">r</tspan><tspan x="48.67" y="50.4">, om l</tspan><tspan class="cls-12" x="66.66" y="50.4">o</tspan><tspan class="cls-18" x="70.46" y="50.4">v</tspan><tspan x="73.81" y="50.4" xml:space="preserve">.  </tspan></tspan></text></g></g></svg>
