<svg xmlns="http://www.w3.org/2000/svg" width="100" height="88.46" viewBox="0 0 100 88.46"><defs><style>.cls-1{fill:#89cce5;}.cls-2,.cls-3{fill:#fff;}.cls-3{font-size:9px;font-family:Futura-CondensedExtraBold, Futura;}.cls-4{font-weight:700;}.cls-5{font-size:4px;font-family:Futura-Medium, Futura;}.cls-6{letter-spacing:0.01em;}.cls-7{letter-spacing:0.02em;}.cls-8{letter-spacing:-0.02em;}.cls-9{letter-spacing:-0.01em;}.cls-10{letter-spacing:0.03em;}.cls-11{letter-spacing:-0.02em;}.cls-12{letter-spacing:-0.02em;}.cls-13{letter-spacing:-0.04em;}.cls-14{letter-spacing:0.01em;}.cls-15{letter-spacing:-0.05em;}</style></defs><title>klassebillede_ros</title><g id="Layer_2" data-name="Layer 2"><g id="Layer_1-2" data-name="Layer 1"><path class="cls-1" d="M7.72,68.92l-1-.31A8.21,8.21,0,0,1,1,60.77V9.23A8.24,8.24,0,0,1,9.23,1H90.77A8.24,8.24,0,0,1,99,9.23V60.77A8.24,8.24,0,0,1,90.77,69H18.69L2.28,84.86Z"/><path class="cls-2" d="M90.77,2A7.23,7.23,0,0,1,98,9.23V60.77A7.23,7.23,0,0,1,90.77,68H18.28l-.58.56L4.57,81.26,8.34,70.21,9,68.28l-1.95-.62a7.31,7.31,0,0,1-5-6.89V9.23A7.23,7.23,0,0,1,9.23,2H90.77m0-2H9.23A9.25,9.25,0,0,0,0,9.23V60.77a9.27,9.27,0,0,0,6.44,8.8L0,88.46,19.09,70H90.77A9.25,9.25,0,0,0,100,60.77V9.23A9.25,9.25,0,0,0,90.77,0Z"/><text class="cls-3" transform="translate(9.8 13.82)"><tspan class="cls-4">Rigtigt!</tspan><tspan class="cls-5"><tspan x="0" y="12">D</tspan><tspan class="cls-6" x="2.9" y="12">e</tspan><tspan x="5.15" y="12">t er </tspan><tspan class="cls-7" x="12.42" y="12">r</tspan><tspan x="13.98" y="12">igtig ik</tspan><tspan class="cls-8" x="26.08" y="12">k</tspan><tspan x="28.01" y="12">e at dele billed</tspan><tspan class="cls-6" x="55.23" y="12">e</tspan><tspan x="57.48" y="12">t, hvis du </tspan><tspan x="0" y="16.8">eller and</tspan><tspan class="cls-9" x="16.14" y="16.8">r</tspan><tspan x="17.61" y="16.8">e vil o</tspan><tspan class="cls-10" x="28.7" y="16.8">f</tspan><tspan class="cls-7" x="30.02" y="16.8">f</tspan><tspan x="31.26" y="16.8">entliggø</tspan><tspan class="cls-9" x="45.95" y="16.8">r</tspan><tspan x="47.42" y="16.8">e </tspan><tspan class="cls-6" x="50.87" y="16.8">e</tspan><tspan x="53.11" y="16.8">t klassebillede </tspan><tspan x="0" y="21.6">s</tspan><tspan class="cls-11" x="1.62" y="21.6">k</tspan><tspan x="3.55" y="21.6">al du spørge h</tspan><tspan class="cls-11" x="29.95" y="21.6">v</tspan><tspan x="31.89" y="21.6">er en</tspan><tspan class="cls-8" x="41.24" y="21.6">k</tspan><tspan x="43.16" y="21.6">elt el</tspan><tspan class="cls-11" x="51.91" y="21.6">e</tspan><tspan x="54.05" y="21.6">v om l</tspan><tspan class="cls-12" x="65.1" y="21.6">o</tspan><tspan class="cls-13" x="67.42" y="21.6">v</tspan><tspan x="69.27" y="21.6">, eller </tspan><tspan x="0" y="26.4">de</tspan><tspan class="cls-9" x="4.61" y="26.4">r</tspan><tspan x="6.08" y="26.4">es </tspan><tspan class="cls-14" x="11.15" y="26.4">f</tspan><tspan x="12.39" y="26.4">o</tspan><tspan class="cls-9" x="14.79" y="26.4">r</tspan><tspan x="16.26" y="26.4">æld</tspan><tspan class="cls-9" x="23.1" y="26.4">r</tspan><tspan x="24.57" y="26.4">e afhængig af el</tspan><tspan class="cls-11" x="54.48" y="26.4">ev</tspan><tspan x="58.56" y="26.4">e</tspan><tspan class="cls-7" x="60.78" y="26.4">r</tspan><tspan x="62.33" y="26.4">nes alde</tspan><tspan class="cls-15" x="77.6" y="26.4">r</tspan><tspan x="78.89" y="26.4">. </tspan></tspan></text></g></g></svg>
