<svg xmlns="http://www.w3.org/2000/svg" viewBox="0 0 105.66 110"><defs><style>.cls-1{fill:#202532;}.cls-2{font-size:7.5px;fill:#fff;font-family:Futura-CondensedExtraBold, Futura CondensedExtraBold;font-weight:700;}.cls-3{font-size:7px;}.cls-4{letter-spacing:0.01em;}.cls-5{letter-spacing:-0.01em;}.cls-6{letter-spacing:-0.01em;}.cls-7{letter-spacing:0em;}.cls-8{letter-spacing:-0.01em;}.cls-9{letter-spacing:0.02em;}.cls-10{letter-spacing:0.02em;}.cls-11{letter-spacing:-0.01em;}.cls-12{letter-spacing:-0.04em;}.cls-13{letter-spacing:-0.01em;}.cls-14{letter-spacing:-0.01em;}.cls-15{letter-spacing:-0.01em;}.cls-16{letter-spacing:0em;}.cls-17{letter-spacing:-0.05em;}.cls-18{letter-spacing:-0.01em;}</style></defs><title>Aktiv 21</title><g id="Lag_2" data-name="Lag 2"><g id="Lag_1-2" data-name="Lag 1"><polyline class="cls-1" points="13.19 71.34 0 110 35.65 75.52"/><rect class="cls-1" width="105.66" height="84" rx="12" ry="12"/><text></text><text class="cls-2" transform="translate(7.84 11.32)">Husk!<tspan class="cls-3"><tspan class="cls-4" x="0" y="8.4">H</tspan><tspan x="4.63" y="8.4">vis du eller and</tspan><tspan class="cls-5" x="48.47" y="8.4">r</tspan><tspan x="50.69" y="8.4">e vil </tspan><tspan x="0" y="16.8">o</tspan><tspan class="cls-6" x="3.84" y="16.8">ff</tspan><tspan x="7.83" y="16.8">e</tspan><tspan class="cls-7" x="11.34" y="16.8">n</tspan><tspan x="15.2" y="16.8">tliggø</tspan><tspan class="cls-8" x="32.47" y="16.8">r</tspan><tspan x="34.69" y="16.8">e et </tspan><tspan class="cls-9" x="46.99" y="16.8">k</tspan><tspan x="50.39" y="16.8">lassebillede </tspan><tspan x="0" y="25.2">s</tspan><tspan class="cls-10" x="2.77" y="25.2">k</tspan><tspan x="6.18" y="25.2">al du spø</tspan><tspan class="cls-11" x="32.58" y="25.2">r</tspan><tspan x="34.81" y="25.2">ge </tspan><tspan class="cls-6" x="43.72" y="25.2">h</tspan><tspan class="cls-8" x="47.51" y="25.2">v</tspan><tspan x="50.81" y="25.2">er enkelt </tspan><tspan x="0" y="33.6">ele</tspan><tspan class="cls-12" x="8.67" y="33.6">v</tspan><tspan x="11.76" y="33.6">, eller de</tspan><tspan class="cls-13" x="36.24" y="33.6">r</tspan><tspan x="38.46" y="33.6">es </tspan><tspan class="cls-6" x="46.22" y="33.6">f</tspan><tspan x="48.17" y="33.6">o</tspan><tspan class="cls-14" x="52.02" y="33.6">r</tspan><tspan x="54.27" y="33.6">æld</tspan><tspan class="cls-8" x="65.28" y="33.6">r</tspan><tspan x="67.5" y="33.6">e </tspan><tspan x="0" y="42">afhæn</tspan><tspan class="cls-15" x="18.6" y="42">g</tspan><tspan x="22.47" y="42">ig af ele</tspan><tspan class="cls-8" x="45.07" y="42">v</tspan><tspan x="48.37" y="42">e</tspan><tspan class="cls-16" x="51.88" y="42">r</tspan><tspan x="54.19" y="42">nes alde</tspan><tspan class="cls-17" x="78.32" y="42">r</tspan><tspan x="80.24" y="42">, </tspan><tspan x="0" y="50.4">om l</tspan><tspan class="cls-18" x="12.82" y="50.4">o</tspan><tspan class="cls-12" x="16.61" y="50.4">v</tspan><tspan x="19.7" y="50.4" xml:space="preserve">.  </tspan></tspan></text></g></g></svg>
