<svg xmlns="http://www.w3.org/2000/svg" viewBox="0 0 105.66 109"><defs><style>.cls-1{fill:#89cce5;}.cls-2{font-size:7.5px;fill:#fff;font-family:Futura-CondensedExtraBold, Futura;font-weight:700;}.cls-3{font-size:7px;}.cls-4{letter-spacing:0em;}.cls-5{letter-spacing:-0.01em;}.cls-6{letter-spacing:0.01em;}.cls-7{letter-spacing:0.02em;}.cls-8{letter-spacing:0.01em;}.cls-9{letter-spacing:0em;}.cls-10{letter-spacing:0.01em;}.cls-11{letter-spacing:-0.01em;}.cls-12{letter-spacing:-0.01em;}.cls-13{letter-spacing:-0.01em;}.cls-14{letter-spacing:-0.03em;}.cls-15{letter-spacing:0.01em;}.cls-16{letter-spacing:-0.02em;}.cls-17{letter-spacing:0.01em;}.cls-18{letter-spacing:-0.04em;}</style></defs><title>klasseimgrigtig</title><g id="Lag_2" data-name="Lag 2"><g id="Lag_1-2" data-name="Lag 1"><polyline class="cls-1" points="21.19 70.34 8 109 43.65 74.52"/><rect class="cls-1" width="105.66" height="84" rx="12" ry="12"/><text class="cls-2" transform="translate(5.84 13.19)">Rigtigt!<tspan class="cls-3"><tspan x="0" y="8.4">D</tspan><tspan class="cls-4" x="4.26" y="8.4">e</tspan><tspan x="8.08" y="8.4">t er </tspan><tspan class="cls-4" x="21.21" y="8.4">r</tspan><tspan x="23.95" y="8.4">igtig ik</tspan><tspan class="cls-5" x="46.17" y="8.4">k</tspan><tspan x="50" y="8.4">e at dele </tspan><tspan x="0" y="16.8">billed</tspan><tspan class="cls-4" x="17.69" y="16.8">e</tspan><tspan x="21.52" y="16.8">t, hvis du eller and</tspan><tspan class="cls-6" x="80.95" y="16.8">r</tspan><tspan x="83.73" y="16.8">e </tspan><tspan x="0" y="25.2">vil o</tspan><tspan class="cls-7" x="13.5" y="25.2">f</tspan><tspan class="cls-8" x="16.05" y="25.2">f</tspan><tspan x="18.47" y="25.2">entliggø</tspan><tspan class="cls-6" x="44.22" y="25.2">r</tspan><tspan x="47" y="25.2">e </tspan><tspan class="cls-4" x="52.91" y="25.2">e</tspan><tspan x="56.74" y="25.2">t klassebil</tspan><tspan x="89.08" y="25.2">-</tspan><tspan x="0" y="33.6">lede s</tspan><tspan class="cls-9" x="18.79" y="33.6">k</tspan><tspan x="22.67" y="33.6">al du spø</tspan><tspan class="cls-10" x="51.6" y="33.6">r</tspan><tspan class="cls-6" x="54.39" y="33.6">g</tspan><tspan x="58.35" y="33.6">e h</tspan><tspan class="cls-11" x="68.15" y="33.6">v</tspan><tspan x="71.6" y="33.6">er </tspan><tspan x="0" y="42">en</tspan><tspan class="cls-12" x="7.69" y="42">k</tspan><tspan x="11.53" y="42">elt el</tspan><tspan class="cls-13" x="27.65" y="42">e</tspan><tspan x="31.4" y="42">v om l</tspan><tspan class="cls-13" x="50.81" y="42">o</tspan><tspan class="cls-14" x="54.62" y="42">v</tspan><tspan x="57.95" y="42">, eller de</tspan><tspan class="cls-6" x="86.37" y="42">r</tspan><tspan x="89.15" y="42">es </tspan><tspan class="cls-15" x="0" y="50.4">f</tspan><tspan x="2.43" y="50.4">o</tspan><tspan class="cls-16" x="6.29" y="50.4">r</tspan><tspan x="8.89" y="50.4">æld</tspan><tspan class="cls-6" x="20.65" y="50.4">r</tspan><tspan x="23.43" y="50.4">e afhængig af </tspan><tspan x="0" y="58.8">el</tspan><tspan class="cls-13" x="5.82" y="58.8">e</tspan><tspan class="cls-11" x="9.57" y="58.8">v</tspan><tspan x="13.03" y="58.8">e</tspan><tspan class="cls-17" x="16.84" y="58.8">r</tspan><tspan x="19.64" y="58.8">nes alde</tspan><tspan class="cls-18" x="46.24" y="58.8">r</tspan><tspan x="48.67" y="58.8">. </tspan></tspan></text><text></text></g></g></svg>
