<svg xmlns="http://www.w3.org/2000/svg" width="100" height="88.46" viewBox="0 0 100 88.46"><defs><style>.cls-1{fill:#202532;}.cls-15,.cls-16,.cls-17,.cls-2,.cls-4,.cls-5{fill:#fff;}.cls-3{font-size:9px;font-family:Futura-CondensedExtraBold, Futura;}.cls-4{font-weight:700;}.cls-14,.cls-5{font-size:4px;font-family:Futura-Medium, Futura;}.cls-6{letter-spacing:-0.01em;}.cls-7{letter-spacing:0.03em;}.cls-16,.cls-8{letter-spacing:0.02em;}.cls-9{letter-spacing:0.01em;}.cls-10,.cls-15{letter-spacing:-0.02em;}.cls-11{letter-spacing:-0.02em;}.cls-12{letter-spacing:0.01em;}.cls-13{letter-spacing:-0.02em;}.cls-17{letter-spacing:-0.05em;}.cls-18{font-family:MyriadPro-Regular, Myriad Pro;}</style></defs><title>klassebillede_info</title><g id="Layer_2" data-name="Layer 2"><g id="Layer_1-2" data-name="Layer 1"><path class="cls-1" d="M7.72,68.92l-1-.31A8.21,8.21,0,0,1,1,60.77V9.23A8.24,8.24,0,0,1,9.23,1H90.77A8.24,8.24,0,0,1,99,9.23V60.77A8.24,8.24,0,0,1,90.77,69H18.69L2.28,84.86Z"/><path class="cls-2" d="M90.77,2A7.23,7.23,0,0,1,98,9.23V60.77A7.23,7.23,0,0,1,90.77,68H18.28l-.58.56L4.57,81.26,8.34,70.21,9,68.28l-1.95-.62a7.31,7.31,0,0,1-5-6.89V9.23A7.23,7.23,0,0,1,9.23,2H90.77m0-2H9.23A9.25,9.25,0,0,0,0,9.23V60.77a9.27,9.27,0,0,0,6.44,8.8L0,88.46,19.09,70H90.77A9.25,9.25,0,0,0,100,60.77V9.23A9.25,9.25,0,0,0,90.77,0Z"/><text class="cls-3" transform="translate(9.8 13.82)"><tspan class="cls-4">Husk!</tspan><tspan class="cls-5"><tspan x="0" y="12">Hvis du eller and</tspan><tspan class="cls-6" x="30.75" y="12">r</tspan><tspan x="32.22" y="12">e vil o</tspan><tspan class="cls-7" x="43.3" y="12">f</tspan><tspan class="cls-8" x="44.63" y="12">f</tspan><tspan x="45.87" y="12">entliggø</tspan><tspan class="cls-6" x="60.56" y="12">r</tspan><tspan x="62.03" y="12">e </tspan><tspan class="cls-9" x="65.47" y="12">e</tspan><tspan x="67.72" y="12">t </tspan><tspan x="0" y="16.8">klassebillede, s</tspan><tspan class="cls-10" x="27.15" y="16.8">k</tspan><tspan x="29.07" y="16.8">al du spørge h</tspan><tspan class="cls-10" x="55.47" y="16.8">v</tspan><tspan x="57.41" y="16.8">er en</tspan><tspan class="cls-11" x="66.76" y="16.8">k</tspan><tspan x="68.69" y="16.8">elt </tspan><tspan x="0" y="21.6">el</tspan><tspan class="cls-10" x="3.21" y="21.6">e</tspan><tspan x="5.35" y="21.6">v eller de</tspan><tspan class="cls-6" x="22.36" y="21.6">r</tspan><tspan x="23.83" y="21.6">es </tspan><tspan class="cls-12" x="28.9" y="21.6">f</tspan><tspan x="30.13" y="21.6">o</tspan><tspan class="cls-6" x="32.54" y="21.6">r</tspan><tspan x="34.01" y="21.6">æld</tspan><tspan class="cls-6" x="40.84" y="21.6">r</tspan><tspan x="42.31" y="21.6">e om l</tspan><tspan class="cls-13" x="53.56" y="21.6">o</tspan><tspan x="55.88" y="21.6">v - afhængig </tspan></tspan><tspan class="cls-14"><tspan class="cls-2" x="0" y="26.4">af el</tspan><tspan class="cls-15" x="8.03" y="26.4">ev</tspan><tspan class="cls-2" x="12.12" y="26.4">e</tspan><tspan class="cls-16" x="14.33" y="26.4">r</tspan><tspan class="cls-2" x="15.88" y="26.4">nes alde</tspan><tspan class="cls-17" x="31.15" y="26.4">r</tspan><tspan class="cls-2" x="32.44" y="26.4">.</tspan><tspan class="cls-18" x="33.67" y="26.4"> </tspan></tspan></text></g></g></svg>
