<svg xmlns="http://www.w3.org/2000/svg" viewBox="0 0 130 115"><defs><style>.cls-1{fill:#202532;}.cls-2{font-size:7px;fill:#fff;font-family:Futura-CondensedExtraBold, Futura;}.cls-3{font-weight:700;}.cls-4{font-family:Futura-Medium, Futura;}.cls-5{letter-spacing:-0.01em;}.cls-6{letter-spacing:0.03em;}.cls-7{letter-spacing:0.02em;}.cls-8{letter-spacing:0.01em;}.cls-9{letter-spacing:-0.02em;}.cls-10{letter-spacing:-0.02em;}.cls-11{letter-spacing:-0.02em;}.cls-12{letter-spacing:-0.02em;}.cls-13{letter-spacing:-0.04em;}.cls-14{letter-spacing:0.01em;}.cls-15{letter-spacing:-0.01em;}.cls-16{letter-spacing:-0.02em;}.cls-17{letter-spacing:-0.06em;}</style></defs><title>klasseimgforker</title><g id="Lag_2" data-name="Lag 2"><g id="Lag_1-2" data-name="Lag 1"><polyline class="cls-1" points="13.19 76.34 0 115 35.65 80.52"/><rect class="cls-1" width="130" height="91" rx="12" ry="12"/><text></text><text class="cls-2" transform="translate(7.84 11.77)"><tspan class="cls-3">Husk!</tspan><tspan class="cls-4"><tspan x="0" y="12">Hvis du eller and</tspan><tspan class="cls-5" x="53.81" y="12">r</tspan><tspan x="56.38" y="12">e vil </tspan><tspan x="0" y="20.4">o</tspan><tspan class="cls-6" x="4.21" y="20.4">f</tspan><tspan class="cls-7" x="6.52" y="20.4">f</tspan><tspan x="8.7" y="20.4">entliggø</tspan><tspan class="cls-5" x="34.4" y="20.4">r</tspan><tspan x="36.97" y="20.4">e </tspan><tspan class="cls-8" x="43" y="20.4">e</tspan><tspan x="46.94" y="20.4">t klassebillede </tspan><tspan x="0" y="28.8">s</tspan><tspan class="cls-9" x="2.84" y="28.8">k</tspan><tspan x="6.21" y="28.8">al du spørge h</tspan><tspan class="cls-10" x="52.4" y="28.8">v</tspan><tspan x="55.8" y="28.8">er en</tspan><tspan class="cls-11" x="72.16" y="28.8">k</tspan><tspan x="75.54" y="28.8">elt el</tspan><tspan class="cls-12" x="90.84" y="28.8">e</tspan><tspan class="cls-13" x="94.6" y="28.8">v</tspan><tspan x="97.83" y="28.8">, </tspan><tspan x="0" y="37.2">eller de</tspan><tspan class="cls-5" x="24.08" y="37.2">r</tspan><tspan x="26.65" y="37.2">es </tspan><tspan class="cls-14" x="35.52" y="37.2">f</tspan><tspan x="37.69" y="37.2">o</tspan><tspan class="cls-15" x="41.89" y="37.2">r</tspan><tspan x="44.47" y="37.2">æld</tspan><tspan class="cls-5" x="56.43" y="37.2">r</tspan><tspan x="59" y="37.2">e afhængig af </tspan><tspan x="0" y="45.6">el</tspan><tspan class="cls-9" x="5.62" y="45.6">ev</tspan><tspan x="12.77" y="45.6">e</tspan><tspan class="cls-7" x="16.64" y="45.6">r</tspan><tspan x="19.36" y="45.6">nes alde</tspan><tspan class="cls-13" x="46.08" y="45.6">r</tspan><tspan x="48.42" y="45.6">, om l</tspan><tspan class="cls-16" x="66.39" y="45.6">o</tspan><tspan class="cls-17" x="70.46" y="45.6">v</tspan><tspan x="73.59" y="45.6" xml:space="preserve">.  </tspan></tspan></text></g></g></svg>
