<svg xmlns="http://www.w3.org/2000/svg" viewBox="0 0 105.66 107"><defs><style>.cls-1{fill:#89cce5;}.cls-2{font-size:7.5px;fill:#fff;font-family:Futura-CondensedExtraBold, Futura;font-weight:700;}.cls-3{letter-spacing:-0.05em;}.cls-4{font-size:7.2px;}.cls-5{letter-spacing:0.01em;}.cls-6{letter-spacing:0em;}.cls-7{letter-spacing:0.01em;}.cls-8{letter-spacing:0.01em;}.cls-9{letter-spacing:0.01em;}.cls-10{letter-spacing:-0.04em;}.cls-11{letter-spacing:0.01em;}.cls-12{letter-spacing:0.01em;}.cls-13{letter-spacing:0.01em;}.cls-14{letter-spacing:-0.01em;}.cls-15{letter-spacing:0em;}.cls-16{letter-spacing:-0.01em;}.cls-17{letter-spacing:0.01em;}</style></defs><title>lufthavnimgrigtig</title><g id="Lag_2" data-name="Lag 2"><g id="Lag_1-2" data-name="Lag 1"><rect class="cls-1" width="105.66" height="83" rx="12" ry="12"/><text class="cls-2" transform="translate(6 14.19)"><tspan class="cls-3">Y</tspan><tspan x="3.86" y="0">es!</tspan><tspan class="cls-4"><tspan x="0" y="8.64">Godt </tspan><tspan class="cls-5" x="17.19" y="8.64">g</tspan><tspan x="21.3" y="8.64">å</tspan><tspan class="cls-6" x="25.34" y="8.64">e</tspan><tspan x="29.28" y="8.64">t, </tspan><tspan class="cls-7" x="36.06" y="8.64">f</tspan><tspan x="38.56" y="8.64">or vid</tspan><tspan class="cls-8" x="57.23" y="8.64">s</tspan><tspan class="cls-9" x="60.5" y="8.64">t</tspan><tspan x="62.99" y="8.64">e du at </tspan><tspan x="0" y="17.28">deling af billede</tspan><tspan class="cls-10" x="53.04" y="17.28">r</tspan><tspan x="55.53" y="17.28">, som </tspan><tspan x="0" y="25.92">in</tspan><tspan class="cls-11" x="6.06" y="25.92">f</tspan><tspan x="8.56" y="25.92">o</tspan><tspan class="cls-12" x="12.53" y="25.92">r</tspan><tspan x="15.4" y="25.92">me</tspan><tspan class="cls-13" x="25.29" y="25.92">r</tspan><tspan x="28.15" y="25.92">er and</tspan><tspan class="cls-8" x="49.12" y="25.92">r</tspan><tspan x="51.97" y="25.92">e om at du </tspan><tspan x="0" y="34.56">er på </tspan><tspan class="cls-9" x="19.12" y="34.56">f</tspan><tspan x="21.62" y="34.56">e</tspan><tspan class="cls-6" x="25.54" y="34.56">r</tspan><tspan x="28.35" y="34.56">ie og de</tspan><tspan class="cls-12" x="54.61" y="34.56">r</tspan><tspan x="57.48" y="34.56">med </tspan><tspan x="0" y="43.2">indi</tspan><tspan class="cls-14" x="12.16" y="43.2">k</tspan><tspan x="16.1" y="43.2">e</tspan><tspan class="cls-13" x="20.02" y="43.2">r</tspan><tspan x="22.88" y="43.2">er at du ik</tspan><tspan class="cls-14" x="56.8" y="43.2">k</tspan><tspan x="60.74" y="43.2">e er </tspan><tspan x="0" y="51.84">hjemme, ø</tspan><tspan class="cls-13" x="34.14" y="51.84">g</tspan><tspan x="38.21" y="51.84">er </tspan><tspan class="cls-15" x="47.1" y="51.84">r</tspan><tspan x="49.91" y="51.84">isi</tspan><tspan class="cls-16" x="57.25" y="51.84">k</tspan><tspan x="61.2" y="51.84">oen </tspan><tspan class="cls-17" x="75.25" y="51.84">f</tspan><tspan x="77.75" y="51.84">or </tspan></tspan></text><polyline class="cls-1" points="16.19 68.34 3 107 38.65 72.52"/></g></g></svg>
