<svg xmlns="http://www.w3.org/2000/svg" viewBox="0 0 130 117"><defs><style>.cls-1{fill:#89cce5;}.cls-2{font-size:7.5px;fill:#fff;font-family:Futura-CondensedExtraBold, Futura;}.cls-3{font-weight:700;}.cls-4{letter-spacing:-0.05em;}.cls-5{font-size:6.5px;font-family:Futura-Medium, Futura;}.cls-6{letter-spacing:0.01em;}.cls-7{letter-spacing:0.01em;}.cls-8{letter-spacing:0.01em;}.cls-9{letter-spacing:-0.04em;}.cls-10{letter-spacing:0.01em;}.cls-11{letter-spacing:0.02em;}.cls-12{letter-spacing:-0.01em;}.cls-13{letter-spacing:0.02em;}.cls-14{letter-spacing:0em;}.cls-15{letter-spacing:-0.02em;}.cls-16{letter-spacing:-0.01em;}.cls-17{letter-spacing:-0.02em;}.cls-18{letter-spacing:0em;}.cls-19{letter-spacing:-0.02em;}.cls-20{letter-spacing:0em;}</style></defs><title>lufthavnimgrigtig</title><g id="Lag_2" data-name="Lag 2"><g id="Lag_1-2" data-name="Lag 1"><rect class="cls-1" width="130" height="92" rx="12" ry="12"/><text class="cls-2" transform="translate(6 14.19)"><tspan class="cls-3"><tspan class="cls-4">Y</tspan><tspan x="3.86" y="0">es!</tspan></tspan><tspan class="cls-5"><tspan x="0" y="12">Godt gå</tspan><tspan class="cls-6" x="24.85" y="12">e</tspan><tspan x="28.5" y="12">t, </tspan><tspan class="cls-7" x="34.29" y="12">f</tspan><tspan x="36.3" y="12">or vids</tspan><tspan class="cls-8" x="56.07" y="12">t</tspan><tspan x="57.9" y="12">e du at </tspan><tspan x="0" y="19.8">deling af billede</tspan><tspan class="cls-9" x="47.87" y="19.8">r</tspan><tspan x="50.04" y="19.8">, som </tspan><tspan x="0" y="27.6">in</tspan><tspan class="cls-10" x="5.18" y="27.6">f</tspan><tspan x="7.19" y="27.6">o</tspan><tspan class="cls-11" x="11.1" y="27.6">r</tspan><tspan x="13.63" y="27.6">me</tspan><tspan class="cls-12" x="22.37" y="27.6">r</tspan><tspan x="24.75" y="27.6">er and</tspan><tspan class="cls-12" x="44.15" y="27.6">r</tspan><tspan x="46.53" y="27.6">e om at du er </tspan><tspan x="0" y="35.4">på </tspan><tspan class="cls-11" x="9.8" y="35.4">f</tspan><tspan x="11.83" y="35.4">e</tspan><tspan class="cls-13" x="15.42" y="35.4">r</tspan><tspan x="17.95" y="35.4">ie og de</tspan><tspan class="cls-11" x="42.47" y="35.4">r</tspan><tspan class="cls-14" x="45" y="35.4">med indi</tspan><tspan class="cls-15" x="70.34" y="35.4">k</tspan><tspan x="73.47" y="35.4">e</tspan><tspan class="cls-16" x="77.07" y="35.4">r</tspan><tspan x="79.46" y="35.4">er at </tspan><tspan x="0" y="43.2">du ik</tspan><tspan class="cls-17" x="14.3" y="43.2">k</tspan><tspan class="cls-18" x="17.43" y="43.2">e er hjemme, øger </tspan><tspan class="cls-13" x="0" y="51">r</tspan><tspan class="cls-18" x="2.53" y="51">isi</tspan><tspan class="cls-19" x="8.4" y="51">k</tspan><tspan x="11.51" y="51">oen </tspan><tspan class="cls-7" x="24.58" y="51">f</tspan><tspan x="26.59" y="51">or indb</tspan><tspan class="cls-11" x="47.92" y="51">r</tspan><tspan class="cls-20" x="50.45" y="51">ud? . </tspan></tspan></text><polyline class="cls-1" points="16.19 78.34 3 117 38.65 82.52"/></g></g></svg>
