<svg xmlns="http://www.w3.org/2000/svg" viewBox="0 0 130 120"><defs><style>.cls-1{fill:#202532;}.cls-2{font-size:7.5px;fill:#fff;font-family:Futura-CondensedExtraBold, Futura;}.cls-3{font-weight:700;}.cls-4{letter-spacing:0em;}.cls-5{font-size:7px;font-family:Futura-Medium, Futura;}.cls-6{letter-spacing:-0.04em;}.cls-7{letter-spacing:0.01em;}.cls-8{letter-spacing:0.02em;}.cls-9{letter-spacing:-0.01em;}.cls-10{letter-spacing:0.02em;}.cls-11{letter-spacing:0em;}.cls-12{letter-spacing:0.02em;}.cls-13{letter-spacing:-0.02em;}.cls-14{letter-spacing:-0.02em;}.cls-15{letter-spacing:0.01em;}</style></defs><title>lufthavnimgforkert</title><g id="Lag_2" data-name="Lag 2"><g id="Lag_1-2" data-name="Lag 1"><rect class="cls-1" width="130" height="91" rx="12" ry="12"/><text class="cls-2" transform="translate(6.84 12.19)"><tspan class="cls-3"><tspan class="cls-4">P</tspan><tspan x="4.25" y="0">as på!</tspan></tspan><tspan class="cls-5"><tspan x="0" y="12">Deling af billede</tspan><tspan class="cls-6" x="52.44" y="12">r</tspan><tspan x="54.77" y="12">, som in</tspan><tspan class="cls-7" x="79.42" y="12">f</tspan><tspan x="81.58" y="12">o</tspan><tspan class="cls-8" x="85.79" y="12">r</tspan><tspan x="88.52" y="12">me</tspan><tspan class="cls-9" x="97.92" y="12">r</tspan><tspan x="100.5" y="12">er </tspan><tspan x="0" y="20.4">and</tspan><tspan class="cls-9" x="12.23" y="20.4">r</tspan><tspan x="14.8" y="20.4">e om at du er på </tspan><tspan class="cls-10" x="70.39" y="20.4">f</tspan><tspan class="cls-11" x="72.57" y="20.4">e</tspan><tspan class="cls-10" x="76.45" y="20.4">r</tspan><tspan x="79.17" y="20.4">ie og </tspan><tspan x="0" y="28.8">de</tspan><tspan class="cls-12" x="8.07" y="28.8">r</tspan><tspan x="10.79" y="28.8">med ik</tspan><tspan class="cls-13" x="31.79" y="28.8">k</tspan><tspan x="35.16" y="28.8">e hjemme, øger </tspan><tspan class="cls-10" x="86.97" y="28.8">f</tspan><tspan x="89.15" y="28.8">aktisk </tspan><tspan class="cls-12" x="0" y="37.2">r</tspan><tspan x="2.72" y="37.2">isi</tspan><tspan class="cls-14" x="9.05" y="37.2">k</tspan><tspan x="12.4" y="37.2">oen </tspan><tspan class="cls-15" x="26.48" y="37.2">f</tspan><tspan x="28.64" y="37.2">or indb</tspan><tspan class="cls-10" x="51.6" y="37.2">r</tspan><tspan x="54.33" y="37.2">ud.</tspan></tspan></text><polyline class="cls-1" points="20.19 81.34 7 120 42.65 85.52"/></g></g></svg>
