<svg xmlns="http://www.w3.org/2000/svg" viewBox="0 0 105.66 106"><defs><style>.cls-1{fill:#202532;}.cls-2{font-size:7.5px;fill:#fff;font-family:Futura-CondensedExtraBold, Futura;font-weight:700;}.cls-3{letter-spacing:0em;}.cls-4{font-size:7px;}.cls-5{letter-spacing:-0.04em;}.cls-6{letter-spacing:0.01em;}.cls-7{letter-spacing:0.01em;}.cls-8{letter-spacing:0.01em;}.cls-9{letter-spacing:0.01em;}.cls-10{letter-spacing:0em;}.cls-11{letter-spacing:-0.01em;}.cls-12{letter-spacing:0.01em;}.cls-13{letter-spacing:-0.01em;}.cls-14{letter-spacing:0em;}</style></defs><title>lufthavnimgforkert</title><g id="Lag_2" data-name="Lag 2"><g id="Lag_1-2" data-name="Lag 1"><rect class="cls-1" width="105.66" height="84" rx="12" ry="12"/><text class="cls-2" transform="translate(6.84 12.19)"><tspan class="cls-3">P</tspan><tspan x="4.25" y="0">as på!</tspan><tspan class="cls-4"><tspan x="0" y="8.4">Deling af billede</tspan><tspan class="cls-5" x="51.89" y="8.4">r</tspan><tspan x="54.32" y="8.4">, som </tspan><tspan x="0" y="16.8">in</tspan><tspan class="cls-6" x="5.89" y="16.8">f</tspan><tspan x="8.32" y="16.8">o</tspan><tspan class="cls-7" x="12.18" y="16.8">r</tspan><tspan x="14.97" y="16.8">me</tspan><tspan class="cls-8" x="24.59" y="16.8">r</tspan><tspan x="27.37" y="16.8">er and</tspan><tspan class="cls-8" x="47.75" y="16.8">r</tspan><tspan x="50.53" y="16.8">e om at du er </tspan><tspan x="0" y="25.2">på </tspan><tspan class="cls-9" x="9.95" y="25.2">f</tspan><tspan x="12.38" y="25.2">e</tspan><tspan class="cls-10" x="16.19" y="25.2">r</tspan><tspan x="18.93" y="25.2">ie og de</tspan><tspan class="cls-7" x="44.45" y="25.2">r</tspan><tspan x="47.25" y="25.2">med ik</tspan><tspan class="cls-11" x="68.82" y="25.2">k</tspan><tspan x="72.65" y="25.2">e </tspan><tspan x="0" y="33.6">hjemme, ø</tspan><tspan class="cls-8" x="33.2" y="33.6">g</tspan><tspan x="37.15" y="33.6">er </tspan><tspan class="cls-12" x="45.79" y="33.6">f</tspan><tspan x="48.24" y="33.6">aktisk </tspan><tspan class="cls-10" x="69.62" y="33.6">r</tspan><tspan x="72.36" y="33.6">isi</tspan><tspan class="cls-13" x="79.49" y="33.6">k</tspan><tspan class="cls-14" x="83.33" y="33.6">oen </tspan><tspan class="cls-6" x="0" y="42">f</tspan><tspan x="2.43" y="42">or indb</tspan><tspan class="cls-9" x="24.87" y="42">r</tspan><tspan x="27.63" y="42">ud.</tspan></tspan></text><polyline class="cls-1" points="19.19 67.34 6 106 41.65 71.52"/></g></g></svg>
