<svg xmlns="http://www.w3.org/2000/svg" width="100" height="88.46" viewBox="0 0 100 88.46"><defs><style>.cls-1{fill:#89cce5;}.cls-2,.cls-3{fill:#fff;}.cls-3{font-size:9px;font-family:Futura-CondensedExtraBold, Futura;}.cls-4{font-weight:700;}.cls-5{letter-spacing:0.01em;}.cls-6{letter-spacing:0em;}.cls-7{font-size:4px;font-family:Futura-Medium, Futura;}.cls-8{letter-spacing:0.01em;}.cls-9{letter-spacing:0.01em;}.cls-10{letter-spacing:-0.04em;}.cls-11{letter-spacing:0.01em;}.cls-12{letter-spacing:0.02em;}.cls-13{letter-spacing:-0.01em;}.cls-14{letter-spacing:-0.02em;}.cls-15{letter-spacing:-0.02em;}.cls-16{letter-spacing:-0.02em;}</style></defs><title>rejse_ros</title><g id="Layer_2" data-name="Layer 2"><g id="Layer_1-2" data-name="Layer 1"><path class="cls-1" d="M7.72,68.92l-1-.31A8.21,8.21,0,0,1,1,60.77V9.23A8.24,8.24,0,0,1,9.23,1H90.77A8.24,8.24,0,0,1,99,9.23V60.77A8.24,8.24,0,0,1,90.77,69H18.69L2.28,84.86Z"/><path class="cls-2" d="M90.77,2A7.23,7.23,0,0,1,98,9.23V60.77A7.23,7.23,0,0,1,90.77,68H18.28l-.58.56L4.57,81.26,8.34,70.21,9,68.28l-1.95-.62a7.31,7.31,0,0,1-5-6.89V9.23A7.23,7.23,0,0,1,9.23,2H90.77m0-2H9.23A9.25,9.25,0,0,0,0,9.23V60.77a9.27,9.27,0,0,0,6.44,8.8L0,88.46,19.09,70H90.77A9.25,9.25,0,0,0,100,60.77V9.23A9.25,9.25,0,0,0,90.77,0Z"/><text class="cls-3" transform="translate(9.8 13.82)"><tspan class="cls-4">Godt <tspan class="cls-5" x="21.48" y="0">g</tspan><tspan x="26.63" y="0">å</tspan><tspan class="cls-6" x="31.68" y="0">e</tspan><tspan x="36.6" y="0">t!</tspan></tspan><tspan class="cls-7"><tspan class="cls-8" x="0" y="9.6">V</tspan><tspan x="2.74" y="9.6">ids</tspan><tspan class="cls-9" x="7.76" y="9.6">t</tspan><tspan x="8.89" y="9.6">e du at deling af billede</tspan><tspan class="cls-10" x="52.33" y="9.6">r</tspan><tspan x="53.67" y="9.6">, som </tspan><tspan x="0" y="14.4">in</tspan><tspan class="cls-11" x="3.19" y="14.4">f</tspan><tspan x="4.43" y="14.4">o</tspan><tspan class="cls-12" x="6.83" y="14.4">r</tspan><tspan x="8.39" y="14.4">me</tspan><tspan class="cls-13" x="13.76" y="14.4">r</tspan><tspan x="15.23" y="14.4">er and</tspan><tspan class="cls-13" x="27.17" y="14.4">r</tspan><tspan x="28.63" y="14.4">e, om at du er på </tspan><tspan class="cls-12" x="61.63" y="14.4">f</tspan><tspan x="62.88" y="14.4">e</tspan><tspan class="cls-12" x="65.09" y="14.4">r</tspan><tspan x="66.65" y="14.4">ie og </tspan><tspan x="0" y="19.2">de</tspan><tspan class="cls-12" x="4.61" y="19.2">r</tspan><tspan x="6.17" y="19.2">med indi</tspan><tspan class="cls-14" x="21.76" y="19.2">k</tspan><tspan x="23.69" y="19.2">e</tspan><tspan class="cls-13" x="25.9" y="19.2">r</tspan><tspan x="27.37" y="19.2">e</tspan><tspan class="cls-10" x="29.58" y="19.2">r</tspan><tspan x="30.92" y="19.2">, at du ik</tspan><tspan class="cls-14" x="46.92" y="19.2">k</tspan><tspan x="48.84" y="19.2">e er hjemme </tspan><tspan class="cls-15" x="72.41" y="19.2">o</tspan><tspan class="cls-16" x="74.74" y="19.2">v</tspan><tspan x="76.68" y="19.2">er </tspan><tspan x="0" y="24">en pe</tspan><tspan class="cls-12" x="10.25" y="24">r</tspan><tspan x="11.81" y="24">iode øger </tspan><tspan class="cls-12" x="30.8" y="24">r</tspan><tspan x="32.35" y="24">isi</tspan><tspan class="cls-15" x="35.97" y="24">k</tspan><tspan x="37.88" y="24">oen </tspan><tspan class="cls-11" x="45.93" y="24">f</tspan><tspan x="47.16" y="24">or indb</tspan><tspan class="cls-12" x="60.28" y="24">r</tspan><tspan x="61.84" y="24">ud?</tspan></tspan></text></g></g></svg>
