<svg xmlns="http://www.w3.org/2000/svg" viewBox="0 0 105.66 71.26"><defs><style>.cls-1{fill:#f4912d;}.cls-2{font-size:8px;font-family:Futura-CondensedExtraBold, Futura;}.cls-19,.cls-3,.cls-8{fill:#fff;}.cls-3{font-weight:700;}.cls-4{letter-spacing:-0.02em;}.cls-5{letter-spacing:0.01em;}.cls-6{letter-spacing:0.01em;}.cls-7{letter-spacing:0em;}.cls-18,.cls-8{font-size:5px;font-family:Futura-Medium, Futura;}.cls-9{letter-spacing:-0.02em;}.cls-10{letter-spacing:-0.02em;}.cls-11{letter-spacing:-0.02em;}.cls-12{letter-spacing:0.01em;}.cls-13{letter-spacing:0.01em;}.cls-14{letter-spacing:-0.02em;}.cls-15{letter-spacing:0em;}.cls-16{letter-spacing:0.01em;}.cls-17{letter-spacing:-0.02em;}</style></defs><title>Faktaboks_6</title><g id="Lag_2" data-name="Lag 2"><g id="Lag_1-2" data-name="Lag 1"><rect class="cls-1" width="105.66" height="71.26" rx="12" ry="12"/><text class="cls-2" transform="translate(6.84 14.9)"><tspan class="cls-3"><tspan class="cls-4">K</tspan><tspan x="4.7" y="0">o</tspan><tspan class="cls-5" x="9.11" y="0">r</tspan><tspan class="cls-6" x="12.3" y="0">r</tspan><tspan x="15.47" y="0">ekt </tspan><tspan class="cls-7" x="29.43" y="0">v</tspan><tspan x="33.44" y="0">alg! </tspan></tspan><tspan class="cls-8"><tspan x="0" y="12">Man s</tspan><tspan class="cls-9" x="14.12" y="12">k</tspan><tspan x="16.52" y="12">al altid hus</tspan><tspan class="cls-10" x="41.2" y="12">k</tspan><tspan x="43.61" y="12">e at spørge om l</tspan><tspan class="cls-11" x="80.78" y="12">o</tspan><tspan x="83.69" y="12">v </tspan><tspan class="cls-12" x="0" y="18">f</tspan><tspan x="1.54" y="18">ør man deler </tspan><tspan class="cls-13" x="32.39" y="18">e</tspan><tspan x="35.2" y="18">t billede af en anden </tspan><tspan x="0" y="24">person, også se</tspan><tspan class="cls-13" x="35.86" y="24">l</tspan><tspan class="cls-14" x="37.15" y="24">v</tspan><tspan class="cls-15" x="39.57" y="24">om d</tspan><tspan class="cls-16" x="51.07" y="24">e</tspan><tspan x="53.88" y="24">t ik</tspan><tspan class="cls-17" x="60.52" y="24">k</tspan><tspan x="62.93" y="24">e er </tspan><tspan class="cls-13" x="73.42" y="24">e</tspan><tspan x="76.23" y="24">t </tspan></tspan><tspan class="cls-18"><tspan class="cls-19" x="0" y="30">nøgenbillede.</tspan><tspan x="31.05" y="30"> </tspan></tspan></text><text></text><text></text></g></g></svg>
