<svg xmlns="http://www.w3.org/2000/svg" viewBox="0 0 105.66 71.26"><defs><style>.cls-1{fill:#202532;}.cls-2{font-size:8px;fill:#fff;font-family:Futura-CondensedExtraBold, Futura;}.cls-3{font-weight:700;}.cls-4{letter-spacing:0.01em;}.cls-5{letter-spacing:0em;}.cls-6{font-size:5px;}.cls-16,.cls-6{font-family:Futura-Medium, Futura;}.cls-7{letter-spacing:0.01em;}.cls-8{letter-spacing:-0.02em;}.cls-9{letter-spacing:-0.01em;}.cls-10{letter-spacing:-0.01em;}.cls-11{letter-spacing:-0.02em;}.cls-12{letter-spacing:0.01em;}.cls-13{letter-spacing:-0.02em;}.cls-14{letter-spacing:-0.02em;}.cls-15{letter-spacing:-0.02em;}.cls-16,.cls-17{font-size:4px;}.cls-17{font-family:MyriadPro-Regular, Myriad Pro;}</style></defs><title>Faktaboks_7</title><g id="Lag_2" data-name="Lag 2"><g id="Lag_1-2" data-name="Lag 1"><rect class="cls-1" width="105.66" height="71.26" rx="12" ry="12"/><text class="cls-2" transform="translate(8 15.9)"><tspan class="cls-3"><tspan class="cls-4">N</tspan><tspan x="5.15" y="0">emlig </tspan><tspan class="cls-5" x="27.59" y="0">r</tspan><tspan x="30.72" y="0">igtigt! </tspan></tspan><tspan class="cls-6"><tspan x="0" y="12">D</tspan><tspan class="cls-7" x="3.63" y="12">e</tspan><tspan x="6.44" y="12">t </tspan><tspan class="cls-8" x="9.35" y="12">k</tspan><tspan x="11.76" y="12">an </tspan><tspan class="cls-9" x="19.04" y="12">v</tspan><tspan x="21.49" y="12">æ</tspan><tspan class="cls-10" x="25.79" y="12">r</tspan><tspan x="27.63" y="12">e meg</tspan><tspan class="cls-7" x="41.65" y="12">e</tspan><tspan x="44.46" y="12">t k</tspan><tspan class="cls-10" x="49.86" y="12">r</tspan><tspan x="51.7" y="12">æn</tspan><tspan class="cls-11" x="58.75" y="12">k</tspan><tspan x="61.16" y="12">ende </tspan><tspan class="cls-12" x="73.97" y="12">f</tspan><tspan x="75.52" y="12">or en </tspan><tspan x="0" y="18">anden person at der bli</tspan><tspan class="cls-13" x="53.32" y="18">v</tspan><tspan x="55.74" y="18">er delt </tspan><tspan class="cls-7" x="71.84" y="18">e</tspan><tspan x="74.65" y="18">t </tspan><tspan x="0" y="24">billede af </tspan><tspan class="cls-8" x="22.83" y="24">v</tspan><tspan x="25.26" y="24">ed</tspan><tspan class="cls-14" x="31.02" y="24">k</tspan><tspan x="33.41" y="24">ommende uden </tspan><tspan x="0" y="30">samtyk</tspan><tspan class="cls-15" x="15.56" y="30">k</tspan><tspan x="17.97" y="30">e. </tspan></tspan><tspan class="cls-16"><tspan x="0" y="34.8"> </tspan></tspan><tspan class="cls-17"><tspan x="0" y="39.6"> </tspan></tspan></text></g></g></svg>
