<svg xmlns="http://www.w3.org/2000/svg" viewBox="0 0 105.66 71.26"><defs><style>.cls-1{fill:#202532;}.cls-2{font-size:8px;fill:#fff;font-family:Futura-CondensedExtraBold, Futura;}.cls-3{font-weight:700;}.cls-4{letter-spacing:0.01em;}.cls-5{letter-spacing:0em;}.cls-6{letter-spacing:0.01em;}.cls-7{font-size:5px;font-family:Futura-Medium, Futura;}.cls-8{letter-spacing:-0.02em;}.cls-9{letter-spacing:-0.02em;}.cls-10{letter-spacing:-0.02em;}.cls-11{letter-spacing:0.01em;}.cls-12{letter-spacing:0.02em;}.cls-13{letter-spacing:-0.01em;}.cls-14{letter-spacing:0em;}.cls-15{letter-spacing:-0.02em;}.cls-16{font-size:4px;}</style></defs><title>Faktaboks_8</title><g id="Lag_2" data-name="Lag 2"><g id="Lag_1-2" data-name="Lag 1"><rect class="cls-1" width="105.66" height="71.26" rx="12" ry="12"/><text class="cls-2" transform="translate(6.84 17.9)"><tspan class="cls-3">Du gjo<tspan class="cls-4" x="22.95" y="0">r</tspan><tspan x="26.13" y="0">de d</tspan><tspan class="cls-5" x="41.88" y="0">e</tspan><tspan x="46.25" y="0">t </tspan><tspan class="cls-5" x="51.38" y="0">r</tspan><tspan x="54.51" y="0">igti</tspan><tspan class="cls-6" x="66.27" y="0">g</tspan><tspan x="70.79" y="0">e!</tspan></tspan><tspan class="cls-7"><tspan x="0" y="12">Du </tspan><tspan class="cls-8" x="7.9" y="12">v</tspan><tspan x="10.32" y="12">alg</tspan><tspan class="cls-4" x="17.56" y="12">t</tspan><tspan x="18.97" y="12">e ik</tspan><tspan class="cls-9" x="27.02" y="12">k</tspan><tspan x="29.43" y="12">e at dele billed</tspan><tspan class="cls-4" x="63.46" y="12">e</tspan><tspan x="66.27" y="12">t, hvil</tspan><tspan class="cls-10" x="78.47" y="12">k</tspan><tspan class="cls-11" x="80.88" y="12">e</tspan><tspan x="83.69" y="12">t </tspan><tspan x="0" y="18">er d</tspan><tspan class="cls-4" x="9.18" y="18">e</tspan><tspan x="11.99" y="18">t </tspan><tspan class="cls-12" x="14.9" y="18">r</tspan><tspan x="16.84" y="18">igtige at gø</tspan><tspan class="cls-13" x="42.9" y="18">r</tspan><tspan class="cls-14" x="44.74" y="18">e når du ik</tspan><tspan class="cls-15" x="69.2" y="18">k</tspan><tspan x="71.61" y="18">e har </tspan><tspan class="cls-12" x="0" y="24">f</tspan><tspan x="1.56" y="24">å</tspan><tspan class="cls-4" x="4.56" y="24">e</tspan><tspan x="7.37" y="24">t samtyk</tspan><tspan class="cls-9" x="25.83" y="24">k</tspan><tspan x="28.24" y="24">e til at dele </tspan><tspan class="cls-4" x="55.18" y="24">e</tspan><tspan x="57.99" y="24">t billede af en </tspan><tspan x="0" y="30">anden person.</tspan><tspan class="cls-16" x="32.74" y="30"> </tspan></tspan></text></g></g></svg>
