<svg xmlns="http://www.w3.org/2000/svg" viewBox="0 0 130 118"><defs><style>.cls-1{fill:#89cce5;}.cls-2{font-size:7.5px;fill:#fff;font-family:Futura-CondensedExtraBold, Futura;}.cls-3{font-weight:700;}.cls-4{font-size:6.5px;font-family:Futura-Medium, Futura;}.cls-5{letter-spacing:-0.01em;}.cls-6{letter-spacing:0.01em;}.cls-7{letter-spacing:0.02em;}.cls-8{letter-spacing:0.01em;}.cls-9{letter-spacing:-0.02em;}.cls-10{letter-spacing:0em;}.cls-11{letter-spacing:0.02em;}.cls-12{letter-spacing:-0.02em;}.cls-13{letter-spacing:0em;}.cls-14{letter-spacing:0.01em;}.cls-15{letter-spacing:-0.04em;}.cls-16{letter-spacing:-0.02em;}.cls-17{letter-spacing:-0.02em;}.cls-18{letter-spacing:-0.01em;}.cls-19{letter-spacing:-0.06em;}.cls-20{letter-spacing:0.01em;}.cls-21{letter-spacing:-0.08em;}.cls-22{letter-spacing:-0.01em;}.cls-23{letter-spacing:0.02em;}</style></defs><title>Strandimgrigtig</title><g id="Lag_2" data-name="Lag 2"><g id="Lag_1-2" data-name="Lag 1"><polyline class="cls-1" points="13.19 79.34 0 118 35.65 83.52"/><text></text><rect class="cls-1" width="130" height="92" rx="12" ry="12"/><text class="cls-2" transform="translate(8 13.19)"><tspan class="cls-3">Sådan!</tspan><tspan class="cls-4"><tspan x="0" y="12">Du gjo</tspan><tspan class="cls-5" x="19.68" y="12">r</tspan><tspan x="22.07" y="12">de d</tspan><tspan class="cls-6" x="35.47" y="12">e</tspan><tspan x="39.12" y="12">t helt </tspan><tspan class="cls-7" x="55.47" y="12">r</tspan><tspan x="58" y="12">igtige, d</tspan><tspan class="cls-8" x="82.3" y="12">e</tspan><tspan x="85.95" y="12">t </tspan><tspan x="0" y="19.8">er nemlig ul</tspan><tspan class="cls-9" x="34.63" y="19.8">o</tspan><tspan class="cls-8" x="38.41" y="19.8">v</tspan><tspan class="cls-10" x="41.73" y="19.8">ligt at dele </tspan><tspan x="0" y="27.6">billeder af and</tspan><tspan class="cls-5" x="43.47" y="27.6">r</tspan><tspan class="cls-10" x="45.86" y="27.6">e i p</tspan><tspan class="cls-11" x="58.98" y="27.6">r</tspan><tspan x="61.51" y="27.6">i</tspan><tspan class="cls-12" x="63.13" y="27.6">v</tspan><tspan class="cls-13" x="66.29" y="27.6">a</tspan><tspan class="cls-14" x="70.18" y="27.6">t</tspan><tspan x="72.02" y="27.6">e </tspan><tspan x="0" y="35.4">situatione</tspan><tspan class="cls-15" x="27.94" y="35.4">r</tspan><tspan x="30.11" y="35.4">, som fx yd</tspan><tspan class="cls-16" x="62.8" y="35.4">m</tspan><tspan x="67.84" y="35.4">yger </tspan><tspan x="0" y="43.2">eller k</tspan><tspan class="cls-5" x="18.1" y="43.2">r</tspan><tspan x="20.49" y="43.2">æn</tspan><tspan class="cls-17" x="29.65" y="43.2">k</tspan><tspan x="32.78" y="43.2">er de</tspan><tspan class="cls-18" x="48.31" y="43.2">r</tspan><tspan x="50.7" y="43.2">es p</tspan><tspan class="cls-11" x="62.83" y="43.2">r</tspan><tspan x="65.36" y="43.2">i</tspan><tspan class="cls-12" x="66.98" y="43.2">v</tspan><tspan x="70.14" y="43.2">atli</tspan><tspan class="cls-19" x="79.05" y="43.2">v</tspan><tspan x="81.96" y="43.2">. </tspan><tspan class="cls-20" x="0" y="51">V</tspan><tspan x="4.46" y="51">ids</tspan><tspan class="cls-6" x="12.61" y="51">t</tspan><tspan x="14.45" y="51">e du at hvis personen er </tspan><tspan x="0" y="58.8">under </tspan><tspan class="cls-21" x="19.04" y="58.8">1</tspan><tspan x="22.56" y="58.8">8 så hø</tspan><tspan class="cls-5" x="44.59" y="58.8">r</tspan><tspan x="46.98" y="58.8">er d</tspan><tspan class="cls-14" x="58.91" y="58.8">e</tspan><tspan x="62.56" y="58.8">t </tspan><tspan class="cls-22" x="66.34" y="58.8">r</tspan><tspan x="68.73" y="58.8">en </tspan><tspan class="cls-7" x="0" y="66.6">f</tspan><tspan x="2.03" y="66.6">aktisk under bø</tspan><tspan class="cls-7" x="47.28" y="66.6">r</tspan><tspan x="49.81" y="66.6">nepo</tspan><tspan class="cls-11" x="64.78" y="66.6">r</tspan><tspan x="67.3" y="66.6">nog</tspan><tspan class="cls-18" x="78.67" y="66.6">r</tspan><tspan x="81.06" y="66.6">a</tspan><tspan class="cls-23" x="84.95" y="66.6">f</tspan><tspan class="cls-13" x="87.02" y="66.6">i?</tspan></tspan></text></g></g></svg>
