<svg xmlns="http://www.w3.org/2000/svg" viewBox="0 0 130 118"><defs><style>.cls-1{fill:#202532;}.cls-2{font-size:6.5px;fill:#fff;font-family:Futura-CondensedExtraBold, Futura;}.cls-3{font-weight:700;}.cls-4{letter-spacing:0.01em;}.cls-5{letter-spacing:0em;}.cls-6{letter-spacing:0.01em;}.cls-7{letter-spacing:0.01em;}.cls-8{font-size:7px;font-family:Futura-Medium, Futura;}.cls-9{letter-spacing:0.01em;}.cls-10{letter-spacing:-0.02em;}.cls-11{letter-spacing:-0.01em;}.cls-12{letter-spacing:0.02em;}.cls-13{letter-spacing:-0.02em;}.cls-14{letter-spacing:-0.04em;}.cls-15{letter-spacing:-0.02em;}.cls-16{letter-spacing:0em;}.cls-17{letter-spacing:-0.02em;}.cls-18{letter-spacing:-0.06em;}.cls-19{letter-spacing:-0.08em;}.cls-20{letter-spacing:0.02em;}.cls-21{letter-spacing:-0.01em;}.cls-22{letter-spacing:0.02em;}</style></defs><title>Strandimgforkert</title><g id="Lag_2" data-name="Lag 2"><g id="Lag_1-2" data-name="Lag 1"><polyline class="cls-1" points="13.19 79.34 0 118 35.65 83.52"/><rect class="cls-1" width="130" height="91" rx="12" ry="12"/><text class="cls-2" transform="translate(6.84 11.36)"><tspan class="cls-3"><tspan class="cls-4">V</tspan><tspan class="cls-5" x="3.89" y="0">id</tspan><tspan class="cls-6" x="9.4" y="0">s</tspan><tspan class="cls-7" x="12.35" y="0">t</tspan><tspan x="14.6" y="0">e du ?</tspan></tspan><tspan class="cls-8"><tspan x="0" y="12">D</tspan><tspan class="cls-9" x="5.08" y="12">e</tspan><tspan x="9.02" y="12">t er ul</tspan><tspan class="cls-10" x="27.3" y="12">o</tspan><tspan class="cls-9" x="31.37" y="12">v</tspan><tspan x="34.95" y="12">ligt at dele billeder af </tspan><tspan x="0" y="20.4">and</tspan><tspan class="cls-11" x="12.23" y="20.4">r</tspan><tspan x="14.8" y="20.4">e i p</tspan><tspan class="cls-12" x="28.94" y="20.4">r</tspan><tspan x="31.66" y="20.4">i</tspan><tspan class="cls-13" x="33.4" y="20.4">v</tspan><tspan x="36.8" y="20.4">a</tspan><tspan class="cls-9" x="41" y="20.4">t</tspan><tspan x="42.97" y="20.4">e situatione</tspan><tspan class="cls-14" x="79.09" y="20.4">r</tspan><tspan x="81.43" y="20.4">, som fx </tspan><tspan x="0" y="28.8">yd</tspan><tspan class="cls-15" x="8" y="28.8">m</tspan><tspan x="13.43" y="28.8">yger eller k</tspan><tspan class="cls-11" x="49.57" y="28.8">r</tspan><tspan class="cls-16" x="52.14" y="28.8">æn</tspan><tspan class="cls-17" x="62" y="28.8">k</tspan><tspan x="65.38" y="28.8">er de</tspan><tspan class="cls-11" x="82.1" y="28.8">r</tspan><tspan x="84.67" y="28.8">es </tspan><tspan x="0" y="37.2">p</tspan><tspan class="cls-12" x="4.2" y="37.2">r</tspan><tspan x="6.92" y="37.2">i</tspan><tspan class="cls-13" x="8.66" y="37.2">v</tspan><tspan x="12.06" y="37.2">atli</tspan><tspan class="cls-18" x="21.66" y="37.2">v</tspan><tspan x="24.79" y="37.2">. Hvis personen er under </tspan><tspan class="cls-19" x="105.1" y="37.2">1</tspan><tspan x="108.9" y="37.2">8 </tspan><tspan x="0" y="45.6">hø</tspan><tspan class="cls-11" x="8.05" y="45.6">r</tspan><tspan x="10.62" y="45.6">er d</tspan><tspan class="cls-9" x="23.46" y="45.6">e</tspan><tspan x="27.4" y="45.6">t </tspan><tspan class="cls-11" x="31.47" y="45.6">r</tspan><tspan x="34.04" y="45.6">en </tspan><tspan class="cls-20" x="43.91" y="45.6">f</tspan><tspan x="46.1" y="45.6">aktisk under </tspan><tspan x="0" y="54">bø</tspan><tspan class="cls-12" x="8.4" y="54">r</tspan><tspan x="11.13" y="54">nepo</tspan><tspan class="cls-12" x="27.24" y="54">r</tspan><tspan x="29.97" y="54">nog</tspan><tspan class="cls-21" x="42.21" y="54">r</tspan><tspan x="44.78" y="54">a</tspan><tspan class="cls-22" x="48.97" y="54">f</tspan><tspan class="cls-16" x="51.2" y="54">i?</tspan></tspan></text></g></g></svg>
