<svg xmlns="http://www.w3.org/2000/svg" viewBox="0 0 105.66 110"><defs><style>.cls-1{fill:#202532;}.cls-2{font-size:6.5px;fill:#fff;font-family:Futura-CondensedExtraBold, Futura;font-weight:700;}.cls-3{letter-spacing:0.01em;}.cls-4{letter-spacing:0em;}.cls-5{letter-spacing:0.01em;}.cls-6{letter-spacing:0.01em;}.cls-7{font-size:7px;}.cls-8{letter-spacing:0em;}.cls-9{letter-spacing:-0.01em;}.cls-10{letter-spacing:0.01em;}.cls-11{letter-spacing:0em;}.cls-12{letter-spacing:-0.04em;}.cls-13{letter-spacing:-0.01em;}.cls-14{letter-spacing:-0.02em;}.cls-15{letter-spacing:-0.01em;}.cls-16{letter-spacing:-0.03em;}.cls-17{letter-spacing:0em;}.cls-18{letter-spacing:-0.05em;}.cls-19{letter-spacing:0em;}.cls-20{letter-spacing:0em;}.cls-21{letter-spacing:0.01em;}.cls-22{letter-spacing:0.01em;}</style></defs><title>Strandimgforkert</title><g id="Lag_2" data-name="Lag 2"><g id="Lag_1-2" data-name="Lag 1"><polyline class="cls-1" points="18.19 71.34 5 110 40.65 75.52"/><rect class="cls-1" width="105.66" height="84" rx="12" ry="12"/><text class="cls-2" transform="translate(6.84 11.36)"><tspan class="cls-3">V</tspan><tspan class="cls-4" x="3.89" y="0">id</tspan><tspan class="cls-5" x="9.4" y="0">s</tspan><tspan class="cls-6" x="12.35" y="0">t</tspan><tspan x="14.6" y="0">e du ?</tspan><tspan class="cls-7"><tspan x="0" y="8.4">D</tspan><tspan class="cls-8" x="4.26" y="8.4">e</tspan><tspan x="8.08" y="8.4">t er ul</tspan><tspan class="cls-9" x="27.17" y="8.4">o</tspan><tspan class="cls-10" x="30.97" y="8.4">v</tspan><tspan x="34.56" y="8.4">ligt at dele </tspan><tspan x="0" y="16.8">billeder af and</tspan><tspan class="cls-10" x="46.49" y="16.8">r</tspan><tspan x="49.27" y="16.8">e i p</tspan><tspan class="cls-8" x="63.22" y="16.8">r</tspan><tspan x="65.96" y="16.8">i</tspan><tspan class="cls-11" x="67.96" y="16.8">v</tspan><tspan x="71.47" y="16.8">a</tspan><tspan class="cls-6" x="75.4" y="16.8">t</tspan><tspan x="77.82" y="16.8">e </tspan><tspan x="0" y="25.2">situatione</tspan><tspan class="cls-12" x="31.34" y="25.2">r</tspan><tspan x="33.77" y="25.2">, som fx ydm</tspan><tspan class="cls-13" x="74.53" y="25.2">y</tspan><tspan class="cls-10" x="78.07" y="25.2">g</tspan><tspan x="82.03" y="25.2">er </tspan><tspan x="0" y="33.6">eller k</tspan><tspan class="cls-14" x="20.38" y="33.6">r</tspan><tspan x="22.99" y="33.6">æn</tspan><tspan class="cls-15" x="32.69" y="33.6">k</tspan><tspan x="36.52" y="33.6">er de</tspan><tspan class="cls-10" x="52.9" y="33.6">r</tspan><tspan x="55.68" y="33.6">es </tspan><tspan x="0" y="42">p</tspan><tspan class="cls-8" x="3.92" y="42">r</tspan><tspan x="6.65" y="42">i</tspan><tspan class="cls-11" x="8.66" y="42">v</tspan><tspan x="12.17" y="42">atli</tspan><tspan class="cls-16" x="22.49" y="42">v</tspan><tspan x="25.84" y="42">. Hvis pe</tspan><tspan class="cls-8" x="52.81" y="42">r</tspan><tspan class="cls-17" x="55.55" y="42">sonen er </tspan><tspan x="0" y="50.4">under </tspan><tspan class="cls-18" x="20.41" y="50.4">1</tspan><tspan x="24.25" y="50.4">8 hø</tspan><tspan class="cls-10" x="38.31" y="50.4">r</tspan><tspan class="cls-19" x="41.08" y="50.4">er d</tspan><tspan class="cls-20" x="53.66" y="50.4">e</tspan><tspan x="57.48" y="50.4">t </tspan><tspan class="cls-10" x="61.97" y="50.4">r</tspan><tspan x="64.75" y="50.4">en </tspan><tspan class="cls-21" x="0" y="58.8">f</tspan><tspan x="2.44" y="58.8">aktisk under bø</tspan><tspan class="cls-22" x="52.02" y="58.8">r</tspan><tspan x="54.82" y="58.8">nepo</tspan><tspan class="cls-22" x="70.29" y="58.8">r</tspan><tspan x="73.08" y="58.8">no</tspan><tspan x="80.82" y="58.8">-</tspan></tspan></text></g></g></svg>
