<svg xmlns="http://www.w3.org/2000/svg" viewBox="0 0 105.66 109"><defs><style>.cls-1{fill:#89cce5;}.cls-2{font-size:7.5px;fill:#fff;font-family:Futura-CondensedExtraBold, Futura;font-weight:700;}.cls-3{font-size:6.5px;}.cls-4{letter-spacing:0.01em;}.cls-5{letter-spacing:0em;}.cls-6{letter-spacing:0em;}.cls-7{letter-spacing:0.01em;}.cls-8{letter-spacing:0em;}.cls-9{letter-spacing:-0.01em;}.cls-10{letter-spacing:0em;}.cls-11{letter-spacing:0.01em;}.cls-12{letter-spacing:-0.04em;}.cls-13{letter-spacing:-0.01em;}.cls-14{letter-spacing:-0.02em;}.cls-15{letter-spacing:0em;}.cls-16{letter-spacing:-0.01em;}.cls-17{letter-spacing:0em;}.cls-18{letter-spacing:-0.03em;}.cls-19{letter-spacing:0.01em;}.cls-20{letter-spacing:0.01em;}.cls-21{letter-spacing:-0.05em;}.cls-22{letter-spacing:0.01em;}.cls-23{letter-spacing:0.01em;}.cls-24{letter-spacing:0.02em;}.cls-25{letter-spacing:0.01em;}.cls-26{letter-spacing:0.02em;}</style></defs><title>Strandimgrigtig</title><g id="Lag_2" data-name="Lag 2"><g id="Lag_1-2" data-name="Lag 1"><polyline class="cls-1" points="17.19 70.34 4 109 39.65 74.52"/><text></text><rect class="cls-1" width="105.66" height="85" rx="12" ry="12"/><text class="cls-2" transform="translate(8 13.19)">Sådan!<tspan class="cls-3"><tspan x="0" y="7.8">Du gjo</tspan><tspan class="cls-4" x="18.65" y="7.8">r</tspan><tspan x="21.23" y="7.8">de d</tspan><tspan class="cls-5" x="34.03" y="7.8">e</tspan><tspan x="37.58" y="7.8">t helt </tspan><tspan class="cls-6" x="54.92" y="7.8">r</tspan><tspan x="57.46" y="7.8">igti</tspan><tspan class="cls-7" x="67.02" y="7.8">g</tspan><tspan x="70.69" y="7.8">e, d</tspan><tspan class="cls-6" x="81.79" y="7.8">e</tspan><tspan class="cls-8" x="85.34" y="7.8">t </tspan><tspan x="0" y="15.6">er nemlig ul</tspan><tspan class="cls-9" x="35.4" y="15.6">o</tspan><tspan class="cls-7" x="38.93" y="15.6">v</tspan><tspan x="42.26" y="15.6">ligt at dele </tspan><tspan x="0" y="23.4">billeder af and</tspan><tspan class="cls-7" x="43.17" y="23.4">r</tspan><tspan x="45.75" y="23.4">e i p</tspan><tspan class="cls-5" x="58.7" y="23.4">r</tspan><tspan x="61.25" y="23.4">i</tspan><tspan class="cls-10" x="63.11" y="23.4">v</tspan><tspan x="66.37" y="23.4">a</tspan><tspan class="cls-11" x="70.02" y="23.4">t</tspan><tspan x="72.27" y="23.4">e </tspan><tspan x="0" y="31.2">situatione</tspan><tspan class="cls-12" x="29.1" y="31.2">r</tspan><tspan x="31.36" y="31.2">, som fx ydm</tspan><tspan class="cls-13" x="69.21" y="31.2">y</tspan><tspan class="cls-7" x="72.49" y="31.2">g</tspan><tspan x="76.17" y="31.2">er </tspan><tspan x="0" y="39">eller k</tspan><tspan class="cls-14" x="18.93" y="39">r</tspan><tspan class="cls-15" x="21.34" y="39">æn</tspan><tspan class="cls-16" x="30.35" y="39">k</tspan><tspan x="33.91" y="39">er de</tspan><tspan class="cls-7" x="49.12" y="39">r</tspan><tspan x="51.7" y="39">es p</tspan><tspan class="cls-5" x="63.73" y="39">r</tspan><tspan x="66.28" y="39">i</tspan><tspan class="cls-17" x="68.14" y="39">v</tspan><tspan x="71.39" y="39">atli</tspan><tspan class="cls-18" x="80.98" y="39">v</tspan><tspan x="84.09" y="39">. </tspan><tspan class="cls-19" x="0" y="46.8">V</tspan><tspan x="3.89" y="46.8">id</tspan><tspan class="cls-20" x="9.4" y="46.8">s</tspan><tspan class="cls-11" x="12.35" y="46.8">t</tspan><tspan x="14.6" y="46.8">e du at hvis pe</tspan><tspan class="cls-5" x="57.97" y="46.8">r</tspan><tspan x="60.51" y="46.8">sonen er </tspan><tspan x="0" y="54.6">under </tspan><tspan class="cls-21" x="18.95" y="54.6">1</tspan><tspan x="22.51" y="54.6">8 så hø</tspan><tspan class="cls-7" x="44.07" y="54.6">r</tspan><tspan x="46.65" y="54.6">er d</tspan><tspan class="cls-5" x="58.33" y="54.6">e</tspan><tspan x="61.88" y="54.6">t </tspan><tspan class="cls-7" x="66.05" y="54.6">r</tspan><tspan x="68.63" y="54.6">en </tspan><tspan class="cls-4" x="0" y="62.4">f</tspan><tspan x="2.27" y="62.4">aktisk under bø</tspan><tspan class="cls-22" x="48.31" y="62.4">r</tspan><tspan x="50.9" y="62.4">nepo</tspan><tspan class="cls-23" x="65.27" y="62.4">r</tspan><tspan x="67.86" y="62.4">no</tspan><tspan class="cls-24" x="75.05" y="62.4">g</tspan><tspan class="cls-25" x="78.77" y="62.4">r</tspan><tspan x="81.36" y="62.4">a</tspan><tspan class="cls-26" x="85.01" y="62.4">f</tspan><tspan x="87.32" y="62.4">i?</tspan></tspan></text></g></g></svg>
