<svg xmlns="http://www.w3.org/2000/svg" viewBox="0 0 105.66 109"><defs><style>.cls-1{fill:#89cce5;}.cls-2{font-size:7.5px;fill:#fff;font-family:Futura-Medium, Futura Medium;}.cls-3{font-size:6.5px;}.cls-4{letter-spacing:0em;}.cls-5{letter-spacing:-0.01em;}.cls-6{letter-spacing:0em;}.cls-7{letter-spacing:-0.01em;}.cls-8{letter-spacing:-0.01em;}.cls-9{letter-spacing:0em;}.cls-10{letter-spacing:0em;}.cls-11{letter-spacing:-0.01em;}.cls-12{letter-spacing:0em;}.cls-13{letter-spacing:-0.05em;}.cls-14{letter-spacing:-0.01em;}.cls-15{letter-spacing:0.02em;}.cls-16{letter-spacing:0em;}.cls-17{letter-spacing:0em;}.cls-18{letter-spacing:-0.01em;}.cls-19{letter-spacing:-0.04em;}.cls-20{letter-spacing:-0.04em;}.cls-21{letter-spacing:-0.02em;}.cls-22{letter-spacing:-0.01em;}.cls-23{letter-spacing:-0.01em;}</style></defs><title>Aktiv 25</title><g id="Lag_2" data-name="Lag 2"><g id="Lag_1-2" data-name="Lag 1"><polyline class="cls-1" points="17.19 70.34 4 109 39.65 74.52"/><text></text><rect class="cls-1" width="105.66" height="85" rx="12" ry="12"/><text class="cls-2" transform="translate(8 12.32)">sådan!<tspan class="cls-3"><tspan class="cls-4" x="0" y="7.8">D</tspan><tspan x="4.35" y="7.8">u gjo</tspan><tspan class="cls-5" x="18.09" y="7.8">r</tspan><tspan x="20.15" y="7.8">de det helt </tspan><tspan class="cls-6" x="50.83" y="7.8">r</tspan><tspan x="52.98" y="7.8">igtig</tspan><tspan class="cls-7" x="65.44" y="7.8">e</tspan><tspan x="68.62" y="7.8">, det er </tspan><tspan x="0" y="15.6">nemlig ul</tspan><tspan class="cls-8" x="25.47" y="15.6">o</tspan><tspan x="28.99" y="15.6">vligt </tspan><tspan class="cls-9" x="42.33" y="15.6">a</tspan><tspan x="45.44" y="15.6">t dele billeder af </tspan><tspan x="0" y="23.4">and</tspan><tspan class="cls-5" x="10.41" y="23.4">r</tspan><tspan x="12.47" y="23.4">e i p</tspan><tspan class="cls-10" x="23.7" y="23.4">r</tspan><tspan x="25.85" y="23.4">i</tspan><tspan class="cls-9" x="27.37" y="23.4">va</tspan><tspan class="cls-11" x="33.58" y="23.4">t</tspan><tspan x="35.69" y="23.4">e situ</tspan><tspan class="cls-12" x="50.15" y="23.4">a</tspan><tspan x="53.26" y="23.4">tione</tspan><tspan class="cls-13" x="67.36" y="23.4">r</tspan><tspan x="69.14" y="23.4">, som fx </tspan><tspan class="cls-5" x="0" y="31.2">y</tspan><tspan x="3" y="31.2">d</tspan><tspan class="cls-14" x="6.66" y="31.2">m</tspan><tspan class="cls-5" x="12" y="31.2">y</tspan><tspan x="15" y="31.2">ger eller </tspan><tspan class="cls-15" x="38.47" y="31.2">k</tspan><tspan class="cls-16" x="41.63" y="31.2">r</tspan><tspan class="cls-17" x="43.73" y="31.2">ænker de</tspan><tspan class="cls-18" x="69.09" y="31.2">r</tspan><tspan x="71.15" y="31.2">es </tspan><tspan x="0" y="39">p</tspan><tspan class="cls-10" x="3.7" y="39">r</tspan><tspan x="5.85" y="39">i</tspan><tspan class="cls-9" x="7.37" y="39">va</tspan><tspan x="13.58" y="39">tli</tspan><tspan class="cls-19" x="18.78" y="39">v</tspan><tspan x="21.66" y="39">.</tspan><tspan class="cls-20" x="23" y="39"> </tspan><tspan class="cls-21" x="24.15" y="39">V</tspan><tspan x="27.67" y="39">ids</tspan><tspan class="cls-11" x="35.43" y="39">t</tspan><tspan x="37.54" y="39">e du </tspan><tspan class="cls-12" x="50.8" y="39">a</tspan><tspan x="53.91" y="39">t </tspan><tspan class="cls-22" x="57.44" y="39">h</tspan><tspan x="60.96" y="39">vis </tspan><tspan x="0" y="46.8">personen er under 18 så hø</tspan><tspan class="cls-23" x="73.75" y="46.8">r</tspan><tspan x="75.81" y="46.8">er det </tspan><tspan class="cls-5" x="0" y="54.6">r</tspan><tspan x="2.06" y="54.6">en faktisk under bø</tspan><tspan class="cls-6" x="53.93" y="54.6">r</tspan><tspan x="56.09" y="54.6">nepo</tspan><tspan class="cls-6" x="70.22" y="54.6">r</tspan><tspan x="72.37" y="54.6">no</tspan><tspan class="cls-11" x="79.54" y="54.6">g</tspan><tspan class="cls-16" x="83.14" y="54.6">r</tspan><tspan x="85.23" y="54.6">afi?</tspan></tspan></text></g></g></svg>
