<svg xmlns="http://www.w3.org/2000/svg" viewBox="0 0 105.66 110"><defs><style>.cls-1{fill:#202532;}.cls-2{font-size:6.5px;fill:#fff;font-family:Futura-CondensedExtraBold, Futura CondensedExtraBold;font-weight:700;}.cls-3{letter-spacing:-0.02em;}.cls-4{letter-spacing:-0.01em;}.cls-5{font-size:7px;}.cls-6{letter-spacing:0em;}.cls-7{letter-spacing:-0.01em;}.cls-8{letter-spacing:0em;}.cls-9{letter-spacing:-0.01em;}.cls-10{letter-spacing:0em;}.cls-11{letter-spacing:-0.01em;}.cls-12{letter-spacing:-0.05em;}.cls-13{letter-spacing:-0.01em;}.cls-14{letter-spacing:-0.01em;}.cls-15{letter-spacing:0.02em;}.cls-16{letter-spacing:0em;}.cls-17{letter-spacing:-0.04em;}.cls-18{letter-spacing:0em;}.cls-19{letter-spacing:0.01em;}.cls-20{letter-spacing:-0.01em;}.cls-21{letter-spacing:0em;}.cls-22{letter-spacing:0em;}</style></defs><title>Aktiv 24</title><g id="Lag_2" data-name="Lag 2"><g id="Lag_1-2" data-name="Lag 1"><polyline class="cls-1" points="18.19 71.34 5 110 40.65 75.52"/><rect class="cls-1" width="105.66" height="84" rx="12" ry="12"/><text class="cls-2" transform="translate(6.84 10.61)"><tspan class="cls-3">V</tspan><tspan x="3.52" y="0">ids</tspan><tspan class="cls-4" x="11.28" y="0">t</tspan><tspan x="13.4" y="0">e du ?</tspan><tspan class="cls-5"><tspan class="cls-6" x="0" y="8.4">D</tspan><tspan x="4.69" y="8.4">et er ul</tspan><tspan class="cls-7" x="24.79" y="8.4">o</tspan><tspan x="28.58" y="8.4">vligt </tspan><tspan class="cls-8" x="42.95" y="8.4">a</tspan><tspan x="46.3" y="8.4">t dele billeder </tspan><tspan x="0" y="16.8">af and</tspan><tspan class="cls-9" x="18.11" y="16.8">r</tspan><tspan x="20.33" y="16.8">e i p</tspan><tspan class="cls-6" x="32.42" y="16.8">r</tspan><tspan x="34.74" y="16.8">i</tspan><tspan class="cls-10" x="36.38" y="16.8">va</tspan><tspan class="cls-11" x="43.06" y="16.8">t</tspan><tspan x="45.34" y="16.8">e situ</tspan><tspan class="cls-8" x="60.91" y="16.8">a</tspan><tspan x="64.26" y="16.8">tione</tspan><tspan class="cls-12" x="79.45" y="16.8">r</tspan><tspan x="81.37" y="16.8">, </tspan><tspan x="0" y="25.2">som fx </tspan><tspan class="cls-9" x="20.71" y="25.2">y</tspan><tspan x="23.93" y="25.2">d</tspan><tspan class="cls-13" x="27.88" y="25.2">m</tspan><tspan class="cls-14" x="33.63" y="25.2">y</tspan><tspan x="36.85" y="25.2">ger eller </tspan><tspan class="cls-15" x="62.14" y="25.2">k</tspan><tspan class="cls-16" x="65.54" y="25.2">r</tspan><tspan x="67.8" y="25.2">ænker </tspan><tspan x="0" y="33.6">de</tspan><tspan class="cls-9" x="7.45" y="33.6">r</tspan><tspan x="9.67" y="33.6">es p</tspan><tspan class="cls-6" x="21.42" y="33.6">r</tspan><tspan x="23.74" y="33.6">i</tspan><tspan class="cls-10" x="25.37" y="33.6">va</tspan><tspan x="32.06" y="33.6">tli</tspan><tspan class="cls-17" x="37.67" y="33.6">v</tspan><tspan class="cls-18" x="40.76" y="33.6">. </tspan><tspan class="cls-19" x="43.69" y="33.6">H</tspan><tspan x="48.32" y="33.6">vis personen </tspan><tspan x="0" y="42">er under 18 hø</tspan><tspan class="cls-14" x="42.64" y="42">r</tspan><tspan x="44.86" y="42">er det </tspan><tspan class="cls-20" x="63.4" y="42">r</tspan><tspan x="65.62" y="42">en </tspan><tspan x="0" y="50.4">faktisk under bø</tspan><tspan class="cls-21" x="46.99" y="50.4">r</tspan><tspan x="49.31" y="50.4">nepo</tspan><tspan class="cls-22" x="64.52" y="50.4">r</tspan><tspan x="66.84" y="50.4">no</tspan><tspan class="cls-11" x="74.57" y="50.4">g</tspan><tspan class="cls-16" x="78.44" y="50.4">r</tspan><tspan x="80.69" y="50.4">afi?</tspan></tspan></text></g></g></svg>
